<svg width="32" height="32" viewBox="0 0 32 32" fill="none" xmlns="http://www.w3.org/2000/svg">
<path d="M16.2473 10.3164C15.674 10.2722 15.0962 10.3082 14.5307 10.4245C13.7377 10.5876 12.9847 10.9053 12.3145 11.3594C11.6443 11.8136 11.0701 12.3953 10.6247 13.0713C10.1793 13.7473 9.87146 14.5045 9.71862 15.2995C9.62743 15.7741 9.16882 16.0849 8.69427 15.9937C8.21966 15.9025 7.90887 15.4438 8.00012 14.9693C8.19623 13.9486 8.59149 12.9765 9.16333 12.1085C9.73517 11.2406 10.4723 10.4938 11.3328 9.91071C12.1932 9.32764 13.1601 8.9198 14.1781 8.71039C14.7822 8.58618 15.3973 8.5332 16.0109 8.5517L15.4382 7.9801C15.145 7.6875 15.1445 7.21264 15.4371 6.91943C15.7297 6.62622 16.2046 6.62579 16.4978 6.91839L18.602 9.01837C18.8352 9.25104 18.8832 9.599 18.746 9.87921C18.7106 9.9516 18.6629 10.0194 18.6028 10.0797L16.5028 12.1839C16.2102 12.4771 15.7353 12.4776 15.4421 12.185C15.1489 11.8924 15.1484 11.4175 15.441 11.1243L16.2473 10.3164Z" fill="#0D0F13"/>
<path d="M16 3.5C23.732 3.5 30 9.76801 30 17.5C30 21.8373 28.0276 25.714 24.9309 28.2819C24.758 28.4253 24.539 28.5 24.3144 28.5H7.68561C7.461 28.5 7.24207 28.4253 7.06909 28.2819C3.97235 25.714 2 21.8373 2 17.5C2 9.76801 8.26801 3.5 16 3.5ZM23.9375 26.5C26.4317 24.2985 28 21.0832 28 17.5C28 14.649 27.0058 12.0302 25.3451 9.97144L18.7076 16.6089C18.895 17.0006 19 17.4392 19 17.9023C19 19.5592 17.6569 20.9023 16 20.9023C14.3431 20.9023 13 19.5592 13 17.9023C13 16.2455 14.3431 14.9023 16 14.9023C16.4631 14.9023 16.9018 15.0073 17.2934 15.1947L23.9643 8.5238C21.8456 6.64252 19.0562 5.5 16 5.5C9.37256 5.5 4 10.8726 4 17.5C4 21.0832 5.56824 24.2985 8.0625 26.5H23.9375ZM17 17.9023C17 17.3501 16.5523 16.9023 16 16.9023C15.4477 16.9023 15 17.3501 15 17.9023C15 18.4546 15.4477 18.9023 16 18.9023C16.5523 18.9023 17 18.4546 17 17.9023Z" fill="#0D0F13"/>
</svg>
