<svg width="32" height="32" viewBox="0 0 32 32" fill="none" xmlns="http://www.w3.org/2000/svg">
<path d="M25.9279 6.12891C28.4435 8.65906 29.9999 12.1486 29.9999 15.9998C29.9999 19.851 28.4435 23.3406 25.9279 25.8707C25.5385 26.2624 24.9053 26.2642 24.5137 25.8748C24.122 25.4854 24.1203 24.8522 24.5096 24.4606C26.6679 22.2899 27.9999 19.3014 27.9999 15.9998C27.9999 12.6983 26.6679 9.70972 24.5096 7.53907C24.1203 7.14741 24.122 6.51429 24.5137 6.12489C24.9053 5.73547 25.5385 5.73724 25.9279 6.12891Z" fill="#0D0F13"/>
<path d="M17.0817 6.16022C17.9478 5.6919 19 6.31909 19 7.30377V24.7006C19 25.6867 17.9451 26.3138 17.0788 25.8426L10.2295 22.1172C10.0829 22.0375 9.91865 21.9957 9.75172 21.9957H4C2.89545 21.9957 2 21.1003 2 19.9957V11.9862C2 10.8816 2.89545 9.98615 4 9.98615H9.75299C9.91913 9.98615 10.0826 9.94477 10.2287 9.86579L17.0817 6.16022ZM17 23.523V8.47809L11.1799 11.6251C10.7417 11.8621 10.2513 11.9862 9.75299 11.9862H4V19.9957H9.75171C10.2524 19.9957 10.7452 20.121 11.1851 20.3603L17 23.523Z" fill="#0D0F13"/>
<path d="M22.7443 9.07294C24.7307 10.7222 25.9983 13.2136 25.9983 16.0002C25.9983 18.7868 24.7307 21.2783 22.7443 22.9275C22.3194 23.2803 21.6889 23.2219 21.3361 22.797C20.9833 22.3721 21.0418 21.7416 21.4667 21.3888C23.015 20.1032 23.9983 18.167 23.9983 16.0002C23.9983 13.8335 23.015 11.8973 21.4667 10.6117C21.0418 10.2589 20.9833 9.62843 21.3361 9.20351C21.6889 8.77863 22.3194 8.72015 22.7443 9.07294Z" fill="#0D0F13"/>
</svg>
