<svg width="32" height="32" viewBox="0 0 32 32" fill="none" xmlns="http://www.w3.org/2000/svg">
<path d="M22.8857 12.9886C23.8254 12.9886 24.3416 14.0811 23.7446 14.8063L11.5663 29.599C10.8462 30.4739 9.43939 29.7631 9.71722 28.6649L12.1646 18.9914H5.11432C4.17438 18.9914 3.65827 17.8985 4.25574 17.1733L16.4353 2.39179C17.1556 1.51771 18.5617 2.22803 18.2842 3.32593L15.8426 12.9886L22.8857 12.9886ZM12.7286 25.0065L20.9587 15.0095H14.8041C14.0135 15.0095 13.4341 14.2661 13.6277 13.5001L15.2757 6.97834L7.04242 16.9705H13.2034C13.9941 16.9705 14.5735 17.7142 14.3797 18.4802L12.7286 25.0065Z" fill="#0D0F13"/>
<path d="M26.9956 25.9925C26.4433 25.9925 25.9956 25.5449 25.9956 24.9928V16.9953C25.9956 16.4432 26.4433 15.9956 26.9956 15.9956C27.5479 15.9956 27.9956 16.4432 27.9956 16.9953V24.9928C27.9956 25.5449 27.5479 25.9925 26.9956 25.9925Z" fill="#0D0F13"/>
<path d="M26.9956 30.0002C27.5502 30.0002 27.9998 29.5506 27.9998 28.9959C27.9998 28.4413 27.5502 27.9917 26.9956 27.9917C26.441 27.9917 25.9914 28.4413 25.9914 28.9959C25.9914 29.5506 26.441 30.0002 26.9956 30.0002Z" fill="#0D0F13"/>
</svg>
