<svg xmlns="http://www.w3.org/2000/svg" width="32" height="32" fill="none"><path fill="#0B0C0F" fill-rule="evenodd" d="M15.4 2.01c-.95.61-1.78 1.38-2.47 2.26A20.4 20.4 0 0 0 8 5.63V8h3.1a10 10 0 0 0-.28 2H8v4.55l1.76.49a1 1 0 0 1 .71.74l1.36 5.85c1 .17 2.64.37 4.17.37 1.53 0 3.17-.2 4.17-.37l.29-1.22.35.01c.59 0 1.17-.06 1.73-.15l-.57 2.45a1 1 0 0 1-.77.76c-.88.18-3.11.52-5.2.52-2.09 0-4.32-.34-5.2-.52a1 1 0 0 1-.77-.76l-1.37-5.91-.66-.18V28h1.38l.73-1.45A1 1 0 0 1 11 26h10a1 1 0 0 1 .9.55l.72 1.45H24v-8.1c.7-.24 1.38-.55 2-.93V29a1 1 0 0 1-1 1h-3a1 1 0 0 1-.9-.55L20.39 28h-8.76l-.73 1.45A1 1 0 0 1 10 30H7a1 1 0 0 1-1-1V16.08l-2.26-.62A1 1 0 0 1 3 14.5V9a1 1 0 0 1 1-1h2V5a1 1 0 0 1 .55-.9c2.9-1.45 6.63-2 8.85-2.09ZM5 13.74 6 14V10H5v3.74Z" clip-rule="evenodd"/><path fill="#0B0C0F" fill-rule="evenodd" d="M20.68 6.83a3.5 3.5 0 0 1 3.5 3.5v.18a3.5 3.5 0 0 1-3.32 3.32h-.18a3.5 3.5 0 0 1 0-7Zm0 2c-.82 0-1.5.68-1.5 1.5l.01.16a1.5 1.5 0 0 0 1.5 1.34h.15a1.5 1.5 0 0 0 0-2.99h-.16Z" clip-rule="evenodd"/><path fill="#0B0C0F" fill-rule="evenodd" d="M22.32 2c.48 0 .9.31 1.05.77l.02.1.46 2.03.22.13 2-.63.09-.02c.43-.1.88.08 1.13.44l.06.08 1.5 2.61a1.1 1.1 0 0 1-.2 1.37l-1.54 1.4v.27l1.54 1.4c.38.36.46.92.2 1.37l-1.5 2.61c-.26.45-.8.66-1.29.5l-2-.63a6.3 6.3 0 0 1-.21.13l-.46 2.04c-.1.5-.55.86-1.07.86H19.3a1.1 1.1 0 0 1-1.07-.86l-.46-2.04a6.42 6.42 0 0 1-.22-.13l-2 .63a1.1 1.1 0 0 1-1.27-.5l-1.51-2.61a1.1 1.1 0 0 1 .2-1.36l1.55-1.42v-.25l-1.54-1.41a1.1 1.1 0 0 1-.21-1.36l1.5-2.62a1.1 1.1 0 0 1 1.2-.52l.09.02 2 .63.21-.13.46-2.04.02-.1A1.1 1.1 0 0 1 19.3 2h3.02Zm-2.69 3.75c-.07.34-.3.62-.61.76a4.3 4.3 0 0 0-.7.4c-.27.2-.63.26-.96.15l-1.71-.53-.8 1.36 1.33 1.21c.26.24.38.58.35.91l-.02.4v.21l.02.2c.03.34-.1.68-.35.91l-1.32 1.21.79 1.37 1.7-.54.13-.03c.25-.05.52 0 .74.11l.1.07.17.12c.17.1.35.2.53.28.27.13.48.36.58.64l.03.13.4 1.74h1.57l.39-1.74c.07-.35.3-.62.61-.77.24-.1.48-.24.7-.4.24-.17.54-.24.84-.18l.12.03 1.71.54.8-1.37-1.33-1.2a1.1 1.1 0 0 1-.35-.92l.01-.2v-.2l-.01-.4c-.03-.35.1-.69.35-.92l1.32-1.21-.79-1.37-1.7.54c-.34.1-.7.05-.98-.15a4.3 4.3 0 0 0-.69-.4 1.1 1.1 0 0 1-.61-.76L21.59 4h-1.57l-.39 1.75Z" clip-rule="evenodd"/></svg>