<svg width="32" height="32" viewBox="0 0 32 32" fill="none" xmlns="http://www.w3.org/2000/svg">
<path d="M28.836 12.4476C30.388 14.5616 30.388 17.4384 28.836 19.5524L28.4237 20.114C28.0421 20.6339 27.7917 21.2383 27.694 21.8758L27.5884 22.5645C27.1909 25.1567 25.1567 27.1909 22.5645 27.5884L21.8758 27.694C21.2383 27.7917 20.6339 28.0421 20.114 28.4237L19.5524 28.836C17.4384 30.388 14.5616 30.388 12.4476 28.836L11.886 28.4237C11.3661 28.0421 10.7617 27.7917 10.1242 27.694L9.43549 27.5884C6.84327 27.1909 4.8091 25.1567 4.41164 22.5645L4.30604 21.8758C4.20832 21.2383 3.95796 20.6339 3.5763 20.114L3.16395 19.5524C1.61202 17.4384 1.61202 14.5616 3.16395 12.4476L3.5763 11.886C3.95795 11.3661 4.20832 10.7617 4.30604 10.1242L4.41164 9.4355C4.8091 6.84328 6.84327 4.8091 9.43549 4.41164L10.1242 4.30604C10.7617 4.20832 11.3661 3.95796 11.886 3.5763L12.4476 3.16395C14.5616 1.61202 17.4384 1.61202 19.5524 3.16395L20.1896 3.63173C20.8172 4.09255 20.9552 4.97364 20.4983 5.60425L20.1523 6.08185L20.0321 6.25354L19.9618 6.3512C19.8257 6.54773 19.6943 6.72223 19.5356 6.99671C19.1956 7.5843 19.0008 8.26636 19.0008 8.99695C19.0008 10.1056 19.4503 11.1074 20.1794 11.8332C20.9042 12.5547 21.9006 12.9989 23.0027 12.9989C23.8947 12.9989 24.6719 12.6523 25.3706 12.1978L26.2132 11.4724C26.8303 10.9207 27.7885 11.0207 28.2784 11.688L28.836 12.4476ZM27.2231 18.3683C28.2577 16.9589 28.2577 15.0411 27.2231 13.6317L27.065 13.4165C25.9969 14.3987 24.5691 14.9998 23.0027 14.9998C21.3503 14.9998 19.8522 14.3309 18.7678 13.2513C17.6768 12.1654 16.9998 10.6593 16.9998 8.99693C16.9998 7.90519 17.2922 6.87871 17.8035 5.99474C17.9492 5.74284 18.1205 5.44987 18.3391 5.17399L18.537 4.9008L18.3683 4.7769C16.9589 3.74229 15.0411 3.74229 13.6317 4.7769L13.0701 5.18925C12.2903 5.76177 11.3836 6.13726 10.4274 6.28386L9.73872 6.38947C8.01057 6.65442 6.65442 8.01056 6.38947 9.73871L6.28389 10.4274C6.13727 11.3836 5.7618 12.2903 5.18929 13.0701L4.77693 13.6317C3.74232 15.0411 3.74232 16.9589 4.77693 18.3683L5.18929 18.9299C5.7618 19.7097 6.13729 20.6164 6.28389 21.5726L6.38947 22.2613C6.65442 23.9894 8.01057 25.3456 9.73872 25.6105L10.4274 25.7161C11.3836 25.8627 12.2903 26.2382 13.0701 26.8106L13.6317 27.2231C15.0411 28.2577 16.9589 28.2577 18.3683 27.2231L18.9299 26.8106C19.7097 26.2382 20.6164 25.8626 21.5726 25.7161L22.2613 25.6105C23.9894 25.3456 25.3456 23.9894 25.6105 22.2613L25.7161 21.5726C25.8627 20.6164 26.2382 19.7097 26.8107 18.9299L27.2231 18.3683Z" fill="#0D0F13"/>
<path d="M10.9961 9.99755C11.5484 9.99755 11.9961 10.4453 11.9961 10.9976C11.9961 11.5498 11.5484 11.9976 10.9961 11.9976C10.4438 11.9976 9.99609 11.5498 9.99609 10.9976C9.99609 10.4453 10.4438 9.99755 10.9961 9.99755Z" fill="#0D0F13"/>
<path d="M15.998 17C16.5503 17 16.998 16.5523 16.998 16C16.998 15.4477 16.5503 15 15.998 15C15.4457 15 14.998 15.4477 14.998 16C14.998 16.5523 15.4457 17 15.998 17Z" fill="#0D0F13"/>
<path d="M21.001 22.0024C21.5533 22.0024 22.001 21.5547 22.001 21.0024C22.001 20.4501 21.5533 20.0024 21.001 20.0024C20.4487 20.0024 20.001 20.4501 20.001 21.0024C20.001 21.5547 20.4487 22.0024 21.001 22.0024Z" fill="#0D0F13"/>
<path d="M10.9961 22.0024C11.5484 22.0024 11.9961 21.5547 11.9961 21.0024C11.9961 20.4501 11.5484 20.0024 10.9961 20.0024C10.4438 20.0024 9.99609 20.4501 9.99609 21.0024C9.99609 21.5547 10.4438 22.0024 10.9961 22.0024Z" fill="#0D0F13"/>
</svg>
