<svg width="32" height="32" viewBox="0 0 32 32" fill="none" xmlns="http://www.w3.org/2000/svg">
<path fill-rule="evenodd" clip-rule="evenodd" d="M26 7.99346C27.1046 7.99346 28 8.88756 28 9.99047V22.9803C28 22.9842 28 22.9883 28 22.9922V25.9153C28 27.0148 27.1099 27.9073 26.0089 27.9122L6.00879 27.9999C4.90082 28.0049 4 27.1094 4 26.003V10.0801C4 8.98266 4.88702 8.09081 5.98615 8.08324L17.9962 8.00035V5.99694H17C16.4478 5.99694 16 5.54992 16 4.99847C16 4.44702 16.4478 4 17 4H25C25.5523 4 26 4.44702 26 4.99847C26 5.54992 25.5523 5.99694 25 5.99694H23.9981V7.99346H26ZM26 25.9153V23.3708L25.2933 22.5898C24.5913 21.8138 23.375 21.8032 22.6593 22.5665L22.3221 22.9261C20.8707 24.4744 18.3662 24.3191 17.1176 22.6036C16.5764 21.8599 15.4396 21.8509 14.8767 22.6109C13.5973 24.3387 11.0274 24.4888 9.57935 22.8696L9.31879 22.5782C8.63166 21.8097 7.42774 21.8095 6.7403 22.5776L6 23.4048V26.003L26 25.9153ZM26 20.5939V9.99047H23.9981C22.8935 9.99047 21.9981 9.09637 21.9981 7.99346V5.99694H19.9962V8.00036C19.9962 9.09783 19.109 9.98968 18.01 9.99725L6.00001 10.0801V20.6028C7.50044 19.6293 9.55531 19.8444 10.8106 21.2482L11.0712 21.5394C11.6597 22.1976 12.7301 22.1509 13.2686 21.4238C14.6196 19.5992 17.3845 19.5734 18.7356 21.4297C19.2457 22.1307 20.2691 22.194 20.862 21.5616L21.1992 21.2018C22.4754 19.8404 24.5035 19.6417 26 20.5939Z" fill="#0D0F13"/>
</svg>
