<svg width="32" height="32" viewBox="0 0 32 32" fill="none" xmlns="http://www.w3.org/2000/svg">
<path fill-rule="evenodd" clip-rule="evenodd" d="M28 10C29.1046 10 30 10.8954 30 12V18C30 19.1046 29.1046 20 28 20H26V21C26 21.2433 25.9876 21.4838 25.9633 21.7207L24 19.7574V6.00002H10.2426L8.24257 4.00002H24.75C25.4404 4.00002 26 4.55965 26 5.25002V10H28ZM28 18V12H26V18H28Z" fill="#0D0F13"/>
<path fill-rule="evenodd" clip-rule="evenodd" d="M19 26.0001C19.8023 26.0001 20.5605 25.8111 21.2324 25.4752L22.7003 26.9432C21.6269 27.613 20.3585 28.0001 19 28.0001H13C9.13399 28.0001 5.99996 24.8661 5.99996 21.0001V10.2427L7.99997 12.2427V21.0001C7.99997 23.7615 10.2386 26.0001 13 26.0001L19 26.0001Z" fill="#0D0F13"/>
<path fill-rule="evenodd" clip-rule="evenodd" d="M3.70711 2.29293L29.7071 28.2929C30.0976 28.6834 30.0976 29.3166 29.7071 29.7071C29.3166 30.0976 28.6834 30.0976 28.2929 29.7071L2.29287 3.70711C1.90237 3.31661 1.90237 2.68343 2.29287 2.29293C2.68338 1.90236 3.31655 1.90236 3.70711 2.29293Z" fill="#0D0F13"/>
</svg>
