<svg width="32" height="32" viewBox="0 0 32 32" fill="none" xmlns="http://www.w3.org/2000/svg">
<path fill-rule="evenodd" clip-rule="evenodd" d="M27 8C28.6568 8 30 9.34314 30 11V25C30 26.6569 28.6568 28 27 28H5C3.34314 28 2 26.6569 2 25V11C2 9.34314 3.34314 8 5 8H10V6C10 4.89545 10.8954 4 12 4H20C21.1045 4 22 4.89545 22 6V8H27ZM12 6V8H20V6H12ZM28 25V17H20V19C20 20.1046 19.1045 21 18 21H14C12.8954 21 12 20.1046 12 19V17H4V25C4 25.5523 4.44769 26 5 26H27C27.5523 26 28 25.5523 28 25ZM14 19H18V17H14V19ZM28 15V11C28 10.4477 27.5523 10 27 10H5C4.44769 10 4 10.4477 4 11V15H28Z" fill="#0D0F13"/>
</svg>
