<svg width="32" height="32" viewBox="0 0 32 32" fill="none" xmlns="http://www.w3.org/2000/svg">
<path fill-rule="evenodd" clip-rule="evenodd" d="M5.00001 26H21.7574L23.7574 28H5.00001C3.34315 28 2.00001 26.6569 2.00001 25V11C2.00001 9.71358 2.8097 8.61629 3.94728 8.1899L5.7574 10H5.00001C4.4477 10 4.00001 10.4477 4.00001 11V15H10.7574L14 18.2426V19H14.7574L16.7574 21H14C12.8954 21 12 20.1046 12 19V17H4.00001V25C4.00001 25.5523 4.4477 26 5.00001 26Z" fill="#0D0F13"/>
<path fill-rule="evenodd" clip-rule="evenodd" d="M27 8.00002C28.6569 8.00002 30 9.34316 30 11V25C30 25.2339 29.9732 25.4615 29.9226 25.68L28 23.7574V17H21.2426L19.2426 15H28V11C28 10.4477 27.5523 10 27 10H14.2426L12.2426 8.00002H20V6.00002H12V7.75741L10.013 5.77041C10.1269 4.77401 10.9731 4.00002 12 4.00002H20C21.1046 4.00002 22 4.89547 22 6.00002V8.00002H27Z" fill="#0D0F13"/>
<path fill-rule="evenodd" clip-rule="evenodd" d="M3.7071 2.29293L29.7071 28.2929C30.0976 28.6834 30.0976 29.3166 29.7071 29.7071C29.3166 30.0976 28.6834 30.0976 28.2929 29.7071L2.29292 3.70711C1.90236 3.31661 1.90236 2.68343 2.29292 2.29293C2.68342 1.90236 3.3166 1.90236 3.7071 2.29293Z" fill="#0D0F13"/>
</svg>
