<svg width="32" height="32" viewBox="0 0 32 32" fill="none" xmlns="http://www.w3.org/2000/svg">
<path d="M29.7071 28.2929C30.0976 28.6834 30.0976 29.3166 29.7071 29.7071C29.3166 30.0976 28.6834 30.0976 28.2929 29.7071L2.29292 3.7071C1.90236 3.3166 1.90236 2.68342 2.29292 2.29292C2.68342 1.90236 3.3166 1.90236 3.7071 2.29292L29.7071 28.2929Z" fill="#0D0F13"/>
<path d="M11.7007 6.00001H10.2426L8.4109 4.16822C8.66029 4.05891 8.93305 4.00001 9.21376 4.00001H22.7859C23.4679 4.00001 24.1028 4.34748 24.4704 4.92182L27.664 9.91157C28.0939 10.5831 28.0837 11.4459 27.6382 12.1072L23.0944 18.8518L21.6536 17.4109L25.2989 12H22.0145L20.6192 16.3765L19.0275 14.7848L19.9153 12H16.2426L14.2426 10H19.8141L18.1177 6.00001H13.8731L12.7921 8.54945L11.2666 7.02394L11.7007 6.00001ZM22.7859 6.00001H20.2901L21.9865 10H25.3461L22.7859 6.00001Z" fill="#0D0F13"/>
<path d="M15.9993 24.2826L16.9761 21.2188L19.6789 23.9216L17.4403 27.2445C17.4249 27.2673 17.4087 27.2894 17.3915 27.3108C17.231 27.5112 17.0284 27.6842 16.7885 27.8076C16.5475 27.9315 16.2786 28 15.9998 28C15.721 28 15.4522 27.9315 15.2111 27.8076C14.9712 27.6842 14.7686 27.5112 14.6081 27.3108C14.591 27.2894 14.5747 27.2673 14.5593 27.2445L4.36183 12.1071C3.91633 11.4459 3.9062 10.5832 4.33595 9.91163L4.85615 9.09876L7.7574 12H6.70112L12.9311 21.2478L11.0208 15.2634L14.1046 18.3473L15.9993 24.2826Z" fill="#0D0F13"/>
</svg>
