<svg width="32" height="32" viewBox="0 0 32 32" fill="none" xmlns="http://www.w3.org/2000/svg">
<path d="M16 21C16.5523 21 17 21.4477 17 22C17 22.5523 16.5523 23 16 23H12V27C12 27.5523 11.5523 28 11 28C10.4477 28 10 27.5523 10 27V23H6C5.44769 23 5 22.5523 5 22C5 21.4477 5.44769 21 6 21H10V17C10 16.4477 10.4477 16 11 16C11.5523 16 12 16.4477 12 17V21H16Z" fill="#0D0F13"/>
<path d="M26.4142 11C26.7893 11.3751 27 11.8838 27 12.4142V28C27 29.1046 26.1046 30 25 30H18C17.4477 30 17 29.5523 17 29C17 28.4477 17.4477 28 18 28H25V13H18C16.8954 13 16 12.1046 16 11V4H9V13C9 13.5523 8.55231 14 8 14C7.44769 14 7 13.5523 7 13V4C7 2.89545 7.89545 2 9 2H16.5858C17.1162 2 17.6249 2.21069 18 2.58582L26.4142 11ZM18 11H23.5858L18 5.41418V11Z" fill="#0D0F13"/>
</svg>
