<svg id="Layer_1" xmlns="http://www.w3.org/2000/svg" viewBox="0 0 32 32">
    <path fill="currentColor" fill-rule="evenodd" d="m10,4c0-1.1.9-2,2-2h7.59c.53,0,1.04.21,1.41.59l8.41,8.41c.38.38.59.88.59,1.41v15.59c0,1.1-.9,2-2,2h-3c-.55,0-1-.45-1-1s.45-1,1-1h3v-15h-7c-1.1,0-2-.9-2-2v-7h-7v14c0,.55-.45,1-1,1s-1-.45-1-1V4Zm11,1.41v5.59h5.59l-5.59-5.59ZM7.32,30l-1.79-3.22-1.79,3.22h-1.74l2.52-4.44-2.41-4.08h1.78l1.67,2.9,1.64-2.9h1.78l-2.42,4.08,2.52,4.44h-1.75Zm2.64-8.52h1.69v7.2h3.71v1.32h-5.4v-8.52Zm9.44,8.7c-1.18,0-2.06-.26-2.64-.78-.58-.53-.86-1.23-.86-2.11h1.74c.02.48.18.87.48,1.16.3.3.75.44,1.33.44.48,0,.85-.1,1.12-.3.27-.2.41-.48.41-.84v-.12c0-.29-.09-.51-.28-.67-.18-.17-.46-.31-.85-.42l-1.57-.44c-.79-.23-1.36-.52-1.7-.86-.34-.34-.52-.83-.52-1.46,0-.49.12-.92.37-1.28.25-.38.6-.67,1.07-.88.47-.21,1.03-.31,1.67-.31.75,0,1.37.12,1.86.35.5.22.86.53,1.09.92.24.38.36.81.37,1.28h-1.74c-.03-.37-.19-.67-.47-.91-.27-.24-.66-.36-1.18-.36-.42,0-.74.1-.98.3-.24.19-.36.43-.36.72v.12c0,.26.09.46.26.61.18.15.45.28.82.38l1.49.42c.83.24,1.43.54,1.8.9.37.36.55.88.55,1.56,0,.8-.29,1.43-.86,1.9-.57.46-1.37.68-2.41.68Z"/>
</svg>
