<svg width="32" height="32" viewBox="0 0 32 32" fill="none" xmlns="http://www.w3.org/2000/svg">
<path fill-rule="evenodd" clip-rule="evenodd" d="M15 4.00001H8.24262L6.71229 2.46968C7.06019 2.17658 7.50947 2.00001 8.00001 2.00001H15.5858C16.1162 2.00001 16.6249 2.2107 17 2.58583L25.4142 11C25.7893 11.3751 26 11.8838 26 12.4142V21.7574L24 19.7574V13H17.2426L15 10.7574V4.00001ZM17 5.41419V11H22.5858L17 5.41419Z" fill="#0D0F13"/>
<path fill-rule="evenodd" clip-rule="evenodd" d="M8.00001 13C8.00001 13.5523 7.55232 14 7.00001 14C6.4477 14 6.00001 13.5523 6.00001 13V10.2426L8.00001 12.2426V13Z" fill="#0D0F13"/>
<path fill-rule="evenodd" clip-rule="evenodd" d="M17 28H23.7574L25.2877 29.5304C24.9398 29.8234 24.4905 30 24 30H17C16.4477 30 16 29.5523 16 29C16 28.4477 16.4477 28 17 28Z" fill="#0D0F13"/>
<path fill-rule="evenodd" clip-rule="evenodd" d="M15 21C15.5523 21 16 21.4477 16 22C16 22.5523 15.5523 23 15 23H11V27C11 27.5523 10.5523 28 10 28C9.4477 28 9.00001 27.5523 9.00001 27V23H5.00001C4.4477 23 4.00001 22.5523 4.00001 22C4.00001 21.4477 4.4477 21 5.00001 21H9.00001V17C9.00001 16.4477 9.4477 16 10 16C10.5523 16 11 16.4477 11 17V21H15Z" fill="#0D0F13"/>
<path fill-rule="evenodd" clip-rule="evenodd" d="M29.7071 28.2929C30.0976 28.6834 30.0976 29.3166 29.7071 29.7071C29.3166 30.0976 28.6834 30.0976 28.2929 29.7071L2.29292 3.7071C1.90236 3.3166 1.90236 2.68342 2.29292 2.29292C2.68342 1.90236 3.3166 1.90236 3.7071 2.29292L29.7071 28.2929Z" fill="#0D0F13"/>
</svg>
