<svg xmlns="http://www.w3.org/2000/svg" viewBox="0 0 32 32">
    <path d="M10 4c0-1.1.9-2 2-2h7.59c.53 0 1.04.21 1.41.59L29.41 11c.38.38.59.88.59 1.41V28a2 2 0 0 1-2 2h-3c-.55 0-1-.45-1-1s.45-1 1-1h3V13h-7a2 2 0 0 1-2-2V4h-7v14c0 .55-.45 1-1 1s-1-.45-1-1V4Zm11 1.41V11h5.59L21 5.41ZM5.98 21.48c.51 0 .97.12 1.38.35.41.23.72.56.95.97.23.42.35.89.35 1.42s-.12 1-.35 1.42c-.22.42-.54.74-.95.97s-.87.35-1.38.35H3.69v3.05H2v-8.52h3.98Zm.97 2.62c0-.42-.12-.74-.37-.96a1.41 1.41 0 0 0-.97-.34H3.69v2.83h1.92c.39 0 .71-.11.96-.34.26-.22.38-.54.38-.96v-.24Zm5.93-2.62c.8 0 1.48.18 2.04.53.57.35.99.85 1.27 1.49.29.64.43 1.39.43 2.24s-.14 1.59-.43 2.23c-.28.64-.7 1.14-1.27 1.5-.56.35-1.24.53-2.04.53H9.66v-8.52h3.22Zm1.97 3.9c0-.8-.17-1.43-.5-1.88a1.7 1.7 0 0 0-1.46-.7h-1.52v5.88h1.52a1.7 1.7 0 0 0 1.46-.68c.34-.46.5-1.1.5-1.9v-.72Zm4.56-2.58v2.27h3.89v1.33h-3.89V30h-1.69v-8.52h5.81v1.32h-4.12Z" fill="currentColor" fill-rule="evenodd"/>
</svg>
