<svg width="32" height="32" viewBox="0 0 32 32" fill="none" xmlns="http://www.w3.org/2000/svg">
<path fill-rule="evenodd" clip-rule="evenodd" d="M20 17C19.4477 17 19 16.5523 19 16C19 15.4477 19.4477 15 20 15H25C25.5523 15 26 15.4477 26 16C26 16.5523 25.5523 17 25 17H20Z" fill="#0D0F13"/>
<path fill-rule="evenodd" clip-rule="evenodd" d="M20 12C19.4477 12 19 11.5523 19 11C19 10.4477 19.4477 10 20 10H25C25.5523 10 26 10.4477 26 11C26 11.5523 25.5523 12 25 12H20Z" fill="#0D0F13"/>
<path fill-rule="evenodd" clip-rule="evenodd" d="M11.5 17.0004C9.56703 17.0004 8.00001 15.4334 8.00001 13.5003C8.00001 13.1213 8.06025 12.7564 8.1717 12.4146L12.5859 16.8286C12.244 16.9401 11.8791 17.0004 11.5 17.0004Z" fill="#0D0F13"/>
<path fill-rule="evenodd" clip-rule="evenodd" d="M6.00001 21.0004C6.00001 19.3436 7.34315 18.0004 9.00001 18.0004H13.7576L16.9761 21.2189C16.8764 21.6661 16.4772 22.0004 16 22.0004C15.4477 22.0004 15 21.5527 15 21.0004C15 20.4481 14.5523 20.0004 14 20.0004H9.00001C8.4477 20.0004 8.00001 20.4481 8.00001 21.0004C8.00001 21.5527 7.55232 22.0004 7.00001 22.0004C6.4477 22.0004 6.00001 21.5527 6.00001 21.0004Z" fill="#0D0F13"/>
<path fill-rule="evenodd" clip-rule="evenodd" d="M3.7071 2.29293L29.7071 28.2929C30.0976 28.6834 30.0976 29.3166 29.7071 29.7071C29.3166 30.0976 28.6834 30.0976 28.2929 29.7071L2.29292 3.70711C1.90236 3.31661 1.90236 2.68343 2.29292 2.29293C2.68342 1.90236 3.3166 1.90236 3.7071 2.29293Z" fill="#0D0F13"/>
<path fill-rule="evenodd" clip-rule="evenodd" d="M28 6.00002C29.1046 6.00002 30 6.89547 30 8.00002V24C30 24.4905 29.8234 24.9398 29.5304 25.2877L28 23.7574V8.00002H12.2426L10.2426 6.00002H28Z" fill="#0D0F13"/>
<path fill-rule="evenodd" clip-rule="evenodd" d="M4.00001 24H19.7574L21.7574 26H4.00001C2.89546 26 2.00001 25.1046 2.00001 24V8.00002C2.00001 7.50948 2.17658 7.06026 2.46968 6.7123L4.00001 8.24263V24Z" fill="#0D0F13"/>
<path fill-rule="evenodd" clip-rule="evenodd" d="M24.9995 20C25.5518 20 25.9995 20.4477 25.9995 21C25.9995 21.2142 25.9322 21.4126 25.8175 21.5754L24.2422 20H24.9995Z" fill="#0D0F13"/>
</svg>
