<svg width="32" height="32" viewBox="0 0 32 32" fill="none" xmlns="http://www.w3.org/2000/svg">
<path fill-rule="evenodd" clip-rule="evenodd" d="M21.6885 25.9356L21.6908 25.9334L23.1079 27.3505C21.2954 29.1116 18.7802 30 16 30C10.4772 30 6.00001 26.4944 6.00001 19.6054C6.00001 17.5162 6.91981 14.9733 8.20143 12.4441L9.69575 13.9384C8.64418 16.1205 8.00001 18.1029 8.00001 19.6054C8.00001 22.5945 8.95814 24.6362 10.3115 25.9356C11.683 27.2525 13.6546 27.9927 16 27.9927C18.3454 27.9927 20.317 27.2525 21.6885 25.9356Z" fill="#0D0F13"/>
<path fill-rule="evenodd" clip-rule="evenodd" d="M16 4.10335C15.1171 5.24947 13.9642 6.8113 12.8065 8.56392L11.3623 7.11971C12.5291 5.37563 13.6694 3.84212 14.5274 2.73366C15.2844 1.75545 16.7156 1.75545 17.4726 2.73366C20.2532 6.32625 26 14.3831 26 19.6054C26 20.3125 25.9528 20.9839 25.8622 21.6196L23.9992 19.7565C23.9997 19.7064 24 19.6561 24 19.6054C24 17.571 22.8192 14.657 21.045 11.5586C19.3705 8.63436 17.3634 5.87313 16 4.10335Z" fill="#0D0F13"/>
<path fill-rule="evenodd" clip-rule="evenodd" d="M29.7071 28.2929C30.0976 28.6834 30.0976 29.3166 29.7071 29.7071C29.3166 30.0976 28.6834 30.0976 28.2929 29.7071L2.29292 3.70711C1.90236 3.31661 1.90236 2.68343 2.29292 2.29293C2.68342 1.90237 3.3166 1.90237 3.7071 2.29293L29.7071 28.2929Z" fill="#0D0F13"/>
</svg>
