<svg xmlns="http://www.w3.org/2000/svg" fill="none" viewBox="0 0 32 32"><path fill="#0D0F13" d="M6 12a1 1 0 1 1-2 0V6a2 2 0 0 1 2-2h6a1 1 0 1 1 0 2H7.359l5.877 5.877a1 1 0 0 1-1.414 1.414L6 7.47V12ZM6 20a1 1 0 1 0-2 0v6a2 2 0 0 0 2 2h6a1 1 0 1 0 0-2H7.359l5.877-5.877a1 1 0 0 0-1.414-1.414L6 24.53V20ZM27 13a1 1 0 0 1-1-1V7.47l-5.822 5.821a1 1 0 0 1-1.414-1.414L24.64 6H20a1 1 0 1 1 0-2h6a2 2 0 0 1 2 2v6a1 1 0 0 1-1 1ZM26 20a1 1 0 1 1 2 0v6a2 2 0 0 1-2 2h-6a1 1 0 1 1 0-2h4.641l-5.877-5.877a1 1 0 0 1 1.414-1.414L26 24.53V20Z"/></svg>