<svg width="32" height="32" viewBox="0 0 32 32" fill="none" xmlns="http://www.w3.org/2000/svg">
<path d="M29.7071 28.2929C30.0976 28.6834 30.0976 29.3166 29.7071 29.7071C29.3166 30.0976 28.6834 30.0976 28.2929 29.7071L21.4691 22.8834C21.3292 22.9578 21.1695 23 21 23C20.4477 23 20 22.5523 20 22V21.4142L2.29287 3.7071C1.90237 3.3166 1.90237 2.68342 2.29287 2.29292C2.68338 1.90236 3.31655 1.90236 3.70712 2.29292L29.7071 28.2929Z" fill="#0D0F13"/>
<path d="M18.0004 12.401L17.1964 12.9538L15.7581 11.5155L18.2772 9.78365C19.007 9.28188 20.0004 9.8044 20.0004 10.6901V14.099L26.2772 9.78364C27.007 9.28187 28.0004 9.80439 28.0004 10.6901V23.7578L26.0004 21.7578V12.401L20.4557 16.213L18.0004 13.7578V12.401Z" fill="#0D0F13"/>
<path d="M9.81045 14.0531L12.1681 16.4108L11.7069 16.7277C11.0158 17.203 10.0683 16.7606 9.98879 15.9256L9.81045 14.0531Z" fill="#0D0F13"/>
<path d="M6.04691 26H21.7574L23.7574 28H6.04691C4.90671 28 3.99722 27.0482 4.04898 25.9092L4.81497 9.05763L6.72995 10.9726L6.04691 26Z" fill="#0D0F13"/>
<path d="M11.0373 5.36592L11.1782 6.93556L8.24264 4.00001H9.5433C10.3198 4.00001 10.9679 4.59254 11.0373 5.36592Z" fill="#0D0F13"/>
<path d="M9.99996 21C9.99996 20.4477 10.4477 20 11 20C11.5523 20 12 20.4477 12 21V22C12 22.5523 11.5523 23 11 23C10.4477 23 9.99996 22.5523 9.99996 22V21Z" fill="#0D0F13"/>
<path d="M17 22C17 22.5523 16.5523 23 16 23C15.4477 23 15 22.5523 15 22V21C15 20.4477 15.4477 20 16 20C16.5523 20 17 20.4477 17 21V22Z" fill="#0D0F13"/>
</svg>
