<svg width="32" height="32" viewBox="0 0 32 32" fill="none" xmlns="http://www.w3.org/2000/svg">
<path d="M21.1029 7.99885H12.2415L10.3237 6.08106C10.5038 6.02784 10.694 5.99946 10.8901 5.99946H16.9963V4.9997C16.9963 4.44758 17.4439 4.00001 17.996 4.00001C18.5481 4.00001 18.9957 4.44758 18.9957 4.9997V5.99946H21.1029C22.1014 5.99946 22.9469 6.73609 23.0835 7.72517L23.916 13.749L25.2524 13.9928C26.2885 14.1819 27.0002 15.1422 26.8798 16.1885L26.2139 21.9713L24.4091 20.1664L24.8935 15.9598L19.1553 14.9127L16.6692 12.4266L21.8453 13.3711L21.1029 7.99885Z" fill="#0D0F13"/>
<path d="M16.9965 24.1051C17.7107 23.7933 18.4527 23.5746 19.2053 23.4479L21.0797 25.3223C19.5854 25.2617 18.0701 25.6492 16.7463 26.5C13.5202 28.5735 9.43402 28.463 6.35858 26.3943L6.28401 26.4028L6.27669 26.3386C5.74196 25.9707 5.23867 25.5429 4.77681 25.0565L4.27187 24.5247C3.89168 24.1244 3.90804 23.4916 4.30843 23.1114C4.70882 22.7312 5.34157 22.7476 5.72176 23.148L5.93923 23.377L5.11977 16.1862C5.00063 15.1408 5.71212 14.182 6.74715 13.9929L8.07698 13.7501L8.25063 12.4933L11.0051 15.2478L7.10635 15.9598L8.15255 25.1403C10.2589 26.2519 12.8151 26.3051 14.9971 25.2006V19.2397L16.9965 21.2392L16.9965 24.1051Z" fill="#0D0F13"/>
<path d="M29.7071 28.2929C30.0976 28.6834 30.0976 29.3166 29.7071 29.7071C29.3166 30.0976 28.6834 30.0976 28.2929 29.7071L2.29292 3.7071C1.90236 3.3166 1.90236 2.68342 2.29292 2.29292C2.68342 1.90236 3.3166 1.90236 3.7071 2.29292L29.7071 28.2929Z" fill="#0D0F13"/>
</svg>
