<svg width="32" height="32" viewBox="0 0 32 32" fill="none" xmlns="http://www.w3.org/2000/svg">
<path fill-rule="evenodd" clip-rule="evenodd" d="M17.2757 6.97993L14.5417 10.299L13.1053 8.86268L18.4353 2.39192C19.1556 1.51759 20.5617 2.22816 20.2842 3.32637L17.8426 12.9921H24.8857C25.8254 12.9921 26.3416 14.0849 25.7446 14.8103L22.7235 18.481L21.2872 17.0445L22.9587 15.0136H19.2562L16.055 11.8123L17.2757 6.97993Z" fill="#0D0F13"/>
<path fill-rule="evenodd" clip-rule="evenodd" d="M14.7285 25.0137L17.4565 21.6991L18.8929 23.1355L13.5663 29.6077C12.8462 30.4828 11.4394 29.7718 11.7172 28.6733L14.1646 18.9967H7.11428C6.1744 18.9967 5.65824 17.9035 6.25571 17.1781L9.27274 13.5154L10.7091 14.9518L9.04239 16.9752H12.7326L15.9483 20.191L14.7285 25.0137Z" fill="#0D0F13"/>
<path fill-rule="evenodd" clip-rule="evenodd" d="M29.7071 28.2929C30.0976 28.6834 30.0976 29.3166 29.7071 29.7071C29.3166 30.0976 28.6834 30.0976 28.2929 29.7071L2.29287 3.7071C1.90237 3.3166 1.90237 2.68342 2.29287 2.29292C2.68338 1.90236 3.31655 1.90236 3.70712 2.29292L29.7071 28.2929Z" fill="#0D0F13"/>
</svg>
