<svg width="32" height="32" viewBox="0 0 32 32" fill="none" xmlns="http://www.w3.org/2000/svg">
<path d="M15.8551 12.5985C16.5809 12.5985 16.9741 13.4464 16.5045 13.9986L8.95959 22.8685C8.40795 23.5171 7.35754 22.9721 7.57269 22.1489L9.04413 16.5199H4.85345C4.12744 16.5199 3.73425 15.6716 4.20428 15.1195L11.75 6.25627C12.3017 5.6082 13.3516 6.15306 13.1367 6.97594L11.6688 12.5985H15.8551ZM9.80316 19.5589L14.4478 14.0985H10.9556C10.3324 14.0985 9.87725 13.5109 10.0344 12.909L10.9083 9.5617L6.26147 15.0199H9.7575C10.3808 15.0199 10.836 15.6078 10.6787 16.2097L9.80316 19.5589Z" fill="#0D0F13"/>
<path d="M26.9003 15.4963C27.5387 17.051 28 18.5887 28 19.8564C28 25.425 23.7337 30.0018 18.0546 30.0018C14.7594 30.0018 11.8267 28.4528 9.95838 26.05C9.93708 26.0226 9.9159 25.995 9.89484 25.9674C9.56006 25.5277 9.64588 24.9003 10.0866 24.5662C10.5273 24.232 11.156 24.3178 11.4908 24.7576C11.5077 24.7798 11.5247 24.8019 11.5418 24.824C13.0452 26.7574 15.4022 28.0018 18.0546 28.0018C22.5589 28.0018 25.9958 24.3895 25.9958 19.8564C25.9958 18.9943 25.6621 17.7557 25.0457 16.2546C24.4403 14.7803 23.605 13.1529 22.6963 11.5486C21.005 8.56262 19.0959 5.72009 18.0422 4.19995C17.6806 4.70581 17.2192 5.36114 16.6996 6.12158C16.3878 6.57788 15.7644 6.69562 15.3071 6.38446C14.8498 6.07336 14.7319 5.45123 15.0437 4.99493C15.6888 4.05078 16.2461 3.26538 16.6392 2.71997C17.3388 1.74921 18.7813 1.76019 19.4665 2.74048C20.4704 4.17664 22.5792 7.27735 24.4411 10.5645C25.3716 12.2071 26.2509 13.9148 26.9003 15.4963Z" fill="#0D0F13"/>
</svg>
