<svg width="32" height="32" viewBox="0 0 32 32" fill="none" xmlns="http://www.w3.org/2000/svg">
<path fill-rule="evenodd" clip-rule="evenodd" d="M21.0236 22.0006C21.5751 22.0006 22.0222 22.4482 22.0222 23.0006C22.0222 23.5529 21.5751 24.0006 21.0236 24.0006H10.0277C8.92462 24.0006 8.03047 23.1051 8.03047 22.0006V19.0006H3.99934C2.56923 19.0006 1.60255 17.5393 2.16023 16.2206L6.81226 5.22053C7.12507 4.48096 7.84931 4.00049 8.65138 4.00049H13.4958C14.0472 4.00049 14.4944 4.44818 14.4944 5.00049C14.4944 5.55274 14.0473 6.00049 13.4958 6.00049H8.65138L3.99934 17.0006H11.1771C11.7286 17.0006 12.1758 17.4482 12.1758 18.0006C12.1758 18.5529 11.7286 19.0006 11.1771 19.0006H10.0277V22.0006H21.0236Z" fill="#0D0F13"/>
<path fill-rule="evenodd" clip-rule="evenodd" d="M28.0029 4.00049C29.106 4.00049 30.0001 4.89594 30.0001 6.00049V17.3717C30.0001 17.924 29.553 18.3717 29.0015 18.3717C28.4499 18.3717 28.0029 17.924 28.0029 17.3717V11.3795L25.524 17.7288C25.2245 18.4957 24.4863 19.0005 23.6639 19.0005H19.7358C19.1844 19.0005 18.7372 18.5529 18.7372 18.0005C18.7372 17.4482 19.1844 17.0005 19.7358 17.0005H23.6639L27.9584 6.00049H21.8632C21.3117 6.00049 20.8646 5.55274 20.8646 5.00049C20.8646 4.44818 21.3116 4.00049 21.8632 4.00049H28.0029Z" fill="#0D0F13"/>
<path fill-rule="evenodd" clip-rule="evenodd" d="M27.8199 25.1996L26.665 25.8697C26.1794 26.1506 25.7585 26.4424 25.4564 26.7559H29.9998V27.9987H23.8915V27.2205C23.8915 26.8748 23.9239 26.6586 24.0102 26.4748C24.2801 25.8372 24.9816 25.2645 26.0608 24.6486L27.2587 23.9568C27.9601 23.557 28.3594 23.2112 28.3594 22.5952V22.4006C28.3594 21.7631 27.8522 21.3416 27.0751 21.3416C26.1039 21.3416 25.7047 22.0117 25.6183 22.6708H23.9672C24.0535 21.32 25.0356 20.1528 27.0536 20.1528C28.9854 20.1528 29.9998 21.1903 29.9998 22.4763C29.9998 23.9028 29.1041 24.4648 27.8199 25.1996Z" fill="#0D0F13"/>
<path fill-rule="evenodd" clip-rule="evenodd" d="M11.6107 14.036C10.809 14.036 10.3687 13.1018 10.8782 12.4821L17.5167 4.40901C18.1264 3.66755 19.3168 4.27016 19.0819 5.20149L17.8412 10.1217H21.2878C22.0892 10.1217 22.5297 11.0554 22.0204 11.6752L15.3828 19.7543C14.7731 20.4965 13.5822 19.8936 13.8174 18.9619L15.061 14.036L11.6107 14.036ZM16.5643 8.24158L13.1976 12.3359H15.8948C16.5781 12.3359 17.0787 12.9799 16.9113 13.6433L16.3373 15.9167L19.7018 11.8217H17.0078C16.3246 11.8217 15.8239 11.1779 15.9912 10.5145L16.5643 8.24158Z" fill="#0D0F13"/>
</svg>
