<svg xmlns="http://www.w3.org/2000/svg" fill="none" viewBox="0 0 32 32"><path fill="#0D0F13" fill-rule="evenodd" d="M3.732 2.293a1 1 0 0 0-1.414 1.414l26 26a1 1 0 0 0 1.415-1.414l-26-26Zm26.214 9.443-4.254 9.688-1.518-1.517.852-1.94h-1.974a1.01 1.01 0 0 1-.902-.557l-1.11-2.212-.523 1.051-1.492-1.492 1.108-2.226a1.009 1.009 0 0 1 1.806-.003l1.724 3.436h2.242l1.815-4.133a25.594 25.594 0 0 0-14.314-2.693L11.62 7.353c6.074-.98 12.4.08 17.926 3.186a.94.94 0 0 1 .399 1.197ZM11.112 15.33l3.249 3.249a1.01 1.01 0 0 1-1.691-.174l-1.558-3.075Zm-1.165 2.077 1.074-2.168-1.493-1.493-1.1 2.22H6.148L4.33 11.83a25.63 25.63 0 0 1 2.258-1.024L5.056 9.273c-.866.376-1.718.798-2.551 1.266a.94.94 0 0 0-.4 1.197L7.73 24.544a.763.763 0 0 0 .985.4 19.429 19.429 0 0 1 10.92-1.089l-2.3-2.302a21.424 21.424 0 0 0-8.245 1.114l-2.064-4.698h2.015c.384 0 .734-.218.905-.562Zm7.117-4.61-.797-.797c.27.065.517.24.662.528l.135.269Z" clip-rule="evenodd"/></svg>