<svg width="32" height="32" viewBox="0 0 32 32" fill="none" xmlns="http://www.w3.org/2000/svg">
<path fill-rule="evenodd" clip-rule="evenodd" d="M24.963 6.05091C27.679 8.78547 27.679 13.2191 24.963 15.9536C22.4853 18.4481 18.6033 18.6671 15.8791 16.6106L10.2088 22.3194L11.408 23.5267C11.796 23.9173 11.796 24.5507 11.408 24.9413C11.02 25.332 10.3909 25.332 10.0029 24.9413L8.80369 23.734L7.39811 25.1492L8.53361 26.2923C8.92161 26.683 8.92161 27.3163 8.53361 27.707C8.14555 28.0977 7.51646 28.0977 7.12846 27.707L5.291 25.8559C4.903 25.4653 4.903 24.8319 5.291 24.4413L14.474 15.196C12.4318 12.4533 12.6495 8.54524 15.127 6.05092C17.843 3.31636 22.2468 3.31636 24.963 6.05091ZM23.5578 14.5389C25.4979 12.5857 25.4979 9.41889 23.5578 7.46559C21.6177 5.51234 18.4722 5.51234 16.5321 7.46559C14.592 9.4189 14.592 12.5857 16.5321 14.5389C18.4722 16.4923 21.6177 16.4923 23.5578 14.5389Z" fill="#0D0F13"/>
</svg>
