<svg width="32" height="32" viewBox="0 0 32 32" fill="none" xmlns="http://www.w3.org/2000/svg">
<path d="M11.9287 4C12.4809 4.00009 12.9287 4.44777 12.9287 5V7H18.9287C19.4809 7.00009 19.9287 7.44777 19.9287 8C19.9287 8.55223 19.4809 8.99991 18.9287 9H16.8916C16.8916 9.02327 16.8923 9.04675 16.8906 9.07031C16.6575 12.3735 15.3545 15.3793 13.3281 17.7471C14.1011 18.4297 14.9564 19.0206 15.876 19.5059L15.0859 21.3496C13.9398 20.7605 12.8789 20.0294 11.9277 19.1777C10.5776 20.3863 9.00886 21.3557 7.28613 22.0146C6.93505 22.1489 6.57706 22.2708 6.21387 22.3789C5.86192 22.4836 5.50381 22.5762 5.1416 22.6553C4.60244 22.7726 4.07018 22.4306 3.95215 21.8916C3.83437 21.3521 4.17632 20.819 4.71582 20.7012C5.02937 20.6327 5.33897 20.5526 5.64355 20.4619C5.95789 20.3684 6.2674 20.2627 6.57129 20.1465C8.03629 19.5861 9.37246 18.7667 10.5273 17.7471C9.42195 16.4552 8.53222 14.9735 7.91406 13.3574C7.77985 13.0065 7.65786 12.6482 7.5498 12.2852C7.42456 11.8643 7.31875 11.4354 7.23047 11H9.27734C9.33347 11.2376 9.39496 11.4728 9.46387 11.7051L9.78223 12.6426L9.93262 13.0195C10.4339 14.216 11.1094 15.3214 11.9268 16.3047C13.6007 14.2916 14.6803 11.7673 14.8906 9H4.92871C4.37648 8.99993 3.92871 8.55224 3.92871 8C3.92871 7.44776 4.37648 7.00007 4.92871 7H10.9287V5C10.9287 4.44776 11.3765 4.00007 11.9287 4Z" fill="#0D0F13"/>
<path fill-rule="evenodd" clip-rule="evenodd" d="M21.5 13C21.9 13 22.2614 13.2388 22.4189 13.6064L27.9902 26.6064C28.2076 27.1139 27.9731 27.7013 27.4658 27.9189C26.9582 28.1365 26.3699 27.9012 26.1523 27.3936L24.2695 23H18.7305L16.8477 27.3936C16.6301 27.9011 16.0427 28.1363 15.5352 27.9189C15.0276 27.7014 14.7924 27.114 15.0098 26.6064L20.5811 13.6064L20.6494 13.4746C20.8296 13.1827 21.15 13 21.5 13ZM19.5879 21H23.4121L21.5 16.5371L19.5879 21Z" fill="#0D0F13"/>
</svg>
