<svg width="32" height="32" viewBox="0 0 32 32" fill="none" xmlns="http://www.w3.org/2000/svg">
<path fill-rule="evenodd" clip-rule="evenodd" d="M15.9962 26.0003L19.5098 23.7524L20.9577 25.2004L17.074 27.6851C16.417 28.1055 15.5752 28.1054 14.9181 27.6849L4.92519 21.2895C3.69356 20.5013 3.69655 18.701 4.93081 17.9168L7.92666 16.0136L4.92237 14.0896C3.69404 13.303 3.69379 11.5085 4.92188 10.7215L5.87079 10.1134L7.31848 11.5611L6.00098 12.4054L12.0126 16.2553L16.5001 20.7428C15.9698 20.8805 15.3955 20.7966 14.9186 20.4912L9.78401 17.203L6.00325 19.605L15.9962 26.0003Z" fill="#0D0F13"/>
<path fill-rule="evenodd" clip-rule="evenodd" d="M15.9983 5.99903L12.4899 8.24726L11.0422 6.79957L14.9192 4.31513C15.5765 3.89393 16.4187 3.89362 17.0763 4.3144L27.0774 10.7137C28.3063 11.5001 28.3069 13.2953 27.0784 14.0824L24.0771 16.0053L27.0741 17.9126C28.3073 18.6974 28.3095 20.4969 27.0782 21.2846L26.1324 21.8897L24.6844 20.4418L26.0003 19.5999L22.2209 17.1946L21.7433 17.5006L20.2956 16.0529L25.9994 12.3984L15.9983 5.99903Z" fill="#0D0F13"/>
<path fill-rule="evenodd" clip-rule="evenodd" d="M29.7071 28.2929C30.0976 28.6834 30.0976 29.3166 29.7071 29.7071C29.3166 30.0976 28.6834 30.0976 28.2929 29.7071L2.29292 3.7071C1.90236 3.3166 1.90236 2.68342 2.29292 2.29292C2.68342 1.90236 3.3166 1.90236 3.7071 2.29292L29.7071 28.2929Z" fill="#0D0F13"/>
</svg>
