<svg width="32" height="32" viewBox="0 0 32 32" fill="none" xmlns="http://www.w3.org/2000/svg">
<path fill-rule="evenodd" clip-rule="evenodd" d="M27.7072 15.2926C28.0977 15.6831 28.0977 16.3163 27.7072 16.7068C27.6961 16.7179 27.6848 16.7286 27.6733 16.7391L20.636 23.7764C20.2455 24.167 19.6123 24.167 19.2218 23.7764C18.8313 23.3859 18.8313 22.7528 19.2218 22.3622L24.584 17H15.9995C10.4767 17 5.99951 21.4772 5.99951 27C5.99951 27.5523 5.55182 28 4.99951 28C4.4472 28 3.99951 27.5523 3.99951 27C3.99951 22.0806 6.95978 17.8525 11.1961 16C6.95978 14.1475 3.99951 9.91943 3.99951 5C3.99951 4.44769 4.4472 4 4.99951 4C5.55182 4 5.99951 4.44769 5.99951 5C5.99951 10.5216 10.4746 14.9979 15.9957 15H15.9995H24.5861L19.222 9.6358C18.8314 9.2453 18.8314 8.61212 19.222 8.22162C19.6125 7.83106 20.2456 7.83106 20.6362 8.22162L27.7072 15.2926Z" fill="#0D0F13"/>
</svg>
