<svg width="32" height="32" viewBox="0 0 32 32" fill="none" xmlns="http://www.w3.org/2000/svg">
<path d="M29.2383 11.1552C30.255 12.168 30.255 13.8102 29.2383 14.823L20.3418 23.6856C19.9508 24.0751 19.3168 24.0751 18.9257 23.6856C18.5347 23.296 18.5347 22.6644 18.9257 22.2749L27.2867 13.9458H4.00213V29.0017C4.00213 29.5526 3.55383 29.9992 3.00085 29.9992C2.44781 29.9992 1.99951 29.5526 1.99951 29.0017V12.9483C1.99951 12.6837 2.10498 12.43 2.29278 12.2429C2.48059 12.0558 2.73528 11.9507 3.00085 11.9507H27.2047L18.9257 3.70339C18.5347 3.3138 18.5347 2.68221 18.9257 2.29268C19.3168 1.90309 19.9508 1.90309 20.3418 2.29268L29.2383 11.1552Z" fill="#0D0F13"/>
</svg>
