<svg width="32" height="32" viewBox="0 0 32 32" fill="none" xmlns="http://www.w3.org/2000/svg">
<path d="M17.625 28C18.1773 28 18.625 28.4477 18.625 29C18.625 29.5523 18.1773 30 17.625 30H13.625C13.0727 30 12.625 29.5523 12.625 29C12.625 28.4477 13.0727 28 13.625 28H17.625Z" fill="#0B0C0F"/>
<path d="M15.625 2C16.1773 2 16.625 2.44772 16.625 3V4.0498C17.315 4.11831 17.9835 4.25941 18.625 4.46094V6.58301C17.6984 6.20787 16.6861 6 15.625 6C11.2067 6 7.625 9.58172 7.625 14V24H23.625V14H25.625V24H26.625C27.1773 24 27.625 24.4477 27.625 25C27.625 25.5523 27.1773 26 26.625 26H4.625C4.07272 26 3.625 25.5523 3.625 25C3.625 24.4477 4.07272 24 4.625 24H5.625V14C5.625 8.81467 9.5717 4.55155 14.625 4.0498V3C14.625 2.44772 15.0727 2 15.625 2Z" fill="#0B0C0F"/>
<path d="M19.625 10.25C19.9091 10.25 20.1689 10.411 20.2959 10.665C20.4227 10.919 20.395 11.223 20.2246 11.4502L18.125 14.25H19.625C20.0392 14.25 20.375 14.5858 20.375 15C20.375 15.4142 20.0392 15.75 19.625 15.75H16.625C16.3409 15.75 16.0811 15.589 15.9541 15.335C15.8273 15.081 15.855 14.777 16.0254 14.5498L18.125 11.75H16.625C16.2108 11.75 15.875 11.4142 15.875 11C15.875 10.5858 16.2108 10.25 16.625 10.25H19.625Z" fill="#0B0C0F"/>
<path d="M27.625 3.25C27.9159 3.25 28.1802 3.41832 28.3037 3.68164C28.4271 3.94518 28.3875 4.25691 28.2012 4.48047L24.2266 9.25H27.625C28.0392 9.25 28.375 9.58579 28.375 10C28.375 10.4142 28.0392 10.75 27.625 10.75H22.625C22.3341 10.75 22.0698 10.5817 21.9463 10.3184C21.8229 10.0548 21.8625 9.74309 22.0488 9.51953L26.0234 4.75H22.625C22.2108 4.75 21.875 4.41421 21.875 4C21.875 3.58579 22.2108 3.25 22.625 3.25H27.625Z" fill="#0B0C0F"/>
</svg>
