<svg width="32" height="32" viewBox="0 0 32 32" fill="none" xmlns="http://www.w3.org/2000/svg">
<path d="M2.99927 16.0036C2.44739 16.0036 2 15.556 2 15.0039V13.0378L2.00006 13.0259L2 13.0168C1.99847 12.4647 2.44458 12.0158 2.99646 12.0143L6.00592 12.0058L6.00598 10.8896C6.00598 10.3374 6.45349 9.88978 7.00543 9.88991L10.003 9.89052V7.99939H9.00372C8.45184 7.99939 8.00445 7.55182 8.00445 6.9997C8.00445 6.44758 8.45184 6 9.00372 6H13.0008C13.5527 6 14.0001 6.44757 14.0001 6.99969C14.0001 7.55181 13.5527 7.99938 13.0008 7.99938H12.0015V9.89092L16.0601 9.89177C16.3832 9.89183 16.6863 10.0482 16.8738 10.3115L18.0296 11.9348C18.0322 11.9384 18.0367 11.9399 18.0408 11.9386L25.9421 9.37535L25.9414 9.37415C26.4494 9.17902 27.1054 8.94355 27.7933 9.02137C28.5023 9.10151 29.1418 9.47218 29.6575 10.0953C30.0094 10.5206 29.9501 11.1508 29.525 11.5029C29.0999 11.855 28.4699 11.7956 28.118 11.3703C27.8816 11.0846 27.6902 11.0218 27.5688 11.0081C27.5293 11.0036 27.4854 11.0032 27.4376 11.0081C27.3965 11.0123 27.3524 11.0204 27.3055 11.0332C27.2865 11.0384 27.229 11.0661 27.2119 11.0784C27.1839 11.0986 27.1651 11.112 27.1514 11.122L19.1911 19.6816C19.002 19.8849 18.737 20.0004 18.4593 20.0003L7.00501 19.9983C6.45319 19.9982 6.00593 19.5506 6.00593 18.9985V14.0052L3.99854 14.0109V15.0039C3.99854 15.556 3.55115 16.0036 2.99927 16.0036ZM8.00452 11.8895L8.00446 17.999L18.0244 18.0008L23.2916 12.3371L18.6573 13.8405C17.8234 14.111 16.9104 13.8092 16.4018 13.0948L15.5447 11.8911L8.00452 11.8895Z" fill="#0D0F13"/>
<path d="M28.5011 13.9059C28.8221 13.9059 30 15.2931 30 16.4925C30 17.3266 29.3289 18.0027 28.5011 18.0027C27.6732 18.0027 27.0022 17.3266 27.0022 16.4925C27.0022 15.2172 28.1801 13.9059 28.5011 13.9059Z" fill="#0D0F13"/>
<path d="M28.3236 22.2909C28.7367 21.9224 29.369 21.9599 29.736 22.3748C30.103 22.7896 30.0656 23.4246 29.6525 23.7931L28.5323 24.7924C26.7681 26.3661 24.1225 26.4061 22.3119 24.8864L21.8632 24.5098C21.0027 23.7875 19.7326 23.8564 18.9546 24.6674C17.3313 26.3593 14.6317 26.3377 13.0068 24.6791C12.1898 23.8453 10.8613 23.789 9.99652 24.5424L9.65002 24.8442C7.87414 26.3912 5.23071 26.3739 3.47503 24.8037L2.34387 23.7922C1.93127 23.4232 1.89465 22.7882 2.26214 22.3738C2.62963 21.9594 3.26202 21.9227 3.67462 22.2917L4.80585 23.3033C5.81031 24.2017 7.32276 24.2116 8.33881 23.3264L8.68531 23.0246C10.3632 21.5629 12.8894 21.6943 14.4331 23.27C15.2843 24.1386 16.6873 24.1346 17.5136 23.2733C19.0204 21.7027 21.4801 21.5694 23.1464 22.9681L23.5952 23.3448C24.6454 24.2263 26.18 24.2031 27.2034 23.2902L28.3236 22.2909Z" fill="#0D0F13"/>
</svg>
