<svg width="32" height="32" viewBox="0 0 32 32" fill="none" xmlns="http://www.w3.org/2000/svg">
<path d="M17.6438 5.45697C19.5964 3.50467 22.7626 3.50449 24.7151 5.45697C26.6676 7.40949 26.6674 10.5756 24.7151 12.5283L14.0373 23.206C12.8658 24.3775 10.9657 24.3776 9.79418 23.206C8.62288 22.0345 8.62291 20.1353 9.79418 18.9638L17.9719 10.7851C18.3624 10.3949 18.9965 10.3947 19.387 10.7851C19.7774 11.1755 19.7772 11.8096 19.387 12.2001L11.2082 20.3779C10.818 20.7683 10.818 21.4015 11.2082 21.7919C11.5987 22.1824 12.2318 22.1822 12.6223 21.7919L23.3 11.1142C24.4716 9.94262 24.4716 8.04358 23.3 6.87201C22.1285 5.70048 20.2294 5.70045 19.0579 6.87201L17.926 8.00384C17.9231 8.00678 17.9192 8.00877 17.9163 8.01166L8.45727 17.4716C6.50471 19.4242 6.50483 22.5903 8.45727 24.5429C10.4099 26.4955 13.5759 26.4955 15.5286 24.5429L25.3 14.7714C25.6905 14.3809 26.3236 14.381 26.7141 14.7714C27.1046 15.1619 27.1046 15.795 26.7141 16.1855L16.9426 25.957C14.2089 28.6906 9.77687 28.6906 7.0432 25.957C4.30972 23.2233 4.30959 18.7912 7.0432 16.0576L17.6438 5.45697Z" fill="#0B0C0F"/>
</svg>
