<svg width="32" height="32" viewBox="0 0 32 32" fill="none" xmlns="http://www.w3.org/2000/svg">
<path fill-rule="evenodd" clip-rule="evenodd" d="M8.00001 25.5976L16.6036 20.8461L18.0754 22.3179L8.22517 27.758C7.22547 28.3101 6.00001 27.587 6.00001 26.445V10.2425L8.00001 12.2425V25.5976Z" fill="#0D0F13"/>
<path fill-rule="evenodd" clip-rule="evenodd" d="M25.3893 15.9939L13.8671 9.6244L8.75697 4.51417L27.1489 14.6813C28.1815 15.2522 28.1812 16.7367 27.1483 17.3071L23.5418 19.299L22.0699 17.8271L25.3893 15.9939Z" fill="#0D0F13"/>
<path fill-rule="evenodd" clip-rule="evenodd" d="M29.7071 28.2929C30.0976 28.6834 30.0976 29.3166 29.7071 29.7071C29.3166 30.0976 28.6834 30.0976 28.2929 29.7071L2.29292 3.7071C1.90236 3.3166 1.90236 2.68342 2.29292 2.29292C2.68342 1.90236 3.3166 1.90236 3.7071 2.29292L29.7071 28.2929Z" fill="#0D0F13"/>
</svg>
