<svg width="32" height="32" viewBox="0 0 32 32" fill="none" xmlns="http://www.w3.org/2000/svg">
<path fill-rule="evenodd" clip-rule="evenodd" d="M29 13C29.5523 13 30 13.4477 30 14C30 14.5523 29.5523 15 29 15H26V16C26 16.5523 25.5523 17 25 17H19.5C16.631 17 14.275 14.8032 14.0224 12H7C6.20435 12 5.44128 12.3161 4.87866 12.8787C4.31604 13.4413 4 14.2044 4 15C4 15.7956 4.31604 16.5587 4.87866 17.1213C5.44128 17.6839 6.20435 18 7 18H13H13.0016C14.0619 18.0004 15.0787 18.4218 15.8284 19.1716C16.5786 19.9217 17 20.9391 17 22C17 23.0609 16.5786 24.0783 15.8284 24.8284C15.0783 25.5786 14.0609 26 13 26H5C4.44769 26 4 25.5523 4 25C4 24.4477 4.44769 24 5 24H13C13.5304 24 14.0391 23.7893 14.4142 23.4142C14.7893 23.0391 15 22.5304 15 22C15 21.4696 14.7893 20.9609 14.4142 20.5858C14.0391 20.2107 13.5304 20 13 20H12.9986H7C5.67395 20 4.40216 19.4732 3.46448 18.5355C2.52679 17.5979 2 16.3261 2 15C2 13.6739 2.52679 12.4021 3.46448 11.4645C4.40216 10.5268 5.67395 10 7 10H14.207C14.86 7.69147 16.9824 6 19.5 6H25C25.5523 6 26 6.44769 26 7V8H29C29.5523 8 30 8.44769 30 9C30 9.55231 29.5523 10 29 10H26V13H29ZM24 9V8H19.5C17.567 8 16 9.56702 16 11.5C16 13.433 17.567 15 19.5 15H24V14V9Z" fill="#0D0F13"/>
</svg>
