<svg width="32" height="32" viewBox="0 0 32 32" fill="none" xmlns="http://www.w3.org/2000/svg">
<path fill-rule="evenodd" clip-rule="evenodd" d="M26.6567 4.01959C27.355 3.88934 28 4.42511 28 5.13525V17.7426C28 20.9354 26.1007 23.8223 23.1684 25.0868L16.7921 27.8365C16.2865 28.0545 15.7135 28.0545 15.2079 27.8365L8.8316 25.0868C5.89929 23.8223 4 20.9354 4 17.7426V5.13525C4 4.42511 4.64502 3.88934 5.34326 4.01959C12.387 5.33313 19.613 5.33313 26.6567 4.01959ZM26 17.7426V6.16699C19.3801 7.28345 12.6199 7.28345 6 6.16699V17.7426C6 20.1372 7.42444 22.3024 9.62372 23.2508L16 26.0003L22.3763 23.2508C24.5756 22.3024 26 20.1372 26 17.7426Z" fill="#0D0F13"/>
</svg>
