<svg width="32" height="32" viewBox="0 0 32 32" fill="none" xmlns="http://www.w3.org/2000/svg">
<path d="M26 6.16059C21.0512 6.99543 16.0239 7.20612 11.0354 6.79279L8.79202 4.54945C14.7321 5.29188 20.7583 5.11299 26.6566 4.01277C27.3549 3.88252 28 4.41834 28 5.12867V17.7386C28 19.412 27.4785 21.0015 26.5601 22.3174L25.116 20.8734C25.6825 19.9488 26 18.8693 26 17.7386V6.16059Z" fill="#0D0F13"/>
<path d="M29.7071 28.2929C30.0976 28.6834 30.0976 29.3166 29.7071 29.7071C29.3166 30.0976 28.6834 30.0976 28.2929 29.7071L2.29287 3.7071C1.90237 3.3166 1.90237 2.68342 2.29287 2.29292C2.68338 1.90236 3.31655 1.90236 3.70705 2.29292L29.7071 28.2929Z" fill="#0D0F13"/>
<path d="M16 25.9982L20.0211 24.2638L21.5429 25.7855L16.7921 27.8346C16.2865 28.0527 15.7135 28.0527 15.2079 27.8346L8.83163 25.0844C5.89926 23.8197 3.99996 20.9321 3.99996 17.7386V8.24262L5.99996 10.2426V17.7386C5.99996 20.1337 7.42441 22.2994 9.62369 23.248L16 25.9982Z" fill="#0D0F13"/>
</svg>
