<svg width="32" height="32" viewBox="0 0 32 32" fill="none" xmlns="http://www.w3.org/2000/svg">
<path fill-rule="evenodd" clip-rule="evenodd" d="M6.83695 8.25116C5.06716 10.3418 4 13.0463 4 16C4 22.6274 9.37258 28 16 28C18.9537 28 21.6582 26.9328 23.7488 25.1631L6.83695 8.25116ZM8.25116 6.83695L25.1631 23.7488C26.9328 21.6582 28 18.9537 28 16C28 9.37258 22.6274 4 16 4C13.0463 4 10.3418 5.06716 8.25116 6.83695ZM2 16C2 8.26801 8.26801 2 16 2C23.732 2 30 8.26801 30 16C30 23.732 23.732 30 16 30C8.26801 30 2 23.732 2 16Z" fill="#0D0F13"/>
</svg>
