<svg width="32" height="32" viewBox="0 0 32 32" fill="none" xmlns="http://www.w3.org/2000/svg">
<path d="M4.99976 16.9909C4.44764 16.9909 4 16.5435 4 15.9916V9.99572C4 8.8919 4.8952 7.99712 5.99951 7.99712H24.9847L22.6925 5.70592C22.3021 5.31566 22.3021 4.68291 22.6925 4.29265C23.083 3.90245 23.716 3.90245 24.1064 4.29265L27.4147 7.59966C28.1956 8.38018 28.1956 9.64562 27.4147 10.4262L24.1064 13.7332C23.716 14.1234 23.083 14.1234 22.6925 13.7332C22.3021 13.3429 22.3021 12.7102 22.6925 12.3199L25.0177 9.99572H5.99952V15.9916C5.99952 16.5435 5.55189 16.9909 4.99976 16.9909Z" fill="#0D0F13"/>
<path d="M26.9935 14.9927C27.5456 14.9927 27.9932 15.4402 27.9932 15.9921V21.9879C27.9932 23.0918 27.098 23.9866 25.9937 23.9866H6.99976L9.30854 26.2943C9.69892 26.6846 9.69892 27.3173 9.30854 27.7076C8.9181 28.0978 8.2851 28.0978 7.89466 27.7076L4.58631 24.4006C3.80549 23.6201 3.80549 22.3546 4.58631 21.5741L7.89466 18.2671C8.2851 17.8769 8.9181 17.8769 9.30854 18.2671C9.69892 18.6574 9.69892 19.2901 9.30854 19.6804L6.99995 21.9879H25.9937V15.9921C25.9937 15.4402 26.4413 14.9927 26.9935 14.9927Z" fill="#0D0F13"/>
</svg>
