<svg width="32" height="32" viewBox="0 0 32 32" fill="none" xmlns="http://www.w3.org/2000/svg">
<path d="M24.293 3.29289C24.6835 2.90237 25.3165 2.90237 25.707 3.29289L29.707 7.29289C30.0975 7.68342 30.0975 8.31643 29.707 8.70696L25.707 12.707C25.3165 13.0975 24.6835 13.0975 24.293 12.707C23.9024 12.3164 23.9024 11.6834 24.293 11.2929L26.5859 8.99992H21.2363C20.5203 9.00003 19.8586 9.38288 19.5019 10.0038L11.4687 23.9921C10.7554 25.2341 9.43226 25.9999 7.99998 25.9999H2.99998C2.4477 25.9999 1.99998 25.5522 1.99998 24.9999C1.99998 24.4476 2.4477 23.9999 2.99998 23.9999H7.99998C8.71611 23.9999 9.37768 23.617 9.73436 22.996L17.7676 9.00774C18.4808 7.76575 19.8041 7.00003 21.2363 6.99992H26.5859L24.293 4.70696C23.9024 4.31643 23.9024 3.68342 24.293 3.29289Z" fill="#0D0F13"/>
<path d="M19.5019 21.9961C19.8586 22.617 20.5203 22.9999 21.2363 23H26.5859L24.293 20.707C23.9025 20.3165 23.9024 19.6835 24.293 19.293C24.6835 18.9025 25.3165 18.9025 25.707 19.293L29.707 23.293C29.8945 23.4805 30 23.7348 30 24C30 24.2652 29.8945 24.5195 29.707 24.707L25.707 28.707C25.3165 29.0976 24.6835 29.0976 24.293 28.707C23.9025 28.3165 23.9024 27.6835 24.293 27.293L26.5859 25H21.2363C19.8041 24.9999 18.4808 24.2342 17.7676 22.9922L16.041 19.9863L17.1943 17.9785L19.5019 21.9961Z" fill="#0D0F13"/>
<path d="M7.99998 6C9.43225 6 10.7554 6.76585 11.4687 8.00781L13.7353 11.9541L12.582 13.9619L9.73436 9.00391C9.37768 8.38296 8.71609 8 7.99998 8H2.99998C2.4477 8 1.99999 7.55228 1.99998 7C2.00003 6.44775 2.44773 6 2.99998 6H7.99998Z" fill="#0D0F13"/>
</svg>
