<svg width="32" height="32" viewBox="0 0 32 32" fill="none" xmlns="http://www.w3.org/2000/svg">
<path fill-rule="evenodd" clip-rule="evenodd" d="M11 11C10.4477 11 10 10.5523 10 10C10 9.44769 10.4477 9 11 9H16C16.5523 9 17 9.44769 17 10C17 10.5523 16.5523 11 16 11H11Z" fill="#0D0F13"/>
<path fill-rule="evenodd" clip-rule="evenodd" d="M20 11C19.4477 11 19 10.5523 19 10C19 9.44769 19.4477 9 20 9H21C21.5523 9 22 9.44769 22 10C22 10.5523 21.5523 11 21 11H20Z" fill="#0D0F13"/>
<path fill-rule="evenodd" clip-rule="evenodd" d="M11 15C10.4477 15 10 14.5523 10 14C10 13.4477 10.4477 13 11 13H21C21.5523 13 22 13.4477 22 14C22 14.5523 21.5523 15 21 15H11Z" fill="#0D0F13"/>
<path fill-rule="evenodd" clip-rule="evenodd" d="M11 19C10.4477 19 10 18.5523 10 18C10 17.4477 10.4477 17 11 17H21C21.5523 17 22 17.4477 22 18C22 18.5523 21.5523 19 21 19H11Z" fill="#0D0F13"/>
<path fill-rule="evenodd" clip-rule="evenodd" d="M11 23C10.4477 23 10 22.5523 10 22C10 21.4477 10.4477 21 11 21H15C15.5523 21 16 21.4477 16 22C16 22.5523 15.5523 23 15 23H11Z" fill="#0D0F13"/>
<path fill-rule="evenodd" clip-rule="evenodd" d="M24 2C25.1046 2 26 2.89545 26 4V28C26 29.1046 25.1046 30 24 30H8C6.89545 30 6 29.1046 6 28V4C6 2.89545 6.89545 2 8 2H24ZM24 28V4H8V28H24Z" fill="#0D0F13"/>
</svg>
