<svg width="32" height="32" viewBox="0 0 32 32" fill="none" xmlns="http://www.w3.org/2000/svg">
<path d="M25.9396 7.62144C27.9162 9.96629 29.0002 12.9344 29 16.0011C28.9998 19.0678 27.9155 22.0358 25.9387 24.3804C23.9619 26.725 21.2199 28.2953 18.1973 28.8137C15.1747 29.3321 12.0661 28.7653 9.42096 27.2134C6.77588 25.6615 4.76453 23.2245 3.74249 20.3331C3.55841 19.8123 3.83136 19.241 4.35205 19.057C4.87274 18.8729 5.44409 19.1458 5.62817 19.6665C6.49298 22.1131 8.19488 24.1752 10.433 25.4884C12.6712 26.8015 15.3016 27.2811 17.8592 26.8425C20.4168 26.4038 22.737 25.0751 24.4097 23.0912C26.0824 21.1073 26.9999 18.5959 27 16.001C27.0001 13.406 26.0829 10.8946 24.4104 8.91051C22.7379 6.92638 20.4179 5.59746 17.8603 5.15856C15.3028 4.7196 12.6724 5.1989 10.4341 6.51183C8.6156 7.57841 7.15106 9.13945 6.20172 10.9994H10.8C11.3523 10.9994 11.8 11.4471 11.8 11.9994C11.8 12.5517 11.3523 12.9994 10.8 12.9994H4.72186C4.69787 13.0003 4.67376 13.0003 4.64959 12.9994H4C3.44769 12.9994 3 12.5517 3 11.9994V4.99998C3 4.44767 3.44769 3.99998 4 3.99998C4.55231 3.99998 5 4.44767 5 4.99998V9.07084C6.10242 7.32096 7.61432 5.84709 9.42218 4.78666C12.0675 3.23509 15.1761 2.66862 18.1986 3.18736C21.2212 3.7061 23.9631 5.27665 25.9396 7.62144Z" fill="#0D0F13"/>
</svg>
