<svg width="32" height="32" viewBox="0 0 32 32" fill="none" xmlns="http://www.w3.org/2000/svg">
<path fill-rule="evenodd" clip-rule="evenodd" d="M29.5211 10.539C29.9419 10.7755 30.1148 11.2936 29.9205 11.7362L24.2978 24.5429C24.1315 24.9215 23.695 25.0991 23.3124 24.9438C18.6238 23.0399 13.3796 23.0399 8.69103 24.9438C8.30852 25.0992 7.872 24.9217 7.70568 24.5431L2.07958 11.7365C1.88506 11.2938 2.0581 10.7754 2.47918 10.5388C10.8775 5.82073 21.1232 5.82 29.5211 10.539ZM22.9374 22.6661L25.0003 17.9676H23.0268C22.6452 17.9676 22.2961 17.752 22.1247 17.4103L21.0147 15.1977L19.4228 18.3977C19.052 19.1432 17.9913 19.1453 17.6174 18.4015L16.0125 15.2087L14.4511 18.3925C14.084 19.1411 13.0214 19.148 12.6446 18.4043L11.0174 15.1927L9.92126 17.4057C9.75073 17.7499 9.40039 17.9676 9.01684 17.9676H7.00152L9.06573 22.6663C13.5615 21.1278 18.4416 21.1277 22.9374 22.6661ZM25.8799 15.9642L27.6947 11.8305C20.3552 8.0609 11.6456 8.06139 4.30535 11.8304L6.12139 15.9642H8.40319L10.1029 12.5325C10.4722 11.787 11.5317 11.7822 11.9077 12.5243L13.5305 15.7272L15.0954 12.5362C15.4632 11.7864 16.5282 11.7811 16.9033 12.5273L18.5146 15.7326L20.1073 12.5309C20.4783 11.7852 21.5395 11.7834 21.913 12.5279L23.637 15.9642H25.8799Z" fill="#0D0F13"/>
</svg>
