<svg xmlns="http://www.w3.org/2000/svg" width="24" height="24" viewBox="0 0 24 24" fill="none">
<path fill-rule="evenodd" clip-rule="evenodd" d="M17.9531 19.875C19.8238 18.2238 21 15.8124 21 13.125C21 10.9868 20.2543 9.02266 19.0088 7.47859L14.0307 12.4567C14.1713 12.7504 14.25 13.0794 14.25 13.4268C14.25 14.6694 13.2426 15.6768 12 15.6768C10.7574 15.6768 9.75 14.6694 9.75 13.4268C9.75 12.1841 10.7574 11.1768 12 11.1768C12.3474 11.1768 12.6763 11.2555 12.9701 11.396L17.9733 6.39284C16.3842 4.9819 14.2922 4.125 12 4.125C7.02944 4.125 3 8.15444 3 13.125C3 15.8124 4.1762 18.2238 6.04686 19.875H17.9531ZM18.6982 21.2114C18.5685 21.319 18.4043 21.375 18.2358 21.375H5.76421C5.59573 21.375 5.43153 21.319 5.30184 21.2114C2.97928 19.2855 1.5 16.378 1.5 13.125C1.5 7.32601 6.20101 2.625 12 2.625C17.799 2.625 22.5 7.32601 22.5 13.125C22.5 16.378 21.0207 19.2855 18.6982 21.2114ZM11.25 13.4268C11.25 13.0125 11.5858 12.6768 12 12.6768C12.4142 12.6768 12.75 13.0125 12.75 13.4268C12.75 13.841 12.4142 14.1768 12 14.1768C11.5858 14.1768 11.25 13.841 11.25 13.4268ZM12.3733 5.18878C12.1534 4.96933 11.7973 4.96969 11.5778 5.18958C11.3584 5.40947 11.3587 5.76562 11.5786 5.98507L12.0082 6.41379C11.548 6.39993 11.0867 6.43962 10.6336 6.5328C9.87006 6.68985 9.14491 6.99575 8.49958 7.43304C7.85425 7.87033 7.30136 8.43044 6.8725 9.0814C6.44363 9.73236 6.14718 10.4614 6.00007 11.2269C5.93168 11.5829 6.16476 11.9269 6.52069 11.9953C6.87661 12.0636 7.22059 11.8306 7.28899 11.4746C7.40357 10.8784 7.63448 10.3105 7.96852 9.80348C8.30256 9.29645 8.7332 8.86018 9.23584 8.51958C9.73849 8.17898 10.3033 7.94071 10.898 7.81839C11.3221 7.73117 11.7555 7.70412 12.1855 7.73732L11.5808 8.34323C11.3613 8.56312 11.3617 8.91928 11.5816 9.13873C11.8015 9.35818 12.1576 9.35782 12.3771 9.13793L13.9521 7.55975C13.9971 7.51459 14.0329 7.46368 14.0595 7.40939C14.1624 7.19925 14.1264 6.93829 13.9515 6.76378L12.3733 5.18878Z" fill="#001D21" />
</svg>