<svg xmlns="http://www.w3.org/2000/svg" width="24" height="24" viewBox="0 0 24 24" fill="none">
<path fill-rule="evenodd" clip-rule="evenodd" d="M2.78033 1.71967C2.48744 1.42678 2.01256 1.42678 1.71967 1.71967C1.42678 2.01256 1.42678 2.48744 1.71967 2.78033L21.2197 22.2803C21.5126 22.5732 21.9874 22.5732 22.2803 22.2803C22.5732 21.9874 22.5732 21.5126 22.2803 21.2197L2.78033 1.71967ZM22.5 13.125C22.5 14.9163 22.0514 16.6029 21.2605 18.0785L20.1439 16.9619C20.6932 15.7979 21 14.4974 21 13.125C21 10.9868 20.2543 9.02266 19.0088 7.47859L14.8347 11.6527L13.774 10.5921L17.9733 6.39284C16.3842 4.9819 14.2922 4.125 12 4.125C10.6277 4.125 9.32719 4.43212 8.16337 4.98139L7.04652 3.86454C8.5221 3.07358 10.2087 2.625 12 2.625C17.799 2.625 22.5 7.32601 22.5 13.125ZM9.79497 12.9769L12.4498 15.6318C12.3045 15.6613 12.154 15.6768 12 15.6768C10.7574 15.6768 9.75 14.6694 9.75 13.4268C9.75 13.2727 9.76548 13.1223 9.79497 12.9769ZM11.5808 8.34323C11.5714 8.35258 11.5625 8.36218 11.554 8.372L12.3475 9.16553C12.3576 9.15675 12.3675 9.14755 12.3771 9.13793L13.9521 7.55975C13.9971 7.51459 14.0329 7.46368 14.0595 7.40939C14.1624 7.19925 14.1264 6.93829 13.9515 6.76378L12.3733 5.18878C12.1534 4.96933 11.7973 4.96969 11.5778 5.18958C11.3584 5.40947 11.3587 5.76562 11.5786 5.98507L12.0082 6.41379C11.548 6.39993 11.0867 6.43962 10.6336 6.5328C10.3885 6.58322 10.1473 6.64898 9.91148 6.7295L10.9836 7.80163C11.3803 7.72781 11.7844 7.70635 12.1855 7.73732L11.5808 8.34323ZM7.51169 10.6937L6.5169 9.69888C6.27639 10.1814 6.10223 10.6954 6.00007 11.2269C5.93168 11.5829 6.16476 11.9269 6.52069 11.9953C6.87661 12.0636 7.22059 11.8306 7.28899 11.4746C7.3403 11.2076 7.41492 10.9464 7.51169 10.6937ZM3 13.125C3 11.1647 3.62672 9.3508 4.69072 7.8727L3.61805 6.80003C2.28852 8.55917 1.5 10.75 1.5 13.125C1.5 16.378 2.97928 19.2855 5.30184 21.2114C5.43153 21.319 5.59573 21.375 5.76421 21.375H18.193L16.693 19.875H6.04686C4.1762 18.2238 3 15.8124 3 13.125Z" fill="#001D21" />
</svg>