<svg xmlns="http://www.w3.org/2000/svg" width="24" height="24" viewBox="0 0 24 24" fill="none">
<path d="M20.5293 17.1339C20.6858 16.9161 20.7887 16.6305 20.7887 16.2723C20.7887 15.1806 19.8995 14.6172 18.8782 14.6172H18.0125L19.1109 15.7156C19.2525 15.7835 19.3643 15.887 19.4277 16.0324L20.5293 17.1339Z" fill="#001D21" />
<path fill-rule="evenodd" clip-rule="evenodd" d="M13.0644 16.0327L14.2969 17.2652V20.8677H13.1348V20.3835C12.8091 20.7709 12.3425 20.9998 11.7262 20.9998C10.3528 20.9998 9.58679 19.9697 9.58679 18.517C9.58679 17.0732 10.3528 16.0519 11.7262 16.0519C12.2984 16.0519 12.7386 16.2456 13.0644 16.5802V16.0327ZM10.8546 18.6139C10.8546 19.5119 11.3036 20.0577 11.9991 20.0577C12.6682 20.0577 13.082 19.5823 13.082 18.9308V18.1032C13.082 17.4341 12.6682 16.9939 11.9991 16.9939C11.3036 16.9939 10.8546 17.5134 10.8546 18.4202V18.6139Z" fill="#001D21" />
<path d="M14.7767 11.3812C15.2304 10.791 15.5001 10.052 15.5001 9.25C15.5001 8.7017 15.2704 8.04325 15.0125 7.4506C14.7414 6.82761 14.3853 6.16049 14.0364 5.55571C13.6862 4.94859 13.3358 4.39147 13.0708 3.98568C12.9383 3.78274 12.8258 3.61571 12.7441 3.49751C12.7036 3.43903 12.6686 3.38933 12.6413 3.35205C12.6285 3.33457 12.6126 3.31331 12.5967 3.29337C12.5902 3.28516 12.5743 3.26551 12.5539 3.24343C12.5455 3.23433 12.5213 3.20838 12.4872 3.17937C12.4711 3.16573 12.4354 3.13624 12.385 3.1062L12.3831 3.10507C12.3536 3.08738 12.208 3 12.0001 3C11.7922 3 11.6466 3.08738 11.6171 3.10507L11.6152 3.1062C11.5649 3.13625 11.5291 3.16573 11.513 3.17937C11.4789 3.20839 11.4547 3.23433 11.4463 3.24343C11.4259 3.26551 11.4101 3.28516 11.4035 3.29337C11.3876 3.31332 11.3717 3.33457 11.3589 3.35205C11.3316 3.38933 11.2966 3.43903 11.2561 3.49751C11.1744 3.61571 11.0619 3.78274 10.9294 3.98568C10.6644 4.39147 10.314 4.94859 9.96382 5.55572C9.84241 5.76621 9.72011 5.98425 9.60083 6.20535L10.7116 7.31617C10.8829 6.98037 11.0715 6.63745 11.2631 6.3052C11.5205 5.85897 11.779 5.43952 12.0001 5.09285C12.2212 5.43952 12.4797 5.85897 12.7371 6.3052C13.0719 6.88558 13.3974 7.49853 13.6371 8.04918C13.8899 8.63016 14.0001 9.03891 14.0001 9.25C14.0001 9.63698 13.8902 9.99829 13.6999 10.3044L14.7767 11.3812Z" fill="#001D21" />
<path d="M15.6032 18.5718L16.8973 19.866V19.8732H16.9046L17.8994 20.8681H15.6032V18.5718Z" fill="#001D21" />
<path fill-rule="evenodd" clip-rule="evenodd" d="M9.17158 20.868H7.83338L7.39318 19.5298H4.72558L4.28538 20.868H3L5.12176 14.6172H7.04983L9.17158 20.868ZM6.06378 15.4536L5.06013 18.5173H7.06743L6.06378 15.4536Z" fill="#001D21" />
<path fill-rule="evenodd" clip-rule="evenodd" d="M1.71968 1.71967C2.01257 1.42678 2.48744 1.42678 2.78033 1.71967L22.2803 21.2197C22.5732 21.5126 22.5732 21.9874 22.2803 22.2803C21.9874 22.5732 21.5126 22.5732 21.2197 22.2803L1.71968 2.78033C1.42678 2.48744 1.42678 2.01256 1.71968 1.71967Z" fill="#001D21" />
</svg>