<svg xmlns="http://www.w3.org/2000/svg" width="24" height="24" viewBox="0 0 24 24" fill="none">
<path d="M7.83338 20.868H9.17159L7.04983 14.6172H5.12176L3 20.868H4.28538L4.72558 19.5298H7.39318L7.83338 20.868ZM5.06013 18.5174L6.06378 15.4536L7.06744 18.5174H5.06013Z" fill="#001D21" />
<path d="M13.0644 14.3882V16.5804C12.7386 16.2458 12.2984 16.0522 11.7262 16.0522C10.3528 16.0522 9.58679 17.0734 9.58679 18.5173C9.58679 19.9699 10.3528 21 11.7262 21C12.3425 21 12.8091 20.7711 13.1348 20.3837V20.8679H14.2969V14.3882H13.0644ZM11.9991 20.058C11.3036 20.058 10.8546 19.5121 10.8546 18.6141V18.4204C10.8546 17.5136 11.3036 16.9942 11.9991 16.9942C12.6682 16.9942 13.082 17.4344 13.082 18.1035V18.9311C13.082 19.5826 12.6682 20.058 11.9991 20.058Z" fill="#001D21" />
<path d="M19.8907 17.6106C20.3397 17.4521 20.7887 17.0207 20.7887 16.2724C20.7887 15.1807 19.8995 14.6172 18.8782 14.6172H15.6032V20.868H19.1071C20.2076 20.868 21 20.1901 21 19.0896C21 18.2356 20.4542 17.7954 19.8907 17.6106ZM18.5877 15.6121C19.0719 15.6121 19.4857 15.8145 19.4857 16.334V16.4572C19.4857 16.9855 19.0631 17.2056 18.5789 17.2056H16.8973V15.6121H18.5877ZM19.6794 19.0896C19.6794 19.6707 19.2392 19.8732 18.7374 19.8732H16.8973V18.174H18.7374C19.2392 18.174 19.6794 18.4029 19.6794 18.9752V19.0896Z" fill="#001D21" />
<path fill-rule="evenodd" clip-rule="evenodd" d="M11.6171 3.10507C11.6466 3.08738 11.7923 3 12.0001 3C12.208 3 12.3537 3.08738 12.3831 3.10507L12.385 3.1062C12.4354 3.13625 12.4711 3.16573 12.4872 3.17937C12.5213 3.20839 12.5455 3.23433 12.5539 3.24343C12.5744 3.26551 12.5902 3.28516 12.5967 3.29337C12.6127 3.31332 12.6285 3.33457 12.6413 3.35205C12.6686 3.38933 12.7037 3.43903 12.7441 3.49751C12.8258 3.61571 12.9383 3.78274 13.0708 3.98568C13.3359 4.39147 13.6862 4.94859 14.0364 5.55572C14.3853 6.1605 14.7414 6.82762 15.0125 7.45061C15.2704 8.04326 15.5001 8.70171 15.5001 9.25001C15.5001 11.183 13.9331 12.75 12.0001 12.75C10.0671 12.75 8.50012 11.183 8.50012 9.25001C8.50012 8.70171 8.72982 8.04327 8.98775 7.45061C9.25888 6.82762 9.61497 6.1605 9.96381 5.55572C10.314 4.9486 10.6644 4.39147 10.9294 3.98569C11.0619 3.78274 11.1744 3.61571 11.2561 3.49752C11.2966 3.43903 11.3317 3.38933 11.359 3.35205C11.3718 3.33457 11.3876 3.31332 11.4035 3.29337C11.4101 3.28516 11.4259 3.26551 11.4463 3.24343C11.4547 3.23433 11.4789 3.20839 11.513 3.17937C11.5291 3.16574 11.5649 3.13625 11.6152 3.1062L11.6171 3.10507ZM10.3631 8.04919C10.1103 8.63018 10.0001 9.03892 10.0001 9.25001C10.0001 10.3546 10.8956 11.25 12.0001 11.25C13.1047 11.25 14.0001 10.3546 14.0001 9.25001C14.0001 9.03893 13.89 8.63018 13.6371 8.0492C13.3975 7.49855 13.0719 6.88559 12.7371 6.30521C12.4797 5.85898 12.2212 5.43952 12.0001 5.09285C11.779 5.43952 11.5205 5.85898 11.2632 6.30521C10.9284 6.88559 10.6028 7.49854 10.3631 8.04919Z" fill="#001D21" />
</svg>