<svg xmlns="http://www.w3.org/2000/svg" fill="none" viewBox="0 0 32 32"><path fill="#0D0F13" d="M3.232 2.293a1 1 0 0 0-1.414 1.414l26 26a1 1 0 0 0 1.415-1.414l-26-26ZM29.525 16c0 2.78-.81 5.371-2.208 7.55l-1.453-1.454A11.942 11.942 0 0 0 27.525 16c0-3.302-1.332-6.29-3.49-8.46a1 1 0 1 1 1.418-1.411 13.96 13.96 0 0 1 4.072 9.87Z"/><path fill="#0D0F13" d="M25.524 16a8.96 8.96 0 0 1-1.223 4.533l-1.477-1.477c.448-.924.7-1.96.7-3.056a6.984 6.984 0 0 0-2.532-5.388 1 1 0 0 1 1.278-1.54A8.983 8.983 0 0 1 25.524 16ZM18.525 14.757V7.304a1.3 1.3 0 0 0-1.918-1.144l-4.335 2.344 1.476 1.476 2.777-1.502v4.28l2 2ZM3.525 11.986H7.27l-2-2H3.525a2 2 0 0 0-2 2v8.01a2 2 0 0 0 2 2h5.752a1 1 0 0 1 .478.121l6.85 3.726a1.3 1.3 0 0 0 1.92-1.142v-1.458l-2-2v2.28l-5.814-3.163a3 3 0 0 0-1.434-.364H3.525v-8.01Z"/></svg>