<svg width="32" height="32" viewBox="0 0 32 32" fill="none" xmlns="http://www.w3.org/2000/svg">
<path fill-rule="evenodd" clip-rule="evenodd" d="M25.5385 8C26.8979 8 28 9.10205 28 10.4615V11.0909C28 13.5754 26.1544 15.6288 23.7594 15.9549C22.9659 19.1146 20.293 21.5283 16.9981 21.9383C16.9994 21.9587 17 21.9793 17 22V25.999H19.5C20.0523 25.999 20.5 26.4467 20.5 26.999C20.5 27.5513 20.0523 27.999 19.5 27.999H16.0446C16.0298 27.9997 16.0149 28 16 28C15.9851 28 15.9702 27.9997 15.9554 27.999H12.5C11.9477 27.999 11.5 27.5513 11.5 26.999C11.5 26.4467 11.9477 25.999 12.5 25.999H15V22C15 21.9793 15.0006 21.9587 15.0019 21.9383C11.707 21.5283 9.03412 19.1146 8.24054 15.9549C5.84558 15.6288 4 13.5754 4 11.0909V10C4 8.89545 4.89545 8 6 8H8V6C8 4.89545 8.89545 4 10 4H22C23.1046 4 24 4.89545 24 6V8H25.5385ZM8 13.8551V10H6V11.0909C6 12.3801 6.83856 13.4734 8 13.8551ZM22 10V6H10V10V14C10 17.3137 12.6863 20 16 20C19.3137 20 22 17.3137 22 14V10ZM26 11.0909V10.4615C26 10.2066 25.7934 10 25.5385 10H24V13.8551C25.1614 13.4734 26 12.3801 26 11.0909Z" fill="#0D0F13"/>
</svg>
