<svg xmlns="http://www.w3.org/2000/svg" width="24" height="24" viewBox="0 0 24 24" fill="none">
<path fill-rule="evenodd" clip-rule="evenodd" d="M16.5 4.5H7.5V7.5V10.5C7.5 12.9853 9.51472 15 12 15C14.4853 15 16.5 12.9853 16.5 10.5V7.5V4.5ZM6.18042 11.9661C6.77557 14.336 8.78027 16.1462 11.2514 16.4538C11.2505 16.4691 11.25 16.4845 11.25 16.5V19.4993H9.375C8.96079 19.4993 8.625 19.8351 8.625 20.2493C8.625 20.6635 8.96079 20.9993 9.375 20.9993H11.9666L11.9841 20.9998L12 21C12.0112 21 12.0224 20.9998 12.0334 20.9993H14.625C15.0392 20.9993 15.375 20.6635 15.375 20.2493C15.375 19.8351 15.0392 19.4993 14.625 19.4993H12.75V16.5C12.75 16.4845 12.7495 16.4691 12.7486 16.4538C15.2197 16.1462 17.2244 14.336 17.8196 11.9661C19.6158 11.7216 21 10.1815 21 8.31818V7.84615C21 6.82655 20.1734 6 19.1538 6H18V4.5C18 3.67157 17.3284 3 16.5 3H7.5C6.67157 3 6 3.67157 6 4.5V6H4.5C3.67157 6 3 6.67157 3 7.5V8.31818C3 10.1815 4.38419 11.7216 6.18042 11.9661ZM6 10.3914V7.5H4.5V8.31818C4.5 9.28506 5.12893 10.105 6 10.3914ZM19.5 8.31818C19.5 9.28506 18.8711 10.105 18 10.3914V7.5H19.1538C19.345 7.5 19.5 7.65498 19.5 7.84615V8.31818Z" fill="#001D21" />
</svg>