<svg xmlns="http://www.w3.org/2000/svg" fill="none" viewBox="0 0 32 32"><path fill="#0D0F13" d="M29.961 16c0 2.77-.804 5.352-2.192 7.526l-1.455-1.454A11.945 11.945 0 0 0 27.961 16c0-6.627-5.372-12-12-12-2.215 0-4.29.6-6.071 1.647L8.436 4.193A13.937 13.937 0 0 1 15.96 2c7.732 0 14 6.268 14 14ZM15.961 28c2.236 0 4.329-.611 6.12-1.676l1.453 1.453A13.935 13.935 0 0 1 15.961 30C8.595 30 2.558 24.311 2.003 17.087a1 1 0 0 1 1.994-.154C4.473 23.124 9.648 28 15.961 28ZM10.03 15.285v-1.012l.57.57-.57.442ZM13.798 18.04l-1.685-1.684V20h1.685v-1.96Z"/><path fill="#0D0F13" d="M22.248 17.356c0 .203-.019.401-.057.593l-3.378-3.379c.097-.007.197-.01.3-.01 2.117 0 3.135 1.205 3.135 2.796ZM17.58 13.039l-.03.268-1.45-1.45.017-.164h5.652v1.346H17.58ZM3.707 2.293a1 1 0 0 0-1.414 1.414l26 26a1 1 0 0 0 1.414-1.414l-26-26Z"/></svg>