<svg xmlns="http://www.w3.org/2000/svg" width="24" height="24" viewBox="0 0 24 24" fill="none">
<path d="M9.78454 2.7608C10.0774 2.46791 10.0774 1.99303 9.78454 1.70014C9.49165 1.40725 9.01678 1.40725 8.72388 1.70014L2.0604 8.36362C1.29888 9.12515 1.29888 10.3598 2.0604 11.1213L8.72389 17.7848C9.01678 18.0777 9.49165 18.0777 9.78455 17.7848C10.0774 17.4919 10.0774 17.0171 9.78454 16.7242L3.52152 10.4611L20.9624 10.4611V21.7812C20.9624 22.1955 21.2982 22.5312 21.7124 22.5312C22.1266 22.5312 22.4624 22.1955 22.4624 21.7812V9.71114C22.4624 9.51223 22.3834 9.32146 22.2427 9.18081C22.1021 9.04015 21.9113 8.96114 21.7124 8.96114L3.5842 8.96114L9.78454 2.7608Z" fill="#001D21" />
</svg>