<svg xmlns="http://www.w3.org/2000/svg" width="24" height="24" viewBox="0 0 24 24" fill="none">
<path d="M2.98535 4.48438C2.98535 5.3128 3.65692 5.98438 4.48535 5.98438C5.31378 5.98438 5.98535 5.3128 5.98535 4.48438C5.98535 3.65595 5.31378 2.98438 4.48535 2.98438C3.65692 2.98438 2.98535 3.65595 2.98535 4.48438Z" fill="#001D21" />
<path d="M2.98535 12C2.98535 12.8284 3.65692 13.5 4.48535 13.5C5.31378 13.5 5.98535 12.8284 5.98535 12C5.98535 11.1716 5.31378 10.5 4.48535 10.5C3.65692 10.5 2.98535 11.1716 2.98535 12Z" fill="#001D21" />
<path d="M2.98535 19.5159C2.98535 20.3443 3.65692 21.0159 4.48535 21.0159C5.31378 21.0159 5.98535 20.3443 5.98535 19.5159C5.98535 18.6874 5.31378 18.0159 4.48535 18.0159C3.65692 18.0159 2.98535 18.6874 2.98535 19.5159Z" fill="#001D21" />
<path d="M10.5001 4.48439C10.5001 5.31282 11.1717 5.98439 12.0001 5.98439C12.8285 5.98439 13.5001 5.31282 13.5001 4.48439C13.5001 3.65596 12.8285 2.98439 12.0001 2.98439C11.1717 2.98439 10.5001 3.65596 10.5001 4.48439Z" fill="#001D21" />
<path d="M10.5 12C10.5 12.8284 11.1716 13.5 12 13.5C12.8284 13.5 13.5 12.8284 13.5 12C13.5 11.1716 12.8284 10.5 12 10.5C11.1716 10.5 10.5 11.1716 10.5 12Z" fill="#001D21" />
<path d="M10.5001 19.5159C10.5001 20.3443 11.1717 21.0159 12.0001 21.0159C12.8285 21.0159 13.5001 20.3443 13.5001 19.5159C13.5001 18.6874 12.8285 18.0159 12.0001 18.0159C11.1717 18.0159 10.5001 18.6874 10.5001 19.5159Z" fill="#001D21" />
<path d="M18.0143 4.48438C18.0143 5.31281 18.6859 5.98438 19.5143 5.98438C20.3427 5.98438 21.0143 5.31281 21.0143 4.48438C21.0143 3.65595 20.3427 2.98438 19.5143 2.98438C18.6859 2.98438 18.0143 3.65595 18.0143 4.48438Z" fill="#001D21" />
<path d="M18.0142 12C18.0142 12.8284 18.6857 13.5 19.5142 13.5C20.3426 13.5 21.0142 12.8284 21.0142 12C21.0142 11.1716 20.3426 10.5 19.5142 10.5C18.6857 10.5 18.0142 11.1716 18.0142 12Z" fill="#001D21" />
<path d="M18.0144 19.5159C18.0144 20.3443 18.6859 21.0159 19.5144 21.0159C20.3428 21.0159 21.0144 20.3443 21.0144 19.5159C21.0144 18.6874 20.3428 18.0159 19.5144 18.0159C18.6859 18.0159 18.0144 18.6874 18.0144 19.5159Z" fill="#001D21" />
</svg>