<svg xmlns="http://www.w3.org/2000/svg" width="24" height="24" viewBox="0 0 24 24" fill="none">
<path fill-rule="evenodd" clip-rule="evenodd" d="M14.4184 3.94564C14.5256 3.54497 14.2882 3.13314 13.8881 3.02578C13.488 2.91842 13.0768 3.15619 12.9695 3.55686L12.7134 4.5143C12.4789 4.48965 12.2409 4.477 12 4.477C11.7589 4.477 11.5208 4.48966 11.2863 4.51434L11.0303 3.55746C10.9231 3.15679 10.5118 2.91902 10.1117 3.02637C9.71164 3.13373 9.4742 3.54557 9.58141 3.94624L9.81984 4.83735C7.16174 5.74526 5.25 8.26735 5.25 11.2366V11.9873H3.75C3.33579 11.9873 3 12.3235 3 12.7383C3 13.1531 3.33579 13.4894 3.75 13.4894H5.25V14.9917H3.75C3.33579 14.9917 3 15.3279 3 15.7427C3 16.1575 3.33579 16.4938 3.75 16.4938H5.25C5.25 18.9826 7.26472 21.0004 9.75 21.0004H14.25C16.7353 21.0004 18.75 18.9828 18.75 16.494L20.25 16.4938C20.6642 16.4938 21 16.1575 21 15.7427C21 15.3279 20.6642 14.9917 20.25 14.9917H18.75V13.4894H20.25C20.6642 13.4894 21 13.1531 21 12.7383C21 12.3235 20.6642 11.9873 20.25 11.9873H18.75V11.2366C18.75 8.26724 16.8381 5.74508 14.1799 4.83725L14.4184 3.94564ZM6.75 15.7427V16.494C6.75 18.1532 8.09315 19.4983 9.75 19.4983H14.25C15.9069 19.4983 17.25 18.1532 17.25 16.494V15.7427V12.7383V11.2366C17.25 10.9817 17.2319 10.731 17.1969 10.4857H12.75V17.2453C12.75 17.6601 12.4142 17.9964 12 17.9964C11.5858 17.9964 11.25 17.6601 11.25 17.2453V10.4857H6.80314C6.76812 10.731 6.75 10.9817 6.75 11.2366V12.7383V15.7427ZM12 8.9836H16.7449C15.9023 7.20726 14.0944 5.97913 12 5.97913C9.90562 5.97913 8.09768 7.20726 7.25513 8.9836H12Z" fill="#001D21" />
</svg>