<svg xmlns="http://www.w3.org/2000/svg" width="24" height="24" viewBox="0 0 24 24" fill="none">
<path fill-rule="evenodd" clip-rule="evenodd" d="M2.78033 1.71967C2.48744 1.42678 2.01256 1.42678 1.71967 1.71967C1.42678 2.01256 1.42678 2.48744 1.71967 2.78033L21.2197 22.2803C21.5126 22.5732 21.9874 22.5732 22.2803 22.2803C22.5732 21.9874 22.5732 21.5126 22.2803 21.2197L2.78033 1.71967ZM20.25 16.5192H19.6819L17.25 14.0838V12.7638V11.2622C17.25 11.0072 17.2319 10.7565 17.1968 10.5112H13.6824L12.1824 9.00903H16.7448C15.9022 7.2328 14.0943 6.00477 12 6.00477C11.1782 6.00477 10.4005 6.19387 9.70786 6.53099L8.59997 5.42152C8.98405 5.19682 9.39229 5.00902 9.81984 4.86298L9.58141 3.97187C9.4742 3.5712 9.71164 3.15937 10.1117 3.05201C10.5118 2.94465 10.9231 3.18242 11.0303 3.58309L11.2863 4.53997C11.5208 4.51529 11.7589 4.50264 12 4.50264C12.2409 4.50264 12.4789 4.51528 12.7134 4.53994L12.9695 3.5825C13.0768 3.18183 13.488 2.94405 13.8881 3.05141C14.2882 3.15877 14.5256 3.57061 14.4184 3.97128L14.1799 4.86288C16.8381 5.77071 18.75 8.29287 18.75 11.2622V12.0127H20.25C20.6642 12.0127 21 12.349 21 12.7638C21 13.1786 20.6642 13.5148 20.25 13.5148H18.75V15.0171H20.25C20.6642 15.0171 21 15.3534 21 15.7682C21 16.183 20.6642 16.5192 20.25 16.5192ZM11.25 14.4483L12.75 15.9504V17.2707C12.75 17.6855 12.4142 18.0218 12 18.0218C11.5858 18.0218 11.25 17.6855 11.25 17.2707V14.4483ZM6.80317 10.5112H7.31843L5.68343 8.87384C5.4033 9.61645 5.25 10.4214 5.25 11.2622V12.0125H3.75C3.33579 12.0125 3 12.3487 3 12.7635C3 13.1783 3.33579 13.5146 3.75 13.5146H5.25V15.0168H3.75C3.33579 15.0168 3 15.3531 3 15.7679C3 16.1827 3.33579 16.519 3.75 16.519H5.25C5.25 19.0078 7.26472 21.026 9.75 21.026H14.25C15.255 21.026 16.1831 20.6961 16.9321 20.1385L15.854 19.0589C15.3901 19.3534 14.8399 19.5239 14.25 19.5239H9.75C8.09315 19.5239 6.75 18.1789 6.75 16.5197V15.7679V12.7635V11.2622C6.75 11.0072 6.76813 10.7565 6.80317 10.5112Z" fill="#001D21" />
</svg>