<svg xmlns="http://www.w3.org/2000/svg" width="24" height="24" viewBox="0 0 24 24" fill="none">
<path fill-rule="evenodd" clip-rule="evenodd" d="M2.97705 5.24805C2.97705 4.83383 3.31284 4.49805 3.72705 4.49805L20.2656 4.49805C20.6798 4.49805 21.0156 4.83383 21.0156 5.24805C21.0156 5.66226 20.6798 5.99805 20.2656 5.99805L3.72705 5.99805C3.31284 5.99805 2.97705 5.66226 2.97705 5.24805Z" fill="#001D21" />
<path fill-rule="evenodd" clip-rule="evenodd" d="M2.97705 11.9861C2.97705 11.5719 3.31284 11.2361 3.72705 11.2361L20.2656 11.2361C20.6798 11.2361 21.0156 11.5719 21.0156 11.9861C21.0156 12.4004 20.6798 12.7361 20.2656 12.7361L3.72705 12.7361C3.31284 12.7361 2.97705 12.4004 2.97705 11.9861Z" fill="#001D21" />
<path fill-rule="evenodd" clip-rule="evenodd" d="M2.97705 18.7246C2.97705 18.3104 3.31284 17.9746 3.72705 17.9746L20.2656 17.9746C20.6798 17.9746 21.0156 18.3104 21.0156 18.7246C21.0156 19.1388 20.6798 19.4746 20.2656 19.4746L3.72705 19.4746C3.31284 19.4746 2.97705 19.1388 2.97705 18.7246Z" fill="#001D21" />
</svg>