<svg xmlns="http://www.w3.org/2000/svg" width="24" height="24" viewBox="0 0 24 24" fill="none">
<path fill-rule="evenodd" clip-rule="evenodd" d="M4.91459 3.07918C7.30376 1.88459 10.4303 1.5 12 1.5C13.7032 1.5 16.6982 1.88555 19.0854 3.07918C19.3395 3.20622 19.5 3.46592 19.5 3.75V6H21C21.4142 6 21.75 6.33579 21.75 6.75V10.875C21.75 11.2133 21.5236 11.5096 21.1973 11.5986L19.5 12.0615V21.75C19.5 22.1642 19.1642 22.5 18.75 22.5H16.5C16.2159 22.5 15.9563 22.3395 15.8292 22.0854L15.2865 21H8.7135L8.1708 22.0854C8.04375 22.3395 7.7841 22.5 7.5 22.5H5.25C4.83579 22.5 4.5 22.1642 4.5 21.75V12.0615L2.80266 11.5986C2.47637 11.5096 2.25 11.2133 2.25 10.875V6.75C2.25 6.33579 2.58579 6 3 6H4.5V3.75C4.5 3.46592 4.6605 3.20622 4.91459 3.07918ZM12 3C10.6613 3 8.05852 3.32008 6 4.22635V4.5H18V4.22568C15.9542 3.31912 13.4577 3 12 3ZM12 16.5002C9.91779 16.5002 7.90504 16.2078 6 15.6623V6H18V15.6623C16.0949 16.2078 14.0822 16.5002 12 16.5002ZM12 18.0002C9.9262 18.0002 7.91482 17.7285 6 17.2184V21H7.03648L7.5792 19.9146C7.70625 19.6605 7.9659 19.5 8.25 19.5H15.75C16.0341 19.5 16.2937 19.6605 16.4208 19.9146L16.9635 21H18V17.2184C16.0852 17.7285 14.0738 18.0002 12 18.0002ZM20.25 10.3022L19.5 10.5067V7.5H20.25V10.3022ZM3.75 10.3022L4.5 10.5067V7.5H3.75V10.3022Z" fill="#001D21" />
</svg>