<svg xmlns="http://www.w3.org/2000/svg" width="24" height="24" viewBox="0 0 24 24" fill="none">
<path fill-rule="evenodd" clip-rule="evenodd" d="M19.5 16.318V12.0615L21.1973 11.5986C21.5236 11.5096 21.75 11.2133 21.75 10.875V6.75C21.75 6.33579 21.4142 6 21 6H19.5V3.75C19.5 3.46592 19.3395 3.20622 19.0854 3.07918C16.6982 1.88555 13.7032 1.5 12 1.5C10.628 1.5 8.06644 1.79384 5.84759 2.6656L7.01855 3.83657C8.85618 3.22617 10.8747 3 12 3C13.4577 3 15.9542 3.31912 18 4.22568V4.5H7.68198L9.18198 6H18V14.818L19.5 16.318ZM19.1815 22.3635L17.818 21H16.9635L16.4208 19.9146C16.2937 19.6605 16.0341 19.5 15.75 19.5H8.25C7.9659 19.5 7.70625 19.6605 7.5792 19.9146L7.03648 21H6V17.2182C7.91482 17.7283 9.9262 18 12 18C12.9016 18 13.7915 17.9486 14.6667 17.8487L13.2809 16.4629C12.8572 16.4875 12.4301 16.5 12 16.5C9.91778 16.5 7.90504 16.2076 6 15.6621V9.18198L4.5 7.68198V10.5067L3.75 10.3022V7.5H4.31802L2.836 6.01798C2.50067 6.09278 2.25 6.39212 2.25 6.75V10.875C2.25 11.2133 2.47637 11.5096 2.80266 11.5986L4.5 12.0615V21.75C4.5 22.1642 4.83579 22.5 5.25 22.5H7.5C7.7841 22.5 8.04375 22.3395 8.1708 22.0854L8.7135 21H15.2865L15.8292 22.0854C15.9563 22.3395 16.2159 22.5 16.5 22.5H18.75C18.9106 22.5 19.0595 22.4495 19.1815 22.3635ZM19.5 10.5067V7.5H20.25V10.3022L19.5 10.5067Z" fill="#001D21" />
<path fill-rule="evenodd" clip-rule="evenodd" d="M1.71967 1.71967C2.01256 1.42678 2.48744 1.42678 2.78033 1.71967L22.2803 21.2197C22.5732 21.5126 22.5732 21.9874 22.2803 22.2803C21.9874 22.5732 21.5126 22.5732 21.2197 22.2803L1.71967 2.78033C1.42678 2.48744 1.42678 2.01256 1.71967 1.71967Z" fill="#001D21" />
</svg>