<svg width="32" height="32" viewBox="0 0 32 32" fill="none" xmlns="http://www.w3.org/2000/svg">
<path fill-rule="evenodd" clip-rule="evenodd" d="M16 4.00001C14.4996 4.00001 11.8082 4.30158 9.3581 5.11543L7.79682 3.55415C10.7553 2.39179 14.1706 2.00001 16 2.00001C18.2709 2.00001 22.2642 2.51411 25.4472 4.1056C25.786 4.27497 26 4.62123 26 5.00001V7.00001H27.7C28.418 7.00001 29 7.58204 29 8.3V12C29 12.5523 28.5523 13 28 13C27.4477 13 27 12.5523 27 12V9.00001H26V21.7574L23.6246 19.382L23.9454 19.1681C23.9634 19.1561 23.9816 19.1448 24 19.1341V9.00001H13.2426L11.2426 7.00001H24V5.63423C21.2722 4.42549 17.9436 4.00001 16 4.00001Z" fill="#0D0F13"/>
<path fill-rule="evenodd" clip-rule="evenodd" d="M22.618 28H23.7574L25.5754 29.818C25.4127 29.9327 25.2142 30 25 30H22C21.6212 30 21.275 29.786 21.1056 29.4472L20.382 28H11.618L10.8944 29.4472C10.725 29.786 10.3788 30 10 30H7.00001C6.4477 30 6.00001 29.5523 6.00001 29V10.2426L8.00001 12.2426V19.134C8.0185 19.1447 8.03681 19.156 8.05482 19.1681L12.051 21.8322C12.2152 21.9417 12.4082 22.0001 12.6057 22.0001H17.7575L19.7378 23.9804C19.6244 23.9935 19.5097 24.0001 19.3946 24.0001H12.6057C12.0134 24.0001 11.4344 23.8248 10.9416 23.4963L8.00001 21.5352V28H9.38197L10.1056 26.5528C10.275 26.214 10.6212 26 11 26H21C21.3788 26 21.725 26.214 21.8944 26.5528L22.618 28Z" fill="#0D0F13"/>
<path fill-rule="evenodd" clip-rule="evenodd" d="M3.00001 8.3C3.00001 8.00288 3.09968 7.72901 3.26747 7.51008L5.00001 9.24262V12C5.00001 12.5523 4.55232 13 4.00001 13C3.4477 13 3.00001 12.5523 3.00001 12V8.3Z" fill="#0D0F13"/>
<path fill-rule="evenodd" clip-rule="evenodd" d="M29.7071 28.2929C30.0976 28.6834 30.0976 29.3166 29.7071 29.7071C29.3166 30.0976 28.6834 30.0976 28.2929 29.7071L2.29292 3.7071C1.90236 3.3166 1.90236 2.68342 2.29292 2.29292C2.68342 1.90236 3.3166 1.90236 3.7071 2.29292L29.7071 28.2929Z" fill="#0D0F13"/>
</svg>
