<svg width="32" height="32" viewBox="0 0 32 32" fill="none" xmlns="http://www.w3.org/2000/svg">
<path d="M24 22V13.1797L8 15.8467V28H15.999C16.0013 27.999 16.0111 27.994 16.0254 27.9805C16.057 27.9503 16.0909 27.8947 16.1035 27.8252C16.7762 24.1241 20.4492 22.3364 23.917 22.0449C23.9494 22.0422 23.9762 22.0281 23.9912 22.0127L24 22ZM22 18C22.5523 18 23 18.4477 23 19C23 19.5523 22.5523 20 22 20H20C19.4477 20 19 19.5523 19 19C19 18.4477 19.4477 18 20 18H22ZM10.7637 4L8.08887 13.8047L24 11.1523V4H10.7637ZM26 22C26 23.124 25.0998 23.9527 24.085 24.0381C20.9606 24.3006 18.5004 25.8221 18.0713 28.1836C17.9066 29.0885 17.1425 30 16 30H8C6.96435 30 6.113 29.2128 6.01074 28.2041L6 28V14.1338L6.00488 14.001C6.01374 13.8681 6.03522 13.7361 6.07031 13.6074L8.83398 3.47363C9.0713 2.60358 9.86184 2.00006 10.7637 2H24C25.1046 2 26 2.89543 26 4V22Z" fill="#0D0F13"/>
</svg>
