<svg xmlns="http://www.w3.org/2000/svg" width="24" height="24" viewBox="0 0 24 24" fill="none">
<path d="M22.5 19.1045V7.5C22.5 5.84314 21.1568 4.5 19.5 4.5H18V2.25C18 1.83579 17.6642 1.5 17.25 1.5C16.8358 1.5 16.5 1.83579 16.5 2.25V4.5H7.89546L9.39546 6H19.5C20.3284 6 21 6.67157 21 7.5V9H12.3955L13.8955 10.5H21V17.6045L22.5 19.1045Z" fill="#001D21" />
<path d="M7.5315 10.5003H3V19.5003C3 20.3288 3.67157 21.0003 4.5 21.0003H18.0315L19.5313 22.5002C19.5209 22.5002 19.5105 22.5003 19.5 22.5003H4.5C2.84314 22.5003 1.5 21.1571 1.5 19.5003V7.5003C1.5 6.66386 1.84232 5.90737 2.3945 5.36328L3.45522 6.424C3.17446 6.69659 3 7.07807 3 7.5003V9.0003H6.03152L7.5315 10.5003Z" fill="#001D21" />
<path d="M6 2.60452L7.5 4.10452V2.25C7.5 1.83579 7.16421 1.5 6.75 1.5C6.33579 1.5 6 1.83579 6 2.25V2.60452Z" fill="#001D21" />
<path fill-rule="evenodd" clip-rule="evenodd" d="M1.71967 1.71967C2.01257 1.42678 2.48743 1.42678 2.78033 1.71967L22.2803 21.2197C22.5732 21.5126 22.5732 21.9874 22.2803 22.2803C21.9874 22.5732 21.5126 22.5732 21.2197 22.2803L1.71967 2.78033C1.42678 2.48743 1.42678 2.01257 1.71967 1.71967Z" fill="#001D21" />
</svg>