<svg xmlns="http://www.w3.org/2000/svg" width="24" height="24" viewBox="0 0 24 24" fill="none">
<path fill-rule="evenodd" clip-rule="evenodd" d="M17.7188 2.23243C17.7188 1.81822 17.383 1.48243 16.9688 1.48242C16.5546 1.48242 16.2188 1.8182 16.2188 2.23241L16.2187 4.47167L7.71082 4.4795L7.71085 2.24163C7.71085 1.82742 7.37507 1.49163 6.96085 1.49163C6.54664 1.49162 6.21085 1.8274 6.21085 2.24162L6.21082 4.48019H4.6876C2.94789 4.48019 1.53759 5.89051 1.5376 7.63021L1.53761 19.3277C1.53761 21.0674 2.94792 22.4777 4.68761 22.4777H19.3432C21.0829 22.4777 22.4932 21.0674 22.4932 19.3277L22.4932 7.62555C22.4932 5.88823 21.0866 4.47892 19.3493 4.47557L17.7187 4.47243L17.7188 2.23243ZM3.0376 7.6302C3.03759 6.71893 3.77632 5.98019 4.6876 5.98019L16.9694 5.97098L19.3464 5.97557C20.2564 5.97732 20.9932 6.71553 20.9932 7.62556L20.9932 9.01172L3.0376 9.01172L3.0376 7.6302ZM3.0376 10.5117L3.03761 19.3277C3.03761 20.239 3.77634 20.9777 4.68761 20.9777H19.3432C20.2545 20.9777 20.9932 20.239 20.9932 19.3277L20.9932 10.5117L3.0376 10.5117Z" fill="#001D21" />
</svg>