<svg xmlns="http://www.w3.org/2000/svg" width="24" height="24" viewBox="0 0 24 24" fill="none">
<path fill-rule="evenodd" clip-rule="evenodd" d="M15.7454 12.5633C15.6513 10.6407 14.1092 9.09858 12.1865 9.00439L15.7454 12.5633ZM8.42681 11.6086C8.31198 11.9685 8.25 12.3519 8.25 12.7498C8.25 14.8209 9.92893 16.4998 12 16.4998C12.3979 16.4998 12.7814 16.4379 13.1412 16.323L11.8101 14.9919C10.7189 14.9008 9.84908 14.0309 9.7579 12.9397L8.42681 11.6086Z" fill="#001D21" />
<path fill-rule="evenodd" clip-rule="evenodd" d="M16.318 19.5L14.818 18H3V8.25H5.06802L3.56802 6.75H3C2.17157 6.75 1.5 7.42157 1.5 8.25V18C1.5 18.8284 2.17157 19.5 3 19.5H16.318ZM8.2367 5.05472C8.51988 4.70573 8.94702 4.5 9.40139 4.5H14.5986C15.1001 4.5 15.5685 4.75065 15.8467 5.16795L16.9014 6.75H21C21.8284 6.75 22.5 7.42157 22.5 8.25V18C22.5 18.3679 22.3676 18.7048 22.1478 18.9658L21 17.818V8.25H16.7007C16.3245 8.25 15.9733 8.06201 15.7646 7.74904L14.5986 6H9.40139L9.31362 6.13164L8.2367 5.05472Z" fill="#001D21" />
<path fill-rule="evenodd" clip-rule="evenodd" d="M1.71967 1.71967C2.01256 1.42678 2.48744 1.42678 2.78033 1.71967L22.2803 21.2197C22.5732 21.5126 22.5732 21.9874 22.2803 22.2803C21.9874 22.5732 21.5126 22.5732 21.2197 22.2803L1.71967 2.78033C1.42678 2.48744 1.42678 2.01256 1.71967 1.71967Z" fill="#001D21" />
</svg>