<svg xmlns="http://www.w3.org/2000/svg" width="24" height="24" viewBox="0 0 24 24" fill="none">
<path fill-rule="evenodd" clip-rule="evenodd" d="M8.15331 5.16795C8.43151 4.75065 8.89986 4.5 9.40139 4.5H14.5986C15.1001 4.5 15.5685 4.75065 15.8467 5.16795L16.9014 6.75H21C21.8284 6.75 22.5 7.42157 22.5 8.25V18C22.5 18.8284 21.8284 19.5 21 19.5H3C2.17157 19.5 1.5 18.8284 1.5 18V8.25C1.5 7.42157 2.17157 6.75 3 6.75H7.09861L8.15331 5.16795ZM14.5986 6H9.40139L8.23536 7.74904C8.02671 8.06201 7.67545 8.25 7.29931 8.25H3V18H21V8.25H16.7007C16.3245 8.25 15.9733 8.06201 15.7646 7.74904L14.5986 6Z" fill="#001D21" />
<path fill-rule="evenodd" clip-rule="evenodd" d="M12 15C13.2426 15 14.25 13.9926 14.25 12.75C14.25 11.5074 13.2426 10.5 12 10.5C10.7574 10.5 9.75 11.5074 9.75 12.75C9.75 13.9926 10.7574 15 12 15ZM12 16.5C14.0711 16.5 15.75 14.8211 15.75 12.75C15.75 10.6789 14.0711 9 12 9C9.92893 9 8.25 10.6789 8.25 12.75C8.25 14.8211 9.92893 16.5 12 16.5Z" fill="#001D21" />
</svg>