<svg width="32" height="32" viewBox="0 0 32 32" fill="none" xmlns="http://www.w3.org/2000/svg">
<path fill-rule="evenodd" clip-rule="evenodd" d="M17.5216 21.764C17.0418 21.9171 16.5306 21.9998 16 21.9998C13.2386 21.9998 11 19.7612 11 16.9998C11 16.4692 11.0826 15.958 11.2357 15.4782L13.0105 17.253C13.1321 18.7079 14.2919 19.8677 15.7468 19.9892L17.5216 21.764Z" fill="#0D0F13"/>
<path fill-rule="evenodd" clip-rule="evenodd" d="M16.2487 12.0059C18.8122 12.1314 20.8683 14.1876 20.9939 16.7511L16.2487 12.0059Z" fill="#0D0F13"/>
<path fill-rule="evenodd" clip-rule="evenodd" d="M4.00001 24H19.7574L21.7574 26H4.00001C2.89546 26 2.00001 25.1046 2.00001 24V11C2.00001 9.89547 2.89546 9.00002 4.00001 9.00002H4.7574L6.7574 11H4.00001V24Z" fill="#0D0F13"/>
<path fill-rule="evenodd" clip-rule="evenodd" d="M28 9.00002C29.1046 9.00002 30 9.89547 30 11V24C30 24.4905 29.8234 24.9398 29.5304 25.2877L28 23.7574V11H22.2676C21.7661 11 21.2977 10.7493 21.0195 10.3321L19.4648 8.00002H12.5352L12.4182 8.17556L10.9823 6.73964C11.3598 6.27431 11.9294 6.00002 12.5352 6.00002H19.4648C20.1335 6.00002 20.758 6.33425 21.1289 6.89064L22.5352 9.00002H28Z" fill="#0D0F13"/>
<path fill-rule="evenodd" clip-rule="evenodd" d="M3.7071 2.29293L29.7071 28.2929C30.0976 28.6834 30.0976 29.3166 29.7071 29.7071C29.3166 30.0976 28.6834 30.0976 28.2929 29.7071L2.29292 3.70711C1.90236 3.31661 1.90236 2.68343 2.29292 2.29293C2.68342 1.90236 3.3166 1.90236 3.7071 2.29293Z" fill="#0D0F13"/>
</svg>
