<svg xmlns="http://www.w3.org/2000/svg" width="24" height="24" viewBox="0 0 24 24" fill="none">
<path fill-rule="evenodd" clip-rule="evenodd" d="M1.5 6C1.5 5.17157 2.17157 4.5 3 4.5H21C21.8284 4.5 22.5 5.17157 22.5 6V18C22.5 18.8284 21.8284 19.5 21 19.5H3C2.17157 19.5 1.5 18.8284 1.5 18V6ZM21 6L3 6V8.25H21V6ZM21 9.75H3V18H21V9.75ZM4.5 15.75C4.5 15.3358 4.83579 15 5.25 15H12C12.4142 15 12.75 15.3358 12.75 15.75C12.75 16.1642 12.4142 16.5 12 16.5H5.25C4.83579 16.5 4.5 16.1642 4.5 15.75Z" fill="#001D21" />
</svg>