<svg xmlns="http://www.w3.org/2000/svg" width="24" height="24" viewBox="0 0 24 24" fill="none">
<path fill-rule="evenodd" clip-rule="evenodd" d="M1.5 3.75C1.5 3.33579 1.83579 3 2.25 3H3.91442C4.60272 3 5.20269 3.46845 5.36963 4.1362L5.83558 6L19.7697 6C20.5016 6 21.0386 6.68781 20.8611 7.39785L19.6196 12.3638C19.4527 13.0316 18.8527 13.5 18.1644 13.5L7.71058 13.5L8.08558 15H18C18.4142 15 18.75 15.3358 18.75 15.75C18.75 16.1642 18.4142 16.5 18 16.5H8.08558C7.39728 16.5 6.79731 16.0316 6.63037 15.3638L6.02648 12.9483C6.02363 12.9378 6.02099 12.9273 6.01858 12.9167L3.91442 4.5H2.25C1.83579 4.5 1.5 4.16421 1.5 3.75ZM7.33558 12L18.1644 12L19.2894 7.5L6.21058 7.5L7.33558 12ZM6 19.5C6 18.6716 6.67157 18 7.5 18C8.32843 18 9 18.6716 9 19.5C9 20.3284 8.32843 21 7.5 21C6.67157 21 6 20.3284 6 19.5ZM16.5 19.5C16.5 18.6716 17.1716 18 18 18C18.8284 18 19.5 18.6716 19.5 19.5C19.5 20.3284 18.8284 21 18 21C17.1716 21 16.5 20.3284 16.5 19.5Z" fill="#001D21" />
</svg>