<svg xmlns="http://www.w3.org/2000/svg" width="24" height="24" viewBox="0 0 24 24" fill="none">
<path d="M12.75 5.25C12.75 4.83579 12.4142 4.5 12 4.5C11.5858 4.5 11.25 4.83579 11.25 5.25V11.25C11.25 12.0785 11.9215 12.75 12.75 12.75H17.25C17.6642 12.75 18 12.4142 18 12C18 11.5858 17.6642 11.25 17.25 11.25H12.75V5.25Z" fill="#001D21" />
<path fill-rule="evenodd" clip-rule="evenodd" d="M12 1.5C6.20101 1.5 1.5 6.20101 1.5 12C1.5 17.799 6.20101 22.5 12 22.5C17.799 22.5 22.5 17.799 22.5 12C22.5 6.20101 17.799 1.5 12 1.5ZM3 12C3 7.02944 7.02944 3 12 3C16.9705 3 21 7.02944 21 12C21 16.9705 16.9705 21 12 21C7.02944 21 3 16.9705 3 12Z" fill="#001D21" />
</svg>