<svg xmlns="http://www.w3.org/2000/svg" width="24" height="24" viewBox="0 0 24 24" fill="none">
<path d="M20.8441 17.6621C21.8922 16.0284 22.5 14.0851 22.5 12C22.5 6.20101 17.799 1.5 12 1.5C9.91484 1.5 7.97159 2.10781 6.33789 3.15592L7.42807 4.24609C8.76794 3.45434 10.3309 3 12 3C16.9705 3 21 7.02944 21 12C21 13.6691 20.5456 15.232 19.7539 16.5719L20.8441 17.6621Z" fill="#001D21" />
<path d="M4.24609 7.42808C3.45434 8.76796 3 10.331 3 12C3 16.9706 7.02944 21 12 21C13.6691 21 15.232 20.5457 16.5719 19.7539L17.6621 20.8441C16.0284 21.8922 14.0851 22.5 12 22.5C6.20101 22.5 1.5 17.799 1.5 12C1.5 9.91486 2.10781 7.97161 3.15592 6.3379L4.24609 7.42808Z" fill="#001D21" />
<path d="M15.932 12.75H17.25C17.6642 12.75 18 12.4142 18 12C18 11.5858 17.6642 11.25 17.25 11.25H14.432L15.932 12.75Z" fill="#001D21" />
<path d="M12.75 9.56805V5.25C12.75 4.83579 12.4142 4.5 12 4.5C11.5858 4.5 11.25 4.83579 11.25 5.25V8.06805L12.75 9.56805Z" fill="#001D21" />
<path fill-rule="evenodd" clip-rule="evenodd" d="M1.71967 1.71967C2.01257 1.42678 2.48743 1.42678 2.78033 1.71967L22.2803 21.2197C22.5732 21.5126 22.5732 21.9874 22.2803 22.2803C21.9874 22.5732 21.5126 22.5732 21.2197 22.2803L1.71967 2.78033C1.42678 2.48743 1.42678 2.01257 1.71967 1.71967Z" fill="#001D21" />
</svg>