<svg xmlns="http://www.w3.org/2000/svg" width="24" height="24" viewBox="0 0 24 24" fill="none">
<path fill-rule="evenodd" clip-rule="evenodd" d="M3 3C3 2.17157 3.67157 1.5 4.5 1.5H19.5C20.3284 1.5 21 2.17157 21 3V21C21 21.8284 20.3284 22.5 19.5 22.5H4.5C3.67157 22.5 3 21.8284 3 21V3ZM19.5 3H4.5V21H19.5V3Z" fill="#001D21" />
<path fill-rule="evenodd" clip-rule="evenodd" d="M12 7.5C11.1715 7.5 10.5 8.17155 10.5 9C10.5 9.82845 11.1715 10.5 12 10.5C12.8285 10.5 13.5 9.82845 13.5 9C13.5 8.17155 12.8285 7.5 12 7.5ZM9 9C9 7.34314 10.3432 6 12 6C13.6568 6 15 7.34314 15 9C15 10.6568 13.6568 12 12 12C10.3432 12 9 10.6568 9 9ZM9.75 15C8.92155 15 8.25 15.6715 8.25 16.5V17.25C8.25 17.6642 7.91423 18 7.5 18C7.08579 18 6.75 17.6642 6.75 17.25V16.5C6.75 14.8432 8.09317 13.5 9.75 13.5H14.25C15.9068 13.5 17.25 14.8432 17.25 16.5V17.25C17.25 17.6642 16.9142 18 16.5 18C16.0858 18 15.75 17.6642 15.75 17.25V16.5C15.75 15.6715 15.0785 15 14.25 15H9.75Z" fill="#001D21" />
</svg>