<svg xmlns="http://www.w3.org/2000/svg" width="24" height="24" viewBox="0 0 24 24" fill="none">
<path d="M21 17.8181V3C21 2.17157 20.3284 1.5 19.5 1.5H4.68197L6.18197 3H19.5V16.3181L21 17.8181Z" fill="#001D21" />
<path d="M4.5 7.68161V20.9997H17.8181L19.3181 22.4997H4.5C3.67157 22.4997 3 21.8281 3 20.9997V6.18164L4.5 7.68161Z" fill="#001D21" />
<path d="M14.2104 11.0284C14.7007 10.4944 15 9.7821 15 9C15 7.34314 13.6568 6 12 6C11.2179 6 10.5056 6.29931 9.97162 6.78963L11.0342 7.8522C11.2951 7.63245 11.6321 7.5 12 7.5C12.8284 7.5 13.5 8.17155 13.5 9C13.5 9.36788 13.3675 9.70485 13.1478 9.96577L14.2104 11.0284Z" fill="#001D21" />
<path d="M10.318 13.5H9.75C8.09317 13.5 6.75 14.8432 6.75 16.5V17.25C6.75 17.6642 7.08579 18 7.5 18C7.91423 18 8.25 17.6642 8.25 17.25V16.5C8.25 15.6715 8.92155 15 9.75 15H11.818L10.318 13.5Z" fill="#001D21" />
<path fill-rule="evenodd" clip-rule="evenodd" d="M1.71967 1.71967C2.01257 1.42678 2.48743 1.42678 2.78033 1.71967L22.2803 21.2197C22.5732 21.5126 22.5732 21.9874 22.2803 22.2803C21.9874 22.5732 21.5126 22.5732 21.2197 22.2803L1.71967 2.78033C1.42678 2.48743 1.42678 2.01257 1.71967 1.71967Z" fill="#001D21" />
</svg>