<svg xmlns="http://www.w3.org/2000/svg" width="24" height="24" viewBox="0 0 24 24" fill="none">
<path d="M8.24707 16.5018C8.66128 16.5018 8.99707 16.166 8.99707 15.7518C8.99707 15.3376 8.66128 15.0018 8.24707 15.0018C7.83286 15.0018 7.49707 15.3376 7.49707 15.7518C7.49707 16.166 7.83286 16.5018 8.24707 16.5018Z" fill="#001D21" />
<path fill-rule="evenodd" clip-rule="evenodd" d="M20.5897 17.4076C20.632 17.2495 20.666 17.088 20.6913 16.9234L20.7705 16.4068C20.8438 15.9287 21.0316 15.4754 21.3178 15.0855L21.627 14.6643C22.791 13.0788 22.791 10.9212 21.627 9.3357L21.2088 8.766C20.8414 8.26552 20.1227 8.19052 19.6599 8.6043L19.028 9.14835C18.5039 9.48922 17.921 9.74918 17.252 9.74918C16.4255 9.74918 15.6782 9.41603 15.1346 8.8749C14.5877 8.33055 14.2506 7.5792 14.2506 6.7477C14.2506 6.19976 14.3967 5.68823 14.6517 5.24752C14.7468 5.08306 14.8288 4.96646 14.91 4.85107C14.9304 4.82202 14.9508 4.79306 14.9713 4.76342L15.0241 4.69013L15.1142 4.5614L15.3737 4.20317C15.7164 3.73024 15.6129 3.0694 15.1422 2.7238L14.6643 2.37298C13.0788 1.20901 10.9212 1.20901 9.3357 2.37298L8.9145 2.68221C8.52457 2.96846 8.07128 3.15623 7.59315 3.22953L7.07661 3.30872C6.91201 3.33396 6.75042 3.368 6.59231 3.41033L7.8846 4.70263C8.5782 4.58604 9.23513 4.30851 9.80258 3.89194L10.2238 3.58271C11.2808 2.80673 12.7192 2.80673 13.7762 3.58271L13.9028 3.67562L13.7543 3.88052C13.5904 4.08739 13.4619 4.30715 13.3526 4.49608C12.9691 5.15905 12.7498 5.92891 12.7498 6.7477C12.7498 7.99447 13.2576 9.12405 14.0758 9.93847C14.8891 10.7482 16.0127 11.2498 17.252 11.2498C18.4268 11.2498 19.4977 10.799 20.2987 10.0624L20.4173 10.2238C21.1933 11.2808 21.1933 12.7192 20.4173 13.7762L20.108 14.1974C19.6915 14.7649 19.414 15.4218 19.2973 16.1154L20.5897 17.4076ZM4.70263 7.8846C4.58604 8.5782 4.30851 9.23513 3.89194 9.80258L3.58271 10.2238C2.80673 11.2808 2.80673 12.7192 3.58271 13.7762L3.89194 14.1974C4.32131 14.7823 4.60297 15.4623 4.71292 16.1794L4.79211 16.696C4.99083 17.9921 6.00792 19.0092 7.30404 19.2079L7.82055 19.2871C8.5377 19.397 9.21773 19.6786 9.80258 20.108L10.2238 20.4173C11.2808 21.1933 12.7192 21.1933 13.7762 20.4173L14.1974 20.108C14.7649 19.6915 15.4218 19.414 16.1154 19.2973L17.4076 20.5897C17.2495 20.632 17.088 20.666 16.9234 20.6913L16.4068 20.7705C15.9287 20.8438 15.4754 21.0316 15.0855 21.3178L14.6643 21.627C13.0788 22.791 10.9212 22.791 9.3357 21.627L8.9145 21.3178C8.52457 21.0316 8.07128 20.8438 7.59315 20.7705L7.07662 20.6913C5.13244 20.3932 3.6068 18.8675 3.30872 16.9234L3.22953 16.4068C3.15623 15.9287 2.96846 15.4754 2.68222 15.0855L2.37298 14.6643C1.20901 13.0788 1.20901 10.9212 2.37298 9.3357L2.68221 8.9145C2.96846 8.52457 3.15623 8.07128 3.22953 7.59315L3.30872 7.07661C3.33396 6.91201 3.368 6.75042 3.41033 6.59231L4.70263 7.8846Z" fill="#001D21" />
<path fill-rule="evenodd" clip-rule="evenodd" d="M1.71967 1.71967C2.01257 1.42678 2.48743 1.42678 2.78033 1.71967L22.2803 21.2197C22.5732 21.5126 22.5732 21.9874 22.2803 22.2803C21.9874 22.5732 21.5126 22.5732 21.2197 22.2803L1.71967 2.78033C1.42678 2.48743 1.42678 2.01257 1.71967 1.71967Z" fill="#001D21" />
</svg>