<svg xmlns="http://www.w3.org/2000/svg" width="24" height="24" viewBox="0 0 24 24" fill="none">
<path fill-rule="evenodd" clip-rule="evenodd" d="M13.7762 3.58271C12.7192 2.80673 11.2808 2.80673 10.2238 3.58271L9.80258 3.89194C9.21773 4.32131 8.5377 4.60297 7.82055 4.71292L7.30404 4.79211C6.00792 4.99083 4.99083 6.00792 4.79211 7.30404L4.71292 7.82055C4.60297 8.5377 4.32131 9.21773 3.89194 9.80258L3.58271 10.2238C2.80673 11.2808 2.80673 12.7192 3.58271 13.7762L3.89194 14.1974C4.32131 14.7823 4.60297 15.4623 4.71292 16.1794L4.79211 16.696C4.99083 17.9921 6.00792 19.0092 7.30404 19.2079L7.82055 19.2871C8.5377 19.397 9.21773 19.6786 9.80258 20.108L10.2238 20.4173C11.2808 21.1933 12.7192 21.1933 13.7762 20.4173L14.1974 20.108C14.7823 19.6786 15.4623 19.397 16.1794 19.2871L16.696 19.2079C17.9921 19.0092 19.0092 17.9921 19.2079 16.696L19.2871 16.1794C19.397 15.4623 19.6786 14.7823 20.108 14.1974L20.4173 13.7762C21.1933 12.7192 21.1933 11.2808 20.4173 10.2238L20.2987 10.0624C19.4977 10.799 18.4268 11.2498 17.252 11.2498C16.0127 11.2498 14.8891 10.7482 14.0758 9.93847C13.2576 9.12405 12.7498 7.99447 12.7498 6.7477C12.7498 5.92891 12.9691 5.15905 13.3526 4.49608C13.4619 4.30715 13.5904 4.08739 13.7543 3.88052L13.9028 3.67562L13.7762 3.58271ZM15.1142 4.5614L15.3737 4.20317C15.7164 3.73024 15.6129 3.0694 15.1422 2.7238L14.6643 2.37298C13.0788 1.20901 10.9212 1.20901 9.3357 2.37298L8.9145 2.68221C8.52457 2.96846 8.07128 3.15623 7.59315 3.22953L7.07661 3.30872C5.13244 3.6068 3.6068 5.13244 3.30872 7.07661L3.22953 7.59315C3.15623 8.07128 2.96846 8.52457 2.68221 8.9145L2.37298 9.3357C1.20901 10.9212 1.20901 13.0788 2.37298 14.6643L2.68222 15.0855C2.96846 15.4754 3.15623 15.9287 3.22953 16.4068L3.30872 16.9234C3.6068 18.8675 5.13244 20.3932 7.07662 20.6913L7.59315 20.7705C8.07128 20.8438 8.52457 21.0316 8.9145 21.3178L9.3357 21.627C10.9212 22.791 13.0788 22.791 14.6643 21.627L15.0855 21.3178C15.4754 21.0316 15.9287 20.8438 16.4068 20.7705L16.9234 20.6913C18.8675 20.3932 20.3932 18.8675 20.6913 16.9234L20.7705 16.4068C20.8438 15.9287 21.0316 15.4754 21.3178 15.0855L21.627 14.6643C22.791 13.0788 22.791 10.9212 21.627 9.3357L21.2088 8.766C20.8414 8.26552 20.1227 8.19052 19.6599 8.6043L19.028 9.14835C18.5039 9.48922 17.921 9.74918 17.252 9.74918C16.4255 9.74918 15.6782 9.41603 15.1346 8.8749C14.5877 8.33055 14.2506 7.5792 14.2506 6.7477C14.2506 6.19976 14.3967 5.68823 14.6517 5.24752C14.7707 5.04166 14.8693 4.9108 14.9713 4.76342L15.0241 4.69013L15.1142 4.5614Z" fill="#001D21" />
<path d="M8.24707 8.99817C8.66128 8.99817 8.99707 8.66238 8.99707 8.24817C8.99707 7.83396 8.66128 7.49817 8.24707 7.49817C7.83286 7.49817 7.49707 7.83396 7.49707 8.24817C7.49707 8.66238 7.83286 8.99817 8.24707 8.99817Z" fill="#001D21" />
<path d="M11.9985 12.75C12.4127 12.75 12.7485 12.4142 12.7485 12C12.7485 11.5858 12.4127 11.25 11.9985 11.25C11.5843 11.25 11.2485 11.5858 11.2485 12C11.2485 12.4142 11.5843 12.75 11.9985 12.75Z" fill="#001D21" />
<path d="M15.7507 16.5018C16.1649 16.5018 16.5007 16.166 16.5007 15.7518C16.5007 15.3376 16.1649 15.0018 15.7507 15.0018C15.3365 15.0018 15.0007 15.3376 15.0007 15.7518C15.0007 16.166 15.3365 16.5018 15.7507 16.5018Z" fill="#001D21" />
<path d="M8.24707 16.5018C8.66128 16.5018 8.99707 16.166 8.99707 15.7518C8.99707 15.3376 8.66128 15.0018 8.24707 15.0018C7.83286 15.0018 7.49707 15.3376 7.49707 15.7518C7.49707 16.166 7.83286 16.5018 8.24707 16.5018Z" fill="#001D21" />
</svg>