<svg xmlns="http://www.w3.org/2000/svg" width="24" height="24" viewBox="0 0 24 24" fill="none">
<path d="M17.8379 21.9373L16.3445 20.4461L4.55518 20.4979V18.5492L5.11041 17.9288C5.62599 17.3528 6.5289 17.3529 7.04426 17.9292L7.23969 18.1478C8.32572 19.3622 10.2531 19.2496 11.2127 17.9538C11.6349 17.3838 12.4874 17.3905 12.8934 17.9484C13.3831 18.6211 14.1303 18.9739 14.8875 18.9914L11.9256 16.0341C11.1984 16.0727 10.4846 16.418 10.0066 17.0634C9.6028 17.6087 8.79994 17.6438 8.35857 17.1502L8.16313 16.9317C7.22165 15.8789 5.68049 15.7175 4.55518 16.4477V8.67484L3.43653 7.5579C3.19931 7.82287 3.05518 8.17258 3.05518 8.55571V20.4979C3.05518 21.3276 3.73078 21.9992 4.56177 21.9956L17.8379 21.9373Z" fill="#001D21" />
<path d="M9.26722 7.02544L13.5522 6.99586V5.49332H12.8052C12.391 5.49332 12.0552 5.15804 12.0552 4.74446C12.0552 4.33088 12.391 3.99561 12.8052 3.99561H18.8052C19.2194 3.99561 19.5552 4.33088 19.5552 4.74446C19.5552 5.15804 19.2194 5.49332 18.8052 5.49332H18.0537V6.99073H19.5552C20.3836 6.99073 21.0552 7.66128 21.0552 8.48844V18.7954L18.2636 16.0081C18.7156 16.0452 19.1601 16.1896 19.5552 16.441V8.48844H18.0537C17.2252 8.48844 16.5537 7.81789 16.5537 6.99073V5.49332H15.0522V6.99586C15.0522 7.81898 14.387 8.48785 13.5626 8.49354L10.757 8.5129L9.26722 7.02544Z" fill="#001D21" />
<path fill-rule="evenodd" clip-rule="evenodd" d="M1.77485 2.71967C2.06774 2.42678 2.54261 2.42678 2.83551 2.71967L22.3355 22.2197C22.6284 22.5126 22.6284 22.9874 22.3355 23.2803C22.0426 23.5732 21.5677 23.5732 21.2748 23.2803L1.77485 3.78033C1.48195 3.48744 1.48195 3.01256 1.77485 2.71967Z" fill="#001D21" />
</svg>