<svg xmlns="http://www.w3.org/2000/svg" width="24" height="24" viewBox="0 0 24 24" fill="none">
<path fill-rule="evenodd" clip-rule="evenodd" d="M12.0005 3.74886C12.0005 3.33527 12.3363 3 12.7505 3H18.7505C19.1647 3 19.5005 3.33528 19.5005 3.74886C19.5005 4.16244 19.1647 4.49771 18.7505 4.49771H17.999V5.99512H19.5005C20.3289 5.99512 21.0005 6.66567 21.0005 7.49283V17.2353C21.0005 17.2383 21.0005 17.2412 21.0005 17.2442V19.4365C21.0005 20.2611 20.3329 20.9305 19.5071 20.9342L4.50708 21C3.67609 21.0037 3.00049 20.3321 3.00049 19.5023V7.5601C3.00049 6.73698 3.66576 6.06811 4.49012 6.06242L13.4975 6.00025V4.49771H12.7505C12.3363 4.49771 12.0005 4.16244 12.0005 3.74886ZM14.9975 4.49771V6.00025C14.9975 6.82338 14.3323 7.49224 13.5079 7.49793L4.50048 7.5601V15.4522C5.6258 14.7219 7.16695 14.8833 8.10844 15.9361L8.30387 16.1547C8.74525 16.6482 9.54811 16.6132 9.95191 16.0678C10.9652 14.6995 13.0389 14.6801 14.0522 16.0723C14.4347 16.598 15.2022 16.6456 15.647 16.1712L15.8999 15.9014C16.857 14.8804 18.3781 14.7313 19.5005 15.4455V7.49283H17.999C17.1705 7.49283 16.499 6.82229 16.499 5.99512V4.49771H14.9975ZM19.5005 17.5281L18.9705 16.9423C18.444 16.3604 17.5317 16.3524 16.995 16.9249L16.7421 17.1947C15.6535 18.3558 13.7751 18.2394 12.8387 16.9528C12.4327 16.3949 11.5802 16.3882 11.158 16.9583C10.1984 18.2541 8.27103 18.3666 7.185 17.1522L6.98956 16.9337C6.47421 16.3574 5.5713 16.3572 5.05572 16.9333L4.50048 17.5537V19.5023L19.5005 19.4365V17.5281Z" fill="#001D21" />
</svg>