<svg xmlns="http://www.w3.org/2000/svg" width="24" height="24" viewBox="0 0 24 24" fill="none">
<path fill-rule="evenodd" clip-rule="evenodd" d="M12.3897 1.49609C14.1294 1.49609 15.5397 2.9064 15.5397 4.64609V6.54492H19.3471C21.0868 6.54492 22.4971 7.95522 22.4971 9.69492V19.3575C22.4971 21.0971 21.0868 22.5075 19.3471 22.5075H10.865C9.12534 22.5075 7.71504 21.0971 7.71504 19.3575V17.4568H4.65244C2.91274 17.4568 1.50244 16.0465 1.50244 14.3068V4.64609C1.50244 2.90639 2.91274 1.49609 4.65244 1.49609H12.3897ZM14.0397 4.64609C14.0397 3.73482 13.3009 2.99609 12.3897 2.99609H4.65244C3.74117 2.99609 3.00244 3.73482 3.00244 4.64609V14.3068C3.00244 15.2181 3.74117 15.9568 4.65244 15.9568H12.3897C13.3009 15.9568 14.0397 15.2181 14.0397 14.3068V4.64609ZM9.21504 17.4568V19.3575C9.21504 20.2687 9.95377 21.0075 10.865 21.0075H19.3471C20.2583 21.0075 20.9971 20.2687 20.9971 19.3575V9.69492C20.9971 8.78365 20.2583 8.04492 19.3471 8.04492H15.5397V14.3068C15.5397 16.0465 14.1294 17.4568 12.3897 17.4568H9.21504Z" fill="#001D21" />
</svg>