<svg xmlns="http://www.w3.org/2000/svg" width="24" height="24" viewBox="0 0 24 24" fill="none">
<path fill-rule="evenodd" clip-rule="evenodd" d="M3.5 3.9375C3.5 3.41973 3.91973 3 4.4375 3H17.5625C18.0803 3 18.5 3.41973 18.5 3.9375V7.5H20C20.8284 7.5 21.5 8.17157 21.5 9V13.5C21.5 14.3284 20.8284 15 20 15H18.5V15.75C18.5 18.6495 16.1495 21 13.25 21H8.75C5.8505 21 3.5 18.6495 3.5 15.75V3.9375ZM5 4.5V15.75C5 17.8211 6.67893 19.5 8.75 19.5H13.25C15.3211 19.5 17 17.8211 17 15.75V4.5H5ZM18.5 9V13.5H20V9H18.5Z" fill="#001D21" />
</svg>