<svg xmlns="http://www.w3.org/2000/svg" width="24" height="24" viewBox="0 0 24 24" fill="none">
<path fill-rule="evenodd" clip-rule="evenodd" d="M19.4725 16.2905C19.4907 16.1128 19.5 15.9325 19.5 15.75V15H21C21.8284 15 22.5 14.3284 22.5 13.5V9C22.5 8.17157 21.8284 7.5 21 7.5H19.5V3.9375C19.5 3.41973 19.0803 3 18.5625 3H6.18201L7.68201 4.5H18V14.818L19.4725 16.2905ZM19.5 13.5V9H21V13.5H19.5Z" fill="#001D21" />
<path d="M6 9.18213V15.7501C6 17.8212 7.67893 19.5001 9.75 19.5001H14.25C14.8518 19.5001 15.4204 19.3584 15.9244 19.1065L17.0253 20.2074C16.2201 20.7099 15.269 21.0001 14.25 21.0001H9.75C6.85051 21.0001 4.5 18.6496 4.5 15.7501V7.68213L6 9.18213Z" fill="#001D21" />
<path fill-rule="evenodd" clip-rule="evenodd" d="M1.71967 1.71967C2.01256 1.42678 2.48744 1.42678 2.78033 1.71967L22.2803 21.2197C22.5732 21.5126 22.5732 21.9874 22.2803 22.2803C21.9874 22.5732 21.5126 22.5732 21.2197 22.2803L1.71967 2.78033C1.42678 2.48744 1.42678 2.01256 1.71967 1.71967Z" fill="#001D21" />
</svg>