<svg xmlns="http://www.w3.org/2000/svg" width="24" height="24" viewBox="0 0 24 24" fill="none">
<path fill-rule="evenodd" clip-rule="evenodd" d="M3 4.5C3 3.67157 3.67157 3 4.5 3H9.75C10.5784 3 11.25 3.67157 11.25 4.5V12.75C11.25 13.5784 10.5784 14.25 9.75 14.25H4.5C3.67157 14.25 3 13.5784 3 12.75V4.5ZM9.75 4.5H4.5V12.75H9.75V4.5ZM12.75 4.5C12.75 3.67157 13.4216 3 14.25 3H19.5C20.3284 3 21 3.67157 21 4.5V9C21 9.82843 20.3284 10.5 19.5 10.5H14.25C13.4216 10.5 12.75 9.82843 12.75 9V4.5ZM19.5 4.5H14.25V9H19.5V4.5ZM12.75 13.5C12.75 12.6716 13.4216 12 14.25 12H19.5C20.3284 12 21 12.6716 21 13.5V19.5C21 20.3284 20.3284 21 19.5 21H14.25C13.4216 21 12.75 20.3284 12.75 19.5V13.5ZM19.5 13.5H14.25V19.5H19.5V13.5ZM3 17.25C3 16.4216 3.67157 15.75 4.5 15.75H9.75C10.5784 15.75 11.25 16.4216 11.25 17.25V19.5C11.25 20.3284 10.5784 21 9.75 21H4.5C3.67157 21 3 20.3284 3 19.5V17.25ZM9.75 17.25H4.5V19.5H9.75V17.25Z" fill="#001D21" />
</svg>