<svg xmlns="http://www.w3.org/2000/svg" width="24" height="24" viewBox="0 0 24 24" fill="none">
<path fill-rule="evenodd" clip-rule="evenodd" d="M16.5 6V4.5C16.5 3.67157 15.8284 3 15 3H9C8.17158 3 7.5 3.67157 7.5 4.5V6H3.75C2.50736 6 1.5 7.00736 1.5 8.25V18.75C1.5 19.9926 2.50736 21 3.75 21H20.25C21.4926 21 22.5 19.9926 22.5 18.75V8.25C22.5 7.00736 21.4926 6 20.25 6H16.5ZM15 6V4.5H9V6H15ZM3 8.25C3 7.83579 3.33579 7.5 3.75 7.5H20.25C20.6642 7.5 21 7.83579 21 8.25V11.25H3V8.25ZM3 12.75V18.75C3 19.1642 3.33579 19.5 3.75 19.5H20.25C20.6642 19.5 21 19.1642 21 18.75V12.75H15V14.25C15 15.0784 14.3284 15.75 13.5 15.75H10.5C9.67153 15.75 9 15.0784 9 14.25V12.75H3ZM10.5 12.75H13.5V14.25H10.5V12.75Z" fill="#001D21" />
</svg>