<svg xmlns="http://www.w3.org/2000/svg" width="24" height="24" viewBox="0 0 24 24" fill="none">
<path fill-rule="evenodd" clip-rule="evenodd" d="M8.70377 1.74608C9.18133 1.18415 10.09 1.65658 9.90401 2.37005L8.52399 7.66509H12.484C13.1072 7.66509 13.4448 8.39439 13.0415 8.86933L6.01398 17.1457C5.53651 17.708 4.62735 17.2355 4.81359 16.5217L6.19685 11.2206H2.23278C1.60944 11.2206 1.27181 10.491 1.6754 10.0162L8.70377 1.74608ZM7.95102 4.65862L3.48948 9.90838H6.8522C7.38021 9.90838 7.76574 10.4072 7.63247 10.9179L6.7684 14.2294L11.228 8.97735H7.86884C7.34093 8.97735 6.95541 8.47869 7.0885 7.96801L7.95102 4.65862ZM14.3861 10.8709C14.8004 10.8709 15.1362 11.2066 15.1362 11.6208V14.6202H17.3866C17.8009 14.6202 18.1367 14.9559 18.1367 15.3701C18.1367 15.7842 17.8009 16.1199 17.3866 16.1199H14.9487C14.2237 16.1199 13.636 15.5324 13.636 14.8077V11.6208C13.636 11.2066 13.9718 10.8709 14.3861 10.8709ZM10.7332 19.5982C10.0245 19.0245 9.45109 18.3058 9.0496 17.4936C9.03756 17.4692 9.02567 17.4448 9.01394 17.4202C8.83523 17.0466 8.38737 16.8886 8.01362 17.0672C7.63987 17.2459 7.48175 17.6936 7.66047 18.0672C7.67499 18.0976 7.6897 18.1278 7.70461 18.158C8.20169 19.1635 8.91162 20.0534 9.7891 20.7637C10.901 21.6639 12.2392 22.2409 13.6572 22.4319C15.0751 22.6228 16.5183 22.4203 17.8289 21.8464C19.1394 21.2725 20.2669 20.3493 21.0879 19.1779C21.9089 18.0065 22.3918 16.632 22.4838 15.2047C22.5759 13.7773 22.2735 12.3522 21.6097 11.0851C20.946 9.81805 19.9464 8.75785 18.7204 8.02051C17.7933 7.46291 16.7637 7.10618 15.698 6.96858C15.6644 6.96424 15.6308 6.96012 15.5971 6.95622C15.5693 6.953 15.5416 6.94993 15.5138 6.94701C15.4855 6.94405 15.4573 6.94124 15.429 6.93858C15.0165 6.89981 14.6507 7.20262 14.6119 7.61494C14.5732 8.02726 14.8761 8.39295 15.2885 8.43172C15.3114 8.43387 15.3342 8.43614 15.357 8.43853C15.3795 8.44089 15.4019 8.44337 15.4243 8.44596C15.4515 8.44912 15.4787 8.45245 15.5058 8.45595C16.3666 8.56709 17.1982 8.85523 17.947 9.30559C18.9372 9.90114 19.7446 10.7575 20.2807 11.7809C20.8168 12.8043 21.061 13.9554 20.9867 15.1082C20.9124 16.261 20.5223 17.3713 19.8592 18.3174C19.1961 19.2635 18.2855 20.0091 17.2269 20.4727C16.1684 20.9362 15.0027 21.0998 13.8574 20.9456C12.7121 20.7914 11.6313 20.3252 10.7332 19.5982Z" fill="#001D21" />
</svg>