<svg width="32" height="32" viewBox="0 0 32 32" fill="none" xmlns="http://www.w3.org/2000/svg">
<path d="M17.3911 11.8278L16.7863 12.54L14.4678 10.2224H16.6478C17.4786 10.2224 17.9287 11.1946 17.3911 11.8278Z" fill="#0D0F13"/>
<path d="M10.6048 6.21443L10.5376 6.29353L9.29609 5.05244L11.6084 2.33161C12.245 1.58253 13.4563 2.21235 13.2084 3.16346L12.0092 7.76466L10.5746 6.33046L10.6048 6.21443Z" fill="#0D0F13"/>
<path d="M20.3866 11.244C19.8368 11.1923 19.4329 10.7049 19.4847 10.1552C19.5364 9.60554 20.024 9.20185 20.5739 9.25349C20.6116 9.25703 20.6492 9.26081 20.6869 9.26478C20.724 9.26863 20.761 9.27271 20.798 9.27705C20.8428 9.28224 20.8877 9.28773 20.9325 9.29353C22.3531 9.47694 23.7257 9.95253 24.9617 10.6958C26.5961 11.6788 27.9286 13.0922 28.8135 14.7813C29.6984 16.4705 30.1015 18.3704 29.9788 20.2732C29.8828 21.7627 29.4674 23.209 28.7665 24.5161L27.2728 23.0229C27.6767 22.117 27.9186 21.1428 27.983 20.1446C28.0821 18.6077 27.7564 17.0732 27.0417 15.7088C26.327 14.3445 25.2508 13.2029 23.9307 12.409C22.9324 11.8086 21.8238 11.4245 20.6763 11.2763C20.6401 11.2717 20.6039 11.2672 20.5676 11.263C20.5377 11.2596 20.5078 11.2563 20.4781 11.2531C20.4476 11.2499 20.4171 11.2469 20.3866 11.244Z" fill="#0D0F13"/>
<path d="M11.649 15.8869L12.8906 17.128L8.02254 22.8611C7.38607 23.6107 6.17403 22.9808 6.42232 22.0293L8.26638 14.9623H2.98176C2.15077 14.9623 1.70069 13.9897 2.23872 13.3566L5.39857 9.63855L6.64009 10.8796L4.65711 13.2129H8.97413L10.204 14.4423C10.1982 14.481 10.1903 14.5199 10.1802 14.5588L9.02827 18.9733L11.649 15.8869Z" fill="#0D0F13"/>
<path d="M22.9707 27.296L23.034 27.268L24.527 28.7604C24.2813 28.8925 24.0299 29.015 23.7732 29.1274C22.0261 29.8924 20.1021 30.1625 18.2118 29.9079C16.3215 29.6534 14.5376 28.884 13.0552 27.6841C11.8854 26.7371 10.939 25.5508 10.2764 24.2103C10.2565 24.1701 10.2369 24.1297 10.2175 24.0893C9.97925 23.5912 10.19 22.9943 10.6883 22.7562C11.1866 22.518 11.7836 22.7287 12.0219 23.2268C12.0375 23.2595 12.0533 23.2921 12.0694 23.3245C12.6046 24.4073 13.369 25.3655 14.3139 26.1303C15.5111 27.0995 16.952 27.7209 18.4788 27.9265C20.0056 28.1321 21.5596 27.914 22.9707 27.296Z" fill="#0D0F13"/>
<path d="M29.7071 28.2929C30.0976 28.6834 30.0976 29.3166 29.7071 29.7071C29.3166 30.0976 28.6834 30.0976 28.2929 29.7071L2.29292 3.7071C1.90236 3.3166 1.90236 2.68342 2.29292 2.29292C2.68342 1.90236 3.3166 1.90236 3.7071 2.29292L29.7071 28.2929Z" fill="#0D0F13"/>
</svg>
