<svg xmlns="http://www.w3.org/2000/svg" width="24" height="24" viewBox="0 0 24 24" fill="none">
<path fill-rule="evenodd" clip-rule="evenodd" d="M22.4419 19.26C22.4799 19.0961 22.5 18.9254 22.5 18.75V8.25C22.5 7.00736 21.4926 6 20.25 6H16.5V4.5C16.5 3.67157 15.8284 3 15 3H9C8.22981 3 7.5952 3.58047 7.50978 4.3278L9 5.81802V4.5H15V6H9.18203L10.682 7.5H20.25C20.6642 7.5 21 7.83579 21 8.25V11.25H14.432L15.932 12.75H21V17.818L22.4419 19.26ZM12.568 15.75L11.068 14.25H10.5V13.682L8.06802 11.25H3V8.25C3 7.83579 3.33579 7.5 3.75 7.5H4.31802L2.96045 6.14243C2.10728 6.4622 1.5 7.28518 1.5 8.25V18.75C1.5 19.9926 2.50736 21 3.75 21H17.818L16.318 19.5H3.75C3.33579 19.5 3 19.1642 3 18.75V12.75H9V14.25C9 15.0784 9.67153 15.75 10.5 15.75H12.568Z" fill="#001D21" />
<path fill-rule="evenodd" clip-rule="evenodd" d="M1.71967 1.71967C2.01256 1.42678 2.48744 1.42678 2.78033 1.71967L22.2803 21.2197C22.5732 21.5126 22.5732 21.9874 22.2803 22.2803C21.9874 22.5732 21.5125 22.5732 21.2196 22.2803L1.71967 2.78033C1.42678 2.48744 1.42678 2.01256 1.71967 1.71967Z" fill="#001D21" />
</svg>