<svg xmlns="http://www.w3.org/2000/svg" width="24" height="24" viewBox="0 0 24 24" fill="none">
<path fill-rule="evenodd" clip-rule="evenodd" d="M3.28031 1.71967C2.98742 1.42678 2.51256 1.42678 2.21967 1.71967C1.92678 2.01256 1.92678 2.48742 2.21967 2.78031L21.7194 22.2801C22.0123 22.573 22.4872 22.573 22.7801 22.2801C23.073 21.9872 23.073 21.5123 22.7801 21.2194L3.28031 1.71967ZM22.9834 15.2045C22.9113 16.3216 22.5998 17.4063 22.0742 18.3866L20.9539 17.2667C21.2568 16.5873 21.4382 15.8567 21.4865 15.108C21.5608 13.9554 21.3166 12.8045 20.7806 11.7813C20.2446 10.758 19.4374 9.90187 18.4473 9.30642C17.6986 8.85614 16.8671 8.56806 16.0066 8.45694C15.9794 8.45343 15.9523 8.4501 15.925 8.44695C15.9026 8.44435 15.8802 8.44187 15.8578 8.43952C15.835 8.43713 15.8122 8.43485 15.7893 8.43271C15.3769 8.39394 15.0741 8.02832 15.1128 7.61607C15.1516 7.20383 15.5174 6.90106 15.9297 6.93983C15.958 6.94248 15.9863 6.94529 16.0145 6.94826C16.0423 6.95118 16.0701 6.95425 16.0978 6.95746C16.1315 6.96136 16.1651 6.96548 16.1987 6.96982C17.2642 7.1074 18.2936 7.46407 19.2206 8.02156C20.4464 8.75878 21.4457 9.81879 22.1094 11.0856C22.773 12.3525 23.0754 13.7774 22.9834 15.2045ZM18.8945 21.5698L17.7749 20.4505L17.7274 20.4716C16.669 20.935 15.5036 21.0986 14.3585 20.9444C13.2134 20.7902 12.1327 20.3242 11.2348 19.5973C10.5262 19.0237 9.95288 18.305 9.55146 17.493C9.53942 17.4686 9.52754 17.4442 9.51581 17.4197C9.33713 17.0461 8.88934 16.8881 8.51566 17.0667C8.14197 17.2453 7.98389 17.6929 8.16257 18.0665C8.17709 18.0969 8.1918 18.1271 8.20671 18.1573C8.7037 19.1627 9.4135 20.0524 10.2908 20.7626C11.4026 21.6625 12.7405 22.2395 14.1582 22.4304C15.5759 22.6213 17.0189 22.4188 18.3292 21.845C18.5217 21.7607 18.7103 21.6689 18.8945 21.5698ZM11.3501 7.66621L13.089 9.40456L13.5427 8.87025C13.9459 8.39538 13.6083 7.66621 12.9852 7.66621H11.3501ZM10.4057 2.37209L9.5063 5.82309L8.43033 4.74749L8.45307 4.66027L8.40254 4.71972L7.47141 3.7889L9.20569 1.74823C9.68317 1.1864 10.5916 1.65875 10.4057 2.37209ZM10.1672 12.8455L9.23608 11.9147L7.27065 14.2293L8.13458 10.9185C8.14218 10.8894 8.14809 10.8603 8.15238 10.8313L7.22984 9.90911H3.99231L5.47941 8.15928L4.54828 7.22847L2.17854 10.0169C1.77502 10.4917 2.11259 11.2211 2.73582 11.2211H6.6992L5.31619 16.5213C5.12998 17.2349 6.03898 17.7073 6.51636 17.1451L10.1672 12.8455Z" fill="#001D21" />
</svg>