<svg xmlns="http://www.w3.org/2000/svg" width="24" height="24" viewBox="0 0 24 24" fill="none">
<path fill-rule="evenodd" clip-rule="evenodd" d="M5 3C5 2.17157 5.67157 1.5 6.5 1.5H12.1894C12.5872 1.5 12.9687 1.65803 13.25 1.93934L19.5606 8.25C19.842 8.53132 20 8.91285 20 9.31065V21C20 21.8284 19.3285 22.5 18.5 22.5H13.25C12.8358 22.5 12.5 22.1642 12.5 21.75C12.5 21.3358 12.8358 21 13.25 21H18.5V9.75H13.25C12.4215 9.75 11.75 9.07845 11.75 8.25V3H6.5V9.75C6.5 10.1642 6.16421 10.5 5.75 10.5C5.33579 10.5 5 10.1642 5 9.75V3ZM13.25 4.06066V8.25H17.4394L13.25 4.06066ZM8 12C8.41423 12 8.75 12.3358 8.75 12.75V15.75H11.75C12.1642 15.75 12.5 16.0858 12.5 16.5C12.5 16.9142 12.1642 17.25 11.75 17.25H8.75V20.25C8.75 20.6642 8.41423 21 8 21C7.58579 21 7.25 20.6642 7.25 20.25V17.25H4.25C3.83579 17.25 3.5 16.9142 3.5 16.5C3.5 16.0858 3.83579 15.75 4.25 15.75H7.25V12.75C7.25 12.3358 7.58579 12 8 12Z" fill="#001D21" />
</svg>