<svg xmlns="http://www.w3.org/2000/svg" width="24" height="24" viewBox="0 0 24 24" fill="none">
<path fill-rule="evenodd" clip-rule="evenodd" d="M4.50037 3C4.50037 2.17157 5.17194 1.5 6.00037 1.5H11.6897C12.0875 1.5 12.469 1.65803 12.7504 1.93934L19.061 8.25C19.3423 8.53132 19.5004 8.91285 19.5004 9.31065V21C19.5004 21.8284 18.8288 22.5 18.0004 22.5H12.7504C12.3361 22.5 12.0004 22.1642 12.0004 21.75C12.0004 21.3358 12.3361 21 12.7504 21H18.0004V9.75H12.7504C11.9219 9.75 11.2504 9.07845 11.2504 8.25V3H6.00037V12.75C6.00037 13.1642 5.66458 13.5 5.25037 13.5C4.83615 13.5 4.50037 13.1642 4.50037 12.75V3ZM12.7504 4.06066V8.25H16.9397L12.7504 4.06066Z" fill="#001D21" />
<path fill-rule="evenodd" clip-rule="evenodd" d="M12.3256 13.3564C12.6184 13.6493 12.6184 14.1241 12.3256 14.4171L5.96163 20.781C5.82097 20.9217 5.63019 21.0007 5.43126 21.0007C5.23234 21.0007 5.04157 20.9216 4.90092 20.781L1.71962 17.599C1.42676 17.3061 1.4268 16.8313 1.71972 16.5384C2.01265 16.2455 2.48752 16.2456 2.78039 16.5385L5.43135 19.1899L11.2649 13.3564C11.5578 13.0635 12.0327 13.0635 12.3256 13.3564Z" fill="#001D21" />
</svg>