<svg xmlns="http://www.w3.org/2000/svg" width="24" height="24" viewBox="0 0 24 24" fill="none">
<path fill-rule="evenodd" clip-rule="evenodd" d="M7.5 3C7.5 2.17157 8.17157 1.5 9 1.5H14.6894C15.0872 1.5 15.4687 1.65803 15.75 1.93934L22.0606 8.25C22.342 8.53132 22.5 8.91285 22.5 9.31065V21C22.5 21.8284 21.8284 22.5 21 22.5H18.75C18.3358 22.5 18 22.1642 18 21.75C18 21.3358 18.3358 21 18.75 21H21V9.75H15.75C14.9215 9.75 14.25 9.07845 14.25 8.25V3H9V13.5C9 13.9142 8.66421 14.25 8.25 14.25C7.83579 14.25 7.5 13.9142 7.5 13.5V3ZM15.75 4.06066V8.25H19.9394L15.75 4.06066Z" fill="#001D21" />
<path d="M5.487 22.5L4.146 20.088L2.805 22.5H1.5L3.39 19.17L1.581 16.11H2.913L4.164 18.288L5.397 16.11H6.729L4.911 19.17L6.801 22.5H5.487Z" fill="#001D21" />
<path d="M7.46362 16.11H8.73263V21.51H11.5136V22.5H7.46362V16.11Z" fill="#001D21" />
<path d="M14.5411 22.635C13.6531 22.635 12.9931 22.44 12.5611 22.05C12.1291 21.654 11.9131 21.126 11.9131 20.466H13.2181C13.2301 20.826 13.3501 21.117 13.5781 21.339C13.8061 21.561 14.1391 21.672 14.5771 21.672C14.9371 21.672 15.2161 21.597 15.4141 21.447C15.6181 21.297 15.7201 21.087 15.7201 20.817V20.727C15.7201 20.511 15.6511 20.343 15.5131 20.223C15.3811 20.097 15.1681 19.992 14.8741 19.908L13.6951 19.575C13.1011 19.401 12.6751 19.185 12.4171 18.927C12.1591 18.669 12.0301 18.303 12.0301 17.829C12.0301 17.463 12.1231 17.142 12.3091 16.866C12.4951 16.584 12.7621 16.365 13.1101 16.209C13.4641 16.053 13.8811 15.975 14.3611 15.975C14.9251 15.975 15.3901 16.062 15.7561 16.236C16.1281 16.404 16.4011 16.635 16.5751 16.929C16.7551 17.217 16.8481 17.538 16.8541 17.892H15.5491C15.5251 17.616 15.4081 17.388 15.1981 17.208C14.9941 17.028 14.7001 16.938 14.3161 16.938C14.0041 16.938 13.7581 17.013 13.5781 17.163C13.3981 17.307 13.3081 17.487 13.3081 17.703V17.793C13.3081 17.985 13.3741 18.138 13.5061 18.252C13.6381 18.366 13.8421 18.462 14.1181 18.54L15.2341 18.855C15.8581 19.035 16.3081 19.26 16.5841 19.53C16.8601 19.8 16.9981 20.19 16.9981 20.7C16.9981 21.3 16.7821 21.774 16.3501 22.122C15.9241 22.464 15.3211 22.635 14.5411 22.635Z" fill="#001D21" />
</svg>