<svg xmlns="http://www.w3.org/2000/svg" width="24" height="24" viewBox="0 0 24 24" fill="none">
<path fill-rule="evenodd" clip-rule="evenodd" d="M7.5 3C7.5 2.17157 8.17157 1.5 9 1.5H14.6894C15.0872 1.5 15.4687 1.65803 15.75 1.93934L22.0606 8.25C22.342 8.53132 22.5 8.91285 22.5 9.31065V21C22.5 21.8284 21.8284 22.5 21 22.5H18.75C18.3358 22.5 18 22.1642 18 21.75C18 21.3358 18.3358 21 18.75 21H21V9.75H15.75C14.9215 9.75 14.25 9.07845 14.25 8.25V3H9V13.5C9 13.9142 8.66421 14.25 8.25 14.25C7.83579 14.25 7.5 13.9142 7.5 13.5V3ZM15.75 4.06066V8.25H19.9394L15.75 4.06066Z" fill="#001D21" />
<path d="M4.488 16.11C4.872 16.11 5.217 16.197 5.523 16.371C5.829 16.545 6.066 16.788 6.234 17.1C6.408 17.412 6.495 17.766 6.495 18.162C6.495 18.558 6.408 18.912 6.234 19.224C6.066 19.536 5.829 19.779 5.523 19.953C5.217 20.127 4.872 20.214 4.488 20.214H2.769V22.5H1.5V16.11H4.488ZM5.217 18.072C5.217 17.754 5.124 17.514 4.938 17.352C4.752 17.184 4.509 17.1 4.209 17.1H2.769V19.224H4.209C4.503 19.224 4.743 19.14 4.929 18.972C5.121 18.804 5.217 18.564 5.217 18.252V18.072Z" fill="#001D21" />
<path d="M10.2385 16.11C10.6225 16.11 10.9675 16.197 11.2735 16.371C11.5795 16.545 11.8165 16.788 11.9845 17.1C12.1585 17.412 12.2455 17.766 12.2455 18.162C12.2455 18.558 12.1585 18.912 11.9845 19.224C11.8165 19.536 11.5795 19.779 11.2735 19.953C10.9675 20.127 10.6225 20.214 10.2385 20.214H8.51951V22.5H7.25051V16.11H10.2385ZM10.9675 18.072C10.9675 17.754 10.8745 17.514 10.6885 17.352C10.5025 17.184 10.2595 17.1 9.95951 17.1H8.51951V19.224H9.95951C10.2535 19.224 10.4935 19.14 10.6795 18.972C10.8715 18.804 10.9675 18.564 10.9675 18.252V18.072Z" fill="#001D21" />
<path d="M14.3259 17.1H12.5259V16.11H17.4129V17.1H15.5949V22.5H14.3259V17.1Z" fill="#001D21" />
</svg>