<svg xmlns="http://www.w3.org/2000/svg" width="24" height="24" viewBox="0 0 24 24" fill="none">
<path fill-rule="evenodd" clip-rule="evenodd" d="M10.6443 13.3564C10.9372 13.6493 10.9372 14.1241 10.6443 14.4171L7.9926 17.0687L10.6443 19.7204C10.9372 20.0133 10.9372 20.4882 10.6443 20.7811C10.3514 21.0739 9.87652 21.0739 9.58365 20.7811L6.93196 18.1294L4.28033 20.781C3.98743 21.0739 3.51257 21.0739 3.21967 20.781C2.92678 20.4881 2.92678 20.0132 3.21967 19.7203L5.87129 17.0687L3.21967 14.4171C2.92678 14.1242 2.92678 13.6493 3.21967 13.3564C3.51257 13.0636 3.98743 13.0636 4.28033 13.3564L6.93196 16.0081L9.58365 13.3564C9.87652 13.0635 10.3514 13.0635 10.6443 13.3564Z" fill="#001D21" />
<path fill-rule="evenodd" clip-rule="evenodd" d="M4.5 3C4.5 2.17157 5.17157 1.5 6 1.5H11.6893C12.0872 1.5 12.4687 1.65803 12.75 1.93934L19.0606 8.25C19.342 8.53132 19.5 8.91285 19.5 9.31065V21C19.5 21.8284 18.8284 22.5 18 22.5H12.75C12.3358 22.5 12 22.1642 12 21.75C12 21.3358 12.3358 21 12.75 21H18V9.75H12.75C11.9216 9.75 11.25 9.07845 11.25 8.25V3H6V11.2826C6 11.6968 5.66422 12.0326 5.25 12.0326C4.83579 12.0326 4.5 11.6968 4.5 11.2826V3ZM12.75 4.06066V8.25H16.9393L12.75 4.06066Z" fill="#001D21" />
</svg>