<svg xmlns="http://www.w3.org/2000/svg" width="24" height="24" viewBox="0 0 24 24" fill="none">
<path fill-rule="evenodd" clip-rule="evenodd" d="M19.5 16.3181V9.31065C19.5 8.91285 19.342 8.53132 19.0606 8.25L12.75 1.93934C12.4687 1.65803 12.0872 1.5 11.6894 1.5H6C5.63212 1.5 5.29516 1.63244 5.03422 1.85224L6.18198 3H11.25V8.06805L12.9319 9.75H18V14.8181L19.5 16.3181ZM12.75 8.25V4.06066L16.9394 8.25H12.75Z" fill="#001D21" />
<path d="M6 9.18195L4.5 7.68195V9.75C4.5 10.1642 4.83579 10.5 5.25 10.5C5.66421 10.5 6 10.1642 6 9.75V9.18195Z" fill="#001D21" />
<path d="M17.8181 21L18.9658 22.1478C18.7049 22.3675 18.3679 22.5 18 22.5H12.75C12.3358 22.5 12 22.1642 12 21.75C12 21.3358 12.3358 21 12.75 21H17.8181Z" fill="#001D21" />
<path d="M8.25 12.75C8.25 12.3358 7.91423 12 7.5 12C7.08579 12 6.75 12.3358 6.75 12.75V15.75H3.75C3.33579 15.75 3 16.0858 3 16.5C3 16.9142 3.33579 17.25 3.75 17.25H6.75V20.25C6.75 20.6642 7.08579 21 7.5 21C7.91423 21 8.25 20.6642 8.25 20.25V17.25H11.25C11.6642 17.25 12 16.9142 12 16.5C12 16.0858 11.6642 15.75 11.25 15.75H8.25V12.75Z" fill="#001D21" />
<path fill-rule="evenodd" clip-rule="evenodd" d="M1.71967 1.71967C2.01257 1.42678 2.48743 1.42678 2.78033 1.71967L22.2803 21.2197C22.5732 21.5126 22.5732 21.9874 22.2803 22.2803C21.9874 22.5732 21.5126 22.5732 21.2197 22.2803L1.71967 2.78033C1.42678 2.48743 1.42678 2.01257 1.71967 1.71967Z" fill="#001D21" />
</svg>