<svg xmlns="http://www.w3.org/2000/svg" viewBox="0 0 32 32">
    <path d="M10 4c0-1.1.9-2 2-2h7.59c.53 0 1.04.21 1.41.59L29.41 11c.38.38.59.88.59 1.41V28c0 1.1-.9 2-2 2h-1c-.55 0-1-.45-1-1s.45-1 1-1h1V13h-7c-1.1 0-2-.9-2-2V4h-7v14c0 .55-.45 1-1 1s-1-.45-1-1V4Zm11 1.41V11h5.59L21 5.41ZM5.22 21.48c.8 0 1.48.18 2.04.53.57.35.99.85 1.27 1.49.29.64.43 1.39.43 2.24s-.14 1.59-.43 2.23c-.28.64-.7 1.14-1.27 1.5-.56.35-1.24.53-2.04.53H2v-8.52h3.22Zm1.97 3.9c0-.8-.17-1.43-.5-1.88-.34-.46-.82-.7-1.46-.7H3.71v5.88h1.52c.64 0 1.13-.23 1.46-.68.34-.46.5-1.1.5-1.9v-.72Zm6.25 4.8c-1.22 0-2.17-.4-2.83-1.19-.66-.79-.98-1.88-.98-3.25s.33-2.46.98-3.25c.66-.79 1.61-1.19 2.83-1.19s2.18.4 2.83 1.19c.66.79 1 1.88 1 3.25s-.33 2.46-1 3.25c-.66.79-1.6 1.19-2.83 1.19Zm0-1.32c.68 0 1.19-.25 1.54-.74.34-.5.52-1.18.52-2.02v-.72c0-.85-.17-1.52-.52-2.02s-.86-.74-1.54-.74-1.18.25-1.52.76c-.34.5-.52 1.16-.52 2v.72c0 .84.17 1.51.52 2.02.34.5.85.74 1.52.74Zm8.29 1.32c-1.23 0-2.18-.4-2.83-1.19-.66-.8-.98-1.88-.98-3.25 0-.9.14-1.68.43-2.34.3-.67.73-1.19 1.3-1.55.57-.37 1.26-.55 2.09-.55 1.08 0 1.94.29 2.59.88.66.58 1.03 1.36 1.13 2.36h-1.74c-.1-.61-.32-1.08-.65-1.4-.33-.34-.77-.5-1.33-.5-.66 0-1.17.25-1.52.74-.34.5-.52 1.17-.52 2.02v.7c0 .85.17 1.52.52 2.02s.86.74 1.52.74c.58 0 1.03-.18 1.37-.54.34-.36.55-.86.64-1.51h1.73c-.07 1.05-.44 1.88-1.09 2.48-.66.6-1.54.9-2.64.9Z" fill="currentColor" fill-rule="evenodd"/>
</svg>
