<svg xmlns="http://www.w3.org/2000/svg" width="24" height="24" viewBox="0 0 24 24" fill="none">
<path fill-rule="evenodd" clip-rule="evenodd" d="M7.5 3C7.5 2.17157 8.17157 1.5 9 1.5H14.6894C15.0872 1.5 15.4687 1.65803 15.75 1.93934L22.0606 8.25C22.342 8.53132 22.5 8.91285 22.5 9.31065V21C22.5 21.8284 21.8284 22.5 21 22.5H18.75C18.3358 22.5 18 22.1642 18 21.75C18 21.3358 18.3358 21 18.75 21H21V9.75H15.75C14.9215 9.75 14.25 9.07845 14.25 8.25V3H9V13.5C9 13.9142 8.66421 14.25 8.25 14.25C7.83579 14.25 7.5 13.9142 7.5 13.5V3ZM15.75 4.06066V8.25H19.9394L15.75 4.06066Z" fill="#001D21" />
<path d="M4.488 16.11C4.872 16.11 5.217 16.197 5.523 16.371C5.829 16.545 6.066 16.788 6.234 17.1C6.408 17.412 6.495 17.766 6.495 18.162C6.495 18.558 6.408 18.912 6.234 19.224C6.066 19.536 5.829 19.779 5.523 19.953C5.217 20.127 4.872 20.214 4.488 20.214H2.769V22.5H1.5V16.11H4.488ZM5.217 18.072C5.217 17.754 5.124 17.514 4.938 17.352C4.752 17.184 4.509 17.1 4.209 17.1H2.769V19.224H4.209C4.503 19.224 4.743 19.14 4.929 18.972C5.121 18.804 5.217 18.564 5.217 18.252V18.072Z" fill="#001D21" />
<path d="M9.66251 16.11C10.2625 16.11 10.7725 16.242 11.1925 16.506C11.6185 16.77 11.9365 17.142 12.1465 17.622C12.3625 18.102 12.4705 18.663 12.4705 19.305C12.4705 19.941 12.3625 20.499 12.1465 20.979C11.9365 21.459 11.6185 21.834 11.1925 22.104C10.7725 22.368 10.2625 22.5 9.66251 22.5H7.25051V16.11H9.66251ZM11.1385 19.035C11.1385 18.435 11.0125 17.964 10.7605 17.622C10.5085 17.274 10.1425 17.1 9.66251 17.1H8.51951V21.51H9.66251C10.1425 21.51 10.5085 21.339 10.7605 20.997C11.0125 20.649 11.1385 20.175 11.1385 19.575V19.035Z" fill="#001D21" />
<path d="M14.5601 17.1V18.801H17.4761V19.8H14.5601V22.5H13.2911V16.11H17.6471V17.1H14.5601Z" fill="#001D21" />
</svg>