<svg xmlns="http://www.w3.org/2000/svg" width="24" height="24" viewBox="0 0 24 24" fill="none">
<path fill-rule="evenodd" clip-rule="evenodd" d="M4.5 3C4.5 2.17157 5.17158 1.5 6 1.5H11.6894C12.0872 1.5 12.4687 1.65803 12.75 1.93934L19.0607 8.25C19.342 8.53132 19.5 8.91285 19.5 9.31065V21C19.5 21.8284 18.8285 22.5 18 22.5H13.5C13.0858 22.5 12.75 22.1642 12.75 21.75C12.75 21.3358 13.0858 21 13.5 21H18V9.75H12.75C11.9216 9.75 11.25 9.07845 11.25 8.25V3H6V9.75C6 10.1642 5.66421 10.5 5.25 10.5C4.83579 10.5 4.5 10.1642 4.5 9.75V3ZM12.75 4.06066V8.25H16.9394L12.75 4.06066Z" fill="#001D21" />
<path fill-rule="evenodd" clip-rule="evenodd" d="M13.3175 17.2215C13.5431 16.8105 13.5644 16.3151 13.37 15.8839C12.3521 13.6242 10.1341 12 7.50315 12C4.9134 12 2.72379 13.5737 1.68491 15.7781C1.45936 16.1891 1.43811 16.6845 1.63238 17.1157C2.65039 19.3754 4.86838 20.9996 7.49932 20.9996C10.0891 20.9996 12.2786 19.426 13.3175 17.2215ZM3.80444 17.7682C3.48328 17.3934 3.21268 16.9695 3.00397 16.5084C3.00265 16.5055 3.00132 16.5026 3.00001 16.4996H3.00397L3.00498 16.4974C3.80456 14.725 5.51819 13.5 7.50315 13.5C8.96903 13.5 10.2869 14.1682 11.198 15.2315C11.5192 15.6062 11.7898 16.0302 11.9985 16.4912C11.9998 16.4942 12.0011 16.4971 12.0025 16.5H11.9985L11.9975 16.5023C11.1979 18.2746 9.48428 19.4996 7.49932 19.4996C6.03343 19.4996 4.71551 18.8315 3.80444 17.7682Z" fill="#001D21" />
<path d="M9 16.5C9 17.3285 8.32845 18 7.5 18C6.67158 18 6 17.3285 6 16.5C6 15.6715 6.67158 15 7.5 15C8.32845 15 9 15.6715 9 16.5Z" fill="#001D21" />
</svg>