<svg xmlns="http://www.w3.org/2000/svg" width="24" height="24" viewBox="0 0 24 24" fill="none">
<path fill-rule="evenodd" clip-rule="evenodd" d="M4.5 3C4.5 2.17157 5.17157 1.5 6 1.5H11.6894C12.0872 1.5 12.4687 1.65803 12.75 1.93934L19.0606 8.25C19.342 8.53132 19.5 8.91285 19.5 9.31065V21C19.5 21.8284 18.8284 22.5 18 22.5H13.5C13.0858 22.5 12.75 22.1642 12.75 21.75C12.75 21.3358 13.0858 21 13.5 21H18V9.75H12.75C11.9215 9.75 11.25 9.07845 11.25 8.25V3H6V9C6 9.41423 5.66421 9.75 5.25 9.75C4.83579 9.75 4.5 9.41423 4.5 9V3ZM12.75 4.06066V8.25H16.9394L12.75 4.06066Z" fill="#001D21" />
<path fill-rule="evenodd" clip-rule="evenodd" d="M5.56195 12.0728C6.8675 10.7673 8.77507 10.4344 10.3873 11.0653C10.623 11.1576 10.7962 11.3625 10.8481 11.6102C10.8999 11.8579 10.8232 12.1151 10.6443 12.2941L8.7441 14.1942C8.45122 14.4872 8.45122 14.962 8.7441 15.255C9.03697 15.5478 9.51187 15.5478 9.80475 15.255L11.7049 13.3548C11.8839 13.1757 12.1411 13.0992 12.3888 13.151C12.6366 13.2027 12.8415 13.3761 12.9337 13.6118C13.5646 15.224 13.2318 17.1315 11.9263 18.437C10.7476 19.6156 9.07905 20.0029 7.57882 19.6022L5.34099 21.84C4.46231 22.7187 3.03769 22.7187 2.15901 21.84C1.28033 20.9613 1.28033 19.5367 2.15901 18.658L4.39685 16.4202C3.9961 14.92 4.38338 13.2513 5.56195 12.0728ZM8.55562 12.2615C7.85107 12.3054 7.15972 12.5964 6.6226 13.1334C5.7535 14.0025 5.52804 15.2735 5.95063 16.3517C6.05942 16.6292 5.99349 16.9449 5.78268 17.1557L3.21967 19.7187C2.92678 20.0116 2.92678 20.4864 3.21967 20.7794C3.51256 21.0723 3.98743 21.0723 4.28033 20.7794L6.84334 18.2163C7.05415 18.0055 7.36979 17.9396 7.64737 18.0484C8.72557 18.471 9.99645 18.2455 10.8655 17.3764C11.4027 16.8393 11.6937 16.148 11.7376 15.4434L10.8654 16.3156C9.98677 17.1942 8.56215 17.1942 7.68345 16.3156C6.80475 15.4369 6.80476 14.0123 7.68345 13.1336L8.55562 12.2615Z" fill="#001D21" />
</svg>