<svg xmlns="http://www.w3.org/2000/svg" width="24" height="24" viewBox="0 0 24 24" fill="none">
<path fill-rule="evenodd" clip-rule="evenodd" d="M7.5 3C7.5 2.17157 8.17157 1.5 9 1.5H14.6894C15.0872 1.5 15.4687 1.65803 15.75 1.93934L22.0606 8.25C22.342 8.53132 22.5 8.91285 22.5 9.31065V21C22.5 21.8284 21.8284 22.5 21 22.5H20.25C19.8358 22.5 19.5 22.1642 19.5 21.75C19.5 21.3358 19.8358 21 20.25 21H21V9.75H15.75C14.9215 9.75 14.25 9.07845 14.25 8.25V3H9V13.5C9 13.9142 8.66421 14.25 8.25 14.25C7.83579 14.25 7.5 13.9142 7.5 13.5V3ZM15.75 4.06066V8.25H19.9394L15.75 4.06066Z" fill="#001D21" />
<path d="M3.912 16.11C4.512 16.11 5.022 16.242 5.442 16.506C5.868 16.77 6.186 17.142 6.396 17.622C6.612 18.102 6.72 18.663 6.72 19.305C6.72 19.941 6.612 20.499 6.396 20.979C6.186 21.459 5.868 21.834 5.442 22.104C5.022 22.368 4.512 22.5 3.912 22.5H1.5V16.11H3.912ZM5.388 19.035C5.388 18.435 5.262 17.964 5.01 17.622C4.758 17.274 4.392 17.1 3.912 17.1H2.769V21.51H3.912C4.392 21.51 4.758 21.339 5.01 20.997C5.262 20.649 5.388 20.175 5.388 19.575V19.035Z" fill="#001D21" />
<path d="M10.0785 22.635C9.16055 22.635 8.45255 22.338 7.95455 21.744C7.46255 21.15 7.21655 20.337 7.21655 19.305C7.21655 18.273 7.46255 17.46 7.95455 16.866C8.45255 16.272 9.16055 15.975 10.0785 15.975C11.0025 15.975 11.7105 16.272 12.2025 16.866C12.7005 17.46 12.9495 18.273 12.9495 19.305C12.9495 20.337 12.7005 21.15 12.2025 21.744C11.7105 22.338 11.0025 22.635 10.0785 22.635ZM10.0785 21.645C10.5885 21.645 10.9725 21.459 11.2305 21.087C11.4885 20.709 11.6175 20.205 11.6175 19.575V19.035C11.6175 18.399 11.4885 17.895 11.2305 17.523C10.9725 17.151 10.5885 16.965 10.0785 16.965C9.57455 16.965 9.19355 17.154 8.93555 17.532C8.67755 17.904 8.54855 18.405 8.54855 19.035V19.575C8.54855 20.205 8.67755 20.709 8.93555 21.087C9.19355 21.459 9.57455 21.645 10.0785 21.645Z" fill="#001D21" />
<path d="M16.2949 22.635C15.3709 22.635 14.6629 22.338 14.1709 21.744C13.6789 21.144 13.4329 20.331 13.4329 19.305C13.4329 18.633 13.5409 18.048 13.7569 17.55C13.9789 17.046 14.3029 16.659 14.7289 16.389C15.1549 16.113 15.6769 15.975 16.2949 15.975C17.1049 15.975 17.7529 16.194 18.2389 16.632C18.7309 17.064 19.0129 17.655 19.0849 18.405H17.7799C17.7019 17.949 17.5399 17.598 17.2939 17.352C17.0479 17.1 16.7149 16.974 16.2949 16.974C15.7969 16.974 15.4159 17.16 15.1519 17.532C14.8939 17.904 14.7649 18.408 14.7649 19.044V19.566C14.7649 20.202 14.8939 20.706 15.1519 21.078C15.4159 21.45 15.7969 21.636 16.2949 21.636C16.7269 21.636 17.0689 21.501 17.3209 21.231C17.5729 20.961 17.7319 20.583 17.7979 20.097H19.0939C19.0399 20.883 18.7669 21.504 18.2749 21.96C17.7829 22.41 17.1229 22.635 16.2949 22.635Z" fill="#001D21" />
</svg>