<svg xmlns="http://www.w3.org/2000/svg" width="24" height="24" viewBox="0 0 24 24" fill="none">
<path fill-rule="evenodd" clip-rule="evenodd" d="M12 1.5C12.4142 1.5 12.75 1.83579 12.75 2.25V3.80659C13.816 3.94309 14.7669 4.31718 15.5341 4.82628C16.4961 5.46459 17.2247 6.35527 17.4654 7.3181C17.5659 7.71994 17.3215 8.12715 16.9197 8.22761C16.5178 8.32807 16.1106 8.08375 16.0102 7.6819C15.885 7.18132 15.452 6.572 14.7048 6.07616C13.971 5.58926 12.9863 5.25 11.8581 5.25C9.78004 5.25 8.60702 5.76827 7.96203 6.34121C7.32023 6.91131 7.11583 7.6103 7.11583 8.15854C7.11583 8.63579 7.23988 8.97609 7.43077 9.24174C7.62894 9.51751 7.93318 9.75942 8.36086 9.97473C9.22677 10.4107 10.4047 10.6502 11.7338 10.9205C11.7625 10.9263 11.7914 10.9322 11.8202 10.9381C13.1189 11.2023 14.5661 11.5021 15.6801 12.1168C16.2517 12.4321 16.7711 12.8478 17.1457 13.4157C17.5248 13.9903 17.7256 14.6754 17.7256 15.4756C17.7256 17.2043 16.8282 18.4282 15.6535 19.1883C14.7768 19.7556 13.7365 20.0754 12.75 20.195V21.75C12.75 22.1642 12.4142 22.5 12 22.5C11.5858 22.5 11.25 22.1642 11.25 21.75V20.2256C10.1916 20.1426 8.97557 19.8449 7.91648 19.2973C6.65223 18.6438 5.48818 17.5622 5.25751 15.9475C5.19893 15.5375 5.48386 15.1576 5.89391 15.099C6.30396 15.0404 6.68386 15.3253 6.74244 15.7354C6.87762 16.6817 7.56961 17.4294 8.60533 17.9649C9.63795 18.4987 10.8898 18.75 11.8536 18.75C12.8495 18.75 13.9809 18.4839 14.8387 17.9289C15.6707 17.3906 16.2256 16.6024 16.2256 15.4756C16.2256 14.9382 16.0948 14.5466 15.8937 14.2417C15.6881 13.9301 15.3786 13.6636 14.9555 13.4301C14.0802 12.9472 12.8749 12.6834 11.5212 12.408C11.4579 12.3951 11.3942 12.3822 11.3303 12.3692C10.0923 12.1182 8.73676 11.8434 7.68634 11.3145C7.11936 11.0291 6.59471 10.6487 6.21266 10.1171C5.82333 9.57527 5.61583 8.9229 5.61583 8.15854C5.61583 7.24336 5.9602 6.11308 6.96586 5.21976C7.87802 4.40951 9.26264 3.8569 11.25 3.76391V2.25C11.25 1.83579 11.5858 1.5 12 1.5Z" fill="#001D21" />
</svg>