<svg xmlns="http://www.w3.org/2000/svg" width="24" height="24" viewBox="0 0 24 24" fill="none">
<path fill-rule="evenodd" clip-rule="evenodd" d="M2.98584 5.25586C2.98584 4.84165 3.32163 4.50586 3.73584 4.50586H20.2641C20.6784 4.50586 21.0141 4.84165 21.0141 5.25586C21.0141 5.67007 20.6784 6.00586 20.2641 6.00586H3.73584C3.32163 6.00586 2.98584 5.67007 2.98584 5.25586Z" fill="#001D21" />
<path fill-rule="evenodd" clip-rule="evenodd" d="M6.7551 12.0138C6.7551 11.5995 7.09089 11.2638 7.5051 11.2638H16.4948C16.9091 11.2638 17.2448 11.5995 17.2448 12.0138C17.2448 12.428 16.9091 12.7638 16.4948 12.7638H7.5051C7.09089 12.7638 6.7551 12.428 6.7551 12.0138Z" fill="#001D21" />
<path fill-rule="evenodd" clip-rule="evenodd" d="M8.98208 18.7498C8.98208 18.3355 9.31786 17.9998 9.73208 17.9998H14.2679C14.6821 17.9998 15.0179 18.3355 15.0179 18.7498C15.0179 19.164 14.6821 19.4998 14.2679 19.4998H9.73208C9.31786 19.4998 8.98208 19.164 8.98208 18.7498Z" fill="#001D21" />
</svg>