<svg xmlns="http://www.w3.org/2000/svg" width="24" height="24" viewBox="0 0 24 24" fill="none">
<path d="M6.62946 4.48047C6.62946 5.3089 7.30103 5.98047 8.12946 5.98047C8.95789 5.98047 9.62946 5.3089 9.62946 4.48047C9.62946 3.65204 8.95789 2.98047 8.12946 2.98047C7.30103 2.98047 6.62946 3.65204 6.62946 4.48047Z" fill="#001D21" />
<path d="M6.62939 19.5098C6.62939 20.3383 7.30097 21.0098 8.12939 21.0098C8.95782 21.0098 9.62939 20.3383 9.62939 19.5098C9.62939 18.6814 8.95782 18.0098 8.12939 18.0098C7.30097 18.0098 6.62939 18.6814 6.62939 19.5098Z" fill="#001D21" />
<path d="M14.4269 4.48049C14.4269 5.30892 15.0985 5.98049 15.9269 5.98049C16.7553 5.98049 17.4269 5.30892 17.4269 4.48049C17.4269 3.65207 16.7553 2.98049 15.9269 2.98049C15.0985 2.98049 14.4269 3.65207 14.4269 4.48049Z" fill="#001D21" />
<path d="M6.6294 11.9961C6.6294 12.8245 7.30097 13.4961 8.1294 13.4961C8.95783 13.4961 9.6294 12.8245 9.6294 11.9961C9.6294 11.1677 8.95783 10.4961 8.1294 10.4961C7.30097 10.4961 6.6294 11.1677 6.6294 11.9961Z" fill="#001D21" />
<path d="M14.4268 11.9961C14.4268 12.8245 15.0983 13.4961 15.9268 13.4961C16.7552 13.4961 17.4268 12.8245 17.4268 11.9961C17.4268 11.1677 16.7552 10.4961 15.9268 10.4961C15.0983 10.4961 14.4268 11.1677 14.4268 11.9961Z" fill="#001D21" />
<path d="M14.4269 19.5098C14.4269 20.3383 15.0985 21.0098 15.9269 21.0098C16.7554 21.0098 17.4269 20.3383 17.4269 19.5098C17.4269 18.6814 16.7554 18.0098 15.9269 18.0098C15.0985 18.0098 14.4269 18.6814 14.4269 19.5098Z" fill="#001D21" />
</svg>