<svg xmlns="http://www.w3.org/2000/svg" width="24" height="24" viewBox="0 0 24 24" fill="none">
<path d="M12.0001 1.48047C12.4143 1.48047 12.7501 1.81626 12.7501 2.23047L12.7501 17.4551L19.7336 10.4716C20.0265 10.1787 20.5013 10.1787 20.7942 10.4716C21.0871 10.7645 21.0871 11.2394 20.7942 11.5323L13.379 18.9475C12.6174 19.7091 11.3828 19.7091 10.6213 18.9475L3.206 11.5323C2.9131 11.2394 2.9131 10.7645 3.206 10.4716C3.49889 10.1787 3.97376 10.1787 4.26666 10.4716L11.2501 17.455L11.2501 2.23047C11.2501 1.81626 11.5859 1.48047 12.0001 1.48047Z" fill="#001D21" />
<path d="M3.89081 21C3.47659 21 3.14081 21.3358 3.14081 21.75C3.14081 22.1643 3.47659 22.5 3.89081 22.5L20.1064 22.5C20.5206 22.5 20.8564 22.1642 20.8564 21.75C20.8564 21.3358 20.5206 21 20.1064 21L3.89081 21Z" fill="#001D21" />
</svg>