<svg xmlns="http://www.w3.org/2000/svg" width="24" height="24" viewBox="0 0 24 24" fill="none">
<path fill-rule="evenodd" clip-rule="evenodd" d="M21 6H3V18H21V6ZM3 4.5C2.17157 4.5 1.5 5.17157 1.5 6V18C1.5 18.8284 2.17157 19.5 3 19.5H21C21.8284 19.5 22.5 18.8284 22.5 18V6C22.5 5.17157 21.8284 4.5 21 4.5H3Z" fill="#001D21" />
<path fill-rule="evenodd" clip-rule="evenodd" d="M8.625 9C8.00368 9 7.5 9.50368 7.5 10.125C7.5 10.7463 8.00368 11.25 8.625 11.25C9.24632 11.25 9.75 10.7463 9.75 10.125C9.75 9.50368 9.24632 9 8.625 9ZM6 10.125C6 8.67525 7.17525 7.5 8.625 7.5C10.0747 7.5 11.25 8.67525 11.25 10.125C11.25 11.5747 10.0747 12.75 8.625 12.75C7.17525 12.75 6 11.5747 6 10.125ZM6.75 15C6.33579 15 6 15.3358 6 15.75C6 16.1642 5.66421 16.5 5.25 16.5C4.83579 16.5 4.5 16.1642 4.5 15.75C4.5 14.5074 5.50736 13.5 6.75 13.5H10.5C11.7426 13.5 12.75 14.5074 12.75 15.75C12.75 16.1642 12.4142 16.5 12 16.5C11.5858 16.5 11.25 16.1642 11.25 15.75C11.25 15.3358 10.9142 15 10.5 15H6.75Z" fill="#001D21" />
<path fill-rule="evenodd" clip-rule="evenodd" d="M14.25 12C14.25 11.5858 14.5858 11.25 15 11.25H18.75C19.1642 11.25 19.5 11.5858 19.5 12C19.5 12.4142 19.1642 12.75 18.75 12.75H15C14.5858 12.75 14.25 12.4142 14.25 12Z" fill="#001D21" />
<path fill-rule="evenodd" clip-rule="evenodd" d="M14.25 8.25C14.25 7.83579 14.5858 7.5 15 7.5H18.75C19.1642 7.5 19.5 7.83579 19.5 8.25C19.5 8.66421 19.1642 9 18.75 9H15C14.5858 9 14.25 8.66421 14.25 8.25Z" fill="#001D21" />
<path fill-rule="evenodd" clip-rule="evenodd" d="M14.25 15.75C14.25 15.3358 14.5858 15 15 15H18.75C19.1642 15 19.5 15.3358 19.5 15.75C19.5 16.1642 19.1642 16.5 18.75 16.5H15C14.5858 16.5 14.25 16.1642 14.25 15.75Z" fill="#001D21" />
</svg>