<svg width="32" height="32" viewBox="0 0 32 32" fill="none" xmlns="http://www.w3.org/2000/svg">
<path fill-rule="evenodd" clip-rule="evenodd" d="M28 6C29.1046 6 30 6.89545 30 8V24C30 25.1046 29.1046 26 28 26H4C2.89545 26 2 25.1046 2 24V8C2 6.89545 2.89545 6 4 6H28ZM28 24V8H4V24H28Z" fill="#0D0F13"/>
<path fill-rule="evenodd" clip-rule="evenodd" d="M7 22C6.44769 22 6 21.5523 6 21C6 19.3431 7.34314 18 9 18H14C15.6569 18 17 19.3431 17 21C17 21.5523 16.5523 22 16 22C15.4477 22 15 21.5523 15 21C15 20.4477 14.5523 20 14 20H9C8.44769 20 8 20.4477 8 21C8 21.5523 7.55231 22 7 22Z" fill="#0D0F13"/>
<path fill-rule="evenodd" clip-rule="evenodd" d="M11.5 17C9.56702 17 8 15.433 8 13.5C8 11.567 9.56702 10 11.5 10C13.433 10 15 11.567 15 13.5C15 15.433 13.433 17 11.5 17ZM11.5 12C10.6716 12 10 12.6716 10 13.5C10 14.3284 10.6716 15 11.5 15C12.3284 15 13 14.3284 13 13.5C13 12.6716 12.3284 12 11.5 12Z" fill="#0D0F13"/>
<path fill-rule="evenodd" clip-rule="evenodd" d="M20 17C19.4477 17 19 16.5523 19 16C19 15.4477 19.4477 15 20 15H25C25.5523 15 26 15.4477 26 16C26 16.5523 25.5523 17 25 17H20Z" fill="#0D0F13"/>
<path fill-rule="evenodd" clip-rule="evenodd" d="M20 12C19.4477 12 19 11.5523 19 11C19 10.4477 19.4477 10 20 10H25C25.5523 10 26 10.4477 26 11C26 11.5523 25.5523 12 25 12H20Z" fill="#0D0F13"/>
<path fill-rule="evenodd" clip-rule="evenodd" d="M20 22C19.4477 22 19 21.5523 19 21C19 20.4477 19.4477 20 20 20H25C25.5523 20 26 20.4477 26 21C26 21.5523 25.5523 22 25 22H20Z" fill="#0D0F13"/>
</svg>
