<svg xmlns="http://www.w3.org/2000/svg" width="24" height="24" viewBox="0 0 24 24" fill="none">
<path fill-rule="evenodd" clip-rule="evenodd" d="M14.25 12C14.25 11.5858 14.5858 11.25 15 11.25H18.75C19.1642 11.25 19.5 11.5858 19.5 12C19.5 12.4142 19.1642 12.75 18.75 12.75H15C14.5858 12.75 14.25 12.4142 14.25 12Z" fill="#001D21" />
<path fill-rule="evenodd" clip-rule="evenodd" d="M14.25 8.25C14.25 7.83579 14.5858 7.5 15 7.5H18.75C19.1642 7.5 19.5 7.83579 19.5 8.25C19.5 8.66421 19.1642 9 18.75 9H15C14.5858 9 14.25 8.66421 14.25 8.25Z" fill="#001D21" />
<path fill-rule="evenodd" clip-rule="evenodd" d="M6.12883 9.31104C6.04521 9.56746 6 9.84124 6 10.1256C6 11.5753 7.17525 12.7506 8.625 12.7506C8.90934 12.7506 9.18313 12.7054 9.43955 12.6218L6.12883 9.31104ZM10.3184 13.5006H6.75C5.50736 13.5006 4.5 14.5079 4.5 15.7506C4.5 16.1648 4.83579 16.5006 5.25 16.5006C5.66421 16.5006 6 16.1648 6 15.7506C6 15.3364 6.33579 15.0006 6.75 15.0006H10.5C10.9142 15.0006 11.25 15.3364 11.25 15.7506C11.25 16.1648 11.5858 16.5006 12 16.5006C12.358 16.5006 12.6574 16.2498 12.7321 15.9143L10.3184 13.5006Z" fill="#001D21" />
<path fill-rule="evenodd" clip-rule="evenodd" d="M1.71967 1.71967C2.01256 1.42678 2.48744 1.42678 2.78033 1.71967L22.2803 21.2197C22.5732 21.5126 22.5732 21.9874 22.2803 22.2803C21.9874 22.5732 21.5126 22.5732 21.2197 22.2803L1.71967 2.78033C1.42678 2.48744 1.42678 2.01256 1.71967 1.71967Z" fill="#001D21" />
<path fill-rule="evenodd" clip-rule="evenodd" d="M22.1478 18.9658C22.3676 18.7048 22.5 18.3679 22.5 18V6C22.5 5.17157 21.8284 4.5 21 4.5H7.68198L9.18198 6H21V17.818L22.1478 18.9658ZM3 6.18198L1.85224 5.03422C1.63244 5.29516 1.5 5.63211 1.5 6V18C1.5 18.8284 2.17157 19.5 3 19.5H16.318L14.818 18H3V6.18198Z" fill="#001D21" />
<path fill-rule="evenodd" clip-rule="evenodd" d="M19.3632 16.1815C19.4492 16.0595 19.4997 15.9106 19.4997 15.75C19.4997 15.3358 19.1639 15 18.7497 15H18.1816L19.3632 16.1815Z" fill="#001D21" />
</svg>