<svg width="32" height="32" viewBox="0 0 32 32" fill="none" xmlns="http://www.w3.org/2000/svg">
<path fill-rule="evenodd" clip-rule="evenodd" d="M17.4726 2.73366C20.2532 6.32625 26 14.3831 26 19.6054C26 26.4944 21.5228 30 16 30C10.4772 30 6 26.4944 6 19.6054C6 14.3831 11.7468 6.32626 14.5274 2.73366C15.2844 1.75545 16.7156 1.75545 17.4726 2.73366ZM21.6885 25.9356C23.0418 24.6362 24 22.5945 24 19.6054C24 17.571 22.8192 14.657 21.045 11.5586C19.3705 8.63436 17.3634 5.87313 16 4.10335C14.6366 5.87313 12.6295 8.63436 10.955 11.5586C9.18085 14.657 8 17.571 8 19.6054C8 22.5945 8.95813 24.6362 10.3115 25.9356C11.683 27.2525 13.6546 27.9927 16 27.9927C18.3454 27.9927 20.317 27.2525 21.6885 25.9356Z" fill="#0D0F13"/>
</svg>
