<svg xmlns="http://www.w3.org/2000/svg" width="24" height="24" viewBox="0 0 24 24" fill="none">
<path fill-rule="evenodd" clip-rule="evenodd" d="M19.3967 16.2147C19.4646 15.7379 19.5 15.2344 19.5 14.7041C19.5 10.7873 15.1899 4.74469 13.1045 2.05021C12.5367 1.31659 11.4633 1.3166 10.8955 2.05022C10.2521 2.88159 9.39684 4.03171 8.52176 5.33978L9.60491 6.42293C10.4731 5.10845 11.3378 3.93707 12 3.07752C13.0226 4.40485 14.5279 6.47574 15.7837 8.66893C17.1144 10.9928 18 13.1782 18 14.7041C18 14.7421 17.9998 14.7798 17.9994 14.8174L19.3967 16.2147ZM7.2718 10.4538C6.48311 12.0904 6 13.5771 6 14.7041C6 16.9459 6.71861 18.4772 7.73361 19.4517C8.76227 20.4394 10.241 20.9945 12 20.9945C13.759 20.9945 15.2377 20.4394 16.2664 19.4517L16.2681 19.4501L17.3309 20.5129C15.9715 21.8337 14.0851 22.5 12 22.5C7.85786 22.5 4.5 19.8708 4.5 14.7041C4.5 13.1372 5.18983 11.23 6.15106 9.33304L7.2718 10.4538Z" fill="#001D21" />
<path fill-rule="evenodd" clip-rule="evenodd" d="M1.71967 1.71967C2.01256 1.42678 2.48744 1.42678 2.78033 1.71967L22.2803 21.2197C22.5732 21.5126 22.5732 21.9874 22.2803 22.2803C21.9874 22.5732 21.5126 22.5732 21.2197 22.2803L1.71967 2.78033C1.42678 2.48744 1.42678 2.01256 1.71967 1.71967Z" fill="#001D21" />
</svg>