<svg xmlns="http://www.w3.org/2000/svg" width="24" height="24" viewBox="0 0 24 24" fill="none">
<path fill-rule="evenodd" clip-rule="evenodd" d="M16.2664 19.4517C17.2814 18.4772 18 16.9459 18 14.7041C18 13.1782 17.1144 10.9928 15.7837 8.66893C14.5279 6.47574 13.0226 4.40485 12 3.07752C10.9774 4.40485 9.47209 6.47574 8.21627 8.66893C6.88563 10.9928 6 13.1782 6 14.7041C6 16.9459 6.71861 18.4772 7.73361 19.4517C8.76227 20.4394 10.241 20.9945 12 20.9945C13.759 20.9945 15.2377 20.4394 16.2664 19.4517ZM12 22.5C16.1421 22.5 19.5 19.8708 19.5 14.7041C19.5 10.7873 15.1899 4.74469 13.1045 2.05021C12.5367 1.31659 11.4633 1.3166 10.8955 2.05022C8.81011 4.7447 4.5 10.7873 4.5 14.7041C4.5 19.8708 7.85786 22.5 12 22.5Z" fill="#001D21" />
</svg>