<svg xmlns="http://www.w3.org/2000/svg" width="24" height="24" viewBox="0 0 24 24" fill="none">
<path fill-rule="evenodd" clip-rule="evenodd" d="M16.349 12.9535L20.5639 8.73864C21.1497 8.15285 21.1497 7.2031 20.5639 6.6173L17.382 3.43544C16.7962 2.84965 15.8465 2.84965 15.2607 3.43544L11.0458 7.65026L12.1065 8.71093L13.6697 7.14775L16.8516 10.3296L15.2884 11.8928L16.349 12.9535ZM16.3213 4.49611L19.5032 7.67797L17.9122 9.26895L14.7304 6.08709L16.3213 4.49611Z" fill="#001D21" />
<path d="M8.92463 11.8926L6.01184 14.8054L4.81887 19.1802L9.19371 17.9873L12.1065 15.0745L13.1671 16.1352L10.2544 19.048C10.0698 19.2326 9.84019 19.3658 9.58832 19.4345L3.94733 20.9726C3.68767 21.0434 3.40999 20.9697 3.21968 20.7794C3.02938 20.5891 2.95563 20.3114 3.02644 20.0517L4.56467 14.4108C4.63335 14.1589 4.76657 13.9294 4.95117 13.7448L7.86396 10.832L8.92463 11.8926Z" fill="#001D21" />
<path fill-rule="evenodd" clip-rule="evenodd" d="M1.71967 1.71967C2.01257 1.42678 2.48744 1.42678 2.78034 1.71967L22.2805 21.2198C22.5734 21.5127 22.5734 21.9876 22.2805 22.2805C21.9876 22.5734 21.5127 22.5734 21.2198 22.2805L1.71967 2.78034C1.42678 2.48744 1.42678 2.01257 1.71967 1.71967Z" fill="#001D21" />
</svg>