<svg xmlns="http://www.w3.org/2000/svg" width="24" height="24" viewBox="0 0 24 24" fill="none">
<path fill-rule="evenodd" clip-rule="evenodd" d="M15.2607 3.43544C15.8465 2.84965 16.7962 2.84965 17.382 3.43544L20.5639 6.6173C21.1497 7.2031 21.1497 8.15285 20.5639 8.73864L10.2543 19.0483C10.0697 19.2329 9.84007 19.3661 9.5882 19.4348L3.94721 20.9729C3.68755 21.0437 3.40987 20.97 3.21956 20.7797C3.02926 20.5894 2.95551 20.3117 3.02632 20.052L4.56455 14.4111C4.63323 14.1592 4.76645 13.9297 4.95105 13.7451L15.2607 3.43544ZM19.5032 7.67797L16.3213 4.49611L14.7304 6.08709L17.9122 9.26895L19.5032 7.67797ZM16.8516 10.3296L13.6697 7.14775L6.01172 14.8057L4.81875 19.1805L9.19359 17.9876L16.8516 10.3296Z" fill="#001D21" />
</svg>