<svg xmlns="http://www.w3.org/2000/svg" width="24" height="24" viewBox="0 0 24 24" fill="none">
<path fill-rule="evenodd" clip-rule="evenodd" d="M8.26172 4.87109C8.26172 4.45688 8.59751 4.12109 9.01172 4.12109H15.0117C15.4259 4.12109 15.7617 4.45688 15.7617 4.87109C15.7617 5.2853 15.4259 5.62109 15.0117 5.62109H12.7617V7.12109H15.7617C16.5901 7.12109 17.2617 7.79266 17.2617 8.62109V10.8711H18.0117V9.52109C18.0117 9.02403 18.4146 8.62109 18.9117 8.62109H20.8532C21.2707 8.62109 21.6413 8.88825 21.7733 9.28433L21.9989 9.96089C22.3385 10.9799 22.5117 12.047 22.5117 13.1211C22.5117 14.1952 22.3385 15.2623 21.9989 16.2813L21.7733 16.9579C21.6413 17.3539 21.2707 17.6211 20.8532 17.6211H18.9117C18.4146 17.6211 18.0117 17.2182 18.0117 16.7211V15.3711H17.2617V17.6211C17.2617 18.4495 16.5901 19.1211 15.7617 19.1211H11.0916C10.6712 19.1211 10.27 18.9446 9.98592 18.6347L7.68179 16.1211H6.01172C5.18329 16.1211 4.51172 15.4495 4.51172 14.6211V12.3711H3.01172V14.6211C3.01172 15.0353 2.67593 15.3711 2.26172 15.3711C1.84751 15.3711 1.51172 15.0353 1.51172 14.6211V8.62109C1.51172 8.20688 1.84751 7.87109 2.26172 7.87109C2.67593 7.87109 3.01172 8.20688 3.01172 8.62109V10.8711H4.51172V8.62109C4.51172 7.79266 5.18329 7.12109 6.01172 7.12109H11.2617V5.62109H9.01172C8.59751 5.62109 8.26172 5.2853 8.26172 4.87109ZM8.67606 14.9859C8.46297 14.7535 8.1621 14.6211 7.84676 14.6211H6.01172V8.62109H15.7617V11.6136C15.7617 12.032 16.1008 12.3711 16.5192 12.3711H18.7542C19.1726 12.3711 19.5117 12.032 19.5117 11.6136V10.1211H20.4711L20.5758 10.4352C20.8645 11.3013 21.0117 12.2082 21.0117 13.1211C21.0117 14.034 20.8645 14.9409 20.5758 15.807L20.4711 16.1211H19.5117V14.6286C19.5117 14.2102 19.1726 13.8711 18.7542 13.8711H16.5192C16.1008 13.8711 15.7617 14.2102 15.7617 14.6286V17.6211H11.0916L8.67606 14.9859Z" fill="#001D21" />
</svg>