<svg width="32" height="32" viewBox="0 0 32 32" fill="none" xmlns="http://www.w3.org/2000/svg">
<path fill-rule="evenodd" clip-rule="evenodd" d="M29.3162 13.7864C29.7691 15.1451 30 16.5678 30 18C30 19.4322 29.7691 20.8549 29.3162 22.2136L29.0155 23.1157C28.8395 23.6438 28.3453 24 27.7886 24H25.2C24.5373 24 24 23.4627 24 22.8V21H23V24C23 25.1046 22.1046 26 21 26H14.7732C14.2126 26 13.6777 25.7647 13.2989 25.3514L10.2268 22H8C6.89545 22 6 21.1046 6 20V17H4V20C4 20.5523 3.55231 21 3 21C2.44769 21 2 20.5523 2 20V12C2 11.4477 2.44769 11 3 11C3.55231 11 4 11.4477 4 12V15H6V12C6 10.8954 6.89545 10 8 10H15V8H12C11.4477 8 11 7.55231 11 7C11 6.44769 11.4477 6 12 6H20C20.5523 6 21 6.44769 21 7C21 7.55231 20.5523 8 20 8H17V10H21C22.1046 10 23 10.8954 23 12V15H24V13.2C24 12.5373 24.5373 12 25.2 12H27.7886C28.3453 12 28.8395 12.3562 29.0155 12.8843L29.3162 13.7864ZM27.4189 21.5811C27.8038 20.4264 28 19.2172 28 18C28 16.7828 27.8038 15.5736 27.4189 14.4189L27.2792 14H26V15.99C26 16.5478 25.5478 17 24.99 17H22.01C21.4522 17 21 16.5478 21 15.99V12H8V20H10.4467C10.8672 20 11.2683 20.1765 11.5524 20.4864L14.7732 24H21V20.01C21 19.4522 21.4522 19 22.01 19H24.99C25.5478 19 26 19.4522 26 20.01V22H27.2792L27.4189 21.5811Z" fill="#0D0F13"/>
</svg>
