<svg xmlns="http://www.w3.org/2000/svg" width="24" height="24" viewBox="0 0 24 24" fill="none">
<path d="M1.71967 1.71967C2.01256 1.42678 2.48744 1.42678 2.78033 1.71967L22.2803 21.2197C22.5732 21.5126 22.5732 21.9874 22.2803 22.2803C21.9874 22.5732 21.5126 22.5732 21.2197 22.2803L1.71967 2.78033C1.42678 2.48744 1.42678 2.01256 1.71967 1.71967Z" fill="#001D21" />
<path d="M21.7616 17.3368C21.6619 17.6361 21.4258 17.8618 21.1362 17.9542L19.682 16.5H20.4594L20.5641 16.1859C20.8528 15.3198 21 14.4129 21 13.5C21 12.5871 20.8528 11.6802 20.5641 10.8141L20.4594 10.5H19.5V11.9925C19.5 12.4109 19.1609 12.75 18.7425 12.75H16.5075C16.0891 12.75 15.75 12.4109 15.75 11.9925V9H12.182L10.682 7.5H11.25V6H9.18206L8.26807 5.086C8.34286 4.75067 8.6422 4.5 9.00008 4.5H15.0001C15.4143 4.5 15.7501 4.83579 15.7501 5.25C15.7501 5.66421 15.4143 6 15.0001 6H12.75V7.5H15.75C16.5784 7.5 17.25 8.17157 17.25 9V11.25H18V9.9C18 9.40294 18.403 9 18.9 9H20.8415C21.259 9 21.6296 9.26716 21.7616 9.66324L21.9872 10.3398C22.3268 11.3588 22.5 12.4259 22.5 13.5C22.5 14.5741 22.3268 15.6412 21.9872 16.6602L21.7616 17.3368Z" fill="#001D21" />
<path d="M17.432 14.25L19.5 16.318V15.0075C19.5 14.5891 19.1609 14.25 18.7425 14.25H17.432Z" fill="#001D21" />
<path d="M8.66434 15.3648C8.45125 15.1324 8.15038 15 7.83504 15H6V9.18198L4.85224 8.03422C4.63244 8.29516 4.5 8.63211 4.5 9V11.25H3V9C3 8.58579 2.66421 8.25 2.25 8.25C1.83579 8.25 1.5 8.58579 1.5 9V15C1.5 15.4142 1.83579 15.75 2.25 15.75C2.66421 15.75 3 15.4142 3 15V12.75H4.5V15C4.5 15.8284 5.17157 16.5 6 16.5H7.67007L9.9742 19.0136C10.2583 19.3235 10.6595 19.5 11.0799 19.5H15.75C15.9205 19.5 16.0844 19.4715 16.2371 19.4191L14.818 18H11.0799L8.66434 15.3648Z" fill="#001D21" />
</svg>