<svg xmlns="http://www.w3.org/2000/svg" width="24" height="24" viewBox="0 0 24 24" fill="none">
<path fill-rule="evenodd" clip-rule="evenodd" d="M9.79307 8.34832C8.83716 8.26866 7.81218 7.95416 7.11065 7.25262C6.40912 6.55109 6.09462 5.52611 6.01496 4.5702C5.9758 4.1003 5.99633 3.67659 6.04239 3.3634C6.05852 3.25367 6.07685 3.16401 6.09446 3.09495C6.16352 3.07734 6.25318 3.05901 6.36291 3.04288C6.6761 2.99682 7.09981 2.97629 7.56971 3.01545C8.52562 3.09511 9.5506 3.40961 10.2521 4.11114C10.9537 4.81267 11.2682 5.83765 11.3478 6.79356C11.387 7.26346 11.3664 7.68717 11.3204 8.00037C11.3043 8.1101 11.2859 8.19975 11.2683 8.26882C11.1993 8.28643 11.1096 8.30475 10.9999 8.32089C10.6867 8.36695 10.263 8.38747 9.79307 8.34832ZM12.7495 12.2943V11.2155C12.8356 10.279 13.1471 9.28388 13.8255 8.59846C14.5176 7.89916 15.5288 7.58565 16.4718 7.50625C16.9354 7.46721 17.3534 7.48768 17.6623 7.53359C17.7706 7.54967 17.8591 7.56794 17.9272 7.58549C17.9446 7.65434 17.9626 7.74371 17.9786 7.85309C18.024 8.16529 18.0442 8.58766 18.0056 9.05607C17.927 10.0089 17.6168 11.0307 16.9247 11.73C16.2326 12.4293 15.2214 12.7428 14.2784 12.8222C13.8148 12.8612 13.3968 12.8408 13.0878 12.7949C12.9796 12.7788 12.8911 12.7605 12.823 12.743C12.8056 12.6741 12.7875 12.5847 12.7716 12.4754C12.7633 12.4185 12.7559 12.3581 12.7495 12.2943ZM11.2495 11.7684V21.75C11.2495 22.1642 11.5853 22.5 11.9995 22.5C12.4137 22.5 12.7495 22.1642 12.7495 21.75V14.249C12.7902 14.2561 12.8315 14.2628 12.8733 14.269C13.2977 14.3321 13.8289 14.3552 14.4008 14.3071C15.5288 14.2121 16.9337 13.8281 17.9674 12.7836C19.0011 11.7391 19.3812 10.3195 19.4752 9.17981C19.5228 8.60194 19.4999 8.06522 19.4375 7.6363C19.4064 7.42277 19.3636 7.2225 19.3087 7.05028C19.2647 6.91219 19.1787 6.67624 19.0029 6.49858C18.8271 6.32092 18.5935 6.23407 18.4569 6.18957C18.2864 6.13408 18.0882 6.09082 17.8769 6.05942C17.4524 5.99634 16.9212 5.97321 16.3493 6.02137C15.2496 6.11397 13.8866 6.48132 12.861 7.46768C12.8673 7.21601 12.8606 6.94747 12.8374 6.66943C12.7421 5.52611 12.3569 4.102 11.3091 3.05418C10.2613 2.00636 8.83716 1.62112 7.69385 1.52585C7.11414 1.47754 6.57571 1.50074 6.14543 1.56402C5.93121 1.59552 5.73031 1.63892 5.55754 1.69458C5.41901 1.73922 5.18231 1.82635 5.00408 2.00457C4.82586 2.1828 4.73873 2.4195 4.69409 2.55803C4.63843 2.7308 4.59503 2.9317 4.56353 3.14592C4.50025 3.5762 4.47705 4.11463 4.52536 4.69434C4.62063 5.83765 5.00587 7.26176 6.05369 8.30958C7.10151 9.3574 8.52562 9.74264 9.66894 9.83792C10.2486 9.88623 10.7871 9.86302 11.2173 9.79975L11.2495 9.79491V11.763C11.2495 11.7648 11.2495 11.7666 11.2495 11.7684Z" fill="#001D21" />
</svg>