<svg xmlns="http://www.w3.org/2000/svg" width="24" height="24" viewBox="0 0 24 24" fill="none">
<path fill-rule="evenodd" clip-rule="evenodd" d="M16.8151 13.6324C17.2254 13.4156 17.6184 13.1375 17.9687 12.7836C19.0024 11.7391 19.3824 10.3195 19.4764 9.17981C19.5241 8.60194 19.5012 8.06522 19.4388 7.6363C19.4077 7.42277 19.3649 7.2225 19.31 7.05028C19.2659 6.91219 19.18 6.67624 19.0041 6.49858C18.8283 6.32092 18.5948 6.23407 18.4581 6.18957C18.2877 6.13408 18.0895 6.09082 17.8782 6.05942C17.4537 5.99634 16.9225 5.97321 16.3506 6.02137C15.2509 6.11397 13.8879 6.48132 12.8623 7.46768C12.8686 7.21601 12.8619 6.94747 12.8387 6.66943C12.7434 5.52611 12.3582 4.102 11.3103 3.05418C10.2625 2.00636 8.83842 1.62112 7.6951 1.52585C7.11539 1.47754 6.57696 1.50074 6.14668 1.56402C5.93247 1.59552 5.73156 1.63892 5.5588 1.69458C5.44429 1.73148 5.26272 1.7974 5.10254 1.9198L6.24527 3.06253C6.28184 3.05576 6.32148 3.04915 6.36416 3.04288C6.67735 2.99682 7.10107 2.97629 7.57097 3.01545C8.52687 3.09511 9.55186 3.40961 10.2534 4.11114C10.9549 4.81267 11.2694 5.83765 11.3491 6.79356C11.3882 7.26346 11.3677 7.68717 11.3217 8.00037C11.3154 8.04304 11.3088 8.08268 11.302 8.11926L13.0472 9.86447C13.2214 9.39337 13.4747 8.9542 13.8267 8.59846C14.5188 7.89916 15.53 7.58565 16.4731 7.50625C16.9366 7.46721 17.3546 7.48768 17.6636 7.53359C17.7719 7.54967 17.8603 7.56794 17.9284 7.58549C17.9458 7.65434 17.9639 7.74371 17.9798 7.85309C18.0253 8.16529 18.0455 8.58766 18.0069 9.05607C17.9283 10.0089 17.618 11.0307 16.9259 11.73C16.5789 12.0807 16.1516 12.3343 15.6928 12.5101L16.8151 13.6324ZM11.2508 14.432V21.75C11.2508 22.1642 11.5865 22.5 12.0008 22.5C12.415 22.5 12.7508 22.1642 12.7508 21.75V15.932L11.2508 14.432Z" fill="#001D21" />
<path fill-rule="evenodd" clip-rule="evenodd" d="M1.71967 1.71967C2.01256 1.42678 2.48744 1.42678 2.78033 1.71967L22.2803 21.2197C22.5732 21.5126 22.5732 21.9874 22.2803 22.2803C21.9874 22.5732 21.5126 22.5732 21.2197 22.2803L1.71967 2.78033C1.42678 2.48744 1.42678 2.01256 1.71967 1.71967Z" fill="#001D21" />
</svg>