<svg xmlns="http://www.w3.org/2000/svg" width="24" height="24" viewBox="0 0 24 24" fill="none">
<path fill-rule="evenodd" clip-rule="evenodd" d="M1.5 4.5C1.5 3.67157 2.17179 3 3.00049 3H8.2522C8.66655 3 9.00244 3.33579 9.00244 3.75C9.00244 4.16421 8.66655 4.5 8.2522 4.5H3.00049V19.5H8.2522C8.66655 19.5 9.00244 19.8358 9.00244 20.25C9.00244 20.6642 8.66655 21 8.2522 21H3.00049C2.17179 21 1.5 20.3284 1.5 19.5V4.5Z" fill="#001D21" />
<path fill-rule="evenodd" clip-rule="evenodd" d="M13.2773 3.21967C13.5703 2.92678 14.0453 2.92678 14.3383 3.21967L22.0605 10.9393C22.6465 11.5251 22.6465 12.4749 22.0605 13.0607L14.3383 20.7803C14.0453 21.0732 13.5703 21.0732 13.2773 20.7803C12.9843 20.4874 12.9843 20.0126 13.2773 19.7197L20.2493 12.75H6.75171C6.33736 12.75 6.00146 12.4142 6.00146 12C6.00146 11.5858 6.33736 11.25 6.75171 11.25H20.2493L13.2773 4.28033C12.9843 3.98744 12.9843 3.51256 13.2773 3.21967Z" fill="#001D21" />
</svg>