<svg xmlns="http://www.w3.org/2000/svg" width="24" height="24" viewBox="0 0 24 24" fill="none">
<path d="M21 17.818V15.7478C21 15.3334 20.6642 14.9975 20.25 14.9975C19.8358 14.9975 19.5 15.3334 19.5 15.7478V16.318L21 17.818Z" fill="#001D21" />
<path d="M12.75 9.56802V3.75073L19.7197 10.7227C20.0126 11.0156 20.4874 11.0156 20.7803 10.7227C21.0732 10.4296 21.0732 9.95467 20.7803 9.66165L13.0606 1.93948C12.4749 1.3535 11.5251 1.35351 10.9394 1.93948L8.03088 4.84889L9.09171 5.90973L11.25 3.75073V8.06802L12.75 9.56802Z" fill="#001D21" />
<path d="M11.25 14.432L12.75 15.932V17.2483C12.75 17.6626 12.4142 17.9985 12 17.9985C11.5858 17.9985 11.25 17.6626 11.25 17.2483V14.432Z" fill="#001D21" />
<path d="M5.91025 9.09223L4.84941 8.03139L3.21967 9.66165C2.92678 9.95467 2.92678 10.4296 3.21967 10.7227C3.51257 11.0156 3.98743 11.0156 4.28033 10.7227L5.91025 9.09223Z" fill="#001D21" />
<path d="M17.8175 20.9995L19.318 22.5H4.5C3.67157 22.5 3 21.8282 3 20.9995V15.7478C3 15.3334 3.33579 14.9975 3.75 14.9975C4.16421 14.9975 4.5 15.3334 4.5 15.7478V20.9995H17.8175Z" fill="#001D21" />
<path fill-rule="evenodd" clip-rule="evenodd" d="M1.71967 1.71967C2.01256 1.42678 2.48744 1.42678 2.78033 1.71967L22.2803 21.2197C22.5732 21.5126 22.5732 21.9874 22.2803 22.2803C21.9874 22.5732 21.5126 22.5732 21.2197 22.2803L1.71967 2.78033C1.42678 2.48744 1.42678 2.01256 1.71967 1.71967Z" fill="#001D21" />
</svg>