<svg xmlns="http://www.w3.org/2000/svg" width="24" height="24" viewBox="0 0 24 24" fill="none">
<path fill-rule="evenodd" clip-rule="evenodd" d="M4.5 22.5C3.67157 22.5 3 21.8282 3 20.9995V15.7478C3 15.3335 3.33579 14.9976 3.75 14.9976C4.16421 14.9976 4.5 15.3335 4.5 15.7478V20.9995H19.5V15.7478C19.5 15.3335 19.8358 14.9976 20.25 14.9976C20.6642 14.9976 21 15.3335 21 15.7478V20.9995C21 21.8282 20.3284 22.5 19.5 22.5H4.5Z" fill="#001D21" />
<path fill-rule="evenodd" clip-rule="evenodd" d="M3.21967 10.7227C2.92678 10.4297 2.92678 9.95466 3.21967 9.66167L10.9393 1.93948C11.5251 1.35351 12.4749 1.3535 13.0607 1.93948L20.7803 9.66167C21.0732 9.95466 21.0732 10.4297 20.7803 10.7227C20.4874 11.0157 20.0126 11.0157 19.7197 10.7227L12.75 3.75073V17.2483C12.75 17.6626 12.4142 17.9985 12 17.9985C11.5858 17.9985 11.25 17.6626 11.25 17.2483V3.75073L4.28033 10.7227C3.98744 11.0157 3.51256 11.0157 3.21967 10.7227Z" fill="#001D21" />
</svg>