<svg xmlns="http://www.w3.org/2000/svg" width="24" height="24" viewBox="0 0 24 24" fill="none">
<path fill-rule="evenodd" clip-rule="evenodd" d="M3.04642 12C3.85982 14.1316 6.64114 18 12 18C17.3589 18 20.1402 14.1316 20.9536 12C20.1402 9.86835 17.3589 6 12 6C6.64114 6 3.85982 9.86835 3.04642 12ZM1.53849 11.7628C2.34964 9.3294 5.56429 4.5 12 4.5C18.4357 4.5 21.6504 9.3294 22.4615 11.7628C22.5128 11.9167 22.5128 12.0833 22.4615 12.2372C21.6504 14.6706 18.4357 19.5 12 19.5C5.56429 19.5 2.34964 14.6706 1.53849 12.2372C1.48717 12.0833 1.48717 11.9167 1.53849 11.7628Z" fill="#001D21" />
<path fill-rule="evenodd" clip-rule="evenodd" d="M12 9.75C10.7573 9.75 9.75 10.7573 9.75 12C9.75 13.2427 10.7573 14.25 12 14.25C13.2427 14.25 14.25 13.2427 14.25 12C14.25 10.7573 13.2427 9.75 12 9.75ZM8.25 12C8.25 9.92895 9.92895 8.25 12 8.25C14.0711 8.25 15.75 9.92895 15.75 12C15.75 14.0711 14.0711 15.75 12 15.75C9.92895 15.75 8.25 14.0711 8.25 12Z" fill="#001D21" />
</svg>