<svg xmlns="http://www.w3.org/2000/svg" width="24" height="24" viewBox="0 0 24 24" fill="none">
<path d="M19.6646 16.4826C21.1778 15.036 22.0823 13.3748 22.4615 12.2372C22.5128 12.0833 22.5128 11.9167 22.4615 11.7628C21.6504 9.3294 18.4357 4.5 12 4.5C10.6139 4.5 9.37726 4.72401 8.28181 5.09986L9.48939 6.30736C10.2539 6.11162 11.0897 6 12 6C17.3589 6 20.1402 9.86835 20.9536 12C20.5875 12.9593 19.823 14.2703 18.6042 15.4223L19.6646 16.4826Z" fill="#001D21" />
<path d="M15.7127 12.5308C15.7373 12.3574 15.75 12.1802 15.75 12C15.75 9.92895 14.071 8.25 12 8.25C11.8198 8.25 11.6426 8.26267 11.4692 8.28727L15.7127 12.5308Z" fill="#001D21" />
<path d="M8.28728 11.4688L12.5308 15.7122C12.3574 15.7368 12.1802 15.7495 12 15.7495C9.92895 15.7495 8.25 14.0706 8.25 11.9995C8.25 11.8194 8.26268 11.6421 8.28728 11.4688Z" fill="#001D21" />
<path d="M5.39579 8.57775C4.17707 9.72968 3.41247 11.0407 3.04642 12C3.85982 14.1317 6.64114 18 12 18C12.9103 18 13.7462 17.8884 14.5106 17.6927L15.7182 18.9002C14.6228 19.276 13.3861 19.5 12 19.5C5.56429 19.5 2.34964 14.6706 1.53849 12.2372C1.48717 12.0833 1.48717 11.9168 1.53849 11.7629C1.91769 10.6253 2.82215 8.964 4.3354 7.5174L5.39579 8.57775Z" fill="#001D21" />
<path fill-rule="evenodd" clip-rule="evenodd" d="M1.71967 1.71967C2.01257 1.42678 2.48744 1.42678 2.78033 1.71967L22.2803 21.2197C22.5732 21.5126 22.5732 21.9874 22.2803 22.2803C21.9875 22.5732 21.5126 22.5732 21.2197 22.2803L1.71967 2.78033C1.42678 2.48743 1.42678 2.01257 1.71967 1.71967Z" fill="#001D21" />
</svg>