<svg xmlns="http://www.w3.org/2000/svg" width="24" height="24" viewBox="0 0 24 24" fill="none">
<path fill-rule="evenodd" clip-rule="evenodd" d="M12 3C7.02944 3 3 7.02944 3 12C3 16.9706 7.02944 21 12 21C16.9706 21 21 16.9706 21 12C21 7.02944 16.9706 3 12 3ZM1.5 12C1.5 6.20101 6.20101 1.5 12 1.5C17.799 1.5 22.5 6.20101 22.5 12C22.5 17.799 17.799 22.5 12 22.5C6.20101 22.5 1.5 17.799 1.5 12ZM7.5 10.5C7.5 9.67157 8.17157 9 9 9C9.82843 9 10.5 9.67157 10.5 10.5C10.5 11.3284 9.82843 12 9 12C8.17157 12 7.5 11.3284 7.5 10.5ZM13.5 10.5C13.5 9.67157 14.1716 9 15 9C15.8284 9 16.5 9.67157 16.5 10.5C16.5 11.3284 15.8284 12 15 12C14.1716 12 13.5 11.3284 13.5 10.5ZM7.02154 14.4224C7.34051 14.1582 7.81331 14.2026 8.07756 14.5215C9.14602 15.8113 10.5615 16.5 12 16.5C13.4385 16.5 14.854 15.8113 15.9224 14.5215C16.1867 14.2026 16.6595 14.1582 16.9785 14.4224C17.2974 14.6867 17.3418 15.1595 17.0776 15.4785C15.7591 17.07 13.9372 18 12 18C10.0628 18 8.24093 17.07 6.92244 15.4785C6.65819 15.1595 6.70256 14.6867 7.02154 14.4224Z" fill="#001D21" />
</svg>