<svg xmlns="http://www.w3.org/2000/svg" width="24" height="24" viewBox="0 0 24 24" fill="none">
<path fill-rule="evenodd" clip-rule="evenodd" d="M12 3C7.02944 3 3 7.02944 3 12C3 16.9706 7.02944 21 12 21C16.9706 21 21 16.9706 21 12C21 7.02944 16.9706 3 12 3ZM1.5 12C1.5 6.20101 6.20101 1.5 12 1.5C17.799 1.5 22.5 6.20101 22.5 12C22.5 17.799 17.799 22.5 12 22.5C6.20101 22.5 1.5 17.799 1.5 12ZM7.5 10.5C7.5 9.67157 8.17157 9 9 9C9.82843 9 10.5 9.67157 10.5 10.5C10.5 11.3284 9.82843 12 9 12C8.17157 12 7.5 11.3284 7.5 10.5ZM13.5 10.5C13.5 9.67157 14.1716 9 15 9C15.8284 9 16.5 9.67157 16.5 10.5C16.5 11.3284 15.8284 12 15 12C14.1716 12 13.5 11.3284 13.5 10.5ZM6.75 15.75C6.75 15.3358 7.08579 15 7.5 15H16.5C16.9142 15 17.25 15.3358 17.25 15.75C17.25 16.1642 16.9142 16.5 16.5 16.5H7.5C7.08579 16.5 6.75 16.1642 6.75 15.75Z" fill="#001D21" />
</svg>