<svg xmlns="http://www.w3.org/2000/svg" width="24" height="24" viewBox="0 0 24 24" fill="none">
<path fill-rule="evenodd" clip-rule="evenodd" d="M12 3C7.02944 3 3 7.02944 3 12C3 16.9706 7.02944 21 12 21C16.9706 21 21 16.9706 21 12C21 7.02944 16.9706 3 12 3ZM1.5 12C1.5 6.20101 6.20101 1.5 12 1.5C17.799 1.5 22.5 6.20101 22.5 12C22.5 17.799 17.799 22.5 12 22.5C6.20101 22.5 1.5 17.799 1.5 12ZM7.5 10.5C7.5 9.67157 8.17157 9 9 9C9.82843 9 10.5 9.67157 10.5 10.5C10.5 11.3284 9.82843 12 9 12C8.17157 12 7.5 11.3284 7.5 10.5ZM13.5 10.5C13.5 9.67157 14.1716 9 15 9C15.8284 9 16.5 9.67157 16.5 10.5C16.5 11.3284 15.8284 12 15 12C14.1716 12 13.5 11.3284 13.5 10.5ZM12 15.75C10.5615 15.75 9.14602 16.4387 8.07756 17.7285C7.81331 18.0474 7.34051 18.0918 7.02154 17.8276C6.70256 17.5633 6.65819 17.0905 6.92244 16.7715C8.24093 15.18 10.0628 14.25 12 14.25C13.9372 14.25 15.7591 15.18 17.0776 16.7715C17.3418 17.0905 17.2974 17.5633 16.9785 17.8276C16.6595 18.0918 16.1867 18.0474 15.9224 17.7285C14.854 16.4387 13.4385 15.75 12 15.75Z" fill="#001D21" />
</svg>