<svg xmlns="http://www.w3.org/2000/svg" width="24" height="24" viewBox="0 0 24 24" fill="none">
<path fill-rule="evenodd" clip-rule="evenodd" d="M5.18608 4.49997L4.50294 19.4997H19.4971V9.30066L14.7803 12.5371C14.2319 12.9134 13.4855 12.5215 13.4855 11.8573V9.30066L8.75627 12.5456C8.23683 12.902 7.52486 12.5703 7.4651 11.944L6.75475 4.49997H5.18608ZM8.78303 9.93433L8.78447 9.9342L8.25298 4.02441C8.20082 3.4444 7.71379 3 7.13031 3H4.82704C4.22442 3 3.72839 3.47307 3.70103 4.0739L3.00158 19.4316C2.96268 20.2859 3.64612 20.9997 4.50294 20.9997H19.4971C20.3271 20.9997 21 20.3281 21 19.4997V8.01749C21 7.35323 20.2536 6.96134 19.7051 7.33767L14.9884 10.5741V8.01749C14.9884 7.35323 14.2419 6.96134 13.6935 7.33767L8.85223 10.6595L8.78303 9.93433Z" fill="#001D21" />
<path fill-rule="evenodd" clip-rule="evenodd" d="M8.22509 15C8.6401 15 8.97654 15.3358 8.97654 15.75V16.5C8.97654 16.9142 8.6401 17.25 8.22509 17.25C7.81007 17.25 7.47363 16.9142 7.47363 16.5V15.75C7.47363 15.3358 7.81007 15 8.22509 15ZM11.9824 15C12.3974 15 12.7338 15.3358 12.7338 15.75V16.5C12.7338 16.9142 12.3974 17.25 11.9824 17.25C11.5673 17.25 11.2309 16.9142 11.2309 16.5V15.75C11.2309 15.3358 11.5673 15 11.9824 15ZM15.7396 15C16.1546 15 16.4911 15.3358 16.4911 15.75V16.5C16.4911 16.9142 16.1546 17.25 15.7396 17.25C15.3246 17.25 14.9882 16.9142 14.9882 16.5V15.75C14.9882 15.3358 15.3246 15 15.7396 15Z" fill="#001D21" />
</svg>