<svg xmlns="http://www.w3.org/2000/svg" width="24" height="24" viewBox="0 0 24 24" fill="none">
<path d="M2.78033 1.71967C2.48744 1.42678 2.01256 1.42678 1.71967 1.71967C1.42678 2.01256 1.42678 2.48744 1.71967 2.78033L15 16.0606V16.5C15 16.9142 15.3358 17.25 15.75 17.25C15.8772 17.25 15.9969 17.2183 16.1019 17.1625L21.2197 22.2803C21.5126 22.5732 21.9874 22.5732 22.2803 22.2803C22.5732 21.9874 22.5732 21.5126 22.2803 21.2197L2.78033 1.71967Z" fill="#001D21" />
<path d="M19.5003 16.3183L21.0003 17.8183V8.01758C21.0003 7.35331 20.2553 6.96141 19.7079 7.33775L15.0003 10.5742V8.01758C15.0003 7.35331 14.2553 6.96141 13.7079 7.33774L11.8186 8.63665L12.8973 9.71534L13.5003 9.30077V10.3183L15.3418 12.1598L19.5003 9.30077V16.3183Z" fill="#001D21" />
<path d="M9.12608 12.3081L7.35787 10.5398L7.49161 11.9442C7.55126 12.5705 8.26185 12.9022 8.78028 12.5458L9.12608 12.3081Z" fill="#001D21" />
<path d="M5.04749 8.22947L3.61122 6.7932L3.03674 19.4319C2.9979 20.2862 3.68003 21 4.53519 21H17.818L16.318 19.5H4.53519L5.04749 8.22947Z" fill="#001D21" />
<path d="M6.18198 3L8.38364 5.20166L8.27797 4.02443C8.22591 3.44441 7.73982 3 7.15748 3H6.18198Z" fill="#001D21" />
<path d="M8.25 15C8.66421 15 9 15.3358 9 15.75V16.5C9 16.9142 8.66421 17.25 8.25 17.25C7.83579 17.25 7.5 16.9142 7.5 16.5V15.75C7.5 15.3358 7.83579 15 8.25 15Z" fill="#001D21" />
<path d="M12 15C12.4142 15 12.75 15.3358 12.75 15.75V16.5C12.75 16.9142 12.4142 17.25 12 17.25C11.5858 17.25 11.25 16.9142 11.25 16.5V15.75C11.25 15.3358 11.5858 15 12 15Z" fill="#001D21" />
</svg>