<svg width="32" height="32" viewBox="0 0 32 32" fill="none" xmlns="http://www.w3.org/2000/svg">
<path fill-rule="evenodd" clip-rule="evenodd" d="M27.6532 26.212C28.0713 26.5726 28.1179 27.2039 27.7573 27.622C27.3967 28.0401 26.7654 28.0867 26.3473 27.7261L25.6506 27.1252C23.1496 24.9682 19.5276 24.7134 16.7492 26.4991C13.5232 28.5725 9.43694 28.462 6.3615 26.3933L6.28692 26.4018L6.27959 26.3376C5.74486 25.9697 5.24157 25.542 4.77971 25.0556L4.27477 24.5238C3.89458 24.1234 3.91094 23.4906 4.31133 23.1104C4.71172 22.7302 5.34447 22.7466 5.72466 23.147L5.94213 23.376L5.12267 16.1852C5.00353 15.1399 5.71502 14.181 6.75005 13.992L8.07988 13.7491L8.91246 7.72417C9.04912 6.7351 9.89458 5.99846 10.8931 5.99846H16.9992V4.99871C16.9992 4.44659 17.4468 3.99902 17.9989 3.99902C18.551 3.99902 18.9986 4.44659 18.9986 4.99871V5.99847H21.1059C22.1044 5.99847 22.9498 6.7351 23.0865 7.72418L23.9189 13.748L25.2553 13.9919C26.2914 14.1809 27.0032 15.1413 26.8827 16.1875L25.8894 24.8141C26.2594 25.0518 26.6161 25.3176 26.9564 25.6111L27.6532 26.212ZM15 25.1997V14.5177L7.10924 15.9589L8.15544 25.1393C10.2618 26.2509 12.8181 26.3041 15 25.1997ZM16.3581 12.3683L21.8483 13.3701L21.1059 7.99785H10.8931L10.1506 13.3709L15.6399 12.3683C15.8774 12.325 16.1207 12.325 16.3581 12.3683ZM23.9849 23.8746L24.8964 15.9588L16.9994 14.5178V24.1042C19.2316 23.1294 21.7356 23.0652 23.9849 23.8746Z" fill="#0D0F13"/>
</svg>
