<svg xmlns="http://www.w3.org/2000/svg" width="24" height="24" viewBox="0 0 24 24" fill="none">
<path fill-rule="evenodd" clip-rule="evenodd" d="M14.249 3.74979C14.249 3.33569 13.9133 3 13.4992 3C13.0851 3 12.7494 3.33569 12.7494 3.74979V4.49957H8.1698C7.42093 4.49957 6.78686 5.05205 6.68434 5.79387L6.0599 10.3126L5.06253 10.4947C4.28626 10.6365 3.75268 11.3556 3.84202 12.1397L4.45659 17.5327L4.2935 17.361C4.00837 17.0607 3.53378 17.0484 3.2335 17.3336C2.93321 17.6187 2.92094 18.0933 3.20607 18.3936L3.5848 18.7924C3.9312 19.1572 4.30867 19.478 4.70971 19.754L4.7152 19.8021L4.77112 19.7957C7.0777 21.3473 10.1424 21.4301 12.5619 19.875C14.6457 18.5358 17.3622 18.7269 19.2379 20.3446L19.7605 20.7953C20.0741 21.0658 20.5475 21.0308 20.818 20.7172C21.0884 20.4037 21.0535 19.9302 20.7399 19.6598L20.2173 19.2091C19.9621 18.9889 19.6945 18.7896 19.417 18.6113L20.162 12.1414C20.2524 11.3567 19.7185 10.6364 18.9415 10.4946L17.9392 10.3117L17.3149 5.79387C17.2123 5.05205 16.5783 4.49957 15.8294 4.49957H14.249V3.74979ZM17.9887 17.9067L18.6723 11.9698L12.7496 10.8891V18.0789C14.4237 17.3477 16.3017 17.2996 17.9887 17.9067ZM11.25 18.9005V10.889L5.33196 11.9699L6.11658 18.8552C7.69636 19.6889 9.61354 19.7288 11.25 18.9005ZM8.1698 5.99915L7.61292 10.0289L11.73 9.27698C11.908 9.24446 12.0905 9.24445 12.2686 9.27694L16.3862 10.0283L15.8294 5.99915H8.1698Z" fill="#001D21" />
</svg>