<svg xmlns="http://www.w3.org/2000/svg" width="24" height="24" viewBox="0 0 24 24" fill="none">
<path d="M19.6604 16.4785L20.1598 12.1414C20.2502 11.3567 19.7164 10.6364 18.9393 10.4946L17.937 10.3117L17.3127 5.79387C17.2102 5.05205 16.5761 4.49957 15.8272 4.49957H14.2468V3.74979C14.2468 3.33569 13.9111 3 13.497 3C13.0829 3 12.7472 3.33569 12.7472 3.74979V4.49957H8.1676C8.0205 4.49957 7.87783 4.52089 7.74275 4.56077L9.18113 5.99915H15.8272L16.384 10.0283L12.5019 9.31992L14.3665 11.1845L18.6701 11.9698L18.3068 15.1248L19.6604 16.4785Z" fill="#001D21" />
<path d="M12.7474 15.9294L11.2478 14.4298V18.9005C9.61134 19.7288 7.69416 19.6889 6.11438 18.8552L5.32976 11.9699L8.25385 11.4358L6.18796 9.36994L6.0577 10.3126L5.06033 10.4947C4.28406 10.6365 3.75048 11.3556 3.83983 12.1397L4.4544 17.5327L4.29131 17.361C4.00617 17.0607 3.53159 17.0484 3.2313 17.3336C2.93102 17.6187 2.91874 18.0933 3.20388 18.3936L3.58261 18.7924C3.929 19.1572 4.30647 19.478 4.70752 19.754L4.713 19.8021L4.76892 19.7957C7.0755 21.3473 10.1402 21.4301 12.5597 19.875C13.5526 19.2369 14.689 18.9462 15.8098 18.9917L14.404 17.5859C13.8395 17.6809 13.283 17.8449 12.7474 18.0789V15.9294Z" fill="#001D21" />
<path d="M1.71967 1.71967C2.01256 1.42678 2.48744 1.42678 2.78033 1.71967L22.2803 21.2197C22.5732 21.5126 22.5732 21.9874 22.2803 22.2803C21.9874 22.5732 21.5126 22.5732 21.2197 22.2803L1.71967 2.78033C1.42678 2.48744 1.42678 2.01256 1.71967 1.71967Z" fill="#001D21" />
</svg>