<svg xmlns="http://www.w3.org/2000/svg" width="24" height="24" viewBox="0 0 24 24" fill="none">
<path d="M22.1747 18.993C22.3711 18.8578 22.4997 18.6314 22.4997 18.375C22.4997 17.9608 22.1639 17.625 21.7497 17.625H20.8067L22.1747 18.993Z" fill="#001D21" />
<path d="M17.4519 14.2712C18.0187 13.9382 18.4496 13.3986 18.6409 12.7558H21.7496C22.1638 12.7558 22.4996 12.42 22.4996 12.0058C22.4996 11.5916 22.1638 11.2558 21.7496 11.2558H18.6409C18.3182 10.1715 17.3137 9.38086 16.1246 9.38086C15.159 9.38086 14.3153 9.90218 13.8594 10.6787L15.013 11.8322C15.0964 11.2934 15.5624 10.8809 16.1246 10.8809C16.746 10.8809 17.2496 11.3845 17.2496 12.0058C17.2496 12.5681 16.8371 13.0341 16.2983 13.1176L17.4519 14.2712Z" fill="#001D21" />
<path d="M8.07256 11.2559L9.57256 12.7559H2.24951C1.8353 12.7559 1.49951 12.4201 1.49951 12.0059C1.49951 11.5916 1.8353 11.2559 2.24951 11.2559H8.07256Z" fill="#001D21" />
<path d="M9.621 6.43927C9.62685 6.4213 9.63255 6.40324 9.63802 6.38509H21.7503C22.1645 6.38509 22.5003 6.04931 22.5003 5.63509C22.5003 5.22088 22.1645 4.88509 21.7503 4.88509H9.64402C9.32452 3.79561 8.31757 3 7.12472 3C6.84048 3 6.56679 3.04518 6.31044 3.12874L9.621 6.43927Z" fill="#001D21" />
<path d="M1.83055 5.01367L3.20272 6.38583H2.24951C1.8353 6.38583 1.49951 6.05005 1.49951 5.63583C1.49951 5.37679 1.63084 5.14842 1.83055 5.01367Z" fill="#001D21" />
<path fill-rule="evenodd" clip-rule="evenodd" d="M14.4427 17.625L15.9427 19.125H11.141C10.8183 20.2093 9.8139 21.0001 8.6247 21.0001C7.43559 21.0001 6.43114 20.2094 6.10843 19.1251H2.24972C1.83551 19.1251 1.49972 18.7893 1.49972 18.3751C1.49972 17.9608 1.83551 17.6251 2.24972 17.6251H6.10843C6.43113 16.5408 7.43556 15.75 8.6247 15.75C9.81382 15.75 10.8183 16.5407 11.141 17.625H14.4427ZM8.6247 17.25C8.00347 17.25 7.49972 17.7537 7.49972 18.3751C7.49972 18.9964 8.0034 19.5001 8.6247 19.5001C9.246 19.5001 9.7497 18.9964 9.7497 18.375C9.7497 17.7537 9.24607 17.25 8.6247 17.25Z" fill="#001D21" />
<path fill-rule="evenodd" clip-rule="evenodd" d="M1.7194 1.71967C2.01229 1.42678 2.48716 1.42678 2.78005 1.71967L22.28 21.2197C22.573 21.5126 22.573 21.9874 22.28 22.2803C21.9871 22.5732 21.5123 22.5732 21.2194 22.2803L1.7194 2.78033C1.4265 2.48743 1.4265 2.01257 1.7194 1.71967Z" fill="#001D21" />
</svg>