<svg xmlns="http://www.w3.org/2000/svg" width="24" height="24" viewBox="0 0 24 24" fill="none">
<path fill-rule="evenodd" clip-rule="evenodd" d="M9.35042 6.39258C9.02643 7.49848 8.00439 8.30613 6.79372 8.30613C5.58305 8.30613 4.56102 7.49848 4.23703 6.39258L2.24316 6.39258C1.82895 6.39258 1.49316 6.05679 1.49316 5.64258C1.49316 5.22836 1.82895 4.89258 2.24316 4.89258L4.23688 4.89258C4.56071 3.78642 5.58287 2.97852 6.79372 2.97852C8.00458 2.97852 9.02674 3.78642 9.35057 4.89258L21.7648 4.89258C22.179 4.89258 22.5148 5.22836 22.5148 5.64258C22.5148 6.05679 22.179 6.39258 21.7648 6.39258L9.35042 6.39258ZM7.95753 5.64232C7.95753 6.28508 7.43648 6.80613 6.79372 6.80613C6.15097 6.80613 5.62992 6.28508 5.62992 5.64232C5.62992 4.99957 6.15097 4.47852 6.79372 4.47852C7.43648 4.47852 7.95753 4.99957 7.95753 5.64232Z" fill="#001D21" />
<path fill-rule="evenodd" clip-rule="evenodd" d="M18.5562 11.0998L21.764 11.0998C22.2611 11.0998 22.664 11.5028 22.664 11.9998C22.664 12.4969 22.2611 12.8998 21.764 12.8998L18.5561 12.8998C18.187 13.9281 17.2035 14.6636 16.0482 14.6636C14.8929 14.6636 13.9094 13.9281 13.5403 12.8999L2.38194 12.8999C1.88488 12.8999 1.48193 12.497 1.48193 11.9999C1.48193 11.5029 1.88487 11.0999 2.38193 11.0999L13.5402 11.0999C13.9093 10.0715 14.8928 9.33594 16.0482 9.33594C17.2036 9.33594 18.1871 10.0715 18.5562 11.0998ZM17.2034 12.1421C17.1332 12.7177 16.6428 13.1636 16.0482 13.1636C15.4055 13.1636 14.8844 12.6425 14.8844 11.9997C14.8844 11.357 15.4055 10.8359 16.0482 10.8359C16.6428 10.8359 17.1333 11.2818 17.2034 11.8575C17.196 11.9038 17.1922 11.9514 17.1922 11.9998C17.1922 12.0482 17.196 12.0958 17.2034 12.1421Z" fill="#001D21" />
<path fill-rule="evenodd" clip-rule="evenodd" d="M10.9036 19.1176C10.5801 20.2243 9.55767 21.0327 8.34643 21.0327C7.13576 21.0327 6.11372 20.225 5.78973 19.1191H2.24219C1.82797 19.1191 1.49219 18.7834 1.49219 18.3691C1.49219 17.9549 1.82797 17.6191 2.24219 17.6191H5.78958C6.11341 16.513 7.13557 15.7051 8.34643 15.7051C9.55785 15.7051 10.5804 16.5137 10.9037 17.6207C10.9199 17.6197 10.9362 17.6191 10.9526 17.6191L21.7648 17.6191C22.1791 17.6191 22.5148 17.9549 22.5148 18.3691C22.5148 18.7834 22.1791 19.1191 21.7648 19.1191L10.9526 19.1191C10.9362 19.1191 10.9198 19.1186 10.9036 19.1176ZM9.51023 18.3689C9.51023 19.0116 8.98918 19.5327 8.34643 19.5327C7.70367 19.5327 7.18262 19.0116 7.18262 18.3689C7.18262 17.7261 7.70367 17.2051 8.34643 17.2051C8.98918 17.2051 9.51023 17.7261 9.51023 18.3689Z" fill="#001D21" />
</svg>