<svg width="32" height="32" viewBox="0 0 32 32" fill="none" xmlns="http://www.w3.org/2000/svg">
<path fill-rule="evenodd" clip-rule="evenodd" d="M18.4353 2.39192C19.1556 1.51756 20.5617 2.22813 20.2842 3.32636L17.8426 12.9921H24.8857C25.8254 12.9921 26.3416 14.0849 25.7446 14.8103L13.5663 29.6077C12.8462 30.4828 11.4394 29.7718 11.7172 28.6733L14.1646 18.9967H7.11432C6.1744 18.9967 5.65827 17.9035 6.25573 17.1781L18.4353 2.39192ZM17.2757 6.97993L9.0424 16.9752H15.2034C15.9941 16.9752 16.5735 17.7191 16.3797 18.4854L14.7286 25.0137L22.9587 15.0136H16.8041C16.0135 15.0136 15.4341 14.27 15.6277 13.5037L17.2757 6.97993Z" fill="#0D0F13"/>
</svg>
