<svg xmlns="http://www.w3.org/2000/svg" width="24" height="24" viewBox="0 0 24 24" fill="none">
<path fill-rule="evenodd" clip-rule="evenodd" d="M17.0427 13.8607L19.3084 11.1077C19.7562 10.5637 19.369 9.74408 18.6643 9.74408H13.3819L15.2132 2.49477C15.4213 1.67109 14.3667 1.13817 13.8265 1.79394L9.82898 6.647L10.9063 7.72427L12.9567 5.23494L12.0412 8.85924L14.4422 11.2602H17.219L15.9654 12.7834L17.0427 13.8607ZM14.1697 17.3517L13.0924 16.2743L11.0465 18.7603L11.9613 15.1432L9.54943 12.7314H6.7818L8.03185 11.2138L6.95458 10.1366L4.6918 12.8836C4.2437 13.4276 4.6308 14.2475 5.33574 14.2475H10.6234L8.78792 21.505C8.57956 22.3289 9.63463 22.8621 10.1748 22.2058L14.1697 17.3517Z" fill="#001D21" />
<path fill-rule="evenodd" clip-rule="evenodd" d="M1.71967 1.71967C2.01256 1.42678 2.48744 1.42678 2.78033 1.71967L22.2803 21.2197C22.5732 21.5126 22.5732 21.9874 22.2803 22.2803C21.9874 22.5732 21.5126 22.5732 21.2197 22.2803L1.71967 2.78033C1.42678 2.48744 1.42678 2.01256 1.71967 1.71967Z" fill="#001D21" />
</svg>