<svg xmlns="http://www.w3.org/2000/svg" width="24" height="24" viewBox="0 0 24 24" fill="none">
<path fill-rule="evenodd" clip-rule="evenodd" d="M13.8265 1.79394C14.3667 1.13817 15.4213 1.6711 15.2132 2.49477L13.3819 9.74409H18.6643C19.369 9.74409 19.7562 10.5637 19.3084 11.1077L10.1748 22.2058C9.63463 22.8621 8.57956 22.3289 8.78792 21.505L10.6234 14.2475H5.33574C4.6308 14.2475 4.2437 13.4276 4.6918 12.8836L13.8265 1.79394ZM12.9567 5.23495L6.7818 12.7314H11.4025C11.9956 12.7314 12.4301 13.2893 12.2848 13.864L11.0465 18.7603L17.219 11.2602H12.6031C12.0101 11.2602 11.5756 10.7025 11.7208 10.1278L12.9567 5.23495Z" fill="#001D21" />
</svg>