<svg xmlns="http://www.w3.org/2000/svg" width="24" height="24" viewBox="0 0 24 24" fill="none">
<path fill-rule="evenodd" clip-rule="evenodd" d="M1.5 5.25C1.5 4.42157 2.17157 3.75 3 3.75H8.68934C9.08717 3.75 9.4687 3.90804 9.75 4.18934L10.8107 5.25H21C21.8284 5.25 22.5 5.92157 22.5 6.75V18.75C22.5 19.5784 21.8284 20.25 21 20.25H3C2.17157 20.25 1.5 19.5784 1.5 18.75V5.25ZM10.9202 5.35953L10.9205 5.35984L10.6553 5.625L10.9205 5.35984C10.9204 5.35973 10.9203 5.35963 10.9202 5.35953ZM8.68934 5.25L3 5.25V18.75H21V6.75H10.6553C10.357 6.75 10.0708 6.63147 9.85984 6.4205L8.68934 5.25Z" fill="#001D21" />
</svg>