<svg xmlns="http://www.w3.org/2000/svg" width="24" height="24" viewBox="0 0 24 24" fill="none">
<path fill-rule="evenodd" clip-rule="evenodd" d="M4.5 1.5C4.08579 1.5 3.71079 1.66789 3.43934 1.93934C3.34694 2.03174 3.26654 2.13614 3.20067 2.25C3.07304 2.47063 3 2.72678 3 3V21C3 21.013 3.00016 21.0259 3.00049 21.0387C3.00244 21.1159 3.01024 21.1917 3.02344 21.2656C3.14882 21.9674 3.7622 22.5 4.5 22.5H13.5C14.2249 22.5 14.8297 21.9858 14.9696 21.3023C14.9895 21.2047 15 21.1036 15 21V12H15.75C16.1642 12 16.5 12.3358 16.5 12.75V20.25C16.5 21.4927 17.5073 22.5 18.75 22.5C19.9918 22.5 20.9986 21.4939 21 20.2524V20.25V7.05008C21 6.65127 20.8412 6.26887 20.5586 5.9874L17.7793 3.21866C17.4859 2.92633 17.011 2.92723 16.7186 3.22068C16.4263 3.51413 16.4273 3.989 16.7207 4.28134L18 5.55579V8.25V8.2524C18.0014 9.07972 18.6724 9.75 19.5 9.75V20.25C19.5 20.6642 19.1642 21 18.75 21C18.3358 21 18 20.6642 18 20.25V12.75C18 11.5073 16.9927 10.5 15.75 10.5H15V3C15 2.17157 14.3285 1.5 13.5 1.5H4.5ZM13.5 7.5H4.5V3H13.5V7.5ZM4.5 21V9H13.5V21H4.5Z" fill="#001D21" />
</svg>