<svg xmlns="http://www.w3.org/2000/svg" width="24" height="24" viewBox="0 0 24 24" fill="none">
<path fill-rule="evenodd" clip-rule="evenodd" d="M2.78033 1.71962C2.48744 1.42679 2.01256 1.42679 1.71967 1.71962C1.42678 2.01245 1.42678 2.48722 1.71967 2.78005L21.2197 22.2758C21.5126 22.5686 21.9874 22.5686 22.2803 22.2758C22.5732 21.9829 22.5732 21.5082 22.2803 21.2153L2.78033 1.71962ZM19.5 14.8928C19.5 15.3406 19.4632 15.7797 19.3923 16.207L17.9956 14.8106C17.9756 14.1687 17.7273 13.2708 17.2843 12.1922C16.8303 11.0867 16.2038 9.86639 15.5223 8.66342C14.2538 6.42443 12.8219 4.29301 12.0316 3.15316C11.7604 3.53247 11.4144 4.02385 11.0247 4.59404C10.7909 4.9362 10.3233 5.02446 9.98036 4.79117C9.63741 4.55788 9.54894 4.09139 9.78277 3.74923C10.2666 3.04127 10.6846 2.45238 10.9794 2.0434C11.5042 1.31547 12.586 1.32374 13.0999 2.05878C13.8528 3.13566 15.4344 5.46067 16.8309 7.92549C17.5287 9.15729 18.1882 10.4378 18.6752 11.6235C19.154 12.7893 19.5 13.9423 19.5 14.8928ZM8.36423 5.18135C8.44158 4.74498 8.04444 4.4277 7.6705 4.48778L8.36423 5.18135ZM1.65321 11.3409L4.64594 7.82644L5.44496 8.62529L3.19612 11.2662H5.81812C6.28563 11.2662 6.627 11.707 6.509 12.1583L5.85239 14.6697L8.44397 11.6236L9.24303 12.4225L5.21971 17.1514C4.80596 17.6377 4.01815 17.2291 4.17953 16.6118L5.28309 12.391H2.14007C1.59559 12.391 1.30068 11.7549 1.65321 11.3409ZM6.02578 9.68343L6.12465 9.30483L7.39547 10.5754H6.71671C6.24929 10.5754 5.90793 10.1347 6.02578 9.68343ZM17.2268 20.4045L16.1648 19.3428C15.1078 20.3729 13.6672 21.0006 12.041 21.0006C10.0517 21.0006 8.28389 20.0675 7.15639 18.6177C7.14355 18.6012 7.13078 18.5846 7.11809 18.568C6.86699 18.2382 6.3955 18.174 6.06497 18.4245C5.73445 18.675 5.67006 19.1454 5.92116 19.4751C5.93693 19.4959 5.95281 19.5165 5.9688 19.5371C7.37005 21.3388 9.56961 22.5002 12.041 22.5002C14.0966 22.5002 15.9053 21.7009 17.2268 20.4045Z" fill="#001D21" />
</svg>