<svg xmlns="http://www.w3.org/2000/svg" width="24" height="24" viewBox="0 0 24 24" fill="none">
<path fill-rule="evenodd" clip-rule="evenodd" d="M14.5999 2.05548C14.086 1.32029 13.0042 1.31201 12.4794 2.0401C12.1846 2.44917 11.7666 3.03819 11.2828 3.7463C11.0489 4.08854 11.1374 4.55513 11.4804 4.78847C11.8233 5.02181 12.2909 4.93354 12.5247 4.5913C12.9144 4.02099 13.2604 3.5295 13.5316 3.1501C14.3219 4.29021 15.7538 6.42209 17.0223 8.66158C17.7038 9.86481 18.3303 11.0853 18.7843 12.1911C19.2466 13.3169 19.4969 14.2459 19.4969 14.8924C19.4969 18.2922 16.9192 21.0014 13.541 21.0014C11.5517 21.0014 9.78389 20.0681 8.65639 18.6181C8.64355 18.6016 8.63078 18.585 8.61809 18.5683C8.36699 18.2385 7.8955 18.1742 7.56497 18.4248C7.23445 18.6753 7.17006 19.1459 7.42116 19.4757C7.43693 19.4964 7.45281 19.517 7.4688 19.5376C8.87005 21.3397 11.0696 22.5014 13.541 22.5014C17.8003 22.5014 21 19.0689 21 14.8924C21 13.9416 20.654 12.7883 20.1752 11.6223C19.6882 10.4363 19.0287 9.15555 18.3309 7.92349C16.9344 5.45812 15.3528 3.1326 14.5999 2.05548ZM9.85255 5.23208C10.0137 4.61491 9.22631 4.20626 8.81249 4.69234L3.15321 11.3398C2.80068 11.7538 3.09559 12.39 3.64007 12.39H6.78309L5.67953 16.6118C5.51815 17.2292 6.30596 17.6379 6.71971 17.1515L12.3783 10.4991C12.7306 10.0849 12.4357 9.44902 11.8913 9.44902H8.75158L9.85255 5.23208ZM4.69612 11.265L8.18123 7.17139L7.52578 9.68189C7.40793 10.1333 7.74929 10.574 8.21671 10.574H10.8358L7.35239 14.6693L8.009 12.1574C8.127 11.7059 7.78563 11.265 7.31812 11.265H4.69612Z" fill="#001D21" />
</svg>