<svg xmlns="http://www.w3.org/2000/svg" width="24" height="24" viewBox="0 0 24 24" fill="none">
<path fill-rule="evenodd" clip-rule="evenodd" d="M18 12.75V14.8181L16.5 13.3181V12.75C16.5 12.3358 16.1642 12 15.75 12H15.1819L13.5 10.318V9H12.1819L10.682 7.5H13.5V3H6.18198L4.68198 1.5H13.5C14.3285 1.5 15 2.17157 15 3V10.5H15.75C16.9927 10.5 18 11.5073 18 12.75ZM21 7.05008V17.8181L19.5 16.3181V9.75C18.6724 9.75 18.0014 9.07972 18 8.2524V8.25V5.55579L16.7207 4.28134C16.4273 3.989 16.4263 3.51413 16.7186 3.22068C17.011 2.92723 17.4859 2.92633 17.7794 3.21866L20.5586 5.9874C20.8412 6.26887 21 6.65127 21 7.05008ZM15 18.1819L13.5 16.6819V21H4.5V9H5.81802L3 6.18198V21C3 21.013 3.00016 21.0259 3.00049 21.0387C3.00244 21.1159 3.01024 21.1917 3.02344 21.2656C3.14882 21.9674 3.7622 22.5 4.5 22.5H13.5C14.2249 22.5 14.8297 21.9858 14.9696 21.3023C14.9895 21.2047 15 21.1036 15 21V18.1819ZM19.26 22.4419L16.5 19.6819V20.25C16.5 21.4927 17.5073 22.5 18.75 22.5C18.9254 22.5 19.0961 22.4799 19.26 22.4419ZM2.78033 1.71967C2.48743 1.42678 2.01257 1.42678 1.71967 1.71967C1.42678 2.01257 1.42678 2.48743 1.71967 2.78033L21.2197 22.2803C21.5126 22.5732 21.9874 22.5732 22.2803 22.2803C22.5732 21.9874 22.5732 21.5126 22.2803 21.2197L2.78033 1.71967Z" fill="#001D21" />
</svg>