<svg xmlns="http://www.w3.org/2000/svg" width="24" height="24" viewBox="0 0 24 24" fill="none">
<path fill-rule="evenodd" clip-rule="evenodd" d="M4.98983 4.28983C4.41763 5.26303 4.47519 6.42356 5.03836 7.31641H4.01172C3.18329 7.31641 2.51172 7.98798 2.51172 8.81641V11.8164C2.51172 12.6448 3.18329 13.3164 4.01172 13.3164V19.3164C4.01172 20.1448 4.68329 20.8164 5.51172 20.8164H17.5117C18.3401 20.8164 19.0117 20.1448 19.0117 19.3164V13.3164C19.8401 13.3164 20.5117 12.6448 20.5117 11.8164V8.81641C20.5117 7.98798 19.8401 7.31641 19.0117 7.31641H17.9844C18.5476 6.42356 18.6051 5.26303 18.0329 4.28983C17.2046 2.88085 15.3698 2.39809 13.9349 3.21156C13.2054 3.62513 12.2624 5.03899 11.5114 6.32915C10.7604 5.03899 9.81739 3.62513 9.0879 3.21156C7.65303 2.39809 5.81826 2.88085 4.98983 4.28983ZM8.33714 4.48674C7.61971 4.08 6.70308 4.32181 6.28887 5.0263C5.87465 5.73079 6.12047 6.63162 6.8379 7.03836C6.8379 7.03836 6.85842 7.04912 6.90908 7.06709C6.96379 7.08649 7.03925 7.10897 7.13833 7.13237C7.33886 7.17972 7.59568 7.22143 7.90366 7.25472C8.15775 7.28219 8.43111 7.30233 8.71511 7.31641H10.3567C10.2971 7.21171 10.2359 7.10567 10.1735 6.99899C9.81452 6.38562 9.42874 5.7764 9.0616 5.2853C8.87825 5.04005 8.71306 4.8425 8.57103 4.69564C8.50086 4.62309 8.4433 4.57016 8.39884 4.53333C8.35765 4.49923 8.33714 4.48674 8.33714 4.48674ZM15.1192 7.25472C14.8651 7.28219 14.5917 7.30233 14.3077 7.31641H12.6661C12.7258 7.21171 12.7869 7.10567 12.8493 6.99899C13.2083 6.38562 13.5941 5.7764 13.9612 5.2853C14.1446 5.04005 14.3096 4.8425 14.4518 4.69564C14.522 4.62309 14.5794 4.57016 14.624 4.53333C14.6652 4.49923 14.6857 4.48674 14.6857 4.48674C15.403 4.08 16.3197 4.32181 16.7339 5.0263C17.1482 5.73079 16.9023 6.63162 16.1849 7.03836C16.1849 7.03836 16.1643 7.04912 16.1136 7.06709C16.0589 7.08649 15.9836 7.10897 15.8845 7.13237C15.6839 7.17972 15.4271 7.22143 15.1192 7.25472ZM10.7617 8.81641H4.01172V11.8164H10.7617V8.81641ZM12.2617 8.81641V11.8164H19.0117V8.81641H12.2617ZM10.7617 13.3164H5.51172V19.3164H10.7617V13.3164ZM12.2617 19.3164V13.3164H17.5117V19.3164H12.2617Z" fill="#001D21" />
</svg>