<svg width="32" height="32" viewBox="0 0 32 32" fill="none" xmlns="http://www.w3.org/2000/svg">
<path d="M29.7071 28.2929C30.0976 28.6834 30.0976 29.3166 29.7071 29.7071C29.3166 30.0976 28.6834 30.0976 28.2929 29.7071L2.29287 3.7071C1.90237 3.3166 1.90237 2.68342 2.29287 2.29292C2.68338 1.90236 3.31655 1.90236 3.70712 2.29292L29.7071 28.2929Z" fill="#0D0F13"/>
<path d="M11.7677 6.22718C11.2954 5.95978 10.7584 5.90284 10.2692 6.02674L8.76851 4.52613C9.96517 3.84931 11.4865 3.80012 12.7685 4.52686C13.7412 5.07832 14.9987 6.96357 16 8.68385C17.0012 6.96357 18.2587 5.07832 19.2313 4.52687C21.1446 3.44228 23.591 4.08595 24.6955 5.96455C25.4585 7.26216 25.3817 8.80952 24.6308 10H26C27.1046 10 28 10.8954 28 12V16C28 17.1046 27.1046 18 26 18V21.7574L24 19.7574V18H22.2426L20.2426 16H26V12H17V12.7574L14.2765 10.0341L14.2426 10H14.4603C14.3808 9.86036 14.2992 9.719 14.216 9.57679C13.7374 8.75892 13.223 7.94666 12.7335 7.29188C12.489 6.96485 12.2686 6.70149 12.0794 6.50563C11.9857 6.40889 11.9091 6.33833 11.8498 6.28926C11.7974 6.2458 11.77 6.22865 11.7677 6.22718ZM17.784 9.57679C17.7008 9.719 17.6192 9.86036 17.5396 10H19.7277C20.1067 9.98121 20.4713 9.95442 20.8104 9.91773C21.221 9.87336 21.5634 9.81775 21.8308 9.75464C21.963 9.72345 22.0636 9.69342 22.1364 9.6676C22.2033 9.64386 22.2319 9.6289 22.2319 9.6289V9.6289C23.1881 9.08648 23.5156 7.88567 22.9635 6.94653C22.4113 6.00744 21.1886 5.68554 20.2321 6.22723C20.2293 6.229 20.2021 6.24627 20.1502 6.28924C20.0908 6.33831 20.0141 6.40887 19.9206 6.50561C19.7312 6.70147 19.511 6.96484 19.2665 7.29186C18.7769 7.94667 18.2625 8.75892 17.784 9.57679Z" fill="#0D0F13"/>
<path d="M17 26H21.7574L23.7574 28H7.99997C6.89542 28 5.99996 27.1046 5.99996 26V18C4.89541 18 3.99996 17.1046 3.99996 16V12C3.99996 10.9731 4.77396 10.1269 5.77042 10.013L7.75736 12H5.99996V16H11.7574L13.7574 18H7.99997V26H15V19.2426L17 21.2426V26Z" fill="#0D0F13"/>
</svg>
