<svg xmlns="http://www.w3.org/2000/svg" width="24" height="24" viewBox="0 0 24 24" fill="none">
<path d="M2.78033 1.71967C2.48744 1.42678 2.01256 1.42678 1.71967 1.71967C1.42678 2.01256 1.42678 2.48744 1.71967 2.78033L21.2197 22.2803C21.5126 22.5732 21.9874 22.5732 22.2803 22.2803C22.5732 21.9874 22.5732 21.5126 22.2803 21.2197L2.78033 1.71967Z" fill="#001D21" />
<path fill-rule="evenodd" clip-rule="evenodd" d="M12 6.51256C12.751 5.22244 13.694 3.8087 14.4234 3.39516C15.8583 2.58169 17.6931 3.06444 18.5215 4.47342C19.0937 5.44662 19.0361 6.60715 18.4729 7.5H19.5C20.3284 7.5 21 8.17157 21 9V12C21 12.8284 20.3284 13.5 19.5 13.5V16.318L18 14.818V13.5H16.682L15.182 12H19.5V9H12.75V9.56802L10.682 7.5H10.8455C10.7859 7.3953 10.7247 7.28926 10.6622 7.18258C10.3033 6.56921 9.91748 5.95999 9.55034 5.46889C9.36699 5.22364 9.2018 5.02609 9.05976 4.87923C8.9896 4.80668 8.93204 4.75375 8.88757 4.71692C8.84639 4.68282 8.82664 4.67076 8.82664 4.67076C8.47234 4.4699 8.06928 4.42709 7.70214 4.52007L6.57666 3.39459C7.47415 2.88699 8.61517 2.85007 9.57664 3.39516C10.3061 3.80871 11.2491 5.22244 12 6.51256ZM14.7962 7.5C15.0802 7.48592 15.3536 7.46578 15.6077 7.43831C15.9157 7.40502 16.1725 7.36331 16.373 7.31596C16.4721 7.29256 16.5476 7.27008 16.6023 7.25068C16.6529 7.23271 16.6742 7.22151 16.6742 7.22151C17.3917 6.81477 17.6367 5.91438 17.2225 5.20989C16.8083 4.5054 15.8909 4.26402 15.1734 4.67076C15.1734 4.67076 15.1537 4.68282 15.1125 4.71692C15.068 4.75375 15.0105 4.80668 14.9403 4.87923C14.7983 5.02609 14.6331 5.22364 14.4497 5.46889C14.0826 5.95999 13.6968 6.56921 13.3379 7.18258C13.2754 7.28926 13.2142 7.3953 13.1546 7.5H14.7962Z" fill="#001D21" />
<path d="M4.3278 7.50978L5.81802 9H4.5V12H8.81802L10.318 13.5H6V19.5H11.25V14.432L12.75 15.932V19.5H16.318L17.818 21H6C5.17157 21 4.5 20.3284 4.5 19.5V13.5C3.67157 13.5 3 12.8284 3 12V9C3 8.22981 3.58047 7.59519 4.3278 7.50978Z" fill="#001D21" />
</svg>