<svg xmlns="http://www.w3.org/2000/svg" width="24" height="24" viewBox="0 0 24 24" fill="none">
<path fill-rule="evenodd" clip-rule="evenodd" d="M12 1.5C6.20101 1.5 1.5 6.20101 1.5 12C1.5 17.799 6.20101 22.5 12 22.5C17.799 22.5 22.5 17.799 22.5 12C22.5 6.20101 17.799 1.5 12 1.5ZM21 12C21 13.0519 20.8195 14.0617 20.4879 15H17.7575C17.9158 14.0467 18 13.0391 18 12C18 10.9609 17.9158 9.95328 17.7575 9H20.4879C20.8195 9.93834 21 10.9481 21 12ZM17.4361 16.5H19.796C18.8777 18.0873 17.4886 19.3682 15.8196 20.1516C16.018 19.8677 16.2027 19.5656 16.3727 19.2499C16.8069 18.4435 17.1664 17.5154 17.4361 16.5ZM16.5 12C16.5 13.0557 16.4059 14.0645 16.235 15H12.75V9H16.235C16.4059 9.93549 16.5 10.9443 16.5 12ZM11.25 9V15H7.76502C7.59407 14.0645 7.5 13.0557 7.5 12C7.5 10.9443 7.59407 9.93549 7.76502 9H11.25ZM12.75 7.5H15.8779C15.6524 6.74335 15.373 6.05744 15.052 5.46128C14.3679 4.19095 13.558 3.4267 12.75 3.13546V7.5ZM11.25 3.13546V7.5H8.12214C8.34762 6.74335 8.62704 6.05744 8.94804 5.46128C9.63207 4.19095 10.442 3.4267 11.25 3.13546ZM11.25 16.5H8.12214C8.34762 17.2566 8.62704 17.9426 8.94804 18.5387C9.63207 19.8091 10.442 20.5733 11.25 20.8645V16.5ZM12.75 20.8645C13.558 20.5733 14.3679 19.8091 15.052 18.5387C15.373 17.9426 15.6524 17.2566 15.8779 16.5H12.75V20.8645ZM6 12C6 13.0391 6.08419 14.0467 6.24248 15H3.51212C3.18046 14.0617 3 13.0519 3 12C3 10.9481 3.18046 9.93834 3.51212 9H6.24248C6.08419 9.95328 6 10.9609 6 12ZM6.56395 16.5H4.20404C5.12228 18.0873 6.51139 19.3682 8.18038 20.1516C7.98196 19.8677 7.79735 19.5656 7.62734 19.2499C7.19313 18.4435 6.83363 17.5154 6.56395 16.5ZM19.796 7.5C18.8777 5.91265 17.4886 4.63178 15.8196 3.84838C16.018 4.13234 16.2027 4.4344 16.3727 4.75013C16.8069 5.55652 17.1664 6.48457 17.4361 7.5H19.796ZM6.56395 7.5C6.83363 6.48456 7.19313 5.55652 7.62734 4.75013C7.79735 4.4344 7.98196 4.13233 8.18038 3.84838C6.51139 4.63177 5.12227 5.91265 4.20404 7.5H6.56395Z" fill="#001D21" />
</svg>