<svg xmlns="http://www.w3.org/2000/svg" width="24" height="24" viewBox="0 0 24 24" fill="none">
<path fill-rule="evenodd" clip-rule="evenodd" d="M12.73 15.9118L11.6484 14.8302L10.5042 15.593V13.6859L9.00415 12.1859V16.2937C9.00415 17.1922 10.0056 17.7282 10.7532 17.2297L12.73 15.9118ZM9.80912 6.62696C10.1104 6.5363 10.4523 6.56936 10.7532 6.76993L17.1939 11.0637C17.8619 11.509 17.8619 12.4905 17.194 12.9358L16.5484 13.3662L15.4667 12.2845L15.8939 11.9998L13.7581 10.576L9.80912 6.62696Z" fill="#001D21" />
<path fill-rule="evenodd" clip-rule="evenodd" d="M1.71967 1.71967C2.01256 1.42678 2.48744 1.42678 2.78033 1.71967L22.2803 21.2197C22.5732 21.5126 22.5732 21.9874 22.2803 22.2803C21.9874 22.5732 21.5126 22.5732 21.2197 22.2803L1.71967 2.78033C1.42678 2.48744 1.42678 2.01256 1.71967 1.71967Z" fill="#001D21" />
<path fill-rule="evenodd" clip-rule="evenodd" d="M20.8436 17.6616C21.8916 16.0279 22.4994 14.0848 22.4994 11.9997C22.4994 6.20087 17.7985 1.5 11.9997 1.5C9.91461 1.5 7.97149 2.10778 6.33781 3.15583L7.42799 4.24601C8.76784 3.45431 10.3307 3 11.9997 3C16.9701 3 20.9994 7.0293 20.9994 11.9997C20.9994 13.6687 20.5451 15.2316 19.7534 16.5714L20.8436 17.6616ZM4.24601 7.42799C3.45431 8.76784 3 10.3307 3 11.9997C3 16.9701 7.0293 20.9994 11.9997 20.9994C13.6687 20.9994 15.2316 20.5451 16.5714 19.7534L17.6616 20.8436C16.0279 21.8916 14.0848 22.4994 11.9997 22.4994C6.20087 22.4994 1.5 17.7985 1.5 11.9997C1.5 9.91461 2.10778 7.97149 3.15583 6.33781L4.24601 7.42799Z" fill="#001D21" />
</svg>