<svg xmlns="http://www.w3.org/2000/svg" width="24" height="24" viewBox="0 0 24 24" fill="none">
<path fill-rule="evenodd" clip-rule="evenodd" d="M12 21C16.9705 21 21 16.9705 21 12C21 7.02946 16.9705 3.00004 12 3.00004C7.02946 3.00004 3.00004 7.02946 3.00004 12C3.00004 16.9705 7.02946 21 12 21ZM12 22.5C17.799 22.5 22.5 17.799 22.5 12C22.5 6.20101 17.799 1.5 12 1.5C6.20101 1.5 1.5 6.20101 1.5 12C1.5 17.799 6.20101 22.5 12 22.5Z" fill="#001D21" />
<path fill-rule="evenodd" clip-rule="evenodd" d="M10.5044 8.40722V15.5937L15.8943 12.0004L10.5044 8.40722ZM9.00439 7.70651C9.00439 6.80796 10.0058 6.272 10.7535 6.77043L17.1944 11.0643C17.8624 11.5096 17.8624 12.4912 17.1944 12.9365L10.7535 17.2305C10.0058 17.729 9.00439 17.193 9.00439 16.2944V7.70651Z" fill="#001D21" />
</svg>