<svg xmlns="http://www.w3.org/2000/svg" width="24" height="24" viewBox="0 0 24 24" fill="none">
<path d="M18.5893 15.4073L20.4273 13.548C21.704 12.3596 22.5 10.6501 22.5 8.76907C22.5 5.17284 19.617 2.25 16.0384 2.25C14.4681 2.25 12.9994 3.14632 11.9896 4.74939C10.9893 3.1799 9.53016 2.25 7.96161 2.25C7.20416 2.25 6.47786 2.38095 5.80347 2.62151L7.02175 3.83978C7.32615 3.78084 7.64039 3.75 7.96161 3.75C9.13746 3.75 10.5136 4.66092 11.2937 6.6964C11.4051 6.98702 11.6845 7.17866 11.9956 7.178C12.3069 7.17734 12.5854 6.98453 12.6955 6.69343C13.4833 4.61153 14.8537 3.75 16.0384 3.75C18.7744 3.75 21 5.98708 21 8.76907C21 10.2262 20.3821 11.5456 19.3957 12.4589C19.3892 12.4649 19.3828 12.4711 19.3766 12.4773C19.375 12.4789 19.3735 12.4804 19.3719 12.482L17.5286 14.3466L18.5893 15.4073Z" fill="#001D21" />
<path d="M3.4634 6.64626C3.16612 7.29048 3 8.00991 3 8.76996C3 10.2382 3.6172 11.5459 4.6043 12.4598C4.61228 12.4672 4.62008 12.4748 4.62773 12.4825L12.0056 19.9345L14.3649 17.5478L15.4256 18.6085L12.5393 21.5281C12.3985 21.6706 12.2066 21.7508 12.0062 21.7509C11.8059 21.751 11.6139 21.6709 11.473 21.5286L3.5729 13.5491C2.29672 12.3613 1.5 10.6639 1.5 8.76996C1.5 7.59253 1.80904 6.48731 2.35034 5.5332L3.4634 6.64626Z" fill="#001D21" />
<path fill-rule="evenodd" clip-rule="evenodd" d="M1.71967 1.71967C2.01257 1.42678 2.48743 1.42678 2.78033 1.71967L22.2803 21.2197C22.5732 21.5126 22.5732 21.9874 22.2803 22.2803C21.9874 22.5732 21.5126 22.5732 21.2197 22.2803L1.71967 2.78033C1.42678 2.48743 1.42678 2.01257 1.71967 1.71967Z" fill="#001D21" />
</svg>