<svg xmlns="http://www.w3.org/2000/svg" width="24" height="24" viewBox="0 0 24 24" fill="none">
<path fill-rule="evenodd" clip-rule="evenodd" d="M8.04259 2.5C4.52748 2.5 1.68311 5.34437 1.68311 8.85948C1.68311 10.7097 2.46944 12.3665 3.72622 13.5244L11.4842 21.2824C11.625 21.4231 11.8158 21.5021 12.0148 21.5021C12.2139 21.502 12.4047 21.4228 12.5453 21.282L20.2926 13.523C21.5492 12.3646 22.3343 10.6966 22.3343 8.85948C22.3343 5.34437 19.4899 2.5 15.9748 2.5C14.4354 2.5 12.9931 3.36769 11.9984 4.92218C11.0132 3.40015 9.58045 2.5 8.04259 2.5ZM19.2352 12.4591C19.2451 12.449 19.2553 12.4392 19.2658 12.4295C20.2313 11.5445 20.8343 10.2677 20.8343 8.85948C20.8343 6.1728 18.6615 4 15.9748 4C14.8141 4 13.4739 4.83518 12.7035 6.85093C12.5927 7.1408 12.3148 7.33251 12.0045 7.33317C11.6942 7.33383 11.4155 7.14331 11.3035 6.85392C10.5405 4.88298 9.19452 4 8.04259 4C5.35591 4 3.18311 6.1728 3.18311 8.85948C3.18311 10.2757 3.78314 11.5389 4.746 12.4243C4.75593 12.4333 4.76568 12.4425 4.77524 12.4521L12.0142 19.691L19.2352 12.4591Z" fill="#001D21" />
</svg>