<svg xmlns="http://www.w3.org/2000/svg" width="24" height="24" viewBox="0 0 24 24" fill="none">
<path fill-rule="evenodd" clip-rule="evenodd" d="M2.78033 1.71967C2.48744 1.42678 2.01256 1.42678 1.71967 1.71967C1.42678 2.01256 1.42678 2.48744 1.71967 2.78033L21.2197 22.2803C21.5126 22.5732 21.9874 22.5732 22.2803 22.2803C22.5732 21.9874 22.5732 21.5126 22.2803 21.2197L2.78033 1.71967ZM21.3064 14.8922C21.062 15.6776 20.7209 16.423 20.295 17.113L19.2031 16.0211C19.2663 15.9079 19.327 15.793 19.3851 15.6765C20.2787 13.8827 20.4884 11.8258 19.9751 9.88917C19.4618 7.95249 18.2606 6.26807 16.5951 5.14974C14.9297 4.03141 12.9137 3.55544 10.9227 3.81051C9.87468 3.94477 8.87125 4.27674 7.9621 4.78012L6.87009 3.68811C7.59344 3.24551 8.37676 2.89559 9.20263 2.65154C11.4753 1.97994 13.9151 2.15576 16.0675 3.14624C18.2198 4.13673 19.938 5.87433 20.9019 8.0353C21.8657 10.1963 22.0095 12.6332 21.3064 14.8922ZM16.4648 12.0113C16.4648 12.3556 16.2312 12.6454 15.9135 12.7315L14.447 11.265H15.717C16.13 11.265 16.4648 11.5991 16.4648 12.0113ZM11.2302 8.04824L12.7258 9.54385V6.7873C12.7258 6.37514 12.391 6.04102 11.978 6.04102C11.565 6.04102 11.2302 6.37514 11.2302 6.7873V8.04824ZM3.00441 6.18639L5.09805 8.28003H3.97655C3.43965 8.28003 3.00441 7.84567 3.00441 7.30986V6.18639ZM17.1123 20.2943L16.0214 19.2034C14.3697 20.1272 12.447 20.4592 10.5746 20.138C8.59626 19.7985 6.80904 18.7529 5.54592 17.196C5.36108 16.9682 5.18932 16.7317 5.03102 16.4876C4.96054 16.379 4.83655 16.1721 4.7594 16.0393C4.62839 15.8061 4.5093 15.5677 4.40228 15.3248C4.34706 15.1995 4.25034 14.9563 4.19669 14.8151C4.05027 14.4297 3.61851 14.2357 3.23234 14.3818C2.84617 14.528 2.65182 14.9588 2.79824 15.3442C2.85516 15.494 2.96254 15.7653 3.03324 15.9258C3.15419 16.2002 3.28817 16.4698 3.43502 16.7337C3.44 16.7433 3.4452 16.7528 3.45063 16.7622L3.46013 16.7786C3.47323 16.8018 3.48642 16.825 3.49972 16.8482C4.67818 18.9005 6.56407 20.4552 8.806 21.2228C11.0479 21.9903 13.493 21.9183 15.6857 21.0202C16.1832 20.8164 16.6601 20.5732 17.1123 20.2943Z" fill="#001D21" />
</svg>