<svg xmlns="http://www.w3.org/2000/svg" width="24" height="24" viewBox="0 0 24 24" fill="none">
<path fill-rule="evenodd" clip-rule="evenodd" d="M10.3265 20.1391C8.34781 19.7996 6.56029 18.7538 5.29694 17.1966C5.11207 16.9687 4.94029 16.7322 4.78195 16.4881C4.71146 16.3795 4.58747 16.1726 4.51031 16.0397C4.37927 15.8065 4.26015 15.568 4.1531 15.3251C4.09787 15.1998 4.00114 14.9565 3.94748 14.8152C3.80103 14.4298 3.3692 14.2358 2.98296 14.3819C2.59672 14.5281 2.40234 14.959 2.54879 15.3445C2.60571 15.4943 2.71311 15.7657 2.78383 15.9261C2.90479 16.2006 3.03879 16.4703 3.18567 16.7342C3.19065 16.7438 3.19585 16.7533 3.20129 16.7627L3.2108 16.7791C3.22389 16.8024 3.23709 16.8256 3.25038 16.8487C4.42906 18.9014 6.31527 20.4564 8.5576 21.2241C10.7999 21.9918 13.2454 21.9198 15.4385 21.0215C17.1868 20.3054 18.6796 19.1031 19.7478 17.5717C20.3159 16.7574 20.7606 15.855 21.0602 14.8924C21.7634 12.633 21.6196 10.1956 20.6556 8.03426C19.6915 5.87291 17.9731 4.13501 15.8203 3.14435C13.6676 2.15369 11.2273 1.97783 8.95429 2.64955C7.10947 3.19473 5.47688 4.26803 4.25085 5.72269V3.80054C4.25085 3.3883 3.91599 3.05412 3.50292 3.05412C3.08985 3.05412 2.75499 3.3883 2.75499 3.80054V7.30869C2.75499 7.8446 3.19031 8.27903 3.7273 8.27903H7.24258C7.65565 8.27903 7.99051 7.94485 7.99051 7.53262C7.99051 7.12038 7.65565 6.7862 7.24258 6.7862H5.31056C5.37815 6.70333 5.44727 6.62186 5.51788 6.54184L5.52413 6.53486C6.85276 5.03272 8.68327 4.06384 10.6746 3.80873C12.666 3.55361 14.6824 4.02967 16.3481 5.14819C18.0138 6.26672 19.2153 7.95144 19.7287 9.88845C20.242 11.8255 20.0323 13.8827 19.1385 15.6768C18.9511 16.0529 18.7364 16.4121 18.4969 16.7519C17.8521 17.6665 17.0227 18.4483 16.0519 19.0419C14.34 20.0886 12.3051 20.4786 10.3265 20.1391ZM11.7302 6.03963C12.1432 6.03963 12.4781 6.37381 12.4781 6.78604V11.2646H15.4698C15.8829 11.2646 16.2178 11.5987 16.2178 12.011C16.2178 12.4232 15.8829 12.7574 15.4698 12.7574H12.4781C11.652 12.7574 10.9822 12.089 10.9822 11.2646V6.78604C10.9822 6.37381 11.3171 6.03963 11.7302 6.03963Z" fill="#001D21" />
</svg>