<svg xmlns="http://www.w3.org/2000/svg" width="24" height="24" viewBox="0 0 24 24" fill="none">
<path fill-rule="evenodd" clip-rule="evenodd" d="M11.2499 3.20099C11.7141 2.933 12.2859 2.933 12.7501 3.201L20.2501 7.5316C20.7141 7.79957 21 8.29472 21 8.8306V19.5009C21 20.3294 20.3284 21.0009 19.5 21.0009H15C14.1715 21.0009 13.5 20.3294 13.5 19.5009V14.2509H10.5V19.5009C10.5 20.3294 9.82845 21.0009 9 21.0009H4.5C3.67157 21.0009 3 20.3294 3 19.5009V8.8306C3 8.29472 3.28587 7.79957 3.74994 7.5316L11.2499 3.20099ZM9 19.5009V13.8759C9 13.2546 9.5037 12.7509 10.125 12.7509H13.875C14.4963 12.7509 15 13.2546 15 13.8759V19.5009H19.5V8.8306L12 4.5L4.5 8.8306V19.5009H9Z" fill="#001D21" />
</svg>