<svg xmlns="http://www.w3.org/2000/svg" width="24" height="24" viewBox="0 0 24 24" fill="none">
<path d="M20.9999 17.8186V8.8306C20.9999 8.29472 20.714 7.79957 20.2499 7.5316L12.7499 3.201C12.2858 2.933 11.714 2.933 11.2498 3.20099L8.16406 4.98275L9.26214 6.08081L11.9999 4.5L19.4999 8.8306V16.3186L20.9999 17.8186Z" fill="#001D21" />
<path d="M15 18.1816V19.5001H16.3184L17.8184 21.0001H15C14.1715 21.0001 13.5 20.3285 13.5 19.5001V16.6816L15 18.1816Z" fill="#001D21" />
<path d="M5.22782 8.41058L4.5 8.83081V19.5011H9V13.8761C9 13.4183 9.27345 13.0244 9.666 12.8487L11.0684 14.2511H10.5V19.5011C10.5 20.3296 9.82845 21.0011 9 21.0011H4.5C3.67157 21.0011 3 20.3296 3 19.5011V8.83081C3 8.29493 3.28587 7.79978 3.74994 7.53181L4.12976 7.3125L5.22782 8.41058Z" fill="#001D21" />
<path fill-rule="evenodd" clip-rule="evenodd" d="M1.71967 1.71967C2.01257 1.42678 2.48743 1.42678 2.78033 1.71967L22.2803 21.2197C22.5732 21.5126 22.5732 21.9874 22.2803 22.2803C21.9874 22.5732 21.5126 22.5732 21.2197 22.2803L1.71967 2.78033C1.42678 2.48743 1.42678 2.01257 1.71967 1.71967Z" fill="#001D21" />
</svg>