<svg xmlns="http://www.w3.org/2000/svg" width="24" height="24" viewBox="0 0 24 24" fill="none">
<path fill-rule="evenodd" clip-rule="evenodd" d="M12.7427 3V2.25C12.7427 1.83579 12.4071 1.5 11.9932 1.5C11.5792 1.5 11.2437 1.83579 11.2437 2.25V3C11.2437 3.41421 11.5792 3.75 11.9932 3.75C12.4071 3.75 12.7427 3.41421 12.7427 3ZM13.1175 20.2501L12.8772 20.25H11.1098L10.869 20.2501C10.869 20.6642 11.2045 21 11.6185 21H12.368C12.7819 21 13.1174 20.6642 13.1175 20.2501ZM9.99764 18.75V17.8887C9.99764 17.1725 9.63279 16.5418 9.09164 16.1657C7.62226 15.1445 6.68148 13.7295 6.68148 11.6218C6.68148 11.1083 6.77172 10.6026 6.93941 10.1216L5.7915 8.97374C5.40036 9.79119 5.18248 10.6903 5.18248 11.6218C5.18248 14.2899 6.42392 16.1379 8.23656 17.3977C8.39799 17.5099 8.49864 17.692 8.49864 17.8887V18.7805C8.49864 19.3838 8.85483 19.8981 9.36996 20.1254V20.25C9.36996 21.4926 10.3766 22.5 11.6185 22.5H12.368C13.6098 22.5 14.6165 21.4926 14.6165 20.25V20.1257C15.1319 19.8985 15.4884 19.384 15.4884 18.7805V18.6706L14.0844 17.2666C14.0228 17.463 13.9894 17.672 13.9894 17.8887V18.75H12.8894L12.1088 18.7498H11.8782L11.0976 18.75H9.99764ZM3.97053 9.94401C3.86339 10.3441 3.45241 10.5815 3.05258 10.4743L2.32862 10.2802C1.92879 10.173 1.69151 9.76177 1.79864 9.36167C1.90578 8.96157 2.31676 8.72413 2.71659 8.83134L3.44055 9.02545C3.84038 9.13266 4.07766 9.54391 3.97053 9.94401ZM21.6547 10.2803C22.0546 10.1731 22.2918 9.76184 22.1847 9.36174C22.0776 8.96164 21.6666 8.7242 21.2668 8.83141L20.5428 9.02552C20.143 9.13273 19.9057 9.54398 20.0128 9.94408C20.12 10.3442 20.5309 10.5816 20.9308 10.4744L21.6547 10.2803ZM18.7316 5.03051L18.2014 5.56101C17.9086 5.854 17.4339 5.854 17.1411 5.56101C16.8483 5.26802 16.8483 4.79299 17.1411 4.5L17.6713 3.96949C17.9641 3.6765 18.4388 3.6765 18.7316 3.96949C19.0244 4.26248 19.0244 4.73752 18.7316 5.03051ZM1.71967 1.71967C2.01256 1.42678 2.48744 1.42678 2.78033 1.71967L22.2803 21.2197C22.5732 21.5126 22.5732 21.9874 22.2803 22.2803C21.9874 22.5732 21.5126 22.5732 21.2197 22.2803L1.71967 2.78033C1.42678 2.48744 1.42678 2.01256 1.71967 1.71967ZM8.97908 5.79736C9.8878 5.35689 10.9112 5.10596 11.9935 5.10596C15.7551 5.10596 18.8046 8.13694 18.8046 11.6218C18.8046 12.8774 18.5297 13.9514 18.0496 14.8679L16.9212 13.7395C17.1699 13.1226 17.3056 12.4221 17.3056 11.6218C17.3056 9.01165 14.9743 6.60596 11.9935 6.60596C11.3308 6.60596 10.7002 6.72487 10.1202 6.93849L8.97908 5.79736Z" fill="#001D21" />
</svg>