<svg xmlns="http://www.w3.org/2000/svg" width="24" height="24" viewBox="0 0 24 24" fill="none">
<path fill-rule="evenodd" clip-rule="evenodd" d="M12.751 2.25C12.751 1.83579 12.4154 1.5 12.0015 1.5C11.5876 1.5 11.252 1.83579 11.252 2.25V3C11.252 3.41421 11.5876 3.75 12.0015 3.75C12.4154 3.75 12.751 3.41421 12.751 3V2.25ZM12.0019 6.60596C14.9826 6.60596 17.314 9.01165 17.314 11.6218C17.314 13.7295 16.3731 15.1444 14.9037 16.1657C14.3626 16.5418 13.9977 17.1725 13.9977 17.8887V18.7502L12.1172 18.7498H11.8865L10.006 18.7502V17.8887C10.006 17.1725 9.64114 16.5418 9.1 16.1657C7.63061 15.1445 6.68983 13.7295 6.68983 11.6218C6.68983 9.01163 9.0211 6.60596 12.0019 6.60596ZM8.24491 17.3977C6.43228 16.1379 5.19083 14.2899 5.19083 11.6218C5.19083 8.13694 8.24021 5.10596 12.0019 5.10596C15.7635 5.10596 18.813 8.13694 18.813 11.6218C18.813 14.2899 17.5714 16.1379 15.7588 17.3977C15.5974 17.5099 15.4967 17.692 15.4967 17.8887V18.7805C15.4967 19.384 15.1402 19.8985 14.6248 20.1257V20.2502C14.6248 21.4929 13.6181 22.5002 12.3763 22.5002H11.6268C10.3849 22.5002 9.37826 21.4929 9.37826 20.2502V20.1254C8.86316 19.898 8.507 19.3837 8.507 18.7805V17.8887C8.507 17.692 8.40634 17.5099 8.24491 17.3977ZM13.1258 20.2502H10.8773C10.8773 20.6645 11.2128 21.0002 11.6268 21.0002H12.3763C12.7902 21.0002 13.1258 20.6645 13.1258 20.2502ZM3.97886 9.94401C3.87172 10.3441 3.46075 10.5815 3.06091 10.4743L2.33695 10.2802C1.93712 10.173 1.69984 9.76177 1.80697 9.36167C1.91411 8.96157 2.32509 8.72413 2.72492 8.83134L3.44888 9.02545C3.84872 9.13266 4.08599 9.54391 3.97886 9.94401ZM21.6631 10.2803C22.0629 10.1731 22.3002 9.76184 22.193 9.36174C22.0859 8.96164 21.6749 8.7242 21.2751 8.83141L20.5511 9.02552C20.1513 9.13273 19.914 9.54398 20.0211 9.94408C20.1283 10.3442 20.5393 10.5816 20.9391 10.4744L21.6631 10.2803ZM18.7399 5.03051L18.2098 5.56101C17.917 5.854 17.4422 5.854 17.1494 5.56101C16.8566 5.26802 16.8566 4.79299 17.1494 4.5L17.6796 3.96949C17.9724 3.6765 18.4471 3.6765 18.7399 3.96949C19.0327 4.26248 19.0327 4.73752 18.7399 5.03051ZM5.25788 5.03051C4.96509 4.73752 4.96509 4.26248 5.25788 3.96949C5.55068 3.6765 6.02539 3.6765 6.31819 3.96949L6.84834 4.5C7.14114 4.79299 7.14114 5.26802 6.84834 5.56101C6.55555 5.854 6.08083 5.854 5.78804 5.56101L5.25788 5.03051Z" fill="#001D21" />
</svg>