<svg width="32" height="32" viewBox="0 0 32 32" fill="none" xmlns="http://www.w3.org/2000/svg">
<path d="M24.2686 7.41468C23.8781 7.80537 23.2451 7.80537 22.8548 7.41468C22.4644 7.02406 22.4644 6.39063 22.8548 6.00001L23.5617 5.29267C23.9521 4.90198 24.5851 4.90198 24.9754 5.29267C25.3658 5.68329 25.3658 6.31672 24.9754 6.70734L24.2686 7.41468Z" fill="#0D0F13"/>
<path d="M27.9077 13.9659C27.3745 14.1088 26.8266 13.7922 26.6837 13.2588C26.5409 12.7253 26.8573 12.177 27.3903 12.034L28.3557 11.7752C28.8888 11.6323 29.4367 11.9489 29.5796 12.4823C29.7224 13.0158 29.4061 13.5641 28.873 13.7071L27.9077 13.9659Z" fill="#0D0F13"/>
<path d="M15.9909 5.00001C15.439 5.00001 14.9915 4.55232 14.9915 4.00001V3.00001C14.9915 2.4477 15.439 2.00001 15.9909 2.00001C16.5428 2.00001 16.9901 2.4477 16.9901 3.00001V4.00001C16.9901 4.55232 16.5428 5.00001 15.9909 5.00001Z" fill="#0D0F13"/>
<path d="M18.6525 23.8513C18.6525 23.5623 18.6971 23.2837 18.7791 23.0218L20.6512 24.8938V25.0404C20.6512 25.845 20.1759 26.531 19.4886 26.8339V27C19.4886 28.6569 18.1463 30 16.4906 30H15.4912C13.8355 30 12.4932 28.6569 12.4932 27V26.8336C11.8064 26.5304 11.3314 25.8447 11.3314 25.0404V23.8513C11.3314 23.5891 11.1973 23.3462 10.9821 23.1966C8.56521 21.5169 6.90993 19.0529 6.90993 15.4954C6.90993 14.2534 7.20047 13.0546 7.72201 11.9647L9.25252 13.4952C9.02895 14.1365 8.9086 14.8107 8.9086 15.4954C8.9086 18.3057 10.163 20.1923 12.1222 21.5539C12.8437 22.0553 13.3302 22.8963 13.3302 23.8513V25H18.6525V23.8513ZM16.4906 28C17.0424 28 17.4899 27.5523 17.4899 27H14.4918C14.4918 27.5523 14.9392 28 15.4912 28H16.4906Z" fill="#0D0F13"/>
<path d="M29.7071 28.2929C30.0976 28.6834 30.0976 29.3166 29.7071 29.7071C29.3166 30.0976 28.6834 30.0976 28.2929 29.7071L2.29287 3.7071C1.90237 3.3166 1.90237 2.68342 2.29287 2.29292C2.68338 1.90236 3.31655 1.90236 3.70712 2.29292L29.7071 28.2929Z" fill="#0D0F13"/>
<path d="M4.58736 12.0339C5.1205 12.1769 5.43685 12.7252 5.29403 13.2587C5.15115 13.7921 4.60318 14.1087 4.0701 13.9658L3.10483 13.707C2.57169 13.564 2.25534 13.0157 2.39816 12.4822C2.54104 11.9488 3.08902 11.6322 3.62209 11.7751L4.58736 12.0339Z" fill="#0D0F13"/>
<path d="M15.9912 8.80763C15.1078 8.80763 14.267 8.9662 13.4936 9.25099L11.9721 7.72951C13.1837 7.14223 14.5482 6.80763 15.9912 6.80763C21.0069 6.80763 25.0728 10.8489 25.0728 15.4954C25.0728 17.1696 24.7061 18.6015 24.0662 19.8236L22.5616 18.319C22.8933 17.4964 23.0741 16.5625 23.0741 15.4954C23.0741 12.0152 19.9657 8.80763 15.9912 8.80763Z" fill="#0D0F13"/>
</svg>
