<svg xmlns="http://www.w3.org/2000/svg" width="24" height="24" viewBox="0 0 24 24" fill="none">
<path fill-rule="evenodd" clip-rule="evenodd" d="M4.5 6C4.5 5.17157 5.17157 4.5 6 4.5H21C21.8284 4.5 22.5 5.17157 22.5 6V12.7493C22.5 12.7498 22.5 12.7502 22.5 12.7507V15C22.5 15.8284 21.8284 16.5 21 16.5H19.5V18C19.5 18.8284 18.8284 19.5 18 19.5H3C2.17157 19.5 1.5 18.8284 1.5 18V9C1.5 8.17157 2.17157 7.5 3 7.5H4.5V6ZM4.5 9L3 9V18H18V16.5H6C5.17157 16.5 4.5 15.8284 4.5 15V9ZM21 10.9393V6L6 6V13.9393L9.96965 9.96936C10.1129 9.82611 10.308 9.74689 10.5106 9.74975C10.7131 9.7526 10.9059 9.83729 11.0451 9.98453L12.7576 11.7965L16.7121 7.7273C16.8521 7.58332 17.0439 7.50145 17.2446 7.50002C17.4454 7.49858 17.6384 7.5777 17.7803 7.71967L21 10.9393ZM7.06062 15H21V13.0607L17.2576 9.31829L13.2879 13.4032C13.1454 13.5498 12.9492 13.6319 12.7448 13.6304C12.5403 13.629 12.3453 13.5442 12.2049 13.3956L10.4848 11.5755L7.06062 15Z" fill="#001D21" />
</svg>