<svg xmlns="http://www.w3.org/2000/svg" width="24" height="24" viewBox="0 0 24 24" fill="none">
<path fill-rule="evenodd" clip-rule="evenodd" d="M1.5 6C1.5 5.17157 2.17157 4.5 3 4.5H21C21.8284 4.5 22.5 5.17157 22.5 6V15.7493C22.5 15.7498 22.5 15.7502 22.5 15.7507V18C22.5 18.8285 21.8284 19.5 21 19.5H3C2.17157 19.5 1.5 18.8285 1.5 18V6ZM21 13.9394V6H3V16.9394L7.71968 12.2197C8.01255 11.9268 8.48745 11.9268 8.78032 12.2197L10.5 13.9394L15.2197 9.21968C15.5126 8.9268 15.9874 8.9268 16.2803 9.21968L21 13.9394ZM4.06066 18H21V16.0606L15.75 10.8106L11.0303 15.5303C10.7374 15.8232 10.2626 15.8232 9.96968 15.5303L8.25 13.8106L4.06066 18Z" fill="#001D21" />
</svg>