<svg xmlns="http://www.w3.org/2000/svg" width="24" height="24" viewBox="0 0 24 24" fill="none">
<path d="M22.1478 18.9658C22.3676 18.7048 22.5 18.3679 22.5 18V6C22.5 5.17157 21.8285 4.5 21 4.5H7.68196L9.18196 6H21V13.9393L16.2803 9.21967C15.9875 8.9268 15.5126 8.9268 15.2197 9.21967L13.8107 10.6287L14.8713 11.6893L15.75 10.8106L21 16.0606V17.818L22.1478 18.9658Z" fill="#001D21" />
<path d="M11.6894 14.8722L11.0303 15.5313C10.7374 15.8241 10.2626 15.8241 9.96968 15.5313L8.25 13.8116L4.06066 18.0009H14.8181L16.3181 19.5009H3C2.17157 19.5009 1.5 18.8294 1.5 18.0009V6.00094C1.5 5.63306 1.63244 5.2961 1.85224 5.03516L3 6.18292V16.9403L7.71968 12.2206C8.01255 11.9277 8.48745 11.9277 8.78032 12.2206L10.5 13.9403L10.6287 13.8116L11.6894 14.8722Z" fill="#001D21" />
<path fill-rule="evenodd" clip-rule="evenodd" d="M1.71967 1.71967C2.01257 1.42678 2.48743 1.42678 2.78033 1.71967L22.2803 21.2197C22.5732 21.5126 22.5732 21.9874 22.2803 22.2803C21.9874 22.5732 21.5126 22.5732 21.2197 22.2803L1.71967 2.78033C1.42678 2.48743 1.42678 2.01257 1.71967 1.71967Z" fill="#001D21" />
</svg>