<svg xmlns="http://www.w3.org/2000/svg" width="24" height="24" viewBox="0 0 24 24" fill="none">
<path fill-rule="evenodd" clip-rule="evenodd" d="M19.5 3.75C19.9142 3.75 20.25 4.08579 20.25 4.5V6H21.75C22.1642 6 22.5 6.33579 22.5 6.75C22.5 7.16421 22.1642 7.5 21.75 7.5H20.25V9C20.25 9.41423 19.9142 9.75 19.5 9.75C19.0858 9.75 18.75 9.41423 18.75 9V7.5H17.25C16.8358 7.5 16.5 7.16421 16.5 6.75C16.5 6.33579 16.8358 6 17.25 6H18.75V4.5C18.75 4.08579 19.0858 3.75 19.5 3.75Z" fill="#001D21" />
<path fill-rule="evenodd" clip-rule="evenodd" d="M1.5 7.5C1.5 6.67157 2.17157 6 3 6H14.25C14.6642 6 15 6.33579 15 6.75C15 7.16421 14.6642 7.5 14.25 7.5H3V16.9394L6.96967 12.9697C7.26256 12.6768 7.73745 12.6768 8.03032 12.9697L9.75 14.6894L13.7197 10.7197C14.0126 10.4268 14.4874 10.4268 14.7803 10.7197L18.75 14.6894V12C18.75 11.5858 19.0858 11.25 19.5 11.25C19.9142 11.25 20.25 11.5858 20.25 12V17.9999C20.25 18.8284 19.5784 19.4999 18.75 19.4999H3C2.17157 19.4999 1.5 18.8284 1.5 17.9999V7.5ZM18.75 16.8106L14.25 12.3106L10.2803 16.2803C9.98745 16.5732 9.51255 16.5732 9.21968 16.2803L7.5 14.5606L4.06073 17.9999H18.75V16.8106Z" fill="#001D21" />
</svg>