<svg xmlns="http://www.w3.org/2000/svg" width="24" height="24" viewBox="0 0 24 24" fill="none">
<path fill-rule="evenodd" clip-rule="evenodd" d="M12.0097 3.00195C7.02868 3.00195 2.99072 7.03991 2.99072 12.021C2.99072 17.002 7.02868 21.04 12.0097 21.04C16.9908 21.04 21.0288 17.002 21.0288 12.021C21.0288 7.03991 16.9908 3.00195 12.0097 3.00195ZM1.49072 12.021C1.49072 6.21148 6.20025 1.50195 12.0097 1.50195C17.8192 1.50195 22.5288 6.21148 22.5288 12.021C22.5288 17.8305 17.8192 22.54 12.0097 22.54C6.20025 22.54 1.49072 17.8305 1.49072 12.021Z" fill="#001D21" />
<path fill-rule="evenodd" clip-rule="evenodd" d="M12.0188 10.5937C12.433 10.5937 12.7688 10.9295 12.7688 11.3437V15.5552C12.7688 15.9694 12.433 16.3052 12.0188 16.3052C11.6046 16.3052 11.2688 15.9694 11.2688 15.5552V11.3437C11.2688 10.9295 11.6046 10.5937 12.0188 10.5937Z" fill="#001D21" />
<path fill-rule="evenodd" clip-rule="evenodd" d="M12.019 7.73633C12.4333 7.73633 12.769 8.07211 12.769 8.48633V8.64916C12.769 9.06337 12.4333 9.39916 12.019 9.39916C11.6048 9.39916 11.269 9.06337 11.269 8.64916V8.48633C11.269 8.07211 11.6048 7.73633 12.019 7.73633Z" fill="#001D21" />
</svg>