<svg xmlns="http://www.w3.org/2000/svg" width="24" height="24" viewBox="0 0 24 24" fill="none">
<path d="M10.5 5.98245C10.5 6.81088 11.1716 7.48245 12 7.48245C12.8284 7.48245 13.5 6.81088 13.5 5.98245C13.5 5.15403 12.8284 4.48245 12 4.48245C11.1716 4.48245 10.5 5.15403 10.5 5.98245Z" fill="#001D21" />
<path d="M10.5 12C10.5 12.8284 11.1716 13.5 12 13.5C12.8284 13.5 13.5 12.8284 13.5 12C13.5 11.1716 12.8284 10.5 12 10.5C11.1716 10.5 10.5 11.1716 10.5 12Z" fill="#001D21" />
<path d="M10.5 18.0215C10.5 18.8499 11.1716 19.5215 12 19.5215C12.8284 19.5215 13.5 18.8499 13.5 18.0215C13.5 17.1931 12.8284 16.5215 12 16.5215C11.1716 16.5215 10.5 17.1931 10.5 18.0215Z" fill="#001D21" />
</svg>