<svg xmlns="http://www.w3.org/2000/svg" width="24" height="24" viewBox="0 0 24 24" fill="none">
<path fill-rule="evenodd" clip-rule="evenodd" d="M12.3991 10.9042C13.8542 12.3692 16.2133 12.3692 17.6684 10.9042C19.1235 9.43928 19.1235 7.06414 17.6684 5.5992C16.2133 4.13426 13.8542 4.13426 12.3991 5.5992C10.9441 7.06414 10.9441 9.43928 12.3991 10.9042ZM11.9094 12.458C13.9525 14.0003 16.864 13.8361 18.7223 11.9652C20.7593 9.91433 20.7593 6.58911 18.7223 4.53819C16.6851 2.48727 13.3823 2.48727 11.3453 4.53819C9.48706 6.40894 9.32383 9.33994 10.8555 11.397L3.96826 18.3309C3.67725 18.6239 3.67725 19.099 3.96826 19.3919L5.34636 20.7803C5.63737 21.0732 6.1092 21.0732 6.40021 20.7803C6.69122 20.4872 6.69122 20.0122 6.40021 19.7192L5.54861 18.8619L6.60279 17.8005L7.50215 18.706C7.79314 18.999 8.265 18.999 8.55599 18.706C8.84699 18.413 8.84699 17.938 8.55599 17.645L7.65662 16.7395L11.9094 12.458Z" fill="#001D21" />
</svg>