<svg xmlns="http://www.w3.org/2000/svg" width="24" height="24" viewBox="0 0 24 24" fill="none">
<path fill-rule="evenodd" clip-rule="evenodd" d="M9.7913 13.0121L4.5083 18.3309C4.21728 18.6239 4.21728 19.099 4.5083 19.3919L5.88639 20.7803C6.17741 21.0732 6.64923 21.0732 6.94025 20.7803C7.23126 20.4872 7.23126 20.0122 6.94025 19.7192L6.08865 18.8619L7.14283 17.8005L8.0422 18.706C8.33319 18.999 8.80504 18.999 9.09604 18.706C9.38704 18.413 9.38704 17.938 9.09604 17.645L8.19667 16.7395L10.8451 14.0731L9.7913 13.0121ZM16.5169 13.4174C17.5225 13.2321 18.4846 12.7482 19.2623 11.9652C21.2993 9.91433 21.2993 6.58911 19.2623 4.53819C17.2251 2.48727 13.9223 2.48727 11.8853 4.53819C11.1077 5.32108 10.6269 6.28964 10.4429 7.30214L11.8806 8.7495C11.7327 7.63119 12.0855 6.45858 12.9391 5.5992C14.3942 4.13425 16.7533 4.13425 18.2083 5.5992C19.6635 7.06414 19.6635 9.43928 18.2083 10.9042C17.3548 11.7636 16.1901 12.1188 15.0793 11.9699L16.5169 13.4174Z" fill="#001D21" />
<path fill-rule="evenodd" clip-rule="evenodd" d="M1.71967 1.71967C2.01257 1.42678 2.48743 1.42678 2.78033 1.71967L22.2803 21.2197C22.5732 21.5126 22.5732 21.9874 22.2803 22.2803C21.9874 22.5732 21.5126 22.5732 21.2197 22.2803L1.71967 2.78033C1.42678 2.48743 1.42678 2.01257 1.71967 1.71967Z" fill="#001D21" />
</svg>