<svg xmlns="http://www.w3.org/2000/svg" width="24" height="24" viewBox="0 0 24 24" fill="none">
<path fill-rule="evenodd" clip-rule="evenodd" d="M11.9982 4.49906L19.4993 9.29872L11.9974 14.1053L4.50004 9.30397L11.9982 4.49906ZM11.1889 3.23609C11.6819 2.9202 12.3136 2.91999 12.8067 3.23555L20.3077 8.0352C21.2295 8.625 21.2299 9.9714 20.3085 10.5617L18.0576 12.004L20.3054 13.4345C21.2303 14.0231 21.2319 15.3727 20.3085 15.9636L12.8051 20.764C12.3123 21.0794 11.681 21.0793 11.1881 20.7639L3.69325 15.9672C2.7695 15.376 2.77174 14.0258 3.69746 13.4377L5.94436 12.0102L3.69108 10.5672C2.7698 9.9772 2.7696 8.63125 3.69071 8.041L11.1889 3.23609ZM7.33744 12.9023L4.50184 14.7038L11.9967 19.5004L19.5 14.7L16.6653 12.896L12.8066 15.3683C12.3135 15.6842 11.6816 15.6843 11.1884 15.3685L7.33744 12.9023Z" fill="#001D21" />
</svg>