<svg xmlns="http://www.w3.org/2000/svg" width="24" height="24" viewBox="0 0 24 24" fill="none">
<path fill-rule="evenodd" clip-rule="evenodd" d="M15.7183 18.901L14.6324 17.8151L11.9972 19.501L4.50253 14.7045L7.33806 12.903L11.1889 15.3691C11.5466 15.5982 11.9773 15.6611 12.3751 15.5578L9.00947 12.1922L4.50073 9.30478L5.48887 8.67158L4.40309 7.5858L3.69143 8.04184C2.77034 8.63208 2.77054 9.97799 3.69179 10.568L5.94502 12.0109L3.69817 13.4384C2.77248 14.0265 2.77024 15.3767 3.69396 15.9679L11.1887 20.7644C11.6815 21.0798 12.3127 21.0799 12.8056 20.7645L15.7183 18.901ZM8.28164 5.10039L11.1894 3.23706C11.6824 2.92118 12.314 2.92097 12.8072 3.23652L20.308 8.03604C21.2297 8.62582 21.2301 9.97219 20.3088 10.5625L18.0579 12.0047L20.3057 13.4352C21.2306 14.0238 21.2322 15.3734 20.3087 15.9642L19.5993 16.4181L18.5134 15.3321L19.5003 14.7007L16.6657 12.8967L16.3075 13.1262L15.2217 12.0404L19.4996 9.29953L11.9987 4.5L9.36742 6.18617L8.28164 5.10039Z" fill="#001D21" />
<path fill-rule="evenodd" clip-rule="evenodd" d="M1.71967 1.71967C2.01256 1.42678 2.48744 1.42678 2.78033 1.71967L22.2803 21.2197C22.5732 21.5126 22.5732 21.9874 22.2803 22.2803C21.9874 22.5732 21.5126 22.5732 21.2197 22.2803L1.71967 2.78033C1.42678 2.48744 1.42678 2.01256 1.71967 1.71967Z" fill="#001D21" />
</svg>