<svg xmlns="http://www.w3.org/2000/svg" width="24" height="24" viewBox="0 0 24 24" fill="none">
<path fill-rule="evenodd" clip-rule="evenodd" d="M10.9388 7.75774C10.6459 7.46485 10.6459 6.98999 10.9388 6.6971L13.0601 4.57581C14.8174 2.81848 17.6666 2.81848 19.4239 4.57581C21.1813 6.33314 21.1813 9.18234 19.4239 10.9397L17.3026 13.061C17.0098 13.3539 16.5349 13.3539 16.242 13.061C15.9491 12.7681 15.9491 12.2932 16.242 12.0003L18.3633 9.87902C19.5348 8.70747 19.5348 6.80801 18.3633 5.63646C17.1917 4.4649 15.2923 4.4649 14.1207 5.63646L11.9994 7.75774C11.7066 8.05063 11.2317 8.05063 10.9388 7.75774ZM13.06 16.2426C13.3529 16.5355 13.3529 17.0104 13.06 17.3033L10.9387 19.4245C9.18135 21.1819 6.33216 21.1819 4.57483 19.4245C2.8175 17.6672 2.8175 14.818 4.57483 13.0607L6.69612 10.9394C6.98901 10.6465 7.46387 10.6465 7.75676 10.9394C8.04965 11.2323 8.04965 11.7072 7.75676 12L5.63547 14.1213C4.46392 15.2929 4.46392 17.1923 5.63547 18.3639C6.80703 19.5355 8.70649 19.5355 9.87804 18.3639L11.9993 16.2426C12.2922 15.9497 12.7671 15.9497 13.06 16.2426ZM7.22707 15.7125C6.93424 16.0053 6.93424 16.4801 7.22707 16.7729C7.51989 17.0657 7.99465 17.0657 8.28747 16.7729L16.7726 8.28771C17.0654 7.99489 17.0654 7.52013 16.7726 7.22731C16.4798 6.93448 16.005 6.93448 15.7122 7.22731L7.22707 15.7125Z" fill="#001D21" />
</svg>