<svg xmlns="http://www.w3.org/2000/svg" width="24" height="24" viewBox="0 0 24 24" fill="none">
<path fill-rule="evenodd" clip-rule="evenodd" d="M4.57558 4.57531C4.86848 4.28241 5.34335 4.28241 5.63625 4.57531L6.6969 5.63597C6.9898 5.92886 6.9898 6.40374 6.6969 6.69663C6.40401 6.98952 5.92914 6.98952 5.63625 6.69663L4.57558 5.63597C4.28269 5.34308 4.28269 4.8682 4.57558 4.57531Z" fill="#001D21" />
<path fill-rule="evenodd" clip-rule="evenodd" d="M1.85826 9.28264C1.96547 8.88259 2.37672 8.64514 2.77682 8.75232L4.22571 9.14059C4.62581 9.24777 4.86325 9.65899 4.75604 10.0591C4.64883 10.4592 4.23758 10.6967 3.83748 10.5894L2.38859 10.2012C1.98849 10.094 1.75106 9.68277 1.85826 9.28264Z" fill="#001D21" />
<path fill-rule="evenodd" clip-rule="evenodd" d="M9.28201 1.85802C8.88188 1.96522 8.64443 2.37647 8.75168 2.77657L9.13988 4.22546C9.24713 4.62556 9.65836 4.863 10.0585 4.75579C10.4585 4.64859 10.696 4.23733 10.5888 3.83723L10.2005 2.38834C10.0934 1.98825 9.68206 1.75081 9.28201 1.85802Z" fill="#001D21" />
<path fill-rule="evenodd" clip-rule="evenodd" d="M19.4245 19.425C19.1316 19.7179 18.6568 19.7179 18.3638 19.425L17.3032 18.3643C17.0103 18.0714 17.0103 17.5966 17.3032 17.3037C17.5961 17.0108 18.0709 17.0108 18.3638 17.3037L19.4245 18.3643C19.7174 18.6573 19.7174 19.1321 19.4245 19.425Z" fill="#001D21" />
<path fill-rule="evenodd" clip-rule="evenodd" d="M22.1418 14.7173C22.0346 15.1174 21.6234 15.3548 21.2232 15.2477L19.7743 14.8594C19.3743 14.7522 19.1368 14.341 19.244 13.9409C19.3512 13.5407 19.7625 13.3034 20.1626 13.4105L21.6114 13.7987C22.0116 13.906 22.249 14.3172 22.1418 14.7173Z" fill="#001D21" />
<path fill-rule="evenodd" clip-rule="evenodd" d="M14.7182 22.1423C15.1184 22.0351 15.3558 21.6238 15.2486 21.2238L14.8604 19.7748C14.7532 19.3748 14.3419 19.1373 13.9418 19.2445C13.5417 19.3518 13.3043 19.763 13.4115 20.1631L13.7997 21.612C13.9069 22.0121 14.3182 22.2495 14.7182 22.1423Z" fill="#001D21" />
<path fill-rule="evenodd" clip-rule="evenodd" d="M10.9394 7.75785C10.6465 7.46495 10.6465 6.99007 10.9394 6.69718L13.0608 4.57586C14.8181 2.8185 17.6673 2.8185 19.4247 4.57586C21.1821 6.33322 21.1821 9.18248 19.4247 10.9398L17.3034 13.0612C17.0105 13.3541 16.5356 13.3541 16.2427 13.0612C15.9498 12.7682 15.9498 12.2934 16.2427 12.0005L18.364 9.87915C19.5356 8.70758 19.5356 6.80809 18.364 5.63652C17.1924 4.46495 15.293 4.46495 14.1214 5.63652L12 7.75785C11.7072 8.05073 11.2323 8.05073 10.9394 7.75785Z" fill="#001D21" />
<path fill-rule="evenodd" clip-rule="evenodd" d="M13.0606 16.2417C13.3535 16.5347 13.3535 17.0095 13.0606 17.3024L10.9393 19.4238C9.18192 21.1811 6.3327 21.1811 4.57534 19.4238C2.81799 17.6664 2.81799 14.8171 4.57534 13.0598L6.69666 10.9385C6.98955 10.6455 7.46443 10.6455 7.7573 10.9385C8.05025 11.2314 8.05025 11.7063 7.7573 11.9991L5.63601 14.1204C4.46443 15.292 4.46443 17.1915 5.63601 18.3631C6.80757 19.5347 8.7071 19.5347 9.87867 18.3631L12 16.2417C12.2928 15.9489 12.7677 15.9489 13.0606 16.2417Z" fill="#001D21" />
</svg>