<svg width="32" height="32" viewBox="0 0 32 32" fill="none" xmlns="http://www.w3.org/2000/svg">
<path d="M27 15C27.5523 15 28 15.4477 28 16C28 16.5523 27.5523 17 27 17H21.2426L19.2426 15H27Z" fill="#0D0F13"/>
<path d="M27 8.00001H12.2426L10.4246 6.18202C10.5874 6.06733 10.7858 6.00001 11 6.00001H27C27.5523 6.00001 28 6.4477 28 7.00001C28 7.55232 27.5523 8.00001 27 8.00001Z" fill="#0D0F13"/>
<path d="M5.49996 26.5C6.32839 26.5 6.99997 25.8284 6.99997 25C6.99997 24.1716 6.32839 23.5 5.49996 23.5C4.67154 23.5 3.99996 24.1716 3.99996 25C3.99996 25.8284 4.67154 26.5 5.49996 26.5Z" fill="#0D0F13"/>
<path d="M11 24H19.7574L21.7574 26H11C10.4477 26 9.99996 25.5523 9.99996 25C9.99996 24.4477 10.4477 24 11 24Z" fill="#0D0F13"/>
<path d="M29.7071 28.2929C30.0976 28.6834 30.0976 29.3166 29.7071 29.7071C29.3166 30.0976 28.6834 30.0976 28.2929 29.7071L2.29287 3.7071C1.90237 3.3166 1.90237 2.68342 2.29287 2.29292C2.68338 1.90236 3.31655 1.90236 3.70712 2.29292L29.7071 28.2929Z" fill="#0D0F13"/>
<path d="M11 17C10.4477 17 9.99996 16.5523 9.99996 16C9.99996 15.5228 10.3342 15.1237 10.7813 15.024L12.7574 17H11Z" fill="#0D0F13"/>
<path d="M5.49996 17.5C6.32839 17.5 6.99997 16.8284 6.99997 16C6.99997 15.1716 6.32839 14.5 5.49996 14.5C4.67154 14.5 3.99996 15.1716 3.99996 16C3.99996 16.8284 4.67154 17.5 5.49996 17.5Z" fill="#0D0F13"/>
</svg>
