<svg xmlns="http://www.w3.org/2000/svg" width="24" height="24" viewBox="0 0 24 24" fill="none">
<path fill-rule="evenodd" clip-rule="evenodd" d="M2.78033 1.71967C2.48744 1.42678 2.01256 1.42678 1.71967 1.71967C1.42678 2.01256 1.42678 2.48744 1.71967 2.78033L21.2197 22.2803C21.5126 22.5732 21.9874 22.5732 22.2803 22.2803C22.5732 21.9874 22.5732 21.5126 22.2803 21.2197L2.78033 1.71967ZM20.25 12.75H15.932L14.432 11.25H20.25C20.6642 11.25 21 11.5858 21 12C21 12.4142 20.6642 12.75 20.25 12.75ZM8.086 11.268L9.56802 12.75H8.25C7.83579 12.75 7.5 12.4142 7.5 12C7.5 11.6421 7.75067 11.3428 8.086 11.268ZM8.25 4.5C8.08936 4.5 7.94052 4.5505 7.81848 4.6365L9.18198 6H20.25C20.6642 6 21 5.66421 21 5.25C21 4.83579 20.6642 4.5 20.25 4.5H8.25ZM16.318 19.5L14.818 18H8.25C7.83579 18 7.5 18.3358 7.5 18.75C7.5 19.1642 7.83579 19.5 8.25 19.5H16.318ZM5.25 12C5.25 12.6213 4.74632 13.125 4.125 13.125C3.50368 13.125 3 12.6213 3 12C3 11.3787 3.50368 10.875 4.125 10.875C4.74632 10.875 5.25 11.3787 5.25 12ZM4.125 19.875C4.74632 19.875 5.25 19.3713 5.25 18.75C5.25 18.1287 4.74632 17.625 4.125 17.625C3.50368 17.625 3 18.1287 3 18.75C3 19.3713 3.50368 19.875 4.125 19.875Z" fill="#001D21" />
</svg>