<svg xmlns="http://www.w3.org/2000/svg" width="24" height="24" viewBox="0 0 24 24" fill="none">
<path fill-rule="evenodd" clip-rule="evenodd" d="M4.125 6.375C4.74632 6.375 5.25 5.87132 5.25 5.25C5.25 4.62868 4.74632 4.125 4.125 4.125C3.50368 4.125 3 4.62868 3 5.25C3 5.87132 3.50368 6.375 4.125 6.375ZM8.25 4.5C7.83579 4.5 7.5 4.83579 7.5 5.25C7.5 5.66421 7.83579 6 8.25 6H20.25C20.6642 6 21 5.66421 21 5.25C21 4.83579 20.6642 4.5 20.25 4.5H8.25ZM8.25 11.25C7.83579 11.25 7.5 11.5858 7.5 12C7.5 12.4142 7.83579 12.75 8.25 12.75H20.25C20.6642 12.75 21 12.4142 21 12C21 11.5858 20.6642 11.25 20.25 11.25H8.25ZM7.5 18.75C7.5 18.3358 7.83579 18 8.25 18H20.25C20.6642 18 21 18.3358 21 18.75C21 19.1642 20.6642 19.5 20.25 19.5H8.25C7.83579 19.5 7.5 19.1642 7.5 18.75ZM5.25 12C5.25 12.6213 4.74632 13.125 4.125 13.125C3.50368 13.125 3 12.6213 3 12C3 11.3787 3.50368 10.875 4.125 10.875C4.74632 10.875 5.25 11.3787 5.25 12ZM4.125 19.875C4.74632 19.875 5.25 19.3713 5.25 18.75C5.25 18.1287 4.74632 17.625 4.125 17.625C3.50368 17.625 3 18.1287 3 18.75C3 19.3713 3.50368 19.875 4.125 19.875Z" fill="#001D21" />
</svg>