<svg xmlns="http://www.w3.org/2000/svg" width="24" height="24" viewBox="0 0 24 24" fill="none">
<path fill-rule="evenodd" clip-rule="evenodd" d="M15.3656 18.0483L14.7014 17.3842C14.7192 17.5481 14.791 17.7074 14.9167 17.8331C15.0424 17.9588 15.2016 18.0305 15.3656 18.0483ZM16.432 12.7507H18.9384L17.6852 14.0039L18.7458 15.0646L21.2554 12.5551C21.264 12.5472 21.2724 12.5391 21.2807 12.5308C21.5736 12.2379 21.5736 11.7631 21.2807 11.4702L15.9775 6.16694C15.6846 5.87404 15.2097 5.87404 14.9168 6.16694C14.624 6.45983 14.624 6.9347 14.9168 7.2276L18.94 11.2507H14.932L16.432 12.7507ZM3.98231 6.66503L10.3737 13.0564C7.26717 13.9731 5 16.8472 5 20.2507C5 20.6649 4.66421 21.0007 4.25 21.0007C3.83579 21.0007 3.5 20.6649 3.5 20.2507C3.5 16.5612 5.72018 13.3901 8.89744 12.0007C6.5985 10.9954 4.80064 9.05737 3.98231 6.66503Z" fill="#001D21" />
<path fill-rule="evenodd" clip-rule="evenodd" d="M2.21967 1.71967C2.51256 1.42678 2.98744 1.42678 3.28033 1.71967L22.7803 21.2197C23.0732 21.5126 23.0732 21.9874 22.7803 22.2803C22.4874 22.5732 22.0126 22.5732 21.7197 22.2803L2.21967 2.78033C1.92678 2.48744 1.92678 2.01256 2.21967 1.71967Z" fill="#001D21" />
</svg>