<svg width="32" height="32" viewBox="0 0 32 32" fill="none" xmlns="http://www.w3.org/2000/svg">
<path fill-rule="evenodd" clip-rule="evenodd" d="M24.5866 15L19.2225 9.63581C18.8319 9.24531 18.8319 8.61213 19.2225 8.22163C19.613 7.83107 20.2461 7.83107 20.6367 8.22163L27.7077 15.2926C28.0982 15.6831 28.0982 16.3163 27.7077 16.7068C27.6966 16.7179 27.6853 16.7286 27.6738 16.7391L24.3278 20.0851L22.9136 18.6709L24.5845 17H21.2426L19.2426 15H24.5866Z" fill="#0D0F13"/>
<path fill-rule="evenodd" clip-rule="evenodd" d="M11.1966 16C8.13135 14.6596 5.7342 12.0755 4.64307 8.88575L13.1649 17.4076C9.0229 18.6298 6.00001 22.4619 6.00001 27C6.00001 27.5523 5.55232 28 5.00001 28C4.4477 28 4.00001 27.5523 4.00001 27C4.00001 22.0806 6.96028 17.8525 11.1966 16Z" fill="#0D0F13"/>
<path fill-rule="evenodd" clip-rule="evenodd" d="M19.2223 23.7764C19.0547 23.6088 18.959 23.3965 18.9353 23.1779L19.8208 24.0635C19.6022 24.0397 19.3899 23.9441 19.2223 23.7764Z" fill="#0D0F13"/>
<path fill-rule="evenodd" clip-rule="evenodd" d="M29.7071 28.2929C30.0976 28.6834 30.0976 29.3166 29.7071 29.7071C29.3166 30.0976 28.6834 30.0976 28.2929 29.7071L2.29292 3.7071C1.90236 3.3166 1.90236 2.68342 2.29292 2.29292C2.68342 1.90236 3.3166 1.90236 3.7071 2.29292L29.7071 28.2929Z" fill="#0D0F13"/>
</svg>
