<svg xmlns="http://www.w3.org/2000/svg" width="24" height="24" viewBox="0 0 24 24" fill="none">
<path fill-rule="evenodd" clip-rule="evenodd" d="M3.74998 3C4.16419 3 4.49997 3.33578 4.49997 3.74998C4.49997 7.89107 7.8562 11.2483 11.9969 11.2498H11.9998H18.4396L14.4166 7.22677C14.1237 6.93388 14.1237 6.45902 14.4166 6.16613C14.7095 5.87325 15.1843 5.87325 15.4772 6.16613L20.7803 11.4692C21.0732 11.7621 21.0732 12.237 20.7803 12.5299C20.772 12.5382 20.7636 12.5463 20.755 12.5541L15.4771 17.832C15.1842 18.1249 14.7093 18.1249 14.4164 17.832C14.1236 17.5391 14.1236 17.0642 14.4164 16.7714L18.438 12.7498H11.9998C7.85775 12.7498 4.49997 16.1076 4.49997 20.2496C4.49997 20.6638 4.16419 20.9996 3.74998 20.9996C3.33578 20.9996 3 20.6638 3 20.2496C3 16.5601 5.22013 13.3892 8.39731 11.9998C5.22013 10.6104 3 7.43948 3 3.74998C3 3.33578 3.33578 3 3.74998 3Z" fill="#001D21" />
</svg>