<svg xmlns="http://www.w3.org/2000/svg" width="24" height="24" viewBox="0 0 24 24" fill="none">
<path d="M9.05322 5.85498C9.46726 5.85512 9.80312 6.19094 9.80322 6.60498C9.80322 7.01911 9.46732 7.35484 9.05322 7.35498H4.5459C4.13176 7.35499 3.796 7.69086 3.7959 8.10498V18.9976L8.10547 16.9219L8.18311 16.8896C8.26245 16.8619 8.3462 16.8479 8.43066 16.8479H18.0459C18.4601 16.8479 18.7958 16.512 18.7959 16.0979V14.3262C18.796 13.9121 19.1318 13.5762 19.5459 13.5762C19.96 13.5762 20.2957 13.9121 20.2959 14.3262V16.0979C20.2958 17.3405 19.2885 18.3479 18.0459 18.3479H8.60132L3.37109 20.8674C3.13872 20.9793 2.86511 20.9643 2.64673 20.8271C2.42844 20.6899 2.29596 20.45 2.2959 20.1921V8.10498C2.296 6.86243 3.30333 5.85499 4.5459 5.85498H9.05322Z" fill="#001D21" />
<path fill-rule="evenodd" clip-rule="evenodd" d="M15.7959 3.05859C16.1101 3.05859 16.3805 3.28121 16.4404 3.5896C16.4406 3.59031 16.4409 3.59245 16.4412 3.59399C16.4419 3.59769 16.4432 3.60357 16.4448 3.61157C16.4482 3.62807 16.453 3.65376 16.4602 3.68701C16.4747 3.75353 16.4975 3.85122 16.5276 3.97266C16.5881 4.21643 16.6794 4.55218 16.803 4.91895C17.0602 5.68213 17.4206 6.46894 17.8562 6.90454C18.2918 7.34014 19.0786 7.70057 19.8418 7.95776C20.2086 8.08135 20.5443 8.17268 20.7881 8.23315C20.9095 8.26328 21.0072 8.28603 21.0737 8.30054C21.107 8.30779 21.1327 8.31253 21.1492 8.31592C21.1572 8.31756 21.1631 8.31884 21.1667 8.31958C21.1683 8.31989 21.1697 8.32017 21.1704 8.32031C21.4788 8.38024 21.7021 8.65066 21.7021 8.96484C21.7021 9.23975 21.5317 9.48101 21.2825 9.57715L21.1711 9.60937C21.1704 9.60952 21.1683 9.6098 21.1667 9.61011C21.1631 9.61084 21.1572 9.61213 21.1492 9.61377C21.1327 9.61716 21.107 9.6219 21.0737 9.62915C21.0072 9.64366 20.9095 9.66641 20.7881 9.69653C20.5443 9.75701 20.2086 9.84833 19.8418 9.97192C19.0786 10.2291 18.2918 10.5895 17.8562 11.0251C17.4206 11.4607 17.0602 12.2476 16.803 13.0107C16.6794 13.3775 16.5881 13.7133 16.5276 13.957C16.4975 14.0785 16.4747 14.1762 16.4602 14.2427C16.453 14.2759 16.4482 14.3016 16.4448 14.3181C16.4432 14.3261 16.4419 14.332 16.4412 14.3357C16.4409 14.3372 16.4406 14.3386 16.4404 14.3394C16.3805 14.6477 16.1101 14.8711 15.7959 14.8711C15.521 14.8711 15.2797 14.7006 15.1836 14.4514L15.1514 14.3401C15.1512 14.3394 15.1509 14.3372 15.1506 14.3357C15.1499 14.332 15.1486 14.3261 15.147 14.3181C15.1436 14.3016 15.1388 14.2759 15.1316 14.2427C15.1171 14.1762 15.0943 14.0785 15.0642 13.957C15.0037 13.7133 14.9124 13.3775 14.7888 13.0107C14.5316 12.2476 14.1712 11.4607 13.7356 11.0251C13.3 10.5895 12.5132 10.2291 11.75 9.97192C11.3832 9.84833 11.0475 9.75701 10.8037 9.69653C10.6823 9.66641 10.5846 9.64366 10.5181 9.62915C10.4848 9.6219 10.4591 9.61716 10.4426 9.61377C10.4346 9.61213 10.4287 9.61084 10.425 9.61011C10.4235 9.6098 10.4221 9.60952 10.4214 9.60937C10.113 9.54945 9.88965 9.27902 9.88965 8.96484C9.88965 8.65066 10.1123 8.38024 10.4207 8.32031C10.4214 8.32017 10.4235 8.31989 10.425 8.31958C10.4287 8.31884 10.4346 8.31756 10.4426 8.31592C10.4591 8.31253 10.4848 8.30779 10.5181 8.30054C10.5846 8.28603 10.6823 8.26328 10.8037 8.23315C11.0475 8.17268 11.3832 8.08135 11.75 7.95776C12.5132 7.70057 13.3 7.34014 13.7356 6.90454C14.1712 6.46894 14.5316 5.68213 14.7888 4.91895C14.9124 4.55218 15.0037 4.21643 15.0642 3.97266C15.0943 3.85122 15.1171 3.75353 15.1316 3.68701C15.1388 3.65376 15.1436 3.62807 15.147 3.61157C15.1486 3.60357 15.1499 3.59769 15.1506 3.59399C15.1509 3.59245 15.1512 3.59104 15.1514 3.59033C15.2112 3.28184 15.4817 3.05859 15.7959 3.05859ZM15.7959 5.97729C15.5298 6.63085 15.1601 7.33603 14.6636 7.83252C14.1671 8.32901 13.4619 8.69874 12.8083 8.96484C13.4619 9.23094 14.1671 9.60068 14.6636 10.0972C15.1599 10.5935 15.5298 11.2983 15.7959 11.9517C16.062 11.2983 16.4319 10.5935 16.9282 10.0972C17.4246 9.60083 18.1293 9.23092 18.7827 8.96484C18.1293 8.69876 17.4246 8.32885 16.9282 7.83252C16.4317 7.33603 16.062 6.63085 15.7959 5.97729Z" fill="#001D21" />
</svg>