<svg xmlns="http://www.w3.org/2000/svg" width="24" height="24" viewBox="0 0 24 24" fill="none">
<path fill-rule="evenodd" clip-rule="evenodd" d="M4.61598 4.49807L19.2611 4.49805C20.1719 4.49805 20.9111 5.23738 20.9111 6.14907V14.3725C20.9111 15.284 20.1723 16.0232 19.2616 16.0235L16.2976 16.0245H16.2973H7.70819C7.69804 16.0243 7.68787 16.0243 7.6777 16.0245H7.46549V16.0597C7.40351 16.0796 7.3431 16.1079 7.28586 16.1449L2.97891 18.9351L2.96599 15.2259V6.14808C2.96599 5.23681 3.70472 4.49808 4.61598 4.49807ZM1.46599 15.2285V16.1262H1.46911L1.4837 20.3141C1.48466 20.5885 1.63535 20.8404 1.87661 20.9711C2.11788 21.1017 2.41122 21.0902 2.64148 20.941L7.91525 17.5245H16.2976H16.2978L19.2621 17.5235C21.0018 17.523 22.4111 16.1114 22.4111 14.3725V6.14907C22.4111 4.40979 21.0012 2.99804 19.2611 2.99805L4.61598 2.99807C2.87629 2.99808 1.46599 4.40838 1.46599 6.14808V14.8572C1.46518 14.8719 1.4648 14.8867 1.46485 14.9017L1.46599 15.2285Z" fill="#001D21" />
</svg>