<svg xmlns="http://www.w3.org/2000/svg" width="24" height="24" viewBox="0 0 24 24" fill="none">
<path d="M20.3189 17.1369C21.5778 16.7806 22.5001 15.623 22.5001 14.25V6C22.5001 4.3445 21.1614 3 19.5033 3H6.18201L7.68198 4.5H19.5033C20.3304 4.5 21.0001 5.17022 21.0001 6V14.25C21.0001 15.0785 20.3286 15.75 19.5001 15.75H18.932L20.3189 17.1369Z" fill="#001D21" />
<path d="M3.04486 6.22684L3 16.5L3.00007 18.8968L7.85258 15.864C7.97183 15.7895 8.10953 15.75 8.25008 15.75H12.5681L14.0681 17.25H8.46517L2.6476 20.886C2.41641 21.0305 2.125 21.0382 1.88654 20.9059C1.64808 20.7738 1.50012 20.5226 1.5001 20.25L1.5 16.5L1.50001 16.4967L1.54589 5.9869C1.54752 5.61307 1.61743 5.25541 1.74379 4.92577L3.04486 6.22684Z" fill="#001D21" />
<path fill-rule="evenodd" clip-rule="evenodd" d="M1.71967 1.71967C2.01257 1.42678 2.48743 1.42678 2.78033 1.71967L22.2803 21.2197C22.5732 21.5126 22.5732 21.9874 22.2803 22.2803C21.9874 22.5732 21.5126 22.5732 21.2197 22.2803L1.71967 2.78033C1.42678 2.48743 1.42678 2.01257 1.71967 1.71967Z" fill="#001D21" />
</svg>