<svg xmlns="http://www.w3.org/2000/svg" width="24" height="24" viewBox="0 0 24 24" fill="none">
<path d="M19.7999 10.2751C20.2141 10.2751 20.5499 10.6109 20.5499 11.0251C20.5498 15.4942 17.1209 19.1595 12.7504 19.5396V21.75C12.7503 22.164 12.4144 22.4999 12.0004 22.5C11.5862 22.5 11.2505 22.1641 11.2504 21.75V19.5396C6.87962 19.1597 3.45017 15.4944 3.45007 11.0251C3.45007 10.6109 3.78586 10.2751 4.20007 10.2751C4.61429 10.2751 4.95007 10.6109 4.95007 11.0251C4.95017 14.9187 8.1068 18.0754 12.0004 18.0754C15.8938 18.0753 19.0498 14.9186 19.0499 11.0251C19.0499 10.611 19.3858 10.2753 19.7999 10.2751Z" fill="#001D21" />
<path fill-rule="evenodd" clip-rule="evenodd" d="M11.996 1.5C15.0907 1.5 17.6208 4.27741 17.621 7.22314V11.0251C17.6209 14.2647 15.0903 16.6501 11.996 16.6501C8.88941 16.6501 6.37103 14.1317 6.37097 11.0251V7.125C6.37098 4.01841 8.88938 1.50001 11.996 1.5ZM11.996 3C9.71781 3.00001 7.87098 4.84683 7.87097 7.125V11.0251C7.87103 13.3033 9.71784 15.1501 11.996 15.1501C14.2864 15.1501 16.1209 13.412 16.121 11.0251V7.22314C16.1208 5.04877 14.2063 3 11.996 3Z" fill="#001D21" />
</svg>