<svg xmlns="http://www.w3.org/2000/svg" width="24" height="24" viewBox="0 0 24 24" fill="none">
<path d="M2.28137 10.5278C2.69549 10.5279 3.03126 10.8637 3.03137 11.2778C3.03137 15.0603 6.09778 18.1267 9.88025 18.1267C12.1498 18.1266 14.1603 17.0219 15.4064 15.3215C15.5672 15.1021 15.8177 14.9613 16.0897 14.9612C16.6805 14.9612 17.0586 15.5797 16.7196 16.0635C15.3449 18.024 13.1488 19.3665 10.6302 19.5908V21.7258C10.6302 22.14 10.2944 22.4757 9.88025 22.4758C9.46604 22.4758 9.13025 22.14 9.13025 21.7258V19.5908C4.87081 19.2115 1.53137 15.6359 1.53137 11.2778C1.53148 10.8637 1.86723 10.5278 2.28137 10.5278Z" fill="#001D21" />
<path d="M9.88098 1.98047C10.5101 1.98047 11.1151 2.09815 11.6791 2.31006C11.9233 2.40181 12.0731 2.64246 12.0731 2.90332C12.0731 3.45037 11.4317 3.79024 10.9078 3.63281C10.578 3.53363 10.2332 3.48047 9.88098 3.48047C7.67249 3.48065 5.88207 5.27099 5.88196 7.47949V11.2793C5.88246 13.4874 7.67274 15.2781 9.88098 15.2783C11.1475 15.2783 12.2694 14.7291 13.0004 13.8289C13.178 13.61 13.4356 13.462 13.7174 13.4619C14.3045 13.4619 14.6942 14.0607 14.3502 14.5364C13.3497 15.9192 11.7163 16.7783 9.88098 16.7783C6.84431 16.7781 4.38246 14.3159 4.38196 11.2793V7.47949C4.38207 4.44256 6.84407 1.98065 9.88098 1.98047Z" fill="#001D21" />
<path fill-rule="evenodd" clip-rule="evenodd" d="M16.5607 1.52417C16.8748 1.52417 17.1453 1.74751 17.2052 2.05591C17.2054 2.05668 17.2057 2.05898 17.2059 2.0603C17.2067 2.06401 17.208 2.07013 17.2096 2.07788C17.213 2.09439 17.2178 2.1203 17.225 2.15332C17.2395 2.21983 17.2623 2.31774 17.2924 2.43896C17.3528 2.68271 17.4442 3.01866 17.5677 3.38525C17.8249 4.14833 18.1854 4.93531 18.621 5.37085C19.0566 5.80637 19.8435 6.16691 20.6066 6.42407C20.9733 6.54764 21.3091 6.639 21.5529 6.69946C21.6743 6.72958 21.772 6.75234 21.8385 6.76685C21.8717 6.77409 21.8975 6.77884 21.9139 6.78223C21.9219 6.78386 21.9278 6.78515 21.9315 6.78589C21.933 6.78619 21.9345 6.78648 21.9352 6.78662C22.2435 6.84657 22.4669 7.117 22.4669 7.43115C22.4668 7.70591 22.2964 7.94736 22.0472 8.04346L21.9359 8.07568C21.9352 8.07583 21.933 8.07612 21.9315 8.07642C21.9278 8.07716 21.9219 8.07844 21.9139 8.08008C21.8974 8.08347 21.8717 8.08822 21.8385 8.09546C21.772 8.10997 21.6742 8.13273 21.5529 8.16284C21.3091 8.22332 20.9733 8.31466 20.6066 8.43823C19.8434 8.69542 19.0566 9.05587 18.621 9.49146C18.1855 9.92709 17.8249 10.714 17.5677 11.4771C17.4442 11.8437 17.3528 12.1796 17.2924 12.4233C17.2623 12.5446 17.2395 12.6425 17.225 12.709C17.2178 12.7421 17.213 12.768 17.2096 12.7844C17.208 12.7922 17.2067 12.7984 17.2059 12.802C17.2057 12.8034 17.2053 12.805 17.2052 12.8057C17.1451 13.1139 16.8747 13.3374 16.5607 13.3374C16.2859 13.3374 16.0446 13.1668 15.9484 12.9177L15.9161 12.8064C15.916 12.8057 15.9157 12.8034 15.9154 12.802C15.9147 12.7984 15.9134 12.7922 15.9117 12.7844C15.9084 12.768 15.9036 12.7421 15.8964 12.709C15.8819 12.6425 15.8591 12.5446 15.829 12.4233C15.7685 12.1796 15.6771 11.8437 15.5536 11.4771C15.2964 10.714 14.9359 9.92709 14.5004 9.49146C14.0648 9.05587 13.2779 8.69542 12.5148 8.43823C12.148 8.31466 11.8123 8.22332 11.5685 8.16284C11.4471 8.13273 11.3494 8.10997 11.2828 8.09546C11.2496 8.08822 11.2239 8.08347 11.2074 8.08008C11.1994 8.07844 11.1935 8.07716 11.1898 8.07642C11.1883 8.07612 11.1869 8.07583 11.1862 8.07568C10.8779 8.01578 10.6546 7.74518 10.6544 7.43115C10.6544 7.117 10.8771 6.84657 11.1854 6.78662C11.1861 6.78648 11.1883 6.78619 11.1898 6.78589C11.1935 6.78515 11.1994 6.78386 11.2074 6.78223C11.2239 6.77884 11.2496 6.77409 11.2828 6.76685C11.3493 6.75234 11.4471 6.72958 11.5685 6.69946C11.8122 6.639 12.148 6.54764 12.5148 6.42407C13.2778 6.16691 14.0647 5.80637 14.5004 5.37085C14.9359 4.93531 15.2964 4.14833 15.5536 3.38525C15.6771 3.01866 15.7685 2.68271 15.829 2.43896C15.859 2.31774 15.8819 2.21983 15.8964 2.15332C15.9036 2.1203 15.9084 2.09439 15.9117 2.07788C15.9133 2.07013 15.9147 2.06401 15.9154 2.0603C15.9157 2.05898 15.916 2.05741 15.9161 2.05664C15.976 1.74815 16.2464 1.52417 16.5607 1.52417ZM16.5607 4.4436C16.2946 5.09707 15.9248 5.80242 15.4283 6.29883C14.9319 6.79523 14.2266 7.16508 13.5731 7.43115C14.2266 7.69725 14.9319 8.06702 15.4283 8.56348C15.9246 9.0598 16.2946 9.76467 16.5607 10.418C16.8267 9.76467 17.1968 9.0598 17.693 8.56348C18.1893 8.06718 18.8941 7.69723 19.5475 7.43115C18.8942 7.1651 18.1893 6.79507 17.693 6.29883C17.1966 5.80242 16.8268 5.09707 16.5607 4.4436Z" fill="#001D21" />
</svg>