<svg width="32" height="32" viewBox="0 0 32 32" fill="none" xmlns="http://www.w3.org/2000/svg">
<path d="M18 6C18 4.89543 17.1046 4 16 4C14.8954 4 14 4.89543 14 6V16C14 17.1046 14.8954 18 16 18C17.1046 18 18 17.1046 18 16V6ZM20 16C20 18.2091 18.2091 20 16 20C13.7909 20 12 18.2091 12 16V6C12 3.79086 13.7909 2 16 2C18.2091 2 20 3.79086 20 6V16Z" fill="#0B0C0F"/>
<path d="M24 12C24.5523 12 25 12.4477 25 13V16C25 20.6325 21.4998 24.4448 17 24.9424V28H21C21.5523 28 22 28.4477 22 29C22 29.5523 21.5523 30 21 30H11C10.4477 30 10 29.5523 10 29C10 28.4477 10.4477 28 11 28H15V24.9424C10.5002 24.4448 7 20.6325 7 16V13C7 12.4477 7.44772 12 8 12C8.55228 12 9 12.4477 9 13V16C9 19.866 12.134 23 16 23C19.866 23 23 19.866 23 16V13C23 12.4477 23.4477 12 24 12Z" fill="#0B0C0F"/>
</svg>
