<svg width="32" height="32" viewBox="0 0 32 32" fill="none" xmlns="http://www.w3.org/2000/svg">
<path d="M9.00005 13.2402V16C9.00005 19.87 12.13 23 16 23C16.8299 23 17.6197 22.8598 18.3497 22.5898L19.8702 24.1104C18.9902 24.5403 18.02 24.8304 17 24.9404V28H21C21.55 28 22 28.45 22 29C22 29.55 21.55 30 21 30H11C10.45 30 10 29.55 10 29C10.0001 28.45 10.4501 28 11 28H15V24.9404C10.5 24.4404 7.00005 20.63 7.00005 16V13C7.00006 12.53 7.33033 12.1305 7.78032 12.0205L9.00005 13.2402Z" fill="#0B0C0F"/>
<path d="M2.29302 2.29297C2.68354 1.90246 3.31656 1.90245 3.70708 2.29297L29.7071 28.293C30.0975 28.6835 30.0976 29.3165 29.7071 29.707C29.3166 30.0975 28.6835 30.0975 28.293 29.707L2.29302 3.70703C1.90249 3.31651 1.90249 2.68349 2.29302 2.29297Z" fill="#0B0C0F"/>
<path d="M15.75 19.9902C13.74 19.8702 12.1298 18.26 12.0098 16.25L15.75 19.9902Z" fill="#0B0C0F"/>
<path d="M24 12C24.55 12 25 12.45 25 13V16C25 17.3899 24.6801 18.6999 24.1202 19.8799L22.5899 18.3496C22.8598 17.6197 23 16.8199 23 16V13C23 12.45 23.45 12 24 12Z" fill="#0B0C0F"/>
<path d="M16 2C18.21 2.00005 20 3.79003 20 6V15.7598L18 13.7598V6C18 4.90003 17.1 4.00005 16 4C14.9 4 14 4.9 14 6V9.75977L12 7.75977V6C12 3.79 13.79 2 16 2Z" fill="#0B0C0F"/>
</svg>
