<svg xmlns="http://www.w3.org/2000/svg" width="24" height="24" viewBox="0 0 24 24" fill="none">
<path d="M21.4594 18.0639C22.1524 16.6276 22.4993 15.0661 22.5 13.5047V13.4953C22.4989 10.8368 21.4943 8.17875 19.4864 6.13769C19.469 6.11582 19.4501 6.09471 19.4298 6.07447C19.4097 6.05434 19.3887 6.03559 19.367 6.01822C17.3264 4.00829 14.6679 3.00224 12.0087 3.00005L12 3L11.9913 3.00005C10.4312 3.00133 8.87115 3.34819 7.43609 4.04061L8.5716 5.1761C9.43207 4.82208 10.3363 4.6071 11.25 4.53116V6C11.25 6.41422 11.5858 6.75 12 6.75C12.4142 6.75 12.75 6.41422 12.75 6V4.53116C14.5648 4.68202 16.3426 5.38146 17.8141 6.6295L16.7771 7.6665C16.4843 7.95937 16.4843 8.43428 16.7771 8.72715C17.0701 9.02002 17.5449 9.02002 17.8378 8.72715L18.8744 7.6905C20.12 9.16103 20.8181 10.937 20.9689 12.75H19.5C19.0858 12.75 18.75 13.0858 18.75 13.5C18.75 13.9142 19.0858 14.25 19.5 14.25H20.9689C20.893 15.1637 20.678 16.068 20.324 16.9285L21.4594 18.0639Z" fill="#001D21" />
<path d="M17.25 13.8545V13.5C17.25 13.0858 16.9142 12.75 16.5 12.75H16.1455L17.25 13.8545Z" fill="#001D21" />
<path d="M9.7815 12.75H7.5C7.08579 12.75 6.75 13.0858 6.75 13.5V16.5C6.75 16.9142 7.08579 17.25 7.5 17.25H14.2815L12.7815 15.75H8.25V14.25H11.2815L9.7815 12.75Z" fill="#001D21" />
<path d="M4.94372 7.9122C3.8119 9.3378 3.17436 11.0272 3.03112 12.75H4.5C4.91421 12.75 5.25 13.0858 5.25 13.5C5.25 13.9142 4.91421 14.25 4.5 14.25H3.03108C3.18829 16.1421 3.94174 17.9938 5.29142 19.5H16.5316L18.0316 21H5.28393C4.87958 21 4.47571 20.836 4.18874 20.5171C0.710881 16.6519 0.606941 10.8274 3.877 6.84548L4.94372 7.9122Z" fill="#001D21" />
<path fill-rule="evenodd" clip-rule="evenodd" d="M1.71967 1.71967C2.01257 1.42678 2.48744 1.42678 2.78033 1.71967L22.2803 21.2197C22.5732 21.5126 22.5732 21.9874 22.2803 22.2803C21.9874 22.5732 21.5126 22.5732 21.2197 22.2803L1.71967 2.78033C1.42678 2.48743 1.42678 2.01257 1.71967 1.71967Z" fill="#001D21" />
</svg>