<svg xmlns="http://www.w3.org/2000/svg" width="24" height="24" viewBox="0 0 24 24" fill="none">
<path fill-rule="evenodd" clip-rule="evenodd" d="M12 3L12.0087 3.00005C14.6679 3.00224 17.3263 4.00829 19.3669 6.01822C19.3887 6.03559 19.4097 6.05434 19.4298 6.07447C19.4501 6.09471 19.469 6.11582 19.4864 6.13769C21.4943 8.17875 22.4989 10.8368 22.5 13.4953V13.5047C22.4988 16.0156 21.6026 18.5263 19.8113 20.5171C19.5243 20.8361 19.1204 21 18.716 21H5.28393C4.87957 21 4.47571 20.8361 4.18874 20.5171C0.482414 16.3979 0.607844 10.0537 4.56513 6.08568L4.57612 6.07447L4.58746 6.06335C6.63397 4.02335 9.3123 3.00225 11.9913 3.00005L12 3ZM11.25 6V4.53116C9.4365 4.68191 7.6599 5.38043 6.18907 6.62676L7.2288 7.6665C7.52167 7.95937 7.52167 8.43428 7.2288 8.72715C6.93591 9.02002 6.46103 9.02002 6.16814 8.72715L5.12827 7.68727C3.88102 9.15847 3.18197 10.9358 3.03112 12.75H4.5C4.91421 12.75 5.25 13.0858 5.25 13.5C5.25 13.9142 4.91421 14.25 4.5 14.25H3.03108C3.18829 16.1421 3.94174 17.9938 5.29142 19.5H18.7085C20.0582 17.9938 20.8117 16.1421 20.9689 14.25H19.5C19.0858 14.25 18.75 13.9142 18.75 13.5C18.75 13.0858 19.0858 12.75 19.5 12.75H20.9689C20.8181 10.937 20.1199 9.16103 18.8744 7.6905L17.8378 8.72715C17.5449 9.02002 17.0701 9.02002 16.7771 8.72715C16.4842 8.43428 16.4842 7.95937 16.7771 7.6665L17.8141 6.6295C16.3426 5.38146 14.5648 4.68202 12.75 4.53116V6C12.75 6.41422 12.4142 6.75 12 6.75C11.5858 6.75 11.25 6.41422 11.25 6Z" fill="#001D21" />
<path fill-rule="evenodd" clip-rule="evenodd" d="M6.75 13.5C6.75 13.0858 7.08579 12.75 7.5 12.75H16.5C16.9142 12.75 17.25 13.0858 17.25 13.5V16.5C17.25 16.9142 16.9142 17.25 16.5 17.25H7.5C7.08579 17.25 6.75 16.9142 6.75 16.5V13.5ZM8.25 14.25V15.75H15.75V14.25H8.25Z" fill="#001D21" />
</svg>