<svg xmlns="http://www.w3.org/2000/svg" width="24" height="24" viewBox="0 0 24 24" fill="none">
<path d="M14.1941 2.77806C13.9008 2.48591 13.9008 2.01224 14.1941 1.72009C14.4873 1.42794 14.9628 1.42794 15.2561 1.72009L21.9281 8.3667C22.6906 9.1263 22.6906 10.3578 21.9281 11.1174L15.2561 17.764C14.9628 18.0562 14.4873 18.0562 14.1941 17.764C13.9008 17.4719 13.9008 16.9982 14.1941 16.7061L20.4645 10.4595H3.00192V21.751C3.00192 22.1641 2.66571 22.4991 2.25096 22.4991C1.83622 22.4991 1.5 22.1641 1.5 21.751V9.71143C1.5 9.51302 1.57912 9.32274 1.71995 9.18244C1.86078 9.04214 2.0518 8.96333 2.25096 8.96333H20.403L14.1941 2.77806Z" fill="#001D21" />
</svg>