<svg width="32" height="32" viewBox="0 0 32 32" fill="none" xmlns="http://www.w3.org/2000/svg">
<path d="M3.00079 11.9512H7.70935L9.70435 13.9462H4.00213V29.0022C4.00213 29.5531 3.55383 29.9997 3.00079 29.9997C2.44781 29.9997 1.99951 29.5531 1.99951 29.0022V12.9487C1.99951 12.6842 2.10498 12.4305 2.29278 12.2434C2.48053 12.0563 2.73523 11.9512 3.00079 11.9512Z" fill="#0D0F13"/>
<path d="M18.1896 13.9462L16.1945 11.9512H27.2045L18.9256 3.70388C18.5346 3.31429 18.5346 2.6827 18.9256 2.29317C19.3167 1.90358 19.9507 1.90358 20.3417 2.29317L29.2381 11.1557C30.2549 12.1685 30.2549 13.8107 29.2381 14.8235L24.1428 19.8995L22.7294 18.4861L27.2866 13.9463L18.1896 13.9462Z" fill="#0D0F13"/>
<path d="M18.9256 23.686C18.7042 23.4655 18.6082 23.1673 18.6375 22.8794L19.7315 23.9735C19.4437 24.0014 19.146 23.9056 18.9256 23.686Z" fill="#0D0F13"/>
<path d="M3.70758 2.29293L29.7075 28.2929C30.098 28.6834 30.098 29.3166 29.7075 29.7071C29.317 30.0976 28.6838 30.0976 28.2933 29.7071L2.29334 3.70711C1.90284 3.31661 1.90284 2.68343 2.29334 2.29293C2.6839 1.90236 3.31701 1.90236 3.70758 2.29293Z" fill="#0D0F13"/>
</svg>
