<svg xmlns="http://www.w3.org/2000/svg" width="24" height="24" viewBox="0 0 24 24" fill="none">
<path fill-rule="evenodd" clip-rule="evenodd" d="M2.78121 1.72012C2.48833 1.42724 2.01348 1.42724 1.7206 1.72012C1.42772 2.013 1.42772 2.48785 1.7206 2.78073L21.2197 22.2799C21.5126 22.5728 21.9875 22.5728 22.2803 22.2799C22.5732 21.987 22.5732 21.5122 22.2803 21.2193L2.78121 1.72012ZM21.9281 11.1174L18.1068 14.9242L17.0468 13.8643L20.4645 10.4595H13.6421L12.1459 8.9633H20.403L14.1941 2.77804C13.9008 2.48588 13.9008 2.01221 14.1941 1.72006C14.4873 1.42791 14.9628 1.42791 15.2561 1.72006L21.9281 8.36667C22.6906 9.12627 22.6906 10.3579 21.9281 11.1174ZM3.00192 10.4595H7.27838L5.78218 8.9633H2.25096C2.0518 8.9633 1.86079 9.04212 1.71995 9.18241C1.57912 9.32271 1.5 9.51299 1.5 9.7114V21.751C1.5 22.1642 1.83622 22.4991 2.25096 22.4991C2.66571 22.4991 3.00192 22.1642 3.00192 21.751V10.4595ZM14.7985 17.9796L13.978 17.1591C13.956 17.375 14.028 17.5986 14.1941 17.7641C14.3594 17.9287 14.5826 18.0006 14.7985 17.9796Z" fill="#001D21" />
</svg>