<svg xmlns="http://www.w3.org/2000/svg" width="24" height="24" viewBox="0 0 24 24" fill="none">
<path d="M19.5 16.318V10.5C19.5 6.61078 16.5397 3.41299 12.7494 3.03695V2.25C12.7494 1.83579 12.4136 1.5 11.9994 1.5C11.5852 1.5 11.2494 1.83579 11.2494 2.25V3.03706C9.89626 3.17151 8.64894 3.6656 7.60441 4.4224L8.68209 5.50006C9.63241 4.86816 10.7732 4.49998 11.9999 4.49998C15.3137 4.49998 18 7.18627 18 10.5V14.818L19.5 16.318Z" fill="#001D21" />
<path d="M6.11965 9.301C6.04116 9.68823 5.99996 10.089 5.99996 10.4994V17.9994H14.8181L16.3181 19.4994H3.75C3.33579 19.4994 3 19.1636 3 18.7494C3 18.3351 3.33579 17.9994 3.75 17.9994H4.49996V10.4994C4.49996 9.65283 4.6402 8.83908 4.89872 8.08008L6.11965 9.301Z" fill="#001D21" />
<path d="M10.4999 21C10.0858 21 9.74993 21.3358 9.74993 21.75C9.74993 22.1642 10.0858 22.5 10.4999 22.5H13.4999C13.9142 22.5 14.25 22.1642 14.25 21.75C14.25 21.3358 13.9142 21 13.4999 21H10.4999Z" fill="#001D21" />
<path fill-rule="evenodd" clip-rule="evenodd" d="M1.71967 1.71967C2.01257 1.42678 2.48743 1.42678 2.78033 1.71967L22.2803 21.2197C22.5732 21.5126 22.5732 21.9874 22.2803 22.2803C21.9874 22.5732 21.5126 22.5732 21.2197 22.2803L1.71967 2.78033C1.42678 2.48743 1.42678 2.01257 1.71967 1.71967Z" fill="#001D21" />
</svg>