<svg xmlns="http://www.w3.org/2000/svg" width="24" height="24" viewBox="0 0 24 24" fill="none">
<path fill-rule="evenodd" clip-rule="evenodd" d="M12.7323 2.22266C12.7323 1.80844 12.3965 1.47266 11.9823 1.47266C11.5681 1.47266 11.2323 1.80844 11.2323 2.22266V3.01724C7.45059 3.40131 4.49951 6.59509 4.49951 10.4781V10.5603C4.48959 10.6089 4.48438 10.6593 4.48438 10.7109V17.9987L4.48441 18.0059H3.73682C3.3226 18.0059 2.98682 18.3416 2.98682 18.7559C2.98682 19.1701 3.3226 19.5059 3.73682 19.5059L20.2631 19.5059C20.6773 19.5059 21.0131 19.1701 21.0131 18.7559C21.0131 18.3416 20.6773 18.0059 20.2631 18.0059H19.5112V10.377C19.5112 10.3224 19.5054 10.2691 19.4943 10.2178C19.3655 6.44178 16.4452 3.37414 12.7323 3.0139V2.22266ZM18.0112 18.0059L5.98434 18.0059L5.98438 17.9987V12.264H5.99951V10.4781C5.99951 7.16464 8.68563 4.47852 11.9991 4.47852C15.3126 4.47852 17.9988 7.16464 17.9988 10.4781V12.212H18.0112V18.0059Z" fill="#001D21" />
<path d="M10.4434 20.9707C10.0291 20.9707 9.69336 21.3065 9.69336 21.7207C9.69336 22.1349 10.0291 22.4707 10.4434 22.4707H13.5423C13.9565 22.4707 14.2923 22.1349 14.2923 21.7207C14.2923 21.3065 13.9565 20.9707 13.5423 20.9707H10.4434Z" fill="#001D21" />
</svg>