<svg xmlns="http://www.w3.org/2000/svg" width="24" height="24" viewBox="0 0 24 24" fill="none">
<path fill-rule="evenodd" clip-rule="evenodd" d="M8.7147 3C9.39585 2.99955 9.99225 3.45695 10.1684 4.11491L10.9582 7.06519C11.0971 7.58408 10.9487 8.13765 10.5689 8.51745L10.1225 8.96385L10.1234 8.96475L9.43335 9.65468C9.9426 10.6863 10.6269 11.6542 11.4873 12.5146C12.3476 13.375 13.3157 14.0593 14.3473 14.5685L14.8513 14.0646L14.8479 14.0613L15.4813 13.4279C15.8611 13.048 16.4146 12.8997 16.9335 13.0386L19.8838 13.8284C20.5417 14.0045 20.9992 14.6009 20.9987 15.2821L20.9975 17.0853H21V19.5094C21 20.2903 20.3905 20.9753 19.5658 20.9953C15.2981 21.0985 10.9947 19.5212 7.73678 16.2633C4.4789 13.0055 2.90153 8.70203 3.00476 4.43441C3.02471 3.60968 3.70964 3.0002 4.49061 3.0002H6.91475V3.0012L8.7147 3ZM6.09336 4.5002H4.50363C4.41788 8.3649 5.84912 12.2543 8.79743 15.2027C11.7458 18.1509 15.6353 19.5821 19.5 19.4964V17.9033H19.497L19.4987 15.281C19.4987 15.2793 19.4976 15.2778 19.4959 15.2774L16.5456 14.4876C16.5443 14.4872 16.5429 14.4876 16.5419 14.4886L16.0946 14.9359L16.0979 14.9393L15.4007 15.6364C14.9687 16.0684 14.2941 16.2133 13.7104 15.9269C12.5237 15.3447 11.4119 14.5605 10.4267 13.5753C9.44145 12.5901 8.65718 11.4783 8.07503 10.2917C7.7886 9.70785 7.9335 9.03323 8.36543 8.6013L8.87573 8.091L8.87483 8.0901L9.5082 7.45675C9.50918 7.45579 9.50955 7.45439 9.50918 7.45309L8.71935 4.50282C8.71898 4.50116 8.7174 4.5 8.71568 4.5L6.09337 4.50175L6.09336 4.5002Z" fill="#001D21" />
</svg>