<svg xmlns="http://www.w3.org/2000/svg" width="24" height="24" viewBox="0 0 24 24" fill="none">
<path d="M21.0002 17.8182V17.0862H20.9978L20.999 15.2829C20.9994 14.6018 20.542 14.0054 19.884 13.8293L16.9337 13.0395C16.6925 12.9749 16.4438 12.9724 16.2085 13.0264L18.0817 14.8995L19.4961 15.2782C19.4978 15.2787 19.499 15.2802 19.499 15.2819L19.4983 16.3162L21.0002 17.8182Z" fill="#001D21" />
<path d="M4.85231 8.03295C5.43784 10.6604 6.75281 13.1574 8.79725 15.2019C10.8417 17.2462 13.3387 18.5612 15.9661 19.1467L17.7569 20.9375C14.1023 20.6182 10.534 19.0599 7.7366 16.2625C4.93916 13.4651 3.38078 9.89677 3.06152 6.24219L4.85231 8.03295Z" fill="#001D21" />
<path d="M9.09735 5.91463L8.71935 4.50282C8.71897 4.50116 8.7174 4.5 8.71567 4.5L7.68337 4.50069L6.18292 3.0002L8.7147 3C9.39585 2.99955 9.99225 3.45695 10.1683 4.11491L10.9582 7.06519C11.0226 7.30588 11.0252 7.55407 10.9716 7.7889L9.09735 5.91463Z" fill="#001D21" />
<path fill-rule="evenodd" clip-rule="evenodd" d="M1.71967 1.71967C2.01257 1.42678 2.48743 1.42678 2.78033 1.71967L22.2803 21.2197C22.5732 21.5126 22.5732 21.9874 22.2803 22.2803C21.9874 22.5732 21.5126 22.5732 21.2197 22.2803L1.71967 2.78033C1.42678 2.48743 1.42678 2.01257 1.71967 1.71967Z" fill="#001D21" />
</svg>