<svg xmlns="http://www.w3.org/2000/svg" fill="none" viewBox="0 0 33 32"><path fill="#0D0F13" fill-rule="evenodd" d="M16.5 2A11.54 11.54 0 0 0 4.96 13.54c0 4.48 2.89 8.66 5.79 11.73a39.24 39.24 0 0 0 5.16 4.54 1 1 0 0 0 1.18 0l1.17-.9a39.23 39.23 0 0 0 3.99-3.64c2.9-3.07 5.79-7.25 5.79-11.73A11.54 11.54 0 0 0 16.5 2ZM9.75 6.8a9.54 9.54 0 0 1 16.29 6.74c0 3.68-2.42 7.37-5.24 10.35a37.24 37.24 0 0 1-4.3 3.86 36.09 36.09 0 0 1-4.3-3.86c-2.82-2.98-5.24-6.67-5.24-10.35 0-2.53 1-4.96 2.8-6.75Z" clip-rule="evenodd"/><path fill="#0D0F13" fill-rule="evenodd" d="M16.5 8a5.48 5.48 0 1 0 0 10.96A5.48 5.48 0 0 0 16.5 8Zm3.48 5.48a3.48 3.48 0 1 1-6.96 0 3.48 3.48 0 0 1 6.96 0Z" clip-rule="evenodd"/></svg>