<svg xmlns="http://www.w3.org/2000/svg" width="24" height="24" viewBox="0 0 24 24" fill="none">
<path fill-rule="evenodd" clip-rule="evenodd" d="M12.0042 1.49927C9.70896 1.49927 7.50772 2.41105 5.88474 4.03403C4.26176 5.65701 3.34998 7.85825 3.34998 10.1535C3.34998 13.5181 5.51461 16.6514 7.69275 18.9505C8.78039 20.0986 9.86827 21.0354 10.6843 21.6852C11.0338 21.9635 11.3333 22.189 11.5614 22.3559C11.8251 22.5488 12.1833 22.5488 12.447 22.3559C12.6751 22.189 12.9746 21.9635 13.3241 21.6852C14.1401 21.0354 15.228 20.0986 16.3157 18.9505C18.4938 16.6514 20.6584 13.5181 20.6584 10.1535C20.6584 7.85825 19.7467 5.65701 18.1237 4.03403C16.5007 2.41105 14.2994 1.49927 12.0042 1.49927ZM6.9454 5.09469C8.28708 3.75301 10.1068 2.99927 12.0042 2.99927C13.9016 2.99927 15.7213 3.75301 17.063 5.09469C18.4047 6.43637 19.1584 8.25608 19.1584 10.1535C19.1584 12.9152 17.3452 15.6828 15.2267 17.9189C14.1996 19.0031 13.1671 19.8927 12.3897 20.5118C12.2524 20.6212 12.1234 20.7218 12.0042 20.8132C11.8851 20.7218 11.7561 20.6212 11.6187 20.5118C10.8413 19.8927 9.80881 19.0031 8.78168 17.9189C6.66324 15.6828 4.84998 12.9152 4.84998 10.1535C4.84998 8.25608 5.60372 6.43637 6.9454 5.09469Z" fill="#001D21" />
<path fill-rule="evenodd" clip-rule="evenodd" d="M12.0039 5.99648C9.73418 5.99669 7.89429 7.83672 7.89429 10.1065C7.89429 12.3764 9.7344 14.2165 12.0043 14.2165C14.274 14.2163 16.1139 12.3762 16.1139 10.1064C16.1139 7.83656 14.2738 5.99648 12.0039 5.99648ZM14.6139 10.1064C14.6139 11.5479 13.4454 12.7164 12.0039 12.7164C10.5626 12.7162 9.39429 11.5478 9.39429 10.1065C9.39429 8.66501 10.5628 7.49648 12.0043 7.49648C13.4456 7.49669 14.6139 8.66511 14.6139 10.1064Z" fill="#001D21" />
</svg>