<svg xmlns="http://www.w3.org/2000/svg" width="24" height="24" viewBox="0 0 24 24" fill="none">
<path d="M20.6543 10.1542C20.6543 12.1178 19.9171 14.0025 18.8702 15.6887L17.7778 14.5962C18.6136 13.1721 19.1543 11.6623 19.1543 10.1542C19.1543 8.25679 18.4006 6.4371 17.0589 5.09542C15.7172 3.75374 13.8975 3 12.0001 3C10.4203 3 8.89432 3.52252 7.65337 4.47186L6.58496 3.40347C8.1135 2.17729 10.0219 1.5 12.0001 1.5C14.2953 1.5 16.4965 2.41177 18.1195 4.03476C19.7425 5.65774 20.6543 7.85899 20.6543 10.1542Z" fill="#001D21" />
<path d="M16.1082 10.1005C16.1082 10.9067 15.8759 11.6587 15.4747 12.2933L14.3707 11.1893C14.5232 10.858 14.6082 10.4891 14.6082 10.1005C14.6082 8.65994 13.4404 7.49219 11.9999 7.49219C11.6113 7.49219 11.2424 7.57724 10.9111 7.72964L9.80713 6.62572C10.4416 6.22445 11.1937 5.99219 11.9999 5.99219C14.2689 5.99219 16.1082 7.83149 16.1082 10.1005Z" fill="#001D21" />
<path d="M10.8682 14.0513L8.04932 11.2324C8.43797 12.5916 9.50904 13.6626 10.8682 14.0513Z" fill="#001D21" />
<path d="M4.8457 10.1529C4.8457 9.51371 4.93123 8.88341 5.09594 8.27718L3.90663 7.08789C3.53921 8.05803 3.3457 9.09551 3.3457 10.1529C3.3457 13.5175 5.51034 16.6508 7.68847 18.9499C8.77612 20.0979 9.864 21.0348 10.6801 21.6846C11.0295 21.9629 11.329 22.1884 11.5571 22.3553C11.8208 22.5482 12.179 22.5482 12.4427 22.3553C12.6709 22.1884 12.9703 21.9629 13.3198 21.6846C14.0693 21.0878 15.0481 20.2489 16.0453 19.2266L14.9846 18.1659C14.0374 19.1382 13.1029 19.9399 12.3854 20.5112C12.2481 20.6205 12.1191 20.7212 11.9999 20.8126C11.8807 20.7212 11.7517 20.6205 11.6144 20.5112C10.837 19.8921 9.80452 19.0025 8.7774 17.9183C6.65896 15.6822 4.8457 12.9146 4.8457 10.1529Z" fill="#001D21" />
<path d="M2.78082 1.71967C2.48792 1.42678 2.01305 1.42678 1.72016 1.71967C1.42727 2.01256 1.42727 2.48744 1.72016 2.78033L21.2202 22.2804C21.513 22.5732 21.9879 22.5732 22.2808 22.2804C22.5737 21.9874 22.5737 21.5126 22.2808 21.2196L2.78082 1.71967Z" fill="#001D21" />
</svg>