<svg xmlns="http://www.w3.org/2000/svg" width="24" height="24" viewBox="0 0 24 24" fill="none">
<path fill-rule="evenodd" clip-rule="evenodd" d="M13.5566 16.7386L12.4527 15.6347L6 19.1983V9.18199L4.5 7.68199V19.8338C4.5 20.6904 5.41908 21.2327 6.16888 20.8186L13.5566 16.7386ZM6.56771 3.38574L20.3617 11.0111C21.1361 11.4392 21.1359 12.5527 20.3613 12.9805L17.6563 14.4744L16.5524 13.3705L19.042 11.9955L10.4004 7.21839L6.56771 3.38574Z" fill="#001D21" />
<path fill-rule="evenodd" clip-rule="evenodd" d="M1.71967 1.71967C2.01256 1.42678 2.48744 1.42678 2.78033 1.71967L22.2803 21.2197C22.5732 21.5126 22.5732 21.9874 22.2803 22.2803C21.9874 22.5732 21.5126 22.5732 21.2197 22.2803L1.71967 2.78033C1.42678 2.48744 1.42678 2.01256 1.71967 1.71967Z" fill="#001D21" />
</svg>