<svg xmlns="http://www.w3.org/2000/svg" width="24" height="24" viewBox="0 0 24 24" fill="none">
<path d="M12.7499 3.7345C12.7499 3.32028 12.4142 2.9845 11.9999 2.9845C11.5857 2.9845 11.2499 3.32028 11.2499 3.7345V11.25H3.7345C3.32028 11.25 2.9845 11.5858 2.9845 12C2.9845 12.4142 3.32028 12.75 3.7345 12.75H11.2499V20.2655C11.2499 20.6798 11.5857 21.0155 11.9999 21.0155C12.4142 21.0155 12.7499 20.6798 12.7499 20.2655V12.75H20.2655C20.6798 12.75 21.0155 12.4142 21.0155 12C21.0155 11.5858 20.6798 11.25 20.2655 11.25H12.7499V3.7345Z" fill="#001D21" />
</svg>