<svg xmlns="http://www.w3.org/2000/svg" width="24" height="24" viewBox="0 0 24 24" fill="none">
<path fill-rule="evenodd" clip-rule="evenodd" d="M14.625 6H18V6.75V10.5V11.25H14.625C13.1753 11.25 12 10.0747 12 8.625C12 7.17525 13.1753 6 14.625 6ZM19.5 9.75V7.5H21.75C22.1642 7.5 22.5 7.16421 22.5 6.75C22.5 6.33579 22.1642 6 21.75 6H19.5V5.25C19.5 4.83579 19.1642 4.5 18.75 4.5H14.625C12.7368 4.5 11.145 5.76862 10.6553 7.5H5.25C4.25544 7.5 3.30161 7.89509 2.59835 8.59835C1.89509 9.30161 1.5 10.2554 1.5 11.25C1.5 12.2446 1.89509 13.1984 2.59835 13.9017C3.30161 14.6049 4.25544 15 5.25 15H9.75C10.1478 15 10.5294 15.158 10.8107 15.4393C11.092 15.7206 11.25 16.1022 11.25 16.5C11.25 16.8978 11.092 17.2794 10.8107 17.5607C10.5294 17.842 10.1478 18 9.75 18C9.7496 18 9.74919 18 9.74879 18H3.75C3.33579 18 3 18.3358 3 18.75C3 19.1642 3.33579 19.5 3.75 19.5H9.75C9.75081 19.5 9.75162 19.5 9.75243 19.5C10.5472 19.4994 11.3093 19.1834 11.8713 18.6213C12.4339 18.0587 12.75 17.2956 12.75 16.5C12.75 15.7044 12.4339 14.9413 11.8713 14.3787C11.3087 13.8161 10.5456 13.5 9.75 13.5H5.25C4.65326 13.5 4.08097 13.2629 3.65901 12.841C3.23705 12.419 3 11.8467 3 11.25C3 10.6533 3.23705 10.081 3.65901 9.65901C4.08097 9.23705 4.65326 9 5.25 9H10.5168C10.7063 11.1024 12.4732 12.75 14.625 12.75H18.75C19.1642 12.75 19.5 12.4142 19.5 12V11.25H21.75C22.1642 11.25 22.5 10.9142 22.5 10.5C22.5 10.0858 22.1642 9.75 21.75 9.75H19.5Z" fill="#001D21" />
</svg>