<svg xmlns="http://www.w3.org/2000/svg" width="24" height="24" viewBox="0 0 24 24" fill="none">
<path fill-rule="evenodd" clip-rule="evenodd" d="M2.78033 1.71967C2.48744 1.42678 2.01256 1.42678 1.71967 1.71967C1.42678 2.01256 1.42678 2.48744 1.71967 2.78033L21.2197 22.2803C21.5126 22.5732 21.9874 22.5732 22.2803 22.2803C22.5732 21.9874 22.5732 21.5126 22.2803 21.2197L2.78033 1.71967ZM15.9319 12.75H18.7499C19.1641 12.75 19.4999 12.4142 19.4999 12V11.25H21.75C22.1642 11.25 22.5 10.9142 22.5 10.5C22.5 10.0858 22.1642 9.75 21.75 9.75H19.4999V7.5H21.75C22.1642 7.5 22.5 7.16421 22.5 6.75C22.5 6.33579 22.1642 6 21.75 6H19.4999V5.25C19.4999 4.83579 19.1641 4.5 18.7499 4.5H14.6249C12.7443 4.5 11.1576 5.75848 10.6611 7.47923L12.0075 8.82557C12.0025 8.75937 11.9999 8.69248 11.9999 8.625C11.9999 7.17525 13.1752 6 14.6249 6H17.9999V11.25H14.6249C14.5574 11.25 14.4906 11.2475 14.4244 11.2425L15.9319 12.75ZM4.41268 7.59466C3.73103 7.75082 3.10075 8.09595 2.59835 8.59835C1.89509 9.30161 1.5 10.2554 1.5 11.25C1.5 12.2446 1.89509 13.1984 2.59835 13.9017C3.30161 14.6049 4.25544 15 5.25 15H9.75C10.1478 15 10.5294 15.158 10.8107 15.4393C11.092 15.7206 11.25 16.1022 11.25 16.5C11.25 16.8978 11.092 17.2794 10.8107 17.5607C10.5294 17.842 10.1478 18 9.75 18H9.74879H3.75C3.33579 18 3 18.3358 3 18.75C3 19.1642 3.33579 19.5 3.75 19.5H9.75H9.75243C10.5472 19.4994 11.3093 19.1834 11.8713 18.6213C12.4339 18.0587 12.75 17.2956 12.75 16.5C12.75 16.2844 12.7268 16.0712 12.6818 15.8637L10.3863 13.5682C10.1791 13.5233 9.96624 13.5001 9.75099 13.5H9.75H5.25C4.65326 13.5 4.08097 13.2629 3.65901 12.841C3.23705 12.419 3 11.8467 3 11.25C3 10.6533 3.23705 10.081 3.65901 9.65901C4.08097 9.23705 4.65326 9 5.25 9H5.81802L4.41268 7.59466Z" fill="#001D21" />
</svg>