<svg xmlns="http://www.w3.org/2000/svg" width="24" height="24" viewBox="0 0 24 24" fill="none">
<path fill-rule="evenodd" clip-rule="evenodd" d="M1.71967 1.71967C2.01257 1.42678 2.48743 1.42678 2.78033 1.71967L22.2803 21.2197C22.5732 21.5126 22.5732 21.9874 22.2803 22.2803C21.9874 22.5732 21.5126 22.5732 21.2197 22.2803L1.71967 2.78033C1.42678 2.48743 1.42678 2.01257 1.71967 1.71967Z" fill="#001D21" />
<path d="M21.1722 17.9902C21.9195 17.9048 22.5 17.2702 22.5 16.5V9C22.5 8.18115 21.8453 7.5 21.0073 7.5H19.5V4.5C19.5 3.67157 18.8285 3 18 3H6.18198L7.68195 4.5H18V7.5H10.682L12.1819 9H21V16.5H19.6819L21.1722 17.9902Z" fill="#001D21" />
<path d="M19.5 16.3181V13.125C19.5 12.5037 18.9963 12 18.375 12H15.1819L16.6819 13.5H18V14.8181L19.5 16.3181Z" fill="#001D21" />
<path d="M14.8181 18L16.1815 19.3635C16.0595 19.4495 15.9107 19.5 15.75 19.5H8.25C7.83577 19.5 7.5 19.1642 7.5 18.75C7.5 18.3358 7.83577 18 8.25 18H14.8181Z" fill="#001D21" />
<path d="M11.818 15L13.3181 16.5H8.25C7.83577 16.5 7.5 16.1642 7.5 15.75C7.5 15.3358 7.83577 15 8.25 15H11.818Z" fill="#001D21" />
<path d="M10.318 13.5H6V21H17.8181L18.9658 22.1478C18.7048 22.3675 18.3679 22.5 18 22.5H6C5.17157 22.5 4.5 21.8284 4.5 21V18H3C2.17157 18 1.5 17.3285 1.5 16.5V9C1.5 8.17485 2.16584 7.5 2.99751 7.5H4.31802L5.81802 9H3V16.5H4.5V13.125C4.5 12.5037 5.00368 12 5.625 12H8.81805L10.318 13.5Z" fill="#001D21" />
</svg>