<svg xmlns="http://www.w3.org/2000/svg" width="24" height="24" viewBox="0 0 24 24" fill="none">
<path fill-rule="evenodd" clip-rule="evenodd" d="M4.5 4.5C4.5 3.67157 5.17157 3 6 3H18C18.8284 3 19.5 3.67157 19.5 4.5V7.5H21.0073C21.8453 7.5 22.5 8.18115 22.5 9V16.5C22.5 17.3285 21.8284 18 21 18H19.5V21C19.5 21.8284 18.8284 22.5 18 22.5H6C5.17157 22.5 4.5 21.8284 4.5 21V18H3C2.17157 18 1.5 17.3285 1.5 16.5V9C1.5 8.17485 2.16584 7.5 2.99751 7.5H4.5V4.5ZM3 9V16.5H4.5V13.125C4.5 12.5037 5.00368 12 5.625 12H18.375C18.9963 12 19.5 12.5037 19.5 13.125V16.5H21V9H3ZM18 7.5H6V4.5H18V7.5ZM6 13.5V21H18V13.5H6ZM7.5 15.75C7.5 15.3358 7.83577 15 8.25 15H15.75C16.1642 15 16.5 15.3358 16.5 15.75C16.5 16.1642 16.1642 16.5 15.75 16.5H8.25C7.83577 16.5 7.5 16.1642 7.5 15.75ZM7.5 18.75C7.5 18.3358 7.83577 18 8.25 18H15.75C16.1642 18 16.5 18.3358 16.5 18.75C16.5 19.1642 16.1642 19.5 15.75 19.5H8.25C7.83577 19.5 7.5 19.1642 7.5 18.75Z" fill="#001D21" />
</svg>