<svg xmlns="http://www.w3.org/2000/svg" width="24" height="24" viewBox="0 0 24 24" fill="none">
<path fill-rule="evenodd" clip-rule="evenodd" d="M19.5 4.62362C14.5351 5.46114 9.4649 5.46114 4.5 4.62362V13.3071C4.5 15.1035 5.56834 16.7277 7.21779 17.4392L12 19.5018L16.7822 17.4392C18.4317 16.7277 19.5 15.1035 19.5 13.3071V4.62362ZM4.00745 3.01274C3.48375 2.91505 3 3.31692 3 3.84965V13.3071C3 15.7022 4.42445 17.8679 6.62372 18.8165L11.4059 20.8791C11.7851 21.0427 12.2149 21.0427 12.5941 20.8791L17.3763 18.8165C19.5756 17.8679 21 15.7022 21 13.3071V3.84965C21 3.31692 20.5162 2.91505 19.9925 3.01274C14.7097 3.9981 9.29026 3.9981 4.00745 3.01274Z" fill="#001D21" />
</svg>