<svg xmlns="http://www.w3.org/2000/svg" width="24" height="24" viewBox="0 0 24 24" fill="none">
<path fill-rule="evenodd" clip-rule="evenodd" d="M2.78033 1.71967C2.48744 1.42678 2.01256 1.42678 1.71967 1.71967C1.42678 2.01256 1.42678 2.48744 1.71967 2.78033L21.2197 22.2803C21.5126 22.5732 21.9874 22.5732 22.2803 22.2803C22.5732 21.9874 22.5732 21.5126 22.2803 21.2197L2.78033 1.71967ZM21 13.3037C21 14.5588 20.6089 15.7509 19.92 16.7378L18.837 15.6548C19.2619 14.9614 19.5 14.1517 19.5 13.3037V4.62021C15.7884 5.24631 12.0179 5.40436 8.27657 5.09434L6.59405 3.41182C11.049 3.96864 15.5687 3.83447 19.9925 3.00932C20.5163 2.91164 21 3.3135 21 3.84624V13.3037ZM3 6.18174L4.5 7.68174V13.3037C4.5 15.1 5.56834 16.7243 7.21779 17.4357L12 19.4984L15.0159 18.1976L16.1572 19.3389L12.5941 20.8757C12.2149 21.0393 11.7851 21.0393 11.4059 20.8757L6.62372 18.8131C4.42445 17.8645 3 15.6988 3 13.3037V6.18174Z" fill="#001D21" />
</svg>