<svg xmlns="http://www.w3.org/2000/svg" width="24" height="24" viewBox="0 0 24 24" fill="none">
<path d="M18.4861 7.98143C18.4861 9.98542 17.5766 11.7769 16.1479 12.9658L15.0814 11.8994C16.2412 10.9874 16.9861 9.57135 16.9861 7.98143C16.9861 5.23026 14.7558 3 12.0047 3C10.4147 3 8.99873 3.74487 8.08665 4.90469L7.02018 3.8382C8.20905 2.40948 10.0007 1.5 12.0047 1.5C15.5843 1.5 18.4861 4.40183 18.4861 7.98143Z" fill="#001D21" />
<path d="M5.56836 8.75C5.9188 11.715 8.27074 14.067 11.2358 14.4174L5.56836 8.75Z" fill="#001D21" />
<path d="M7.04823 15.7305H12.5493L14.0493 17.2305H7.04823C4.8124 17.2305 2.9999 19.0437 2.99988 21.2804L2.99987 21.7494C2.99987 22.1635 2.66422 22.4994 2.25017 22.4994C1.83613 22.4993 1.50048 22.1635 1.50049 21.7493V21.2804C1.50051 18.2152 3.98431 15.7305 7.04823 15.7305Z" fill="#001D21" />
<path d="M2.78033 1.71967C2.48743 1.42678 2.01257 1.42678 1.71967 1.71967C1.42678 2.01257 1.42678 2.48743 1.71967 2.78033L21.2197 22.2803C21.5126 22.5732 21.9874 22.5732 22.2803 22.2803C22.5732 21.9874 22.5732 21.5126 22.2803 21.2197L2.78033 1.71967Z" fill="#001D21" />
</svg>