<svg xmlns="http://www.w3.org/2000/svg" width="24" height="24" viewBox="0 0 24 24" fill="none">
<path fill-rule="evenodd" clip-rule="evenodd" d="M12 2.98438C9.24887 2.98438 7.0186 5.21464 7.0186 7.96581C7.0186 10.717 9.24887 12.9472 12 12.9472C14.7512 12.9472 16.9815 10.717 16.9815 7.96581C16.9815 5.21464 14.7512 2.98438 12 2.98438ZM5.5186 7.96581C5.5186 4.38621 8.42044 1.48438 12 1.48438C15.5796 1.48438 18.4815 4.38621 18.4815 7.96581C18.4815 11.5454 15.5796 14.4472 12 14.4472C8.42044 14.4472 5.5186 11.5454 5.5186 7.96581Z" fill="#001D21" />
<path fill-rule="evenodd" clip-rule="evenodd" d="M1.49573 21.2902C1.49575 18.225 3.98057 15.7402 7.04573 15.7402H16.9543C20.0195 15.7402 22.5043 18.2251 22.5043 21.2903L22.5043 21.7591C22.5043 22.1734 22.1685 22.5091 21.7543 22.5091C21.3401 22.5091 21.0043 22.1733 21.0043 21.7591L21.0043 21.2903C21.0043 19.0535 19.1911 17.2402 16.9543 17.2402H7.04573C4.80899 17.2402 2.99575 19.0535 2.99573 21.2902L2.99573 21.7591C2.99572 22.1734 2.65994 22.5091 2.24572 22.5091C1.83151 22.5091 1.49572 22.1733 1.49573 21.7591L1.49573 21.2902Z" fill="#001D21" />
</svg>