<svg xmlns="http://www.w3.org/2000/svg" width="24" height="24" viewBox="0 0 24 24" fill="none">
<path fill-rule="evenodd" clip-rule="evenodd" d="M14.25 8.25024C14.25 7.83609 14.5858 7.50024 15 7.50024H18C20.4853 7.50024 22.5 9.51497 22.5 12.0002C22.5 14.4856 20.4853 16.5002 18 16.5002H15C14.5858 16.5002 14.25 16.1645 14.25 15.7502C14.25 15.3361 14.5858 15.0002 15 15.0002H18C19.6568 15.0002 21 13.6571 21 12.0002C21 10.3434 19.6568 9.00024 18 9.00024H15C14.5858 9.00024 14.25 8.66447 14.25 8.25024Z" fill="#001D21" />
<path fill-rule="evenodd" clip-rule="evenodd" d="M9.75 15.75C9.75 16.1642 9.41423 16.5 9 16.5H6C3.51472 16.5 1.5 14.4853 1.5 12C1.5 9.51474 3.51472 7.5 6 7.5H9C9.41423 7.5 9.75 7.83579 9.75 8.25001C9.75 8.66424 9.41423 9.00001 9 9.00001H6C4.34314 9.00001 3 10.3431 3 12C3 13.6568 4.34314 15 6 15H9C9.41423 15 9.75 15.3358 9.75 15.75Z" fill="#001D21" />
</svg>