<svg xmlns="http://www.w3.org/2000/svg" width="24" height="24" viewBox="0 0 24 24" fill="none">
<path fill-rule="evenodd" clip-rule="evenodd" d="M9.75 15.7497C9.75 16.164 9.41423 16.4997 9 16.4997H6C3.51472 16.4997 1.5 14.485 1.5 11.9997C1.5 9.51447 3.51472 7.49976 6 7.49976H9C9.41423 7.49976 9.75 7.83552 9.75 8.24974C9.75 8.66397 9.41423 8.99974 9 8.99974H6C4.34314 8.99974 3 10.3429 3 11.9997C3 13.6566 4.34314 14.9997 6 14.9997H9C9.41423 14.9997 9.75 15.3355 9.75 15.7497ZM14.25 8.25004C14.25 7.83582 14.5858 7.50004 15 7.50004H18C20.4853 7.50004 22.5 9.51477 22.5 12C22.5 14.4853 20.4853 16.5 18 16.5H15C14.5858 16.5 14.25 16.1643 14.25 15.75C14.25 15.3358 14.5858 15 15 15H18C19.6568 15 21 13.6569 21 12C21 10.3431 19.6568 9.00004 18 9.00004H15C14.5858 9.00004 14.25 8.66427 14.25 8.25004ZM6.00056 11.2503C5.58644 11.2503 5.25073 11.586 5.25073 12.0001C5.25073 12.4143 5.58644 12.75 6.00056 12.75H18.0006C18.4147 12.75 18.7504 12.4143 18.7504 12.0001C18.7504 11.586 18.4147 11.2503 18.0006 11.2503H6.00056Z" fill="#001D21" />
</svg>