<svg xmlns="http://www.w3.org/2000/svg" width="24" height="24" viewBox="0 0 24 24" fill="none">
<path fill-rule="evenodd" clip-rule="evenodd" d="M12 3.75C12 3.33579 12.3358 3 12.75 3H19.5C20.3284 3 21 3.67157 21 4.5V11.25C21 11.6642 20.6642 12 20.25 12C19.8358 12 19.5 11.6642 19.5 11.25V5.56079L11.0306 14.0305C10.7377 14.3233 10.2628 14.3233 9.9699 14.0305C9.67702 13.7376 9.67702 13.2627 9.9699 12.9698L18.4395 4.5H12.75C12.3358 4.5 12 4.16421 12 3.75ZM3 6C3 5.17157 3.67157 4.5 4.5 4.5H6.75C7.16422 4.5 7.5 4.83579 7.5 5.25C7.5 5.66422 7.16422 6 6.75 6H4.5V19.5H18V17.25C18 16.8358 18.3358 16.5 18.75 16.5C19.1642 16.5 19.5 16.8358 19.5 17.25V19.5C19.5 20.3284 18.8285 21 18 21H4.5C3.67157 21 3 20.3284 3 19.5V6Z" fill="#001D21" />
</svg>