<svg xmlns="http://www.w3.org/2000/svg" width="24" height="24" viewBox="0 0 24 24" fill="none">
<path fill-rule="evenodd" clip-rule="evenodd" d="M5.68089 6.1006C6.99401 4.54872 9.16063 2.98828 12.4944 2.98828C15.8347 2.98828 17.9015 4.55551 19.1109 6.12777C19.7087 6.90486 20.0951 7.67865 20.3326 8.25755C20.4518 8.54792 20.5345 8.79195 20.5883 8.96662C20.6152 9.05404 20.6349 9.12433 20.6483 9.17464C20.655 9.19981 20.6601 9.22 20.6638 9.23487L20.6683 9.25315L20.6697 9.25921L20.6702 9.26146C20.6703 9.26186 20.6706 9.26317 19.9754 9.42362L20.6706 9.26319C20.7638 9.66679 20.5121 10.0695 20.1085 10.1626C19.7055 10.2556 19.3034 10.0048 19.2095 9.60225L19.2092 9.60114C19.2091 9.60082 19.2091 9.60048 19.9399 9.43183L19.2092 9.60114L19.208 9.59613C19.2063 9.58945 19.2033 9.57767 19.1989 9.56114C19.1901 9.52805 19.1756 9.47602 19.1546 9.40775C19.1125 9.27105 19.0447 9.07028 18.9449 8.82688C18.7444 8.33824 18.4192 7.68864 17.922 7.04234C16.9416 5.76782 15.2857 4.48828 12.4944 4.48828C9.69672 4.48828 7.92165 5.77462 6.82597 7.06951C6.27322 7.72275 5.89463 8.37847 5.65483 8.87069C5.53531 9.11602 5.45139 9.31843 5.39832 9.45642C5.37181 9.52535 5.35308 9.57798 5.34153 9.6116C5.33575 9.6284 5.33178 9.64044 5.32953 9.64735L5.3277 9.65302C5.31686 9.68812 5.30369 9.72185 5.2884 9.7541L7.47734 9.16757C7.87744 9.06037 8.28869 9.29781 8.3959 9.69791C8.5031 10.098 8.26567 10.5093 7.86557 10.6165L4.5081 11.5161C3.7716 11.7134 3.01456 11.2764 2.81722 10.5399L1.91759 7.1824C1.81038 6.7823 2.04782 6.37104 2.44792 6.26384C2.84802 6.15663 3.25927 6.39407 3.36648 6.79417L3.96165 9.01539C3.97249 8.98588 3.98469 8.95334 3.9983 8.91795C4.06498 8.74458 4.16582 8.50219 4.30635 8.21374C4.58663 7.63842 5.02922 6.87075 5.68089 6.1006ZM4.02485 9.25127L4.61106 9.43183C4.30057 9.3363 4.12459 9.28208 4.02485 9.25127Z" fill="#001D21" />
<path fill-rule="evenodd" clip-rule="evenodd" d="M20.6674 17.2057C20.7746 17.6058 21.1858 17.8432 21.5859 17.736C21.986 17.6288 22.2234 17.2175 22.1162 16.8174L21.2166 13.46C21.0193 12.7235 20.2622 12.2864 19.5257 12.4837L16.1683 13.3834C15.7682 13.4906 15.5307 13.9018 15.6379 14.3019C15.7451 14.702 16.1564 14.9395 16.5565 14.8323L18.7458 14.2456C18.7304 14.278 18.7172 14.3118 18.7063 14.3471L18.7045 14.3527L18.7003 14.3655L18.6925 14.3885C18.6809 14.4221 18.6622 14.4747 18.6357 14.5437C18.5826 14.6817 18.4987 14.8841 18.3792 15.1294C18.1394 15.6216 17.7608 16.2773 17.208 16.9306C16.1124 18.2255 14.3373 19.5118 11.5396 19.5118C8.74827 19.5118 7.09241 18.2323 6.11201 16.9578C5.61486 16.3115 5.2896 15.6619 5.08913 15.1732C4.98928 14.9298 4.92148 14.729 4.87942 14.5923C4.85842 14.5241 4.84391 14.472 4.83508 14.439C4.83068 14.4224 4.82769 14.4106 4.82604 14.404L4.82495 14.3996L4.09416 14.5683C4.82495 14.3996 4.82502 14.3999 4.82495 14.3996L4.82454 14.3978C4.73063 13.9953 4.32853 13.7445 3.92551 13.8375C3.52191 13.9306 3.27022 14.3333 3.36336 14.7369L4.05857 14.5765C3.36336 14.7369 3.36327 14.7365 3.36336 14.7369L3.36376 14.7386L3.36429 14.7409L3.36573 14.7469L3.37019 14.7652C3.37388 14.7801 3.37902 14.8003 3.38573 14.8254C3.39915 14.8758 3.41886 14.9461 3.44575 15.0335C3.4995 15.2081 3.58225 15.4522 3.70138 15.7425C3.93888 16.3214 4.32532 17.0952 4.92308 17.8723C6.13251 19.4446 8.19935 21.0118 11.5396 21.0118C14.8734 21.0118 17.04 19.4514 18.3531 17.8995C19.0048 17.1293 19.4474 16.3617 19.7277 15.7864C19.8682 15.4979 19.969 15.2555 20.0357 15.0821C20.0493 15.0468 20.0615 15.0143 20.0723 14.9849L20.6674 17.2057Z" fill="#001D21" />
</svg>