<svg xmlns="http://www.w3.org/2000/svg" width="24" height="24" viewBox="0 0 24 24" fill="none">
<path fill-rule="evenodd" clip-rule="evenodd" d="M17.0192 3.21952C17.312 2.92683 17.7868 2.92683 18.0796 3.21952L20.5607 5.69973C21.1464 6.2851 21.1464 7.23419 20.5607 7.81956L18.0796 10.2998C17.7868 10.5925 17.312 10.5925 17.0192 10.2998C16.7264 10.0071 16.7264 9.53254 17.0192 9.23986L18.7629 7.49681H4.49957V11.9937C4.49957 12.4076 4.16388 12.7431 3.74979 12.7431C3.33569 12.7431 3 12.4076 3 11.9937V7.49681C3 6.66896 3.67138 5.99786 4.49957 5.99786H18.7384L17.0192 4.27944C16.7264 3.98675 16.7264 3.51221 17.0192 3.21952ZM20.9943 16.491C20.9943 17.3188 20.323 17.9899 19.4949 17.9899H5.24946L6.98106 19.7208C7.27387 20.0135 7.27387 20.488 6.98106 20.7807C6.68825 21.0734 6.21351 21.0734 5.9207 20.7807L3.43945 18.3005C2.85383 17.7151 2.85383 16.766 3.43945 16.1807L5.9207 13.7005C6.21351 13.4078 6.68825 13.4078 6.98106 13.7005C7.27387 13.9931 7.27387 14.4677 6.98106 14.7604L5.24974 16.491H19.4949V11.9941C19.4949 11.5802 19.8304 11.2446 20.2445 11.2446C20.6586 11.2446 20.9943 11.5802 20.9943 11.9941V16.491Z" fill="#001D21" />
</svg>