<svg xmlns="http://www.w3.org/2000/svg" width="24" height="24" viewBox="0 0 24 24" fill="none">
<path fill-rule="evenodd" clip-rule="evenodd" d="M16.5 4.5C16.5 3.67157 17.1715 3 18 3H19.5C20.3284 3 21 3.67157 21 4.5V19.5C21 20.3284 20.3284 21 19.5 21H18C17.1715 21 16.5 20.3284 16.5 19.5V4.5ZM19.5 4.5H18V19.5H19.5V4.5ZM9.75 8.25C9.75 7.42157 10.4215 6.75 11.25 6.75H12.75C13.5785 6.75 14.25 7.42157 14.25 8.25V19.5C14.25 20.3284 13.5785 21 12.75 21H11.25C10.4215 21 9.75 20.3284 9.75 19.5V8.25ZM12.75 8.25H11.25V19.5H12.75V8.25ZM3 12C3 11.1715 3.67157 10.5 4.5 10.5H6C6.82843 10.5 7.5 11.1715 7.5 12V19.5C7.5 20.3284 6.82843 21 6 21H4.5C3.67157 21 3 20.3284 3 19.5V12ZM6 12H4.5V19.5H6V12Z" fill="#001D21" />
</svg>