<svg xmlns="http://www.w3.org/2000/svg" width="24" height="24" viewBox="0 0 24 24" fill="none">
<path d="M21 17.8181V4.5C21 3.67157 20.3284 3 19.5 3H18C17.1715 3 16.5 3.67157 16.5 4.5V13.3181L18 14.8181V4.5H19.5V16.3181L21 17.8181Z" fill="#001D21" />
<path d="M14.25 11.068V8.25C14.25 7.42157 13.5785 6.75 12.75 6.75H11.25C10.8821 6.75 10.5452 6.88244 10.2842 7.10224L11.432 8.25H12.75V9.56805L14.25 11.068Z" fill="#001D21" />
<path d="M12.75 15.9316L14.25 17.4316V19.4997C14.25 20.3281 13.5785 20.9997 12.75 20.9997H11.25C10.4215 20.9997 9.75 20.3281 9.75 19.4997V12.9316L11.25 14.4316V19.4997H12.75V15.9316Z" fill="#001D21" />
<path fill-rule="evenodd" clip-rule="evenodd" d="M4.5 10.5C3.67157 10.5 3 11.1715 3 12V19.5C3 20.3284 3.67157 21 4.5 21H6C6.82843 21 7.5 20.3284 7.5 19.5V12C7.5 11.1715 6.82843 10.5 6 10.5H4.5ZM4.5 12H6V19.5H4.5V12Z" fill="#001D21" />
<path fill-rule="evenodd" clip-rule="evenodd" d="M1.71967 1.71967C2.01257 1.42678 2.48743 1.42678 2.78033 1.71967L22.2803 21.2197C22.5732 21.5126 22.5732 21.9874 22.2803 22.2803C21.9874 22.5732 21.5126 22.5732 21.2197 22.2803L1.71967 2.78033C1.42678 2.48743 1.42678 2.01257 1.71967 1.71967Z" fill="#001D21" />
</svg>