<svg xmlns="http://www.w3.org/2000/svg" width="24" height="24" viewBox="0 0 24 24" fill="none">
<path fill-rule="evenodd" clip-rule="evenodd" d="M19.5 3.75C19.5 4.99264 18.4927 6 17.25 6C16.0074 6 15 4.99264 15 3.75C15 2.50736 16.0074 1.5 17.25 1.5C18.4927 1.5 19.5 2.50736 19.5 3.75ZM18 3.75C18 4.16421 17.6642 4.5 17.25 4.5C16.8358 4.5 16.5 4.16421 16.5 3.75C16.5 3.33579 16.8358 3 17.25 3C17.6642 3 18 3.33579 18 3.75Z" fill="#001D21" />
<path fill-rule="evenodd" clip-rule="evenodd" d="M9 20.25C9 21.4926 7.99264 22.5 6.75 22.5C5.50736 22.5 4.5 21.4926 4.5 20.25C4.5 19.0074 5.50736 18 6.75 18C7.99264 18 9 19.0074 9 20.25ZM7.5 20.25C7.5 20.6642 7.16422 21 6.75 21C6.33579 21 6 20.6642 6 20.25C6 19.8358 6.33579 19.5 6.75 19.5C7.16422 19.5 7.5 19.8358 7.5 20.25Z" fill="#001D21" />
<path d="M13.5 3.75C13.5 4.16421 13.1642 4.5 12.75 4.5H10.125C8.26104 4.5 6.75 6.01104 6.75 7.875C6.75 9.73896 8.26104 11.25 10.125 11.25H13.875C16.5674 11.25 18.75 13.4326 18.75 16.125C18.75 18.8174 16.5674 21 13.875 21H11.25C10.8358 21 10.5 20.6642 10.5 20.25C10.5 19.8358 10.8358 19.5 11.25 19.5H13.875C15.739 19.5 17.25 17.989 17.25 16.125C17.25 14.261 15.739 12.75 13.875 12.75H10.125C7.43262 12.75 5.25 10.5674 5.25 7.875C5.25 5.18261 7.43262 3 10.125 3H12.75C13.1642 3 13.5 3.33579 13.5 3.75Z" fill="#001D21" />
</svg>