<svg xmlns="http://www.w3.org/2000/svg" width="24" height="24" viewBox="0 0 24 24" fill="none">
<path d="M2.78033 1.71967C2.48744 1.42678 2.01257 1.42678 1.71967 1.71967C1.42678 2.01256 1.42678 2.48744 1.71967 2.78033L21.2197 22.2803C21.5126 22.5732 21.9875 22.5732 22.2804 22.2803C22.5732 21.9874 22.5732 21.5126 22.2804 21.2197L2.78033 1.71967Z" fill="#001D21" />
<path d="M18.7144 15.5324C18.4455 13.3137 16.6863 11.5545 14.4677 11.2857L18.7144 15.5324Z" fill="#001D21" />
<path d="M10.125 4.5C9.43128 4.5 8.78644 4.7093 8.25019 5.06821L7.1753 3.99332C7.99426 3.37003 9.01642 3 10.125 3H12.75C13.1642 3 13.5 3.33579 13.5 3.75C13.5 4.16421 13.1642 4.5 12.75 4.5H10.125Z" fill="#001D21" />
<path d="M5.28566 8.46764C5.55454 10.6863 7.31374 12.4455 9.53236 12.7143L5.28566 8.46764Z" fill="#001D21" />
<path d="M13.875 19.5C14.5687 19.5 15.2136 19.2907 15.7498 18.9318L16.8247 20.0067C16.0058 20.63 14.9836 21 13.875 21H11.25C10.8358 21 10.5 20.6642 10.5 20.25C10.5 19.8358 10.8358 19.5 11.25 19.5H13.875Z" fill="#001D21" />
<path fill-rule="evenodd" clip-rule="evenodd" d="M17.25 6C18.4927 6 19.5 4.99264 19.5 3.75C19.5 2.50736 18.4927 1.5 17.25 1.5C16.0074 1.5 15 2.50736 15 3.75C15 4.99264 16.0074 6 17.25 6ZM17.25 4.5C17.6642 4.5 18 4.16421 18 3.75C18 3.33579 17.6642 3 17.25 3C16.8358 3 16.5 3.33579 16.5 3.75C16.5 4.16421 16.8358 4.5 17.25 4.5Z" fill="#001D21" />
<path fill-rule="evenodd" clip-rule="evenodd" d="M6.75 22.5C7.99264 22.5 9 21.4926 9 20.25C9 19.0074 7.99264 18 6.75 18C5.50736 18 4.5 19.0074 4.5 20.25C4.5 21.4926 5.50736 22.5 6.75 22.5ZM6.75 21C7.16422 21 7.5 20.6642 7.5 20.25C7.5 19.8358 7.16422 19.5 6.75 19.5C6.33579 19.5 6 19.8358 6 20.25C6 20.6642 6.33579 21 6.75 21Z" fill="#001D21" />
</svg>