<svg xmlns="http://www.w3.org/2000/svg" width="24" height="24" viewBox="0 0 24 24" fill="none">
<path fill-rule="evenodd" clip-rule="evenodd" d="M21 17.8181V7.81065C21 7.41283 20.842 7.0313 20.5606 6.75L17.25 3.43934C16.9687 3.15803 16.5872 3 16.1894 3H6.18198L9 5.81802V4.5H15V6.75H9.93195L11.432 8.25H15.375C15.9963 8.25 16.5 7.7463 16.5 7.125V4.81066L19.5 7.81065V16.3181L21 17.8181ZM4.5 7.68195V19.5H7.5V14.625C7.5 14.0037 8.0037 13.5 8.625 13.5H10.318L11.818 15H9V19.5H15V18.1819L17.8181 21H4.5C3.67157 21 3 20.3284 3 19.5V6.18198L4.5 7.68195Z" fill="#001D21" />
<path fill-rule="evenodd" clip-rule="evenodd" d="M1.71967 1.71967C2.01257 1.42678 2.48743 1.42678 2.78033 1.71967L22.2803 21.2197C22.5732 21.5126 22.5732 21.9874 22.2803 22.2803C21.9874 22.5732 21.5126 22.5732 21.2197 22.2803L1.71967 2.78033C1.42678 2.48743 1.42678 2.01257 1.71967 1.71967Z" fill="#001D21" />
</svg>