<svg xmlns="http://www.w3.org/2000/svg" width="24" height="24" viewBox="0 0 24 24" fill="none">
<path fill-rule="evenodd" clip-rule="evenodd" d="M3 4.5C3 3.67157 3.67157 3 4.5 3H16.1893C16.5872 3 16.9687 3.15804 17.25 3.43934L20.5607 6.75C20.842 7.03131 21 7.41284 21 7.81066V19.5C21 20.3284 20.3284 21 19.5 21H4.5C3.67157 21 3 20.3284 3 19.5V4.5ZM7.5 4.5H4.5V19.5H7.5L7.5 14.625C7.5 14.0037 8.00368 13.5 8.625 13.5L15.375 13.5C15.9963 13.5 16.5 14.0037 16.5 14.625V19.5H19.5V7.81066L16.5 4.81066V7.125C16.5 7.74632 15.9963 8.25 15.375 8.25H8.625C8.00368 8.25 7.5 7.74632 7.5 7.125V4.5ZM9 4.5V6.75H15V4.5H9ZM15 19.5V15H9L9 19.5H15Z" fill="#001D21" />
</svg>