<svg xmlns="http://www.w3.org/2000/svg" width="24" height="24" viewBox="0 0 24 24" fill="none">
<path fill-rule="evenodd" clip-rule="evenodd" d="M9.70659 1.48853C5.16801 1.48853 1.48877 5.16777 1.48877 9.70635C1.48877 14.2449 5.16801 17.9242 9.70659 17.9242C11.7055 17.9242 13.5378 17.2104 14.9624 16.0239L21.2114 22.2729C21.5043 22.5658 21.9792 22.5658 22.2721 22.2729C22.565 21.98 22.565 21.5052 22.2721 21.2123L16.0232 14.9634C17.2103 13.5386 17.9244 11.7059 17.9244 9.70635C17.9244 5.16777 14.2452 1.48853 9.70659 1.48853ZM2.98877 9.70635C2.98877 5.9962 5.99644 2.98853 9.70659 2.98853C13.4167 2.98853 16.4244 5.9962 16.4244 9.70635C16.4244 13.4165 13.4167 16.4242 9.70659 16.4242C5.99644 16.4242 2.98877 13.4165 2.98877 9.70635Z" fill="#001D21" />
</svg>