<svg xmlns="http://www.w3.org/2000/svg" width="24" height="24" viewBox="0 0 24 24" fill="none">
<path fill-rule="evenodd" clip-rule="evenodd" d="M17.7402 14.5577L20.1727 13.342C21.2786 12.7893 21.2786 11.2111 20.1727 10.6585L7.51455 4.33203L10.867 7.68441L19.5021 12.0002L16.6221 13.4396L17.7402 14.5577ZM9.56873 12.7502H6.63454L4.50324 19.4965L12.3788 15.5603L13.4969 16.6784L5.17384 20.8382C3.98873 21.4306 2.67381 20.308 3.07292 19.0446L5.29841 12.0002L3.67264 6.85411L5.9722 9.15366L6.63454 11.2502H8.06873L9.56873 12.7502Z" fill="#001D21" />
<path fill-rule="evenodd" clip-rule="evenodd" d="M1.50581 1.71967C1.7987 1.42678 2.27357 1.42678 2.56646 1.71967L22.0665 21.2197C22.3594 21.5126 22.3594 21.9874 22.0665 22.2803C21.7736 22.5732 21.2987 22.5732 21.0058 22.2803L1.50581 2.78033C1.21291 2.48743 1.21291 2.01257 1.50581 1.71967Z" fill="#001D21" />
</svg>