<svg xmlns="http://www.w3.org/2000/svg" width="24" height="24" viewBox="0 0 24 24" fill="none">
<path fill-rule="evenodd" clip-rule="evenodd" d="M11.9581 7.37109C9.42826 7.37109 7.37744 9.42192 7.37744 11.9517C7.37744 14.4815 9.42826 16.5324 11.9581 16.5324C14.4879 16.5324 16.5387 14.4815 16.5387 11.9517C16.5387 9.42192 14.4879 7.37109 11.9581 7.37109ZM8.87744 11.9517C8.87744 10.2503 10.2567 8.87109 11.9581 8.87109C13.6595 8.87109 15.0387 10.2503 15.0387 11.9517C15.0387 13.6531 13.6595 15.0324 11.9581 15.0324C10.2567 15.0324 8.87744 13.6531 8.87744 11.9517Z" fill="#001D21" />
<path fill-rule="evenodd" clip-rule="evenodd" d="M10.8513 1.48438C10.3084 1.48438 9.85532 1.82641 9.68247 2.31615L9.68006 2.323L9.15794 3.89902C8.90592 3.98735 8.66121 4.08662 8.42098 4.19844L6.87376 3.39582C6.38142 3.1267 5.79896 3.23173 5.42117 3.60952L3.85892 5.17177C3.47841 5.55228 3.38364 6.12548 3.62371 6.60562L4.3705 8.0609C4.19192 8.41116 4.03322 8.77848 3.89997 9.15778L2.33505 9.67942L2.32884 9.68161C1.8391 9.85446 1.49707 10.3076 1.49707 10.8504V13.0755C1.49707 13.6183 1.8391 14.0714 2.32884 14.2443L2.3357 14.2467L3.91386 14.7695C4.03233 15.1024 4.17042 15.4257 4.32538 15.7392L3.64504 17.0533C3.37615 17.5456 3.48121 18.1279 3.85892 18.5056L5.43177 20.0784L5.44279 20.0886C5.81925 20.4361 6.37891 20.5293 6.85504 20.2912L8.18518 19.6026C8.499 19.7584 8.8256 19.8961 9.15823 20.0137L9.68028 21.5799L9.68247 21.5861C9.85532 22.0758 10.3084 22.4178 10.8513 22.4178H13.0645C13.6073 22.4178 14.0604 22.0758 14.2333 21.5861L14.2357 21.5792L14.7585 20.0011C15.0915 19.8826 15.4147 19.7445 15.7283 19.5895L17.0423 20.2699C17.5346 20.5388 18.1169 20.4337 18.4946 20.056L20.0675 18.4831L20.0776 18.4721C20.4251 18.0957 20.5183 17.536 20.2803 17.0599L19.5916 15.7297C19.7473 15.4162 19.8849 15.0899 20.0024 14.7575L21.5801 14.2349L21.5869 14.2324C22.0767 14.0596 22.4187 13.6065 22.4187 13.0636V10.8268C22.4187 10.2839 22.0767 9.83079 21.5869 9.65794L21.5801 9.65552L20.0049 9.13369C19.8748 8.75774 19.7198 8.38906 19.5364 8.03388L20.2709 6.61185C20.5396 6.11966 20.4345 5.53755 20.0569 5.15994L18.484 3.58708L18.473 3.57691C18.0965 3.22941 17.5369 3.13628 17.0608 3.37435L17.0558 3.37684L15.487 4.19065C15.2485 4.08404 15.0051 3.98747 14.7584 3.90079L14.2357 2.323L14.2333 2.31615C14.0604 1.82641 13.6073 1.48438 13.0645 1.48438H10.8513ZM10.3399 5.10116L11.0411 2.98438H12.8747L13.5749 5.09798L13.9446 5.21174C14.3695 5.34247 14.7805 5.50501 15.1671 5.69831L15.5088 5.86915L17.5736 4.79803L18.8568 6.08116L17.8295 8.06986L18.0405 8.42703C18.3127 8.88758 18.5268 9.39829 18.6898 9.94159L18.8019 10.3153L20.9187 11.0166V12.8738L18.8037 13.5745L18.6907 13.9459C18.5399 14.4412 18.3358 14.9237 18.0913 15.3596L17.8935 15.7123L18.8566 17.5727L17.5735 18.8558L15.7175 17.8949L15.3672 18.0867C14.9111 18.3365 14.4377 18.5404 13.9468 18.6898L13.5753 18.8029L12.8747 20.9178H11.0407L10.3396 18.8144L9.96898 18.7016C9.47375 18.5509 8.99125 18.3468 8.5553 18.1023L8.20263 17.9044L6.34226 18.8676L5.05915 17.5845L6.02005 15.7285L5.8282 15.3782C5.57842 14.922 5.37451 14.4486 5.22511 13.9578L5.11205 13.5863L2.99707 12.8856V11.0399L5.10227 10.3382L5.21414 9.96527C5.37451 9.43068 5.60008 8.91437 5.86981 8.43966L6.07001 8.0873L5.05082 6.10119L6.34215 4.80986L8.41623 5.88579L8.7633 5.70262C9.14439 5.50149 9.53701 5.34201 9.96612 5.21328L10.3399 5.10116Z" fill="#001D21" />
</svg>