<svg xmlns="http://www.w3.org/2000/svg" width="24" height="24" viewBox="0 0 24 24" fill="none">
<path fill-rule="evenodd" clip-rule="evenodd" d="M17.25 3C16.0074 3 15 4.00736 15 5.25C15 6.49264 16.0074 7.5 17.25 7.5C18.4926 7.5 19.5 6.49264 19.5 5.25C19.5 4.00736 18.4926 3 17.25 3ZM13.5 5.25C13.5 3.17893 15.1789 1.5 17.25 1.5C19.3211 1.5 21 3.17893 21 5.25C21 7.32107 19.3211 9 17.25 9C16.1178 9 15.1029 8.49828 14.4153 7.70505L8.82079 10.8519C8.93726 11.2144 9 11.6004 9 12C9 12.4005 8.93722 12.7863 8.82097 13.1482L14.4153 16.295C15.1029 15.5017 16.1178 15 17.25 15C19.3211 15 21 16.6789 21 18.75C21 20.8211 19.3211 22.5 17.25 22.5C15.1789 22.5 13.5 20.8211 13.5 18.75C13.5 18.3495 13.5628 17.9637 13.679 17.6018L8.08473 14.455C7.39714 15.2483 6.38216 15.75 5.25 15.75C3.17893 15.75 1.5 14.0711 1.5 12C1.5 9.92893 3.17893 8.25 5.25 8.25C6.38266 8.25 7.39806 8.75284 8.08471 9.54497L13.679 6.39816C13.5628 6.0363 13.5 5.65048 13.5 5.25ZM5.25 9.75C4.00736 9.75 3 10.7574 3 12C3 13.2426 4.00736 14.25 5.25 14.25C6.49264 14.25 7.5 13.2426 7.5 12C7.5 11.6786 7.43307 11.3748 7.31311 11.1003C7.27937 11.0231 7.24139 10.9481 7.19945 10.8755C7.15425 10.7974 7.10444 10.7222 7.05038 10.6502C6.63861 10.1021 5.98554 9.75 5.25 9.75ZM17.25 16.5C16.0074 16.5 15 17.5074 15 18.75C15 19.9926 16.0074 21 17.25 21C18.4926 21 19.5 19.9926 19.5 18.75C19.5 17.5074 18.4926 16.5 17.25 16.5Z" fill="#001D21" />
</svg>