<svg xmlns="http://www.w3.org/2000/svg" width="24" height="24" viewBox="0 0 24 24" fill="none">
<path fill-rule="evenodd" clip-rule="evenodd" d="M4.71931 20.7807C4.4269 20.4883 4.4269 20.0142 4.71931 19.7218L12.1234 12.3177C12.2988 12.1422 12.2988 11.8578 12.1234 11.6823L4.71931 4.27825C4.4269 3.98583 4.4269 3.51173 4.71932 3.21931C5.01173 2.9269 5.48584 2.9269 5.77825 3.21931L13.1823 10.6234C13.9426 11.3837 13.9426 12.6163 13.1823 13.3766L5.77825 20.7807C5.48583 21.0731 5.01173 21.0731 4.71931 20.7807Z" fill="#001D21" />
<path fill-rule="evenodd" clip-rule="evenodd" d="M18.75 3C19.1642 3 19.5 3.33579 19.5 3.75V20.25C19.5 20.6642 19.1642 21 18.75 21C18.3358 21 18 20.6642 18 20.25V3.75C18 3.33579 18.3358 3 18.75 3Z" fill="#001D21" />
</svg>