<svg xmlns="http://www.w3.org/2000/svg" width="24" height="24" viewBox="0 0 24 24" fill="none">
<path fill-rule="evenodd" clip-rule="evenodd" d="M19.2807 3.21931C19.5731 3.51173 19.5731 3.98583 19.2807 4.27825L11.8766 11.6823C11.7012 11.8578 11.7012 12.1422 11.8766 12.3177L19.2807 19.7218C19.5731 20.0142 19.5731 20.4883 19.2807 20.7807C18.9883 21.0731 18.5142 21.0731 18.2217 20.7807L10.8177 13.3766C10.0574 12.6163 10.0574 11.3837 10.8177 10.6234L18.2217 3.21931C18.5142 2.9269 18.9883 2.9269 19.2807 3.21931Z" fill="#001D21" />
<path fill-rule="evenodd" clip-rule="evenodd" d="M5.25 3.01462C5.66421 3.01462 6 3.3504 6 3.76462V20.2646C6 20.6788 5.66421 21.0146 5.25 21.0146C4.83579 21.0146 4.5 20.6788 4.5 20.2646V3.76462C4.5 3.3504 4.83579 3.01462 5.25 3.01462Z" fill="#001D21" />
</svg>