<svg xmlns="http://www.w3.org/2000/svg" width="24" height="24" viewBox="0 0 24 24" fill="none">
<path fill-rule="evenodd" clip-rule="evenodd" d="M19.5 16.3181V3C19.5 2.17157 18.8284 1.5 18 1.5H6C5.63212 1.5 5.29516 1.63244 5.03422 1.85224L6.18198 3H18V14.8181L19.5 16.3181ZM6 9.18195V21H17.8181L18.9658 22.1478C18.7048 22.3675 18.3679 22.5 18 22.5H6C5.17157 22.5 4.5 21.8284 4.5 21V7.68195L6 9.18195ZM11.25 4.5C10.8358 4.5 10.5 4.83579 10.5 5.25C10.5 5.66421 10.8358 6 11.25 6H12.7502C13.1644 6 13.5002 5.66421 13.5002 5.25C13.5002 4.83579 13.1644 4.5 12.7502 4.5H11.25Z" fill="#001D21" />
<path fill-rule="evenodd" clip-rule="evenodd" d="M1.71967 1.71967C2.01257 1.42678 2.48743 1.42678 2.78033 1.71967L22.2803 21.2197C22.5732 21.5126 22.5732 21.9874 22.2803 22.2803C21.9874 22.5732 21.5126 22.5732 21.2197 22.2803L1.71967 2.78033C1.42678 2.48743 1.42678 2.01257 1.71967 1.71967Z" fill="#001D21" />
</svg>