<svg xmlns="http://www.w3.org/2000/svg" width="24" height="24" viewBox="0 0 24 24" fill="none">
<path fill-rule="evenodd" clip-rule="evenodd" d="M7.18934 3.43777C7.77513 2.85212 8.72487 2.85212 9.31066 3.43777L13.2803 7.40648C13.5732 7.6993 13.5732 8.17406 13.2803 8.46688C12.9874 8.75971 12.5126 8.75971 12.2197 8.46688L9 5.24799V14.2474C9 14.6615 8.66421 14.9972 8.25 14.9972C7.83579 14.9972 7.5 14.6615 7.5 14.2474V5.24799L4.28033 8.46688C3.98744 8.75971 3.51256 8.75971 3.21967 8.46688C2.92678 8.17406 2.92678 7.6993 3.21967 7.40648L7.18934 3.43777ZM15.75 8.99862C16.1642 8.99862 16.5 9.33433 16.5 9.74844V18.7491L19.7197 15.5302C20.0126 15.2374 20.4874 15.2374 20.7803 15.5302C21.0732 15.823 21.0732 16.2978 20.7803 16.5906L16.8107 20.5593C16.2249 21.1449 15.2751 21.1449 14.6893 20.5593L10.7197 16.5906C10.4268 16.2978 10.4268 15.823 10.7197 15.5302C11.0126 15.2374 11.4874 15.2374 11.7803 15.5302L15 18.7491V9.74844C15 9.33433 15.3358 8.99862 15.75 8.99862Z" fill="#001D21" />
</svg>