<svg xmlns="http://www.w3.org/2000/svg" width="24" height="24" viewBox="0 0 24 24" fill="none">
<path fill-rule="evenodd" clip-rule="evenodd" d="M11.2582 3.73169C11.6173 3.73169 11.9259 3.98631 11.9943 4.33887L11.995 4.3396C11.9952 4.34088 11.9952 4.34334 11.9957 4.34619C11.997 4.3525 11.9996 4.36286 12.0023 4.37622C12.0079 4.40321 12.0163 4.44453 12.028 4.4978C12.0513 4.60468 12.0868 4.76117 12.1349 4.95483C12.2313 5.34343 12.377 5.87892 12.5743 6.46436C12.9803 7.66894 13.5633 8.95918 14.297 9.69287C15.0307 10.4266 16.3209 11.0096 17.5255 11.4155C18.111 11.6128 18.6464 11.7586 19.035 11.855C19.2288 11.903 19.3852 11.9386 19.4921 11.9619C19.5454 11.9736 19.5867 11.982 19.6136 11.9875C19.6271 11.9903 19.6374 11.9929 19.6437 11.9941C19.6467 11.9947 19.649 11.9946 19.6503 11.9949L19.651 11.9956C20.0035 12.064 20.2582 12.3726 20.2582 12.7317C20.2581 13.0907 20.0035 13.3994 19.651 13.4678L19.6503 13.4685C19.649 13.4687 19.6466 13.4686 19.6437 13.4692C19.6374 13.4705 19.6271 13.4731 19.6136 13.4758C19.5867 13.4814 19.5454 13.4898 19.4921 13.5015C19.3852 13.5248 19.2288 13.5603 19.035 13.6084C18.6464 13.7048 18.111 13.8505 17.5255 14.0479C16.3209 14.4538 15.0307 15.0368 14.297 15.7705C13.5633 16.5042 12.9803 17.7944 12.5743 18.999C12.377 19.5845 12.2313 20.12 12.1349 20.5085C12.0868 20.7022 12.0513 20.8587 12.028 20.9656C12.0163 21.0189 12.0079 21.0602 12.0023 21.0872C11.9996 21.1006 11.997 21.1109 11.9957 21.1172C11.9952 21.1201 11.9952 21.1226 11.995 21.1238L11.9943 21.1245C11.9258 21.477 11.6173 21.7317 11.2582 21.7317C10.8991 21.7317 10.5906 21.477 10.5221 21.1245L10.5214 21.1238C10.5211 21.1226 10.5212 21.1201 10.5206 21.1172C10.5194 21.1109 10.5168 21.1006 10.514 21.0872C10.5085 21.0602 10.5 21.0189 10.4884 20.9656C10.4651 20.8587 10.4295 20.7022 10.3815 20.5085C10.2851 20.12 10.1393 19.5845 9.94202 18.999C9.53605 17.7944 8.95304 16.5042 8.21936 15.7705C7.48565 15.0368 6.19546 14.4538 4.99084 14.0479C4.40534 13.8505 3.86993 13.7048 3.48132 13.6084C3.28758 13.5603 3.13117 13.5248 3.02429 13.5015C2.97093 13.4898 2.9297 13.4814 2.90271 13.4758C2.88924 13.4731 2.87898 13.4705 2.87268 13.4692C2.86972 13.4686 2.86733 13.4687 2.86609 13.4685L2.86536 13.4678C2.51286 13.3994 2.25827 13.0907 2.25818 12.7317C2.25818 12.3726 2.51282 12.064 2.86536 11.9956L2.86609 11.9949C2.86732 11.9946 2.86971 11.9947 2.87268 11.9941C2.87897 11.9929 2.88924 11.9903 2.90271 11.9875C2.92969 11.982 2.97092 11.9736 3.02429 11.9619C3.13117 11.9386 3.28757 11.903 3.48132 11.855C3.86992 11.7586 4.40534 11.6128 4.99084 11.4155C6.19543 11.0096 7.48562 10.4265 8.21936 9.69287C8.95305 8.95918 9.53604 7.66894 9.94202 6.46436C10.1393 5.87891 10.2851 5.34343 10.3815 4.95483C10.4295 4.76117 10.4651 4.60468 10.4884 4.4978C10.5 4.44453 10.5085 4.40321 10.514 4.37622C10.5168 4.36286 10.5194 4.3525 10.5206 4.34619C10.5212 4.34334 10.5212 4.34088 10.5214 4.3396L10.5221 4.33887L10.5375 4.27368C10.6291 3.95532 10.9216 3.73169 11.2582 3.73169ZM11.2582 7.24146C10.8377 8.42252 10.1974 9.83589 9.27991 10.7534C8.36234 11.6709 6.949 12.3112 5.76794 12.7317C6.94903 13.1521 8.36235 13.7924 9.27991 14.71C10.1973 15.6274 10.8377 17.0403 11.2582 18.2212C11.6786 17.0403 12.3191 15.6274 13.2365 14.71C14.1538 13.7926 15.5667 13.1522 16.7477 12.7317C15.5668 12.3112 14.1539 11.6708 13.2365 10.7534C12.3189 9.83589 11.6786 8.42252 11.2582 7.24146Z" fill="#001D21" />
<path fill-rule="evenodd" clip-rule="evenodd" d="M18.0074 2.26831C18.2318 2.2684 18.4246 2.42745 18.4674 2.64771C18.4675 2.64806 18.4679 2.64881 18.4681 2.6499C18.4686 2.65209 18.4693 2.65592 18.4703 2.66089C18.4724 2.67093 18.4754 2.68674 18.4799 2.70703C18.4888 2.74789 18.5023 2.80807 18.5209 2.88281C18.5582 3.03323 18.6146 3.24044 18.6908 3.46655C18.8503 3.94001 19.0714 4.41758 19.3317 4.67798C19.592 4.93833 20.0695 5.15926 20.5431 5.31885C20.7693 5.39507 20.9763 5.45143 21.1268 5.48877C21.2018 5.50738 21.2624 5.5216 21.3033 5.53052C21.3237 5.53496 21.3395 5.53798 21.3495 5.54004C21.3544 5.54105 21.3583 5.54181 21.3605 5.54224H21.3619C21.5823 5.58499 21.7421 5.77847 21.7421 6.00293C21.742 6.22731 21.5822 6.41942 21.3619 6.46216L21.3605 6.46362C21.3583 6.46406 21.3544 6.46481 21.3495 6.46582C21.3395 6.46788 21.3237 6.47089 21.3033 6.47534C21.2624 6.48426 21.2018 6.49775 21.1268 6.51636C20.9764 6.55369 20.7693 6.61006 20.5431 6.68628C20.0695 6.84587 19.592 7.06679 19.3317 7.32715C19.0713 7.58751 18.8504 8.06501 18.6908 8.53857C18.6146 8.76475 18.5582 8.97184 18.5209 9.12231C18.5023 9.19733 18.4888 9.25793 18.4799 9.29883C18.4754 9.31923 18.4724 9.33494 18.4703 9.34497C18.4693 9.34991 18.4686 9.35379 18.4681 9.35596L18.4674 9.35742C18.4247 9.57771 18.2318 9.73746 18.0074 9.73755C17.783 9.73755 17.5895 9.57777 17.5468 9.35742V9.35596C17.5463 9.3538 17.5456 9.34988 17.5446 9.34497C17.5425 9.33496 17.5395 9.3192 17.535 9.29883C17.5261 9.25793 17.5119 9.19733 17.4933 9.12231C17.4559 8.97183 17.3996 8.76474 17.3234 8.53857C17.1638 8.06502 16.9428 7.5875 16.6825 7.32715C16.4221 7.06687 15.9445 6.84583 15.4711 6.68628C15.245 6.6101 15.0377 6.55367 14.8873 6.51636C14.8126 6.49782 14.7524 6.48426 14.7115 6.47534C14.6913 6.47092 14.6754 6.46788 14.6654 6.46582C14.6604 6.4648 14.6566 6.46406 14.6544 6.46362C14.6533 6.46341 14.6526 6.46296 14.6522 6.46289C14.432 6.42012 14.2729 6.22729 14.2728 6.00293C14.2728 5.77847 14.4319 5.58499 14.6522 5.54224H14.6544C14.6566 5.5418 14.6604 5.54107 14.6654 5.54004C14.6754 5.53798 14.6912 5.53495 14.7115 5.53052C14.7524 5.5216 14.8125 5.50733 14.8873 5.48877C15.0378 5.45145 15.2449 5.39505 15.4711 5.31885C15.9446 5.15926 16.4221 4.93834 16.6825 4.67798C16.9429 4.41762 17.1638 3.94012 17.3234 3.46655C17.3996 3.2404 17.456 3.03325 17.4933 2.88281C17.5118 2.80799 17.5261 2.7479 17.535 2.70703C17.5395 2.68669 17.5425 2.67093 17.5446 2.66089C17.5456 2.65587 17.5463 2.65209 17.5468 2.6499V2.64771C17.5895 2.42736 17.783 2.26831 18.0074 2.26831ZM18.0067 4.29785C17.8444 4.67026 17.6292 5.05846 17.3461 5.34155C17.063 5.62464 16.6748 5.83991 16.3024 6.0022C16.6749 6.1645 17.0629 6.38112 17.3461 6.66431C17.629 6.9473 17.8445 7.33504 18.0067 7.70728C18.169 7.33484 18.3857 6.94742 18.6688 6.66431C18.9519 6.38119 19.3394 6.16449 19.7118 6.0022C19.3396 5.83996 18.9518 5.62447 18.6688 5.34155C18.3856 5.05836 18.169 4.67038 18.0067 4.29785Z" fill="#001D21" />
</svg>