<svg xmlns="http://www.w3.org/2000/svg" width="24" height="24" viewBox="0 0 24 24" fill="none">
<path fill-rule="evenodd" clip-rule="evenodd" d="M6.189 6.5536C7.65987 5.30689 9.43647 4.60813 11.25 4.45734V5.92666C11.25 6.34099 11.5858 6.67687 12 6.67687C12.4142 6.67687 12.75 6.34099 12.75 5.92666V4.45734C14.5639 4.60816 16.3408 5.30716 17.8119 6.55435L12.9701 11.3975C12.6764 11.2569 12.3474 11.1782 12 11.1782C10.7574 11.1782 9.74997 12.1858 9.74997 13.4288C9.74997 14.6718 10.7574 15.6794 12 15.6794C13.2426 15.6794 14.25 14.6718 14.25 13.4288C14.25 13.0814 14.1713 12.7523 14.0307 12.4585L18.8725 7.61529C20.1193 9.08679 20.8181 10.8642 20.9689 12.6786H19.5C19.0858 12.6786 18.75 13.0145 18.75 13.4288C18.75 13.8431 19.0858 14.1791 19.5 14.1791H20.9689C20.8181 15.9935 20.1193 17.7709 18.8725 19.2423L17.8331 18.2026C17.5401 17.9096 17.0653 17.9096 16.7724 18.2026C16.4795 18.4955 16.4795 18.9706 16.7724 19.2635L18.3645 20.856C18.6573 21.149 19.1322 21.149 19.4251 20.856C19.4329 20.8483 19.4405 20.8403 19.4478 20.8323C23.5251 16.7288 23.5173 10.096 19.4246 6.00205C15.3284 1.90462 8.68969 1.90036 4.58819 5.98926L4.57605 6.00114L4.56429 6.01316C0.474877 10.1157 0.478575 16.7576 4.57538 20.8556L4.57638 20.8546L4.57784 20.856C4.87073 21.149 5.34561 21.149 5.6385 20.856L7.23052 19.2635C7.52344 18.9706 7.52344 18.4955 7.23052 18.2026C6.93763 17.9096 6.46276 17.9096 6.16986 18.2026L5.12883 19.244C3.88119 17.7722 3.18195 15.9941 3.03111 14.1791H4.5C4.91421 14.1791 5.25 13.8431 5.25 13.4288C5.25 13.0145 4.91421 12.6786 4.5 12.6786H3.03111C3.18192 10.8638 3.88095 9.08604 5.12821 7.61446L6.16807 8.65456C6.46096 8.94759 6.93584 8.94759 7.22873 8.65456C7.52164 8.36161 7.52164 7.88664 7.22873 7.59361L6.189 6.5536ZM11.25 13.4288C11.25 13.0145 11.5858 12.6786 12 12.6786C12.4142 12.6786 12.75 13.0145 12.75 13.4288C12.75 13.8431 12.4142 14.1791 12 14.1791C11.5858 14.1791 11.25 13.8431 11.25 13.4288Z" fill="#001D21" />
</svg>