<svg xmlns="http://www.w3.org/2000/svg" width="24" height="24" viewBox="0 0 24 24" fill="none">
<path d="M2.78033 1.71967C2.48743 1.42678 2.01257 1.42678 1.71967 1.71967C1.42678 2.01257 1.42678 2.48743 1.71967 2.78033L21.2197 22.2803C21.5126 22.5732 21.9874 22.5732 22.2803 22.2803C22.5732 21.9874 22.5732 21.5126 22.2803 21.2197L2.78033 1.71967Z" fill="#001D21" />
<path d="M19.4246 6.07627C22.6666 9.31927 23.3454 14.1553 21.4608 18.0653L20.3251 16.9296C20.6784 16.0697 20.893 15.1662 20.9689 14.2532H19.5C19.0858 14.2532 18.75 13.9174 18.75 13.503C18.75 13.0887 19.0858 12.7528 19.5 12.7528H20.9689C20.8181 10.9384 20.1193 9.16095 18.8725 7.68952L14.9794 11.5838L13.9185 10.523L17.8119 6.62857C16.3408 5.38138 14.5639 4.68238 12.75 4.53155V6.00087C12.75 6.41521 12.4142 6.75109 12 6.75109C11.5858 6.75109 11.25 6.41521 11.25 6.00087V4.53155C10.3365 4.60751 9.43237 4.82249 8.57197 5.17651L7.43626 4.04078C11.3456 2.15404 16.1818 2.83253 19.4246 6.07627Z" fill="#001D21" />
<path d="M9.85455 12.8223L12.6805 15.6482C12.4657 15.7163 12.2372 15.753 12 15.753C10.7573 15.753 9.75 14.7453 9.75 13.5023C9.75 13.2653 9.7866 13.0368 9.85455 12.8223Z" fill="#001D21" />
<path d="M3.03111 12.7526C3.17434 11.029 3.81208 9.33881 4.94433 7.91253L3.87749 6.8457C0.489821 10.9714 0.722453 17.0755 4.57538 20.9295L4.57638 20.9286L4.57784 20.93C4.87073 21.223 5.34561 21.223 5.6385 20.93L7.23053 19.3375C7.5234 19.0446 7.5234 18.5695 7.23053 18.2766C6.93764 17.9835 6.46276 17.9835 6.16987 18.2766L5.12883 19.3179C3.88118 17.8461 3.18194 16.068 3.03111 14.253H4.5C4.91421 14.253 5.25 13.9171 5.25 13.5027C5.25 13.0884 4.91421 12.7526 4.5 12.7526H3.03111Z" fill="#001D21" />
</svg>