<svg xmlns="http://www.w3.org/2000/svg" width="24" height="24" viewBox="0 0 24 24" fill="none">
<path fill-rule="evenodd" clip-rule="evenodd" d="M11.9998 3.82033L9.84372 8.9074C9.64833 9.36843 9.21381 9.68343 8.71488 9.72576L3.20171 10.1935L7.3899 13.8217C7.76866 14.1498 7.9345 14.6608 7.82065 15.1488L6.56298 20.5399L11.3022 17.6795C11.7312 17.4206 12.2684 17.4206 12.6974 17.6795L17.4366 20.5399L16.1789 15.1488C16.0651 14.6608 16.2309 14.1498 16.6097 13.8217L20.7979 10.1935L15.2847 9.72576C14.7858 9.68343 14.3512 9.36843 14.1558 8.9074L11.9998 3.82033ZM10.7568 2.90913C11.222 1.81154 12.7776 1.81154 13.2428 2.90913L15.5016 8.23878L21.2789 8.72892C22.4688 8.82987 22.9513 10.3125 22.0487 11.0945L17.6603 14.8962L18.9781 20.5453C19.2494 21.7083 17.9882 22.6249 16.9658 22.0078L11.9998 19.0105L7.03373 22.0078C6.01135 22.6249 4.75014 21.7083 5.02144 20.5453L6.33931 14.8962L1.95084 11.0945C1.04824 10.3125 1.53074 8.82987 2.72066 8.72892L8.49795 8.23878L10.7568 2.90913Z" fill="#001D21" />
</svg>