<svg xmlns="http://www.w3.org/2000/svg" width="24" height="24" viewBox="0 0 24 24" fill="none">
<path fill-rule="evenodd" clip-rule="evenodd" d="M12.0097 3.00195C7.02864 3.00195 2.99072 7.03987 2.99072 12.0209C2.99072 17.0019 7.02864 21.0398 12.0097 21.0398C16.9907 21.0398 21.0286 17.0019 21.0286 12.0209C21.0286 7.03987 16.9907 3.00195 12.0097 3.00195ZM1.49072 12.0209C1.49072 6.21144 6.20021 1.50195 12.0097 1.50195C17.8191 1.50195 22.5286 6.21144 22.5286 12.0209C22.5286 17.8303 17.8191 22.5398 12.0097 22.5398C6.20021 22.5398 1.49072 17.8303 1.49072 12.0209Z" fill="#001D21" />
<path d="M10.8381 13.88C10.8381 13.5192 10.9085 13.2112 11.0493 12.956C11.1901 12.692 11.4409 12.406 11.8017 12.098L12.4089 11.5832C12.7169 11.3192 12.9325 11.0772 13.0557 10.8572C13.1789 10.6284 13.2405 10.3688 13.2405 10.0784V9.9068C13.2405 9.5548 13.1393 9.2776 12.9369 9.0752C12.7433 8.864 12.4617 8.7584 12.0921 8.7584C11.3265 8.7584 10.9041 9.216 10.8249 10.1312H9.0033C9.0561 9.3216 9.3333 8.666 9.8349 8.1644C10.3365 7.6628 11.0757 7.412 12.0525 7.412C13.0293 7.412 13.7641 7.6496 14.2569 8.1248C14.7585 8.6 15.0093 9.2248 15.0093 9.9992C15.0093 10.5448 14.8949 11.0068 14.6661 11.3852C14.4373 11.7636 14.0369 12.208 13.4649 12.7184L13.0557 13.088C12.8973 13.2376 12.7961 13.4004 12.7521 13.5764C12.7081 13.7436 12.6861 13.9504 12.6861 14.1968H10.8381V13.88ZM10.8249 15.1736H12.7125V16.9688H10.8249V15.1736Z" fill="#001D21" />
</svg>