<svg xmlns="http://www.w3.org/2000/svg" fill="none" viewBox="0 0 32 32"><path fill="#0D0F13" fill-rule="evenodd" d="M3.708 2.293a1 1 0 0 0-1.415 1.414l26 26a1 1 0 0 0 1.415-1.414l-26-26ZM30 5.208v20.548L28 23.758V5.208a.999.999 0 0 1 1.998 0Zm-4.732 12.628-1.595 1.594-1.413-1.413L23.28 17h-2.038l-1.997-1.997h4.035l-9.303-9.298a.998.998 0 1 1 1.413-1.412l9.878 9.872a2.595 2.595 0 0 1 0 3.672Zm-11.291 8.46 4.04-4.037 1.412 1.412-4.04 4.037a1 1 0 0 1-1.412-1.412Zm-3.218-11.294 1.997 1.996H3a.999.999 0 1 1 0-1.996h7.76Z" clip-rule="evenodd"/></svg>