<svg xmlns="http://www.w3.org/2000/svg" width="24" height="24" viewBox="0 0 24 24" fill="none">
<path fill-rule="evenodd" clip-rule="evenodd" d="M14.9998 11.818V4.54772H14.9976C14.9979 4.5316 14.998 4.51545 14.998 4.49927C14.998 4.48309 14.9979 4.46694 14.9976 4.45082C14.9717 2.81672 13.6395 1.5 11.9998 1.5C10.3601 1.5 9.0279 2.81671 9.00203 4.45081C9.00177 4.46693 9.00164 4.48309 9.00164 4.49927C9.00164 4.51545 9.00177 4.5316 9.00203 4.54772L8.99982 4.54775V5.81799L10.4998 7.31799V6.04772L10.5018 4.52396L10.5016 4.49927C10.5016 3.67073 11.1729 3 11.9998 3C12.8267 3 13.498 3.67073 13.498 4.49927L13.4978 4.52398L13.4998 6.04772V10.318L14.9998 11.818ZM12.5621 9.38031V8.06205C12.5621 7.75139 12.3103 7.49955 11.9996 7.49955C11.689 7.49955 11.4371 7.75139 11.4371 8.06205V8.25531L12.5621 9.38031ZM11.4371 14.6193L12.5621 15.7443V16.6086C13.1119 16.8311 13.4996 17.37 13.4996 17.9995C13.4996 18.828 12.8281 19.4995 11.9996 19.4995C11.1712 19.4995 10.4996 18.828 10.4996 17.9995C10.4996 17.37 10.8874 16.8311 11.4371 16.6086V14.6193ZM10.4998 13.682V14.6458C10.4998 15.0725 10.3181 15.4789 10.0002 15.7635C9.38417 16.3149 9 17.1115 9 17.9997C9 19.6565 10.3431 20.9995 11.9998 20.9995C13.5972 20.9995 14.9029 19.751 14.9945 18.1766L16.2626 19.4447C15.6606 21.2211 13.9795 22.4995 11.9998 22.4995C9.51464 22.4995 7.5 20.4849 7.5 17.9997C7.5 16.6671 8.0793 15.4698 8.99982 14.6458V12.182L10.4998 13.682Z" fill="#001D21" />
<path fill-rule="evenodd" clip-rule="evenodd" d="M1.71967 1.71967C2.01256 1.42678 2.48744 1.42678 2.78033 1.71967L22.2803 21.2197C22.5732 21.5126 22.5732 21.9874 22.2803 22.2803C21.9874 22.5732 21.5126 22.5732 21.2197 22.2803L1.71967 2.78033C1.42678 2.48744 1.42678 2.01256 1.71967 1.71967Z" fill="#001D21" />
</svg>