<svg xmlns="http://www.w3.org/2000/svg" width="24" height="24" viewBox="0 0 24 24" fill="none">
<path fill-rule="evenodd" clip-rule="evenodd" d="M10.0003 15.7638C10.3182 15.4792 10.4999 15.0728 10.4999 14.6461V6.04782L10.5019 4.52403L10.5017 4.49933C10.5017 3.67077 11.173 3.00003 11.9999 3.00003C12.8268 3.00003 13.4981 3.67077 13.4981 4.49933L13.4979 4.52404L13.4999 6.04782V6.04984V14.6461C13.4999 15.0728 13.6816 15.4792 13.9995 15.7638C14.6156 16.3152 14.9998 17.1118 14.9998 18.0001C14.9998 19.6569 13.6567 21 11.9999 21C10.3431 21 9.00003 19.6569 9.00003 18.0001C9.00003 17.1118 9.38421 16.3152 10.0003 15.7638ZM9.00206 4.54778L8.99985 4.54782V14.6461C8.07931 15.4701 7.5 16.6674 7.5 18.0001C7.5 20.4853 9.51468 22.5 11.9999 22.5C14.4851 22.5 16.4998 20.4853 16.4998 18.0001C16.4998 16.6674 15.9205 15.4701 15 14.6461V4.54778H14.9978C14.998 4.53166 14.9981 4.51551 14.9981 4.49933C14.9981 4.48315 14.998 4.46701 14.9978 4.45089C14.9719 2.81674 13.6396 1.5 11.9999 1.5C10.3602 1.5 9.02793 2.81674 9.00206 4.45088C9.0018 4.467 9.00168 4.48315 9.00168 4.49933C9.00168 4.51551 9.0018 4.53166 9.00206 4.54778ZM11.4373 8.06256C11.4373 7.7519 11.6891 7.50005 11.9998 7.50005C12.3105 7.50005 12.5623 7.7519 12.5623 8.06256V16.6093C13.112 16.8318 13.4998 17.3708 13.4998 18.0003C13.4998 18.8287 12.8282 19.5003 11.9998 19.5003C11.1714 19.5003 10.4998 18.8287 10.4998 18.0003C10.4998 17.3708 10.8876 16.8318 11.4373 16.6093V8.06256Z" fill="#001D21" />
</svg>