<svg width="32" height="32" viewBox="0 0 32 32" fill="none" xmlns="http://www.w3.org/2000/svg">
<path fill-rule="evenodd" clip-rule="evenodd" d="M13.9998 8.06459V9.75709L11.9998 7.75709V6.06465L12.0027 6.06459C12.0023 6.0431 12.0022 6.02156 12.0022 6.00001C12.0022 5.9784 12.0023 5.95692 12.0027 5.93537C12.0371 3.7566 13.8134 2.00098 15.9998 2.00098C18.1859 2.00098 19.9622 3.7566 19.9968 5.93543C19.9971 5.95692 19.9973 5.97846 19.9973 6.00001C19.9973 6.02162 19.9971 6.0431 19.9968 6.06459H19.9998V15.7571L17.9998 13.7571V8.06459L17.9971 6.03297L17.9973 6.00001C17.9973 4.89527 17.1023 4.00099 15.9998 4.00099C14.8972 4.00099 14.0022 4.89528 14.0022 6.00001L14.0025 6.03297L13.9998 8.06459Z" fill="#0D0F13"/>
<path fill-rule="evenodd" clip-rule="evenodd" d="M15.9998 28.0004C18.13 28.0004 19.8712 26.3351 19.9926 24.2354L21.6837 25.9264C20.8814 28.2953 18.6397 30.0005 15.9998 30.0005C12.6862 30.0005 9.99996 27.3142 9.99996 24.0006C9.99996 22.2238 10.7724 20.6273 11.9998 19.5287V16.2424L13.9998 18.2424V19.5287C13.9998 20.0976 13.7575 20.6396 13.3336 21.019C12.5122 21.7542 12 22.8163 12 24.0006C12 26.2096 13.7907 28.0004 15.9998 28.0004Z" fill="#0D0F13"/>
<path fill-rule="evenodd" clip-rule="evenodd" d="M15.2495 10.7504C15.2495 10.3362 15.5853 10.0004 15.9995 10.0004C16.4137 10.0004 16.7495 10.3362 16.7495 10.7504V12.5069L15.2495 11.0069V10.7504Z" fill="#0D0F13"/>
<path fill-rule="evenodd" clip-rule="evenodd" d="M15.2495 19.4922L16.7495 20.9922V22.1458C17.4824 22.4424 17.9995 23.161 17.9995 24.0004C17.9995 25.1049 17.1041 26.0004 15.9995 26.0004C14.8949 26.0004 13.9995 25.1049 13.9995 24.0004C13.9995 23.161 14.5166 22.4424 15.2495 22.1458V19.4922Z" fill="#0D0F13"/>
<path fill-rule="evenodd" clip-rule="evenodd" d="M29.7071 28.2929C30.0976 28.6834 30.0976 29.3166 29.7071 29.7071C29.3166 30.0976 28.6834 30.0976 28.2929 29.7071L2.29287 3.7071C1.90237 3.3166 1.90237 2.68342 2.29287 2.29292C2.68338 1.90236 3.31655 1.90236 3.70712 2.29292L29.7071 28.2929Z" fill="#0D0F13"/>
</svg>
