<svg xmlns="http://www.w3.org/2000/svg" fill="none" viewBox="0 0 32 32"><path fill="#0D0F13" d="M26.025 21.757V4a2 2 0 0 0-2-2h-16c-.49 0-.94.177-1.287.47L8.268 4h15.757v15.757l2 2Z"/><path fill="#0D0F13" d="M21.309 17.04c.324.096.58.352.676.677l-.676-.676ZM14.783 19l-2-2h-1.758a1 1 0 1 0 0 2h3.758ZM19.268 15h1.757a1 1 0 1 0 0-2h-3.757l2 2ZM10.742 14.96l-.676-.677c.096.325.352.58.676.676Z"/><path fill="#0D0F13" d="M8.025 12.243V28h15.758l1.53 1.53c-.348.293-.797.47-1.288.47h-16a2 2 0 0 1-2-2V10.243l2 2ZM16.025 11h-.757l-2-2h2.757a1 1 0 1 1 0 2Z"/><path fill="#0D0F13" d="M11.025 21a1 1 0 1 0 0 2h4a1 1 0 1 0 0-2h-4ZM19.025 10a1 1 0 0 1 1-1h1a1 1 0 1 1 0 2h-1a1 1 0 0 1-1-1ZM3.732 2.293a1 1 0 0 0-1.414 1.414l26 26a1 1 0 0 0 1.415-1.414l-26-26Z"/></svg>