<svg width="32" height="32" viewBox="0 0 32 32" fill="none" xmlns="http://www.w3.org/2000/svg">
<path fill-rule="evenodd" clip-rule="evenodd" d="M14.7808 6L13.5085 11.0891C13.4577 11.2924 13.3752 11.4864 13.2642 11.6641L11.1417 15.06C11.0983 15.1296 11.0509 15.1959 11 15.2587V26H21C23.7614 26 26 23.7614 26 21V15C26 14.4477 25.5523 14 25 14H19C17.8954 14 17 13.1046 17 12V8C17 6.89543 16.1046 6 15 6H14.7808ZM21 28H4V14H9.44575L11.5682 10.6041L12.9352 5.1362C13.1021 4.46845 13.7021 4 14.3904 4H15C17.2091 4 19 5.79086 19 8V12H25C26.6569 12 28 13.3431 28 15V21C28 24.866 24.866 28 21 28ZM9 26V16H6V26H9Z" fill="#0D0F13"/>
</svg>
