<svg width="32" height="32" viewBox="0 0 32 32" fill="none" xmlns="http://www.w3.org/2000/svg">
<path fill-rule="evenodd" clip-rule="evenodd" d="M14.7808 26H15C16.1046 26 17 25.1046 17 24V20C17 18.8954 17.8954 18 19 18H25C25.5523 18 26 17.5523 26 17V11C26 8.23857 23.7614 6 21 6H11V16.7413C11.0509 16.8041 11.0983 16.8704 11.1417 16.94L13.2642 20.3359C13.3752 20.5136 13.4577 20.7076 13.5085 20.9109L14.7808 26ZM21 4C24.866 4 28 7.13401 28 11V17C28 18.6569 26.6569 20 25 20H19V24C19 26.2091 17.2091 28 15 28H14.3904C13.7021 28 13.1021 27.5316 12.9352 26.8638L11.5682 21.3959L9.44575 18H4V4H21ZM9 6H6V16H9V6Z" fill="#0D0F13"/>
</svg>
