<svg xmlns="http://www.w3.org/2000/svg" width="24" height="24" viewBox="0 0 24 24" fill="none">
<path fill-rule="evenodd" clip-rule="evenodd" d="M20.8078 6.35883C21.1016 6.65082 21.103 7.1257 20.811 7.41949C18.1899 10.0568 16.0934 12.1511 14.3216 13.9185C13.9997 14.2397 13.6885 14.55 13.3869 14.8507C12.0282 16.2056 10.8637 17.3669 9.7822 18.4546C9.64164 18.596 9.45058 18.6756 9.25122 18.6758C9.05187 18.676 8.86062 18.5969 8.71974 18.4558L3.20393 12.9339C2.9112 12.6409 2.91147 12.166 3.20452 11.8733C3.49758 11.5805 3.97245 11.5808 4.26518 11.8738L9.2495 16.8637C10.1837 15.9266 11.1888 14.9243 12.3287 13.7876C12.6301 13.4871 12.9409 13.1771 13.2623 12.8565C15.0333 11.0898 17.1282 8.99724 19.7471 6.3621C20.0391 6.06831 20.514 6.06684 20.8078 6.35883Z" fill="#001D21" />
</svg>