<svg xmlns="http://www.w3.org/2000/svg" width="24" height="24" viewBox="0 0 24 24" fill="none">
<path fill-rule="evenodd" clip-rule="evenodd" d="M16.2803 10.2803C16.5732 9.98742 16.5732 9.51252 16.2803 9.21965C15.9874 8.92677 15.5125 8.92677 15.2197 9.21972L12.97 11.4695C12.6763 11.3289 12.3473 11.2502 12 11.2502C10.7573 11.2502 9.75 12.2575 9.75 13.5002C9.75 14.7429 10.7573 15.7502 12 15.7502C13.2427 15.7502 14.25 14.7429 14.25 13.5002C14.25 13.1528 14.1712 12.8238 14.0307 12.5301L16.2803 10.2803ZM11.25 13.5002C11.25 13.086 11.5858 12.7502 12 12.7502C12.4142 12.7502 12.75 13.086 12.75 13.5002C12.75 13.9144 12.4142 14.2502 12 14.2502C11.5858 14.2502 11.25 13.9144 11.25 13.5002Z" fill="#001D21" />
<path fill-rule="evenodd" clip-rule="evenodd" d="M9 2.25C9 1.83579 9.33577 1.5 9.75 1.5H14.25C14.6642 1.5 15 1.83579 15 2.25C15 2.66421 14.6642 3 14.25 3H12.75V4.5308C17.3696 4.91192 21 8.78197 21 13.5C21 18.4706 16.9705 22.5 12 22.5C7.02944 22.5 3 18.4706 3 13.5C3 8.78197 6.63035 4.91192 11.25 4.5308V3H9.75C9.33577 3 9 2.66421 9 2.25ZM11.9976 6C7.85655 6.00131 4.5 9.35865 4.5 13.5C4.5 17.6421 7.8579 21 12 21C16.1421 21 19.5 17.6421 19.5 13.5C19.5 9.35857 16.1433 6.00114 12.0021 6H11.9976Z" fill="#001D21" />
</svg>