<svg xmlns="http://www.w3.org/2000/svg" width="24" height="24" viewBox="0 0 24 24" fill="none">
<path fill-rule="evenodd" clip-rule="evenodd" d="M17.3304 4.07991C17.378 4.32454 17.3009 4.57687 17.1247 4.75312L13.4158 8.4621C12.83 9.04785 12.8299 9.9978 13.4161 10.5839C14.0022 11.17 14.9521 11.17 15.5379 10.5842L19.2469 6.87529C19.4231 6.69904 19.6754 6.62197 19.9201 6.66963C20.1647 6.71729 20.3697 6.88347 20.4668 7.11298C21.5058 9.56662 21.0268 12.5123 19.0251 14.5141C17.1523 16.3868 14.4533 16.9267 12.104 16.1377L8.11995 20.1217C6.94873 21.293 5.04979 21.2927 3.87859 20.1215C2.70738 18.9502 2.70701 17.0513 3.87824 15.8801L7.86232 11.896C7.0733 9.54667 7.61317 6.84763 9.48592 4.97488C11.4877 2.97316 14.4334 2.49419 16.887 3.53315C17.1165 3.63034 17.2827 3.83527 17.3304 4.07991ZM15.1783 4.58002C13.5466 4.28965 11.8051 4.77534 10.5457 6.03467C8.99047 7.58992 8.61517 9.88057 9.42435 11.7916C9.54337 12.0727 9.48007 12.3978 9.26422 12.6136L4.93803 16.9399C4.35232 17.5255 4.35226 18.4755 4.93838 19.0616C5.5245 19.6478 6.47446 19.6477 7.06015 19.062L11.3863 14.7358C11.6022 14.5199 11.9273 14.4566 12.2084 14.5756C14.1194 15.3848 16.4101 15.0095 17.9653 13.4542C19.2247 12.1949 19.7104 10.4534 19.42 8.82172L16.5976 11.644C15.4264 12.8152 13.5275 12.8149 12.3563 11.6437C11.185 10.4725 11.1847 8.57355 12.3559 7.40235L15.1783 4.58002Z" fill="#001D21" />
</svg>