<svg xmlns="http://www.w3.org/2000/svg" width="24" height="24" viewBox="0 0 24 24" fill="none">
<path d="M18.4355 15.0398C18.6397 14.8783 18.8367 14.7032 19.0253 14.5145C21.0271 12.5128 21.506 9.56709 20.4671 7.11345C20.3699 6.88393 20.165 6.71776 19.9203 6.67009C19.6757 6.62243 19.4234 6.69951 19.2471 6.87575L15.5381 10.5847C15.2303 10.8926 14.8218 11.0386 14.4185 11.0228L15.6714 12.2758C16.0078 12.1299 16.3229 11.9195 16.5979 11.6445L19.4202 8.82219C19.7106 10.4539 19.2249 12.1954 17.9656 13.4547C17.7761 13.6442 17.5757 13.8162 17.3663 13.9707L18.4355 15.0398Z" fill="#001D21" />
<path d="M9.4194 12.3867C9.38272 12.4695 9.33067 12.5463 9.26422 12.6128L4.93803 16.939C4.35232 17.5247 4.35226 18.4746 4.93838 19.0608C5.5245 19.6469 6.47446 19.6468 7.06015 19.0611L11.3863 14.7349C11.4528 14.6685 11.5297 14.6164 11.6125 14.5797L13.4757 16.443C13.0112 16.3891 12.5512 16.287 12.104 16.1368L8.11995 20.1209C6.94873 21.2922 5.04979 21.2918 3.87859 20.1206C2.70738 18.9493 2.70701 17.0504 3.87824 15.8792L7.86232 11.8951C7.7121 11.4479 7.61002 10.9879 7.55617 10.5234L9.4194 12.3867Z" fill="#001D21" />
<path d="M11.7247 8.32882C11.8705 7.99245 12.0809 7.67737 12.3559 7.40235L15.1783 4.58002C13.5466 4.28965 11.8051 4.77534 10.5457 6.03467C10.3562 6.22418 10.1842 6.4246 10.0297 6.63394L8.96062 5.56474C9.12217 5.36054 9.2973 5.16352 9.48592 4.97488C11.4877 2.97316 14.4334 2.49419 16.887 3.53315C17.1165 3.63034 17.2827 3.83527 17.3304 4.07991C17.378 4.32454 17.3009 4.57688 17.1247 4.75312L13.4158 8.4621C13.1079 8.76997 12.9619 9.17842 12.9776 9.58177L11.7247 8.32882Z" fill="#001D21" />
<path fill-rule="evenodd" clip-rule="evenodd" d="M1.71967 1.71967C2.01257 1.42678 2.48743 1.42678 2.78033 1.71967L22.2803 21.2197C22.5732 21.5126 22.5732 21.9874 22.2803 22.2803C21.9874 22.5732 21.5126 22.5732 21.2197 22.2803L1.71967 2.78033C1.42678 2.48743 1.42678 2.01257 1.71967 1.71967Z" fill="#001D21" />
</svg>