<svg xmlns="http://www.w3.org/2000/svg" width="24" height="24" viewBox="0 0 24 24" fill="none">
<path d="M2.78033 1.71967C2.48744 1.42678 2.01256 1.42678 1.71967 1.71967C1.42678 2.01256 1.42678 2.48744 1.71967 2.78033L21.2197 22.2803C21.5126 22.5732 21.9874 22.5732 22.2803 22.2803C22.5732 21.9874 22.5732 21.5126 22.2803 21.2197L2.78033 1.71967Z" fill="#001D21" />
<path d="M8.06802 11.25L9.56802 12.75H2.25C1.83579 12.75 1.5 12.4142 1.5 12C1.5 11.5858 1.83579 11.25 2.25 11.25H4.5V7.68198L6 9.18198V11.25H8.06802Z" fill="#001D21" />
<path d="M22.5 6C22.5 5.17157 21.8284 4.5 21 4.5H7.68198L9.18198 6H21V11.25H14.432L15.932 12.75H21C21.8284 12.75 22.5 12.0784 22.5 11.25V6Z" fill="#001D21" />
<path d="M21.8199 18.6379C22.2425 18.172 22.5 17.5536 22.5 16.875C22.5 15.4253 21.3247 14.25 19.875 14.25C19.1964 14.25 18.578 14.5075 18.1121 14.9301L19.1757 15.9937C19.3677 15.8411 19.6107 15.75 19.875 15.75C20.4963 15.75 21 16.2537 21 16.875C21 17.1393 20.9089 17.3823 20.7563 17.5743L21.8199 18.6379Z" fill="#001D21" />
<path fill-rule="evenodd" clip-rule="evenodd" d="M7.125 14.25C5.67525 14.25 4.5 15.4253 4.5 16.875C4.5 18.3247 5.67525 19.5 7.125 19.5C8.57475 19.5 9.75 18.3247 9.75 16.875C9.75 15.4253 8.57475 14.25 7.125 14.25ZM6 16.875C6 16.2537 6.50368 15.75 7.125 15.75C7.74632 15.75 8.25 16.2537 8.25 16.875C8.25 17.4963 7.74632 18 7.125 18C6.50368 18 6 17.4963 6 16.875Z" fill="#001D21" />
</svg>