<svg xmlns="http://www.w3.org/2000/svg" width="24" height="24" viewBox="0 0 24 24" fill="none">
<path fill-rule="evenodd" clip-rule="evenodd" d="M6 4.5C5.17157 4.5 4.5 5.17157 4.5 6V11.25H2.25C1.83579 11.25 1.5 11.5858 1.5 12C1.5 12.4142 1.83579 12.75 2.25 12.75H21C21.8284 12.75 22.5 12.0784 22.5 11.25V6C22.5 5.17157 21.8284 4.5 21 4.5H6ZM21 11.25V6H6V11.25H21Z" fill="#001D21" />
<path fill-rule="evenodd" clip-rule="evenodd" d="M4.5 16.875C4.5 15.4253 5.67525 14.25 7.125 14.25C8.57475 14.25 9.75 15.4253 9.75 16.875C9.75 18.3247 8.57475 19.5 7.125 19.5C5.67525 19.5 4.5 18.3247 4.5 16.875ZM7.125 15.75C6.50368 15.75 6 16.2537 6 16.875C6 17.4963 6.50368 18 7.125 18C7.74632 18 8.25 17.4963 8.25 16.875C8.25 16.2537 7.74632 15.75 7.125 15.75Z" fill="#001D21" />
<path fill-rule="evenodd" clip-rule="evenodd" d="M17.25 16.875C17.25 15.4253 18.4253 14.25 19.875 14.25C21.3247 14.25 22.5 15.4253 22.5 16.875C22.5 18.3247 21.3247 19.5 19.875 19.5C18.4253 19.5 17.25 18.3247 17.25 16.875ZM19.875 15.75C19.2537 15.75 18.75 16.2537 18.75 16.875C18.75 17.4963 19.2537 18 19.875 18C20.4963 18 21 17.4963 21 16.875C21 16.2537 20.4963 15.75 19.875 15.75Z" fill="#001D21" />
</svg>