<svg xmlns="http://www.w3.org/2000/svg" width="24" height="24" viewBox="0 0 24 24" fill="none">
<path fill-rule="evenodd" clip-rule="evenodd" d="M15.7625 3.48139L15.7603 4.53588L21.7645 4.53588C22.1788 4.53588 22.5145 4.87166 22.5145 5.28588C22.5145 5.70009 22.1788 6.03588 21.7645 6.03588L20.845 6.03587L18.1789 19.4024C17.997 20.3144 17.1965 20.971 16.2666 20.971H7.73798C6.80412 20.971 6.00136 20.3089 5.82362 19.3921L3.22499 5.98801L2.23242 5.98801C1.81821 5.98801 1.48242 5.65223 1.48242 5.23801C1.48242 4.8238 1.81821 4.48801 2.23242 4.48801L8.22454 4.48802L8.22668 3.47323C8.22895 2.39788 9.10133 1.52734 10.1767 1.52734H13.8125C14.891 1.52734 15.7647 2.40286 15.7625 3.48139ZM10.1767 3.02734H13.8125C14.0614 3.02734 14.263 3.22939 14.2625 3.47828L14.2603 4.52992L9.72453 4.49395L9.72668 3.47639C9.7272 3.22824 9.92852 3.02734 10.1767 3.02734ZM4.75292 5.98801L7.2962 19.1066C7.33722 19.3182 7.52247 19.471 7.73798 19.471H16.2666C16.4812 19.471 16.6659 19.3195 16.7079 19.109L19.3154 6.03587L15.0028 6.03585L8.96994 5.98802L4.75292 5.98801Z" fill="#001D21" />
</svg>