<svg xmlns="http://www.w3.org/2000/svg" width="24" height="24" viewBox="0 0 24 24" fill="none">
<path fill-rule="evenodd" clip-rule="evenodd" d="M19.077 15.895L20.876 6H21.75C22.1642 6 22.5 5.66421 22.5 5.25C22.5 4.83579 22.1642 4.5 21.75 4.5H20.2636C20.2541 4.49982 20.2445 4.49982 20.2349 4.5H15.75V3C15.75 2.17157 15.0785 1.5 14.25 1.5H9.75001C8.92156 1.5 8.25001 2.17157 8.25001 3V4.5H7.68196L9.18196 6H19.3515L17.7869 14.605L19.077 15.895ZM14.25 4.5H9.75001V3H14.25V4.5Z" fill="#001D21" />
<path d="M5.05577 8.23841L7.37621 21.0008H16.6243L16.808 19.9906L18.098 21.2806C17.9638 21.9879 17.3454 22.5008 16.6243 22.5008H7.37621C6.65128 22.5008 6.03008 21.9823 5.9004 21.2691L3.19238 6.375L5.05577 8.23841Z" fill="#001D21" />
<path d="M2.81802 6L1.6365 4.81848C1.5505 4.94052 1.5 5.08936 1.5 5.25C1.5 5.66421 1.83579 6 2.25 6H2.81802Z" fill="#001D21" />
<path fill-rule="evenodd" clip-rule="evenodd" d="M1.71967 1.71967C2.01257 1.42678 2.48743 1.42678 2.78033 1.71967L22.2803 21.2197C22.5732 21.5126 22.5732 21.9874 22.2803 22.2803C21.9874 22.5732 21.5126 22.5732 21.2197 22.2803L1.71967 2.78033C1.42678 2.48743 1.42678 2.01257 1.71967 1.71967Z" fill="#001D21" />
</svg>