<svg xmlns="http://www.w3.org/2000/svg" width="24" height="24" viewBox="0 0 24 24" fill="none">
<path fill-rule="evenodd" clip-rule="evenodd" d="M6 4.22635V6H18V4.22568C15.9541 3.31912 13.4577 3 12 3C10.6613 3 8.05856 3.32008 6 4.22635ZM19.5 6V3.75C19.5 3.46592 19.3395 3.20622 19.0854 3.07918C16.6982 1.88555 13.7032 1.5 12 1.5C10.4303 1.5 7.30376 1.88459 4.91459 3.07918C4.6605 3.20622 4.5 3.46592 4.5 3.75V6H3C2.58579 6 2.25 6.33579 2.25 6.75V10.875C2.25 11.2132 2.47637 11.5096 2.80266 11.5986L4.5 12.0615V21.75C4.5 22.1642 4.83579 22.5 5.25 22.5H7.5C7.78408 22.5 8.04378 22.3395 8.17082 22.0854L8.71353 21H15.2865L15.8292 22.0854C15.9562 22.3395 16.2159 22.5 16.5 22.5H18.75C19.1642 22.5 19.5 22.1642 19.5 21.75V12.0615L21.1973 11.5986C21.5236 11.5096 21.75 11.2132 21.75 10.875V6.75C21.75 6.33579 21.4142 6 21 6H19.5ZM18 7.5H6V10.9158L7.32234 11.2764C7.58876 11.3491 7.7937 11.5623 7.85579 11.8314L8.86945 16.2239C9.62329 16.3464 10.8556 16.5 12 16.5C13.1444 16.5 14.3767 16.3464 15.1305 16.2239L16.1442 11.8314C16.2063 11.5623 16.4112 11.3491 16.6777 11.2764L18 10.9158V7.5ZM19.5 10.5067V7.5H20.25V10.3022L19.5 10.5067ZM18 12.4706L17.505 12.6056L16.4808 17.0436C16.4145 17.3309 16.1861 17.5526 15.8971 17.6104C15.2419 17.7415 13.5651 18 12 18C10.4349 18 8.75808 17.7415 8.10291 17.6104C7.81387 17.5526 7.58549 17.3309 7.51921 17.0436L6.49504 12.6056L6 12.4706V21H7.03647L7.57918 19.9146C7.70622 19.6605 7.96592 19.5 8.25 19.5H15.75C16.0341 19.5 16.2938 19.6605 16.4208 19.9146L16.9635 21H18V12.4706ZM4.5 10.5067V7.5H3.75V10.3022L4.5 10.5067Z" fill="#001D21" />
</svg>