<svg xmlns="http://www.w3.org/2000/svg" width="24" height="24" viewBox="0 0 24 24" fill="none">
<path d="M2.78033 1.71967C2.48744 1.42678 2.01256 1.42678 1.71967 1.71967C1.42678 2.01256 1.42678 2.48744 1.71967 2.78033L21.2197 22.2803C21.5126 22.5732 21.9874 22.5732 22.2803 22.2803C22.5732 21.9874 22.5732 21.5126 22.2803 21.2197L2.78033 1.71967Z" fill="#001D21" />
<path fill-rule="evenodd" clip-rule="evenodd" d="M17.9999 14.818L19.4999 16.318V12.0615L21.1973 11.5986C21.5236 11.5096 21.75 11.2132 21.75 10.875V6.75C21.75 6.33579 21.4142 6 21 6H19.4999V3.75C19.4999 3.46592 19.3394 3.20622 19.0853 3.07918C16.6981 1.88555 13.7031 1.5 11.9999 1.5C10.6279 1.5 8.06639 1.79384 5.84753 2.66561L7.0185 3.83658C8.85614 3.22617 10.8746 3 11.9999 3C13.4576 3 15.954 3.31912 17.9999 4.22568V6H9.18201L10.682 7.5H17.9999V10.9158L16.6777 11.2764C16.4112 11.3491 16.2063 11.5623 16.1442 11.8314L15.9322 12.7502L17.1829 14.001L17.505 12.6056L17.9999 12.4706V14.818ZM20.25 10.3022L19.4999 10.5068V7.5H20.25V10.3022Z" fill="#001D21" />
<path d="M6.49504 12.6057L6 12.4707V20.9999H7.03647L7.57918 19.9145C7.70622 19.6604 7.96592 19.4999 8.25 19.4999H15.75C16.0341 19.4999 16.2938 19.6604 16.4208 19.9145L16.9635 20.9999H17.818L19.1815 22.3634C19.0595 22.4494 18.9106 22.4999 18.75 22.4999H16.5C16.2159 22.4999 15.9562 22.3394 15.8292 22.0853L15.2865 20.9999H8.71353L8.17082 22.0853C8.04378 22.3394 7.78408 22.4999 7.5 22.4999H5.25C4.83579 22.4999 4.5 22.1641 4.5 21.7499V12.0616L2.80266 11.5987C2.47637 11.5097 2.25 11.2133 2.25 10.8751V6.75009C2.25 6.39221 2.50067 6.09287 2.836 6.01807L4.31802 7.50009H3.75V10.3023L4.5 10.5068V7.68188L6 9.18188V10.9159L7.32234 11.2765C7.58876 11.3492 7.7937 11.5624 7.85579 11.8315L8.86945 16.224C9.62329 16.3465 10.8556 16.5001 12 16.5001C12.4192 16.5001 12.8503 16.4795 13.2653 16.4473L14.6304 17.8125C13.866 17.9119 12.9139 18.0001 12 18.0001C10.4349 18.0001 8.75808 17.7416 8.10291 17.6105C7.81387 17.5527 7.58549 17.331 7.51921 17.0437L6.49504 12.6057Z" fill="#001D21" />
</svg>