<svg xmlns="http://www.w3.org/2000/svg" width="24" height="24" viewBox="0 0 24 24" fill="none">
<path fill-rule="evenodd" clip-rule="evenodd" d="M12 3C10.3431 3 9 4.34315 9 6V10.5H18C18.8284 10.5 19.5 11.1716 19.5 12V21C19.5 21.8284 18.8284 22.5 18 22.5H6C5.17157 22.5 4.5 21.8284 4.5 21V12C4.5 11.1716 5.17157 10.5 6 10.5H7.5V6C7.5 3.51472 9.51472 1.5 12 1.5C14.4853 1.5 16.5 3.51472 16.5 6C16.5 6.41421 16.1642 6.75 15.75 6.75C15.3358 6.75 15 6.41421 15 6C15 4.34315 13.6569 3 12 3ZM6 12V21H18V12H6Z" fill="#001D21" />
</svg>