<svg xmlns="http://www.w3.org/2000/svg" width="24" height="24" viewBox="0 0 24 24" fill="none">
<path d="M20.1063 3.00781C20.5205 3.00781 20.8563 2.67203 20.8563 2.25781C20.8563 1.8436 20.5205 1.50781 20.1063 1.50781L3.8907 1.50782C3.47649 1.50782 3.1407 1.8436 3.1407 2.25782C3.1407 2.67203 3.47649 3.00782 3.8907 3.00782L20.1063 3.00781Z" fill="#001D21" />
<path d="M20.7903 13.5303C20.4974 13.8232 20.0225 13.8232 19.7296 13.5303L12.7468 6.54749L12.7468 21.7754C12.7468 22.1896 12.411 22.5254 11.9968 22.5254C11.5825 22.5254 11.2468 22.1896 11.2468 21.7754L11.2468 6.54804L4.26446 13.5303C3.97157 13.8232 3.49669 13.8232 3.2038 13.5303C2.91091 13.2374 2.91091 12.7626 3.2038 12.4697L10.6182 5.0553C11.3797 4.29378 12.6144 4.29378 13.3759 5.0553L20.7903 12.4697C21.0832 12.7626 21.0832 13.2374 20.7903 13.5303Z" fill="#001D21" />
</svg>