<svg xmlns="http://www.w3.org/2000/svg" width="24" height="24" viewBox="0 0 24 24" fill="none">
<path fill-rule="evenodd" clip-rule="evenodd" d="M1.5 4.5C1.5 3.67157 2.17157 3 3 3H17.25C17.6642 3 18 3.33579 18 3.75C18 4.16421 17.6642 4.5 17.25 4.5H3V6H19.5C20.3284 6 21 6.67157 21 7.5V9.75C21.8284 9.75 22.5 10.4216 22.5 11.25V14.25C22.5 15.0784 21.8284 15.75 21 15.75V18C21 18.8284 20.3284 19.5 19.5 19.5H3C2.17157 19.5 1.5 18.8284 1.5 18V4.5ZM19.5 15.75H16.5C15.6716 15.75 15 15.0784 15 14.25V11.25C15 10.4216 15.6716 9.75 16.5 9.75H19.5V7.5H3V18H19.5V15.75ZM21 11.25H16.5V14.25H21V11.25Z" fill="#001D21" />
<path d="M18.75 12.75C18.75 13.1642 18.4142 13.5 18 13.5C17.5858 13.5 17.25 13.1642 17.25 12.75C17.25 12.3358 17.5858 12 18 12C18.4142 12 18.75 12.3358 18.75 12.75Z" fill="#001D21" />
</svg>