<svg xmlns="http://www.w3.org/2000/svg" width="24" height="24" viewBox="0 0 24 24" fill="none">
<path fill-rule="evenodd" clip-rule="evenodd" d="M18.318 21L16.818 19.5H5.00835L7.37986 10.0618L6.13791 8.8199L3.54576 19.1362C3.30788 20.0829 4.02754 21 5.00835 21H18.318ZM9.49082 5.80884C9.58991 4.24106 10.8993 3 12.5 3C14.1653 3 15.5152 4.34315 15.5152 6C15.5152 6.54643 15.3684 7.05874 15.1119 7.5H17.3533C18.0451 7.5 18.6481 7.96845 18.8159 8.6362L20.9965 17.3145L18.921 15.239L17.3533 9H12.682L9.49082 5.80884ZM14.0076 6C14.0076 6.82843 13.3326 7.5 12.5 7.5C11.6674 7.5 10.9924 6.82843 10.9924 6C10.9924 5.17157 11.6674 4.5 12.5 4.5C13.3326 4.5 14.0076 5.17157 14.0076 6Z" fill="#001D21" />
<path fill-rule="evenodd" clip-rule="evenodd" d="M2.21967 1.71967C2.51256 1.42678 2.98744 1.42678 3.28033 1.71967L22.7803 21.2197C23.0732 21.5126 23.0732 21.9874 22.7803 22.2803C22.4874 22.5732 22.0126 22.5732 21.7197 22.2803L2.21967 2.78033C1.92678 2.48744 1.92678 2.01256 2.21967 1.71967Z" fill="#001D21" />
</svg>