<svg xmlns="http://www.w3.org/2000/svg" width="24" height="24" viewBox="0 0 24 24" fill="none">
<path fill-rule="evenodd" clip-rule="evenodd" d="M14.6114 7.5C14.868 7.05874 15.0148 6.54643 15.0148 6C15.0148 4.34315 13.6649 3 11.9996 3C10.3344 3 8.98441 4.34315 8.98441 6C8.98441 6.54643 9.13124 7.05874 9.38779 7.5H7.1467C6.45491 7.5 5.85189 7.96845 5.6841 8.6362L3.04579 19.1362C2.80791 20.0829 3.52757 21 4.50838 21H19.4916C20.4725 21 21.1921 20.0829 20.9542 19.1362L18.3159 8.6362C18.1481 7.96845 17.5451 7.5 16.8533 7.5H14.6114ZM13.5072 6C13.5072 6.82843 12.8322 7.5 11.9996 7.5C11.167 7.5 10.492 6.82843 10.492 6C10.492 5.17157 11.167 4.5 11.9996 4.5C12.8322 4.5 13.5072 5.17157 13.5072 6ZM19.4916 19.5L16.8533 9H7.1467L4.50838 19.5H19.4916Z" fill="#001D21" />
</svg>