<svg xmlns="http://www.w3.org/2000/svg" width="24" height="24" viewBox="0 0 24 24" fill="none">
<path d="M13.2757 10.0961C15.1449 10.3618 16.9468 11.2134 18.3845 12.6512C18.6774 12.944 19.1523 12.944 19.4452 12.6512C19.738 12.3583 19.738 11.8834 19.4452 11.5905C17.3104 9.45572 14.4871 8.42897 11.6899 8.51034L13.2757 10.0961Z" fill="#001D21" />
<path d="M9.43342 6.25327C13.5644 5.4287 18.0175 6.6175 21.2197 9.81967C21.5126 10.1125 21.9874 10.1125 22.2804 9.81967C22.5733 9.5268 22.5733 9.0519 22.2804 8.75902C18.4624 4.94099 13.0494 3.68998 8.18617 5.006L9.43342 6.25327Z" fill="#001D21" />
<path d="M3.82661 7.00977L4.90871 8.09185C4.15394 8.58167 3.43871 9.15745 2.77691 9.81925C2.48402 10.1121 2.00914 10.1121 1.71625 9.81925C1.42336 9.52637 1.42336 9.05148 1.71625 8.7586C2.3758 8.09905 3.08294 7.51608 3.82661 7.00977Z" fill="#001D21" />
<path d="M6.73045 9.91406L7.83527 11.0189C7.03483 11.4348 6.28361 11.9785 5.61187 12.6503C5.31898 12.9432 4.84411 12.9432 4.55121 12.6503C4.25832 12.3574 4.25832 11.8825 4.55121 11.5896C5.21776 10.9231 5.95142 10.3646 6.73045 9.91406Z" fill="#001D21" />
<path d="M9.72577 12.9102C8.86837 13.2273 8.06422 13.7303 7.37543 14.419C7.08254 14.7119 7.08254 15.1868 7.37543 15.4797C7.66829 15.7725 8.1432 15.7725 8.43607 15.4797C9.14722 14.7686 10.018 14.3145 10.933 14.1174L9.72577 12.9102Z" fill="#001D21" />
<path d="M11.9982 19.4999C12.8267 19.4999 13.4982 18.8283 13.4982 17.9998C13.4982 17.1715 12.8267 16.4998 11.9982 16.4998C11.1698 16.4998 10.4982 17.1715 10.4982 17.9998C10.4982 18.8283 11.1698 19.4999 11.9982 19.4999Z" fill="#001D21" />
<path fill-rule="evenodd" clip-rule="evenodd" d="M1.71967 1.71967C2.01257 1.42678 2.48743 1.42678 2.78033 1.71967L22.2803 21.2197C22.5732 21.5126 22.5732 21.9874 22.2803 22.2803C21.9874 22.5732 21.5126 22.5732 21.2197 22.2803L1.71967 2.78033C1.42678 2.48743 1.42678 2.01257 1.71967 1.71967Z" fill="#001D21" />
</svg>