<svg xmlns="http://www.w3.org/2000/svg" width="24" height="24" viewBox="0 0 24 24" fill="none">
<path d="M13.5 17.9998C13.5 18.8283 12.8284 19.4999 12 19.4999C11.1716 19.4999 10.5 18.8283 10.5 17.9998C10.5 17.1715 11.1716 16.4998 12 16.4998C12.8284 16.4998 13.5 17.1715 13.5 17.9998Z" fill="#001D21" />
<path fill-rule="evenodd" clip-rule="evenodd" d="M21.2215 9.81967C16.1287 4.72677 7.8714 4.72677 2.7785 9.81967C2.4856 10.1125 2.01073 10.1125 1.71784 9.81967C1.42495 9.5268 1.42495 9.0519 1.71784 8.75903C7.39653 3.08033 16.6035 3.08033 22.2822 8.75903C22.5751 9.0519 22.5751 9.5268 22.2822 9.81967C21.9893 10.1125 21.5144 10.1125 21.2215 9.81967Z" fill="#001D21" />
<path fill-rule="evenodd" clip-rule="evenodd" d="M15.5624 15.4794C13.5951 13.5121 10.4054 13.5121 8.43807 15.4794C8.14512 15.7723 7.67029 15.7723 7.37739 15.4794C7.08449 15.1865 7.08449 14.7116 7.37739 14.4188C9.93049 11.8656 14.0699 11.8656 16.623 14.4188C16.9159 14.7116 16.9159 15.1865 16.623 15.4794C16.3302 15.7723 15.8553 15.7723 15.5624 15.4794Z" fill="#001D21" />
<path fill-rule="evenodd" clip-rule="evenodd" d="M18.3863 12.6511C14.8593 9.12411 9.14084 9.12411 5.61383 12.6511C5.32093 12.944 4.84606 12.944 4.55316 12.6511C4.26027 12.3583 4.26027 11.8834 4.55316 11.5905C8.66601 7.47765 15.3342 7.47765 19.447 11.5905C19.7399 11.8834 19.7399 12.3583 19.447 12.6511C19.1541 12.944 18.6793 12.944 18.3863 12.6511Z" fill="#001D21" />
</svg>