<svg width="32" height="32" viewBox="0 0 32 32" fill="none" xmlns="http://www.w3.org/2000/svg">
<path fill-rule="evenodd" clip-rule="evenodd" d="M3.7325 2.29289C3.34198 1.90237 2.70881 1.90237 2.31829 2.29289C1.92776 2.68342 1.92776 3.31658 2.31829 3.70711L28.3183 29.7071C28.7088 30.0976 29.342 30.0976 29.7325 29.7071C30.123 29.3166 30.123 28.6834 29.7325 28.2929L3.7325 2.29289ZM30.0254 24C30.0254 24.4905 29.8488 24.9398 29.5558 25.2877L28.0254 23.7574V10H23.5325H19.5325H14.2681L10.2681 6H12.4549C13.0071 6 13.4549 6.44772 13.4549 7V8H18.5325V7C18.5325 6.44772 18.9802 6 19.5325 6H23.5325C24.0848 6 24.5325 6.44772 24.5325 7V8H28.0254C29.13 8 30.0254 8.89543 30.0254 10V24ZM13.7412 17.9584L11.7828 16H11.4549V15.6721L9.49643 13.7137C9.46937 13.8044 9.45484 13.9005 9.45484 14V16H7.45484C6.90255 16 6.45484 16.4477 6.45484 17C6.45484 17.5523 6.90255 18 7.45484 18H9.45484V20C9.45484 20.5523 9.90258 21 10.4549 21C11.0071 21 11.4549 20.5523 11.4549 20V18H13.4549C13.5544 18 13.6505 17.9855 13.7412 17.9584ZM4.02539 10H5.78275L3.79579 8.01304C2.79936 8.12693 2.02539 8.97308 2.02539 10V24C2.02539 25.1046 2.92082 26 4.02539 26H21.7828L19.7828 24H4.02539V10ZM24.5325 18H22.2681L20.2681 16H24.5325C25.0848 16 25.5325 16.4477 25.5325 17C25.5325 17.5523 25.0848 18 24.5325 18Z" fill="#0D0F13"/>
</svg>
