<svg width="32" height="32" viewBox="0 0 32 32" fill="none" xmlns="http://www.w3.org/2000/svg">
<path fill-rule="evenodd" clip-rule="evenodd" d="M7.45483 7C7.45483 6.44772 7.90254 6 8.45483 6H12.4548C13.0071 6 13.4548 6.44772 13.4548 7V8H18.5324V7C18.5324 6.44772 18.9802 6 19.5324 6H23.5324C24.0847 6 24.5324 6.44772 24.5324 7V8H28.0254C29.1299 8 30.0254 8.89543 30.0254 10V24C30.0254 25.1046 29.1299 26 28.0254 26H4.02539C2.92082 26 2.02539 25.1046 2.02539 24V10C2.02539 8.89543 2.92082 8 4.02539 8H7.45483V7ZM23.5324 10H19.5324H12.4548H8.45483H4.02539V24H28.0254V10H23.5324ZM17.5324 17C17.5324 16.4477 17.9802 16 18.5324 16H24.5324C25.0847 16 25.5324 16.4477 25.5324 17C25.5324 17.5523 25.0847 18 24.5324 18H18.5324C17.9802 18 17.5324 17.5523 17.5324 17ZM7.45483 16C6.90254 16 6.45483 16.4477 6.45483 17C6.45483 17.5523 6.90254 18 7.45483 18H9.45483V20C9.45483 20.5523 9.90253 21 10.4548 21C11.0071 21 11.4548 20.5523 11.4548 20V18H13.4548C14.0071 18 14.4548 17.5523 14.4548 17C14.4548 16.4477 14.0071 16 13.4548 16H11.4548V14C11.4548 13.4477 11.0071 13 10.4548 13C9.90253 13 9.45483 13.4477 9.45483 14V16H7.45483Z" fill="#0D0F13"/>
</svg>
