<svg xmlns="http://www.w3.org/2000/svg" fill="none" viewBox="0 0 32 32"><path fill="#0D0F13" fill-rule="evenodd" d="M3.732 2.293a1 1 0 0 0-1.414 1.414l26 26a1 1 0 0 0 1.415-1.414l-26-26ZM30.026 24c0 .49-.176.94-.47 1.288l-1.53-1.53V10H14.268l-4-4h2.187a1 1 0 0 1 1 1v1h5.077V7a1 1 0 0 1 1-1h4a1 1 0 0 1 1 1v1h3.493a2 2 0 0 1 2 2v14Zm-16.284-6.042L11.783 16h-.328v-.328l-1.959-1.958a1 1 0 0 0-.041.286v2h-2a1 1 0 1 0 0 2h2v2a1 1 0 0 0 2 0v-2h2c.1 0 .195-.015.286-.042ZM4.025 10h1.758L3.796 8.013A2 2 0 0 0 2.026 10v14a2 2 0 0 0 2 2h17.757l-2-2H4.025V10Zm20.507 8h-2.264l-2-2h4.264a1 1 0 1 1 0 2Z" clip-rule="evenodd"/></svg>