<svg width="32" height="32" viewBox="0 0 32 32" fill="none" xmlns="http://www.w3.org/2000/svg">
<path fill-rule="evenodd" clip-rule="evenodd" d="M23.9375 26.5C26.4317 24.2985 28 21.0832 28 17.5C28 14.649 27.0058 12.0302 25.3451 9.97146L18.7076 16.6089C18.895 17.0006 19 17.4392 19 17.9023C19 19.5592 17.6569 20.9023 16 20.9023C14.3431 20.9023 13 19.5592 13 17.9023C13 16.2455 14.3431 14.9023 16 14.9023C16.4631 14.9023 16.9018 15.0073 17.2934 15.1947L23.9643 8.52379C21.8456 6.64254 19.0562 5.5 16 5.5C9.37258 5.5 4 10.8726 4 17.5C4 21.0832 5.56826 24.2985 8.06248 26.5H23.9375ZM24.9309 28.2819C24.758 28.4253 24.539 28.5 24.3144 28.5H7.68562C7.46097 28.5 7.24204 28.4253 7.06912 28.2819C3.97237 25.714 2 21.8373 2 17.5C2 9.76801 8.26801 3.5 16 3.5C23.732 3.5 30 9.76801 30 17.5C30 21.8373 28.0276 25.714 24.9309 28.2819ZM15 17.9023C15 17.3501 15.4477 16.9023 16 16.9023C16.5523 16.9023 17 17.3501 17 17.9023C17 18.4546 16.5523 18.9023 16 18.9023C15.4477 18.9023 15 18.4546 15 17.9023ZM16.4978 6.91837C16.2046 6.62577 15.7297 6.62625 15.4371 6.91944C15.1445 7.21263 15.145 7.6875 15.4382 7.9801L16.0109 8.55172C15.3973 8.53323 14.7822 8.58616 14.1781 8.7104C13.1601 8.9198 12.1932 9.32766 11.3328 9.91071C10.4723 10.4938 9.73515 11.2406 9.16333 12.1085C8.59151 12.9765 8.19624 13.9486 8.0001 14.9693C7.9089 15.4438 8.21968 15.9025 8.69425 15.9937C9.16882 16.0849 9.62746 15.7741 9.71865 15.2995C9.87143 14.5045 10.1793 13.7473 10.6247 13.0713C11.0701 12.3953 11.6443 11.8136 12.3145 11.3594C12.9847 10.9053 13.7377 10.5876 14.5307 10.4245C15.0962 10.3082 15.674 10.2722 16.2473 10.3164L15.441 11.1243C15.1484 11.4175 15.1489 11.8924 15.4421 12.185C15.7353 12.4776 16.2102 12.4771 16.5028 12.1839L18.6028 10.0797C18.6629 10.0194 18.7106 9.95157 18.746 9.87919C18.8832 9.599 18.8352 9.25106 18.602 9.01838L16.4978 6.91837Z" fill="black"/>
</svg>
