<svg width="32" height="32" viewBox="0 0 32 32" fill="none" xmlns="http://www.w3.org/2000/svg">
<path fill-rule="evenodd" clip-rule="evenodd" d="M3.70711 2.29289C3.31658 1.90237 2.68342 1.90237 2.29289 2.29289C1.90237 2.68342 1.90237 3.31658 2.29289 3.70711L28.2929 29.7071C28.6834 30.0976 29.3166 30.0976 29.7071 29.7071C30.0976 29.3166 30.0976 28.6834 29.7071 28.2929L3.70711 2.29289ZM30 17.5C30 19.8884 29.4019 22.1372 28.3473 24.1046L26.8585 22.6159C27.591 21.0639 28 19.3299 28 17.5C28 14.649 27.0058 12.0302 25.3451 9.97146L19.7796 15.537L18.3654 14.1227L23.9643 8.52379C21.8456 6.64254 19.0562 5.5 16 5.5C14.1703 5.5 12.4362 5.9095 10.8845 6.64185L9.39535 5.15271C11.3628 4.09811 13.6116 3.5 16 3.5C23.732 3.5 30 9.76801 30 17.5ZM13.06 17.3026L16.5997 20.8424C16.406 20.8817 16.2054 20.9023 16 20.9023C14.3431 20.9023 13 19.5592 13 17.9023C13 17.697 13.0206 17.4964 13.06 17.3026ZM15.441 11.1243C15.4286 11.1368 15.4167 11.1496 15.4053 11.1627L16.4633 12.2207C16.4768 12.209 16.49 12.1967 16.5028 12.1839L18.6028 10.0797C18.6629 10.0194 18.7106 9.95157 18.746 9.87919C18.8832 9.599 18.8352 9.25106 18.602 9.01838L16.4978 6.91837C16.2046 6.62577 15.7297 6.62625 15.4371 6.91944C15.1445 7.21263 15.145 7.6875 15.4382 7.9801L16.0109 8.55172C15.3973 8.53323 14.7822 8.58616 14.1781 8.7104C13.8513 8.77763 13.5298 8.8653 13.2153 8.97266L14.6448 10.4022C15.1738 10.3037 15.7125 10.2751 16.2473 10.3164L15.441 11.1243ZM10.0156 14.2582L8.6892 12.9318C8.36852 13.5751 8.1363 14.2605 8.0001 14.9693C7.9089 15.4438 8.21968 15.9025 8.69425 15.9937C9.16882 16.0849 9.62746 15.7741 9.71865 15.2995C9.78706 14.9435 9.88656 14.5951 10.0156 14.2582ZM4 17.5C4 14.8863 4.83563 12.4677 6.2543 10.4969L4.82406 9.0667C3.05136 11.4122 2 14.3333 2 17.5C2 21.8373 3.97237 25.714 7.06912 28.2819C7.24204 28.4253 7.46097 28.5 7.68562 28.5H24.2574L22.2574 26.5H8.06248C5.56826 24.2985 4 21.0832 4 17.5Z" fill="#0D0F13"/>
</svg>
