<svg width="32" height="32" viewBox="0 0 32 32" fill="none" xmlns="http://www.w3.org/2000/svg">
<path d="M8.06251 26.5H22.2574L24.2574 28.5H7.68562C7.46101 28.5 7.24208 28.4253 7.0691 28.2819C3.97236 25.714 2.00001 21.8373 2.00001 17.5C2.00001 14.3333 3.05134 11.4122 4.82405 9.06673L6.25429 10.4969C4.83564 12.4677 4.00001 14.8863 4.00001 17.5C4.00001 21.0832 5.56825 24.2985 8.06251 26.5Z" fill="#0D0F13"/>
<path d="M3.7071 2.29293L29.7071 28.2929C30.0976 28.6834 30.0976 29.3166 29.7071 29.7071C29.3166 30.0976 28.6834 30.0976 28.2929 29.7071L2.29292 3.70711C1.90236 3.31661 1.90236 2.68343 2.29292 2.29293C2.68342 1.90236 3.3166 1.90236 3.7071 2.29293Z" fill="#0D0F13"/>
<path d="M16 5.50002C14.1703 5.50002 12.4362 5.9095 10.8845 6.64187L9.39533 5.15273C11.3628 4.0981 13.6116 3.50002 16 3.50002C23.732 3.50002 30 9.76803 30 17.5C30 19.8884 29.4019 22.1372 28.3473 24.1046L26.8585 22.6159C27.591 21.0639 28 19.3299 28 17.5C28 14.649 27.0058 12.0302 25.3451 9.97146L19.7796 15.537L18.3654 14.1227L23.9643 8.52382C21.8456 6.64254 19.0562 5.50002 16 5.50002Z" fill="#0D0F13"/>
<path d="M15.4053 11.1627C15.4167 11.1496 15.4286 11.1368 15.441 11.1243L16.2473 10.3164C15.7125 10.2751 15.1738 10.3037 14.6448 10.4022L13.2153 8.97268C13.5298 8.86532 13.8513 8.77767 14.1781 8.71041C14.7822 8.5862 15.3973 8.53322 16.0109 8.55172L15.4382 7.98012C15.145 7.68752 15.1445 7.21266 15.4371 6.91945C15.7297 6.62624 16.2046 6.62581 16.4978 6.91841L18.602 9.01839C18.8352 9.25106 18.8832 9.59902 18.746 9.87923C18.7106 9.95162 18.6629 10.0194 18.6028 10.0797L16.5028 12.1839C16.49 12.1967 16.4768 12.209 16.4633 12.2207L15.4053 11.1627Z" fill="#0D0F13"/>
<path d="M16.5997 20.8424C16.406 20.8817 16.2054 20.9023 16 20.9023C14.3431 20.9023 13 19.5592 13 17.9023C13 17.697 13.0206 17.4964 13.06 17.3026L16.5997 20.8424Z" fill="#0D0F13"/>
<path d="M8.69428 15.9937C8.21967 15.9025 7.90888 15.4438 8.00013 14.9693C8.1363 14.2605 8.36854 13.5751 8.68922 12.9318L10.0156 14.2582C9.88655 14.5951 9.78706 14.9435 9.71864 15.2995C9.62745 15.7741 9.16883 16.0849 8.69428 15.9937Z" fill="#0D0F13"/>
</svg>
