<svg width="32" height="32" viewBox="0 0 32 32" fill="none" xmlns="http://www.w3.org/2000/svg">
<path d="M10.4445 27.8238H12.2288L9.39977 19.4893H6.82901L4 27.8238H5.71384L6.30077 26.0395H9.85758L10.4445 27.8238ZM6.74684 24.6895L8.08504 20.6045L9.42325 24.6895H6.74684Z" fill="#0D0F13"/>
<path d="M17.4192 19.1841V22.107C16.9849 21.661 16.3979 21.4027 15.6349 21.4027C13.8037 21.4027 12.7824 22.7644 12.7824 24.6895C12.7824 26.6264 13.8037 27.9998 15.6349 27.9998C16.4566 27.9998 17.0788 27.6946 17.5131 27.1781V27.8238H19.0626V19.1841H17.4192ZM15.9988 26.7438C15.0715 26.7438 14.4728 26.016 14.4728 24.8187V24.5604C14.4728 23.3513 15.0715 22.6588 15.9988 22.6588C16.8909 22.6588 17.4427 23.2457 17.4427 24.1378V25.2413C17.4427 26.1099 16.8909 26.7438 15.9988 26.7438Z" fill="#0D0F13"/>
<path d="M26.5209 23.4805C27.1196 23.2692 27.7183 22.694 27.7183 21.6962C27.7183 20.2406 26.5327 19.4893 25.171 19.4893H20.8042V27.8238H25.4762C26.9435 27.8238 28 26.9199 28 25.4526C28 24.3139 27.2722 23.727 26.5209 23.4805ZM24.7836 20.8158C25.4292 20.8158 25.981 21.0858 25.981 21.7784V21.9427C25.981 22.647 25.4175 22.9405 24.7719 22.9405H22.5298V20.8158H24.7836ZM26.2392 25.4526C26.2392 26.2273 25.6523 26.4973 24.9832 26.4973H22.5298V24.2317H24.9832C25.6523 24.2317 26.2392 24.5369 26.2392 25.3V25.4526Z" fill="#0D0F13"/>
<path fill-rule="evenodd" clip-rule="evenodd" d="M15.4894 4.14009C15.5288 4.11651 15.723 4 16.0002 4C16.2773 4 16.4715 4.11651 16.5109 4.14009L16.5134 4.14159C16.5805 4.18166 16.6282 4.22098 16.6496 4.23916C16.6951 4.27785 16.7273 4.31244 16.7386 4.32458C16.7658 4.35401 16.7869 4.38021 16.7956 4.39116C16.8169 4.41775 16.838 4.44609 16.855 4.4694C16.8914 4.51911 16.9382 4.58537 16.9921 4.66335C17.1011 4.82094 17.251 5.04365 17.4278 5.31424C17.7811 5.85529 18.2483 6.59812 18.7152 7.40762C19.1804 8.21399 19.6552 9.10348 20.0167 9.93413C20.3606 10.7243 20.6668 11.6023 20.6668 12.3333C20.6668 14.9107 18.5775 17 16.0002 17C13.4228 17 11.3335 14.9106 11.3335 12.3333C11.3335 11.6023 11.6398 10.7243 11.9837 9.93413C12.3452 9.10349 12.82 8.21399 13.2851 7.40762C13.752 6.59812 14.2192 5.85529 14.5725 5.31425C14.7493 5.04365 14.8992 4.82095 15.0082 4.66335C15.0621 4.58537 15.1089 4.51911 15.1453 4.4694C15.1623 4.44609 15.1834 4.41776 15.2047 4.39116C15.2134 4.38022 15.2345 4.35401 15.2617 4.32458C15.273 4.31244 15.3052 4.27785 15.3507 4.23916C15.3721 4.22098 15.4198 4.18166 15.4869 4.1416L15.4894 4.14009ZM13.8175 10.7322C13.4804 11.5069 13.3335 12.0519 13.3335 12.3333C13.3335 13.8061 14.5274 15 16.0002 15C17.4729 15 18.6668 13.8061 18.6668 12.3333C18.6668 12.0519 18.5199 11.5069 18.1828 10.7322C17.8633 9.99805 17.4292 9.18077 16.9828 8.40694C16.6396 7.81197 16.295 7.25269 16.0002 6.79047C15.7053 7.25269 15.3607 7.81196 15.0175 8.40693C14.5712 9.18077 14.1371 9.99804 13.8175 10.7322Z" fill="#0D0F13"/>
</svg>
