<svg width="32" height="32" viewBox="0 0 32 32" fill="none" xmlns="http://www.w3.org/2000/svg">
<path fill-rule="evenodd" clip-rule="evenodd" d="M25.9037 21.3763C25.8191 21.1825 25.67 21.0444 25.4812 20.9538L24.0167 19.4893H25.171C26.5327 19.4893 27.7183 20.2406 27.7183 21.6962C27.7183 22.1738 27.5811 22.5546 27.3723 22.845L25.9037 21.3763Z" fill="#0D0F13"/>
<path fill-rule="evenodd" clip-rule="evenodd" d="M17.4192 22.1073V21.3774L19.0626 23.0208V27.8241H17.5131V27.1784C17.0788 27.6949 16.4566 28.0001 15.6349 28.0001C13.8037 28.0001 12.7824 26.6267 12.7824 24.6898C12.7824 22.7647 13.8037 21.403 15.6349 21.403C16.3979 21.403 16.9848 21.6613 17.4192 22.1073ZM17.4426 25.2416V24.1381C17.4426 23.246 16.8909 22.6591 15.9987 22.6591C15.0714 22.6591 14.4727 23.3516 14.4727 24.5607V24.819C14.4727 26.0163 15.0714 26.7441 15.9987 26.7441C16.8909 26.7441 17.4426 26.1102 17.4426 25.2416Z" fill="#0D0F13"/>
<path fill-rule="evenodd" clip-rule="evenodd" d="M15.0175 8.40693C14.762 8.84992 14.5105 9.3072 14.2822 9.75489L12.8011 8.27381C12.9601 7.97901 13.1232 7.6883 13.2851 7.4076C13.752 6.59815 14.2191 5.85529 14.5725 5.31428C14.7493 5.04365 14.8992 4.82093 15.0081 4.66334C15.062 4.5854 15.1089 4.51911 15.1453 4.46943C15.1623 4.44611 15.1834 4.41779 15.2047 4.39118C15.2134 4.38025 15.2345 4.35401 15.2617 4.32459C15.273 4.31244 15.3052 4.27784 15.3507 4.23914C15.372 4.22101 15.4198 4.18164 15.4869 4.14161L15.4894 4.14008C15.5288 4.11653 15.723 4.00001 16.0001 4.00001C16.2772 4.00001 16.4715 4.11653 16.5108 4.14009L16.5134 4.14162C16.5805 4.18166 16.6281 4.22103 16.6496 4.23915C16.6951 4.27785 16.7273 4.31245 16.7385 4.3246C16.7658 4.35402 16.7869 4.3802 16.7956 4.39119C16.8169 4.41774 16.838 4.44612 16.8549 4.46944C16.8914 4.51912 16.9381 4.58541 16.9921 4.66335C17.101 4.82094 17.2509 5.04366 17.4278 5.31429C17.7811 5.85531 18.2483 6.59816 18.7152 7.40761C19.1803 8.21401 19.6551 9.10347 20.0166 9.93416C20.3606 10.7243 20.6668 11.6023 20.6668 12.3333C20.6668 13.4027 20.3072 14.388 19.7022 15.1749L18.2664 13.7392C18.5203 13.3311 18.6668 12.8493 18.6668 12.3333C18.6668 12.0519 18.5199 11.5069 18.1828 10.7322C17.8632 9.99806 17.429 9.1808 16.9828 8.40693C16.6396 7.81196 16.2949 7.25269 16.0001 6.79047C15.7053 7.2527 15.3607 7.81196 15.0175 8.40693Z" fill="#0D0F13"/>
<path fill-rule="evenodd" clip-rule="evenodd" d="M22.5298 26.4974H22.5394L23.8659 27.8239H20.8042V24.7622L22.5298 26.4878V26.4974Z" fill="#0D0F13"/>
<path fill-rule="evenodd" clip-rule="evenodd" d="M6.82901 19.4893H9.39975L12.2288 27.8238H10.4445L9.85757 26.0395H6.30075L5.71384 27.8238H3.99996L6.82901 19.4893ZM6.7468 24.6895H9.42324L8.08499 20.6045L6.7468 24.6895Z" fill="#0D0F13"/>
<path fill-rule="evenodd" clip-rule="evenodd" d="M29.7071 28.2929C30.0976 28.6834 30.0976 29.3166 29.7071 29.7071C29.3166 30.0976 28.6834 30.0976 28.2929 29.7071L2.29287 3.7071C1.90237 3.3166 1.90237 2.68342 2.29287 2.29292C2.68338 1.90236 3.31655 1.90236 3.70705 2.29292L29.7071 28.2929Z" fill="#0D0F13"/>
</svg>
