<svg width="32" height="32" viewBox="0 0 32 32" fill="none" xmlns="http://www.w3.org/2000/svg">
<path fill-rule="evenodd" clip-rule="evenodd" d="M6.82904 19.4893H9.39978L12.2288 27.8238H10.4445L9.85761 26.0395H6.30078L5.71387 27.8238H4L6.82904 19.4893ZM6.74683 24.6895H9.42328L8.08502 20.6045L6.74683 24.6895Z" fill="#0D0F13"/>
<path fill-rule="evenodd" clip-rule="evenodd" d="M17.4192 22.107V19.1841H19.0626V27.8238H17.5131V27.1781C17.0788 27.6946 16.4566 27.9998 15.6349 27.9998C13.8037 27.9998 12.7824 26.6264 12.7824 24.6895C12.7824 22.7644 13.8037 21.4027 15.6349 21.4027C16.3979 21.4027 16.9849 21.661 17.4192 22.107ZM17.4427 25.2413V24.1378C17.4427 23.2457 16.8909 22.6588 15.9988 22.6588C15.0715 22.6588 14.4728 23.3513 14.4728 24.5604V24.8187C14.4728 26.016 15.0715 26.7438 15.9988 26.7438C16.8909 26.7438 17.4427 26.1099 17.4427 25.2413Z" fill="#0D0F13"/>
<path fill-rule="evenodd" clip-rule="evenodd" d="M26.5209 23.4805C27.2722 23.727 28 24.3139 28 25.4526C28 26.9199 26.9435 27.8238 25.4762 27.8238H20.8042V19.4893H25.171C26.5327 19.4893 27.7183 20.2406 27.7183 21.6962C27.7183 22.694 27.1196 23.2692 26.5209 23.4805ZM22.5298 20.8158V22.9405H24.7719C25.4175 22.9405 25.981 22.647 25.981 21.9427V21.7784C25.981 21.0858 25.4292 20.8158 24.7836 20.8158L22.5298 20.8158ZM26.2392 25.4526V25.3C26.2392 24.5369 25.6523 24.2317 24.9832 24.2317H22.5298V26.4973H24.9832C25.6523 26.4973 26.2392 26.2273 26.2392 25.4526Z" fill="#0D0F13"/>
<path fill-rule="evenodd" clip-rule="evenodd" d="M18.7152 7.40759C19.1804 8.21399 19.6552 9.10345 20.0167 9.93414C20.3606 10.7243 20.6668 11.6023 20.6668 12.3333C20.6668 14.9107 18.5775 17 16.0002 17C13.4228 17 11.3335 14.9106 11.3335 12.3333C11.3335 11.6023 11.6398 10.7243 11.9837 9.93414C12.3452 9.10351 12.82 8.21399 13.2851 7.40759C13.752 6.59814 14.2192 5.85528 14.5725 5.31427C14.7493 5.04364 14.8992 4.82092 15.0082 4.66333C15.0621 4.58539 15.1089 4.5191 15.1453 4.46942C15.1623 4.4461 15.1834 4.41778 15.2047 4.39117C15.2134 4.38024 15.2345 4.354 15.2617 4.32458C15.273 4.31243 15.3052 4.27783 15.3507 4.23913C15.3721 4.221 15.4198 4.18163 15.4869 4.1416L15.4894 4.14007C15.5288 4.11652 15.723 4 16.0002 4C16.2773 4 16.4715 4.11652 16.5109 4.14008L16.5134 4.14161C16.5805 4.18165 16.6282 4.22102 16.6496 4.23914C16.6951 4.27784 16.7273 4.31244 16.7386 4.32459C16.7658 4.35401 16.7869 4.38019 16.7956 4.39118C16.8169 4.41773 16.838 4.44611 16.855 4.46943C16.8914 4.51911 16.9382 4.5854 16.9921 4.66334C17.1011 4.82093 17.251 5.04365 17.4278 5.31428C17.7811 5.85529 18.2483 6.59814 18.7152 7.40759ZM16.0002 15C17.4729 15 18.6668 13.8061 18.6668 12.3333C18.6668 12.0519 18.5199 11.5069 18.1828 10.7322C17.8633 9.99804 17.4292 9.18078 16.9828 8.40691C16.6396 7.81194 16.295 7.25267 16.0002 6.79045C15.7053 7.25267 15.3607 7.81193 15.0175 8.40691C14.5712 9.18077 14.1371 9.99804 13.8175 10.7322C13.4804 11.5069 13.3335 12.0519 13.3335 12.3333C13.3335 13.8061 14.5274 15 16.0002 15Z" fill="#0D0F13"/>
</svg>
