<svg width="32" height="32" viewBox="0 0 32 32" fill="none" xmlns="http://www.w3.org/2000/svg">
<path d="M27.3724 22.845C27.5811 22.5546 27.7183 22.1738 27.7183 21.6962C27.7183 20.2406 26.5327 19.4893 25.171 19.4893H24.0167L25.4812 20.9538C25.67 21.0444 25.8191 21.1825 25.9037 21.3763L27.3724 22.845Z" fill="#0D0F13"/>
<path fill-rule="evenodd" clip-rule="evenodd" d="M17.4192 21.3774L19.0626 23.0208V27.8241H17.5131V27.1784C17.0788 27.6949 16.4566 28.0001 15.6349 28.0001C13.8037 28.0001 12.7824 26.6267 12.7824 24.6898C12.7824 22.7647 13.8037 21.403 15.6349 21.403C16.3979 21.403 16.9848 21.6613 17.4192 22.1073V21.3774ZM14.4728 24.819C14.4728 26.0163 15.0714 26.7441 15.9988 26.7441C16.8909 26.7441 17.4426 26.1102 17.4426 25.2416V24.1381C17.4426 23.246 16.8909 22.6591 15.9988 22.6591C15.0714 22.6591 14.4728 23.3516 14.4728 24.5607V24.819Z" fill="#0D0F13"/>
<path d="M19.7022 15.1749C20.3072 14.388 20.6668 13.4027 20.6668 12.3333C20.6668 11.6023 20.3606 10.7243 20.0166 9.93413C19.6551 9.10348 19.1803 8.21399 18.7152 7.40762C18.2483 6.59812 17.7811 5.85529 17.4278 5.31424C17.251 5.04365 17.1011 4.82094 16.9921 4.66335C16.9382 4.58537 16.8914 4.51911 16.855 4.4694C16.838 4.44609 16.8169 4.41775 16.7956 4.39116C16.7869 4.38021 16.7658 4.35401 16.7386 4.32458C16.7273 4.31244 16.6951 4.27785 16.6496 4.23916C16.6282 4.22098 16.5805 4.18166 16.5134 4.14159L16.5108 4.14009C16.4715 4.11651 16.2773 4 16.0001 4C15.723 4 15.5288 4.11651 15.4894 4.14009L15.4869 4.1416C15.4198 4.18166 15.3721 4.22098 15.3507 4.23916C15.3052 4.27785 15.273 4.31244 15.2617 4.32458C15.2345 4.35401 15.2134 4.38022 15.2047 4.39116C15.1834 4.41776 15.1623 4.44609 15.1453 4.4694C15.1089 4.51911 15.0621 4.58537 15.0082 4.66335C14.8992 4.82095 14.7493 5.04365 14.5725 5.31425C14.2192 5.85529 13.752 6.59812 13.2851 7.40762C13.1232 7.68828 12.9601 7.979 12.8011 8.2738L14.2822 9.75489C14.5105 9.30716 14.762 8.84993 15.0175 8.40693C15.3607 7.81196 15.7053 7.25269 16.0001 6.79047C16.295 7.25269 16.6396 7.81197 16.9828 8.40694C17.4291 9.18077 17.8633 9.99805 18.1828 10.7322C18.5199 11.5069 18.6668 12.0519 18.6668 12.3333C18.6668 12.8493 18.5203 13.3311 18.2665 13.7392L19.7022 15.1749Z" fill="#0D0F13"/>
<path d="M20.8042 24.7622L22.5298 26.4878V26.4974H22.5394L23.8659 27.8239H20.8042V24.7622Z" fill="#0D0F13"/>
<path fill-rule="evenodd" clip-rule="evenodd" d="M12.2288 27.8238H10.4445L9.85758 26.0395H6.30077L5.71384 27.8238H4L6.82901 19.4893H9.39977L12.2288 27.8238ZM8.08504 20.6045L6.74684 24.6895H9.42325L8.08504 20.6045Z" fill="#0D0F13"/>
<path fill-rule="evenodd" clip-rule="evenodd" d="M2.29289 2.29289C2.68342 1.90237 3.31658 1.90237 3.70711 2.29289L29.7071 28.2929C30.0976 28.6834 30.0976 29.3166 29.7071 29.7071C29.3166 30.0976 28.6834 30.0976 28.2929 29.7071L2.29289 3.70711C1.90237 3.31658 1.90237 2.68342 2.29289 2.29289Z" fill="#0D0F13"/>
</svg>
