<svg width="32" height="32" viewBox="0 0 32 32" fill="none" xmlns="http://www.w3.org/2000/svg">
<path d="M21.9558 17.7132L27.9211 5.43317C28.3399 4.57098 27.4343 3.66438 26.5715 4.08326L14.2888 10.0461L15.7854 11.5428L24.8728 7.13117L20.4593 16.2167L21.9558 17.7132Z" fill="black"/>
<path d="M10.0732 14.3159L7.82662 15.4065C11.839 16.9643 15.0454 20.1512 16.5986 24.1642L17.685 21.9277L19.1816 23.4242L17.2727 27.3537C16.8492 28.2256 15.5594 28.0576 15.3738 27.1058C14.3459 21.8329 10.1683 17.6808 4.88966 16.6254C3.99323 16.4461 3.7288 15.1727 4.64649 14.7271L8.57657 12.8192L10.0732 14.3159Z" fill="black"/>
<path fill-rule="evenodd" clip-rule="evenodd" d="M2.29289 2.29289C2.68342 1.90237 3.31658 1.90237 3.70711 2.29289L29.7071 28.2929C30.0976 28.6834 30.0976 29.3166 29.7071 29.7071C29.3166 30.0976 28.6834 30.0976 28.2929 29.7071L2.29289 3.70711C1.90237 3.31658 1.90237 2.68342 2.29289 2.29289Z" fill="black"/>
</svg>
