<svg width="32" height="32" viewBox="0 0 32 32" fill="none" xmlns="http://www.w3.org/2000/svg">
<path d="M25.9533 6.12891C25.5639 5.73727 24.9307 5.73545 24.5391 6.12485C24.1474 6.51426 24.1456 7.14742 24.535 7.53906C26.6933 9.70974 28.0253 12.6983 28.0253 15.9998C28.0253 19.3014 26.6933 22.2899 24.535 24.4606C24.1456 24.8522 24.1474 25.4854 24.5391 25.8748C24.9307 26.2642 25.5639 26.2624 25.9533 25.8707C28.4689 23.3406 30.0253 19.851 30.0253 15.9998C30.0253 12.1486 28.4689 8.65904 25.9533 6.12891Z" fill="#0D0F13"/>
<path fill-rule="evenodd" clip-rule="evenodd" d="M10.2541 9.86579L17.1071 6.16024C17.9732 5.69189 19.0254 6.31909 19.0254 7.30377V24.7006C19.0254 25.6867 17.9705 26.3138 17.1042 25.8426L10.2549 22.1172C10.1083 22.0375 9.94402 21.9957 9.7771 21.9957H4.02539C2.92082 21.9957 2.02539 21.1003 2.02539 19.9957V11.9862C2.02539 10.8816 2.92082 9.98615 4.02539 9.98615H9.77841C9.94449 9.98615 10.108 9.94479 10.2541 9.86579ZM17.0254 8.47806L11.2053 11.6251C10.7671 11.8621 10.2767 11.9862 9.77841 11.9862H4.02539L4.02539 19.9957L9.7771 19.9957C10.2778 19.9957 10.7706 20.121 11.2105 20.3603L17.0254 23.523V8.47806Z" fill="#0D0F13"/>
<path d="M21.3615 9.20351C21.7143 8.7786 22.3448 8.72014 22.7697 9.07294C24.7561 10.7222 26.0237 13.2136 26.0237 16.0002C26.0237 18.7868 24.7561 21.2783 22.7697 22.9275C22.3448 23.2803 21.7143 23.2219 21.3615 22.797C21.0087 22.3721 21.0672 21.7416 21.4921 21.3888C23.0404 20.1032 24.0237 18.167 24.0237 16.0002C24.0237 13.8335 23.0404 11.8973 21.4921 10.6117C21.0672 10.2589 21.0087 9.62842 21.3615 9.20351Z" fill="#0D0F13"/>
</svg>
