<svg width="32" height="32" viewBox="0 0 32 32" fill="none" xmlns="http://www.w3.org/2000/svg">
<path d="M3.2325 2.29289C2.84197 1.90237 2.20881 1.90237 1.81828 2.29289C1.42776 2.68342 1.42776 3.31658 1.81828 3.70711L27.8183 29.7071C28.2088 30.0976 28.842 30.0976 29.2325 29.7071C29.623 29.3166 29.623 28.6834 29.2325 28.2929L3.2325 2.29289Z" fill="#0D0F13"/>
<path d="M29.5253 15.9998C29.5253 18.7796 28.7144 21.371 27.3172 23.5492L25.8639 22.0959C26.9198 20.3093 27.5253 18.2257 27.5253 15.9998C27.5253 12.6983 26.1933 9.70974 24.035 7.53906C23.6456 7.14742 23.6474 6.51426 24.0391 6.12485C24.4307 5.73545 25.0639 5.73727 25.4533 6.12891C27.9689 8.65904 29.5253 12.1486 29.5253 15.9998Z" fill="#0D0F13"/>
<path d="M25.5237 16.0002C25.5237 17.6529 25.0778 19.2017 24.3006 20.5326L22.8237 19.0557C23.2724 18.1323 23.5237 17.0957 23.5237 16.0002C23.5237 13.8335 22.5404 11.8973 20.9921 10.6117C20.5672 10.2589 20.5087 9.62842 20.8615 9.20351C21.2143 8.7786 21.8448 8.72014 22.2697 9.07294C24.2561 10.7222 25.5237 13.2136 25.5237 16.0002Z" fill="#0D0F13"/>
<path d="M18.5254 14.7574V7.30377C18.5254 6.31909 17.4732 5.69189 16.6071 6.16024L12.2722 8.50418L13.7479 9.97989L16.5254 8.47806V12.7574L18.5254 14.7574Z" fill="#0D0F13"/>
<path d="M3.52539 11.9862H7.2689L5.2689 9.98615H3.52539C2.42082 9.98615 1.52539 10.8816 1.52539 11.9862V19.9957C1.52539 21.1003 2.42082 21.9957 3.52539 21.9957H9.2771C9.44402 21.9957 9.60828 22.0375 9.7549 22.1172L16.6042 25.8426C17.4705 26.3138 18.5254 25.6867 18.5254 24.7006V23.2426L16.5254 21.2426V23.523L10.7105 20.3603C10.2706 20.121 9.77784 19.9957 9.2771 19.9957L3.52539 19.9957L3.52539 11.9862Z" fill="#0D0F13"/>
</svg>
