<svg width="32" height="32" viewBox="0 0 32 32" fill="none" xmlns="http://www.w3.org/2000/svg">
<path fill-rule="evenodd" clip-rule="evenodd" d="M22 6H10V10V14C10 17.3137 12.6863 20 16 20C19.3137 20 22 17.3137 22 14V10V6ZM8.24056 15.9549C9.03409 19.1146 11.707 21.5283 15.0019 21.9383C15.0006 21.9587 15 21.9793 15 22V25.999H12.5C11.9477 25.999 11.5 26.4467 11.5 26.999C11.5 27.5513 11.9477 27.999 12.5 27.999H15.9554C15.9702 27.9997 15.9851 28 16 28C16.0149 28 16.0298 27.9997 16.0446 27.999H19.5C20.0523 27.999 20.5 27.5513 20.5 26.999C20.5 26.4467 20.0523 25.999 19.5 25.999H17V22C17 21.9793 16.9994 21.9587 16.9981 21.9383C20.293 21.5283 22.9659 19.1146 23.7594 15.9549C26.1544 15.6288 28 13.5754 28 11.0909V10.4615C28 9.10207 26.8979 8 25.5385 8H24V6C24 4.89543 23.1046 4 22 4H10C8.89543 4 8 4.89543 8 6V8H6C4.89543 8 4 8.89543 4 10V11.0909C4 13.5754 5.84559 15.6288 8.24056 15.9549ZM8 13.8551V10H6V11.0909C6 12.3801 6.83857 13.4734 8 13.8551ZM26 11.0909C26 12.3801 25.1614 13.4734 24 13.8551V10H25.5385C25.7934 10 26 10.2066 26 10.4615V11.0909Z" fill="#0D0F13"/>
</svg>
