<svg width="32" height="32" viewBox="0 0 32 32" fill="none" xmlns="http://www.w3.org/2000/svg">
<path d="M29.9614 16C29.9614 18.7702 29.1568 21.3525 27.7686 23.5259L26.3143 22.0716C27.3611 20.2905 27.9614 18.2153 27.9614 16C27.9614 9.37258 22.5888 4 15.9614 4C13.7456 4 11.6708 4.59995 9.88964 5.647L8.43559 4.19295C10.6089 2.80501 13.1916 2 15.9614 2C23.6934 2 29.9614 8.26801 29.9614 16Z" fill="#0D0F13"/>
<path d="M15.9614 28C18.1969 28 20.2896 27.3887 22.0815 26.3242L23.5344 27.777C21.3512 29.1837 18.7516 30 15.9614 30C8.59493 30 2.5581 24.3113 2.00299 17.0865C1.96068 16.5359 2.37278 16.0552 2.92344 16.0129C3.4741 15.9705 3.9548 16.3826 3.99711 16.9333C4.47278 23.124 9.64815 28 15.9614 28Z" fill="#0D0F13"/>
<path d="M10.0308 15.2853V14.2734L10.6007 14.8434L10.0308 15.2853Z" fill="#0D0F13"/>
<path d="M13.7982 18.0408L12.1134 16.356V20.0004H13.7982V18.0408Z" fill="#0D0F13"/>
<path d="M22.2483 17.3562C22.2483 17.5589 22.2294 17.7572 22.1914 17.9487L18.8129 14.5703C18.9096 14.5634 19.0095 14.5599 19.1127 14.5599C21.2304 14.5599 22.2483 15.765 22.2483 17.3562Z" fill="#0D0F13"/>
<path d="M17.58 13.0389L17.5498 13.3072L16.1004 11.8578L16.1175 11.6934H21.7686V13.0389H17.58Z" fill="#0D0F13"/>
<path d="M3.70711 2.29289C3.31658 1.90237 2.68342 1.90237 2.29289 2.29289C1.90237 2.68342 1.90237 3.31658 2.29289 3.70711L28.2929 29.7071C28.6834 30.0976 29.3166 30.0976 29.7071 29.7071C30.0976 29.3166 30.0976 28.6834 29.7071 28.2929L3.70711 2.29289Z" fill="#0D0F13"/>
</svg>
