<svg width="32" height="32" viewBox="0 0 32 32" fill="none" xmlns="http://www.w3.org/2000/svg">
<path d="M13.0467 3.68172C13.4372 3.29119 13.4372 2.65803 13.0467 2.2675C12.6562 1.87698 12.023 1.87698 11.6325 2.2675L2.74785 11.1521C1.73249 12.1675 1.73249 13.8137 2.74785 14.8291L11.6325 23.7137C12.023 24.1043 12.6562 24.1043 13.0467 23.7137C13.4372 23.3232 13.4372 22.6901 13.0467 22.2995L4.69685 13.9497L27.9505 13.9497V29.0432C27.9505 29.5954 28.3982 30.0432 28.9505 30.0432C29.5028 30.0432 29.9505 29.5954 29.9505 29.0432L29.9505 12.9497C29.9505 12.6845 29.8451 12.4301 29.6576 12.2426C29.47 12.055 29.2157 11.9497 28.9505 11.9497L4.77875 11.9497L13.0467 3.68172Z" fill="#0D0F13"/>
</svg>
