<svg width="32" height="32" viewBox="0 0 32 32" fill="none" xmlns="http://www.w3.org/2000/svg">
<path d="M15.9809 4C22.6083 4 27.9809 9.37258 27.9809 16C27.9809 22.6274 22.6083 28 15.9809 28C9.66768 28 4.49231 23.124 4.01664 16.9333C3.97433 16.3826 3.49363 15.9705 2.94297 16.0129C2.39231 16.0552 1.98021 16.5359 2.02252 17.0865C2.57763 24.3113 8.61446 30 15.9809 30C23.7129 30 29.9809 23.732 29.9809 16C29.9809 8.26801 23.7129 2 15.9809 2C12.5543 2 9.4139 3.23212 6.98093 5.27583V4C6.98093 3.44772 6.53322 3 5.98093 3C5.42865 3 4.98093 3.44772 4.98093 4V8C4.98093 8.55228 5.42865 9 5.98093 9H9.98093C10.5332 9 10.9809 8.55228 10.9809 8C10.9809 7.44772 10.5332 7 9.98093 7H8.04342C10.1595 5.13208 12.9372 4 15.9809 4Z" fill="#0D0F13"/>
<path d="M13.8177 11.6934H12.3318L10.0503 13.6005V15.2853L12.1329 13.6707V20.0004H13.8177V11.6934Z" fill="#0D0F13"/>
<path d="M22.2678 17.3562C22.2678 15.765 21.2499 14.5599 19.1322 14.5599C18.3834 14.5599 17.8101 14.7471 17.3772 15.0162L17.5995 13.0389H21.7881V11.6934H16.137L15.6339 16.5372H17.3421C17.5878 16.1628 18.0792 15.8586 18.8748 15.8586C19.9044 15.8586 20.4894 16.3851 20.4894 17.2509V17.4849C20.4894 18.339 19.881 18.9006 18.9567 18.9006C17.9973 18.9006 17.4708 18.4677 17.3538 17.7657H15.4935C15.5169 18.9942 16.5348 20.1876 18.9333 20.1876C21.168 20.1876 22.2678 18.9006 22.2678 17.3562Z" fill="#0D0F13"/>
</svg>
