<svg xmlns="http://www.w3.org/2000/svg" fill="none" viewBox="0 0 32 32"><path fill="#0D0F13" d="M15.98 4c6.628 0 12 5.373 12 12s-5.372 12-12 12C9.668 28 4.493 23.124 4.017 16.933a1 1 0 1 0-1.994.154C2.577 24.31 8.614 30 15.981 30c7.732 0 14-6.268 14-14s-6.268-14-14-14a13.947 13.947 0 0 0-9 3.276V4a1 1 0 0 0-2 0v4a1 1 0 0 0 1 1h4a1 1 0 1 0 0-2H8.043c2.116-1.868 4.894-3 7.938-3Z"/><path fill="#0D0F13" d="M13.817 11.693h-1.486l-2.281 1.908v1.684l2.083-1.614V20h1.684v-8.308ZM22.268 17.356c0-1.591-1.018-2.796-3.136-2.796-.749 0-1.322.187-1.755.456l.222-1.977h4.189v-1.346h-5.651l-.503 4.844h1.708c.246-.374.737-.678 1.533-.678 1.03 0 1.614.526 1.614 1.392v.234c0 .854-.608 1.416-1.533 1.416-.959 0-1.485-.433-1.602-1.135h-1.86c.023 1.228 1.04 2.422 3.44 2.422 2.234 0 3.334-1.287 3.334-2.832Z"/></svg>