<svg width="32" height="32" viewBox="0 0 32 32" fill="none" xmlns="http://www.w3.org/2000/svg">
<path d="M3.98047 5.97852C3.98047 7.08309 4.8759 7.97852 5.98047 7.97852C7.08504 7.97852 7.98047 7.08309 7.98047 5.97852C7.98047 4.87395 7.08504 3.97852 5.98047 3.97852C4.8759 3.97852 3.98047 4.87395 3.98047 5.97852Z" fill="#0D0F13"/>
<path d="M3.98047 16C3.98047 17.1046 4.8759 18 5.98047 18C7.08504 18 7.98047 17.1046 7.98047 16C7.98047 14.8954 7.08504 14 5.98047 14C4.8759 14 3.98047 14.8954 3.98047 16Z" fill="#0D0F13"/>
<path d="M3.98047 26.0195C3.98047 27.1241 4.8759 28.0195 5.98047 28.0195C7.08504 28.0195 7.98047 27.1241 7.98047 26.0195C7.98047 24.915 7.08504 24.0195 5.98047 24.0195C4.8759 24.0195 3.98047 24.915 3.98047 26.0195Z" fill="#0D0F13"/>
<path d="M14.0001 5.97853C14.0001 7.0831 14.8955 7.97853 16.0001 7.97853C17.1047 7.97853 18.0001 7.0831 18.0001 5.97853C18.0001 4.87396 17.1047 3.97853 16.0001 3.97853C14.8955 3.97853 14.0001 4.87396 14.0001 5.97853Z" fill="#0D0F13"/>
<path d="M14 16C14 17.1046 14.8954 18 16 18C17.1046 18 18 17.1046 18 16C18 14.8954 17.1046 14 16 14C14.8954 14 14 14.8954 14 16Z" fill="#0D0F13"/>
<path d="M14 26.0195C14 27.1241 14.8954 28.0195 16 28.0195C17.1046 28.0195 18 27.1241 18 26.0195C18 24.915 17.1046 24.0195 16 24.0195C14.8954 24.0195 14 24.915 14 26.0195Z" fill="#0D0F13"/>
<path d="M24.0191 5.97852C24.0191 7.08309 24.9145 7.97852 26.0191 7.97852C27.1236 7.97852 28.0191 7.08309 28.0191 5.97852C28.0191 4.87395 27.1236 3.97852 26.0191 3.97852C24.9145 3.97852 24.0191 4.87395 24.0191 5.97852Z" fill="#0D0F13"/>
<path d="M24.019 16C24.019 17.1046 24.9145 18 26.019 18C27.1236 18 28.019 17.1046 28.019 16C28.019 14.8954 27.1236 14 26.019 14C24.9145 14 24.019 14.8954 24.019 16Z" fill="#0D0F13"/>
<path d="M24.019 26.0195C24.019 27.1241 24.9145 28.0195 26.019 28.0195C27.1236 28.0195 28.019 27.1241 28.019 26.0195C28.019 24.915 27.1236 24.0195 26.019 24.0195C24.9145 24.0195 24.019 24.915 24.019 26.0195Z" fill="#0D0F13"/>
</svg>
