<svg width="32" height="32" viewBox="0 0 32 32" fill="none" xmlns="http://www.w3.org/2000/svg">
<path fill-rule="evenodd" clip-rule="evenodd" d="M19.2246 5.26085C19.3675 4.72663 19.0509 4.17752 18.5175 4.03437C17.984 3.89123 17.4357 4.20826 17.2927 4.74248L16.9513 6.01853C16.6387 5.98564 16.3213 5.96878 16 5.96878C15.6786 5.96878 15.3612 5.98565 15.0485 6.01855L14.7071 4.74254C14.5641 4.20832 14.0158 3.89129 13.4823 4.03443C12.9489 4.17758 12.6323 4.72669 12.7752 5.26091L13.0932 6.44923C9.54901 7.65976 7 11.0225 7 14.9815V15.9828H5C4.44772 15.9828 4 16.4311 4 16.9842C4 17.5373 4.44772 17.9856 5 17.9856H7V19.9885H5C4.44772 19.9885 4 20.4368 4 20.9899C4 21.5429 4.44772 21.9913 5 21.9913H7C7 25.3097 9.68629 28 13 28H19C22.3137 28 25 25.3099 25 21.9915L27 21.9913C27.5523 21.9913 28 21.5429 28 20.9899C28 20.4368 27.5523 19.9885 27 19.9885H25V17.9856H27C27.5523 17.9856 28 17.5373 28 16.9842C28 16.4311 27.5523 15.9828 27 15.9828H25V14.9815C25 11.0225 22.4509 7.65963 18.9066 6.44916L19.2246 5.26085ZM9 20.9899V21.9915C9 24.2037 10.7909 25.9971 13 25.9971H19C21.2091 25.9971 23 24.2037 23 21.9915V20.9899V16.9842V14.9815C23 14.6415 22.9758 14.3071 22.9291 13.9799H17V22.9927C17 23.5458 16.5523 23.9941 16 23.9941C15.4477 23.9941 15 23.5458 15 22.9927V13.9799H9.07091C9.02418 14.3071 9 14.6415 9 14.9815V16.9842V20.9899ZM16 11.9771H22.3263C21.2028 9.60891 18.7923 7.97162 16 7.97162C13.2077 7.97162 10.7972 9.60891 9.67371 11.9771H16Z" fill="#0D0F13"/>
</svg>
