<svg width="32" height="32" viewBox="0 0 32 32" fill="none" xmlns="http://www.w3.org/2000/svg">
<path fill-rule="evenodd" clip-rule="evenodd" d="M27 19.9885C27.5523 19.9885 28 20.4368 28 20.9899C28 21.5429 27.5523 21.9913 27 21.9913L25 21.9915C25 25.3099 22.3137 28 19 28H13C9.68628 28 7 25.3097 7 21.9913H5C4.44769 21.9913 4 21.5429 4 20.9899C4 20.4368 4.44769 19.9885 5 19.9885H7V17.9856H5C4.44769 17.9856 4 17.5373 4 16.9842C4 16.4311 4.44769 15.9828 5 15.9828H7V14.9815C7 11.0225 9.54901 7.65973 13.0932 6.44922L12.7752 5.26093C12.6323 4.72669 12.9489 4.17756 13.4823 4.03443C14.0158 3.8913 14.5641 4.20832 14.7071 4.74256L15.0485 6.01856C15.3612 5.98566 15.6786 5.96876 16 5.96876C16.3213 5.96876 16.6387 5.98567 16.9513 6.0185L17.2927 4.7425C17.4357 4.20826 17.984 3.89124 18.5175 4.03437C19.0509 4.1775 19.3675 4.72663 19.2246 5.26087L18.9066 6.44916C22.4509 7.6596 25 11.0225 25 14.9815V15.9828H27C27.5523 15.9828 28 16.4311 28 16.9842C28 17.5373 27.5523 17.9856 27 17.9856H25V19.9885L27 19.9885ZM16 7.97161C13.2077 7.97161 10.7972 9.60888 9.67371 11.9771H16H22.3263C21.2028 9.60888 18.7923 7.97161 16 7.97161ZM23 16.9842V14.9815C23 14.6415 22.9758 14.3071 22.9291 13.9799H17V22.9927C17 23.5458 16.5523 23.9941 16 23.9941C15.4477 23.9941 15 23.5458 15 22.9927V13.9799H9.07092C9.02417 14.3071 9 14.6415 9 14.9815V16.9842V20.9899V21.9915C9 24.2037 10.7909 25.9971 13 25.9971H19C21.2091 25.9971 23 24.2037 23 21.9915V20.9899V16.9842Z" fill="#0D0F13"/>
</svg>
