<svg width="32" height="32" viewBox="0 0 32 32" fill="none" xmlns="http://www.w3.org/2000/svg">
<path fill-rule="evenodd" clip-rule="evenodd" d="M13.4824 4.06826C14.0158 3.92532 14.5642 4.2419 14.7071 4.77536L15.0486 6.0498C15.3612 6.01695 15.6787 6.00011 16 6.00011C16.3213 6.00011 16.6388 6.01695 16.9514 6.0498L17.2929 4.77536C17.4358 4.2419 17.9842 3.92532 18.5176 4.06826C19.0511 4.2112 19.3677 4.75954 19.2247 5.293L18.9067 6.47984C22.4509 7.68863 25 11.0467 25 15.0001V16.0001L27 16.0001C27.5523 16.0001 28 16.4478 28 17.0001C28 17.5524 27.5523 18.0001 27 18.0001L25 18.0001V20.0001L27 20.0001C27.5523 20.0001 28 20.4478 28 21.0001C28 21.5524 27.5523 22.0001 27 22.0001H25C25 25.3138 22.3137 28.0001 19 28.0001H13C9.68629 28.0001 7 25.3138 7 22.0001H5C4.44771 22.0001 4 21.5524 4 21.0001C4 20.4478 4.44772 20.0001 5 20.0001L7 20.0001V18.0001L5 18.0001C4.44771 18.0001 4 17.5524 4 17.0001C4 16.4478 4.44772 16.0001 5 16.0001L7 16.0001V15.0001C7 11.0467 9.54906 7.68863 13.0933 6.47984L12.7753 5.293C12.6323 4.75954 12.9489 4.2112 13.4824 4.06826ZM9 22.0001C9 24.2092 10.7909 26.0001 13 26.0001H19C21.2091 26.0001 23 24.2092 23 22.0001V15.0001C23 14.6606 22.9758 14.3267 22.9291 14.0001H17V23.0001C17 23.5524 16.5523 24.0001 16 24.0001C15.4477 24.0001 15 23.5524 15 23.0001V14.0001H9.07089C9.02417 14.3267 9 14.6606 9 15.0001V22.0001ZM9.67363 12.0001L22.3264 12.0001C21.2029 9.63516 18.7924 8.00011 16 8.00011C13.2076 8.00011 10.7971 9.63516 9.67363 12.0001Z" fill="black"/>
</svg>
