<svg width="32" height="32" viewBox="0 0 32 32" fill="none" xmlns="http://www.w3.org/2000/svg">
<path d="M12.9436 8.70753L11.4664 7.22828C11.9785 6.9286 12.523 6.67817 13.0932 6.48341L12.7752 5.29511C12.6323 4.76087 12.9489 4.21174 13.4823 4.06861C14.0158 3.92548 14.5641 4.2425 14.7071 4.77674L15.0485 6.05274C15.3612 6.01984 15.6786 6.00294 16 6.00294C16.3213 6.00294 16.6386 6.01985 16.9513 6.05274L17.2927 4.77668C17.4357 4.24244 17.984 3.92542 18.5175 4.06855C19.0509 4.21168 19.3675 4.76081 19.2246 5.29505L18.9066 6.48334C22.4509 7.6938 25 11.0567 25 15.0157V16.017H27C27.5523 16.017 28 16.4653 28 17.0184C28 17.5715 27.5523 18.0198 27 18.0198H25V20.0227H27C27.5523 20.0227 28 20.471 28 21.0241C28 21.5771 27.5523 22.0255 27 22.0255H26.2426L23 18.7782V15.0157C23 14.6757 22.9758 14.3413 22.929 14.0141H18.2426L16.2426 12.0113H22.3263C21.2028 9.64308 18.7923 8.00581 16 8.00581C14.9041 8.00581 13.8671 8.25801 12.9436 8.70753Z" fill="#0D0F13"/>
<path d="M19 26.0313C19.7865 26.0313 20.52 25.804 21.1385 25.4114L22.5759 26.8509C21.5772 27.5943 20.3399 28.0342 19 28.0342H13C9.68624 28.0342 6.99997 25.3439 6.99997 22.0255H4.99996C4.44771 22.0255 3.99996 21.5771 3.99996 21.0241C3.99996 20.471 4.44771 20.0227 4.99996 20.0227H6.99997V18.0198H4.99996C4.44771 18.0198 3.99996 17.5715 3.99996 17.0184C3.99996 16.4653 4.44771 16.017 4.99996 16.017H6.99997V15.0157C6.99997 13.8947 7.20432 12.8216 7.57779 11.8315L9.75736 14.0141H9.07089C9.02414 14.3413 8.99997 14.6757 8.99997 15.0157V22.0257C8.99997 24.2379 10.7909 26.0313 13 26.0313L19 26.0313Z" fill="#0D0F13"/>
<path d="M29.7071 28.2929C30.0976 28.6834 30.0976 29.3166 29.7071 29.7071C29.3166 30.0976 28.6834 30.0976 28.2929 29.7071L2.29287 3.7071C1.90237 3.3166 1.90237 2.68342 2.29287 2.29292C2.68338 1.90236 3.31655 1.90236 3.70705 2.29292L29.7071 28.2929Z" fill="#0D0F13"/>
<path d="M17 23.0269C17 23.58 16.5523 24.0283 16 24.0283C15.4477 24.0283 15 23.58 15 23.0269V19.2642L17 21.2671V23.0269Z" fill="#0D0F13"/>
</svg>
