<svg width="32" height="32" viewBox="0 0 32 32" fill="none" xmlns="http://www.w3.org/2000/svg">
<path fill-rule="evenodd" clip-rule="evenodd" d="M3.70711 2.29289C3.31658 1.90237 2.68342 1.90237 2.29289 2.29289C1.90237 2.68342 1.90237 3.31658 2.29289 3.70711L28.2929 29.7071C28.6834 30.0976 29.3166 30.0976 29.7071 29.7071C30.0976 29.3166 30.0976 28.6834 29.7071 28.2929L3.70711 2.29289ZM27 22.0255H26.2426L23 18.7782V17.0184V15.0157C23 14.6757 22.9758 14.3413 22.9291 14.0141H18.2426L16.2426 12.0113H22.3263C21.2028 9.64309 18.7923 8.0058 16 8.0058C14.9041 8.0058 13.8671 8.25798 12.9436 8.70755L11.4664 7.22828C11.9786 6.9286 12.523 6.67815 13.0932 6.48341L12.7752 5.29509C12.6323 4.76087 12.9489 4.21176 13.4823 4.06861C14.0158 3.92547 14.5641 4.2425 14.7071 4.77672L15.0485 6.05273C15.3612 6.01983 15.6786 6.00296 16 6.00296C16.3213 6.00296 16.6387 6.01982 16.9513 6.05271L17.2927 4.77666C17.4357 4.24244 17.984 3.92541 18.5175 4.06855C19.0509 4.2117 19.3675 4.76081 19.2246 5.29503L18.9066 6.48334C22.4509 7.69381 25 11.0567 25 15.0157V16.017H27C27.5523 16.017 28 16.4653 28 17.0184C28 17.5715 27.5523 18.0198 27 18.0198H25V20.0227H27C27.5523 20.0227 28 20.471 28 21.0241C28 21.5771 27.5523 22.0255 27 22.0255ZM15 19.2642L17 21.2671V23.0269C17 23.58 16.5523 24.0283 16 24.0283C15.4477 24.0283 15 23.58 15 23.0269V19.2642ZM9.07091 14.0141H9.75736L7.57781 11.8315C7.20436 12.8216 7 13.8947 7 15.0157V16.017H5C4.44772 16.017 4 16.4653 4 17.0184C4 17.5715 4.44772 18.0198 5 18.0198H7V20.0227H5C4.44772 20.0227 4 20.471 4 21.0241C4 21.5771 4.44772 22.0255 5 22.0255H7C7 25.3439 9.68629 28.0342 13 28.0342H19C20.3399 28.0342 21.5773 27.5943 22.5759 26.8509L21.1385 25.4114C20.52 25.804 19.7865 26.0313 19 26.0313H13C10.7909 26.0313 9 24.2379 9 22.0257V21.0241V17.0184V15.0157C9 14.6757 9.02418 14.3413 9.07091 14.0141Z" fill="#0D0F13"/>
</svg>
