<svg width="32" height="32" viewBox="0 0 32 32" fill="none" xmlns="http://www.w3.org/2000/svg">
<path fill-rule="evenodd" clip-rule="evenodd" d="M6.55279 4.10557C9.73835 2.51279 13.9071 2 16 2C18.2709 2 22.2642 2.51407 25.4472 4.10557C25.786 4.27496 26 4.62123 26 5V8H28C28.5523 8 29 8.44772 29 9V14.5C29 14.951 28.6982 15.3461 28.2631 15.4648L26 16.082V29C26 29.5523 25.5523 30 25 30H22C21.6212 30 21.275 29.786 21.1056 29.4472L20.382 28H11.618L10.8944 29.4472C10.725 29.786 10.3788 30 10 30H7C6.44772 30 6 29.5523 6 29V16.082L3.73688 15.4648C3.30182 15.3461 3 14.951 3 14.5V9C3 8.44772 3.44772 8 4 8H6V5C6 4.62123 6.214 4.27496 6.55279 4.10557ZM16 4C14.2151 4 10.7447 4.42677 8 5.63513V6H24V5.63424C21.2722 4.42549 17.9436 4 16 4ZM16 21.9999C13.2237 21.9999 10.5401 21.61 8 20.8827V8H24V20.8827C21.46 21.61 18.7763 21.9999 16 21.9999ZM16 23.9999C13.235 23.9999 10.5531 23.6377 8 22.9576V28H9.38197L10.1056 26.5528C10.275 26.214 10.6212 26 11 26H21C21.3788 26 21.725 26.214 21.8944 26.5528L22.618 28H24V22.9576C21.4469 23.6377 18.765 23.9999 16 23.9999ZM27 13.7362L26 14.0089V10H27V13.7362ZM5 13.7362L6 14.0089V10H5V13.7362Z" fill="#0D0F13"/>
</svg>
