<svg width="32" height="32" viewBox="0 0 32 32" fill="none" xmlns="http://www.w3.org/2000/svg">
<path fill-rule="evenodd" clip-rule="evenodd" d="M27.7 7C28.418 7 29 7.58203 29 8.29999V12C29 12.5523 28.5523 13 28 13C27.4477 13 27 12.5523 27 12V9H26V29C26 29.5523 25.5523 30 25 30H22C21.6212 30 21.275 29.786 21.1056 29.4472L20.382 28H11.618L10.8944 29.4472C10.725 29.786 10.3788 30 10 30H7C6.44769 30 6 29.5523 6 29V9H5V12C5 12.5523 4.55231 13 4 13C3.44769 13 3 12.5523 3 12V8.29999C3 7.58203 3.58203 7 4.29999 7H6V5C6 4.62122 6.21399 4.27496 6.5528 4.10559C9.73834 2.51282 13.9071 2 16 2C18.2709 2 22.2642 2.5141 25.4472 4.10559C25.786 4.27496 26 4.62122 26 5V7H27.7ZM24 28V21.5354L21.0587 23.4963C20.5659 23.8248 19.9868 24.0001 19.3946 24.0001H12.6057C12.0134 24.0001 11.4344 23.8248 10.9416 23.4963L8 21.5352V28H9.38196L10.1056 26.5528C10.275 26.214 10.6212 26 11 26H21C21.3788 26 21.725 26.214 21.8944 26.5528L22.618 28H24ZM24 19.1341V9H8V19.134C8.01849 19.1447 8.0368 19.156 8.05481 19.1681L12.051 21.8322C12.2152 21.9417 12.4082 22.0001 12.6057 22.0001H19.3946C19.592 22.0001 19.785 21.9417 19.9493 21.8322L23.9454 19.1681C23.9634 19.1561 23.9816 19.1448 24 19.1341ZM24 7V5.63422C21.2722 4.42548 17.9436 4 16 4C14.2151 4 10.7447 4.42676 8 5.63513V7H24Z" fill="#0D0F13"/>
</svg>
