<svg width="32" height="32" viewBox="0 0 32 32" fill="none" xmlns="http://www.w3.org/2000/svg">
<path fill-rule="evenodd" clip-rule="evenodd" d="M26 21.7574V16.082L28.2631 15.4648C28.6982 15.3461 29 14.951 29 14.5V9C29 8.44772 28.5523 8 28 8H26V5C26 4.62123 25.786 4.27496 25.4472 4.10557C22.2642 2.51407 18.2709 2 16 2C14.1706 2 10.7553 2.39178 7.79678 3.55414L9.35807 5.11543C11.8082 4.30156 14.4996 4 16 4C17.9436 4 21.2722 4.42549 24 5.63424V6H10.2426L12.2426 8H24V19.7574L26 21.7574ZM8 12.2426V20.8828C10.5401 21.6102 13.2237 22 16 22C16.5734 22 17.1429 21.9834 17.7079 21.9506L19.5556 23.7982C18.3886 23.9315 17.2022 24 16 24C13.2349 24 10.5531 23.6377 8 22.9576V28H9.38197L10.1056 26.5528C10.275 26.214 10.6212 26 11 26H21C21.3788 26 21.725 26.214 21.8944 26.5528L22.618 28H23.7574L25.5754 29.818C25.4127 29.9327 25.2142 30 25 30H22C21.6212 30 21.275 29.786 21.1056 29.4472L20.382 28H11.618L10.8944 29.4472C10.725 29.786 10.3788 30 10 30H7C6.44772 30 6 29.5523 6 29V16.082L3.73688 15.4648C3.30182 15.3461 3 14.951 3 14.5V9C3 8.52283 3.33422 8.12371 3.78134 8.02398L5.75736 10H5V13.7362L6 14.0089V10.2426L8 12.2426ZM26 14.0089V10H27V13.7362L26 14.0089Z" fill="#0D0F13"/>
<path fill-rule="evenodd" clip-rule="evenodd" d="M2.29289 2.29289C2.68342 1.90237 3.31658 1.90237 3.70711 2.29289L29.7071 28.2929C30.0976 28.6834 30.0976 29.3166 29.7071 29.7071C29.3166 30.0976 28.6834 30.0976 28.2929 29.7071L2.29289 3.70711C1.90237 3.31658 1.90237 2.68342 2.29289 2.29289Z" fill="#0D0F13"/>
</svg>
