<svg width="32" height="32" viewBox="0 0 32 32" fill="none" xmlns="http://www.w3.org/2000/svg">
<path d="M30 25.4727V10C30 7.79086 28.2091 6 26 6H24V3C24 2.44772 23.5523 2 23 2C22.4477 2 22 2.44772 22 3V6H10.5273L12.5273 8H26C27.1046 8 28 8.89543 28 10V12H16.5273L18.5273 14H28V23.4727L30 25.4727Z" fill="#0D0F13"/>
<path d="M10.042 13.9998H4V25.9998C4 27.1044 4.89543 27.9998 6 27.9998H24.042L26.0418 29.9995C26.0279 29.9996 26.014 29.9998 26 29.9998H6C3.79086 29.9998 2 28.2089 2 25.9998V9.99975C2 8.88449 2.45642 7.87584 3.19266 7.15039L4.60696 8.56468C4.23261 8.92813 4 9.43678 4 9.99975V11.9998H8.04203L10.042 13.9998Z" fill="#0D0F13"/>
<path d="M8 3.47269L10 5.47269V3C10 2.44772 9.55228 2 9 2C8.44772 2 8 2.44772 8 3V3.47269Z" fill="#0D0F13"/>
<path fill-rule="evenodd" clip-rule="evenodd" d="M2.29289 2.29289C2.68342 1.90237 3.31658 1.90237 3.70711 2.29289L29.7071 28.2929C30.0976 28.6834 30.0976 29.3166 29.7071 29.7071C29.3166 30.0976 28.6834 30.0976 28.2929 29.7071L2.29289 3.70711C1.90237 3.31658 1.90237 2.68342 2.29289 2.29289Z" fill="#0D0F13"/>
</svg>
