<svg width="32" height="32" viewBox="0 0 32 32" fill="none" xmlns="http://www.w3.org/2000/svg">
<path fill-rule="evenodd" clip-rule="evenodd" d="M23.6247 2.97657C23.6247 2.42429 23.177 1.97657 22.6247 1.97656C22.0724 1.97656 21.6247 2.42427 21.6247 2.97655L21.6247 5.96223L10.2808 5.97267L10.2808 2.98885C10.2808 2.43656 9.8331 1.98884 9.28081 1.98883C8.72853 1.98883 8.28081 2.43654 8.2808 2.98882L8.28077 5.97359H6.24981C3.9302 5.97359 2.04979 7.85401 2.0498 10.1736L2.04983 25.7703C2.04983 28.0898 3.93023 29.9702 6.24983 29.9702H25.7907C28.1103 29.9702 29.9907 28.0898 29.9907 25.7702L29.9907 10.1674C29.9906 7.85097 28.1152 5.9719 25.7987 5.96743L23.6247 5.96324L23.6247 2.97657ZM4.0498 10.1736C4.0498 8.95857 5.03477 7.97359 6.24981 7.97359L22.6256 7.96131L25.7949 7.96743C27.0083 7.96977 27.9906 8.95404 27.9907 10.1674L27.9907 12.0137L4.04981 12.0137L4.0498 10.1736ZM4.04981 14.0137L4.04983 25.7703C4.04983 26.9853 5.0348 27.9702 6.24983 27.9702H25.7907C27.0057 27.9702 27.9907 26.9853 27.9907 25.7702L27.9907 14.0137L4.04981 14.0137Z" fill="#0D0F13"/>
</svg>
