<svg width="32" height="32" viewBox="0 0 32 32" fill="none" xmlns="http://www.w3.org/2000/svg">
<path fill-rule="evenodd" clip-rule="evenodd" d="M28 9C29.1046 9 30 9.89545 30 11V24C30 25.1046 29.1046 26 28 26H4C2.89545 26 2 25.1046 2 24V11C2 9.89545 2.89545 9 4 9H9.46484L10.8711 6.89062C11.242 6.33423 11.8665 6 12.5352 6H19.4648C20.1335 6 20.758 6.33423 21.1289 6.89062L22.5352 9H28ZM28 24V11H22.2676C21.7661 11 21.2977 10.7493 21.0195 10.3321L19.4648 8H12.5352L10.9805 10.3321C10.7023 10.7493 10.2339 11 9.73242 11H4V24H28Z" fill="#0D0F13"/>
<path fill-rule="evenodd" clip-rule="evenodd" d="M16 12C18.7614 12 21 14.2386 21 17C21 19.7614 18.7614 22 16 22C13.2386 22 11 19.7614 11 17C11 14.2386 13.2386 12 16 12ZM16 20C17.6569 20 19 18.6569 19 17C19 15.3431 17.6569 14 16 14C14.3431 14 13 15.3431 13 17C13 18.6569 14.3431 20 16 20Z" fill="#0D0F13"/>
</svg>
