<svg width="32" height="32" viewBox="0 0 32 32" fill="none" xmlns="http://www.w3.org/2000/svg">
<path fill-rule="evenodd" clip-rule="evenodd" d="M20.9939 16.7511C20.8683 14.1876 18.8122 12.1314 16.2487 12.0059L20.9939 16.7511ZM11.2357 15.4782C11.0826 15.958 11 16.4692 11 16.9998C11 19.7612 13.2386 21.9998 16 21.9998C16.5306 21.9998 17.0418 21.9171 17.5216 21.764L15.7468 19.9892C14.2919 19.8677 13.1321 18.7079 13.0105 17.253L11.2357 15.4782Z" fill="#0D0F13"/>
<path fill-rule="evenodd" clip-rule="evenodd" d="M29.5304 25.2877C29.8234 24.9398 30 24.4905 30 24V11C30 9.89543 29.1046 9 28 9H22.5352L21.1289 6.8906C20.758 6.3342 20.1335 6 19.4648 6H12.5352C11.9294 6 11.3598 6.27431 10.9823 6.73963L12.4182 8.17553L12.5352 8H19.4648L21.0195 10.3321C21.2977 10.7493 21.7661 11 22.2676 11H28V23.7574L29.5304 25.2877ZM6.75736 11H4V24H19.7574L21.7574 26H4C2.89543 26 2 25.1046 2 24V11C2 9.89543 2.89543 9 4 9H4.75736L6.75736 11Z" fill="#0D0F13"/>
<path fill-rule="evenodd" clip-rule="evenodd" d="M2.29289 2.29289C2.68342 1.90237 3.31658 1.90237 3.70711 2.29289L29.7071 28.2929C30.0976 28.6834 30.0976 29.3166 29.7071 29.7071C29.3166 30.0976 28.6834 30.0976 28.2929 29.7071L2.29289 3.70711C1.90237 3.31658 1.90237 2.68342 2.29289 2.29289Z" fill="#0D0F13"/>
</svg>
