<svg width="32" height="32" viewBox="0 0 32 32" fill="none" xmlns="http://www.w3.org/2000/svg">
<path d="M3 11C3 10.4477 3.44772 10 4 10H9.73241C9.89958 10 10.0557 9.91645 10.1484 9.77735L11.7031 7.4453C11.8886 7.1671 12.2008 7 12.5352 7H19.4648C19.7992 7 20.1114 7.1671 20.2969 7.4453L21.8516 9.77735C21.9443 9.91645 22.1004 10 22.2676 10H28C28.5523 10 29 10.4477 29 11V24C29 24.5523 28.5523 25 28 25H4C3.44772 25 3 24.5523 3 24V11Z" stroke="black" stroke-width="2"/>
<path d="M20 17C20 19.2091 18.2091 21 16 21C13.7909 21 12 19.2091 12 17C12 14.7909 13.7909 13 16 13C18.2091 13 20 14.7909 20 17Z" stroke="black" stroke-width="2"/>
</svg>
