<svg width="32" height="32" viewBox="0 0 32 32" fill="none" xmlns="http://www.w3.org/2000/svg">
<path fill-rule="evenodd" clip-rule="evenodd" d="M2 5C2 4.44772 2.44772 4 3 4H5.21922C6.13696 4 6.93693 4.62459 7.15951 5.51493L7.78078 8L26.3596 8C27.3355 8 28.0515 8.91708 27.8148 9.8638L26.1595 16.4851C25.9369 17.3754 25.137 18 24.2192 18L10.2808 18L10.7808 20H24C24.5523 20 25 20.4477 25 21C25 21.5523 24.5523 22 24 22H10.7808C9.86304 22 9.06308 21.3754 8.84049 20.4851L8.03531 17.2643C8.0315 17.2504 8.02799 17.2364 8.02477 17.2222L5.21922 6H3C2.44772 6 2 5.55228 2 5ZM9.78078 16L24.2192 16L25.7192 10L8.28078 10L9.78078 16ZM8 26C8 24.8954 8.89543 24 10 24C11.1046 24 12 24.8954 12 26C12 27.1046 11.1046 28 10 28C8.89543 28 8 27.1046 8 26ZM22 26C22 24.8954 22.8954 24 24 24C25.1046 24 26 24.8954 26 26C26 27.1046 25.1046 28 24 28C22.8954 28 22 27.1046 22 26Z" fill="#0D0F13"/>
</svg>
