<svg xmlns="http://www.w3.org/2000/svg" fill="none" viewBox="0 0 32 32"><path fill="#0D0F13" fill-rule="evenodd" d="M14.432 2.392c.72-.874 2.126-.164 1.849.934l-2.441 9.666h7.041c.94 0 1.456 1.093.859 1.818L9.564 29.608c-.72.875-2.126.164-1.848-.935l2.447-9.676H3.114c-.94 0-1.456-1.093-.858-1.819L14.432 2.392Zm-1.16 4.588-8.23 9.995h6.16c.79 0 1.369.744 1.175 1.51l-1.65 6.529 8.227-10h-6.153c-.79 0-1.37-.744-1.176-1.51l1.648-6.524ZM24.003 16a1 1 0 0 1 1 1v12a1 1 0 1 1-2 0V17a1 1 0 0 1 1-1ZM30 17a1 1 0 1 0-2 0v12a1 1 0 1 0 2 0V17Z" clip-rule="evenodd"/></svg>