<svg width="32" height="32" viewBox="0 0 32 32" fill="none" xmlns="http://www.w3.org/2000/svg">
<path d="M20.8812 12.9921C21.8206 12.9921 22.3367 14.0849 21.7399 14.8103L9.56452 29.6077C8.84455 30.4828 7.43812 29.7718 7.71583 28.6733L10.1627 18.9967H3.11408C2.17438 18.9967 1.65833 17.9035 2.25568 17.1781L14.4324 2.3919C15.1525 1.51757 16.5582 2.22814 16.2808 3.32635L13.8397 12.9921L20.8812 12.9921ZM10.7266 25.0136L18.9547 15.0136H12.8016C12.0112 15.0136 11.4318 14.27 11.6254 13.5037L13.2731 6.9799L5.04169 16.9752H11.2012C11.9918 16.9752 12.5711 17.7191 12.3773 18.4854L10.7266 25.0136Z" fill="#0D0F13"/>
<path d="M29.5612 16.1724C30.0183 16.4823 30.1376 17.1041 29.8278 17.5612L21.8845 29.2813C21.2402 30.2323 19.8099 30.1353 19.2997 29.106L16.9929 24.4527C16.7476 23.9579 16.9498 23.3579 17.4443 23.1126C17.939 22.8672 18.5389 23.0694 18.7842 23.5642L20.7103 27.4496L28.1727 16.439C28.4824 15.9818 29.1041 15.8625 29.5612 16.1724Z" fill="#0D0F13"/>
</svg>
