<svg width="32" height="32" viewBox="0 0 32 32" fill="none" xmlns="http://www.w3.org/2000/svg">
<path fill-rule="evenodd" clip-rule="evenodd" d="M3.70711 2.29289C3.31659 1.90237 2.68342 1.90237 2.2929 2.29289C1.90237 2.68342 1.90237 3.31658 2.2929 3.70711L28.2929 29.7071C28.6834 30.0976 29.3166 30.0976 29.7071 29.7071C30.0976 29.3166 30.0976 28.6834 29.7071 28.2929L3.70711 2.29289ZM29.7446 14.8103L24.9178 20.6752L23.4814 19.2388L26.9587 15.0136H20.8041C20.0135 15.0136 19.4341 14.27 19.6277 13.5037L21.2757 6.97993L16.735 12.4924L15.2986 11.056L22.4353 2.39192C23.1556 1.51756 24.5617 2.22813 24.2842 3.32636L21.8426 12.9921H28.8857C29.8254 12.9921 30.3416 14.0849 29.7446 14.8103ZM18.7286 25.0137L19.1409 23.3835L17.4761 21.7188L15.7172 28.6733C15.4394 29.7718 16.8462 30.4828 17.5663 29.6077L21.0871 25.3297L19.6507 23.8933L18.7286 25.0137ZM11.4661 15.7087L14.7541 18.9967H11.1143C10.1744 18.9967 9.65829 17.9035 10.2557 17.1781L11.4661 15.7087ZM10.3338 14.5764L8.75736 13H5C4.44772 13 4 13.4477 4 14C4 14.5523 4.44772 15 5 15H9.51657C9.85419 15 10.1527 14.8327 10.3338 14.5764ZM3 17C2.44772 17 2 17.4477 2 18C2 18.5523 2.44772 19 3 19H7C7.55229 19 8 18.5523 8 18C8 17.4477 7.55229 17 7 17H3ZM4 22C4 21.4477 4.44772 21 5 21H14.4951C15.0474 21 15.4951 21.4477 15.4951 22C15.4951 22.5523 15.0474 23 14.4951 23H5C4.44772 23 4 22.5523 4 22Z" fill="#0D0F13"/>
</svg>
