<svg width="32" height="32" viewBox="0 0 32 32" fill="none" xmlns="http://www.w3.org/2000/svg">
<path fill-rule="evenodd" clip-rule="evenodd" d="M18.2842 3.32594C18.5617 2.22805 17.1556 1.51771 16.4353 2.39179L4.25573 17.1733C3.65827 17.8985 4.1744 18.9914 5.11432 18.9914H12.1646L9.7172 28.6649C9.4394 29.7631 10.8462 30.4739 11.5663 29.599L23.7446 14.8063C24.3416 14.0811 23.8254 12.9886 22.8857 12.9886H15.8426L18.2842 3.32594ZM7.0424 16.9705L15.2757 6.97836L13.6277 13.5001C13.4341 14.2661 14.0135 15.0095 14.8041 15.0095H20.9587L12.7286 25.0065L14.3797 18.4802C14.5735 17.7142 13.9941 16.9705 13.2034 16.9705H7.0424Z" fill="#0D0F13"/>
<path d="M26.9956 15.9956C27.5479 15.9956 27.9956 16.4432 27.9956 16.9953V24.9928C27.9956 25.5449 27.5479 25.9925 26.9956 25.9925C26.4433 25.9925 25.9956 25.5449 25.9956 24.9928V16.9953C25.9956 16.4432 26.4433 15.9956 26.9956 15.9956Z" fill="#0D0F13"/>
<path d="M28 28.9959C28 29.5505 27.5503 30 26.9956 30C26.4409 30 25.9912 29.5505 25.9912 28.9959C25.9912 28.4414 26.4409 27.9918 26.9956 27.9918C27.5503 27.9918 28 28.4414 28 28.9959Z" fill="#0D0F13"/>
</svg>
