<svg width="32" height="32" viewBox="0 0 32 32" fill="none" xmlns="http://www.w3.org/2000/svg">
<path fill-rule="evenodd" clip-rule="evenodd" d="M24.2842 3.32636C24.5617 2.22813 23.1556 1.51756 22.4353 2.39192L10.2557 17.1781C9.65824 17.9035 10.1744 18.9967 11.1143 18.9967H18.1646L15.7172 28.6733C15.4394 29.7718 16.8462 30.4828 17.5663 29.6077L29.7446 14.8103C30.3416 14.0849 29.8254 12.9921 28.8857 12.9921H21.8426L24.2842 3.32636ZM13.0424 16.9752L21.2757 6.97993L19.6277 13.5037C19.4341 14.27 20.0135 15.0136 20.8041 15.0136H26.9587L18.7286 25.0137L20.3797 18.4854C20.5735 17.7191 19.9941 16.9752 19.2034 16.9752H13.0424ZM3 17C2.44771 17 2 17.4477 2 18C2 18.5523 2.44771 19 3 19H7C7.55228 19 8 18.5523 8 18C8 17.4477 7.55228 17 7 17H3ZM4 22C4 21.4477 4.44771 21 5 21H14.495C15.0473 21 15.495 21.4477 15.495 22C15.495 22.5523 15.0473 23 14.495 23H5C4.44771 23 4 22.5523 4 22ZM5 13C4.44771 13 4 13.4477 4 14C4 14.5523 4.44771 15 5 15H9.51657C10.0688 15 10.5165 14.5523 10.5165 14C10.5165 13.4477 10.0688 13 9.51657 13H5Z" fill="#0D0F13"/>
</svg>
