<svg width="32" height="32" viewBox="0 0 32 32" fill="none" xmlns="http://www.w3.org/2000/svg">
<path fill-rule="evenodd" clip-rule="evenodd" d="M16.2535 2.82636C16.5309 1.72813 15.1251 1.01756 14.405 1.89192L2.22833 16.6781C1.63101 17.4035 2.14702 18.4967 3.08671 18.4967H10.1353L7.68848 28.1733C7.41075 29.2718 8.81721 29.9828 9.53714 29.1077L21.7125 14.3103C22.3094 13.5849 21.7933 12.4921 20.8538 12.4921H13.8124L16.2535 2.82636ZM5.01433 16.4752L13.2457 6.47993L11.5981 13.0037C11.4045 13.77 11.9838 14.5136 12.7742 14.5136H18.9273L10.6992 24.5137L12.3499 17.9854C12.5437 17.2191 11.9644 16.4752 11.1739 16.4752H5.01433Z" fill="#0D0F13"/>
<path d="M29.8004 17.0612C30.1102 16.6041 29.9909 15.9823 29.5338 15.6724C29.0768 15.3625 28.4551 15.4818 28.1453 15.939L20.683 26.9496L18.7569 23.0642C18.5116 22.5694 17.9117 22.3672 17.417 22.6126C16.9224 22.8579 16.7202 23.4579 16.9655 23.9527L19.2724 28.6061C19.7826 29.6353 21.2128 29.7323 21.8572 28.7814L29.8004 17.0612Z" fill="#0D0F13"/>
</svg>
