<svg xmlns="http://www.w3.org/2000/svg" fill="none" viewBox="0 0 32 32"><path fill="#0D0F13" fill-rule="evenodd" d="M3.707 2.293a1 1 0 0 0-1.414 1.414l26 26a1 1 0 0 0 1.414-1.414l-26-26ZM29.745 14.81l-4.827 5.865-1.437-1.436 3.478-4.225h-6.155c-.79 0-1.37-.744-1.176-1.51l1.648-6.524-4.541 5.512-1.436-1.436 7.136-8.664c.72-.874 2.127-.164 1.85.934l-2.442 9.666h7.043c.94 0 1.456 1.093.859 1.818ZM18.729 25.014l.412-1.63-1.665-1.665-1.759 6.954c-.278 1.099 1.13 1.81 1.85.935l3.52-4.278-1.436-1.437-.922 1.12Zm-7.263-9.305 3.288 3.288h-3.64c-.94 0-1.456-1.093-.858-1.819l1.21-1.47Zm-1.132-1.133L8.757 13H5a1 1 0 1 0 0 2h4.517a.999.999 0 0 0 .817-.424ZM3 17a1 1 0 1 0 0 2h4a1 1 0 1 0 0-2H3Zm1 5a1 1 0 0 1 1-1h9.495a1 1 0 1 1 0 2H5a1 1 0 0 1-1-1Z" clip-rule="evenodd"/></svg>