<svg width="32" height="32" viewBox="0 0 32 32" fill="none" xmlns="http://www.w3.org/2000/svg">
<path fill-rule="evenodd" clip-rule="evenodd" d="M14.4322 2.39192C15.1523 1.51756 16.5581 2.22813 16.2807 3.32636L13.8397 12.9921H20.881C21.8205 12.9921 22.3366 14.0849 21.7397 14.8103L9.56445 29.6077C8.84454 30.4828 7.43808 29.7718 7.71581 28.6733L10.1626 18.9967H3.11405C2.17436 18.9967 1.65836 17.9035 2.25567 17.1781L14.4322 2.39192ZM13.2729 6.97993L5.04166 16.9752H11.2011C11.9916 16.9752 12.5709 17.7191 12.3771 18.4854L10.7264 25.0137L18.9545 15.0136H12.8014C12.011 15.0136 11.4318 14.27 11.6253 13.5037L13.2729 6.97993ZM24.0014 16C24.5536 16 25.0012 16.4477 25.0012 17V29C25.0012 29.5523 24.5536 30 24.0014 30C23.4493 30 23.0017 29.5523 23.0017 29V17C23.0017 16.4477 23.4493 16 24.0014 16ZM30 17C30 16.4477 29.5523 16 29.0002 16C28.4481 16 28.0004 16.4477 28.0004 17V29C28.0004 29.5523 28.448 30 29.0002 30C29.5523 30 30 29.5523 30 29V17Z" fill="#0D0F13"/>
</svg>
