<svg xmlns="http://www.w3.org/2000/svg" fill="none" viewBox="0 0 32 32"><path fill="#0D1013" fill-rule="evenodd" d="M24.284 3.326c.278-1.098-1.128-1.808-1.849-.934l-12.18 14.786c-.597.726-.08 1.819.86 1.819h7.05l-2.448 9.676c-.278 1.099 1.13 1.81 1.85.935L29.744 14.81c.597-.725.08-1.818-.86-1.818h-7.042l2.441-9.666Zm-11.242 13.65 8.234-9.996-1.648 6.524a1.213 1.213 0 0 0 1.176 1.51h6.155l-8.23 10 1.65-6.529a1.213 1.213 0 0 0-1.176-1.51h-6.16ZM3 17a1 1 0 1 0 0 2h4a1 1 0 1 0 0-2H3Zm1 5a1 1 0 0 1 1-1h9.495a1 1 0 1 1 0 2H5a1 1 0 0 1-1-1Zm1-9a1 1 0 1 0 0 2h4.517a1 1 0 0 0 0-2H5Z" clip-rule="evenodd"/></svg>