<svg width="32" height="32" viewBox="0 0 32 32" fill="none" xmlns="http://www.w3.org/2000/svg">
<path d="M17 7C17 6.44772 16.5523 6 16 6C15.4477 6 15 6.44772 15 7V15C15 16.1046 15.8954 17 17 17H23C23.5523 17 24 16.5523 24 16C24 15.4477 23.5523 15 23 15H17V7Z" fill="#0D0F13"/>
<path fill-rule="evenodd" clip-rule="evenodd" d="M16 2C8.26801 2 2 8.26802 2 16C2 23.732 8.26801 30 16 30C23.732 30 30 23.732 30 16C30 8.26801 23.732 2 16 2ZM4 16C4 9.37258 9.37258 4 16 4C22.6274 4 28 9.37259 28 16C28 22.6274 22.6274 28 16 28C9.37258 28 4 22.6274 4 16Z" fill="#0D0F13"/>
</svg>
