<svg width="32" height="32" viewBox="0 0 32 32" fill="none" xmlns="http://www.w3.org/2000/svg">
<path d="M27.7921 23.5495C29.1896 21.3712 30 18.7802 30 16C30 8.26801 23.732 2 16 2C13.2198 2 10.6288 2.81041 8.45053 4.20789L9.9041 5.66146C11.6906 4.60579 13.7746 4 16 4C22.6274 4 28 9.37259 28 16C28 18.2254 27.3942 20.3094 26.3385 22.0959L27.7921 23.5495Z" fill="#0D0F13"/>
<path d="M5.66146 9.90474C4.60579 11.6912 4 13.7752 4 16.0006C4 22.628 9.37258 28.0006 16 28.0006C18.2254 28.0006 20.3094 27.3948 22.0959 26.3391L23.5495 27.7927C21.3712 29.1902 18.7802 30.0006 16 30.0006C8.26801 30.0006 2 23.7326 2 16.0006C2 13.2204 2.81041 10.6294 4.20789 8.45117L5.66146 9.90474Z" fill="#0D0F13"/>
<path d="M21.2426 17H23C23.5523 17 24 16.5523 24 16C24 15.4477 23.5523 15 23 15H19.2426L21.2426 17Z" fill="#0D0F13"/>
<path d="M17 12.7574V7C17 6.44772 16.5523 6 16 6C15.4477 6 15 6.44772 15 7V10.7574L17 12.7574Z" fill="#0D0F13"/>
<path fill-rule="evenodd" clip-rule="evenodd" d="M2.29289 2.29289C2.68342 1.90237 3.31658 1.90237 3.70711 2.29289L29.7071 28.2929C30.0976 28.6834 30.0976 29.3166 29.7071 29.7071C29.3166 30.0976 28.6834 30.0976 28.2929 29.7071L2.29289 3.70711C1.90237 3.31658 1.90237 2.68342 2.29289 2.29289Z" fill="#0D0F13"/>
</svg>
