<svg width="32" height="32" viewBox="0 0 32 32" fill="none" xmlns="http://www.w3.org/2000/svg">
<path d="M28 23.7574V4C28 2.89543 27.1046 2 26 2H6.24264L8.24264 4H26V21.7574L28 23.7574Z" fill="#0D0F13"/>
<path d="M6 10.2421V27.9995H23.7574L25.7574 29.9995H6C4.89543 29.9995 4 29.1041 4 27.9995V8.24219L6 10.2421Z" fill="#0D0F13"/>
<path d="M18.9472 14.7045C19.6009 13.9925 20 13.0428 20 12C20 9.79086 18.2091 8 16 8C14.9572 8 14.0075 8.39908 13.2955 9.05284L14.7123 10.4696C15.0602 10.1766 15.5095 10 16 10C17.1046 10 18 10.8954 18 12C18 12.4905 17.8234 12.9398 17.5304 13.2877L18.9472 14.7045Z" fill="#0D0F13"/>
<path d="M13.7574 18H13C10.7909 18 9 19.7909 9 22V23C9 23.5523 9.44772 24 10 24C10.5523 24 11 23.5523 11 23V22C11 20.8954 11.8954 20 13 20H15.7574L13.7574 18Z" fill="#0D0F13"/>
<path fill-rule="evenodd" clip-rule="evenodd" d="M2.29289 2.29289C2.68342 1.90237 3.31658 1.90237 3.70711 2.29289L29.7071 28.2929C30.0976 28.6834 30.0976 29.3166 29.7071 29.7071C29.3166 30.0976 28.6834 30.0976 28.2929 29.7071L2.29289 3.70711C1.90237 3.31658 1.90237 2.68342 2.29289 2.29289Z" fill="#0D0F13"/>
</svg>
