<svg width="32" height="32" viewBox="0 0 32 32" fill="none" xmlns="http://www.w3.org/2000/svg">
<path d="M10.9961 22.0024C11.5484 22.0024 11.9961 21.5547 11.9961 21.0024C11.9961 20.4502 11.5484 20.0024 10.9961 20.0024C10.4438 20.0024 9.99609 20.4502 9.99609 21.0024C9.99609 21.5547 10.4438 22.0024 10.9961 22.0024Z" fill="#0D0F13"/>
<path fill-rule="evenodd" clip-rule="evenodd" d="M27.4529 23.2102C27.5093 22.9994 27.5547 22.784 27.5884 22.5645L27.694 21.8758C27.7917 21.2383 28.0421 20.6339 28.4237 20.114L28.836 19.5524C30.388 17.4384 30.388 14.5616 28.836 12.4476L28.2784 11.688C27.7885 11.0207 26.8303 10.9207 26.2132 11.4724L25.3706 12.1978C24.6719 12.6523 23.8947 12.9989 23.0027 12.9989C21.9006 12.9989 20.9042 12.5547 20.1794 11.8332C19.4503 11.1074 19.0008 10.1056 19.0008 8.99694C19.0008 8.26635 19.1956 7.58431 19.5356 6.9967C19.6624 6.77741 19.7718 6.62195 19.88 6.46809C19.9072 6.42936 19.9344 6.39074 19.9618 6.35122L20.0321 6.25351L20.1523 6.08186L20.4983 5.60422C20.9552 4.97365 20.8172 4.09253 20.1896 3.63173L19.5524 3.16397C17.4384 1.61201 14.5616 1.61201 12.4476 3.16397L11.886 3.57628C11.3661 3.95795 10.7617 4.20831 10.1242 4.30604L9.43548 4.41163C9.21602 4.44528 9.00056 4.49066 8.78975 4.54711L10.5128 6.27017C11.4376 6.11472 12.3135 5.74468 13.0701 5.18926L13.6317 4.77694C15.0411 3.7423 16.9589 3.7423 18.3683 4.77694L18.537 4.90083L18.3391 5.17403C18.1205 5.44986 17.9492 5.74286 17.8035 5.99477C17.2922 6.87873 16.9998 7.90521 16.9998 8.99694C16.9998 10.6593 17.6768 12.1654 18.7678 13.2513C19.8522 14.3309 21.3503 14.9998 23.0027 14.9998C24.5691 14.9998 25.9969 14.3987 27.065 13.4165L27.2231 13.6317C28.2577 15.0411 28.2577 16.9589 27.2231 18.3683L26.8107 18.9299C26.2553 19.6865 25.8853 20.5624 25.7298 21.4872L27.4529 23.2102ZM6.27017 10.5128C6.11472 11.4376 5.74468 12.3135 5.18926 13.0701L4.77694 13.6317C3.7423 15.0411 3.7423 16.9589 4.77694 18.3683L5.18926 18.9299C5.76175 19.7097 6.13729 20.6164 6.2839 21.5726L6.38948 22.2613C6.65444 23.9894 8.01056 25.3456 9.73872 25.6105L10.4274 25.7161C11.3836 25.8627 12.2903 26.2382 13.0701 26.8107L13.6317 27.2231C15.0411 28.2577 16.9589 28.2577 18.3683 27.2231L18.9299 26.8107C19.6865 26.2553 20.5624 25.8853 21.4872 25.7298L23.2102 27.4529C22.9994 27.5093 22.784 27.5547 22.5645 27.5884L21.8758 27.694C21.2383 27.7917 20.6339 28.0421 20.114 28.4237L19.5524 28.836C17.4384 30.388 14.5616 30.388 12.4476 28.836L11.886 28.4237C11.3661 28.0421 10.7617 27.7917 10.1242 27.694L9.43549 27.5884C6.84325 27.1909 4.80906 25.1567 4.41163 22.5645L4.30604 21.8758C4.20831 21.2383 3.95795 20.6339 3.57629 20.114L3.16397 19.5524C1.61201 17.4384 1.61201 14.5616 3.16397 12.4476L3.57628 11.886C3.95795 11.3661 4.20831 10.7617 4.30604 10.1242L4.41163 9.43548C4.44528 9.21602 4.49066 9.00056 4.54711 8.78975L6.27017 10.5128Z" fill="#0D0F13"/>
<path fill-rule="evenodd" clip-rule="evenodd" d="M2.29289 2.29289C2.68342 1.90237 3.31658 1.90237 3.70711 2.29289L29.7071 28.2929C30.0976 28.6834 30.0976 29.3166 29.7071 29.7071C29.3166 30.0976 28.6834 30.0976 28.2929 29.7071L2.29289 3.70711C1.90237 3.31658 1.90237 2.68342 2.29289 2.29289Z" fill="#0D0F13"/>
</svg>
