<svg width="32" height="32" viewBox="0 0 32 32" fill="none" xmlns="http://www.w3.org/2000/svg">
<path fill-rule="evenodd" clip-rule="evenodd" d="M18.3683 4.77694C16.9589 3.7423 15.0411 3.7423 13.6317 4.77694L13.0701 5.18926C12.2903 5.76175 11.3836 6.13729 10.4274 6.2839L9.73872 6.38948C8.01056 6.65444 6.65444 8.01056 6.38948 9.73872L6.2839 10.4274C6.13729 11.3836 5.76175 12.2903 5.18926 13.0701L4.77694 13.6317C3.7423 15.0411 3.7423 16.9589 4.77694 18.3683L5.18926 18.9299C5.76175 19.7097 6.13729 20.6164 6.2839 21.5726L6.38948 22.2613C6.65444 23.9894 8.01056 25.3456 9.73872 25.6105L10.4274 25.7161C11.3836 25.8627 12.2903 26.2382 13.0701 26.8107L13.6317 27.2231C15.0411 28.2577 16.9589 28.2577 18.3683 27.2231L18.9299 26.8107C19.7097 26.2382 20.6164 25.8627 21.5726 25.7161L22.2613 25.6105C23.9894 25.3456 25.3456 23.9894 25.6105 22.2613L25.7161 21.5726C25.8627 20.6164 26.2382 19.7097 26.8107 18.9299L27.2231 18.3683C28.2577 16.9589 28.2577 15.0411 27.2231 13.6317L27.065 13.4165C25.9969 14.3987 24.5691 14.9998 23.0027 14.9998C21.3503 14.9998 19.8522 14.3309 18.7678 13.2513C17.6768 12.1654 16.9998 10.6593 16.9998 8.99694C16.9998 7.90521 17.2922 6.87873 17.8035 5.99477C17.9492 5.74286 18.1205 5.44986 18.3391 5.17403L18.537 4.90083L18.3683 4.77694ZM20.1523 6.08186L20.4983 5.60422C20.9552 4.97365 20.8172 4.09253 20.1896 3.63173L19.5524 3.16397C17.4384 1.61201 14.5616 1.61201 12.4476 3.16397L11.886 3.57628C11.3661 3.95795 10.7617 4.20831 10.1242 4.30604L9.43548 4.41163C6.84325 4.80906 4.80906 6.84325 4.41163 9.43548L4.30604 10.1242C4.20831 10.7617 3.95795 11.3661 3.57628 11.886L3.16397 12.4476C1.61201 14.5616 1.61201 17.4384 3.16397 19.5524L3.57629 20.114C3.95795 20.6339 4.20831 21.2383 4.30604 21.8758L4.41163 22.5645C4.80906 25.1567 6.84325 27.1909 9.43549 27.5884L10.1242 27.694C10.7617 27.7917 11.3661 28.0421 11.886 28.4237L12.4476 28.836C14.5616 30.388 17.4384 30.388 19.5524 28.836L20.114 28.4237C20.6339 28.0421 21.2383 27.7917 21.8758 27.694L22.5645 27.5884C25.1567 27.1909 27.1909 25.1567 27.5884 22.5645L27.694 21.8758C27.7917 21.2383 28.0421 20.6339 28.4237 20.114L28.836 19.5524C30.388 17.4384 30.388 14.5616 28.836 12.4476L28.2784 11.688C27.7885 11.0207 26.8303 10.9207 26.2132 11.4724L25.3706 12.1978C24.6719 12.6523 23.8947 12.9989 23.0027 12.9989C21.9006 12.9989 20.9042 12.5547 20.1794 11.8332C19.4503 11.1074 19.0008 10.1056 19.0008 8.99694C19.0008 8.26635 19.1956 7.58431 19.5356 6.9967C19.6943 6.72221 19.8257 6.54773 19.9618 6.35122L20.0321 6.25351L20.1523 6.08186Z" fill="#0D0F13"/>
<path d="M10.9961 11.9976C11.5484 11.9976 11.9961 11.5498 11.9961 10.9976C11.9961 10.4453 11.5484 9.99756 10.9961 9.99756C10.4438 9.99756 9.99609 10.4453 9.99609 10.9976C9.99609 11.5498 10.4438 11.9976 10.9961 11.9976Z" fill="#0D0F13"/>
<path d="M15.998 17C16.5503 17 16.998 16.5523 16.998 16C16.998 15.4477 16.5503 15 15.998 15C15.4458 15 14.998 15.4477 14.998 16C14.998 16.5523 15.4458 17 15.998 17Z" fill="#0D0F13"/>
<path d="M21.001 22.0024C21.5533 22.0024 22.001 21.5547 22.001 21.0024C22.001 20.4502 21.5533 20.0024 21.001 20.0024C20.4487 20.0024 20.001 20.4502 20.001 21.0024C20.001 21.5547 20.4487 22.0024 21.001 22.0024Z" fill="#0D0F13"/>
<path d="M10.9961 22.0024C11.5484 22.0024 11.9961 21.5547 11.9961 21.0024C11.9961 20.4502 11.5484 20.0024 10.9961 20.0024C10.4438 20.0024 9.99609 20.4502 9.99609 21.0024C9.99609 21.5547 10.4438 22.0024 10.9961 22.0024Z" fill="#0D0F13"/>
</svg>
