<svg width="32" height="32" viewBox="0 0 32 32" fill="none" xmlns="http://www.w3.org/2000/svg">
<path fill-rule="evenodd" clip-rule="evenodd" d="M18.3677 4.78195C16.959 3.74781 15.0421 3.74781 13.6335 4.78195L13.0721 5.19407C12.2926 5.76629 11.3864 6.14165 10.4307 6.28818L9.74232 6.39372C8.01499 6.65854 6.65952 8.01402 6.39469 9.74134L6.28916 10.4297C6.14262 11.3855 5.76726 12.2917 5.19505 13.0711L4.78293 13.6325C3.74879 15.0411 3.74879 16.9581 4.78293 18.3667L5.19505 18.9281C5.76726 19.7075 6.14262 20.6137 6.28916 21.5695L6.39469 22.2579C6.65952 23.9852 8.015 25.3407 9.74232 25.6055L10.4307 25.711C11.3864 25.8576 12.2926 26.2329 13.0721 26.8051L13.6335 27.2173C15.0421 28.2514 16.959 28.2514 18.3677 27.2173L18.9291 26.8051C19.7085 26.2329 20.6147 25.8576 21.5705 25.711L22.2588 25.6055C23.9862 25.3407 25.3416 23.9852 25.6065 22.2579L25.712 21.5695C25.8585 20.6137 26.2339 19.7075 26.8061 18.9281L27.2182 18.3667C28.2524 16.9581 28.2524 15.0411 27.2182 13.6325L27.0603 13.4173C25.9926 14.399 24.5656 14.9999 22.9999 14.9999C21.3483 14.9999 19.8509 14.3313 18.767 13.2523C17.6766 12.1668 16.9999 10.6615 16.9999 8.99992C16.9999 7.90872 17.2921 6.88273 17.8032 5.99919C17.9489 5.74741 18.1261 5.4589 18.3446 5.1832L18.3386 5.17885L18.5364 4.90578L18.3677 4.78195ZM20.1509 6.08625L20.4968 5.60884C20.9534 4.97856 20.8155 4.09787 20.1881 3.63729L19.5513 3.16976C17.4383 1.61854 14.5629 1.61854 12.4499 3.16976L11.8885 3.58187C11.3689 3.96335 10.7648 4.21359 10.1276 4.31128L9.43923 4.41682C6.84824 4.81405 4.81503 6.84727 4.41779 9.43825L4.31226 10.1266C4.21457 10.7638 3.96433 11.3679 3.58285 11.8876L3.17073 12.4489C1.61952 14.5619 1.61952 17.4373 3.17074 19.5503L3.58285 20.1117C3.96433 20.6313 4.21457 21.2354 4.31226 21.8726L4.41779 22.561C4.81503 25.1519 6.84824 27.1852 9.43923 27.5824L10.1276 27.6879C10.7648 27.7856 11.3689 28.0359 11.8885 28.4173L12.4499 28.8295C14.5629 30.3807 17.4383 30.3807 19.5513 28.8295L20.1126 28.4173C20.6323 28.0359 21.2364 27.7856 21.8736 27.6879L22.5619 27.5824C25.1529 27.1852 27.1861 25.1519 27.5834 22.561L27.6889 21.8726C27.7866 21.2354 28.0368 20.6313 28.4183 20.1117L28.8304 19.5503C30.3816 17.4373 30.3816 14.5619 28.8304 12.4489L28.2731 11.6897C27.7834 11.0227 26.8257 10.9227 26.2088 11.4741L25.379 12.2159C24.7138 12.7091 23.8914 12.9999 22.9999 12.9999C21.8984 12.9999 20.9024 12.556 20.178 11.8348C19.4492 11.1094 18.9999 10.108 18.9999 8.99992C18.9999 8.26968 19.1947 7.58797 19.5344 7.00064C19.6931 6.72628 19.8375 6.50433 19.991 6.33092L20.01 6.30937L20.1724 6.10317L20.1509 6.08625Z" fill="black"/>
<path d="M11.9999 10.9999C11.9999 11.5522 11.5522 11.9999 10.9999 11.9999C10.4476 11.9999 9.99992 11.5522 9.99992 10.9999C9.99992 10.4476 10.4476 9.99992 10.9999 9.99992C11.5522 9.99992 11.9999 10.4476 11.9999 10.9999Z" fill="black"/>
<path d="M16.9999 15.9999C16.9999 16.5522 16.5522 16.9999 15.9999 16.9999C15.4476 16.9999 14.9999 16.5522 14.9999 15.9999C14.9999 15.4476 15.4476 14.9999 15.9999 14.9999C16.5522 14.9999 16.9999 15.4476 16.9999 15.9999Z" fill="black"/>
<path d="M21.9999 20.9999C21.9999 21.5522 21.5522 21.9999 20.9999 21.9999C20.4476 21.9999 19.9999 21.5522 19.9999 20.9999C19.9999 20.4476 20.4476 19.9999 20.9999 19.9999C21.5522 19.9999 21.9999 20.4476 21.9999 20.9999Z" fill="black"/>
<path d="M11.9999 20.9999C11.9999 21.5522 11.5522 21.9999 10.9999 21.9999C10.4476 21.9999 9.99992 21.5522 9.99992 20.9999C9.99992 20.4476 10.4476 19.9999 10.9999 19.9999C11.5522 19.9999 11.9999 20.4476 11.9999 20.9999Z" fill="black"/>
</svg>
