<svg width="32" height="32" viewBox="0 0 32 32" fill="none" xmlns="http://www.w3.org/2000/svg">
<path fill-rule="evenodd" clip-rule="evenodd" d="M10.9999 11.9999C11.5522 11.9999 11.9999 11.5522 11.9999 10.9999C11.9999 10.4476 11.5522 9.99992 10.9999 9.99992C10.4476 9.99992 9.99992 10.4476 9.99992 10.9999C9.99992 11.5522 10.4476 11.9999 10.9999 11.9999ZM16.9999 15.9999C16.9999 16.5522 16.5522 16.9999 15.9999 16.9999C15.4476 16.9999 14.9999 16.5522 14.9999 15.9999C14.9999 15.4476 15.4476 14.9999 15.9999 14.9999C16.5522 14.9999 16.9999 15.4476 16.9999 15.9999ZM10.9999 21.9999C11.5522 21.9999 11.9999 21.5522 11.9999 20.9999C11.9999 20.4476 11.5522 19.9999 10.9999 19.9999C10.4476 19.9999 9.99992 20.4476 9.99992 20.9999C9.99992 21.5522 10.4476 21.9999 10.9999 21.9999ZM20.9999 21.9999C21.5522 21.9999 21.9999 21.5522 21.9999 20.9999C21.9999 20.4476 21.5522 19.9999 20.9999 19.9999C20.4476 19.9999 19.9999 20.4476 19.9999 20.9999C19.9999 21.5522 20.4476 21.9999 20.9999 21.9999Z" fill="black"/>
<path fill-rule="evenodd" clip-rule="evenodd" d="M18.3677 4.78195C16.959 3.74781 15.0421 3.74781 13.6335 4.78195L13.0721 5.19407C12.2926 5.76629 11.3864 6.14165 10.4307 6.28818L9.74232 6.39372C8.01499 6.65854 6.65952 8.01402 6.39469 9.74134L6.28916 10.4297C6.14262 11.3855 5.76726 12.2917 5.19505 13.0711L4.78293 13.6325C3.74879 15.0411 3.74879 16.9581 4.78293 18.3667L5.19505 18.9281C5.76726 19.7075 6.14262 20.6137 6.28916 21.5695L6.39469 22.2579C6.65952 23.9852 8.015 25.3407 9.74232 25.6055L10.4307 25.711C11.3864 25.8576 12.2926 26.2329 13.0721 26.8051L13.6335 27.2173C15.0421 28.2514 16.959 28.2514 18.3677 27.2173L18.9291 26.8051C19.7085 26.2329 20.6147 25.8576 21.5705 25.711L22.2588 25.6055C23.9862 25.3407 25.3416 23.9852 25.6065 22.2579L25.712 21.5695C25.8585 20.6137 26.2339 19.7075 26.8061 18.9281L27.2182 18.3667C28.2524 16.9581 28.2524 15.0411 27.2182 13.6325L27.05 13.4033L26.6344 13.774L26.601 13.7991C25.4446 14.6688 24.0194 15.0865 22.5788 14.9851C21.1368 14.8837 19.78 14.265 18.7577 13.243C17.7354 12.2209 17.1165 10.8642 17.0148 9.42223C16.9135 7.98637 17.3284 6.56519 18.1917 5.41091L18.545 4.91208L18.3677 4.78195ZM12.4499 3.16976C14.5629 1.61854 17.4383 1.61854 19.5513 3.16976L20.1881 3.63729C20.8127 4.09582 20.9544 4.97037 20.5066 5.60267L19.8078 6.58945L19.7993 6.6008C19.2209 7.37019 18.9419 8.319 19.0098 9.28146C19.0777 10.2428 19.4903 11.1473 20.1718 11.8286C20.8533 12.51 21.7579 12.9224 22.7192 12.9901C23.6687 13.0569 24.6038 12.7867 25.3672 12.2243L26.2093 11.4731C26.8265 10.9225 27.7836 11.023 28.2731 11.6897L28.8304 12.4489C30.3816 14.5619 30.3816 17.4373 28.8304 19.5503L28.4183 20.1117C28.0368 20.6313 27.7866 21.2354 27.6889 21.8726L27.5834 22.561C27.1861 25.1519 25.1529 27.1852 22.5619 27.5824L21.8736 27.6879C21.2364 27.7856 20.6323 28.0359 20.1126 28.4173L19.5513 28.8295C17.4383 30.3807 14.5629 30.3807 12.4499 28.8295L11.8885 28.4173C11.3689 28.0359 10.7648 27.7856 10.1276 27.6879L9.43923 27.5824C6.84824 27.1852 4.81503 25.1519 4.41779 22.561L4.31226 21.8726C4.21457 21.2354 3.96433 20.6313 3.58285 20.1117L3.17074 19.5503C1.61952 17.4373 1.61952 14.5619 3.17073 12.4489L3.58285 11.8876C3.96433 11.3679 4.21457 10.7638 4.31226 10.1266L4.41779 9.43825C4.81503 6.84727 6.84824 4.81405 9.43923 4.41682L10.1276 4.31128C10.7648 4.21359 11.3689 3.96335 11.8885 3.58187L12.4499 3.16976Z" fill="black"/>
</svg>
