<?xml version="1.0" encoding="utf-8"?>
<!-- Generator: Adobe Illustrator 28.0.0, SVG Export Plug-In . SVG Version: 6.00 Build 0)  -->
<svg version="1.1" id="Layer_1" xmlns="http://www.w3.org/2000/svg" xmlns:xlink="http://www.w3.org/1999/xlink" x="0px" y="0px"
	 width="32px" height="32px" viewBox="0 0 32 32" style="enable-background:new 0 0 32 32;" xml:space="preserve">
<style type="text/css">
	.st0{fill:#0D0F13;}
</style>
<path class="st0" d="M10.9961,22.0024c-0.5523,0-1.00001-0.4477-1.00001-1c0-0.5522,0.44771-1,1.00001-1c0.5523,0,1,0.4478,1,1
	C11.9961,21.5547,11.5484,22.0024,10.9961,22.0024z M25.7298,21.4872c0.1555-0.9248,0.5255-1.8007,1.0809-2.5573l0.4124-0.5616
	c1.0346-1.4094,1.0346-3.3272,0-4.7366l-0.1581-0.2152c-1.0681,0.9822-2.4959,1.5833-4.0623,1.5833
	c-1.6524,0-3.1505-0.6689-4.2349-1.7485c-1.091-1.0859-1.768-2.592-1.768-4.25436c0-1.09173,0.2924-2.11821,0.8037-3.00217
	c0.1457-0.25191,0.317-0.54491,0.5356-0.82074l0.1979-0.2732l-0.1687-0.12389c-1.4094-1.03464-3.3272-1.03464-4.7366,0
	l-0.5616,0.41232c-0.7566,0.55542-1.6325,0.92546-2.5573,1.08091L8.78975,4.54711c0.21081-0.05645,0.42627-0.10183,0.64573-0.13548
	l0.68872-0.10559c0.6375-0.09773,1.2419-0.34809,1.7618-0.72976l0.5616-0.41231c2.114-1.55196,4.9908-1.55196,7.1048,0
	l0.6372,0.46776c0.6276,0.4608,0.7656,1.34192,0.3087,1.97249l-0.346,0.47764l-0.1202,0.17165l-0.0703,0.09771
	c-0.0274,0.03952-0.0546,0.07814-0.0818,0.11687c-0.1082,0.15386-0.2176,0.30932-0.3444,0.52861
	c-0.34,0.58761-0.5348,1.26965-0.5348,2.00024c0,1.10866,0.4495,2.11046,1.1786,2.83626c0.7248,0.7215,1.7212,1.1657,2.8233,1.1657
	c0.892,0,1.6692-0.3466,2.3679-0.8011l0.8426-0.7254c0.6171-0.5517,1.5753-0.4517,2.0652,0.2156l0.5576,0.7596
	c1.552,2.114,1.552,4.9908,0,7.1048l-0.4123,0.5616c-0.3816,0.5199-0.632,1.1243-0.7297,1.7618l-0.1056,0.6887
	c-0.0337,0.2195-0.0791,0.4349-0.1355,0.6457L25.7298,21.4872z M4.54711,8.78975l1.72306,1.72305
	c-0.15545,0.9248-0.52549,1.8007-1.08091,2.5573l-0.41232,0.5616c-1.03464,1.4094-1.03464,3.3272,0,4.7366l0.41232,0.5616
	c0.57249,0.7798,0.94803,1.6865,1.09464,2.6427l0.10558,0.6887c0.26496,1.7281,1.62108,3.0843,3.34924,3.3492l0.68868,0.1056
	c0.9562,0.1466,1.8629,0.5221,2.6427,1.0946l0.5616,0.4124c1.4094,1.0346,3.3272,1.0346,4.7366,0l0.5616-0.4124
	c0.7566-0.5554,1.6325-0.9254,2.5573-1.0809l1.723,1.7231c-0.2108,0.0564-0.4262,0.1018-0.6457,0.1355l-0.6887,0.1056
	c-0.6375,0.0977-1.2419,0.3481-1.7618,0.7297l-0.5616,0.4123c-2.114,1.552-4.9908,1.552-7.1048,0l-0.5616-0.4123
	c-0.5199-0.3816-1.1243-0.632-1.7618-0.7297l-0.68871-0.1056c-2.59224-0.3975-4.62643-2.4317-5.02386-5.0239l-0.10559-0.6887
	c-0.09773-0.6375-0.34809-1.2419-0.72975-1.7618l-0.41232-0.5616c-1.55196-2.114-1.55196-4.9908,0-7.1048l0.41231-0.5616
	c0.38167-0.5199,0.63203-1.1243,0.72976-1.7618l0.10559-0.68872C4.44528,9.21602,4.49066,9.00056,4.54711,8.78975z M2.29289,3.70711
	c-0.39052-0.39053-0.39052-1.02369,0-1.41422c0.39053-0.39052,1.02369-0.39052,1.41422,0L29.7071,28.2929
	c0.3905,0.3905,0.3905,1.0237,0,1.4142c-0.3905,0.3905-1.0237,0.3905-1.4142,0L2.29289,3.70711z"/>
</svg>
