<svg width="32" height="32" viewBox="0 0 32 32" fill="none" xmlns="http://www.w3.org/2000/svg">
<path fill-rule="evenodd" clip-rule="evenodd" d="M16.0547 4.99262C16.0547 4.44117 16.5024 3.99414 17.0547 3.99414H25.0547C25.607 3.99414 26.0547 4.44117 26.0547 4.99262C26.0547 5.54406 25.607 5.99109 25.0547 5.99109H24.0527V7.98764H26.0547C27.1592 7.98764 28.0547 8.8817 28.0547 9.98459V22.9745C28.0547 22.9784 28.0547 22.9824 28.0547 22.9864V25.9094C28.0547 27.0089 27.1646 27.9015 26.0635 27.9063L6.06348 27.9941C4.95549 27.999 4.05469 27.1035 4.05469 25.9972V10.0743C4.05469 8.97678 4.94171 8.08496 6.04086 8.07738L18.0508 7.99448V5.99109H17.0547C16.5024 5.99109 16.0547 5.54406 16.0547 4.99262ZM20.0508 5.99109V7.99448C20.0508 9.09198 19.1637 9.9838 18.0646 9.99138L6.05469 10.0743V20.597C7.55511 19.6234 9.61001 19.8385 10.8653 21.2423L11.1259 21.5336C11.7144 22.1917 12.7848 22.145 13.3233 21.4179C14.6743 19.5934 17.4392 19.5675 18.7903 21.4239C19.3004 22.1248 20.3237 22.1882 20.9167 21.5557L21.2539 21.196C22.5301 19.8346 24.5582 19.6358 26.0547 20.588V9.98459H24.0527C22.9481 9.98459 22.0527 9.09052 22.0527 7.98764V5.99109H20.0508ZM26.0547 23.365L25.348 22.5839C24.646 21.808 23.4297 21.7973 22.714 22.5606L22.3768 22.9203C20.9254 24.4685 18.4208 24.3133 17.1723 22.5978C16.631 21.854 15.4943 21.8451 14.9314 22.6051C13.652 24.3329 11.0821 24.4829 9.63401 22.8637L9.37346 22.5723C8.68632 21.8039 7.48244 21.8037 6.795 22.5718L6.05469 23.399V25.9972L26.0547 25.9094V23.365Z" fill="#0D0F13"/>
</svg>
