<svg width="32" height="32" viewBox="0 0 32 32" fill="none" xmlns="http://www.w3.org/2000/svg">
<path d="M23.7651 27.9167L21.7738 25.9285L6.05469 25.9975V23.3993L6.795 22.5721C7.48244 21.804 8.68632 21.8042 9.37346 22.5726L9.63401 22.864C11.0821 24.4832 13.652 24.3332 14.9314 22.6054C15.4943 21.8454 16.631 21.8543 17.1723 22.5981C17.8252 23.4952 18.8216 23.9656 19.8313 23.9889L15.8821 20.0457C14.9124 20.0972 13.9606 20.5576 13.3233 21.4182C12.7848 22.1453 11.7144 22.192 11.1259 21.5339L10.8653 21.2426C9.61001 19.8388 7.55511 19.6237 6.05469 20.5973V10.2333L4.56322 8.74414C4.24689 9.09744 4.05469 9.56374 4.05469 10.0746V25.9975C4.05469 27.1038 4.95549 27.9993 6.06348 27.9944L23.7651 27.9167Z" fill="#0D0F13"/>
<path d="M12.3374 8.03391L18.0507 7.99448V5.99109H17.0546C16.5023 5.99109 16.0546 5.54406 16.0546 4.99262C16.0546 4.44117 16.5023 3.99414 17.0546 3.99414H25.0546C25.6069 3.99414 26.0546 4.44117 26.0546 4.99262C26.0546 5.54406 25.6069 5.99109 25.0546 5.99109H24.0526V7.98764H26.0546C27.1591 7.98764 28.0546 8.8817 28.0546 9.98459V23.7271L24.3326 20.0108C24.9352 20.0603 25.5278 20.2528 26.0546 20.5881V9.98459H24.0526C22.948 9.98459 22.0526 9.09052 22.0526 7.98764V5.99109H20.0507V7.99448C20.0507 9.09198 19.1636 9.9838 18.0645 9.99138L14.3237 10.0172L12.3374 8.03391Z" fill="#0D0F13"/>
<path fill-rule="evenodd" clip-rule="evenodd" d="M2.34758 2.29289C2.7381 1.90237 3.37128 1.90237 3.7618 2.29289L29.7618 28.2929C30.1523 28.6834 30.1523 29.3166 29.7618 29.7071C29.3713 30.0976 28.7381 30.0976 28.3476 29.7071L2.34758 3.70711C1.95706 3.31658 1.95706 2.68342 2.34758 2.29289Z" fill="#0D0F13"/>
</svg>
