<svg width="32" height="32" viewBox="0 0 32 32" fill="none" xmlns="http://www.w3.org/2000/svg">
<path d="M3.26228 2.29289C2.87176 1.90237 2.23859 1.90237 1.84807 2.29289C1.45754 2.68342 1.45754 3.31658 1.84807 3.70711L27.8481 29.7071C28.2386 30.0976 28.8718 30.0976 29.2623 29.7071C29.6528 29.3166 29.6528 28.6834 29.2623 28.2929L3.26228 2.29289Z" fill="black"/>
<path d="M17 3.99365C16.4477 3.99365 16 4.44137 16 4.99365C16 5.54594 16.4477 5.99365 17 5.99365H17.9961V8.00059L11.841 8.04314L13.8273 10.0295L18.0099 10.0005C19.1091 9.99294 19.9961 9.09976 19.9961 8.00059V5.99365L21.998 5.99365V7.99373C21.998 9.09831 22.8934 9.99373 23.998 9.99373H26V20.6139C25.341 20.1939 24.5789 19.9975 23.8234 20.0256L28 24.2022V9.99373C28 8.88916 27.1046 7.99373 26 7.99373H23.998V5.99365H25C25.5523 5.99365 26 5.54594 26 4.99365C26 4.44137 25.5523 3.99365 25 3.99365L17 3.99365Z" fill="black"/>
<path d="M6 10.6875V20.6228C7.50042 19.6477 9.55529 19.8632 10.8106 21.2691L11.0712 21.5609C11.6597 22.22 12.7302 22.1732 13.2686 21.445C13.8179 20.702 14.6009 20.2569 15.4276 20.1151L19.285 23.9725C18.451 23.8312 17.664 23.3786 17.1177 22.6267C16.5763 21.8817 15.4396 21.8728 14.8767 22.634C13.5973 24.3644 11.0274 24.5147 9.57935 22.893L9.31878 22.6012C8.63164 21.8316 7.42776 21.8314 6.74032 22.6006L6 23.4291V26.0308L21.2762 25.9636L23.2674 27.9549L6.00879 28.0308C4.9008 28.0356 4 27.1388 4 26.0308V10.0836C4 9.68594 4.11608 9.31528 4.31628 9.00374L6 10.6875Z" fill="black"/>
</svg>
