<svg width="32" height="32" viewBox="0 0 32 32" fill="none" xmlns="http://www.w3.org/2000/svg">
<path fill-rule="evenodd" clip-rule="evenodd" d="M6.00002 25.9975L21.7191 25.9285L23.7105 27.9167L6.00881 27.9944C4.90084 27.9993 4.00002 27.1038 4.00002 25.9975V10.0746C4.00002 9.56373 4.19222 9.09742 4.50856 8.74415L6.00002 10.2333V20.5973C7.50045 19.6237 9.55532 19.8388 10.8106 21.2426L11.0712 21.5339C11.6597 22.192 12.7301 22.1453 13.2686 21.4182C13.906 20.5576 14.8577 20.0972 15.8275 20.0457L19.7766 23.9889C18.7669 23.9656 17.7705 23.4952 17.1176 22.5981C16.5764 21.8543 15.4397 21.8454 14.8767 22.6054C13.5974 24.3332 11.0274 24.4832 9.57937 22.864L9.31881 22.5726C8.63168 21.8042 7.42776 21.804 6.74032 22.5721L6.00002 23.3993V25.9975Z" fill="#0D0F13"/>
<path fill-rule="evenodd" clip-rule="evenodd" d="M12.2827 8.03395L17.9961 7.99452V5.9911H17C16.4477 5.9911 16 5.54408 16 4.99263C16 4.44118 16.4477 3.99416 17 3.99416H25C25.5523 3.99416 26 4.44118 26 4.99263C26 5.54408 25.5523 5.9911 25 5.9911H23.9979V7.98762H26C27.1044 7.98762 28 8.88172 28 9.98463V23.7271L24.278 20.0108C24.8806 20.0603 25.4732 20.2528 26 20.5881V9.98463H23.9979C22.8933 9.98463 21.9979 9.09053 21.9979 7.98762V5.9911H19.9961V7.99452C19.9961 9.09199 19.109 9.98384 18.0098 9.99141L14.2691 10.0172L12.2827 8.03395Z" fill="#0D0F13"/>
<path fill-rule="evenodd" clip-rule="evenodd" d="M29.7072 28.2929C30.0976 28.6834 30.0976 29.3166 29.7072 29.7071C29.3167 30.0976 28.6834 30.0976 28.2929 29.7071L2.29292 3.7071C1.90236 3.3166 1.90236 2.68342 2.29292 2.29292C2.68342 1.90236 3.3166 1.90236 3.7071 2.29292L29.7072 28.2929Z" fill="#0D0F13"/>
</svg>
