<svg width="32" height="32" viewBox="0 0 32 32" fill="none" xmlns="http://www.w3.org/2000/svg">
<path fill-rule="evenodd" clip-rule="evenodd" d="M25.9634 21.7207C25.9876 21.4838 26 21.2433 26 21V20H28C29.1046 20 30 19.1046 30 18V12C30 10.8954 29.1046 10 28 10H26V5.25C26 4.55964 25.4404 4 24.75 4H8.24261L10.2426 6H24V19.7574L25.9634 21.7207ZM26 18V12H28V18H26Z" fill="#0D0F13"/>
<path d="M8 12.2427V21.0001C8 23.7615 10.2386 26.0001 13 26.0001H19C19.8023 26.0001 20.5605 25.8111 21.2325 25.4752L22.7004 26.9432C21.6269 27.613 20.3586 28.0001 19 28.0001H13C9.13401 28.0001 6 24.8661 6 21.0001V10.2427L8 12.2427Z" fill="#0D0F13"/>
<path fill-rule="evenodd" clip-rule="evenodd" d="M2.29289 2.29289C2.68342 1.90237 3.31658 1.90237 3.70711 2.29289L29.7071 28.2929C30.0976 28.6834 30.0976 29.3166 29.7071 29.7071C29.3166 30.0976 28.6834 30.0976 28.2929 29.7071L2.29289 3.70711C1.90237 3.31658 1.90237 2.68342 2.29289 2.29289Z" fill="#0D0F13"/>
</svg>
