<svg width="32" height="32" viewBox="0 0 32 32" fill="none" xmlns="http://www.w3.org/2000/svg">
<path fill-rule="evenodd" clip-rule="evenodd" d="M4 6C4 4.89543 4.89543 4 6 4H13C14.1046 4 15 4.89543 15 6V17C15 18.1046 14.1046 19 13 19H6C4.89543 19 4 18.1046 4 17V6ZM13 6H6V17H13V6ZM17 6C17 4.89543 17.8954 4 19 4H26C27.1046 4 28 4.89543 28 6V12C28 13.1046 27.1046 14 26 14H19C17.8954 14 17 13.1046 17 12V6ZM26 6H19V12H26V6ZM17 18C17 16.8954 17.8954 16 19 16H26C27.1046 16 28 16.8954 28 18V26C28 27.1046 27.1046 28 26 28H19C17.8954 28 17 27.1046 17 26V18ZM26 18H19V26H26V18ZM4 23C4 21.8954 4.89543 21 6 21H13C14.1046 21 15 21.8954 15 23V26C15 27.1046 14.1046 28 13 28H6C4.89543 28 4 27.1046 4 26V23ZM13 23H6V26H13V23Z" fill="#0D0F13"/>
</svg>
