<svg xmlns="http://www.w3.org/2000/svg" fill="none" viewBox="0 0 33 32"><path fill="currentFill" fill-rule="evenodd" d="M13.5 6h-7v11h7V6Zm2 20v-3a2 2 0 0 0-2-2h-7a2 2 0 0 0-2 2v3c0 1.1.9 2 2 2h7a2 2 0 0 0 2-2Zm0-20a2 2 0 0 0-2-2h-7a2 2 0 0 0-2 2v11c0 1.1.9 2 2 2h7a2 2 0 0 0 2-2V6Zm-9 20h7v-3h-7v3Zm20-20h-7v6h7V6Zm0 12h-7v8h7v-8Zm-9-12c0-1.1.9-2 2-2h7a2 2 0 0 1 2 2v6a2 2 0 0 1-2 2h-7a2 2 0 0 1-2-2V6Zm2 10a2 2 0 0 0-2 2v8c0 1.1.9 2 2 2h7a2 2 0 0 0 2-2v-8a2 2 0 0 0-2-2h-7Z" clip-rule="evenodd"/></svg>