<svg width="32" height="32" viewBox="0 0 32 32" fill="none" xmlns="http://www.w3.org/2000/svg">
<path fill-rule="evenodd" clip-rule="evenodd" d="M3.20711 2.29289C2.81658 1.90237 2.18342 1.90237 1.79289 2.29289C1.40237 2.68342 1.40237 3.31658 1.79289 3.70711L27.7929 29.7071C28.1834 30.0976 28.8166 30.0976 29.2071 29.7071C29.5976 29.3166 29.5976 28.6834 29.2071 28.2929L3.20711 2.29289ZM29.4788 20.2732C29.3828 21.7627 28.9674 23.209 28.2665 24.5161L26.7728 23.0229C27.1767 22.117 27.4186 21.1428 27.483 20.1446C27.5821 18.6077 27.2564 17.0732 26.5417 15.7088C25.827 14.3445 24.7508 13.2029 23.4307 12.409C22.4324 11.8086 21.3238 11.4245 20.1763 11.2763C20.1401 11.2717 20.1039 11.2672 20.0676 11.263C20.0377 11.2596 20.0078 11.2563 19.978 11.2531C19.9476 11.2499 19.9171 11.2469 19.8866 11.244C19.3368 11.1923 18.9329 10.7049 18.9847 10.1552C19.0364 9.60551 19.524 9.20182 20.0739 9.2535C20.1116 9.25705 20.1492 9.26079 20.1869 9.26475C20.224 9.26864 20.261 9.27273 20.298 9.27702C20.3428 9.28222 20.3877 9.28772 20.4325 9.2935C21.8531 9.47694 23.2257 9.9525 24.4617 10.6958C26.0961 11.6788 27.4286 13.0922 28.3135 14.7813C29.1984 16.4705 29.6015 18.3704 29.4788 20.2732ZM24.027 28.7604L22.534 27.268L22.4707 27.296C21.0596 27.914 19.5056 28.1321 17.9788 27.9265C16.452 27.7209 15.0111 27.0995 13.8139 26.1303C12.869 25.3655 12.1046 24.4073 11.5694 23.3245C11.5533 23.2921 11.5375 23.2595 11.5219 23.2268C11.2836 22.7287 10.6866 22.518 10.1883 22.7562C9.69 22.9943 9.47927 23.5912 9.7175 24.0893C9.7369 24.1297 9.7565 24.1701 9.7764 24.2103C10.439 25.5508 11.3854 26.7371 12.5552 27.6841C14.0376 28.884 15.8215 29.6534 17.7118 29.9079C19.6021 30.1625 21.5261 29.8924 23.2732 29.1274C23.5299 29.015 23.7813 28.8925 24.027 28.7604ZM13.9678 10.2224L16.2863 12.54L16.8911 11.8278C17.4287 11.1946 16.9786 10.2224 16.1478 10.2224H13.9678ZM12.7084 3.16346L11.5092 7.76462L10.0746 6.33047L10.1048 6.21439L10.0376 6.2935L8.79609 5.05241L11.1084 2.33163C11.745 1.58251 12.9563 2.21232 12.7084 3.16346ZM12.3906 17.128L11.149 15.8869L8.52827 18.9733L9.6802 14.5588C9.6903 14.5199 9.6982 14.481 9.704 14.4423L8.47415 13.2129H4.1571L6.14005 10.8796L4.89853 9.63855L1.73871 13.3566C1.20068 13.9897 1.65078 14.9623 2.48176 14.9623H7.76634L5.92229 22.0293C5.67401 22.9808 6.88603 23.6107 7.52254 22.8611L12.3906 17.128Z" fill="#0D0F13"/>
</svg>
