<svg width="32" height="32" viewBox="0 0 32 32" fill="none" xmlns="http://www.w3.org/2000/svg">
<path fill-rule="evenodd" clip-rule="evenodd" d="M29.9226 25.68C29.9732 25.4615 30 25.2339 30 25V11C30 9.34315 28.6569 8 27 8H22V6C22 4.89543 21.1046 4 20 4H12C10.9731 4 10.1269 4.77396 10.013 5.7704L12 7.75736V6H20V8H12.2426L14.2426 10H27C27.5523 10 28 10.4477 28 11V15H19.2426L21.2426 17H28V23.7574L29.9226 25.68ZM16.7574 21H14C12.8954 21 12 20.1046 12 19V17H4V25C4 25.5523 4.44772 26 5 26H21.7574L23.7574 28H5C3.34315 28 2 26.6569 2 25V11C2 9.71357 2.8097 8.61626 3.94727 8.18991L5.75736 10H5C4.44772 10 4 10.4477 4 11V15H10.7574L14 18.2426V19H14.7574L16.7574 21Z" fill="#0D0F13"/>
<path fill-rule="evenodd" clip-rule="evenodd" d="M2.29289 2.29289C2.68342 1.90237 3.31658 1.90237 3.70711 2.29289L29.7071 28.2929C30.0976 28.6834 30.0976 29.3166 29.7071 29.7071C29.3166 30.0976 28.6834 30.0976 28.2929 29.7071L2.29289 3.70711C1.90237 3.31658 1.90237 2.68342 2.29289 2.29289Z" fill="#0D0F13"/>
</svg>
