<svg width="32" height="32" viewBox="0 0 32 32" fill="none" xmlns="http://www.w3.org/2000/svg">
<path fill-rule="evenodd" clip-rule="evenodd" d="M22 8V6C22 4.89543 21.1045 4 20 4H12C10.8954 4 10 4.89543 10 6V8H5C3.34315 8 2 9.34315 2 11V25C2 26.6569 3.34315 28 5 28H27C28.6568 28 30 26.6569 30 25V11C30 9.34315 28.6568 8 27 8H22ZM20 8V6H12V8H20ZM4 11C4 10.4477 4.44772 10 5 10H27C27.5523 10 28 10.4477 28 11V15H4V11ZM4 17V25C4 25.5523 4.44772 26 5 26H27C27.5523 26 28 25.5523 28 25V17H20V19C20 20.1046 19.1045 21 18 21H14C12.8954 21 12 20.1046 12 19V17H4ZM14 17H18V19H14V17Z" fill="#0D0F13"/>
</svg>
