<svg width="32" height="32" viewBox="0 0 32 32" fill="none" xmlns="http://www.w3.org/2000/svg">
<path fill-rule="evenodd" clip-rule="evenodd" d="M11.6055 2.33066C12.2421 1.58154 13.4534 2.21135 13.2055 3.16249L11.3658 10.2214H16.6449C17.4757 10.2214 17.9258 11.1936 17.3882 11.8268L8.01961 22.8601C7.3831 23.6097 6.17108 22.9798 6.41936 22.0283L8.26341 14.9613H2.97883C2.14785 14.9613 1.69775 13.9887 2.23578 13.3556L11.6055 2.33066ZM10.6019 6.21342L4.65417 13.2119H9.13707C9.84096 13.2119 10.355 13.8769 10.1773 14.5578L9.02534 18.9723L14.9705 11.9708H10.4924C9.7886 11.9708 9.27466 11.306 9.45209 10.6252L10.6019 6.21342ZM19.1807 14.4947C19.733 14.4947 20.1807 14.9423 20.1807 15.4944V19.493H23.1807C23.733 19.493 24.1807 19.9406 24.1807 20.4927C24.1807 21.0447 23.733 21.4923 23.1807 21.4923H19.9307C18.9642 21.4923 18.1807 20.7091 18.1807 19.7429V15.4944C18.1807 14.9423 18.6284 14.4947 19.1807 14.4947ZM14.311 26.1293C13.3661 25.3645 12.6017 24.4063 12.0665 23.3236C12.0504 23.2911 12.0346 23.2585 12.019 23.2258C11.7807 22.7277 11.1837 22.517 10.6854 22.7552C10.1871 22.9933 9.97634 23.5902 10.2146 24.0883C10.234 24.1287 10.2536 24.1691 10.2735 24.2093C10.9361 25.5498 11.8825 26.7361 13.0523 27.6831C14.5347 28.883 16.3186 29.6524 18.2089 29.9069C20.0992 30.1615 22.0232 29.8914 23.7703 29.1264C25.5174 28.3613 27.0205 27.1306 28.1149 25.569C29.2094 24.0074 29.8532 22.175 29.9759 20.2722C30.0986 18.3694 29.6955 16.4695 28.8106 14.7803C27.9257 13.0912 26.5932 11.6778 24.9588 10.6948C23.7228 9.95153 22.3502 9.47598 20.9296 9.29254C20.8848 9.28675 20.8399 9.28125 20.7951 9.27605C20.7581 9.27177 20.7211 9.26767 20.684 9.26377C20.6463 9.25982 20.6087 9.25608 20.571 9.25254C20.0211 9.20085 19.5335 9.60454 19.4818 10.1542C19.43 10.7039 19.8339 11.1914 20.3837 11.243C20.4142 11.2459 20.4447 11.2489 20.4751 11.2521C20.5049 11.2553 20.5348 11.2586 20.5647 11.262C20.601 11.2662 20.6372 11.2707 20.6734 11.2753C21.8209 11.4235 22.9295 11.8076 23.9278 12.408C25.2479 13.2019 26.3241 14.3435 27.0388 15.7078C27.7535 17.0722 28.0792 18.6067 27.9801 20.1436C27.881 21.6805 27.361 23.1605 26.477 24.4218C25.5929 25.6831 24.379 26.6771 22.9678 27.295C21.5567 27.913 20.0027 28.1311 18.4759 27.9255C16.9491 27.7199 15.5082 27.0985 14.311 26.1293Z" fill="#0D0F13"/>
</svg>
