<svg width="32" height="32" viewBox="0 0 32 32" fill="none" xmlns="http://www.w3.org/2000/svg">
<path d="M19.9312 21.4923C18.9647 21.4923 18.1812 20.7091 18.1812 19.7429V15.4944C18.1812 14.9423 18.6289 14.4947 19.1812 14.4947C19.7335 14.4947 20.1812 14.9423 20.1812 15.4944V19.493H23.1812C23.7335 19.493 24.1812 19.9406 24.1812 20.4927C24.1812 21.0447 23.7335 21.4923 23.1812 21.4923L19.9312 21.4923Z" fill="#0D0F13"/>
<path d="M16.6454 10.2214C17.4762 10.2214 17.9263 11.1936 17.3887 11.8268L8.02008 22.8601C7.38361 23.6097 6.17157 22.9798 6.41986 22.0283L8.26392 14.9613H2.97931C2.14832 14.9613 1.69824 13.9887 2.23627 13.3556L11.606 2.33067C12.2426 1.58152 13.4539 2.21135 13.206 3.16246L11.3663 10.2214L16.6454 10.2214ZM9.02582 18.9723L14.971 11.9708H10.4929C9.78906 11.9708 9.27515 11.306 9.45258 10.6252L10.6024 6.21343L4.65467 13.2119H9.13758C9.84144 13.2119 10.3555 13.8769 10.1778 14.5578L9.02582 18.9723Z" fill="#0D0F13"/>
<path d="M28.8111 14.7803C29.696 16.4695 30.0991 18.3694 29.9764 20.2722C29.8537 22.175 29.2099 24.0074 28.1154 25.5689C27.021 27.1306 25.5179 28.3613 23.7708 29.1264C22.0237 29.8914 20.0997 30.1615 18.2094 29.9069C16.3191 29.6524 14.5352 28.883 13.0528 27.6831C11.883 26.7361 10.9366 25.5498 10.274 24.2093C10.2541 24.1691 10.2345 24.1287 10.2151 24.0883C9.97681 23.5902 10.1876 22.9933 10.6859 22.7552C11.1842 22.517 11.7812 22.7277 12.0195 23.2257C12.0351 23.2584 12.0509 23.291 12.067 23.3236C12.6022 24.4063 13.3666 25.3645 14.3115 26.1292C15.5087 27.0985 16.9496 27.7199 18.4764 27.9254C20.0032 28.1311 21.5572 27.913 22.9683 27.2949C24.3795 26.6771 25.5934 25.6831 26.4775 24.4218C27.3615 23.1605 27.8816 21.6804 27.9806 20.1436C28.0797 18.6066 27.7541 17.0722 27.0393 15.7078C26.3246 14.3435 25.2484 13.2019 23.9283 12.408C22.93 11.8076 21.8214 11.4235 20.6739 11.2753C20.6377 11.2707 20.6015 11.2661 20.5652 11.262C20.5353 11.2586 20.5054 11.2553 20.4756 11.252C20.4452 11.2489 20.4147 11.2459 20.3843 11.2429C19.8345 11.1914 19.4305 10.7039 19.4823 10.1541C19.534 9.60451 20.0216 9.20082 20.5715 9.25252C20.6092 9.25606 20.6468 9.25978 20.6845 9.26375C20.7217 9.2676 20.7586 9.27175 20.7956 9.27602C20.8404 9.28121 20.8853 9.2867 20.9301 9.2925C22.3507 9.47591 23.7234 9.9515 24.9593 10.6948C26.5937 11.6778 27.9262 13.0912 28.8111 14.7803Z" fill="#0D0F13"/>
</svg>
