<svg width="32" height="32" viewBox="0 0 32 32" fill="none" xmlns="http://www.w3.org/2000/svg">
<path d="M3.70711 2.29289C3.31658 1.90237 2.68342 1.90237 2.29289 2.29289C1.90237 2.68342 1.90237 3.31658 2.29289 3.70711L28.2929 29.7071C28.6834 30.0976 29.3166 30.0976 29.7071 29.7071C30.0976 29.3166 30.0976 28.6834 29.7071 28.2929L3.70711 2.29289Z" fill="#0D0F13"/>
<path fill-rule="evenodd" clip-rule="evenodd" d="M27.6382 12.1072L23.0944 18.8518L21.6536 17.4109L25.2989 12H22.0145L20.6192 16.3765L19.0275 14.7848L19.9153 12H16.2426L14.2426 10H19.8141L18.1177 6H13.8731L12.7921 8.54942L11.2666 7.02392L11.7007 6H10.2426L8.41087 4.16823C8.66029 4.05888 8.93305 4 9.21377 4H22.7859C23.4679 4 24.1028 4.34747 24.4704 4.92184L27.664 9.91154C28.0939 10.5831 28.0837 11.4459 27.6382 12.1072ZM20.2901 6L21.9865 10H25.3461L22.7859 6H20.2901Z" fill="#0D0F13"/>
<path d="M15.9993 24.2826L14.1046 18.3473L11.0208 15.2634L12.9311 21.2478L6.70113 12H7.75736L4.85613 9.09878L4.33594 9.91161C3.90616 10.5832 3.91632 11.4459 4.36179 12.1071L14.5593 27.2445C14.5747 27.2673 14.591 27.2894 14.6081 27.3108C14.7686 27.5112 14.9712 27.6842 15.2111 27.8076C15.4522 27.9315 15.721 28 15.9998 28C16.2786 28 16.5475 27.9315 16.7885 27.8076C17.0284 27.6842 17.231 27.5112 17.3915 27.3108C17.4087 27.2894 17.4249 27.2673 17.4403 27.2445L19.6789 23.9216L16.9761 21.2188L15.9993 24.2826Z" fill="#0D0F13"/>
</svg>
