<svg width="32" height="32" viewBox="0 0 32 32" fill="none" xmlns="http://www.w3.org/2000/svg">
<path fill-rule="evenodd" clip-rule="evenodd" d="M27.6819 9.91089C28.1127 10.5828 28.1025 11.4462 27.6561 12.1078L17.4407 27.2452C17.4253 27.2679 17.409 27.29 17.3918 27.3115C17.2311 27.5119 17.0283 27.6847 16.7883 27.8079C16.5471 27.9317 16.2783 28 15.9996 28C15.7209 28 15.452 27.9317 15.2109 27.8079C14.971 27.6847 14.7681 27.5119 14.6074 27.3115C14.5902 27.29 14.5739 27.2679 14.5585 27.2451L4.34352 12.1078C3.89705 11.4462 3.88685 10.5828 4.31758 9.91095L7.51631 4.92126C7.8846 4.3468 8.52016 4 9.20192 4H22.7973C23.4791 4 24.1146 4.34674 24.4828 4.9212L27.6819 9.91089ZM13.8677 6L12.1686 10H19.822L18.1227 6H13.8677ZM9.20003 6.00067L6.63618 10H9.99562L11.6948 6H9.20192L9.20003 6.00067ZM6.68355 12L12.93 21.2564L9.97017 12H6.68355ZM15.999 24.2877L19.9235 12H12.0699L15.999 24.2877ZM19.0643 21.2638L25.316 12H22.023L19.0643 21.2638ZM21.995 10H25.3633L22.7992 6.00067L22.7976 6H20.2957L21.995 10Z" fill="#0D0F13"/>
</svg>
