<svg width="32" height="32" viewBox="0 0 32 32" fill="none" xmlns="http://www.w3.org/2000/svg">
<path fill-rule="evenodd" clip-rule="evenodd" d="M7.5168 4.92127C7.88507 4.3468 8.52061 4 9.20239 4H22.7977C23.4795 4 24.115 4.34677 24.4833 4.92119L27.6824 9.91089C28.1131 10.5828 28.103 11.4462 27.6565 12.1078L17.4411 27.2452C17.4258 27.2679 17.4095 27.29 17.3923 27.3115C17.2315 27.5119 17.0287 27.6847 16.7887 27.8079C16.5476 27.9317 16.2787 28 16.0001 28C15.7214 28 15.4525 27.9317 15.2114 27.8079C14.9714 27.6847 14.7686 27.5119 14.6078 27.3115C14.5906 27.29 14.5743 27.2679 14.559 27.2451L4.34397 12.1078C3.89755 11.4462 3.88735 10.5828 4.31808 9.91095L7.5168 4.92127ZM9.20053 6.00065L6.63668 10H9.99611L11.6952 6H9.20239L9.20053 6.00065ZM13.8681 6L12.1691 10H19.8224L18.1232 6H13.8681ZM20.2961 6L21.9954 10H25.3637L22.7996 6.00065L22.798 6.00001L20.2961 6ZM25.3164 12L19.0648 21.2638L22.0234 12H25.3164ZM19.9239 12L15.9995 24.2877L12.0704 12H19.9239ZM9.97063 12L12.9304 21.2564L6.68403 12H9.97063Z" fill="#0D0F13"/>
</svg>
