<svg xmlns="http://www.w3.org/2000/svg" viewBox="0 0 28 28"> 
    <path fill="currentColor" fill-rule="evenodd" d="m8,2c0-1.1.9-2,2-2h7.59c.53,0,1.04.21,1.41.59l8.41,8.41c.38.38.59.88.59,1.41v15.59c0,1.1-.9,2-2,2h-3c-.55,0-1-.45-1-1s.45-1,1-1h3v-15h-7c-1.1,0-2-.9-2-2V2h-7v14c0,.55-.45,1-1,1s-1-.45-1-1V2Zm11,1.41v5.59h5.59l-5.59-5.59ZM3.98,19.48c.51,0,.97.12,1.38.35.41.23.72.56.95.97.23.42.35.89.35,1.42s-.12,1-.35,1.42c-.22.42-.54.74-.95.97s-.87.35-1.38.35H1.69v3.05H0v-8.52h3.98Zm.97,2.62c0-.42-.12-.74-.37-.96-.25-.22-.57-.34-.97-.34h-1.92v2.83h1.92c.39,0,.71-.11.96-.34.26-.22.38-.54.38-.96v-.24Zm6.7-2.62c.51,0,.97.12,1.38.35.41.23.72.56.95.97.23.42.35.89.35,1.42s-.12,1-.35,1.42c-.22.42-.54.74-.95.97s-.87.35-1.38.35h-2.29v3.05h-1.69v-8.52h3.98Zm.97,2.62c0-.42-.12-.74-.37-.96-.25-.22-.57-.34-.97-.34h-1.92v2.83h1.92c.39,0,.71-.11.96-.34.26-.22.38-.54.38-.96v-.24Zm4.48-1.3h-2.4v-1.32h6.52v1.32h-2.42v7.2h-1.69v-7.2Z"/>
</svg>
