<svg width="32" height="32" viewBox="0 0 32 32" fill="none" xmlns="http://www.w3.org/2000/svg">
<path fill-rule="evenodd" clip-rule="evenodd" d="M26 21.7574V12.4142C26 11.8838 25.7893 11.3751 25.4142 11L17 2.58579C16.6249 2.21071 16.1162 2 15.5858 2H8C7.50949 2 7.06021 2.17658 6.71229 2.46965L8.24264 4H15V10.7574L17.2426 13H24V19.7574L26 21.7574ZM17 11V5.41421L22.5858 11H17Z" fill="#0D0F13"/>
<path d="M8 12.2426L6 10.2426V13C6 13.5523 6.44772 14 7 14C7.55228 14 8 13.5523 8 13V12.2426Z" fill="#0D0F13"/>
<path d="M23.7574 28L25.2877 29.5304C24.9398 29.8234 24.4905 30 24 30H17C16.4477 30 16 29.5523 16 29C16 28.4477 16.4477 28 17 28H23.7574Z" fill="#0D0F13"/>
<path d="M11 17C11 16.4477 10.5523 16 10 16C9.44772 16 9 16.4477 9 17V21H5C4.44772 21 4 21.4477 4 22C4 22.5523 4.44772 23 5 23H9V27C9 27.5523 9.44772 28 10 28C10.5523 28 11 27.5523 11 27V23H15C15.5523 23 16 22.5523 16 22C16 21.4477 15.5523 21 15 21H11V17Z" fill="#0D0F13"/>
<path fill-rule="evenodd" clip-rule="evenodd" d="M2.29289 2.29289C2.68342 1.90237 3.31658 1.90237 3.70711 2.29289L29.7071 28.2929C30.0976 28.6834 30.0976 29.3166 29.7071 29.7071C29.3166 30.0976 28.6834 30.0976 28.2929 29.7071L2.29289 3.70711C1.90237 3.31658 1.90237 2.68342 2.29289 2.29289Z" fill="#0D0F13"/>
</svg>
