<svg xmlns="http://www.w3.org/2000/svg" viewBox="0 0 28 28" fill="none"> 
    <path fill="currentColor" fill-rule="evenodd" d="m8,2c0-1.1.9-2,2-2h7.59c.53,0,1.04.21,1.41.59l8.41,8.41c.38.37.59.88.59,1.41v15.59c0,1.1-.9,2-2,2h-3c-.55,0-1-.45-1-1s.45-1,1-1h3v-15h-7c-1.1,0-2-.9-2-2V2h-7v14c0,.55-.45,1-1,1s-1-.45-1-1V2Zm11,1.41v5.59h5.59s-5.59-5.59-5.59-5.59ZM3.98,19.48c.52,0,.98.12,1.38.35.41.23.73.55.95.97.23.42.35.89.35,1.42s-.12,1-.35,1.41c-.22.42-.54.74-.95.97-.4.24-.86.35-1.38.35H1.7v3.05H0v-8.52h3.98Zm.98,2.62c0-.43-.13-.75-.38-.96-.27-.23-.62-.35-.97-.34h-1.91v2.83h1.92c.4,0,.71-.11.96-.33.26-.23.39-.55.39-.96v-.24h0Zm5.92-2.62c.8,0,1.48.18,2.04.53.57.35,1,.85,1.28,1.49s.43,1.38.43,2.24-.15,1.6-.43,2.23c-.26.62-.71,1.14-1.28,1.5-.56.35-1.24.53-2.04.53h-3.21v-8.52h3.21Zm1.97,3.9c0-.8-.17-1.43-.5-1.88-.34-.47-.89-.73-1.47-.7h-1.52v5.88h1.52c.57.04,1.13-.22,1.47-.68.33-.47.5-1.1.5-1.9,0,0,0-.72,0-.72Zm4.56-2.58v2.27h3.9v1.33h-3.9v3.6h-1.69v-8.52h5.8v1.32h-4.11Z" clip-rule="evenodd"/>
</svg>