<svg width="32" height="32" viewBox="0 0 32 32" fill="none" xmlns="http://www.w3.org/2000/svg">
<path fill-rule="evenodd" clip-rule="evenodd" d="M26 12.4142V21.7574L24 19.7574V13H17.2426L15 10.7574V4L8.24264 4L6.71229 2.46965C7.06021 2.17658 7.50949 2 8 2H15.5858C16.1162 2 16.6249 2.21071 17 2.58579L25.4142 11C25.7893 11.3751 26 11.8838 26 12.4142ZM17 5.41421V11H22.5858L17 5.41421Z" fill="black"/>
<path d="M6 10.2426L8 12.2426V13C8 13.5523 7.55228 14 7 14C6.44772 14 6 13.5523 6 13V10.2426Z" fill="black"/>
<path d="M23.7574 28L25.2877 29.5304C24.9398 29.8234 24.4905 30 24 30H17C16.4477 30 16 29.5523 16 29C16 28.4477 16.4477 28 17 28H23.7574Z" fill="black"/>
<path d="M10 16C10.5523 16 11 16.4477 11 17V21H15C15.5523 21 16 21.4477 16 22C16 22.5523 15.5523 23 15 23H11V27C11 27.5523 10.5523 28 10 28C9.44772 28 9 27.5523 9 27V23H5C4.44772 23 4 22.5523 4 22C4 21.4477 4.44772 21 5 21H9V17C9 16.4477 9.44772 16 10 16Z" fill="black"/>
<path d="M3.70711 2.29289C3.31658 1.90237 2.68342 1.90237 2.29289 2.29289C1.90237 2.68342 1.90237 3.31658 2.29289 3.70711L28.2929 29.7071C28.6834 30.0976 29.3166 30.0976 29.7071 29.7071C30.0976 29.3166 30.0976 28.6834 29.7071 28.2929L3.70711 2.29289Z" fill="black"/>
</svg>
