<svg xmlns="http://www.w3.org/2000/svg" viewBox="0 0 28 28" fill="none">
    <path fill="currentColor" fill-rule="evenodd" d="M8 2c0-1.1.9-2 2-2h7.59A2 2 0 0 1 19 .59L27.41 9a2 2 0 0 1 .59 1.41V26a2 2 0 0 1-2 2h-3a1 1 0 1 1 0-2h3V11h-7a2 2 0 0 1-2-2V2h-7v14a1 1 0 1 1-2 0V2Zm11 1.41V9h5.59L19 3.41Z" clip-rule="evenodd"/>
    <path fill="currentColor" d="M3.98 19.48c.52 0 .98.12 1.38.35.41.23.73.55.95.97.23.42.35.89.35 1.42 0 .52-.12 1-.35 1.41-.22.42-.54.74-.95.97-.4.24-.86.35-1.38.35H1.7V28H0v-8.52h3.98Zm.98 2.62c0-.43-.13-.75-.38-.96a1.4 1.4 0 0 0-.97-.34H1.7v2.83h1.92c.4 0 .71-.11.96-.33.26-.23.39-.55.39-.96v-.24ZM10.88 19.48c.8 0 1.48.18 2.04.53.57.35 1 .85 1.28 1.49s.43 1.38.43 2.24c0 .85-.15 1.6-.43 2.23a3.3 3.3 0 0 1-1.28 1.5c-.56.35-1.24.53-2.04.53H7.67v-8.52h3.21Zm1.97 3.9c0-.8-.17-1.43-.5-1.88a1.7 1.7 0 0 0-1.47-.7H9.36v5.88h1.52a1.7 1.7 0 0 0 1.47-.68c.33-.47.5-1.1.5-1.9v-.72ZM17.41 20.8v2.27h3.9v1.33h-3.9V28h-1.69v-8.52h5.8v1.32h-4.1Z"/>
</svg>