<svg width="32" height="32" viewBox="0 0 32 32" fill="none" xmlns="http://www.w3.org/2000/svg">
<path fill-rule="evenodd" clip-rule="evenodd" d="M6.5 4C6.5 2.89543 7.39543 2 8.5 2H16.0858C16.6162 2 17.1249 2.21071 17.5 2.58579L25.9142 11C26.2893 11.3751 26.5 11.8838 26.5 12.4142V28C26.5 29.1046 25.6046 30 24.5 30H17.5C16.9477 30 16.5 29.5523 16.5 29C16.5 28.4477 16.9477 28 17.5 28H24.5V13H17.5C16.3954 13 15.5 12.1046 15.5 11V4H8.5V13C8.5 13.5523 8.05228 14 7.5 14C6.94772 14 6.5 13.5523 6.5 13V4ZM17.5 5.41421V11H23.0858L17.5 5.41421ZM10.5 16C11.0523 16 11.5 16.4477 11.5 17V21H15.5C16.0523 21 16.5 21.4477 16.5 22C16.5 22.5523 16.0523 23 15.5 23H11.5V27C11.5 27.5523 11.0523 28 10.5 28C9.94772 28 9.5 27.5523 9.5 27V23H5.5C4.94772 23 4.5 22.5523 4.5 22C4.5 21.4477 4.94772 21 5.5 21H9.5V17C9.5 16.4477 9.94772 16 10.5 16Z" fill="#0D0F13"/>
</svg>
