<svg width="32" height="32" viewBox="0 0 32 32" fill="none" xmlns="http://www.w3.org/2000/svg">
<path d="M10 17V27M15 22L5 22" stroke="black" stroke-width="2" stroke-linecap="round" stroke-linejoin="round"/>
<path fill-rule="evenodd" clip-rule="evenodd" d="M26 21.7574V12.4142C26 11.8838 25.7893 11.3751 25.4142 11L17 2.58579C16.6249 2.21071 16.1162 2 15.5858 2H8C7.50949 2 7.06021 2.17658 6.71229 2.46965L8.24264 4L15.5858 4L24 12.4142V19.7574L26 21.7574ZM8 12.2426L6 10.2426V13C6 13.5523 6.44772 14 7 14C7.55228 14 8 13.5523 8 13V12.2426ZM23.7574 28L25.2877 29.5304C24.9398 29.8234 24.4905 30 24 30H17C16.4477 30 16 29.5523 16 29C16 28.4477 16.4477 28 17 28H23.7574Z" fill="black"/>
<path fill-rule="evenodd" clip-rule="evenodd" d="M17.2426 13H24C24.5523 13 25 12.5523 25 12C25 11.4477 24.5523 11 24 11H17V4C17 3.44772 16.5523 3 16 3C15.4477 3 15 3.44772 15 4V10.7574L17.2426 13Z" fill="black"/>
<path fill-rule="evenodd" clip-rule="evenodd" d="M2.29289 2.29289C2.68342 1.90237 3.31658 1.90237 3.70711 2.29289L29.7071 28.2929C30.0976 28.6834 30.0976 29.3166 29.7071 29.7071C29.3166 30.0976 28.6834 30.0976 28.2929 29.7071L2.29289 3.70711C1.90237 3.31658 1.90237 2.68342 2.29289 2.29289Z" fill="black"/>
</svg>
