<svg xmlns="http://www.w3.org/2000/svg" viewBox="0 0 32 32">
    <path d="M10 4c0-1.1.9-2 2-2h7.59c.53 0 1.04.21 1.41.59L29.41 11c.38.38.59.88.59 1.41V28a2 2 0 0 1-2 2h-3c-.55 0-1-.45-1-1s.45-1 1-1h3V13h-7a2 2 0 0 1-2-2V4h-7v14c0 .55-.45 1-1 1s-1-.45-1-1V4Zm11 1.41V11h5.59L21 5.41ZM5.98 21.48c.51 0 .97.12 1.38.35.41.23.72.56.95.97.23.42.35.89.35 1.42s-.12 1-.35 1.42c-.22.42-.54.74-.95.97s-.87.35-1.38.35H3.69v3.05H2v-8.52h3.98Zm.97 2.62c0-.42-.12-.74-.37-.96a1.41 1.41 0 0 0-.97-.34H3.69v2.83h1.92c.39 0 .71-.11.96-.34.26-.22.38-.54.38-.96v-.24Zm6.7-2.62c.51 0 .97.12 1.38.35.41.23.72.56.95.97.23.42.35.89.35 1.42s-.12 1-.35 1.42c-.22.42-.54.74-.95.97s-.87.35-1.38.35h-2.29v3.05H9.67v-8.52h3.98Zm.97 2.62c0-.42-.12-.74-.37-.96a1.41 1.41 0 0 0-.97-.34h-1.92v2.83h1.92c.39 0 .71-.11.96-.34.26-.22.38-.54.38-.96v-.24Zm4.48-1.3h-2.4v-1.32h6.52v1.32H20.8V30h-1.69v-7.2Z" fill="currentColor" fill-rule="evenodd"/>
</svg>
