<svg width="33" height="33" viewBox="0 0 33 33" fill="none" xmlns="http://www.w3.org/2000/svg">
<rect width="32" height="32" fill="white"/>
<path d="M32 3L-1.48639e-06 3" stroke="#FAFAFA" stroke-width="0.05"/>
<path d="M32 5L-1.48639e-06 5" stroke="#FAFAFA" stroke-width="0.05"/>
<path d="M32 7L-1.48639e-06 7" stroke="#FAFAFA" stroke-width="0.05"/>
<path d="M32 9L-1.48639e-06 9" stroke="#FAFAFA" stroke-width="0.05"/>
<path d="M32 11L-1.48639e-06 11" stroke="#FAFAFA" stroke-width="0.05"/>
<path d="M32 13L-1.48639e-06 13" stroke="#FAFAFA" stroke-width="0.05"/>
<path d="M32 15L-1.48639e-06 15" stroke="#FAFAFA" stroke-width="0.05"/>
<path d="M32 17L-1.48639e-06 17" stroke="#FAFAFA" stroke-width="0.05"/>
<path d="M32 19L-1.48639e-06 19" stroke="#FAFAFA" stroke-width="0.05"/>
<path d="M32 21L-1.48639e-06 21" stroke="#FAFAFA" stroke-width="0.05"/>
<path d="M32 23L-1.48639e-06 23" stroke="#FAFAFA" stroke-width="0.05"/>
<path d="M32 25L-1.48639e-06 25" stroke="#FAFAFA" stroke-width="0.05"/>
<path d="M32 27L-1.48639e-06 27" stroke="#FAFAFA" stroke-width="0.05"/>
<path d="M32 29L-1.48639e-06 29" stroke="#FAFAFA" stroke-width="0.05"/>
<path d="M32 31L-1.48639e-06 31" stroke="#FAFAFA" stroke-width="0.05"/>
<path d="M32 1L-1.48639e-06 0.999996" stroke="#FAFAFA" stroke-width="0.05"/>
<path d="M3 0L3 32" stroke="#FAFAFA" stroke-width="0.05"/>
<path d="M5 0L5 32" stroke="#FAFAFA" stroke-width="0.05"/>
<path d="M6 0L6 32" stroke="#D2D2D2" stroke-width="0.05"/>
<path d="M10 0L10 32" stroke="#D2D2D2" stroke-width="0.05"/>
<path d="M14 0L14 32" stroke="#D2D2D2" stroke-width="0.05"/>
<path d="M18 0L18 32" stroke="#D2D2D2" stroke-width="0.05"/>
<path d="M22 0L22 32" stroke="#D2D2D2" stroke-width="0.05"/>
<path d="M26 0L26 32" stroke="#D2D2D2" stroke-width="0.05"/>
<path d="M30 0L30 32" stroke="#D2D2D2" stroke-width="0.05"/>
<path d="M7 0L7 32" stroke="#FAFAFA" stroke-width="0.05"/>
<path d="M9 0L9 32" stroke="#FAFAFA" stroke-width="0.05"/>
<path d="M11 0L11 32" stroke="#FAFAFA" stroke-width="0.05"/>
<path d="M13 0L13 32" stroke="#FAFAFA" stroke-width="0.05"/>
<path d="M15 0L15 32" stroke="#FAFAFA" stroke-width="0.05"/>
<path d="M17 0L17 32" stroke="#FAFAFA" stroke-width="0.05"/>
<path d="M19 0L19 32" stroke="#FAFAFA" stroke-width="0.05"/>
<path d="M21 0L21 32" stroke="#FAFAFA" stroke-width="0.05"/>
<path d="M23 0L23 32" stroke="#FAFAFA" stroke-width="0.05"/>
<path d="M25 0L25 32" stroke="#FAFAFA" stroke-width="0.05"/>
<path d="M27 0L27 32" stroke="#FAFAFA" stroke-width="0.05"/>
<path d="M29 0L29 32" stroke="#FAFAFA" stroke-width="0.05"/>
<path d="M31 0L31 32" stroke="#FAFAFA" stroke-width="0.05"/>
<path d="M2 0L2 32" stroke="#D2D2D2" stroke-width="0.05"/>
<path d="M1 0L1 32" stroke="#FAFAFA" stroke-width="0.05"/>
<path d="M4 0L4 32" stroke="#D2D2D2" stroke-width="0.05"/>
<path d="M8 0L8 32" stroke="#D2D2D2" stroke-width="0.05"/>
<path d="M12 0L12 32" stroke="#D2D2D2" stroke-width="0.05"/>
<path d="M16 0L16 32" stroke="#D2D2D2" stroke-width="0.05"/>
<path d="M20 0L20 32" stroke="#D2D2D2" stroke-width="0.05"/>
<path d="M24 0L24 32" stroke="#D2D2D2" stroke-width="0.05"/>
<path d="M28 0L28 32" stroke="#D2D2D2" stroke-width="0.05"/>
<path d="M32 0L32 32" stroke="#D2D2D2" stroke-width="0.05"/>
<path d="M32 16L-1.48639e-06 16" stroke="#D2D2D2" stroke-width="0.05"/>
<path d="M32 32L-1.48639e-06 32" stroke="#D2D2D2" stroke-width="0.05"/>
<path d="M32 6L-1.48639e-06 6" stroke="#D2D2D2" stroke-width="0.05"/>
<path d="M32 10L-1.48639e-06 10" stroke="#D2D2D2" stroke-width="0.05"/>
<path d="M32 14L-1.48639e-06 14" stroke="#D2D2D2" stroke-width="0.05"/>
<path d="M32 18L-1.48639e-06 18" stroke="#D2D2D2" stroke-width="0.05"/>
<path d="M32 22L-1.48639e-06 22" stroke="#D2D2D2" stroke-width="0.05"/>
<path d="M32 26L-1.48639e-06 26" stroke="#D2D2D2" stroke-width="0.05"/>
<path d="M32 30L-1.48639e-06 30" stroke="#D2D2D2" stroke-width="0.05"/>
<path d="M32 2L-1.48639e-06 2" stroke="#D2D2D2" stroke-width="0.05"/>
<path d="M32 4L-1.48639e-06 4" stroke="#D2D2D2" stroke-width="0.05"/>
<path d="M32 8L-1.48639e-06 8" stroke="#D2D2D2" stroke-width="0.05"/>
<path d="M32 12L-1.48639e-06 12" stroke="#D2D2D2" stroke-width="0.05"/>
<path d="M32 20L-1.48639e-06 20" stroke="#D2D2D2" stroke-width="0.05"/>
<path d="M32 24L-1.48639e-06 24" stroke="#D2D2D2" stroke-width="0.05"/>
<path d="M32 28L-1.48639e-06 28" stroke="#D2D2D2" stroke-width="0.05"/>
<rect x="0.025" y="0.025" width="31.95" height="31.95" stroke="#D2D2D2" stroke-width="0.05"/>
<circle cx="16" cy="16" r="13.95" stroke="#2B70D3" stroke-width="0.1"/>
<rect x="2.05" y="6.05" width="27.9" height="19.9" stroke="#2B70D3" stroke-width="0.1"/>
<rect x="4.05" y="4.05" width="23.9" height="23.9" stroke="#2B70D3" stroke-width="0.1"/>
<rect x="6.05" y="2.05" width="19.9" height="27.9" stroke="#2B70D3" stroke-width="0.1"/>
<mask id="mask0_31_5132" style="mask-type:alpha" maskUnits="userSpaceOnUse" x="0" y="0" width="33" height="32">
<path d="M0 0H32.0005V32H0V0Z" fill="#C4C4C4"/>
</mask>
<g mask="url(#mask0_31_5132)">
<mask id="mask1_31_5132" style="mask-type:alpha" maskUnits="userSpaceOnUse" x="-158" y="-158" width="347" height="347">
<rect x="-157.065" y="-157.152" width="345.6" height="345.6" fill="#C4C4C4"/>
</mask>
<g mask="url(#mask1_31_5132)">
<path d="M16.0005 -227.999L16.0005 260.001" stroke="#2B70D3" stroke-width="0.05" stroke-linecap="square" stroke-linejoin="round"/>
<path d="M79.1523 -219.685L-47.1514 251.687" stroke="#2B70D3" stroke-width="0.05" stroke-linecap="square" stroke-linejoin="round"/>
<path d="M138 -195.309L-106 227.311" stroke="#2B70D3" stroke-width="0.05" stroke-linecap="square" stroke-linejoin="round"/>
<path d="M188.534 -156.533L-156.534 188.535" stroke="#2B70D3" stroke-width="0.05" stroke-linecap="square" stroke-linejoin="round"/>
<path d="M227.311 -105.999L-195.31 138.001" stroke="#2B70D3" stroke-width="0.05" stroke-linecap="square" stroke-linejoin="round"/>
<path d="M251.686 -47.1511L-219.686 79.1526" stroke="#2B70D3" stroke-width="0.05" stroke-linecap="square" stroke-linejoin="round"/>
<path d="M260 16.0007L-228 16.0007" stroke="#2B70D3" stroke-width="0.05" stroke-linecap="square" stroke-linejoin="round"/>
<path d="M251.686 -47.1506L-219.686 79.1531" stroke="#2B70D3" stroke-width="0.05" stroke-linecap="square" stroke-linejoin="round"/>
<path d="M260 16.0012L-228 16.0012" stroke="#2B70D3" stroke-width="0.05" stroke-linecap="square" stroke-linejoin="round"/>
<path d="M251.687 79.1531L-219.685 -47.1506" stroke="#2B70D3" stroke-width="0.05" stroke-linecap="square" stroke-linejoin="round"/>
<path d="M227.311 138.001L-195.31 -105.999" stroke="#2B70D3" stroke-width="0.05" stroke-linecap="square" stroke-linejoin="round"/>
<path d="M188.535 188.535L-156.534 -156.533" stroke="#2B70D3" stroke-width="0.05" stroke-linecap="square" stroke-linejoin="round"/>
<path d="M138.001 227.311L-105.999 -195.309" stroke="#2B70D3" stroke-width="0.05" stroke-linecap="square" stroke-linejoin="round"/>
<path d="M79.1523 251.687L-47.1514 -219.685" stroke="#2B70D3" stroke-width="0.05" stroke-linecap="square" stroke-linejoin="round"/>
</g>
</g>
<path opacity="0.1" fill-rule="evenodd" clip-rule="evenodd" d="M30 0H2H0V2V30V32H2H30H32L32 30V2V0H30ZM2 30H30L30 2H2L2 30Z" fill="#2B70D3"/>
<path d="M11 17C11 16.4477 10.5523 16 10 16C9.44772 16 9 16.4477 9 17V21L5 21C4.44772 21 4 21.4477 4 22C4 22.5523 4.44772 23 5 23L9 23V27C9 27.5523 9.44771 28 10 28C10.5523 28 11 27.5523 11 27V23H15C15.5523 23 16 22.5523 16 22C16 21.4477 15.5523 21 15 21H11V17Z" fill="black"/>
<path fill-rule="evenodd" clip-rule="evenodd" d="M26 21.7574V12.4142C26 11.8838 25.7893 11.3751 25.4142 11L17 2.58579C16.6249 2.21071 16.1162 2 15.5858 2H8C7.50949 2 7.06021 2.17658 6.71229 2.46965L8.24264 4L15 4V10.7574L17.2426 13H24V19.7574L26 21.7574ZM17 5.41421L22.5858 11H17V5.41421Z" fill="black"/>
<path d="M8 12.2426L6 10.2426V13C6 13.5523 6.44772 14 7 14C7.55228 14 8 13.5523 8 13V12.2426Z" fill="black"/>
<path d="M23.7574 28L25.2877 29.5304C24.9398 29.8234 24.4905 30 24 30H17C16.4477 30 16 29.5523 16 29C16 28.4477 16.4477 28 17 28H23.7574Z" fill="black"/>
<path fill-rule="evenodd" clip-rule="evenodd" d="M2.29289 2.29289C2.68342 1.90237 3.31658 1.90237 3.70711 2.29289L29.7071 28.2929C30.0976 28.6834 30.0976 29.3166 29.7071 29.7071C29.3166 30.0976 28.6834 30.0976 28.2929 29.7071L2.29289 3.70711C1.90237 3.31658 1.90237 2.68342 2.29289 2.29289Z" fill="black"/>
</svg>
