<svg xmlns="http://www.w3.org/2000/svg" fill="none" viewBox="0 0 33 32"><path fill="#0D0F13" fill-rule="evenodd" d="M16.5 2a1 1 0 0 1 1 1v2.075c1.421.182 2.69.681 3.712 1.36 1.283.851 2.254 2.039 2.575 3.322a1 1 0 1 1-1.94.486c-.167-.668-.744-1.48-1.74-2.141C19.127 7.452 17.814 7 16.31 7c-2.77 0-4.335.691-5.195 1.455-.856.76-1.128 1.692-1.128 2.423 0 .636.165 1.09.42 1.444.264.368.67.69 1.24.978 1.154.58 2.725.9 4.497 1.26l.115.024c1.732.352 3.662.752 5.147 1.572.762.42 1.454.974 1.954 1.732.505.766.773 1.68.773 2.746 0 2.305-1.196 3.937-2.763 4.95-1.169.757-2.556 1.183-3.871 1.343V29a1 1 0 1 1-2 0v-2.032c-1.411-.111-3.033-.508-4.445-1.238-1.685-.872-3.237-2.314-3.545-4.467a1 1 0 1 1 1.98-.283c.18 1.262 1.103 2.26 2.484 2.973C13.35 24.665 15.02 25 16.304 25c1.329 0 2.837-.355 3.981-1.095 1.11-.718 1.85-1.768 1.85-3.27 0-.717-.175-1.24-.443-1.646-.274-.416-.687-.77-1.251-1.082-1.167-.644-2.774-.996-4.58-1.363l-.254-.052c-1.65-.334-3.458-.7-4.858-1.406-.756-.38-1.456-.888-1.965-1.597-.52-.722-.796-1.592-.796-2.611 0-1.22.459-2.727 1.8-3.918 1.216-1.08 3.062-1.817 5.712-1.941V3a1 1 0 0 1 1-1Z" clip-rule="evenodd"/></svg>