<svg width="32" height="32" viewBox="0 0 32 32" fill="none" xmlns="http://www.w3.org/2000/svg">
<path fill-rule="evenodd" clip-rule="evenodd" d="M16.0001 2C16.5524 2 17.0001 2.44772 17.0001 3V5.07545C18.4214 5.25746 19.6893 5.75625 20.7123 6.43504C21.9949 7.28612 22.9664 8.47369 23.2873 9.75746C23.4213 10.2933 23.0955 10.8362 22.5597 10.9701C22.0239 11.1041 21.481 10.7783 21.3471 10.2425C21.1802 9.57509 20.6029 8.76266 19.6065 8.10155C18.6281 7.45235 17.3153 7 15.8109 7C13.0402 7 11.4762 7.69103 10.6162 8.45495C9.76047 9.21508 9.48793 10.1471 9.48793 10.878C9.48793 11.5144 9.65333 11.9681 9.90786 12.3223C10.1721 12.69 10.5777 13.0126 11.148 13.2996C12.3025 13.8809 13.8731 14.2003 15.6452 14.5607C15.6836 14.5685 15.722 14.5763 15.7605 14.5841C17.4921 14.9364 19.4216 15.3362 20.907 16.1557C21.6691 16.5761 22.3616 17.1304 22.8611 17.8876C23.3666 18.6537 23.6343 19.5672 23.6343 20.6341C23.6343 22.939 22.4378 24.571 20.8716 25.5844C19.7025 26.3408 18.3155 26.7672 17.0001 26.9267V29C17.0001 29.5523 16.5524 30 16.0001 30C15.4478 30 15.0001 29.5523 15.0001 29V26.9675C13.589 26.8568 11.9676 26.4598 10.5555 25.7298C8.8698 24.8583 7.31773 23.4163 7.01018 21.2634C6.93207 20.7166 7.31197 20.2101 7.85871 20.132C8.40544 20.0539 8.91197 20.4338 8.99008 20.9805C9.17033 22.2423 10.093 23.2392 11.4739 23.9531C12.8508 24.6649 14.5199 25 15.805 25C17.1328 25 18.6414 24.6452 19.7851 23.9052C20.8944 23.1875 21.6343 22.1365 21.6343 20.6341C21.6343 19.9176 21.4599 19.3955 21.1917 18.989C20.9176 18.5735 20.505 18.2181 19.9408 17.9068C18.7738 17.2629 17.1667 16.9112 15.3617 16.544C15.2774 16.5268 15.1925 16.5096 15.1072 16.4923C13.4566 16.1576 11.6492 15.7911 10.2486 15.086C9.49264 14.7054 8.79311 14.1983 8.2837 13.4894C7.7646 12.767 7.48793 11.8972 7.48793 10.878C7.48793 9.65781 7.9471 8.15077 9.28798 6.95968C10.5042 5.87934 12.3503 5.14253 15.0001 5.01854V3C15.0001 2.44772 15.4478 2 16.0001 2Z" fill="#0D0F13"/>
</svg>
