<svg width="32" height="32" viewBox="0 0 32 32" fill="none" xmlns="http://www.w3.org/2000/svg">
<path d="M8.83893 5.97461C8.83893 7.07918 9.73436 7.97461 10.8389 7.97461C11.9435 7.97461 12.8389 7.07918 12.8389 5.97461C12.8389 4.87004 11.9435 3.97461 10.8389 3.97461C9.73436 3.97461 8.83893 4.87004 8.83893 5.97461Z" fill="#0D0F13"/>
<path d="M8.83887 26.0138C8.83887 27.1183 9.7343 28.0138 10.8389 28.0138C11.9434 28.0138 12.8389 27.1183 12.8389 26.0138C12.8389 24.9092 11.9434 24.0138 10.8389 24.0138C9.7343 24.0138 8.83887 24.9092 8.83887 26.0138Z" fill="#0D0F13"/>
<path d="M19.2355 5.97464C19.2355 7.07921 20.131 7.97464 21.2355 7.97464C22.3401 7.97464 23.2355 7.07921 23.2355 5.97464C23.2355 4.87007 22.3401 3.97464 21.2355 3.97464C20.131 3.97464 19.2355 4.87007 19.2355 5.97464Z" fill="#0D0F13"/>
<path d="M8.83887 15.9942C8.83887 17.0988 9.7343 17.9942 10.8389 17.9942C11.9434 17.9942 12.8389 17.0988 12.8389 15.9942C12.8389 14.8896 11.9434 13.9942 10.8389 13.9942C9.7343 13.9942 8.83887 14.8896 8.83887 15.9942Z" fill="#0D0F13"/>
<path d="M19.2354 15.9941C19.2354 17.0987 20.1308 17.9941 21.2354 17.9941C22.3399 17.9941 23.2354 17.0987 23.2354 15.9941C23.2354 14.8896 22.3399 13.9941 21.2354 13.9941C20.1308 13.9941 19.2354 14.8896 19.2354 15.9941Z" fill="#0D0F13"/>
<path d="M19.2354 26.0137C19.2354 27.1182 20.1308 28.0137 21.2354 28.0137C22.3399 28.0137 23.2354 27.1182 23.2354 26.0137C23.2354 24.9091 22.3399 24.0137 21.2354 24.0137C20.1308 24.0137 19.2354 24.9091 19.2354 26.0137Z" fill="#0D0F13"/>
</svg>
