<svg width="32" height="32" viewBox="0 0 32 32" fill="none" xmlns="http://www.w3.org/2000/svg">
<path fill-rule="evenodd" clip-rule="evenodd" d="M19 16C19 15.4477 19.4477 15 20 15H25C25.5523 15 26 15.4477 26 16C26 16.5523 25.5523 17 25 17H20C19.4477 17 19 16.5523 19 16Z" fill="#0D0F13"/>
<path fill-rule="evenodd" clip-rule="evenodd" d="M19 11C19 10.4477 19.4477 10 20 10H25C25.5523 10 26 10.4477 26 11C26 11.5523 25.5523 12 25 12H20C19.4477 12 19 11.5523 19 11Z" fill="#0D0F13"/>
<path fill-rule="evenodd" clip-rule="evenodd" d="M8.17171 12.4146C8.06026 12.7564 8 13.1213 8 13.5003C8 15.4334 9.567 17.0004 11.5 17.0004C11.8791 17.0004 12.244 16.9401 12.5859 16.8286L8.17171 12.4146ZM13.7576 18.0004H9C7.34315 18.0004 6 19.3436 6 21.0004C6 21.5527 6.44772 22.0004 7 22.0004C7.55228 22.0004 8 21.5527 8 21.0004C8 20.4481 8.44772 20.0004 9 20.0004H14C14.5523 20.0004 15 20.4481 15 21.0004C15 21.5527 15.4477 22.0004 16 22.0004C16.4772 22.0004 16.8764 21.6661 16.9761 21.2189L13.7576 18.0004Z" fill="#0D0F13"/>
<path fill-rule="evenodd" clip-rule="evenodd" d="M2.29289 2.29289C2.68342 1.90237 3.31658 1.90237 3.70711 2.29289L29.7071 28.2929C30.0976 28.6834 30.0976 29.3166 29.7071 29.7071C29.3166 30.0976 28.6834 30.0976 28.2929 29.7071L2.29289 3.70711C1.90237 3.31658 1.90237 2.68342 2.29289 2.29289Z" fill="#0D0F13"/>
<path fill-rule="evenodd" clip-rule="evenodd" d="M29.5304 25.2877C29.8234 24.9398 30 24.4905 30 24V8C30 6.89543 29.1046 6 28 6H10.2426L12.2426 8H28V23.7574L29.5304 25.2877ZM4 8.24264V24H19.7574L21.7574 26H4C2.89543 26 2 25.1046 2 24V8C2 7.50949 2.17658 7.06022 2.46965 6.71229L4 8.24264Z" fill="#0D0F13"/>
<path fill-rule="evenodd" clip-rule="evenodd" d="M25.8175 21.5754C25.9322 21.4126 25.9995 21.2142 25.9995 21C25.9995 20.4477 25.5518 20 24.9995 20H24.2422L25.8175 21.5754Z" fill="#0D0F13"/>
</svg>
