<svg width="32" height="32" viewBox="0 0 32 32" fill="none" xmlns="http://www.w3.org/2000/svg">
<path fill-rule="evenodd" clip-rule="evenodd" d="M28 8H4V24H28V8ZM4 6C2.89543 6 2 6.89543 2 8V24C2 25.1046 2.89543 26 4 26H28C29.1046 26 30 25.1046 30 24V8C30 6.89543 29.1046 6 28 6H4Z" fill="#0D0F13"/>
<path fill-rule="evenodd" clip-rule="evenodd" d="M11.5 12C10.6716 12 10 12.6716 10 13.5C10 14.3284 10.6716 15 11.5 15C12.3284 15 13 14.3284 13 13.5C13 12.6716 12.3284 12 11.5 12ZM8 13.5C8 11.567 9.567 10 11.5 10C13.433 10 15 11.567 15 13.5C15 15.433 13.433 17 11.5 17C9.567 17 8 15.433 8 13.5ZM9 20C8.44772 20 8 20.4477 8 21C8 21.5523 7.55228 22 7 22C6.44772 22 6 21.5523 6 21C6 19.3431 7.34315 18 9 18H14C15.6569 18 17 19.3431 17 21C17 21.5523 16.5523 22 16 22C15.4477 22 15 21.5523 15 21C15 20.4477 14.5523 20 14 20H9Z" fill="#0D0F13"/>
<path fill-rule="evenodd" clip-rule="evenodd" d="M19 16C19 15.4477 19.4477 15 20 15H25C25.5523 15 26 15.4477 26 16C26 16.5523 25.5523 17 25 17H20C19.4477 17 19 16.5523 19 16Z" fill="#0D0F13"/>
<path fill-rule="evenodd" clip-rule="evenodd" d="M19 11C19 10.4477 19.4477 10 20 10H25C25.5523 10 26 10.4477 26 11C26 11.5523 25.5523 12 25 12H20C19.4477 12 19 11.5523 19 11Z" fill="#0D0F13"/>
<path fill-rule="evenodd" clip-rule="evenodd" d="M19 21C19 20.4477 19.4477 20 20 20H25C25.5523 20 26 20.4477 26 21C26 21.5523 25.5523 22 25 22H20C19.4477 22 19 21.5523 19 21Z" fill="#0D0F13"/>
</svg>
