<svg width="32" height="32" viewBox="0 0 32 32" fill="none" xmlns="http://www.w3.org/2000/svg">
<path fill-rule="evenodd" clip-rule="evenodd" d="M25.8622 21.6196C25.9528 20.9839 26 20.3125 26 19.6054C26 14.3831 20.2532 6.32626 17.4726 2.73362C16.7156 1.75546 15.2844 1.75546 14.5274 2.73362C13.6694 3.84212 12.5291 5.37561 11.3623 7.11971L12.8065 8.5639C13.9642 6.81126 15.1171 5.24943 16 4.10336C17.3634 5.87313 19.3705 8.63431 21.045 11.5586C22.8192 14.657 24 17.571 24 19.6054C24 19.6561 23.9997 19.7064 23.9992 19.7565L25.8622 21.6196ZM9.69573 13.9384C8.64414 16.1205 8 18.1029 8 19.6054C8 22.5945 8.95815 24.6362 10.3115 25.9356C11.683 27.2525 13.6546 27.9927 16 27.9927C18.3454 27.9927 20.317 27.2525 21.6885 25.9356L21.6908 25.9334L23.1079 27.3505C21.2954 29.1116 18.7802 30 16 30C10.4772 30 6 26.4944 6 19.6054C6 17.5162 6.91977 14.9733 8.20141 12.4441L9.69573 13.9384Z" fill="#0D0F13"/>
<path fill-rule="evenodd" clip-rule="evenodd" d="M2.29289 2.29289C2.68342 1.90237 3.31658 1.90237 3.70711 2.29289L29.7071 28.2929C30.0976 28.6834 30.0976 29.3166 29.7071 29.7071C29.3166 30.0976 28.6834 30.0976 28.2929 29.7071L2.29289 3.70711C1.90237 3.31658 1.90237 2.68342 2.29289 2.29289Z" fill="#0D0F13"/>
</svg>
