<svg width="32" height="32" viewBox="0 0 32 32" fill="none" xmlns="http://www.w3.org/2000/svg">
<path fill-rule="evenodd" clip-rule="evenodd" d="M21.7984 17.2706L27.4181 11.6508C28.1991 10.8698 28.1991 9.60344 27.4181 8.82239L23.1756 4.57993C22.3946 3.79888 21.1283 3.79888 20.3472 4.57993L14.7275 10.1997L16.1417 11.6139L18.2259 9.52965L22.4684 13.7721L20.3842 15.8564L21.7984 17.2706ZM21.7614 5.99414L26.0039 10.2366L23.8826 12.3579L19.6401 8.11543L21.7614 5.99414Z" fill="#0D0F13"/>
<path d="M11.8995 15.8576L8.01575 19.7413L6.42515 25.5743L12.2582 23.9838L16.1419 20.1001L17.5561 21.5143L13.6724 25.398C13.4263 25.6441 13.1202 25.8218 12.7844 25.9133L5.26309 27.9642C4.91689 28.0586 4.54665 27.9603 4.29291 27.7065C4.03917 27.4528 3.94084 27.0825 4.03525 26.7363L6.0862 19.2152C6.17778 18.8793 6.35541 18.5732 6.60154 18.3271L10.4852 14.4434L11.8995 15.8576Z" fill="#0D0F13"/>
<path fill-rule="evenodd" clip-rule="evenodd" d="M2.29289 2.29289C2.68342 1.90237 3.31658 1.90237 3.70711 2.29289L29.7071 28.2929C30.0976 28.6834 30.0976 29.3166 29.7071 29.7071C29.3166 30.0976 28.6834 30.0976 28.2929 29.7071L2.29289 3.70711C1.90237 3.31658 1.90237 2.68342 2.29289 2.29289Z" fill="#0D0F13"/>
</svg>
