<svg width="32" height="32" viewBox="0 0 32 32" fill="none" xmlns="http://www.w3.org/2000/svg">
<path d="M3.7071 2.29293L29.7071 28.2929C30.0976 28.6834 30.0976 29.3166 29.7071 29.7071C29.3166 30.0976 28.6834 30.0976 28.2929 29.7071L2.29292 3.70711C1.90236 3.31661 1.90236 2.68343 2.29292 2.29293C2.68342 1.90236 3.3166 1.90236 3.7071 2.29293Z" fill="#0D0F13"/>
<path d="M15 8.00002H12.2426L11.0239 6.78133C11.1237 6.33425 11.5228 6.00002 11.9999 6.00002H19.9999C20.5522 6.00002 20.9999 6.44771 20.9999 7.00002C20.9999 7.55233 20.5522 8.00002 19.9999 8.00002H17V10H21C22.1046 10 23 10.8954 23 12V15H24V13.2C24 12.5373 24.5373 12 25.2 12H27.7886C28.3453 12 28.8395 12.3562 29.0155 12.8843L29.3162 13.7864C29.7691 15.1451 30 16.5678 30 18C30 19.4322 29.7691 20.8549 29.3162 22.2136L29.0155 23.1157C28.8825 23.5148 28.5677 23.8157 28.1816 23.9389L26.2426 22H27.2792L27.4189 21.5811C27.8038 20.4264 28 19.2172 28 18C28 16.7828 27.8038 15.5736 27.4189 14.4189L27.2792 14H26V15.99C26 16.5478 25.5478 17 24.99 17H22.01C21.4522 17 21 16.5478 21 15.99V12H16.2426L14.2426 10H15V8.00002Z" fill="#0D0F13"/>
<path d="M24.99 19C25.5478 19 26 19.4522 26 20.01V21.7574L23.2426 19H24.99Z" fill="#0D0F13"/>
<path d="M14.7732 24H19.7574L21.6495 25.8922C21.4459 25.9621 21.2274 26 21 26H14.7732C14.2126 26 13.6777 25.7647 13.2989 25.3514L10.2268 22H8.00001C6.89546 22 6.00001 21.1046 6.00001 20V17H4.00001V20C4.00001 20.5523 3.55232 21 3.00001 21C2.4477 21 2.00001 20.5523 2.00001 20V12C2.00001 11.4477 2.4477 11 3.00001 11C3.55232 11 4.00001 11.4477 4.00001 12V15H6.00001V12C6.00001 11.5095 6.17658 11.0602 6.46968 10.7123L8.00001 12.2426V20H10.4467C10.8672 20 11.2683 20.1765 11.5524 20.4864L14.7732 24Z" fill="#0D0F13"/>
</svg>
