<svg width="32" height="32" viewBox="0 0 32 32" fill="none" xmlns="http://www.w3.org/2000/svg">
<path d="M2.29289 2.29289C2.68342 1.90237 3.31658 1.90237 3.70711 2.29289L29.7071 28.2929C30.0976 28.6834 30.0976 29.3166 29.7071 29.7071C29.3166 30.0976 28.6834 30.0976 28.2929 29.7071L2.29289 3.70711C1.90237 3.31658 1.90237 2.68342 2.29289 2.29289Z" fill="#0D0F13"/>
<path d="M29.0155 23.1157C28.8825 23.5148 28.5677 23.8157 28.1816 23.9389L26.2426 22H27.2792L27.4189 21.5811C27.8038 20.4264 28 19.2172 28 18C28 16.7828 27.8038 15.5736 27.4189 14.4189L27.2792 14H26V15.99C26 16.5478 25.5478 17 24.99 17H22.01C21.4522 17 21 16.5478 21 15.99V12H16.2426L14.2426 10H15V8H12.2426L11.0239 6.78134C11.1237 6.33422 11.5228 6 11.9999 6H19.9999C20.5522 6 20.9999 6.44772 20.9999 7C20.9999 7.55228 20.5522 8 19.9999 8H17V10H21C22.1046 10 23 10.8954 23 12V15H24V13.2C24 12.5373 24.5373 12 25.2 12H27.7886C28.3453 12 28.8395 12.3562 29.0155 12.8843L29.3162 13.7864C29.7691 15.1451 30 16.5678 30 18C30 19.4322 29.7691 20.8549 29.3162 22.2136L29.0155 23.1157Z" fill="#0D0F13"/>
<path d="M24.99 19C25.5478 19 26 19.4522 26 20.01V21.7574L23.2426 19H24.99Z" fill="#0D0F13"/>
<path d="M11.5524 20.4864C11.2683 20.1765 10.8672 20 10.4467 20H8V12.2426L6.46965 10.7123C6.17658 11.0602 6 11.5095 6 12V15H4V12C4 11.4477 3.55229 11 3 11C2.44772 11 2 11.4477 2 12V20C2 20.5523 2.44772 21 3 21C3.55228 21 4 20.5523 4 20V17H6V20C6 21.1046 6.89543 22 8 22H10.2268L13.2989 25.3514C13.6777 25.7647 14.2126 26 14.7732 26H21C21.2274 26 21.4459 25.9621 21.6495 25.8922L19.7574 24H14.7732L11.5524 20.4864Z" fill="#0D0F13"/>
</svg>
