<svg width="32" height="32" viewBox="0 0 32 32" fill="none" xmlns="http://www.w3.org/2000/svg">
<path fill-rule="evenodd" clip-rule="evenodd" d="M25.9164 10.1817C25.9996 10.7536 26.0301 11.4693 25.9666 12.2397C25.8412 13.7593 25.3345 15.6521 23.9562 17.0448C22.5779 18.4374 20.7047 18.9495 19.2008 19.0761C18.4383 19.1403 17.73 19.1095 17.164 19.0254C17.1083 19.0171 17.0532 19.0082 16.999 18.9987V29C16.999 29.5523 16.5513 30 15.999 30C15.4467 30 14.999 29.5523 14.999 29V15.6911C14.999 15.6887 14.999 15.6864 14.999 15.684V13.0599L14.9562 13.0663C14.3824 13.1507 13.6645 13.1816 12.8916 13.1172C11.3672 12.9902 9.46837 12.4765 8.07128 11.0794C6.67419 9.68237 6.16052 7.78357 6.03351 6.25909C5.96906 5.48615 6 4.76825 6.08435 4.19458C6.1264 3.90894 6.18427 3.64105 6.25848 3.41071C6.31799 3.22601 6.43414 2.9104 6.67175 2.67273C6.90942 2.43512 7.22503 2.31897 7.40973 2.25946C7.64008 2.18524 7.90796 2.12738 8.1936 2.08539C8.76727 2.00098 9.48516 1.97003 10.2581 2.03449C11.7826 2.1615 13.6814 2.67518 15.0785 4.07227C16.4756 5.46936 16.9892 7.36817 17.1162 8.89258C17.1471 9.26331 17.1561 9.62134 17.1477 9.95691C18.5152 8.64179 20.3325 8.15198 21.7988 8.0285C22.5613 7.96429 23.2696 7.99511 23.8356 8.07922C24.1173 8.12109 24.3816 8.17877 24.6088 8.25274C24.7911 8.31207 25.1024 8.42791 25.3369 8.66479C25.5713 8.90167 25.6859 9.21624 25.7446 9.40039C25.8178 9.63 25.8749 9.89703 25.9164 10.1817ZM15.0935 10.6672C15.155 10.2496 15.1823 9.68464 15.1301 9.05811C15.0239 7.78357 14.6046 6.41687 13.6692 5.48151C12.7338 4.54615 11.3672 4.12683 10.0926 4.02063C9.46606 3.96838 8.90112 3.99579 8.48352 4.05719C8.33728 4.07867 8.21771 4.10315 8.12561 4.12659C8.10211 4.21869 8.0777 4.3382 8.05621 4.48456C7.99475 4.9021 7.96741 5.46704 8.01959 6.09363C8.12585 7.36816 8.54517 8.7348 9.48053 9.67017C10.4159 10.6055 11.7826 11.0249 13.0571 11.1311C13.6836 11.1833 14.2486 11.1559 14.6662 11.0945C14.8125 11.073 14.932 11.0486 15.0241 11.0251C15.0476 10.933 15.072 10.8135 15.0935 10.6672ZM24.0072 12.0748C24.0587 11.4502 24.0317 10.8871 23.9711 10.4708C23.9499 10.3249 23.9258 10.2058 23.9026 10.114C23.8118 10.0906 23.6938 10.0662 23.5495 10.0448C23.1375 9.98359 22.5802 9.95631 21.9621 10.0083C20.7047 10.1142 19.3565 10.5322 18.4337 11.4646C17.5292 12.3785 17.1138 13.7054 16.999 14.954V16.3924C17.0076 16.4774 17.0175 16.558 17.0285 16.6338C17.0497 16.7796 17.0738 16.8988 17.097 16.9906C17.1878 17.014 17.3058 17.0384 17.4501 17.0598C17.8621 17.121 18.4194 17.1483 19.0375 17.0963C20.2949 16.9904 21.6431 16.5724 22.5659 15.64C23.4887 14.7076 23.9024 13.3453 24.0072 12.0748Z" fill="#0D0F13"/>
</svg>
