<svg width="32" height="32" viewBox="0 0 32 32" fill="none" xmlns="http://www.w3.org/2000/svg">
<path fill-rule="evenodd" clip-rule="evenodd" d="M13.0571 11.1311C11.7826 11.0249 10.4159 10.6055 9.48054 9.67017C8.54517 8.73479 8.12583 7.36815 8.01962 6.09361C7.96741 5.46707 7.99478 4.90212 8.05619 4.48453C8.07771 4.33822 8.10214 4.21868 8.12562 4.1266C8.2177 4.10312 8.33725 4.07868 8.48355 4.05717C8.90115 3.99576 9.46609 3.96838 10.0926 4.0206C11.3672 4.12681 12.7338 4.54614 13.6692 5.48152C14.6046 6.41689 15.0239 7.78354 15.1301 9.05808C15.1823 9.68461 15.155 10.2496 15.0935 10.6672C15.072 10.8135 15.0476 10.933 15.0241 11.0251C14.932 11.0486 14.8125 11.073 14.6662 11.0945C14.2486 11.1559 13.6836 11.1833 13.0571 11.1311ZM16.999 16.3924V14.954C17.1138 13.7054 17.5292 12.3785 18.4337 11.4646C19.3565 10.5322 20.7047 10.1142 21.9621 10.0083C22.5802 9.95628 23.1375 9.98357 23.5495 10.0448C23.6938 10.0662 23.8118 10.0906 23.9026 10.114C23.9258 10.2058 23.9499 10.3249 23.9711 10.4708C24.0317 10.8871 24.0587 11.4502 24.0072 12.0748C23.9024 13.3453 23.4887 14.7076 22.5659 15.64C21.6431 16.5724 20.2949 16.9904 19.0375 17.0963C18.4194 17.1483 17.8621 17.121 17.4501 17.0598C17.3058 17.0384 17.1878 17.014 17.097 16.9906C17.0738 16.8988 17.0497 16.7796 17.0285 16.6338C17.0175 16.558 17.0076 16.4774 16.999 16.3924ZM14.999 15.6911V29C14.999 29.5523 15.4467 30 15.999 30C16.5513 30 16.999 29.5523 16.999 29V18.9987C17.0532 19.0082 17.1083 19.0171 17.164 19.0254C17.73 19.1095 18.4383 19.1403 19.2008 19.0761C20.7047 18.9495 22.5779 18.4374 23.9562 17.0448C25.3345 15.6521 25.8412 13.7593 25.9666 12.2397C26.0301 11.4693 25.9996 10.7536 25.9164 10.1817C25.8749 9.89702 25.8178 9.62999 25.7446 9.40038C25.6859 9.21625 25.5713 8.90165 25.3369 8.66477C25.1024 8.42789 24.7911 8.31209 24.6088 8.25276C24.3816 8.17877 24.1173 8.1211 23.8356 8.07923C23.2696 7.99513 22.5613 7.96429 21.7988 8.02849C20.3325 8.15196 18.5152 8.64176 17.1477 9.95691C17.1561 9.62135 17.1471 9.26329 17.1162 8.89257C16.9892 7.36815 16.4756 5.46934 15.0785 4.07224C13.6814 2.67515 11.7826 2.1615 10.2581 2.03446C9.48519 1.97005 8.76729 2.00099 8.19358 2.08536C7.90796 2.12736 7.64008 2.18522 7.40974 2.25944C7.22502 2.31896 6.90942 2.43513 6.67178 2.67276C6.43415 2.91039 6.31799 3.226 6.25847 3.41071C6.18425 3.64106 6.12638 3.90894 6.08438 4.19456C6.00001 4.76826 5.96907 5.48617 6.03349 6.25912C6.16052 7.78354 6.67417 9.68235 8.07127 11.0794C9.46836 12.4765 11.3672 12.9902 12.8916 13.1172C13.6645 13.1816 14.3824 13.1507 14.9562 13.0663L14.999 13.0599V15.684C14.999 15.6864 14.999 15.6887 14.999 15.6911Z" fill="#0D0F13"/>
</svg>
