<svg width="32" height="32" viewBox="0 0 32 32" fill="none" xmlns="http://www.w3.org/2000/svg">
<path fill-rule="evenodd" clip-rule="evenodd" d="M15.0004 29V19.2426L17.0004 21.2426V29C17.0004 29.5523 16.5526 30 16.0004 30C15.4481 30 15.0004 29.5523 15.0004 29Z" fill="#0D0F13"/>
<path fill-rule="evenodd" clip-rule="evenodd" d="M8.48488 4.0572C8.428 4.06556 8.37515 4.07435 8.32639 4.08338L6.8027 2.55976C7.01632 2.39655 7.25839 2.30866 7.41104 2.25947C7.64145 2.18525 7.90927 2.12739 8.19492 2.0854C8.76865 2.00099 9.48655 1.97004 10.2595 2.0345C11.7838 2.16151 13.6827 2.67519 15.0797 4.07228C16.4769 5.46937 16.9906 7.36818 17.1176 8.89259C17.1485 9.26332 17.1574 9.62135 17.1491 9.95692C18.5164 8.6418 20.3339 8.15199 21.8001 8.02851C22.5626 7.9643 23.2708 7.99512 23.8369 8.07923C24.1187 8.1211 24.3828 8.17878 24.6102 8.25275C24.7924 8.31208 25.1038 8.42792 25.3382 8.6648C25.5725 8.90168 25.6872 9.21625 25.7459 9.4004C25.8192 9.63001 25.8763 9.89704 25.9177 10.1817C26.0009 10.7536 26.0315 11.4693 25.9679 12.2397C25.8426 13.7593 25.3358 15.6521 23.9576 17.0448C23.4905 17.5167 22.9666 17.8875 22.4195 18.1765L20.9231 16.6801C21.5348 16.4458 22.1045 16.1076 22.5673 15.64C23.49 14.7076 23.9037 13.3453 24.0085 12.0748C24.06 11.4502 24.033 10.8871 23.9724 10.4708C23.9511 10.3249 23.9271 10.2058 23.9039 10.114C23.8131 10.0906 23.6952 10.0662 23.5508 10.0448C23.1389 9.98358 22.5815 9.9563 21.9634 10.0083C20.706 10.1142 19.3578 10.5322 18.435 11.4646C17.9656 11.9389 17.6279 12.5245 17.3956 13.1526L15.0687 10.8257C15.0777 10.7769 15.0865 10.7241 15.0949 10.6672C15.1563 10.2496 15.1837 9.68464 15.1315 9.05811C15.0252 7.78357 14.6059 6.41687 13.6704 5.48151C12.7352 4.54615 11.3685 4.12683 10.094 4.02063C9.46744 3.96839 8.90249 3.9958 8.48488 4.0572Z" fill="#0D0F13"/>
<path fill-rule="evenodd" clip-rule="evenodd" d="M29.7071 28.2929C30.0976 28.6834 30.0976 29.3166 29.7071 29.7071C29.3166 30.0976 28.6834 30.0976 28.2929 29.7071L2.29287 3.7071C1.90237 3.3166 1.90237 2.68342 2.29287 2.29292C2.68338 1.90236 3.31655 1.90236 3.70712 2.29292L29.7071 28.2929Z" fill="#0D0F13"/>
</svg>
