<svg width="32" height="32" viewBox="0 0 32 32" fill="none" xmlns="http://www.w3.org/2000/svg">
<path fill-rule="evenodd" clip-rule="evenodd" d="M22.4195 18.1765C22.9666 17.8875 23.4905 17.5167 23.9576 17.0448C25.3358 15.6521 25.8426 13.7593 25.9679 12.2397C26.0315 11.4693 26.0009 10.7536 25.9177 10.1817C25.8763 9.89702 25.8192 9.62999 25.746 9.40038C25.6872 9.21625 25.5726 8.90165 25.3382 8.66477C25.1038 8.42789 24.7924 8.31209 24.6102 8.25276C24.3829 8.17877 24.1187 8.1211 23.8369 8.07923C23.2709 7.99513 22.5627 7.96429 21.8001 8.02849C20.3339 8.15196 18.5165 8.64176 17.1491 9.95691C17.1574 9.62135 17.1485 9.26329 17.1176 8.89257C16.9906 7.36815 16.4769 5.46934 15.0798 4.07224C13.6827 2.67515 11.7839 2.1615 10.2595 2.03446C9.48654 1.97005 8.76863 2.00099 8.19492 2.08536C7.9093 2.12736 7.64143 2.18522 7.41108 2.25944C7.2584 2.30864 7.01631 2.39653 6.80273 2.55973L8.32638 4.08337C8.37514 4.07435 8.42799 4.06554 8.48489 4.05717C8.90249 3.99576 9.46744 3.96838 10.094 4.0206C11.3685 4.12681 12.7352 4.54614 13.6705 5.48152C14.6059 6.41689 15.0252 7.78354 15.1315 9.05808C15.1837 9.68461 15.1563 10.2496 15.0949 10.6672C15.0865 10.7241 15.0777 10.7769 15.0687 10.8257L17.3956 13.1526C17.6279 12.5245 17.9656 11.9389 18.435 11.4646C19.3578 10.5322 20.706 10.1142 21.9634 10.0083C22.5815 9.95628 23.1389 9.98357 23.5508 10.0448C23.6952 10.0662 23.8131 10.0906 23.9039 10.114C23.9271 10.2058 23.9512 10.3249 23.9724 10.4708C24.033 10.8871 24.06 11.4502 24.0085 12.0748C23.9037 13.3453 23.49 14.7076 22.5673 15.64C22.1045 16.1076 21.5348 16.4458 20.9231 16.6801L22.4195 18.1765ZM15.0004 19.2426V29C15.0004 29.5523 15.4481 30 16.0004 30C16.5527 30 17.0004 29.5523 17.0004 29V21.2426L15.0004 19.2426Z" fill="#0D0F13"/>
<path fill-rule="evenodd" clip-rule="evenodd" d="M2.29289 2.29289C2.68342 1.90237 3.31658 1.90237 3.70711 2.29289L29.7071 28.2929C30.0976 28.6834 30.0976 29.3166 29.7071 29.7071C29.3166 30.0976 28.6834 30.0976 28.2929 29.7071L2.29289 3.70711C1.90237 3.31658 1.90237 2.68342 2.29289 2.29289Z" fill="#0D0F13"/>
</svg>
