<svg width="32" height="32" viewBox="0 0 32 32" fill="none" xmlns="http://www.w3.org/2000/svg">
<path fill-rule="evenodd" clip-rule="evenodd" d="M2 6C2 4.89543 2.89572 4 4.00065 4H11.0029C11.5554 4 12.0033 4.44772 12.0033 5C12.0033 5.55228 11.5554 6 11.0029 6H4.00065V26H11.0029C11.5554 26 12.0033 26.4477 12.0033 27C12.0033 27.5523 11.5554 28 11.0029 28H4.00065C2.89572 28 2 27.1046 2 26V6Z" fill="#0D0F13"/>
<path fill-rule="evenodd" clip-rule="evenodd" d="M17.7031 4.29289C18.0938 3.90237 18.7271 3.90237 19.1178 4.29289L29.414 14.5858C30.1953 15.3668 30.1953 16.6332 29.414 17.4142L19.1178 27.7071C18.7271 28.0976 18.0938 28.0976 17.7031 27.7071C17.3125 27.3166 17.3125 26.6834 17.7031 26.2929L26.999 17H9.00228C8.44981 17 8.00195 16.5523 8.00195 16C8.00195 15.4477 8.44981 15 9.00228 15H26.999L17.7031 5.70711C17.3125 5.31658 17.3125 4.68342 17.7031 4.29289Z" fill="#0D0F13"/>
</svg>
