<svg width="32" height="32" viewBox="0 0 32 32" fill="none" xmlns="http://www.w3.org/2000/svg">
<path fill-rule="evenodd" clip-rule="evenodd" d="M11.0029 26C11.5554 26 12.0033 26.4477 12.0033 27C12.0033 27.5523 11.5554 28 11.0029 28H4.00067C2.89575 28 2 27.1046 2 26V6.00001C2 4.89546 2.89575 4.00001 4.00067 4.00001H11.0029C11.5554 4.00001 12.0033 4.4477 12.0033 5.00001C12.0033 5.55232 11.5554 6.00001 11.0029 6.00001H4.00067V26H11.0029Z" fill="#0D0F13"/>
<path fill-rule="evenodd" clip-rule="evenodd" d="M29.414 14.5858C30.1953 15.3668 30.1953 16.6332 29.414 17.4142L19.1178 27.7071C18.7271 28.0976 18.0938 28.0976 17.7031 27.7071C17.3125 27.3166 17.3125 26.6834 17.7031 26.2929L26.999 17H9.00232C8.44983 17 8.00195 16.5523 8.00195 16C8.00195 15.4477 8.44983 15 9.00232 15H26.999L17.7031 5.7071C17.3125 5.3166 17.3125 4.68342 17.7031 4.29292C18.0938 3.90236 18.7271 3.90236 19.1178 4.29292L29.414 14.5858Z" fill="#0D0F13"/>
</svg>
