<svg width="32" height="32" viewBox="0 0 32 32" fill="none" xmlns="http://www.w3.org/2000/svg">
<path fill-rule="evenodd" clip-rule="evenodd" d="M27 19C27.5523 19 28 19.4477 28 20V23.7574L26 21.7574V20C26 19.4477 26.4477 19 27 19Z" fill="#0D0F13"/>
<path fill-rule="evenodd" clip-rule="evenodd" d="M12 6.00001H10.2426L8.24262 4.00001H12C12.5523 4.00001 13 4.4477 13 5.00001C13 5.55232 12.5523 6.00001 12 6.00001Z" fill="#0D0F13"/>
<path fill-rule="evenodd" clip-rule="evenodd" d="M5.00001 13C4.4477 13 4.00001 12.5523 4.00001 12V8.24262L6.00001 10.2426V12C6.00001 12.5523 5.55232 13 5.00001 13Z" fill="#0D0F13"/>
<path fill-rule="evenodd" clip-rule="evenodd" d="M20 26H21.7574L23.7574 28H20C19.4477 28 19 27.5523 19 27C19 26.4477 19.4477 26 20 26Z" fill="#0D0F13"/>
<path fill-rule="evenodd" clip-rule="evenodd" d="M11.8222 18.7089C12.2128 18.3184 12.8459 18.3184 13.2364 18.709C13.6269 19.0995 13.6269 19.7327 13.2364 20.1232L7.35884 26H12C12.5523 26 13 26.4477 13 27C13 27.5523 12.5523 28 12 28H6.00001C4.89546 28 4.00001 27.1046 4.00001 26V20C4.00001 19.4477 4.4477 19 5.00001 19C5.55232 19 6.00001 19.4477 6.00001 20V24.5304L11.8222 18.7089Z" fill="#0D0F13"/>
<path fill-rule="evenodd" clip-rule="evenodd" d="M20.1778 13.2911C19.7872 13.6816 19.1541 13.6816 18.7636 13.2911C18.3731 12.9005 18.3731 12.2673 18.7636 11.8768L24.6412 6.00001H20C19.4477 6.00001 19 5.55232 19 5.00001C19 4.4477 19.4477 4.00001 20 4.00001H26C27.1046 4.00001 28 4.89546 28 6.00001V12C28 12.5523 27.5523 13 27 13C26.4477 13 26 12.5523 26 12V7.46961L20.1778 13.2911Z" fill="#0D0F13"/>
<path fill-rule="evenodd" clip-rule="evenodd" d="M29.7071 28.2929C30.0976 28.6834 30.0976 29.3166 29.7071 29.7071C29.3166 30.0976 28.6834 30.0976 28.2929 29.7071L2.29292 3.7071C1.90236 3.3166 1.90236 2.68342 2.29292 2.29292C2.68342 1.90236 3.3166 1.90236 3.7071 2.29292L29.7071 28.2929Z" fill="#0D0F13"/>
</svg>
