<svg width="32" height="32" viewBox="0 0 32 32" fill="none" xmlns="http://www.w3.org/2000/svg">
<path d="M28 23.7574V20C28 19.4477 27.5523 19 27 19C26.4477 19 26 19.4477 26 20V21.7574L28 23.7574Z" fill="#0D0F13"/>
<path d="M10.2426 6H12C12.5523 6 13 5.55228 13 5C13 4.44772 12.5523 4 12 4H8.24264L10.2426 6Z" fill="#0D0F13"/>
<path d="M4 8.24264L6 10.2426V12C6 12.5523 5.55229 13 5 13C4.44772 13 4 12.5523 4 12V8.24264Z" fill="#0D0F13"/>
<path d="M21.7574 26L23.7574 28H20C19.4477 28 19 27.5523 19 27C19 26.4477 19.4477 26 20 26H21.7574Z" fill="#0D0F13"/>
<path d="M5 19C5.55229 19 6 19.4477 6 20L6 24.5304L11.8222 18.7089C12.2128 18.3184 12.8459 18.3184 13.2364 18.709C13.6269 19.0995 13.6269 19.7327 13.2364 20.1232L7.35884 26H12C12.5523 26 13 26.4477 13 27C13 27.5523 12.5523 28 12 28H6C4.89543 28 4 27.1046 4 26V20C4 19.4477 4.44772 19 5 19Z" fill="#0D0F13"/>
<path d="M27 13C26.4477 13 26 12.5523 26 12V7.46958L20.1778 13.2911C19.7872 13.6816 19.1541 13.6816 18.7636 13.2911C18.3731 12.9005 18.3731 12.2673 18.7636 11.8768L24.6412 6L20 6C19.4477 6 19 5.55228 19 5C19 4.44772 19.4477 4 20 4H26C27.1046 4 28 4.89543 28 6V12C28 12.5523 27.5523 13 27 13Z" fill="#0D0F13"/>
<path fill-rule="evenodd" clip-rule="evenodd" d="M2.29289 2.29289C2.68342 1.90237 3.31658 1.90237 3.70711 2.29289L29.7071 28.2929C30.0976 28.6834 30.0976 29.3166 29.7071 29.7071C29.3166 30.0976 28.6834 30.0976 28.2929 29.7071L2.29289 3.70711C1.90237 3.31658 1.90237 2.68342 2.29289 2.29289Z" fill="#0D0F13"/>
</svg>
