<svg width="32" height="32" viewBox="0 0 32 32" fill="none" xmlns="http://www.w3.org/2000/svg">
<path d="M6 12C6 12.5523 5.55229 13 5 13C4.44772 13 4 12.5523 4 12V6C4 4.89543 4.89543 4 6 4H12C12.5523 4 13 4.44772 13 5C13 5.55228 12.5523 6 12 6L7.35884 6L13.2364 11.8768C13.6269 12.2673 13.6269 12.9005 13.2364 13.2911C12.8459 13.6816 12.2128 13.6816 11.8222 13.2911L6 7.46958L6 12Z" fill="#0D0F13"/>
<path d="M6 20C6 19.4477 5.55229 19 5 19C4.44772 19 4 19.4477 4 20V26C4 27.1046 4.89543 28 6 28H12C12.5523 28 13 27.5523 13 27C13 26.4477 12.5523 26 12 26H7.35884L13.2364 20.1232C13.6269 19.7327 13.6269 19.0995 13.2364 18.709C12.8459 18.3184 12.2128 18.3184 11.8222 18.7089L6 24.5304L6 20Z" fill="#0D0F13"/>
<path d="M27 13C26.4477 13 26 12.5523 26 12V7.46958L20.1778 13.2911C19.7872 13.6816 19.1541 13.6816 18.7636 13.2911C18.3731 12.9005 18.3731 12.2673 18.7636 11.8768L24.6412 6L20 6C19.4477 6 19 5.55228 19 5C19 4.44772 19.4477 4 20 4H26C27.1046 4 28 4.89543 28 6V12C28 12.5523 27.5523 13 27 13Z" fill="#0D0F13"/>
<path d="M26 20C26 19.4477 26.4477 19 27 19C27.5523 19 28 19.4477 28 20V26C28 27.1046 27.1046 28 26 28H20C19.4477 28 19 27.5523 19 27C19 26.4477 19.4477 26 20 26H24.6412L18.7636 20.1232C18.3731 19.7327 18.3731 19.0995 18.7636 18.709C19.1541 18.3184 19.7872 18.3184 20.1778 18.7089L26 24.5304V20Z" fill="#0D0F13"/>
</svg>
