<svg width="32" height="32" viewBox="0 0 32 32" fill="none" xmlns="http://www.w3.org/2000/svg">
<path d="M28 23.7574V20.9971C28 20.4446 27.5523 19.9967 27 19.9967C26.4477 19.9967 26 20.4446 26 20.9971V21.7574L28 23.7574Z" fill="#0D0F13"/>
<path d="M17 12.7574V5.00098L26.2929 14.2969C26.6834 14.6875 27.3166 14.6875 27.7071 14.2969C28.0976 13.9062 28.0976 13.2729 27.7071 12.8822L17.4142 2.58598C16.6332 1.80467 15.3668 1.80468 14.5858 2.58598L10.7078 6.46519L12.1223 7.87964L15 5.00098V10.7574L17 12.7574Z" fill="#0D0F13"/>
<path d="M15 19.2426L17 21.2426V22.9977C17 23.5502 16.5523 23.998 16 23.998C15.4477 23.998 15 23.5502 15 22.9977V19.2426Z" fill="#0D0F13"/>
<path d="M7.88033 12.123L6.46588 10.7085L4.29289 12.8822C3.90237 13.2729 3.90237 13.9062 4.29289 14.2969C4.68342 14.6875 5.31658 14.6875 5.70711 14.2969L7.88033 12.123Z" fill="#0D0F13"/>
<path d="M23.7567 27.9993L25.7574 30H6C4.89543 30 4 29.1043 4 27.9993V20.9971C4 20.4446 4.44772 19.9967 5 19.9967C5.55228 19.9967 6 20.4446 6 20.9971V27.9993H23.7567Z" fill="#0D0F13"/>
<path fill-rule="evenodd" clip-rule="evenodd" d="M2.29289 2.29289C2.68342 1.90237 3.31658 1.90237 3.70711 2.29289L29.7071 28.2929C30.0976 28.6834 30.0976 29.3166 29.7071 29.7071C29.3166 30.0976 28.6834 30.0976 28.2929 29.7071L2.29289 3.70711C1.90237 3.31658 1.90237 2.68342 2.29289 2.29289Z" fill="#0D0F13"/>
</svg>
