<svg width="32" height="32" viewBox="0 0 32 32" fill="none" xmlns="http://www.w3.org/2000/svg">
<path fill-rule="evenodd" clip-rule="evenodd" d="M6 30C4.89543 30 4 29.1043 4 27.9993V20.9971C4 20.4446 4.44772 19.9967 5 19.9967C5.55228 19.9967 6 20.4446 6 20.9971V27.9993H26V20.9971C26 20.4446 26.4477 19.9967 27 19.9967C27.5523 19.9967 28 20.4446 28 20.9971V27.9993C28 29.1043 27.1046 30 26 30H6Z" fill="#0D0F13"/>
<path fill-rule="evenodd" clip-rule="evenodd" d="M4.29289 14.2969C3.90237 13.9062 3.90237 13.2729 4.29289 12.8822L14.5858 2.58598C15.3668 1.80468 16.6332 1.80467 17.4142 2.58598L27.7071 12.8822C28.0976 13.2729 28.0976 13.9062 27.7071 14.2969C27.3166 14.6875 26.6834 14.6875 26.2929 14.2969L17 5.00098V22.9977C17 23.5502 16.5523 23.998 16 23.998C15.4477 23.998 15 23.5502 15 22.9977V5.00098L5.70711 14.2969C5.31658 14.6875 4.68342 14.6875 4.29289 14.2969Z" fill="#0D0F13"/>
</svg>
