<svg width="32" height="32" viewBox="0 0 32 32" fill="none" xmlns="http://www.w3.org/2000/svg">
<path fill-rule="evenodd" clip-rule="evenodd" d="M4.06189 16C5.14642 18.8422 8.85485 24 16 24C23.1452 24 26.8536 18.8422 27.9381 16C26.8536 13.1578 23.1452 8 16 8C8.85485 8 5.14642 13.1578 4.06189 16ZM2.05132 15.6838C3.13285 12.4392 7.41905 6 16 6C24.5809 6 28.8672 12.4392 29.9487 15.6838C30.0171 15.889 30.0171 16.111 29.9487 16.3162C28.8672 19.5608 24.5809 26 16 26C7.41905 26 3.13285 19.5608 2.05132 16.3162C1.98289 16.111 1.98289 15.889 2.05132 15.6838Z" fill="#0D0F13"/>
<path fill-rule="evenodd" clip-rule="evenodd" d="M16 13C14.3431 13 13 14.3431 13 16C13 17.6569 14.3431 19 16 19C17.6569 19 19 17.6569 19 16C19 14.3431 17.6569 13 16 13ZM11 16C11 13.2386 13.2386 11 16 11C18.7614 11 21 13.2386 21 16C21 18.7614 18.7614 21 16 21C13.2386 21 11 18.7614 11 16Z" fill="#0D0F13"/>
</svg>
