<svg xmlns="http://www.w3.org/2000/svg" fill="none" viewBox="0 0 33 32"><path fill="#0D0F13" fill-rule="evenodd" d="M16.5 4c-6.627 0-12 5.373-12 12s5.373 12 12 12 12-5.373 12-12-5.373-12-12-12Zm-14 12c0-7.732 6.268-14 14-14s14 6.268 14 14-6.268 14-14 14-14-6.268-14-14Zm8-2a2 2 0 1 1 4 0 2 2 0 0 1-4 0Zm8 0a2 2 0 1 1 4 0 2 2 0 0 1-4 0Zm-2 7c-1.918 0-3.805.918-5.23 2.638a1 1 0 0 1-1.54-1.276C11.488 20.24 13.917 19 16.5 19c2.583 0 5.012 1.24 6.77 3.362a1 1 0 0 1-1.54 1.276C20.305 21.918 18.418 21 16.5 21Z" clip-rule="evenodd"/></svg>