<svg width="32" height="32" viewBox="0 0 32 32" fill="none" xmlns="http://www.w3.org/2000/svg">
<path fill-rule="evenodd" clip-rule="evenodd" d="M16 4C9.37258 4 4 9.37258 4 16C4 22.6274 9.37258 28 16 28C22.6274 28 28 22.6274 28 16C28 9.37258 22.6274 4 16 4ZM2 16C2 8.26801 8.26801 2 16 2C23.732 2 30 8.26801 30 16C30 23.732 23.732 30 16 30C8.26801 30 2 23.732 2 16ZM10 14C10 12.8954 10.8954 12 12 12C13.1046 12 14 12.8954 14 14C14 15.1046 13.1046 16 12 16C10.8954 16 10 15.1046 10 14ZM18 14C18 12.8954 18.8954 12 20 12C21.1046 12 22 12.8954 22 14C22 15.1046 21.1046 16 20 16C18.8954 16 18 15.1046 18 14ZM16 21C14.082 21 12.1947 21.9183 10.7701 23.638C10.4177 24.0633 9.78735 24.1224 9.36205 23.7701C8.93675 23.4177 8.87759 22.7873 9.22992 22.362C10.9879 20.24 13.4171 19 16 19C18.5829 19 21.0121 20.24 22.7701 22.362C23.1224 22.7873 23.0633 23.4177 22.638 23.7701C22.2127 24.1224 21.5823 24.0633 21.2299 23.638C19.8053 21.9183 17.918 21 16 21Z" fill="#0D0F13"/>
</svg>
