<svg xmlns="http://www.w3.org/2000/svg" fill="none" viewBox="0 0 33 32"><path fill="#0D0F13" fill-rule="evenodd" d="M16.5 28c6.627 0 12-5.373 12-12s-5.373-12-12-12-12 5.373-12 12 5.373 12 12 12Zm0 2c7.732 0 14-6.268 14-14s-6.268-14-14-14-14 6.268-14 14 6.268 14 14 14Z" clip-rule="evenodd"/><path fill="#0D0F13" fill-rule="evenodd" d="M9.862 19.23a1 1 0 0 1 1.408.132C12.695 21.082 14.582 22 16.5 22c1.918 0 3.805-.918 5.23-2.638a1 1 0 0 1 1.54 1.276C21.512 22.76 19.083 24 16.5 24c-2.583 0-5.012-1.24-6.77-3.362a1 1 0 0 1 .132-1.408Z" clip-rule="evenodd"/><path fill="#0D0F13" d="M14.5 14a2 2 0 1 1-4 0 2 2 0 0 1 4 0ZM22.5 14a2 2 0 1 1-4 0 2 2 0 0 1 4 0Z"/></svg>