<svg xmlns="http://www.w3.org/2000/svg" fill="none" viewBox="0 0 32 32"><path fill="#0D0F13" fill-rule="evenodd" d="M16 4C9.373 4 4 9.373 4 16s5.373 12 12 12 12-5.373 12-12S22.627 4 16 4ZM2 16C2 8.268 8.268 2 16 2s14 6.268 14 14-6.268 14-14 14S2 23.732 2 16Zm8-2a2 2 0 1 1 4 0 2 2 0 0 1-4 0Zm8 0a2 2 0 1 1 4 0 2 2 0 0 1-4 0Zm-8.638 5.23a1 1 0 0 1 1.408.132C12.195 21.082 14.082 22 16 22c1.918 0 3.805-.918 5.23-2.638a1 1 0 0 1 1.54 1.276C21.012 22.76 18.583 24 16 24c-2.583 0-5.012-1.24-6.77-3.362a1 1 0 0 1 .132-1.408Z" clip-rule="evenodd"/></svg>