<svg width="32" height="32" viewBox="0 0 32 32" fill="none" xmlns="http://www.w3.org/2000/svg">
<path d="M26.2739 9.78363C27.0052 9.28186 28.0004 9.80438 28.0004 10.6901V26C28.0004 27.1046 27.1032 28 25.9965 28H6.00394C4.86148 28 3.95023 27.0482 4.00211 25.9092L4.93466 5.43188C4.97116 4.6308 5.63254 4 6.43607 4H9.50717C10.2852 4 10.9345 4.59253 11.0041 5.36591L11.7128 13.2458L11.7108 13.2459L11.8031 14.2129L18.2582 9.78363C18.9895 9.28186 19.9848 9.80438 19.9848 10.6901V14.099L26.2739 9.78363ZM25.9965 26V12.401L19.7074 16.7163C18.976 17.2181 17.9809 16.6956 17.9809 15.8099V12.401L11.6751 16.7277C10.9826 17.203 10.0333 16.7606 9.95352 15.9256L9.00638 6H6.91483L6.00394 26H25.9965Z" fill="#0D0F13"/>
<path d="M10.9668 20C11.5202 20 11.9688 20.4477 11.9688 21V22C11.9688 22.5523 11.5202 23 10.9668 23C10.4134 23 9.96482 22.5523 9.96482 22V21C9.96481 20.4477 10.4134 20 10.9668 20Z" fill="#0D0F13"/>
<path d="M20.9864 23C20.4329 23 19.9844 22.5523 19.9844 22V21C19.9844 20.4477 20.433 20 20.9864 20C21.5396 20 21.9882 20.4477 21.9882 21V22C21.9882 22.5523 21.5396 23 20.9864 23Z" fill="#0D0F13"/>
<path d="M15.9766 20C16.53 20 16.9785 20.4477 16.9785 21V22C16.9785 22.5523 16.53 23 15.9766 23C15.4232 23 14.9746 22.5523 14.9746 22V21C14.9746 20.4477 15.4232 20 15.9766 20Z" fill="#0D0F13"/>
</svg>
