<svg width="32" height="32" viewBox="0 0 32 32" fill="none" xmlns="http://www.w3.org/2000/svg">
<path fill-rule="evenodd" clip-rule="evenodd" d="M6.95552 6L6.04643 26H25.9999V12.401L19.7231 16.7163C18.9933 17.2181 17.9999 16.6956 17.9999 15.8099V12.401L11.7072 16.7273C11.0143 17.2037 10.0647 16.7579 9.98858 15.9204L9.08673 6H6.95552ZM4.97928 5.43189C5.01569 4.63078 5.67579 4 6.47773 4H9.54334C10.3191 4 10.9669 4.59158 11.0372 5.3642L11.8412 14.2081L18.2768 9.78366C19.0066 9.28188 19.9999 9.8044 19.9999 10.6901V14.099L26.2768 9.78366C27.0066 9.28188 27.9999 9.8044 27.9999 10.6901V26C27.9999 27.1046 27.1045 28 25.9999 28H6.04643C4.90621 28 3.99672 27.0482 4.04849 25.9092L4.97928 5.43189Z" fill="black"/>
<path fill-rule="evenodd" clip-rule="evenodd" d="M20.9999 20C21.5522 20 21.9999 20.4477 21.9999 21V22C21.9999 22.5523 21.5522 23 20.9999 23C20.4477 23 19.9999 22.5523 19.9999 22V21C19.9999 20.4477 20.4477 20 20.9999 20Z" fill="black"/>
<path fill-rule="evenodd" clip-rule="evenodd" d="M15.9999 20C16.5522 20 16.9999 20.4477 16.9999 21V22C16.9999 22.5523 16.5522 23 15.9999 23C15.4477 23 14.9999 22.5523 14.9999 22V21C14.9999 20.4477 15.4477 20 15.9999 20Z" fill="black"/>
<path fill-rule="evenodd" clip-rule="evenodd" d="M10.9999 20C11.5522 20 11.9999 20.4477 11.9999 21V22C11.9999 22.5523 11.5522 23 10.9999 23C10.4477 23 9.99994 22.5523 9.99994 22V21C9.99994 20.4477 10.4477 20 10.9999 20Z" fill="black"/>
</svg>
