<svg width="32" height="32" viewBox="0 0 32 32" fill="none" xmlns="http://www.w3.org/2000/svg">
<path d="M5.04744 25.9546L4.04847 25.9092L4.04847 25.9092L5.04744 25.9546ZM5.97823 5.4773L4.97926 5.43189L4.97926 5.43189L5.97823 5.4773ZM10.0408 5.4553L9.04479 5.5447L9.04479 5.5447L10.0408 5.4553ZM9.75208 13.4246C9.80145 13.9746 10.2874 14.3805 10.8375 14.3312C11.3875 14.2818 11.7934 13.7958 11.7441 13.2458L9.75208 13.4246ZM10.9838 15.8308L11.9793 15.736L11.9793 15.736L10.9838 15.8308ZM11.14 15.9037L10.5735 15.0796L10.5735 15.0797L11.14 15.9037ZM18.8433 10.6077L19.4098 11.4317L19.4098 11.4317L18.8433 10.6077ZM19.1566 15.8923L19.7231 16.7163L19.7231 16.7163L19.1566 15.8923ZM26.8433 10.6077L27.4098 11.4317L27.4098 11.4317L26.8433 10.6077ZM11.9999 21C11.9999 20.4477 11.5522 20 10.9999 20C10.4476 20 9.99992 20.4477 9.99992 21H11.9999ZM9.99992 22C9.99992 22.5523 10.4476 23 10.9999 23C11.5522 23 11.9999 22.5523 11.9999 22H9.99992ZM16.9999 21C16.9999 20.4477 16.5522 20 15.9999 20C15.4476 20 14.9999 20.4477 14.9999 21H16.9999ZM14.9999 22C14.9999 22.5523 15.4476 23 15.9999 23C16.5522 23 16.9999 22.5523 16.9999 22H14.9999ZM21.9999 21C21.9999 20.4477 21.5522 20 20.9999 20C20.4476 20 19.9999 20.4477 19.9999 21H21.9999ZM19.9999 22C19.9999 22.5523 20.4476 23 20.9999 23C21.5522 23 21.9999 22.5523 21.9999 22H19.9999ZM25.9999 26H6.04641V28H25.9999V26ZM6.04641 26L6.97719 5.5227L4.97926 5.43189L4.04847 25.9092L6.04641 26ZM6.47771 6H9.54279V4H6.47771V6ZM9.04479 5.5447L9.75208 13.4246L11.7441 13.2458L11.0368 5.3659L9.04479 5.5447ZM9.54279 6C9.28397 6 9.06793 5.80248 9.04479 5.5447L11.0368 5.3659C10.9674 4.59255 10.3193 4 9.54279 4V6ZM6.04641 26L6.04641 26L4.04847 25.9092C3.9967 27.0482 4.90619 28 6.04641 28V26ZM25.9999 26V26V28C27.1045 28 27.9999 27.1046 27.9999 26H25.9999ZM6.97719 5.5227C6.96506 5.78974 6.74503 6 6.47771 6V4C5.67577 4 5.01567 4.63078 4.97926 5.43189L6.97719 5.5227ZM9.00443 5.59481L9.98831 15.9256L11.9793 15.736L10.9954 5.40519L9.00443 5.59481ZM11.7065 16.7277L19.4098 11.4317L18.2767 9.78366L10.5735 15.0796L11.7065 16.7277ZM17.9999 10.6901V15.8099H19.9999V10.6901H17.9999ZM19.7231 16.7163L27.4098 11.4317L26.2767 9.78366L18.59 15.0683L19.7231 16.7163ZM27.4098 11.4317C26.8126 11.8423 25.9999 11.4148 25.9999 10.6901H27.9999C27.9999 9.80441 27.0066 9.28188 26.2767 9.78366L27.4098 11.4317ZM17.9999 15.8099C17.9999 16.6956 18.9932 17.2181 19.7231 16.7163L18.59 15.0683C19.1872 14.6577 19.9999 15.0852 19.9999 15.8099H17.9999ZM19.4098 11.4317C18.8126 11.8423 17.9999 11.4148 17.9999 10.6901H19.9999C19.9999 9.80441 19.0066 9.28188 18.2767 9.78366L19.4098 11.4317ZM9.98831 15.9256C10.0678 16.7607 11.0153 17.203 11.7065 16.7277L10.5735 15.0797C11.139 14.6908 11.9142 15.0527 11.9793 15.736L9.98831 15.9256ZM9.99992 21V22H11.9999V21H9.99992ZM14.9999 21V22H16.9999V21H14.9999ZM19.9999 21V22H21.9999V21H19.9999ZM25.9999 10.6901V26H27.9999V10.6901H25.9999Z" fill="black"/>
</svg>
