<svg width="32" height="32" viewBox="0 0 32 32" fill="none" xmlns="http://www.w3.org/2000/svg">
<path fill-rule="evenodd" clip-rule="evenodd" d="M6.91483 6L6.00396 26H25.9965V12.401L19.7074 16.7163C18.9761 17.2181 17.9809 16.6956 17.9809 15.8099V12.401L11.6752 16.7277C10.9826 17.203 10.0333 16.7606 9.95357 15.9256L9.00643 6H6.91483ZM11.7108 13.2459L11.7128 13.2458L11.0041 5.3659C10.9345 4.59255 10.2852 4 9.50718 4H6.4361C5.63259 4 4.9712 4.63078 4.93472 5.43189L4.00211 25.9092C3.95023 27.0482 4.86151 28 6.00396 28H25.9965C27.1032 28 28.0004 27.1046 28.0004 26V10.6901C28.0004 9.80441 27.0052 9.28188 26.2739 9.78366L19.9848 14.099V10.6901C19.9848 9.80441 18.9895 9.28188 18.2582 9.78366L11.8031 14.2129L11.7108 13.2459Z" fill="#0D0F13"/>
<path fill-rule="evenodd" clip-rule="evenodd" d="M10.9668 20C11.5202 20 11.9688 20.4477 11.9688 21V22C11.9688 22.5523 11.5202 23 10.9668 23C10.4134 23 9.96484 22.5523 9.96484 22V21C9.96484 20.4477 10.4134 20 10.9668 20ZM15.9766 20C16.53 20 16.9785 20.4477 16.9785 21V22C16.9785 22.5523 16.53 23 15.9766 23C15.4232 23 14.9746 22.5523 14.9746 22V21C14.9746 20.4477 15.4232 20 15.9766 20ZM20.9864 20C21.5397 20 21.9883 20.4477 21.9883 21V22C21.9883 22.5523 21.5397 23 20.9864 23C20.433 23 19.9844 22.5523 19.9844 22V21C19.9844 20.4477 20.433 20 20.9864 20Z" fill="#0D0F13"/>
</svg>
