<svg width="32" height="32" viewBox="0 0 32 32" fill="none" xmlns="http://www.w3.org/2000/svg">
<path fill-rule="evenodd" clip-rule="evenodd" d="M6.95552 6L6.04643 26L25.9999 26V12.401L19.7231 16.7163C18.9933 17.2181 17.9999 16.6956 17.9999 15.8099V12.401L11.7066 16.7277C11.0153 17.203 10.0679 16.7606 9.98833 15.9256L9.04304 6H6.95552ZM11.7422 13.2459L11.7441 13.2458L11.0368 5.3659C10.9674 4.59255 10.3193 4 9.54281 4H6.47773C5.67579 4 5.01569 4.63078 4.97928 5.43189L4.04849 25.9092C3.99672 27.0482 4.90621 28 6.04643 28H25.9999C27.1045 28 27.9999 27.1046 27.9999 26V10.6901C27.9999 9.80441 27.0066 9.28188 26.2768 9.78366L19.9999 14.099V10.6901C19.9999 9.80441 19.0066 9.28188 18.2768 9.78366L11.8343 14.2129L11.7422 13.2459Z" fill="black"/>
<path fill-rule="evenodd" clip-rule="evenodd" d="M10.9999 20C11.5522 20 11.9999 20.4477 11.9999 21V22C11.9999 22.5523 11.5522 23 10.9999 23C10.4477 23 9.99994 22.5523 9.99994 22V21C9.99994 20.4477 10.4477 20 10.9999 20Z" fill="black"/>
<path fill-rule="evenodd" clip-rule="evenodd" d="M15.9999 20C16.5522 20 16.9999 20.4477 16.9999 21V22C16.9999 22.5523 16.5522 23 15.9999 23C15.4477 23 14.9999 22.5523 14.9999 22V21C14.9999 20.4477 15.4477 20 15.9999 20Z" fill="black"/>
<path fill-rule="evenodd" clip-rule="evenodd" d="M20.9999 20C21.5522 20 21.9999 20.4477 21.9999 21V22C21.9999 22.5523 21.5522 23 20.9999 23C20.4477 23 19.9999 22.5523 19.9999 22V21C19.9999 20.4477 20.4477 20 20.9999 20Z" fill="black"/>
</svg>
