<svg width="32" height="32" viewBox="0 0 32 32" fill="none" xmlns="http://www.w3.org/2000/svg">
<path d="M3.70711 2.29289C3.31658 1.90237 2.68342 1.90237 2.29289 2.29289C1.90237 2.68342 1.90237 3.31658 2.29289 3.70711L20 21.4142V22C20 22.5523 20.4477 23 21 23C21.1695 23 21.3292 22.9578 21.4691 22.8834L28.2929 29.7071C28.6834 30.0976 29.3166 30.0976 29.7071 29.7071C30.0976 29.3166 30.0976 28.6834 29.7071 28.2929L3.70711 2.29289Z" fill="#0D0F13"/>
<path d="M26.0004 21.7578L28.0004 23.7578V10.6901C28.0004 9.80441 27.0071 9.28188 26.2772 9.78366L20.0004 14.099V10.6901C20.0004 9.80441 19.0071 9.28188 18.2772 9.78366L15.7582 11.5155L17.1964 12.9538L18.0004 12.401V13.7578L20.4557 16.213L26.0004 12.401V21.7578Z" fill="#0D0F13"/>
<path d="M12.1681 16.4108L9.81049 14.0531L9.98882 15.9256C10.0683 16.7606 11.0158 17.203 11.707 16.7277L12.1681 16.4108Z" fill="#0D0F13"/>
<path d="M6.72998 10.9726L6.04692 26H21.7574L23.7574 28H6.04692C4.9067 28 3.99721 27.0482 4.04898 25.9092L4.81496 9.0576L6.72998 10.9726Z" fill="#0D0F13"/>
<path d="M8.24264 4L11.1782 6.93554L11.0373 5.3659C10.9679 4.59255 10.3198 4 9.5433 4H8.24264Z" fill="#0D0F13"/>
<path d="M11 20C11.5523 20 12 20.4477 12 21V22C12 22.5523 11.5523 23 11 23C10.4477 23 10 22.5523 10 22V21C10 20.4477 10.4477 20 11 20Z" fill="#0D0F13"/>
<path d="M16 20C16.5523 20 17 20.4477 17 21V22C17 22.5523 16.5523 23 16 23C15.4477 23 15 22.5523 15 22V21C15 20.4477 15.4477 20 16 20Z" fill="#0D0F13"/>
</svg>
