<svg width="32" height="32" viewBox="0 0 32 32" fill="none" xmlns="http://www.w3.org/2000/svg">
<path fill-rule="evenodd" clip-rule="evenodd" d="M18 4C18.5523 4 19 4.44772 19 5V6H21.1078C22.1066 6 22.9523 6.73684 23.089 7.72622L23.9217 13.7517L25.2585 13.9956C26.2948 14.1847 27.0068 15.1453 26.8863 16.1919L25.8927 24.821C26.2628 25.0588 26.6196 25.3246 26.96 25.6182L27.657 26.2193C28.0752 26.58 28.1218 27.2115 27.7611 27.6297C27.4004 28.0479 26.769 28.0945 26.3508 27.7338L25.6538 27.1327C23.1521 24.9751 19.5291 24.7202 16.7499 26.5064C13.5229 28.5804 9.43553 28.4699 6.35921 26.4006L6.28469 26.4091L6.27737 26.3449C5.74248 25.9769 5.23903 25.549 4.77703 25.0625L4.27191 24.5305C3.89162 24.1301 3.908 23.4971 4.30849 23.1168C4.70899 22.7365 5.34194 22.7529 5.72223 23.1534L5.93979 23.3825L5.12012 16.1896C5.00096 15.1439 5.7126 14.1848 6.74792 13.9957L8.07812 13.7528L8.91094 7.72622C9.04767 6.73685 9.89334 6 10.8921 6H17V5C17 4.44772 17.4477 4 18 4ZM10.8921 8L10.1494 13.3745L15.6404 12.3716C15.8778 12.3283 16.1212 12.3282 16.3587 12.3716L21.8504 13.3737L21.1078 8L10.8921 8ZM8.15373 25.1463C10.2607 26.2582 12.8176 26.3114 15.0002 25.2066V14.5216L7.10726 15.9632L8.15373 25.1463ZM17.0002 14.5217V24.1108C19.233 23.1357 21.7378 23.0715 23.9877 23.8812L24.8994 15.9631L17.0002 14.5217Z" fill="black"/>
</svg>
