<svg width="32" height="32" viewBox="0 0 32 32" fill="none" xmlns="http://www.w3.org/2000/svg">
<path fill-rule="evenodd" clip-rule="evenodd" d="M19 5C19 4.44772 18.5523 4 18 4C17.4477 4 17 4.44772 17 5V6H10.892C9.89326 6 9.04759 6.73685 8.91086 7.72622L8.07804 13.7528L6.74777 13.9958C5.71244 14.1849 5.0008 15.144 5.11997 16.1897L5.93961 23.3823L5.72223 23.1534C5.34194 22.7529 4.70899 22.7366 4.30849 23.1168C3.908 23.4971 3.89162 24.1301 4.27191 24.5306L4.77703 25.0625C5.23898 25.549 5.74237 25.9769 6.2772 26.3449L6.28453 26.4092L6.35922 26.4007C9.43553 28.47 13.5229 28.5805 16.7499 26.5064C19.5291 24.7203 23.1521 24.9751 25.6538 27.1328L26.3508 27.7339C26.769 28.0946 27.4004 28.0479 27.7611 27.6297C28.1218 27.2115 28.0752 26.58 27.657 26.2193L26.96 25.6182C26.6196 25.3246 26.2627 25.0587 25.8926 24.8209L26.8862 16.192C27.0067 15.1454 26.2947 14.1848 25.2583 13.9957L23.9216 13.7518L23.0889 7.72622C22.9522 6.73684 22.1065 6 21.1077 6H19V5ZM23.9876 23.8812L24.8993 15.9632L17 14.5217L17 24.1109C19.2328 23.1358 21.7376 23.0715 23.9876 23.8812ZM15 25.2068L15 14.5217L7.10711 15.9632L8.15356 25.1463C10.2605 26.2582 12.8174 26.3115 15 25.2068ZM10.892 8L10.1493 13.3745L15.6402 12.3717C15.8777 12.3283 16.1211 12.3283 16.3586 12.3716L21.8504 13.3738L21.1077 8L10.892 8Z" fill="black"/>
</svg>
