<svg width="32" height="32" viewBox="0 0 32 32" fill="none" xmlns="http://www.w3.org/2000/svg">
<path fill-rule="evenodd" clip-rule="evenodd" d="M18.9986 4.99874C18.9986 4.44661 18.551 3.99902 17.9989 3.99902C17.4468 3.99902 16.9992 4.44661 16.9992 4.99874V5.99845H10.8931C9.89457 5.99845 9.04914 6.73509 8.91246 7.72418L8.07987 13.7491L6.75004 13.992C5.71501 14.181 5.00357 15.1399 5.1227 16.1852L5.94212 23.376L5.72467 23.147C5.34449 22.7466 4.71171 22.7302 4.31133 23.1104C3.91095 23.4906 3.89458 24.1234 4.27476 24.5238L4.77974 25.0556C5.2416 25.542 5.74489 25.9697 6.27962 26.3376L6.28693 26.4018L6.3615 26.3933C9.43693 28.462 13.5232 28.5725 16.7492 26.4991C19.5276 24.7134 23.1496 24.9682 25.6506 27.1252L26.3473 27.7261C26.7654 28.0867 27.3967 28.0401 27.7573 27.622C28.1179 27.2039 28.0713 26.5726 27.6532 26.212L26.9564 25.6111C26.6161 25.3176 26.2594 25.0518 25.8894 24.8141L26.8827 16.1875C27.0032 15.1413 26.2914 14.1809 25.2553 13.9919L23.9189 13.748L23.0865 7.72418C22.9498 6.73509 22.1044 5.99845 21.1059 5.99845H18.9986V4.99874ZM23.9849 23.8746L24.8964 15.9588L16.9994 14.5178V24.1042C19.2316 23.1294 21.7356 23.0652 23.9849 23.8746ZM15 25.1997V14.5177L7.10927 15.9589L8.15544 25.1393C10.2618 26.2509 12.8181 26.3041 15 25.1997ZM10.8931 7.99789L10.1506 13.3709L15.6399 12.3683C15.8774 12.325 16.1207 12.325 16.3581 12.3683L21.8483 13.3701L21.1059 7.99789H10.8931Z" fill="#0D0F13"/>
</svg>
