<svg width="32" height="32" viewBox="0 0 32 32" fill="none" xmlns="http://www.w3.org/2000/svg">
<path d="M26.2139 21.9713L26.8798 16.1885C27.0002 15.1422 26.2885 14.1819 25.2524 13.9928L23.916 13.749L23.0835 7.72516C22.9469 6.73607 22.1014 5.99943 21.1029 5.99943H18.9957V4.99972C18.9957 4.44759 18.5481 4 17.996 4C17.4439 4 16.9963 4.44759 16.9963 4.99972V5.99943H10.8901C10.694 5.99943 10.5038 6.02785 10.3237 6.08103L12.2415 7.99886H21.1029L21.8453 13.3711L16.6692 12.4266L19.1553 14.9127L24.8935 15.9598L24.4091 20.1664L26.2139 21.9713Z" fill="#0D0F13"/>
<path d="M16.9965 21.2392L14.9971 19.2397V25.2006C12.8151 26.3051 10.2589 26.2519 8.15251 25.1403L7.10635 15.9598L11.0051 15.2478L8.25062 12.4933L8.07694 13.7501L6.74711 13.9929C5.71208 14.182 5.00064 15.1408 5.11977 16.1862L5.93919 23.377L5.72174 23.148C5.34156 22.7476 4.70878 22.7312 4.3084 23.1114C3.90802 23.4916 3.89165 24.1244 4.27183 24.5247L4.77681 25.0565C5.23867 25.5429 5.74196 25.9707 6.27669 26.3386L6.284 26.4028L6.35857 26.3943C9.434 28.463 13.5202 28.5735 16.7463 26.5C18.0701 25.6492 19.5854 25.2617 21.0797 25.3223L19.2053 23.4479C18.4527 23.5746 17.7107 23.7933 16.9965 24.1051V21.2392Z" fill="#0D0F13"/>
<path d="M2.29289 2.29289C2.68342 1.90237 3.31658 1.90237 3.70711 2.29289L29.7071 28.2929C30.0976 28.6834 30.0976 29.3166 29.7071 29.7071C29.3166 30.0976 28.6834 30.0976 28.2929 29.7071L2.29289 3.70711C1.90237 3.31658 1.90237 2.68342 2.29289 2.29289Z" fill="#0D0F13"/>
</svg>
