<svg width="32" height="32" viewBox="0 0 32 32" fill="none" xmlns="http://www.w3.org/2000/svg">
<path fill-rule="evenodd" clip-rule="evenodd" d="M12.4667 8.52368C12.0345 9.99788 10.672 11.0744 9.05797 11.0744C7.44398 11.0744 6.08144 9.99788 5.64924 8.52368L2.99023 8.52368C2.43795 8.52368 1.99023 8.07597 1.99023 7.52368C1.99023 6.9714 2.43795 6.52368 2.99023 6.52368L5.64866 6.52368C6.08022 5.04846 7.44326 3.97095 9.05797 3.97095C10.6727 3.97095 12.0357 5.04846 12.4673 6.52368L29.0196 6.52368C29.5719 6.52368 30.0196 6.9714 30.0196 7.52368C30.0196 8.07596 29.5719 8.52368 29.0196 8.52368L12.4667 8.52368ZM10.6097 7.52269C10.6097 8.3797 9.91498 9.07444 9.05797 9.07444C8.20097 9.07444 7.50623 8.3797 7.50623 7.52269C7.50623 6.66569 8.20097 5.97095 9.05797 5.97095C9.91498 5.97095 10.6097 6.66569 10.6097 7.52269Z" fill="#0D0F13"/>
<path fill-rule="evenodd" clip-rule="evenodd" d="M24.7412 14.7994L29.0184 14.7993C29.6811 14.7993 30.2184 15.3366 30.2184 15.9993C30.2184 16.6621 29.6811 17.1993 29.0184 17.1993L24.7412 17.1994C24.2491 18.5704 22.9377 19.551 21.3973 19.551C19.8569 19.551 18.5456 18.5704 18.0534 17.1994L3.17559 17.1995C2.51285 17.1995 1.97559 16.6622 1.97559 15.9995C1.97558 15.3367 2.51284 14.7995 3.17558 14.7995L18.0533 14.7994C18.5454 13.4283 19.8568 12.4475 21.3973 12.4475C22.9378 12.4475 24.2492 13.4282 24.7412 14.7994ZM22.9375 16.1891C22.8439 16.9565 22.19 17.551 21.3973 17.551C20.5403 17.551 19.8456 16.8563 19.8456 15.9993C19.8456 15.1422 20.5403 14.4475 21.3973 14.4475C22.1901 14.4475 22.844 15.042 22.9376 15.8096C22.9277 15.8714 22.9226 15.9348 22.9226 15.9994C22.9226 16.0639 22.9277 16.1273 22.9375 16.1891Z" fill="#0D0F13"/>
<path fill-rule="evenodd" clip-rule="evenodd" d="M14.5378 25.4885C14.1069 26.9647 12.7434 28.0432 11.1279 28.0432C9.51327 28.0432 8.15027 26.9658 7.71865 25.4906H2.98897C2.43669 25.4906 1.98897 25.0429 1.98897 24.4906C1.98897 23.9383 2.43669 23.4906 2.98897 23.4906H7.71913C8.15127 22.0163 9.51386 20.9397 11.1279 20.9397C12.7427 20.9397 14.1058 22.0173 14.5373 23.4927C14.5591 23.4913 14.581 23.4906 14.6031 23.4906L29.0194 23.4906C29.5716 23.4906 30.0194 23.9383 30.0194 24.4906C30.0194 25.0429 29.5716 25.4906 29.0194 25.4906L14.6031 25.4906C14.5812 25.4906 14.5594 25.4899 14.5378 25.4885ZM12.6797 24.4914C12.6797 25.3484 11.9849 26.0432 11.1279 26.0432C10.2709 26.0432 9.57617 25.3484 9.57617 24.4914C9.57617 23.6344 10.2709 22.9397 11.1279 22.9397C11.9849 22.9397 12.6797 23.6344 12.6797 24.4914Z" fill="#0D0F13"/>
</svg>
