<svg width="32" height="32" viewBox="0 0 32 32" fill="none" xmlns="http://www.w3.org/2000/svg">
<path fill-rule="evenodd" clip-rule="evenodd" d="M22.7236 18.481L25.7446 14.8103C26.3416 14.0849 25.8254 12.9921 24.8857 12.9921H17.8426L20.2842 3.32636C20.5617 2.22813 19.1556 1.51755 18.4353 2.39192L13.1053 8.86266L14.5417 10.299L17.2757 6.97993L16.055 11.8123L19.2562 15.0136H22.9587L21.2872 17.0445L22.7236 18.481ZM15.9483 20.191L14.7286 25.0137L17.4565 21.6991L18.8929 23.1355L13.5663 29.6077C12.8462 30.4828 11.4394 29.7718 11.7172 28.6733L14.1646 18.9967H7.11432C6.1744 18.9967 5.65827 17.9035 6.25573 17.1781L9.27277 13.5154L10.7091 14.9518L9.0424 16.9752H12.7326L15.9483 20.191Z" fill="#0D0F13"/>
<path fill-rule="evenodd" clip-rule="evenodd" d="M2.29289 2.29289C2.68342 1.90237 3.31658 1.90237 3.70711 2.29289L29.7071 28.2929C30.0976 28.6834 30.0976 29.3166 29.7071 29.7071C29.3166 30.0976 28.6834 30.0976 28.2929 29.7071L2.29289 3.70711C1.90237 3.31658 1.90237 2.68342 2.29289 2.29289Z" fill="#0D0F13"/>
</svg>
