<svg width="22" height="33" viewBox="0 0 22 33" fill="none" xmlns="http://www.w3.org/2000/svg">
<path fill-rule="evenodd" clip-rule="evenodd" d="M11 31C15.9706 31 20 26.9706 20 22C20 17.0294 15.9706 13 11 13C6.02944 13 2 17.0294 2 22C2 26.9706 6.02944 31 11 31ZM11 33C17.0751 33 22 28.0751 22 22C22 15.9249 17.0751 11 11 11C4.92487 11 0 15.9249 0 22C0 28.0751 4.92487 33 11 33Z" fill="black"/>
<path fill-rule="evenodd" clip-rule="evenodd" d="M11 20C15.9706 20 20 15.9706 20 11C20 6.02944 15.9706 2 11 2C6.02944 2 2 6.02944 2 11C2 15.9706 6.02944 20 11 20ZM11 22C17.0751 22 22 17.0751 22 11C22 4.92487 17.0751 0 11 0C4.92487 0 0 4.92487 0 11C0 17.0751 4.92487 22 11 22Z" fill="black"/>
</svg>
