<svg width="32" height="32" viewBox="0 0 32 32" fill="none" xmlns="http://www.w3.org/2000/svg">
<path fill-rule="evenodd" clip-rule="evenodd" d="M2 7C2 5.89543 2.89543 5 4 5H11.5858C12.1162 5 12.6249 5.21071 13 5.58579L14.4142 7H28C29.1046 7 30 7.89543 30 9V25C30 26.1046 29.1046 27 28 27H4C2.89543 27 2 26.1046 2 25V7ZM14.5603 7.14604L14.5607 7.14645L14.2071 7.5L14.5607 7.14645C14.5605 7.14631 14.5604 7.14617 14.5603 7.14604ZM11.5858 7L4 7V25H28V9H14.2071C13.8093 9 13.4278 8.84196 13.1464 8.56066L11.5858 7Z" fill="#0D0F13"/>
</svg>
