<svg width="32" height="32" viewBox="0 0 32 32" fill="none" xmlns="http://www.w3.org/2000/svg">
<path d="M8.45053 4.20789L9.9041 5.66146C11.6906 4.60579 13.7746 4 16 4C19.0437 4 21.8214 5.13208 23.9375 7H22C21.4477 7 21 7.44771 21 8C21 8.55228 21.4477 9 22 9H26C26.5523 9 27 8.55228 27 8V4C27 3.44772 26.5523 3 26 3C25.4477 3 25 3.44772 25 4V5.27583C22.567 3.23212 19.4267 2 16 2C13.2198 2 10.6288 2.81041 8.45053 4.20789Z" fill="#0D0F13"/>
<path d="M5.66146 9.9041C4.60579 11.6906 4 13.7746 4 16C4 22.6274 9.37258 28 16 28C18.2253 28 20.3093 27.3942 22.0959 26.3385L23.5495 27.7921C21.3712 29.1896 18.7803 30 16 30C8.26801 30 2 23.732 2 16C2 13.2198 2.81041 10.6288 4.20789 8.45053L5.66146 9.9041Z" fill="#0D0F13"/>
<path d="M27.792 23.5494C29.0056 21.6576 29.7765 19.4546 29.9584 17.0865C30.0007 16.5359 29.5886 16.0552 29.038 16.0129C28.4873 15.9705 28.0066 16.3826 27.9643 16.9333C27.8203 18.8077 27.2454 20.5615 26.3386 22.096L27.792 23.5494Z" fill="#0D0F13"/>
<path d="M22.2483 17.3558C22.2483 17.5586 22.2293 17.757 22.1913 17.9486L18.8126 14.5699C18.9093 14.5631 19.0093 14.5595 19.1127 14.5595C21.2304 14.5595 22.2483 15.7646 22.2483 17.3558Z" fill="#0D0F13"/>
<path d="M17.5498 13.3071L16.1003 11.8577L16.1175 11.693H21.7686V13.0385H17.58L17.5498 13.3071Z" fill="#0D0F13"/>
<path d="M10.0307 14.2734L10.6005 14.8431L10.0307 15.2849V14.2734Z" fill="#0D0F13"/>
<path d="M13.7981 18.0408L12.1133 16.356V20H13.7981V18.0408Z" fill="#0D0F13"/>
<path d="M3.70711 2.29289C3.31658 1.90237 2.68342 1.90237 2.29289 2.29289C1.90237 2.68342 1.90237 3.31658 2.29289 3.70711L28.2929 29.7071C28.6834 30.0976 29.3166 30.0976 29.7071 29.7071C30.0976 29.3166 30.0976 28.6834 29.7071 28.2929L3.70711 2.29289Z" fill="#0D0F13"/>
</svg>
