<svg width="32" height="32" viewBox="0 0 32 32" fill="none" xmlns="http://www.w3.org/2000/svg">
<path d="M29.0574 16.0129C29.6082 16.0552 30.0203 16.5359 29.978 17.0865C29.4229 24.3113 23.386 30 16.0195 30C8.28754 30 2.01953 23.732 2.01953 16C2.01953 8.26801 8.28754 2 16.0195 2C19.4462 2 22.5866 3.23212 25.0195 5.27582V4C25.0195 3.44769 25.4672 3 26.0195 3C26.5718 3 27.0195 3.44769 27.0195 4V8C27.0195 8.55231 26.5718 9 26.0195 9H22.0195C21.4672 9 21.0195 8.55231 21.0195 8C21.0195 7.44769 21.4672 7 22.0195 7H23.957C21.8409 5.13208 19.0632 4 16.0195 4C9.39209 4 4.01953 9.37256 4.01953 16C4.01953 22.6274 9.39209 28 16.0195 28C22.3328 28 27.5081 23.124 27.9838 16.9333C28.0261 16.3826 28.5068 15.9705 29.0574 16.0129Z" fill="#0D0F13"/>
<path d="M13.8181 19.9999H12.1334V13.6702L10.0507 15.2848V13.6L12.3322 11.6929H13.8181V19.9999Z" fill="#0D0F13"/>
<path d="M18.9573 18.9001C19.8815 18.9001 20.4899 18.3385 20.4899 17.4844V17.2504C20.4899 16.3846 19.905 15.8581 18.8754 15.8581C18.0798 15.8581 17.5883 16.1623 17.3427 16.5367H15.6345L16.1376 11.6929H21.7886V13.0384H17.6L17.3777 15.0157C17.8107 14.7466 18.384 14.5594 19.1327 14.5594C21.2504 14.5594 22.2684 15.7645 22.2684 17.3557C22.2684 18.9001 21.1685 20.1871 18.9338 20.1871C16.5353 20.1871 15.5175 18.9937 15.494 17.7652H17.3544C17.4714 18.4672 17.9979 18.9001 18.9573 18.9001Z" fill="#0D0F13"/>
</svg>
