<svg xmlns="http://www.w3.org/2000/svg" fill="none" viewBox="0 0 32 32"><path fill="#0D1013" d="M8.45 4.208 9.905 5.66A11.944 11.944 0 0 1 16 4c3.044 0 5.821 1.132 7.938 3H22a1 1 0 1 0 0 2h4a1 1 0 0 0 1-1V4a1 1 0 1 0-2 0v1.276A13.947 13.947 0 0 0 16 2c-2.78 0-5.371.81-7.55 2.208ZM5.661 9.904A11.944 11.944 0 0 0 4 16c0 6.627 5.373 12 12 12 2.225 0 4.31-.606 6.096-1.662l1.453 1.454A13.934 13.934 0 0 1 16 30C8.268 30 2 23.732 2 16c0-2.78.81-5.371 2.208-7.55L5.66 9.905ZM27.792 23.55a13.92 13.92 0 0 0 2.166-6.463 1 1 0 0 0-1.994-.154 11.924 11.924 0 0 1-1.625 5.163l1.453 1.453ZM22.248 17.356c0 .203-.019.401-.057.593l-3.378-3.38c.096-.006.196-.01.3-.01 2.117 0 3.135 1.206 3.135 2.797ZM17.55 13.307l-1.45-1.45.017-.164h5.652v1.346H17.58l-.03.268Z"/><path fill="#0D1013" d="m10.03 14.273.57.57-.57.442v-1.012ZM13.798 18.04l-1.685-1.684V20h1.685v-1.96ZM3.707 2.293a1 1 0 0 0-1.414 1.414l26 26a1 1 0 0 0 1.414-1.414l-26-26Z"/></svg>