<svg width="32" height="32" viewBox="0 0 32 32" fill="none" xmlns="http://www.w3.org/2000/svg">
<path d="M16.0195 4C9.39211 4 4.01953 9.37258 4.01953 16C4.01953 22.6274 9.39211 28 16.0195 28C22.3328 28 27.5082 23.124 27.9838 16.9333C28.0261 16.3826 28.5068 15.9705 29.0575 16.0129C29.6082 16.0552 30.0203 16.5359 29.9779 17.0865C29.4228 24.3113 23.386 30 16.0195 30C8.28754 30 2.01953 23.732 2.01953 16C2.01953 8.26801 8.28754 2 16.0195 2C19.4462 2 22.5866 3.23212 25.0195 5.27583V4C25.0195 3.44772 25.4672 3 26.0195 3C26.5718 3 27.0195 3.44772 27.0195 4V8C27.0195 8.55228 26.5718 9 26.0195 9H22.0195C21.4672 9 21.0195 8.55228 21.0195 8C21.0195 7.44771 21.4672 7 22.0195 7H23.957C21.8409 5.13208 19.0632 4 16.0195 4Z" fill="#0D0F13"/>
<path d="M13.8182 11.6929H12.3323L10.0508 13.6V15.2848L12.1334 13.6702V19.9999H13.8182V11.6929Z" fill="#0D0F13"/>
<path d="M22.2683 17.3557C22.2683 15.7645 21.2504 14.5594 19.1327 14.5594C18.3839 14.5594 17.8106 14.7466 17.3777 15.0157L17.6 13.0384H21.7886V11.6929H16.1375L15.6344 16.5367H17.3426C17.5883 16.1623 18.0797 15.8581 18.8753 15.8581C19.9049 15.8581 20.4899 16.3846 20.4899 17.2504V17.4844C20.4899 18.3385 19.8815 18.9001 18.9572 18.9001C17.9978 18.9001 17.4713 18.4672 17.3543 17.7652H15.494C15.5174 18.9937 16.5353 20.1871 18.9338 20.1871C21.1685 20.1871 22.2683 18.9001 22.2683 17.3557Z" fill="#0D0F13"/>
</svg>
