<svg width="32" height="32" viewBox="0 0 32 32" fill="none" xmlns="http://www.w3.org/2000/svg">
<path fill-rule="evenodd" clip-rule="evenodd" d="M19.4665 2.74025C18.7813 1.75998 17.3388 1.74894 16.6392 2.71973C16.2461 3.26516 15.6888 4.05052 15.0437 4.99467C14.7319 5.45098 14.8498 6.07311 15.3071 6.38423C15.7644 6.69535 16.3878 6.57765 16.6996 6.12133C17.2192 5.36092 17.6806 4.70559 18.0422 4.19973C19.0959 5.71987 21.005 8.56239 22.6963 11.5483C23.605 13.1526 24.4403 14.78 25.0457 16.2543C25.6621 17.7554 25.9958 18.994 25.9958 19.8561C25.9958 24.3892 22.5589 28.0015 18.0546 28.0015C15.4022 28.0015 13.0452 26.7571 11.5418 24.8237C11.5247 24.8016 11.5077 24.7795 11.4908 24.7573C11.156 24.3175 10.5273 24.2318 10.0866 24.5659C9.6459 24.9 9.56005 25.5274 9.89485 25.9671C9.91587 25.9947 9.93705 26.0223 9.95837 26.0497C11.8267 28.4525 14.7594 30.0015 18.0546 30.0015C23.7337 30.0015 28 25.4247 28 19.8561C28 18.5884 27.5387 17.0507 26.9003 15.496C26.2509 13.9146 25.3716 12.2069 24.4411 10.5642C22.5792 7.2771 20.4704 4.1764 19.4665 2.74025ZM13.1367 6.97571C13.3516 6.15281 12.3017 5.60795 11.75 6.25605L4.20428 15.1192C3.73424 15.6713 4.12746 16.5196 4.85343 16.5196H9.04412L7.57271 22.1486C7.35753 22.9718 8.40795 23.5168 8.95962 22.8682L16.5045 13.9983C16.9741 13.4461 16.5809 12.5982 15.8551 12.5982H11.6688L13.1367 6.97571ZM6.2615 15.0196L10.9083 9.56145L10.0344 12.9087C9.87724 13.5106 10.3324 14.0982 10.9556 14.0982H14.4478L9.80318 19.5586L10.6787 16.2094C10.836 15.6075 10.3808 15.0196 9.75749 15.0196H6.2615Z" fill="#0D0F13"/>
</svg>
