<svg width="32" height="32" viewBox="0 0 32 32" fill="none" xmlns="http://www.w3.org/2000/svg">
<path d="M10.227 5.9835C10.7258 5.90318 11.2556 6.32646 11.1523 6.90855L10.227 5.9835Z" fill="#0D0F13"/>
<path d="M14.6996 6.12504C14.3878 6.58128 13.7644 6.69895 13.3071 6.38786C12.8498 6.07682 12.7319 5.45482 13.0437 4.99864C13.6888 4.05467 14.2461 3.26951 14.6392 2.72416C15.3388 1.75358 16.7813 1.76463 17.4665 2.74467C18.4704 4.18052 20.5792 7.28056 22.4411 10.567C23.3716 12.2094 24.2509 13.9167 24.9003 15.4977C25.5387 17.052 26 18.5894 26 19.8568C26 20.4539 25.9509 21.0395 25.8563 21.6093L23.9941 19.7475C23.9676 18.8917 23.6365 17.6943 23.0457 16.2559C22.4403 14.7819 21.605 13.1549 20.6963 11.5509C19.005 8.56552 17.0959 5.72366 16.0422 4.20382C15.6806 4.70964 15.2192 5.36479 14.6996 6.12504Z" fill="#0D0F13"/>
<path d="M11.2585 15.4981L12.3239 16.5633L6.95965 22.8683C6.40795 23.5167 5.35754 22.9718 5.57269 22.1489L7.04413 16.5211H2.85345C2.12744 16.5211 1.73425 15.673 2.20428 15.1209L6.19445 10.4352L7.25982 11.5003L4.26153 15.0214H7.7575C8.38085 15.0214 8.83599 15.6091 8.67864 16.2109L7.80315 19.5594L11.2585 15.4981Z" fill="#0D0F13"/>
<path d="M9.86029 14.1003H8.95563C8.3324 14.1003 7.87726 13.5127 8.03437 12.911L8.16614 12.4065L9.86029 14.1003Z" fill="#0D0F13"/>
<path d="M29.7071 28.2871C30.0976 28.6776 30.0976 29.3106 29.7071 29.701C29.3166 30.0915 28.6834 30.0915 28.2929 29.701L2.29291 3.70671C1.90241 3.31627 1.90241 2.68327 2.29291 2.29283C2.68341 1.90239 3.31659 1.90239 3.70709 2.29283L29.7071 28.2871Z" fill="#0D0F13"/>
<path d="M16.0546 28.0004C18.2228 28.0004 20.1436 27.1637 21.5528 25.7902L22.9688 27.2059C21.2069 28.9344 18.7953 30 16.0546 30C12.7595 30 9.82672 28.4514 7.95838 26.0491C7.93708 26.0217 7.9159 25.9941 7.89484 25.9665C7.56006 25.5269 7.64594 24.8997 8.08661 24.5656C8.52728 24.2316 9.15595 24.3173 9.49078 24.7569C9.50769 24.7792 9.52472 24.8012 9.54187 24.8233C11.0452 26.7563 13.4023 28.0004 16.0546 28.0004Z" fill="#0D0F13"/>
</svg>
