<svg width="32" height="32" viewBox="0 0 32 32" fill="none" xmlns="http://www.w3.org/2000/svg">
<path fill-rule="evenodd" clip-rule="evenodd" d="M3.70711 2.29283C3.31658 1.90239 2.68342 1.90239 2.29289 2.29283C1.90237 2.68327 1.90237 3.31629 2.29289 3.70673L28.2929 29.701C28.6834 30.0915 29.3166 30.0915 29.7071 29.701C30.0976 29.3106 30.0976 28.6776 29.7071 28.2871L3.70711 2.29283ZM26 19.8568C26 20.4539 25.9509 21.0395 25.8563 21.6094L23.9941 19.7475C23.9676 18.8917 23.6365 17.6943 23.0457 16.2559C22.4403 14.7819 21.605 13.1549 20.6963 11.5509C19.005 8.56558 17.0959 5.72369 16.0422 4.20388C15.6806 4.70963 15.2192 5.36481 14.6996 6.12506C14.3878 6.58127 13.7644 6.69895 13.3071 6.3879C12.8498 6.07685 12.7319 5.45486 13.0437 4.99864C13.6888 4.0547 14.2461 3.26952 14.6392 2.72421C15.3388 1.75363 16.7813 1.76467 17.4665 2.74472C18.4704 4.18055 20.5792 7.28057 22.4411 10.567C23.3716 12.2094 24.2509 13.9167 24.9003 15.4977C25.5387 17.052 26 18.5894 26 19.8568ZM11.1523 6.90854C11.2556 6.32645 10.7258 5.9032 10.227 5.98353L11.1523 6.90854ZM2.20428 15.121L6.19442 10.4352L7.2598 11.5003L4.2615 15.0214H7.75749C8.38084 15.0214 8.836 15.6091 8.67866 16.2109L7.80318 19.5594L11.2585 15.4981L12.3239 16.5633L6.95962 22.8683C6.40795 23.5167 5.35753 22.9718 5.57271 22.1489L7.04412 16.5211H2.85343C2.12746 16.5211 1.73424 15.673 2.20428 15.121ZM8.03437 12.911L8.16613 12.4065L9.86029 14.1003H8.95562C8.33239 14.1003 7.87724 13.5127 8.03437 12.911ZM22.9688 27.2059L21.5528 25.7902C20.1436 27.1637 18.2228 28.0004 16.0546 28.0004C13.4023 28.0004 11.0452 26.7563 9.54183 24.8233C9.52471 24.8013 9.50768 24.7792 9.49076 24.7569C9.15596 24.3173 8.5273 24.2316 8.0866 24.5656C7.64591 24.8997 7.56006 25.5269 7.89485 25.9665C7.91587 25.9941 7.93705 26.0217 7.95837 26.0491C9.8267 28.4514 12.7595 30 16.0546 30C18.7953 30 21.2069 28.9344 22.9688 27.2059Z" fill="#0D0F13"/>
</svg>
