<svg width="32" height="32" viewBox="0 0 32 32" fill="none" xmlns="http://www.w3.org/2000/svg">
<path d="M3.70711 2.29289C3.31658 1.90237 2.68342 1.90237 2.29289 2.29289C1.90237 2.68342 1.90237 3.31658 2.29289 3.70711L28.2929 29.7071C28.6834 30.0976 29.3166 30.0976 29.7071 29.7071C30.0976 29.3166 30.0976 28.6834 29.7071 28.2929L3.70711 2.29289Z" fill="#0D0F13"/>
<path fill-rule="evenodd" clip-rule="evenodd" d="M16 8.68384C17.0012 6.96357 18.2587 5.07832 19.2314 4.52688C21.1446 3.44225 23.591 4.08592 24.6955 5.96456C25.4585 7.26216 25.3817 8.80952 24.6308 10H26C27.1046 10 28 10.8954 28 12V16C28 17.1046 27.1046 18 26 18V21.7574L24 19.7574V18H22.2426L20.2426 16H26V12H17V12.7574L14.2765 10.0341L14.2426 10H14.4603C14.3808 9.86038 14.2992 9.71901 14.216 9.57678C13.7374 8.75894 13.223 7.94665 12.7335 7.29185C12.489 6.96485 12.2687 6.70145 12.0794 6.50564C11.9858 6.4089 11.9091 6.33833 11.8498 6.28923C11.7974 6.2458 11.77 6.22865 11.7677 6.2272C11.2955 5.95979 10.7584 5.90286 10.2692 6.02676L8.76855 4.52612C9.96521 3.84932 11.4866 3.8001 12.7685 4.52688C13.7412 5.07832 14.9987 6.96357 16 8.68384ZM19.7278 10C20.1067 9.98123 20.4714 9.95438 20.8104 9.91775C21.221 9.87336 21.5635 9.81775 21.8309 9.75461C21.963 9.72342 22.0636 9.69344 22.1365 9.66758C22.2041 9.64362 22.2324 9.62869 22.2324 9.62869L22.2314 9.62927C23.188 9.08695 23.5158 7.88584 22.9635 6.94652C22.4113 6.00745 21.1886 5.68553 20.2322 6.22725C20.2293 6.22901 20.2021 6.24625 20.1502 6.28923C20.0909 6.33833 20.0141 6.4089 19.9206 6.50564C19.7312 6.70145 19.511 6.96485 19.2665 7.29185C18.777 7.94665 18.2626 8.75894 17.784 9.57678C17.7008 9.71901 17.6192 9.86038 17.5397 10H19.7278Z" fill="#0D0F13"/>
<path d="M5.7704 10.013L7.75736 12H6V16H11.7574L13.7574 18H8V26H15V19.2426L17 21.2426V26H21.7574L23.7574 28H8C6.89543 28 6 27.1046 6 26V18C4.89543 18 4 17.1046 4 16V12C4 10.9731 4.77396 10.1269 5.7704 10.013Z" fill="#0D0F13"/>
</svg>
