<svg width="32" height="32" viewBox="0 0 32 32" fill="none" xmlns="http://www.w3.org/2000/svg">
<path fill-rule="evenodd" clip-rule="evenodd" d="M26 9.99994C27.1046 9.99994 28 10.8954 28 11.9999V15.9999C28 17.1045 27.1046 17.9999 26 17.9999V25.9999C26 27.1045 25.1046 27.9999 24 27.9999H8C6.89545 27.9999 6 27.1045 6 25.9999V17.9999C4.89545 17.9999 4 17.1045 4 15.9999V11.9999C4 10.8954 4.89545 9.99994 6 9.99994H7.36932C6.61847 8.80951 6.54168 7.26215 7.30462 5.96454C8.40917 4.08594 10.8556 3.44226 12.7687 4.52686C13.7414 5.07831 14.9988 6.96344 16.0001 8.68366C17.0013 6.96345 18.2587 5.07831 19.2314 4.52686C21.1446 3.44227 23.591 4.08594 24.6955 5.96454C25.4584 7.26215 25.3816 8.80951 24.6308 9.99994H26ZM9.03668 6.94653C8.4845 7.88568 8.81201 9.08649 9.76819 9.62891C9.76837 9.62903 9.768 9.62879 9.76819 9.62891C9.7688 9.62928 9.79682 9.64386 9.86365 9.66761C9.93658 9.69342 10.0372 9.72345 10.1693 9.75464C10.4367 9.81775 10.7791 9.87335 11.1897 9.91773C11.5287 9.95441 11.8934 9.98127 12.2723 9.99994H14.4605C14.381 9.86035 14.2994 9.719 14.2162 9.57678C13.7376 8.75891 13.2232 7.94665 12.7337 7.29187C12.4892 6.96484 12.2689 6.70148 12.0796 6.50562C11.986 6.40888 11.9093 6.33832 11.85 6.28925C11.7982 6.24634 11.7709 6.22907 11.768 6.22724C10.8115 5.68555 9.5888 6.00745 9.03668 6.94653ZM15 25.9999V17.9999H8V25.9999H15ZM15 15.9999V11.9999H6V15.9999H15ZM17.784 9.57678C17.7008 9.71899 17.6192 9.86035 17.5396 9.99994H19.7279C20.1068 9.98126 20.4714 9.95441 20.8104 9.91773C21.2211 9.87336 21.5635 9.81775 21.8309 9.75464C21.963 9.72345 22.0636 9.69342 22.1365 9.6676C22.2036 9.6438 22.2317 9.62909 22.2321 9.62884C22.2323 9.62872 22.2318 9.62896 22.2321 9.62884C23.188 9.0863 23.5157 7.88561 22.9635 6.94653C22.4113 6.00744 21.1886 5.68554 20.2321 6.22723C20.2293 6.229 20.2021 6.24627 20.1502 6.28924C20.0909 6.33831 20.0142 6.40887 19.9206 6.50561C19.7312 6.70147 19.511 6.96484 19.2665 7.29186C18.777 7.94665 18.2626 8.75891 17.784 9.57678ZM24 25.9999V17.9999H17V25.9999H24ZM26 15.9999V11.9999H17V15.9999H26Z" fill="#0D0F13"/>
</svg>
