<svg width="32" height="32" viewBox="0 0 32 32" fill="none" xmlns="http://www.w3.org/2000/svg">
<path fill-rule="evenodd" clip-rule="evenodd" d="M15.5118 8.7237C14.5105 7.00348 13.2531 5.11835 12.2804 4.56692C10.3673 3.48229 7.92092 4.12596 6.81635 6.0046C6.05342 7.3022 6.13017 8.84956 6.88106 10.04H5.51172C4.40715 10.04 3.51172 10.9354 3.51172 12.04V16.04C3.51172 17.1446 4.40715 18.04 5.51172 18.04V26.04C5.51172 27.1446 6.40715 28.04 7.51172 28.04H23.5117C24.6163 28.04 25.5117 27.1446 25.5117 26.04V18.04C26.6163 18.04 27.5117 17.1446 27.5117 16.04V12.04C27.5117 10.9354 26.6163 10.04 25.5117 10.04H24.1425C24.8934 8.84956 24.9701 7.3022 24.2072 6.0046C23.1027 4.12596 20.6563 3.48229 18.7431 4.56692C17.7704 5.11835 16.513 7.00348 15.5118 8.7237ZM8.5484 6.98656C9.10055 6.04748 10.3232 5.72556 11.2797 6.2673C11.2826 6.26913 11.3099 6.28639 11.3617 6.32927C11.421 6.37837 11.4977 6.44894 11.5913 6.54568C11.7806 6.74149 12.0009 7.00489 12.2454 7.33189C12.7349 7.98669 13.2493 8.79898 13.7279 9.61682C13.8111 9.75905 13.8927 9.90042 13.9722 10.04H11.784C11.4051 10.0213 11.0404 9.99442 10.7014 9.95779C10.2908 9.9134 9.94842 9.85779 9.68102 9.79465C9.54892 9.76346 9.44831 9.73348 9.37536 9.70762C9.3078 9.68366 9.27944 9.66873 9.27944 9.66873L9.28045 9.66931C8.32387 9.12699 7.99612 7.92588 8.5484 6.98656ZM20.3221 9.95779C19.9831 9.99442 19.6185 10.0213 19.2396 10.04H17.0513C17.1309 9.90042 17.2125 9.75905 17.2957 9.61682C17.7743 8.79898 18.2887 7.98669 18.7782 7.33189C19.0227 7.00489 19.2429 6.74149 19.4323 6.54568C19.5259 6.44894 19.6026 6.37837 19.6619 6.32927C19.7138 6.28629 19.741 6.26905 19.7438 6.26729C20.7003 5.72557 21.923 6.04749 22.4752 6.98656C23.0275 7.92588 22.6997 9.12699 21.7431 9.66931L21.7441 9.66873C21.7441 9.66873 21.7158 9.68366 21.6482 9.70762C21.5753 9.73348 21.4747 9.76346 21.3426 9.79465C21.0752 9.85779 20.7328 9.9134 20.3221 9.95779ZM14.5117 12.04H5.51172V16.04H14.5117V12.04ZM16.5117 12.04V16.04H25.5117V12.04H16.5117ZM14.5117 18.04H7.51172V26.04H14.5117V18.04ZM16.5117 26.04V18.04H23.5117V26.04H16.5117Z" fill="#0D0F13"/>
</svg>
