<svg width="32" height="32" viewBox="0 0 32 32" fill="none" xmlns="http://www.w3.org/2000/svg">
<path fill-rule="evenodd" clip-rule="evenodd" d="M16 2C8.26801 2 2 8.26802 2 16C2 23.732 8.26801 30 16 30C23.732 30 30 23.732 30 16C30 8.26801 23.732 2 16 2ZM4 16C4 9.37258 9.37258 4 16 4C22.6274 4 28 9.37259 28 16C28 22.6274 22.6274 28 16 28C9.37258 28 4 22.6274 4 16Z" fill="#0D0F13"/>
<path fill-rule="evenodd" clip-rule="evenodd" d="M11.9307 7.28171C10.7568 9.46192 10 12.5425 10 16C10 19.4575 10.7568 22.5381 11.9307 24.7183C13.1266 26.9392 14.6112 28 16 28C17.3888 28 18.8734 26.9392 20.0693 24.7183C21.2432 22.5381 22 19.4575 22 16C22 12.5425 21.2432 9.46192 20.0693 7.28171C18.8734 5.06077 17.3888 4 16 4C14.6112 4 13.1266 5.06077 11.9307 7.28171ZM10.1698 6.33351C11.5074 3.84938 13.5229 2 16 2C18.4771 2 20.4926 3.84938 21.8302 6.33351C23.1898 8.85838 24 12.2778 24 16C24 19.7222 23.1898 23.1416 21.8302 25.6665C20.4926 28.1506 18.4771 30 16 30C13.5229 30 11.5074 28.1506 10.1698 25.6665C8.81024 23.1416 8 19.7222 8 16C8 12.2778 8.81024 8.85838 10.1698 6.33351Z" fill="#0D0F13"/>
<path fill-rule="evenodd" clip-rule="evenodd" d="M28 12L4 12L4 10L28 10L28 12Z" fill="#0D0F13"/>
<path fill-rule="evenodd" clip-rule="evenodd" d="M28 22L4 22L4 20L28 20L28 22Z" fill="#0D0F13"/>
<path fill-rule="evenodd" clip-rule="evenodd" d="M17 3V29H15L15 3H17Z" fill="#0D0F13"/>
</svg>
