<svg width="32" height="32" viewBox="0 0 32 32" fill="none" xmlns="http://www.w3.org/2000/svg">
<path fill-rule="evenodd" clip-rule="evenodd" d="M16.0001 2.00049C23.7317 2.00049 29.9996 8.26831 29.9996 16.0001C29.9996 23.7317 23.7317 29.9996 16.0001 29.9996C8.26831 29.9996 2.00049 23.7317 2.00049 16.0001C2.00049 8.26831 8.26831 2.00049 16.0001 2.00049ZM16.0001 27.9996C22.6273 27.9996 27.9996 22.6272 27.9996 16.0001C27.9996 9.37287 22.6273 4.00049 16.0001 4.00049C9.37286 4.00049 4.00049 9.37286 4.00049 16.0001C4.00049 22.6273 9.37286 27.9996 16.0001 27.9996Z" fill="#0D0F13"/>
<path fill-rule="evenodd" clip-rule="evenodd" d="M22.9258 14.7524C23.8163 15.3461 23.8163 16.6548 22.9258 17.2485L14.3381 22.9737C13.3412 23.6384 12.006 22.9238 12.006 21.7256V10.2754C12.006 9.07744 13.3412 8.36284 14.3381 9.02739L22.9258 14.7524ZM14.006 20.7914L21.1924 16.0005L14.006 11.2097V20.7914Z" fill="#0D0F13"/>
</svg>
