<svg width="32" height="32" viewBox="0 0 32 32" fill="none" xmlns="http://www.w3.org/2000/svg">
<path fill-rule="evenodd" clip-rule="evenodd" d="M16.9734 21.2161L15.5312 19.7739L14.0056 20.791V18.2483L12.0056 16.2483V21.7252C12.0056 22.9233 13.3408 23.6379 14.3377 22.9733L16.9734 21.2161ZM13.0789 8.83627C13.4806 8.71539 13.9365 8.75948 14.3377 9.0269L22.9253 14.7519C23.8159 15.3457 23.8159 16.6543 22.9254 17.2481L22.0646 17.8219L20.6224 16.3797L21.1919 16L18.3443 14.1016L13.0789 8.83627Z" fill="#0D0F13"/>
<path fill-rule="evenodd" clip-rule="evenodd" d="M2.29289 2.29289C2.68342 1.90237 3.31658 1.90237 3.70711 2.29289L29.7071 28.2929C30.0976 28.6834 30.0976 29.3166 29.7071 29.7071C29.3166 30.0976 28.6834 30.0976 28.2929 29.7071L2.29289 3.70711C1.90237 3.31658 1.90237 2.68342 2.29289 2.29289Z" fill="#0D0F13"/>
<path fill-rule="evenodd" clip-rule="evenodd" d="M27.7914 23.5488C29.1888 21.3705 29.9992 18.7797 29.9992 15.9996C29.9992 8.26783 23.7313 2 15.9996 2C13.2195 2 10.6287 2.81037 8.45042 4.20778L9.90399 5.66135C11.6904 4.60575 13.7743 4 15.9996 4C22.6268 4 27.9992 9.3724 27.9992 15.9996C27.9992 18.2249 27.3934 20.3087 26.3378 22.0952L27.7914 23.5488ZM5.66135 9.90399C4.60575 11.6904 4 13.7743 4 15.9996C4 22.6268 9.3724 27.9992 15.9996 27.9992C18.2249 27.9992 20.3087 27.3934 22.0952 26.3378L23.5488 27.7914C21.3705 29.1888 18.7797 29.9992 15.9996 29.9992C8.26783 29.9992 2 23.7313 2 15.9996C2 13.2195 2.81037 10.6287 4.20778 8.45042L5.66135 9.90399Z" fill="#0D0F13"/>
</svg>
