<svg width="32" height="32" viewBox="0 0 32 32" fill="none" xmlns="http://www.w3.org/2000/svg">
<path fill-rule="evenodd" clip-rule="evenodd" d="M15.9996 27.9997C22.6268 27.9997 27.9992 22.6273 27.9992 16.0001C27.9992 9.37289 22.6268 4.00049 15.9996 4.00049C9.3724 4.00049 4 9.37289 4 16.0001C4 22.6273 9.3724 27.9997 15.9996 27.9997ZM15.9996 29.9997C23.7313 29.9997 29.9992 23.7318 29.9992 16.0001C29.9992 8.26832 23.7313 2.00049 15.9996 2.00049C8.26783 2.00049 2 8.26832 2 16.0001C2 23.7318 8.26783 29.9997 15.9996 29.9997Z" fill="#0D0F13"/>
<path fill-rule="evenodd" clip-rule="evenodd" d="M14.0056 11.2097V20.7915L21.1919 16.0005L14.0056 11.2097ZM12.0056 10.2755C12.0056 9.07743 13.3408 8.36285 14.3377 9.02739L22.9253 14.7524C23.8159 15.3462 23.8159 16.6548 22.9254 17.2486L14.3377 22.9738C13.3408 23.6384 12.0056 22.9238 12.0056 21.7257V10.2755Z" fill="#0D0F13"/>
</svg>
