<svg width="32" height="32" viewBox="0 0 32 32" fill="none" xmlns="http://www.w3.org/2000/svg">
<path d="M12.0056 16.2483L14.0056 18.2483V20.791L15.5312 19.7739L16.9734 21.2161L14.3377 22.9733C13.3408 23.6379 12.0056 22.9233 12.0056 21.7252V16.2483Z" fill="#0D0F13"/>
<path d="M22.0646 17.8219L20.6224 16.3797L21.1919 16L18.3443 14.1016L13.0789 8.83625C13.4806 8.7154 13.9365 8.75947 14.3377 9.02692L22.9253 14.7519C23.8159 15.3457 23.8159 16.6543 22.9254 17.2481L22.0646 17.8219Z" fill="#0D0F13"/>
<path d="M29.7071 28.2929C30.0976 28.6834 30.0976 29.3166 29.7071 29.7071C29.3166 30.0976 28.6834 30.0976 28.2929 29.7071L2.29291 3.7071C1.90241 3.3166 1.90241 2.68342 2.29291 2.29292C2.68341 1.90236 3.31659 1.90236 3.70709 2.29292L29.7071 28.2929Z" fill="#0D0F13"/>
<path d="M15.9996 27.9992C18.2249 27.9992 20.3087 27.3934 22.0952 26.3378L23.5488 27.7914C21.3705 29.1888 18.7797 29.9992 15.9996 29.9992C8.26782 29.9992 2 23.7313 2 15.9996C2 13.2195 2.81036 10.6287 4.20776 8.45045L5.66137 9.904C4.60577 11.6904 4 13.7743 4 15.9996C4 22.6268 9.37244 27.9992 15.9996 27.9992Z" fill="#0D0F13"/>
<path d="M15.9996 4.00001C13.7743 4.00001 11.6904 4.60578 9.90399 5.66139L8.45044 4.20777C10.6287 2.81037 13.2195 2.00001 15.9996 2.00001C23.7313 2.00001 29.9992 8.26783 29.9992 15.9996C29.9992 18.7797 29.1888 21.3705 27.7914 23.5488L26.3378 22.0952C27.3934 20.3087 27.9992 18.2249 27.9992 15.9996C27.9992 9.37239 22.6268 4.00001 15.9996 4.00001Z" fill="#0D0F13"/>
</svg>
