<svg width="32" height="32" viewBox="0 0 32 32" fill="none" xmlns="http://www.w3.org/2000/svg">
<path d="M6.81726 7.22006C7.13036 6.48047 7.85537 6 8.65827 6H13.5077C14.0598 6 14.5073 6.44772 14.5073 7C14.5073 7.55228 14.0598 8 13.5077 8H8.65827L4.00142 19H11.1866C11.7387 19 12.1863 19.4477 12.1863 20C12.1863 20.5523 11.7387 21 11.1866 21H10.007V24H28.0007V13.4533L25.5483 19.7282C25.2485 20.4952 24.5095 21 23.6862 21H19.7542C19.2021 21 18.7545 20.5523 18.7545 20C18.7545 19.4477 19.2021 19 19.7542 19H23.6862L27.9853 8H21.8836C21.3315 8 20.884 7.55228 20.884 7C20.884 6.44772 21.3315 6 21.8836 6H28.0007C29.1049 6 30 6.89543 30 8V24C30 25.1046 29.1049 26 28.0007 26H10.007C8.90279 26 8.00767 25.1046 8.00767 24V21H4.00142C2.56978 21 1.60212 19.5388 2.16041 18.2201L6.81726 7.22006Z" fill="#0D0F13"/>
<path fill-rule="evenodd" clip-rule="evenodd" d="M19.0711 7.12872C19.3062 6.19739 18.1146 5.59477 17.5043 6.33627L10.859 14.4094C10.3489 15.0291 10.7896 15.9633 11.5921 15.9633H15.0462L13.8012 20.8893C13.5657 21.8208 14.7579 22.4237 15.3682 21.6817L22.0127 13.6025C22.5224 12.9827 22.0817 12.0489 21.2793 12.0489H17.8291L19.0711 7.12872ZM13.1807 14.2633L16.5509 10.1689L15.9771 12.4419C15.8097 13.1052 16.3109 13.7489 16.9948 13.7489H19.6916L16.3237 17.8441L16.8983 15.5706C17.0659 14.9072 16.5647 14.2633 15.8807 14.2633H13.1807Z" fill="#0D0F13"/>
</svg>
