<svg width="32" height="32" viewBox="0 0 32 32" fill="none" xmlns="http://www.w3.org/2000/svg">
<path fill-rule="evenodd" clip-rule="evenodd" d="M29.5304 25.2878C29.8234 24.9399 30 24.4906 30 24V8C30 6.89543 29.1049 6 28.0007 6H21.8836C21.3315 6 20.884 6.44772 20.884 7C20.884 7.55228 21.3315 8 21.8836 8H27.9853L23.6862 19H23.2426L24.861 20.6183C25.1639 20.3983 25.4058 20.0929 25.5483 19.7282L28.0007 13.4533V23.7581L29.5304 25.2878ZM20.1313 15.8887L22.0124 13.6015C22.5221 12.9817 22.0814 12.0479 21.279 12.0479H17.8288L19.0708 7.12774C19.3059 6.19641 18.1143 5.59379 17.504 6.33529L14.3769 10.1343L15.5844 11.3417L16.5506 10.1679L16.1193 11.8766L17.9906 13.7479H19.6913L18.9238 14.6812L20.1313 15.8887ZM7.20058 11.4432L4.00142 19H11.1866C11.7387 19 12.1863 19.4477 12.1863 20C12.1863 20.5523 11.7387 21 11.1866 21H10.007V24H19.7574L21.7574 26H10.007C8.90279 26 8.00767 25.1046 8.00767 24V21H4.00142C2.56978 21 1.60212 19.5388 2.16041 18.2201L5.67517 9.91781L7.20058 11.4432ZM12.2426 8H13.5077C14.0598 8 14.5073 7.55228 14.5073 7C14.5073 6.44772 14.0598 6 13.5077 6H10.2426L12.2426 8ZM10.6477 14.8904L11.7196 15.9623H11.5918C10.9814 15.9623 10.5803 15.4218 10.6477 14.8904ZM14.3748 18.6174L16.3021 20.5447L15.3679 21.6807C14.7576 22.4227 13.5654 21.8198 13.8009 20.8883L14.3748 18.6174Z" fill="#0D0F13"/>
<path fill-rule="evenodd" clip-rule="evenodd" d="M2.29289 2.29289C2.68342 1.90237 3.31658 1.90237 3.70711 2.29289L29.7071 28.2929C30.0976 28.6834 30.0976 29.3166 29.7071 29.7071C29.3166 30.0976 28.6834 30.0976 28.2929 29.7071L2.29289 3.70711C1.90237 3.31658 1.90237 2.68342 2.29289 2.29289Z" fill="#0D0F13"/>
</svg>
