<svg width="32" height="32" viewBox="0 0 32 32" fill="none" xmlns="http://www.w3.org/2000/svg">
<path d="M26.5625 22.1527L28.6444 20.4102H30.0001V28.0005H28.4628V22.2169L26.5625 23.6922V22.1527Z" fill="#0D0F13"/>
<path d="M23.5098 22C24.0613 22 24.5084 22.4477 24.5084 23C24.5084 23.5523 24.0613 24 23.5098 24H10.0277C8.92468 24 8.03047 23.1046 8.03047 22V19H3.99934C2.56923 19 1.60255 17.5388 2.16023 16.2201L6.81226 5.22003C7.12507 4.48047 7.84931 4 8.65138 4H13.4959C14.0473 4 14.4945 4.44769 14.4945 5C14.4945 5.55231 14.0473 6 13.4959 6H8.65138L3.99934 17H11.1771C11.7286 17 12.1757 17.4477 12.1757 18C12.1757 18.5523 11.7287 19 11.1771 19H10.0277V22H23.5098Z" fill="#0D0F13"/>
<path d="M11.6107 14.0355C10.8089 14.0355 10.3687 13.1014 10.8783 12.4816L17.5167 4.40857C18.1264 3.66705 19.3167 4.26965 19.0819 5.20099L17.8413 10.1212H21.2879C22.0893 10.1212 22.5296 11.0549 22.0205 11.6748L15.3828 19.7539C14.7732 20.496 13.5822 19.8931 13.8175 18.9615L15.0611 14.0355L11.6107 14.0355ZM16.5643 8.24109L13.1976 12.3355H15.8947C16.578 12.3355 17.0788 12.9795 16.9113 13.6429L16.3373 15.9163L19.7018 11.8212H17.0078C16.3246 11.8212 15.8239 11.1774 15.9912 10.5141L16.5643 8.24109Z" fill="#0D0F13"/>
<path d="M28.0029 4C29.1059 4 30.0001 4.89545 30.0001 6V17.4262C30.0001 17.9785 29.553 18.4262 29.0015 18.4262C28.45 18.4262 28.0029 17.9785 28.0029 17.4262V11.379L25.524 17.7282C25.2246 18.4952 24.4862 19 23.6639 19H19.7359C19.1845 19 18.7373 18.5523 18.7373 18C18.7373 17.4477 19.1844 17 19.7359 17H23.6639L27.9585 6H21.8631C21.3117 6 20.8645 5.55231 20.8645 5C20.8645 4.44769 21.3116 4 21.8631 4H28.0029Z" fill="#0D0F13"/>
</svg>
