<svg width="32" height="32" viewBox="0 0 32 32" fill="none" xmlns="http://www.w3.org/2000/svg">
<path fill-rule="evenodd" clip-rule="evenodd" d="M28.0007 6C29.1049 6 30 6.89545 30 8V24C30 25.1046 29.1049 26 28.0007 26H10.007C8.90278 26 8.0077 25.1046 8.0077 24V21H4.00141C2.56977 21 1.60212 19.5388 2.16041 18.2201L6.81727 7.22003C7.13038 6.48047 7.85536 6 8.65827 6H13.5077C14.0598 6 14.5073 6.44769 14.5073 7C14.5073 7.55231 14.0598 8 13.5077 8H8.65827L4.00141 19H11.1866C11.7387 19 12.1863 19.4477 12.1863 20C12.1863 20.5523 11.7387 21 11.1866 21H10.007V24H28.0007V13.4533L25.5483 19.7282C25.2485 20.4952 24.5095 21 23.6862 21H19.7542C19.2021 21 18.7545 20.5523 18.7545 20C18.7545 19.4477 19.2021 19 19.7542 19H23.6862L27.9853 8H21.8836C21.3315 8 20.884 7.55231 20.884 7C20.884 6.44769 21.3315 6 21.8836 6H28.0007Z" fill="#0D0F13"/>
<path fill-rule="evenodd" clip-rule="evenodd" d="M11.5921 15.9633C10.7896 15.9633 10.3489 15.0291 10.859 14.4094L17.5043 6.33625C18.1146 5.59479 19.3062 6.1974 19.0711 7.12873L17.8291 12.0489H21.2793C22.0817 12.0489 22.5224 12.9827 22.0127 13.6025L15.3682 21.6817C14.7579 22.4237 13.5657 21.8208 13.8012 20.8893L15.0462 15.9633L11.5921 15.9633ZM16.5509 10.1689L13.1807 14.2633H15.8807C16.5647 14.2633 17.0659 14.9072 16.8983 15.5706L16.3237 17.8441L19.6916 13.7489H16.9948C16.3109 13.7489 15.8097 13.1052 15.9771 12.4419L16.5509 10.1689Z" fill="#0D0F13"/>
</svg>
