<svg width="32" height="32" viewBox="0 0 32 32" fill="none" xmlns="http://www.w3.org/2000/svg">
<path d="M28.6443 20.4102H30.0001V28.0005H28.4628V22.2169L26.5625 23.6922V22.1527L28.6443 20.4102Z" fill="#0D0F13"/>
<path d="M6.81226 5.22006C7.12505 4.48047 7.84931 4 8.65137 4H13.4958C14.0473 4 14.4944 4.44772 14.4944 5C14.4944 5.55228 14.0473 6 13.4958 6H8.65137L3.99935 17H11.1771C11.7286 17 12.1757 17.4477 12.1757 18C12.1757 18.5523 11.7286 19 11.1771 19H10.0277V22H23.5098C24.0613 22 24.5084 22.4477 24.5084 23C24.5084 23.5523 24.0613 24 23.5098 24H10.0277C8.92465 24 8.03046 23.1046 8.03046 22V19H3.99935C2.56919 19 1.60253 17.5388 2.16024 16.2201L6.81226 5.22006Z" fill="#0D0F13"/>
<path fill-rule="evenodd" clip-rule="evenodd" d="M19.0819 5.20098C19.3167 4.26966 18.1264 3.66703 17.5167 4.40854L10.8783 12.4816C10.3687 13.1014 10.8089 14.0355 11.6107 14.0355H15.0611L13.8174 18.9615C13.5822 19.8931 14.7732 20.496 15.3828 19.7539L22.0204 11.6748C22.5296 11.0549 22.0893 10.1212 21.2878 10.1212H17.8412L19.0819 5.20098ZM13.1976 12.3355L16.5643 8.24111L15.9911 10.5141C15.8239 11.1774 16.3246 11.8212 17.0078 11.8212H19.7018L16.3373 15.9163L16.9113 13.6429C17.0788 12.9795 16.578 12.3355 15.8947 12.3355H13.1976Z" fill="#0D0F13"/>
<path d="M20.8645 5C20.8645 4.44772 21.3116 4 21.8631 4H28.0029C29.1059 4 30.0001 4.89543 30.0001 6V17.4262C30.0001 17.9785 29.553 18.4262 29.0015 18.4262C28.45 18.4262 28.0029 17.9785 28.0029 17.4262V11.379L25.524 17.7282C25.2245 18.4952 24.4862 19 23.6639 19H19.7359C19.1844 19 18.7373 18.5523 18.7373 18C18.7373 17.4477 19.1844 17 19.7359 17H23.6639L27.9585 6H21.8631C21.3116 6 20.8645 5.55228 20.8645 5Z" fill="#0D0F13"/>
</svg>
