<svg width="32" height="32" viewBox="0 0 32 32" fill="none" xmlns="http://www.w3.org/2000/svg">
<path d="M6.81227 5.22104C7.12505 4.48145 7.84931 4.00098 8.65138 4.00098H13.4958C14.0473 4.00098 14.4944 4.4487 14.4944 5.00098C14.4944 5.55326 14.0473 6.00098 13.4958 6.00098H8.65138L3.99935 17.001H11.1771C11.7287 17.001 12.1758 17.4487 12.1758 18.001C12.1758 18.5533 11.7287 19.001 11.1771 19.001H10.0277V22.001H21.0236C21.5751 22.001 22.0222 22.4487 22.0222 23.001C22.0222 23.5533 21.5751 24.001 21.0236 24.001H10.0277C8.92465 24.001 8.03046 23.1056 8.03046 22.001V19.001H3.99935C2.5692 19.001 1.60253 17.5398 2.16025 16.2211L6.81227 5.22104Z" fill="#0D0F13"/>
<path d="M20.8646 5.00098C20.8646 4.4487 21.3117 4.00098 21.8632 4.00098H28.0029C29.106 4.00098 30.0001 4.89641 30.0001 6.00098V17.3722C30.0001 17.9245 29.553 18.3722 29.0015 18.3722C28.45 18.3722 28.0029 17.9245 28.0029 17.3722V11.38L25.524 17.7292C25.2246 18.4962 24.4863 19.001 23.6639 19.001H19.7359C19.1844 19.001 18.7373 18.5533 18.7373 18.001C18.7373 17.4487 19.1844 17.001 19.7359 17.001H23.6639L27.9585 6.00098H21.8632C21.3117 6.00098 20.8646 5.55326 20.8646 5.00098Z" fill="#0D0F13"/>
<path d="M25.4564 26.7563C25.7586 26.4429 26.1795 26.1511 26.6651 25.8702L27.8199 25.2001C29.1041 24.4653 29.9998 23.9033 29.9998 22.4768C29.9998 21.1908 28.9854 20.1533 27.0536 20.1533C25.0356 20.1533 24.0535 21.3205 23.9672 22.6713H25.6183C25.7047 22.0121 26.104 21.3421 27.0752 21.3421C27.8522 21.3421 28.3595 21.7635 28.3595 22.4011V22.5957C28.3595 23.2117 27.9602 23.5575 27.2587 23.9573L26.0608 24.649C24.9816 25.265 24.2801 25.8377 24.0103 26.4753C23.924 26.6591 23.8916 26.8752 23.8916 27.221V27.9991H29.9998V26.7563H25.4564Z" fill="#0D0F13"/>
<path fill-rule="evenodd" clip-rule="evenodd" d="M19.0819 5.20195C19.3168 4.27063 18.1264 3.668 17.5167 4.40951L10.8783 12.4826C10.3687 13.1024 10.809 14.0365 11.6107 14.0365H15.0611L13.8174 18.9625C13.5822 19.8941 14.7732 20.497 15.3828 19.7549L22.0204 11.6758C22.5297 11.0559 22.0893 10.1222 21.2878 10.1222H17.8412L19.0819 5.20195ZM13.1976 12.3365L16.5643 8.24208L15.9912 10.5151C15.8239 11.1784 16.3246 11.8222 17.0078 11.8222H19.7018L16.3373 15.9173L16.9113 13.6439C17.0788 12.9805 16.5781 12.3365 15.8948 12.3365H13.1976Z" fill="#0D0F13"/>
</svg>
