<svg width="32" height="32" viewBox="0 0 32 32" fill="none" xmlns="http://www.w3.org/2000/svg">
<path fill-rule="evenodd" clip-rule="evenodd" d="M10.7234 3.33203C6.03664 3.33203 2.24414 7.12453 2.24414 11.8113C2.24414 14.2783 3.29258 16.4873 4.96829 18.0312L15.3123 28.3752C15.4999 28.5628 15.7544 28.6682 16.0198 28.6681C16.2851 28.668 16.5396 28.5624 16.7271 28.3747L27.0569 18.0294C28.7323 16.4848 29.7791 14.2609 29.7791 11.8113C29.7791 7.12453 25.9866 3.33203 21.2998 3.33203C19.2472 3.33203 17.3241 4.48895 15.9979 6.5616C14.6843 4.53223 12.7739 3.33203 10.7234 3.33203ZM25.6468 16.611C25.66 16.5975 25.6736 16.5843 25.6877 16.5714C26.9751 15.3913 27.7791 13.689 27.7791 11.8113C27.7791 8.2291 24.882 5.33203 21.2998 5.33203C19.7521 5.33203 17.9652 6.4456 16.938 9.13327C16.7903 9.51976 16.4198 9.77537 16.006 9.77626C15.5922 9.77714 15.2207 9.52311 15.0713 9.13725C14.054 6.50934 12.2594 5.33203 10.7234 5.33203C7.14121 5.33203 4.24414 8.2291 4.24414 11.8113C4.24414 13.6995 5.04402 15.3836 6.32762 16.5641C6.341 16.5761 6.35412 16.5886 6.36699 16.6015L16.0189 26.2534L25.6468 16.611Z" fill="#0D0F13"/>
</svg>
