<svg width="32" height="32" viewBox="0 0 32 32" fill="none" xmlns="http://www.w3.org/2000/svg">
<path d="M24.7857 20.5431L27.2364 18.064C28.9387 16.4795 30 14.2002 30 11.6921C30 6.89712 26.156 3 21.3845 3C19.2908 3 17.3325 4.19509 15.9861 6.33252C14.6524 4.23987 12.7069 3 10.6155 3C9.60557 3 8.63717 3.1746 7.73798 3.49534L9.36235 5.11971C9.76822 5.04112 10.1872 5 10.6155 5C12.1833 5 14.0182 6.21456 15.0583 8.92853C15.2068 9.31603 15.5793 9.57155 15.9942 9.57067C16.4092 9.56979 16.7805 9.3127 16.9274 8.92457C17.9778 6.14871 19.805 5 21.3845 5C25.0326 5 28 7.98277 28 11.6921C28 13.635 27.1762 15.3941 25.8609 16.6119C25.8523 16.6199 25.8438 16.6281 25.8355 16.6364C25.8334 16.6385 25.8313 16.6406 25.8292 16.6427L23.3715 19.1288L24.7857 20.5431Z" fill="#0D0F13"/>
<path d="M4.61787 8.86103C4.2215 9.71999 4 10.6792 4 11.6926C4 13.6503 4.82293 15.3939 6.13906 16.6124C6.1497 16.6223 6.16011 16.6324 6.17031 16.6427L16.0074 26.5786L19.1532 23.3964L20.5675 24.8106L16.7191 28.7035C16.5313 28.8935 16.2754 29.0004 16.0083 29.0005C15.7412 29.0006 15.4852 28.8939 15.2973 28.7041L4.76387 18.0648C3.0623 16.4811 2 14.2179 2 11.6926C2 10.1227 2.41205 8.64909 3.13379 7.37695L4.61787 8.86103Z" fill="#0D0F13"/>
<path fill-rule="evenodd" clip-rule="evenodd" d="M2.29289 2.29289C2.68342 1.90237 3.31658 1.90237 3.70711 2.29289L29.7071 28.2929C30.0976 28.6834 30.0976 29.3166 29.7071 29.7071C29.3166 30.0976 28.6834 30.0976 28.2929 29.7071L2.29289 3.70711C1.90237 3.31658 1.90237 2.68342 2.29289 2.29289Z" fill="#0D0F13"/>
</svg>
