<svg width="32" height="32" viewBox="0 0 32 32" fill="none" xmlns="http://www.w3.org/2000/svg">
<path d="M18.1986 3.18736C15.1761 2.66862 12.0675 3.23511 9.42218 4.78671C7.61431 5.84713 6.10241 7.32101 5 9.07088V5C5 4.44772 4.55228 4 4 4C3.44772 4 3 4.44772 3 5V11.9994C3 12.5517 3.44772 12.9994 4 12.9994H4.64961C4.67378 13.0003 4.69788 13.0003 4.72187 12.9994H10.8C11.3523 12.9994 11.8 12.5517 11.8 11.9994C11.8 11.4471 11.3523 10.9994 10.8 10.9994L6.20174 10.9994C7.15107 9.13945 8.61562 7.57846 10.4341 6.51184C12.6724 5.19894 15.3028 4.7196 17.8603 5.15854C20.4179 5.59747 22.7379 6.92642 24.4104 8.9105C26.0829 10.8946 27.0001 13.406 27 16.001C26.9999 18.5959 26.0824 21.1073 24.4097 23.0912C22.737 25.0751 20.4168 26.4038 17.8592 26.8425C15.3016 27.2811 12.6712 26.8015 10.433 25.4884C8.19487 24.1752 6.49297 22.1131 5.62815 19.6665C5.44408 19.1458 4.87275 18.8729 4.35204 19.057C3.83133 19.241 3.55842 19.8123 3.74248 20.3331C4.76455 23.2245 6.77587 25.6615 9.42098 27.2134C12.0661 28.7653 15.1747 29.3321 18.1973 28.8137C21.2199 28.2953 23.9619 26.725 25.9387 24.3804C27.9155 22.0358 28.9998 19.0678 29 16.0011C29.0002 12.9344 27.9162 9.96628 25.9396 7.62147C23.9631 5.27666 21.2212 3.7061 18.1986 3.18736Z" fill="#0D0F13"/>
<path d="M16.8076 10C16.8076 9.44772 16.3599 9 15.8076 9C15.2553 9 14.8076 9.44772 14.8076 10V16C14.8076 17.1046 15.703 18 16.8076 18H20.8076C21.3599 18 21.8076 17.5523 21.8076 17C21.8076 16.4477 21.3599 16 20.8076 16H16.8076V10Z" fill="#0D0F13"/>
</svg>
