<svg xmlns="http://www.w3.org/2000/svg" fill="none" viewBox="0 0 32 32"><path fill="#0D0F13" d="M3.707 2.293a1 1 0 0 0-1.414 1.414l26 26a1 1 0 0 0 1.414-1.414l-26-26ZM29 16.001a13 13 0 0 1-1.934 6.822l-1.461-1.46A11 11 0 0 0 10.638 6.394l-1.461-1.46a13.01 13.01 0 0 1 9.022-1.748A13 13 0 0 1 29 16.001ZM4.722 13h4.035l-2-2h-.555c.062-.123.126-.243.193-.362L3 7.243v4.756a1 1 0 0 0 1 1h.722ZM22.823 27.066l-1.46-1.461a10.998 10.998 0 0 1-15.735-5.939 1 1 0 1 0-1.886.667 13 13 0 0 0 19.081 6.733Z"/><path fill="#0D0F13" d="M21.808 17c0 .164-.04.319-.11.456L20.243 16h.565a1 1 0 0 1 1 1ZM16.808 10v2.565l-2-2V10a1 1 0 1 1 2 0Z"/></svg>