<svg width="32" height="32" viewBox="0 0 32 32" fill="none" xmlns="http://www.w3.org/2000/svg">
<path d="M3.70711 2.29289C3.31658 1.90237 2.68342 1.90237 2.29289 2.29289C1.90237 2.68342 1.90237 3.31658 2.29289 3.70711L28.2929 29.7071C28.6834 30.0976 29.3166 30.0976 29.7071 29.7071C30.0976 29.3166 30.0976 28.6834 29.7071 28.2929L3.70711 2.29289Z" fill="#0D0F13"/>
<path d="M29 16.0011C28.9999 18.4228 28.3237 20.783 27.0658 22.8232L25.6048 21.3622C26.514 19.7334 26.9999 17.8893 27 16.001C27.0001 13.406 26.0829 10.8946 24.4104 8.9105C22.7379 6.92642 20.4179 5.59747 17.8603 5.15854C15.38 4.73285 12.8311 5.17084 10.6379 6.39521L9.17688 4.93424C9.25803 4.88421 9.3398 4.83503 9.42218 4.78671C12.0675 3.23511 15.1761 2.66862 18.1986 3.18736C21.2212 3.7061 23.9631 5.27666 25.9396 7.62147C27.9162 9.96628 29.0002 12.9344 29 16.0011Z" fill="#0D0F13"/>
<path d="M4.72187 12.9994H8.75676L6.75676 10.9994H6.20174C6.26395 10.8775 6.32838 10.7569 6.39498 10.6376L3 7.24264V11.9994C3 12.5517 3.44772 12.9994 4 12.9994H4.64961C4.67378 13.0003 4.69788 13.0003 4.72187 12.9994Z" fill="#0D0F13"/>
<path d="M22.8233 27.066L21.3624 25.605C20.2814 26.2086 19.0982 26.63 17.8592 26.8425C15.3016 27.2811 12.6712 26.8015 10.433 25.4884C8.19487 24.1752 6.49297 22.1131 5.62815 19.6665C5.44408 19.1458 4.87275 18.8729 4.35204 19.057C3.83133 19.241 3.55842 19.8123 3.74248 20.3331C4.76455 23.2245 6.77587 25.6615 9.42098 27.2134C12.0661 28.7653 15.1747 29.3321 18.1973 28.8137C19.8495 28.5303 21.4179 27.9326 22.8233 27.066Z" fill="#0D0F13"/>
<path d="M21.8076 17C21.8076 17.164 21.7681 17.3189 21.6981 17.4555L20.2426 16H20.8076C21.3599 16 21.8076 16.4477 21.8076 17Z" fill="#0D0F13"/>
<path d="M16.8076 10V12.565L14.8076 10.565V10C14.8076 9.44772 15.2553 9 15.8076 9C16.3599 9 16.8076 9.44772 16.8076 10Z" fill="#0D0F13"/>
</svg>
