<svg width="32" height="32" viewBox="0 0 32 32" fill="none" xmlns="http://www.w3.org/2000/svg">
<path fill-rule="evenodd" clip-rule="evenodd" d="M14.9999 4.26799C15.6188 3.91066 16.3812 3.91067 17.0001 4.268L27.0001 10.0421C27.6188 10.3994 28 11.0596 28 11.7741V26.0012C28 27.1058 27.1046 28.0012 26 28.0012H20C18.8954 28.0012 18 27.1058 18 26.0012V19.0012H14V26.0012C14 27.1058 13.1046 28.0012 12 28.0012H6C4.89543 28.0012 4 27.1058 4 26.0012V11.7741C4 11.0596 4.38116 10.3994 4.99992 10.0421L14.9999 4.26799ZM12 26.0012V18.5012C12 17.6728 12.6716 17.0012 13.5 17.0012H18.5C19.3284 17.0012 20 17.6728 20 18.5012V26.0012H26V11.7741L16 6L6 11.7741V26.0012H12Z" fill="#0D0F13"/>
</svg>
