<svg width="32" height="32" viewBox="0 0 32 32" fill="none" xmlns="http://www.w3.org/2000/svg">
<path d="M4.5985 12.0339C5.13158 12.1769 5.44799 12.7252 5.3051 13.2587C5.16228 13.7921 4.6143 14.1087 4.08122 13.9658L3.11589 13.707C2.58281 13.564 2.26646 13.0157 2.40929 12.4822C2.55211 11.9488 3.10009 11.6322 3.63323 11.7751L4.5985 12.0339Z" fill="#0D0F13"/>
<path d="M7.7174 7.41467L7.01055 6.70734C6.62011 6.31672 6.62011 5.68329 7.01055 5.29267C7.40093 4.90198 8.03387 4.90198 8.42425 5.29267L9.13115 6C9.52153 6.39062 9.52153 7.02405 9.13115 7.41467C8.74071 7.80536 8.10778 7.80536 7.7174 7.41467Z" fill="#0D0F13"/>
<path d="M16.002 5C15.4501 5 15.0027 4.55231 15.0027 4V3C15.0027 2.44769 15.4501 2 16.002 2C16.5539 2 17.0014 2.44769 17.0014 3V4C17.0014 4.55231 16.5539 5 16.002 5Z" fill="#0D0F13"/>
<path d="M29.5907 12.4823C29.7335 13.0158 29.4172 13.5641 28.8841 13.7071L27.9188 13.9659C27.3857 14.1088 26.8377 13.7922 26.6949 13.2588C26.552 12.7253 26.8684 12.177 27.4015 12.034L28.3668 11.7752C28.8999 11.6323 29.4479 11.9489 29.5907 12.4823Z" fill="#0D0F13"/>
<path d="M23.5728 5.29266C23.9632 4.90197 24.5962 4.90197 24.9866 5.29266C25.377 5.68328 25.377 6.31671 24.9866 6.70733L24.2797 7.41467C23.8893 7.80536 23.2563 7.80536 22.8659 7.41467C22.4755 7.02405 22.4755 6.39062 22.8659 6L23.5728 5.29266Z" fill="#0D0F13"/>
<path d="M16.0025 6.80762C21.018 6.80762 25.0839 10.8489 25.0839 15.4954C25.0839 19.0529 23.4286 21.5169 21.0117 23.1966C20.7965 23.3462 20.6623 23.5891 20.6623 23.8513V25.0404C20.6623 25.845 20.187 26.531 19.4997 26.8339V27C19.4997 28.6569 18.1575 30 16.5017 30H15.5024C13.8466 30 12.5044 28.6569 12.5044 27V26.8336C11.8176 26.5304 11.3427 25.8447 11.3427 25.0404V23.8513C11.3427 23.5891 11.2085 23.3462 10.9932 23.1966C8.57633 21.5169 6.92106 19.0529 6.92106 15.4954C6.92107 10.8489 10.9869 6.80762 16.0025 6.80762ZM16.5017 28C17.0536 28 17.501 27.5523 17.501 27H14.503C14.503 27.5523 14.9505 28 15.5024 28H16.5017ZM19.8716 21.5539C21.8308 20.1923 23.0853 18.3057 23.0853 15.4954C23.0853 12.0152 19.9768 8.80761 16.0025 8.80761C12.0281 8.80761 8.9198 12.0152 8.9198 15.4954C8.9198 18.3057 10.1741 20.1923 12.1333 21.5539C12.8549 22.0553 13.3413 22.8963 13.3413 23.8513V25H18.6636V23.8513C18.6636 22.8963 19.1501 22.0553 19.8716 21.5539Z" fill="#0D0F13"/>
</svg>
