<svg width="32" height="32" viewBox="0 0 32 32" fill="none" xmlns="http://www.w3.org/2000/svg">
<path fill-rule="evenodd" clip-rule="evenodd" d="M16.9902 4V3C16.9902 2.44772 16.5428 2 15.9909 2C15.439 2 14.9916 2.44772 14.9916 3V4C14.9916 4.55228 15.439 5 15.9909 5C16.5428 5 16.9902 4.55228 16.9902 4ZM14.4919 27H17.4899C17.4899 27.5523 17.0425 28 16.4906 28H15.4913C14.9393 28 14.4919 27.5523 14.4919 27ZM19.4886 26.8339C20.1759 26.531 20.6512 25.845 20.6512 25.0404V24.8938L18.7792 23.0218C18.6971 23.2837 18.6525 23.5623 18.6525 23.8513V25L16.1451 24.9995H15.8376L13.3302 25V23.8513C13.3302 22.8963 12.8437 22.0553 12.1222 21.5539C10.163 20.1923 8.90864 18.3057 8.90864 15.4954C8.90864 14.8107 9.02897 14.1365 9.25255 13.4952L7.72201 11.9647C7.20049 13.0546 6.90997 14.2534 6.90997 15.4954C6.90997 19.0529 8.56524 21.5169 10.9821 23.1966C11.1973 23.3462 11.3315 23.5891 11.3315 23.8513V25.0404C11.3315 25.8447 11.8064 26.5304 12.4933 26.8336V27C12.4933 28.6569 13.8355 30 15.4913 30H16.4906C18.1463 30 19.4886 28.6569 19.4886 27V26.8339ZM5.29404 13.2587C5.15119 13.7921 4.60322 14.1087 4.07011 13.9658L3.10483 13.707C2.57172 13.564 2.25534 13.0157 2.39819 12.4822C2.54104 11.9488 3.08901 11.6322 3.62212 11.7751L4.5874 12.0339C5.12051 12.1769 5.43688 12.7252 5.29404 13.2587ZM28.873 13.7071C29.4061 13.5641 29.7224 13.0158 29.5796 12.4823C29.4367 11.9489 28.8888 11.6323 28.3557 11.7752L27.3904 12.034C26.8573 12.177 26.5409 12.7253 26.6837 13.2588C26.8266 13.7922 27.3746 14.1088 27.9077 13.9659L28.873 13.7071ZM24.9754 6.70734L24.2686 7.41469C23.8782 7.80534 23.2452 7.80534 22.8548 7.41469C22.4644 7.02403 22.4644 6.39065 22.8548 6L23.5617 5.29266C23.9521 4.902 24.5851 4.902 24.9754 5.29266C25.3658 5.68331 25.3658 6.31669 24.9754 6.70734ZM2.29289 2.29289C2.68342 1.90237 3.31658 1.90237 3.70711 2.29289L29.7071 28.2929C30.0976 28.6834 30.0976 29.3166 29.7071 29.7071C29.3166 30.0976 28.6834 30.0976 28.2929 29.7071L2.29289 3.70711C1.90237 3.31658 1.90237 2.68342 2.29289 2.29289ZM24.0662 19.8236C24.7062 18.6015 25.0728 17.1696 25.0728 15.4954C25.0728 10.8489 21.0069 6.80762 15.9913 6.80762C14.5482 6.80762 13.1837 7.14219 11.9721 7.72948L13.4936 9.251C14.267 8.96616 15.1078 8.80762 15.9913 8.80762C19.9657 8.80762 23.0741 12.0152 23.0741 15.4954C23.0741 16.5625 22.8933 17.4964 22.5616 18.319L24.0662 19.8236Z" fill="#0D0F13"/>
</svg>
