<svg width="32" height="32" viewBox="0 0 32 32" fill="none" xmlns="http://www.w3.org/2000/svg">
<path fill-rule="evenodd" clip-rule="evenodd" d="M17.0014 3C17.0014 2.44772 16.5539 2 16.002 2C15.4501 2 15.0027 2.44772 15.0027 3V4C15.0027 4.55228 15.4501 5 16.002 5C16.5539 5 17.0014 4.55228 17.0014 4V3ZM16.0025 8.80762C19.9768 8.80762 23.0853 12.0152 23.0853 15.4954C23.0853 18.3057 21.8308 20.1923 19.8716 21.5539C19.1501 22.0553 18.6636 22.8963 18.6636 23.8513V25L16.1563 24.9995H15.8487L13.3413 25V23.8513C13.3413 22.8963 12.8549 22.0553 12.1333 21.5539C10.1741 20.1923 8.91977 18.3057 8.91977 15.4954C8.91977 12.0152 12.0281 8.80762 16.0025 8.80762ZM10.9932 23.1966C8.57636 21.5169 6.9211 19.0529 6.9211 15.4954C6.9211 10.8489 10.9869 6.80762 16.0025 6.80762C21.018 6.80762 25.0839 10.8489 25.0839 15.4954C25.0839 19.0529 23.4286 21.5169 21.0117 23.1966C20.7965 23.3462 20.6623 23.5891 20.6623 23.8513V25.0404C20.6623 25.845 20.187 26.531 19.4997 26.8339V27C19.4997 28.6569 18.1575 30 16.5017 30H15.5024C13.8466 30 12.5044 28.6569 12.5044 27V26.8336C11.8176 26.5304 11.3427 25.8447 11.3427 25.0404V23.8513C11.3427 23.5891 11.2085 23.3462 10.9932 23.1966ZM17.501 27H14.503C14.503 27.5523 14.9505 28 15.5024 28H16.5017C17.0536 28 17.501 27.5523 17.501 27ZM5.30514 13.2587C5.1623 13.7921 4.61433 14.1087 4.08122 13.9658L3.11593 13.707C2.58282 13.564 2.26645 13.0157 2.4093 12.4822C2.55215 11.9488 3.10012 11.6322 3.63323 11.7751L4.59851 12.0339C5.13162 12.1769 5.44799 12.7252 5.30514 13.2587ZM28.8841 13.7071C29.4172 13.5641 29.7335 13.0158 29.5907 12.4823C29.4479 11.9489 28.8999 11.6323 28.3668 11.7752L27.4015 12.034C26.8684 12.177 26.552 12.7253 26.6949 13.2588C26.8377 13.7922 27.3857 14.1088 27.9188 13.9659L28.8841 13.7071ZM24.9866 6.70734L24.2797 7.41469C23.8893 7.80534 23.2563 7.80534 22.8659 7.41469C22.4755 7.02403 22.4755 6.39065 22.8659 6L23.5728 5.29266C23.9632 4.902 24.5962 4.902 24.9866 5.29266C25.377 5.68331 25.377 6.31669 24.9866 6.70734ZM7.01053 6.70734C6.62013 6.31669 6.62013 5.68331 7.01053 5.29266C7.40092 4.902 8.03387 4.902 8.42427 5.29266L9.13114 6C9.52153 6.39065 9.52153 7.02403 9.13114 7.41469C8.74074 7.80534 8.10779 7.80534 7.7174 7.41469L7.01053 6.70734Z" fill="#0D0F13"/>
</svg>
