<svg width="32" height="32" viewBox="0 0 32 32" fill="none" xmlns="http://www.w3.org/2000/svg">
<path fill-rule="evenodd" clip-rule="evenodd" d="M2 8C2 6.89543 2.89543 6 4 6H28C29.1046 6 30 6.89543 30 8V20.999V21.001V24C30 25.1046 29.1046 26 28 26H4C2.89543 26 2 25.1046 2 24V8ZM28 18.5858V8H4V22.5858L10.2929 16.2929C10.6834 15.9024 11.3166 15.9024 11.7071 16.2929L14 18.5858L20.2929 12.2929C20.6834 11.9024 21.3166 11.9024 21.7071 12.2929L28 18.5858ZM5.41421 24H28V21.4142L21 14.4142L14.7071 20.7071C14.3166 21.0976 13.6834 21.0976 13.2929 20.7071L11 18.4142L5.41421 24Z" fill="#0D0F13"/>
</svg>
