<?xml version="1.0" encoding="UTF-8"?>
<svg id="uuid-eae5a433-41b2-4205-a25f-b7eb7814f994" data-name="Layer 1" xmlns="http://www.w3.org/2000/svg" width="32" height="32" viewBox="0 0 32 32">
  <path d="m25.927,27.906H6.072c-.628,0-1.211-.283-1.599-.778-.389-.495-.524-1.13-.374-1.74l3.453-13.963c.226-.909,1.037-1.544,1.973-1.544h12.95c.938,0,1.748.635,1.972,1.545l3.453,13.96c.151.611.016,1.246-.372,1.741s-.972.779-1.601.779ZM9.525,11.88c-.015,0-.027.01-.031.025l-3.453,13.961,19.887.04-3.422-14.001-12.98-.024Zm6.447,0c-2.146,0-3.894-1.747-3.894-3.893s1.747-3.893,3.894-3.893,3.893,1.747,3.893,3.893-1.746,3.893-3.893,3.893Zm0-5.786c-1.044,0-1.894.849-1.894,1.893s.85,1.893,1.894,1.893,1.893-.849,1.893-1.893-.849-1.893-1.893-1.893Z" style="fill: red; stroke-width: 0px;"/>
</svg>