<svg xmlns="http://www.w3.org/2000/svg" fill="none" viewBox="0 0 33 32"><path fill="#0D0F13" fill-rule="evenodd" d="M8.5 24h-2v2h2v-2Zm-2-2a2 2 0 0 0-2 2v2a2 2 0 0 0 2 2h2a2 2 0 0 0 2-2v-2a2 2 0 0 0-2-2h-2ZM17.5 21h-2v5h2v-5Zm-2-2a2 2 0 0 0-2 2v5a2 2 0 0 0 2 2h2a2 2 0 0 0 2-2v-5a2 2 0 0 0-2-2h-2ZM26.5 18h-2v8h2v-8Zm-2-2a2 2 0 0 0-2 2v8a2 2 0 0 0 2 2h2a2 2 0 0 0 2-2v-8a2 2 0 0 0-2-2h-2ZM26.5 7.414V12a1 1 0 1 0 2 0V6a2 2 0 0 0-2-2h-6a1 1 0 1 0 0 2h4.586L18 13.086 14.414 9.5a2 2 0 0 0-2.828 0l-6.793 6.793a1 1 0 1 0 1.414 1.414L13 10.914l3.586 3.586a2 2 0 0 0 2.828 0L26.5 7.414Z" clip-rule="evenodd"/></svg>