<?xml version="1.0" encoding="UTF-8"?>
<svg id="uuid-255370f1-3c7a-4044-9815-18e0e7ebfa0e" data-name="Layer 1" xmlns="http://www.w3.org/2000/svg" width="32" height="32" viewBox="0 0 32 32">
  <defs>
    <style>
      .uuid-20dbaf79-9d1d-4890-8777-21d86d05da00 {
        fill: red;
        stroke-width: 0px;
      }
    </style>
  </defs>
  <path class="uuid-20dbaf79-9d1d-4890-8777-21d86d05da00" d="m27.9,25.385l-3.453-13.96c-.224-.91-1.034-1.545-1.972-1.545h-3.123c.317-.563.512-1.203.512-1.893,0-2.146-1.746-3.893-3.893-3.893s-3.894,1.747-3.894,3.893c0,.69.196,1.33.513,1.893h-3.066c-.936,0-1.747.635-1.973,1.544l-3.453,13.963c-.15.61-.015,1.245.374,1.74.388.495.971.778,1.599.778h19.856c.629,0,1.213-.284,1.601-.779s.523-1.13.372-1.741ZM14.079,7.987c0-1.044.85-1.893,1.894-1.893s1.893.849,1.893,1.893-.849,1.893-1.893,1.893-1.894-.849-1.894-1.893ZM6.041,25.866l3.453-13.961c.004-.015.017-.025.031-.025l12.98.024,3.422,14.001-19.887-.04Z"/>
</svg>