<svg width="32" height="32" viewBox="0 0 32 32" fill="none" xmlns="http://www.w3.org/2000/svg">
<path d="M14 7.97656C14 9.08113 14.8954 9.97656 16 9.97656C17.1046 9.97656 18 9.08113 18 7.97656C18 6.87199 17.1046 5.97656 16 5.97656C14.8954 5.97656 14 6.87199 14 7.97656Z" fill="#0D0F13"/>
<path d="M14 15.9999C14 17.1045 14.8954 17.9999 16 17.9999C17.1046 17.9999 18 17.1045 18 15.9999C18 14.8954 17.1046 13.9999 16 13.9999C14.8954 13.9999 14 14.8954 14 15.9999Z" fill="#0D0F13"/>
<path d="M14 24.0293C14 25.1339 14.8954 26.0293 16 26.0293C17.1046 26.0293 18 25.1339 18 24.0293C18 22.9248 17.1046 22.0293 16 22.0293C14.8954 22.0293 14 22.9248 14 24.0293Z" fill="#0D0F13"/>
</svg>
