<svg width="32" height="32" viewBox="0 0 32 32" fill="none" xmlns="http://www.w3.org/2000/svg">
<path fill-rule="evenodd" clip-rule="evenodd" d="M16.5321 14.5389C18.4722 16.4923 21.6177 16.4923 23.5578 14.5389C25.4979 12.5857 25.4979 9.41886 23.5578 7.4656C21.6177 5.51235 18.4722 5.51235 16.5321 7.4656C14.592 9.41886 14.592 12.5857 16.5321 14.5389ZM15.8791 16.6106C18.6033 18.6671 22.4853 18.4481 24.963 15.9536C27.679 13.2191 27.679 8.78548 24.963 6.05092C22.2468 3.31636 17.843 3.31636 15.127 6.05092C12.6495 8.54525 12.4318 12.4533 14.474 15.196L5.29101 24.4413C4.90299 24.8319 4.90299 25.4653 5.29101 25.8559L7.12847 27.707C7.51648 28.0977 8.14559 28.0977 8.53361 27.707C8.92162 27.3163 8.92162 26.683 8.53361 26.2923L7.39815 25.1492L8.80371 23.734L10.0029 24.9413C10.3909 25.332 11.02 25.332 11.408 24.9413C11.796 24.5507 11.796 23.9173 11.408 23.5267L10.2088 22.3194L15.8791 16.6106Z" fill="#0D0F13"/>
</svg>
