<svg width="32" height="32" viewBox="0 0 32 32" fill="none" xmlns="http://www.w3.org/2000/svg">
<path fill-rule="evenodd" clip-rule="evenodd" d="M13.0552 17.3495L6.01123 24.4413C5.62321 24.8319 5.62321 25.4653 6.01123 25.8559L7.84869 27.707C8.23671 28.0977 8.86581 28.0977 9.25383 27.707C9.64184 27.3163 9.64184 26.683 9.25383 26.2923L8.11836 25.1492L9.52394 23.734L10.7231 24.9413C11.1111 25.332 11.7402 25.332 12.1282 24.9413C12.5162 24.5507 12.5162 23.9173 12.1282 23.5267L10.9291 22.3194L14.4604 18.7641L13.0552 17.3495ZM22.0227 17.8898C23.3636 17.6428 24.6463 16.9975 25.6832 15.9536C28.3992 13.2191 28.3992 8.78548 25.6832 6.05092C22.967 3.31636 18.5633 3.31636 15.8472 6.05092C14.8104 7.09477 14.1693 8.38619 13.924 9.73618L15.8409 11.666C15.6437 10.1749 16.1142 8.61145 17.2523 7.4656C19.1924 5.51234 22.3379 5.51234 24.2779 7.4656C26.2181 9.41886 26.2181 12.5857 24.2779 14.5389C23.1399 15.6848 21.5869 16.1585 20.1059 15.9599L22.0227 17.8898Z" fill="#0D0F13"/>
<path fill-rule="evenodd" clip-rule="evenodd" d="M2.29289 2.29289C2.68342 1.90237 3.31658 1.90237 3.70711 2.29289L29.7071 28.2929C30.0976 28.6834 30.0976 29.3166 29.7071 29.7071C29.3166 30.0976 28.6834 30.0976 28.2929 29.7071L2.29289 3.70711C1.90237 3.31658 1.90237 2.68342 2.29289 2.29289Z" fill="#0D0F13"/>
</svg>
