<svg width="32" height="32" viewBox="0 0 32 32" fill="none" xmlns="http://www.w3.org/2000/svg">
<path fill-rule="evenodd" clip-rule="evenodd" d="M13.0551 17.3495L14.4604 18.7641L10.929 22.3194L12.1281 23.5267C12.5161 23.9173 12.5161 24.5507 12.1281 24.9413C11.7401 25.332 11.1111 25.332 10.7231 24.9413L9.52389 23.734L8.11832 25.1492L9.25382 26.2923C9.64182 26.683 9.64182 27.3163 9.25382 27.707C8.86582 28.0977 8.23667 28.0977 7.84867 27.707L6.0112 25.8559C5.6232 25.4653 5.6232 24.8319 6.0112 24.4413L13.0551 17.3495Z" fill="#0D0F13"/>
<path fill-rule="evenodd" clip-rule="evenodd" d="M17.2523 7.46559C16.1142 8.61146 15.6436 10.1749 15.8408 11.666L13.924 9.73622C14.1693 8.38618 14.8104 7.0948 15.8472 6.05092C18.5633 3.31636 22.9669 3.31636 25.6832 6.05092C28.3992 8.78548 28.3992 13.2191 25.6832 15.9536C24.6463 16.9975 23.3636 17.6428 22.0227 17.8898L20.1059 15.9599C21.5869 16.1585 23.1399 15.6848 24.2779 14.5389C26.2181 12.5857 26.2181 9.41889 24.2779 7.46559C22.3379 5.51234 19.1923 5.51234 17.2523 7.46559Z" fill="#0D0F13"/>
<path fill-rule="evenodd" clip-rule="evenodd" d="M29.7071 28.2929C30.0976 28.6834 30.0976 29.3166 29.7071 29.7071C29.3166 30.0976 28.6834 30.0976 28.2929 29.7071L2.29287 3.7071C1.90237 3.3166 1.90237 2.68342 2.29287 2.29292C2.68338 1.90236 3.31655 1.90236 3.70705 2.29292L29.7071 28.2929Z" fill="#0D0F13"/>
</svg>
