<svg width="32" height="32" viewBox="0 0 32 32" fill="none" xmlns="http://www.w3.org/2000/svg">
<path fill-rule="evenodd" clip-rule="evenodd" d="M26.1324 21.8897L27.0782 21.2846C28.3095 20.4969 28.3073 18.6974 27.0741 17.9126L24.0771 16.0053L27.0784 14.0824C28.3069 13.2953 28.3063 11.5001 27.0774 10.7137L17.0763 4.31438C16.4187 3.89364 15.5765 3.89393 14.9192 4.3151L11.0422 6.79954L12.4899 8.24725L15.9983 5.99902L25.9994 12.3984L20.2956 16.0529L21.7433 17.5006L22.2209 17.1946L26.0003 19.5999L24.6844 20.4418L26.1324 21.8897ZM16.5001 20.7428C15.9698 20.8805 15.3955 20.7966 14.9186 20.4912L9.78402 17.203L6.00325 19.605L15.9962 26.0003L19.5098 23.7524L20.9577 25.2004L17.074 27.6851C16.4169 28.1055 15.5752 28.1054 14.9181 27.6849L4.92516 21.2895C3.69353 20.5013 3.69652 18.701 4.93078 17.9168L7.92663 16.0136L4.92239 14.0896C3.69405 13.303 3.69379 11.5085 4.9219 10.7215L5.87078 10.1134L7.31849 11.5611L6.00098 12.4054L12.0126 16.2553L16.5001 20.7428Z" fill="#0D0F13"/>
<path fill-rule="evenodd" clip-rule="evenodd" d="M2.29289 2.29289C2.68342 1.90237 3.31658 1.90237 3.70711 2.29289L29.7071 28.2929C30.0976 28.6834 30.0976 29.3166 29.7071 29.7071C29.3166 30.0976 28.6834 30.0976 28.2929 29.7071L2.29289 3.70711C1.90237 3.31658 1.90237 2.68342 2.29289 2.29289Z" fill="#0D0F13"/>
</svg>
