<svg width="32" height="32" viewBox="0 0 32 32" fill="none" xmlns="http://www.w3.org/2000/svg">
<path fill-rule="evenodd" clip-rule="evenodd" d="M15.9973 6L25.9984 12.3994L15.9962 18.8079L6 12.4064L15.9973 6ZM14.9183 4.31608C15.5755 3.8949 16.4177 3.89462 17.0753 4.31535L27.0764 10.7147C28.3053 11.5011 28.3059 13.2963 27.0774 14.0834L24.0762 16.0063L27.0732 17.9136C28.3063 18.6984 28.3085 20.4979 27.0772 21.2856L17.0731 27.686C16.4159 28.1065 15.5742 28.1064 14.9171 27.6859L4.92418 21.2905C3.69255 20.5023 3.69554 18.7019 4.9298 17.9178L7.92565 16.0145L4.92141 14.0906C3.69307 13.304 3.69281 11.5094 4.92093 10.7225L14.9183 4.31608ZM9.78304 17.204L6.00228 19.6059L15.9952 26.0013L25.9994 19.6009L22.2199 17.1956L17.0751 20.4919C16.4177 20.9132 15.5752 20.9133 14.9176 20.4922L9.78304 17.204Z" fill="#0D0F13"/>
</svg>
