<svg width="32" height="32" viewBox="0 0 32 32" fill="none" xmlns="http://www.w3.org/2000/svg">
<path fill-rule="evenodd" clip-rule="evenodd" d="M3.70711 2.29289C3.31658 1.90237 2.68342 1.90237 2.29289 2.29289C1.90237 2.68342 1.90237 3.31658 2.29289 3.70711L28.2929 29.7071C28.6834 30.0976 29.3166 30.0976 29.7071 29.7071C30.0976 29.3166 30.0976 28.6834 29.7071 28.2929L3.70711 2.29289ZM27 17H21.2426L19.2426 15H27C27.5523 15 28 15.4477 28 16C28 16.5523 27.5523 17 27 17ZM10.4246 6.182L12.2426 8H27C27.5523 8 28 7.55228 28 7C28 6.44772 27.5523 6 27 6H11C10.7858 6 10.5874 6.06734 10.4246 6.182ZM12.7574 17L10.7813 15.024C10.3342 15.1237 10 15.5228 10 16C10 16.5523 10.4477 17 11 17H12.7574ZM11 24H19.7574L21.7574 26H11C10.4477 26 10 25.5523 10 25C10 24.4477 10.4477 24 11 24ZM7 16C7 16.8284 6.32843 17.5 5.5 17.5C4.67157 17.5 4 16.8284 4 16C4 15.1716 4.67157 14.5 5.5 14.5C6.32843 14.5 7 15.1716 7 16ZM5.5 26.5C6.32843 26.5 7 25.8284 7 25C7 24.1716 6.32843 23.5 5.5 23.5C4.67157 23.5 4 24.1716 4 25C4 25.8284 4.67157 26.5 5.5 26.5Z" fill="#0D0F13"/>
</svg>
