<svg width="32" height="32" viewBox="0 0 32 32" fill="none" xmlns="http://www.w3.org/2000/svg">
<path fill-rule="evenodd" clip-rule="evenodd" d="M5.5 8.5C6.32843 8.5 7 7.82843 7 7C7 6.17157 6.32843 5.5 5.5 5.5C4.67157 5.5 4 6.17157 4 7C4 7.82843 4.67157 8.5 5.5 8.5ZM11 6C10.4477 6 10 6.44772 10 7C10 7.55228 10.4477 8 11 8H27C27.5523 8 28 7.55228 28 7C28 6.44771 27.5523 6 27 6H11ZM11 15C10.4477 15 10 15.4477 10 16C10 16.5523 10.4477 17 11 17H27C27.5523 17 28 16.5523 28 16C28 15.4477 27.5523 15 27 15H11ZM10 25C10 24.4477 10.4477 24 11 24H27C27.5523 24 28 24.4477 28 25C28 25.5523 27.5523 26 27 26H11C10.4477 26 10 25.5523 10 25ZM7 16C7 16.8284 6.32843 17.5 5.5 17.5C4.67157 17.5 4 16.8284 4 16C4 15.1716 4.67157 14.5 5.5 14.5C6.32843 14.5 7 15.1716 7 16ZM5.5 26.5C6.32843 26.5 7 25.8284 7 25C7 24.1716 6.32843 23.5 5.5 23.5C4.67157 23.5 4 24.1716 4 25C4 25.8284 4.67157 26.5 5.5 26.5Z" fill="#0D0F13"/>
</svg>
