<svg width="32" height="32" viewBox="0 0 32 32" fill="none" xmlns="http://www.w3.org/2000/svg">
<path d="M24.015 13.9961C22.9104 13.9961 22.015 14.8915 22.015 15.9961C22.015 17.1007 22.9104 17.9961 24.015 17.9961C25.1196 17.9961 26.015 17.1007 26.015 15.9961C26.015 14.8915 25.1196 13.9961 24.015 13.9961Z" fill="#0D0F13"/>
<path d="M15.995 13.9961C14.8904 13.9961 13.995 14.8915 13.995 15.9961C13.995 17.1007 14.8904 17.9961 15.995 17.9961C17.0996 17.9961 17.995 17.1007 17.995 15.9961C17.995 14.8915 17.0996 13.9961 15.995 13.9961Z" fill="#0D0F13"/>
<path d="M7.99219 13.9961C6.88762 13.9961 5.99219 14.8915 5.99219 15.9961C5.99219 17.1007 6.88762 17.9961 7.99219 17.9961C9.09676 17.9961 9.99219 17.1007 9.99219 15.9961C9.99219 14.8915 9.09676 13.9961 7.99219 13.9961Z" fill="#0D0F13"/>
</svg>
