<svg width="32" height="32" viewBox="0 0 32 32" fill="none" xmlns="http://www.w3.org/2000/svg">
<path fill-rule="evenodd" clip-rule="evenodd" d="M5 4C5.55228 4 6 4.44772 6 5C6 10.5216 10.4751 14.9979 15.9962 15H16H24.5866L19.2225 9.63582C18.8319 9.24529 18.8319 8.61213 19.2225 8.2216C19.613 7.83108 20.2461 7.83108 20.6367 8.2216L27.7077 15.2926C28.0982 15.6831 28.0982 16.3163 27.7077 16.7068C27.6966 16.7179 27.6853 16.7286 27.6738 16.7391L20.6365 23.7764C20.246 24.167 19.6128 24.167 19.2223 23.7764C18.8318 23.3859 18.8318 22.7528 19.2223 22.3622L24.5845 17H16C10.4772 17 6 21.4772 6 27C6 27.5523 5.55228 28 5 28C4.44772 28 4 27.5523 4 27C4 22.0806 6.96024 17.8525 11.1966 16C6.96024 14.1475 4 9.91944 4 5C4 4.44772 4.44772 4 5 4Z" fill="#0D0F13"/>
</svg>
