<svg width="32" height="32" viewBox="0 0 32 32" fill="none" xmlns="http://www.w3.org/2000/svg">
<path fill-rule="evenodd" clip-rule="evenodd" d="M23.8278 20.0851L27.1738 16.7391C27.1853 16.7286 27.1966 16.7179 27.2077 16.7068C27.5982 16.3163 27.5982 15.6831 27.2077 15.2926L20.1367 8.2216C19.7461 7.83108 19.113 7.83108 18.7225 8.2216C18.3319 8.61213 18.3319 9.24529 18.7225 9.63582L24.0866 15H18.7426L20.7426 17H24.0845L22.4136 18.6709L23.8278 20.0851ZM12.6649 17.4076C8.52289 18.6298 5.5 22.4619 5.5 27C5.5 27.5523 5.05228 28 4.5 28C3.94772 28 3.5 27.5523 3.5 27C3.5 22.0806 6.46024 17.8525 10.6966 16C7.63134 14.6596 5.23418 12.0755 4.14308 8.88572L12.6649 17.4076ZM18.4353 23.1779L19.3208 24.0635C19.1022 24.0397 18.8899 23.9441 18.7223 23.7764C18.5547 23.6088 18.459 23.3965 18.4353 23.1779Z" fill="#0D0F13"/>
<path fill-rule="evenodd" clip-rule="evenodd" d="M1.79289 2.29289C2.18342 1.90237 2.81658 1.90237 3.20711 2.29289L29.2071 28.2929C29.5976 28.6834 29.5976 29.3166 29.2071 29.7071C28.8166 30.0976 28.1834 30.0976 27.7929 29.7071L1.79289 3.70711C1.40237 3.31658 1.40237 2.68342 1.79289 2.29289Z" fill="#0D0F13"/>
</svg>
