<svg width="32" height="32" viewBox="0 0 32 32" fill="none" xmlns="http://www.w3.org/2000/svg">
<path fill-rule="evenodd" clip-rule="evenodd" d="M13 12C13 12.5523 12.5523 13 12 13L5 13C4.44772 13 4 12.5523 4 12C4 11.4477 4.44772 11 5 11L11 11L11 5C11 4.44772 11.4477 4 12 4C12.5523 4 13 4.44772 13 5L13 12Z" fill="#0D0F13"/>
<path fill-rule="evenodd" clip-rule="evenodd" d="M19 20C19 19.4477 19.4477 19 20 19H27C27.5523 19 28 19.4477 28 20C28 20.5523 27.5523 21 27 21H21V27C21 27.5523 20.5523 28 20 28C19.4477 28 19 27.5523 19 27V20Z" fill="#0D0F13"/>
<path fill-rule="evenodd" clip-rule="evenodd" d="M20 13C19.4477 13 19 12.5523 19 12V5C19 4.44772 19.4477 4 20 4C20.5523 4 21 4.44772 21 5V11H27C27.5523 11 28 11.4477 28 12C28 12.5523 27.5523 13 27 13H20Z" fill="#0D0F13"/>
<path fill-rule="evenodd" clip-rule="evenodd" d="M12 19C12.5523 19 13 19.4477 13 20L13 27C13 27.5523 12.5523 28 12 28C11.4477 28 11 27.5523 11 27L11 21H5C4.44772 21 4 20.5523 4 20C4 19.4477 4.44772 19 5 19L12 19Z" fill="#0D0F13"/>
</svg>
