<svg width="32" height="32" viewBox="0 0 32 32" fill="none" xmlns="http://www.w3.org/2000/svg">
<path d="M18.9261 3.7036C18.5351 3.31405 18.5351 2.68245 18.9261 2.29289C19.3172 1.90334 19.9512 1.90334 20.3422 2.29289L29.2387 11.1554C30.2554 12.1682 30.2554 13.8104 29.2387 14.8232L20.3422 23.6858C19.9512 24.0753 19.3172 24.0753 18.9261 23.6858C18.5351 23.2962 18.5351 22.6646 18.9261 22.2751L27.2871 13.946H4.00265V29.0019C4.00265 29.5528 3.55434 29.9994 3.00133 29.9994C2.44831 29.9994 2 29.5528 2 29.0019V12.9485C2 12.6839 2.1055 12.4302 2.29328 12.2431C2.48107 12.056 2.73576 11.9509 3.00133 11.9509H27.2051L18.9261 3.7036Z" fill="#0D0F13"/>
</svg>
