<svg width="32" height="32" viewBox="0 0 32 32" fill="none" xmlns="http://www.w3.org/2000/svg">
<path fill-rule="evenodd" clip-rule="evenodd" d="M3.70711 2.29289C3.31658 1.90237 2.68342 1.90237 2.29289 2.29289C1.90237 2.68342 1.90237 3.31658 2.29289 3.70711L28.2929 29.7071C28.6834 30.0976 29.3166 30.0976 29.7071 29.7071C30.0976 29.3166 30.0976 28.6834 29.7071 28.2929L3.70711 2.29289ZM29.2377 14.8235L24.1424 19.8995L22.729 18.4861L27.2862 13.9463L18.1892 13.9462L16.1941 11.9512H27.2041L18.9252 3.70384C18.5342 3.31428 18.5342 2.68269 18.9252 2.29314C19.3163 1.90359 19.9503 1.90359 20.3413 2.29314L29.2377 11.1557C30.2545 12.1685 30.2545 13.8107 29.2377 14.8235ZM4.00168 13.9462H9.70388L7.70886 11.9512H3.00035C2.73478 11.9512 2.48009 12.0563 2.29231 12.2434C2.10452 12.4305 1.99902 12.6842 1.99902 12.9487V29.0022C1.99902 29.5531 2.44733 29.9997 3.00035 29.9997C3.55337 29.9997 4.00168 29.5531 4.00168 29.0022V13.9462ZM19.7311 23.9735L18.6371 22.8794C18.6078 23.1673 18.7038 23.4655 18.9252 23.686C19.1456 23.9056 19.4433 24.0014 19.7311 23.9735Z" fill="#0D0F13"/>
</svg>
