<svg width="32" height="32" viewBox="0 0 32 32" fill="none" xmlns="http://www.w3.org/2000/svg">
<path d="M26 21.7573V14C26 8.81437 22.0529 4.55065 16.9992 4.04927V3C16.9992 2.44772 16.5515 2 15.9992 2C15.4469 2 14.9992 2.44772 14.9992 3V4.04942C13.195 4.22868 11.5319 4.88747 10.1392 5.89653L11.5761 7.33341C12.8432 6.49088 14.3642 5.99997 15.9999 5.99997C20.4182 5.99997 24 9.58169 24 14V19.7573L26 21.7573Z" fill="#0D0F13"/>
<path d="M8.15953 12.4013C8.05488 12.9176 7.99995 13.4519 7.99995 13.9991V23.9991H19.7574L21.7574 25.9991H5C4.44772 25.9991 4 25.5514 4 24.9991C4 24.4468 4.44772 23.9991 5 23.9991H5.99995V13.9991C5.99995 12.8704 6.18694 11.7854 6.53162 10.7734L8.15953 12.4013Z" fill="#0D0F13"/>
<path d="M13.9999 28C13.4477 28 12.9999 28.4477 12.9999 29C12.9999 29.5523 13.4477 30 13.9999 30H17.9999C18.5522 30 19 29.5523 19 29C19 28.4477 18.5522 28 17.9999 28H13.9999Z" fill="#0D0F13"/>
<path fill-rule="evenodd" clip-rule="evenodd" d="M2.29289 2.29289C2.68342 1.90237 3.31658 1.90237 3.70711 2.29289L29.7071 28.2929C30.0976 28.6834 30.0976 29.3166 29.7071 29.7071C29.3166 30.0976 28.6834 30.0976 28.2929 29.7071L2.29289 3.70711C1.90237 3.31658 1.90237 2.68342 2.29289 2.29289Z" fill="#0D0F13"/>
</svg>
