<svg width="32" height="32" viewBox="0 0 32 32" fill="none" xmlns="http://www.w3.org/2000/svg">
<path fill-rule="evenodd" clip-rule="evenodd" d="M8.02984 6.99971C8.02984 6.44758 8.47724 6 9.02912 6H13.0262C13.5781 6 14.0255 6.44758 14.0255 6.99971C14.0255 7.55183 13.5781 7.99941 13.0262 7.99941H12.0269V9.89094L16.0855 9.89179C16.4086 9.89186 16.7117 10.0482 16.8992 10.3115L18.055 11.9348C18.0576 11.9384 18.0621 11.9399 18.0662 11.9386L25.9675 9.37536L25.9668 9.37413C26.4748 9.17899 27.1308 8.94355 27.8187 9.02135C28.5277 9.10153 29.1672 9.47216 29.6829 10.0953C30.0348 10.5206 29.9755 11.1508 29.5504 11.5029C29.1253 11.855 28.4953 11.7956 28.1434 11.3703C27.907 11.0846 27.7156 11.0218 27.5942 11.0081C27.5546 11.0036 27.5108 11.0032 27.463 11.0081C27.4219 11.0123 27.3778 11.0204 27.3309 11.0332C27.3119 11.0384 27.2544 11.0661 27.2373 11.0784C27.2092 11.0986 27.1905 11.112 27.1768 11.122L19.2165 19.6816C19.0274 19.8849 18.7623 20.0004 18.4847 20.0003L7.03039 19.9983C6.47857 19.9982 6.03129 19.5506 6.03129 18.9985L6.03133 14.0052L4.02395 14.0109L4.02394 15.0039C4.02393 15.556 3.57654 16.0036 3.02465 16.0036C2.47277 16.0036 2.02538 15.556 2.02539 15.0039L2.0254 13.0378L2.02547 13.0259L2.02541 13.0168C2.02386 12.4647 2.46999 12.0158 3.02187 12.0143L6.03134 12.0058L6.03135 10.8896C6.03136 10.3374 6.47887 9.88979 7.03084 9.8899L10.0284 9.89053V7.99941H9.02912C8.47724 7.99941 8.02984 7.55183 8.02984 6.99971ZM18.6827 13.8405L23.317 12.3371L18.0498 18.0008L8.02985 17.999L8.0299 11.8895L15.5701 11.8911L16.4272 13.0948C16.9358 13.8092 17.8488 14.111 18.6827 13.8405Z" fill="#0D0F13"/>
<path d="M28.5265 18.0027C29.3543 18.0027 30.0254 17.3266 30.0254 16.4925C30.0254 15.2931 28.8475 13.9059 28.5265 13.9059C28.2055 13.9059 27.0276 15.2172 27.0276 16.4925C27.0276 17.3266 27.6986 18.0027 28.5265 18.0027Z" fill="#0D0F13"/>
<path d="M23.6206 23.3448C24.6708 24.2263 26.2054 24.2031 27.2288 23.2902L28.349 22.2909C28.7621 21.9224 29.3944 21.9599 29.7614 22.3748C30.1284 22.7896 30.091 23.4246 29.6779 23.7931L28.5577 24.7924C26.7935 26.3661 24.1479 26.4061 22.3373 24.8864L21.8886 24.5098C21.0281 23.7875 19.758 23.8564 18.98 24.6674C17.3567 26.3593 14.6571 26.3377 13.0322 24.6791C12.2152 23.8453 10.8867 23.789 10.0219 24.5424L9.67539 24.8442C7.89955 26.3912 5.25608 26.3739 3.50045 24.8038L2.36928 23.7922C1.95666 23.4232 1.92006 22.7882 2.28754 22.3738C2.65501 21.9595 3.28741 21.9227 3.70004 22.2917L4.83121 23.3033C5.83569 24.2017 7.34815 24.2116 8.36419 23.3264L8.71069 23.0246C10.3886 21.5629 12.9148 21.6943 14.4585 23.27C15.3097 24.1387 16.7127 24.1346 17.539 23.2733C19.0458 21.7027 21.5055 21.5694 23.1718 22.9681L23.6206 23.3448Z" fill="#0D0F13"/>
</svg>
