<svg width="32" height="32" viewBox="0 0 32 32" fill="none" xmlns="http://www.w3.org/2000/svg">
<path fill-rule="evenodd" clip-rule="evenodd" d="M28.3236 22.2909C28.7367 21.9224 29.369 21.9599 29.736 22.3748C30.103 22.7896 30.0656 23.4246 29.6525 23.7931L28.798 24.5553L27.3775 23.1349L28.3236 22.2909Z" fill="#0D0F13"/>
<path fill-rule="evenodd" clip-rule="evenodd" d="M18.6573 13.8405C18.4989 13.8919 18.3374 13.9227 18.1764 13.9338L14.134 9.89144L16.0601 9.89181C16.3833 9.89187 16.6863 10.0482 16.8738 10.3115L18.0296 11.9348C18.0322 11.9384 18.0367 11.9399 18.0409 11.9386L25.9422 9.37539L25.9414 9.37417C26.4494 9.17904 27.1054 8.94357 27.7934 9.02139C28.5023 9.10153 29.1418 9.4722 29.6576 10.0953C30.0094 10.5206 29.9502 11.1508 29.525 11.5029C29.0999 11.855 28.4701 11.7956 28.118 11.3703C27.8816 11.0846 27.6902 11.0218 27.5688 11.0081C27.5293 11.0036 27.4854 11.0032 27.4377 11.0081C27.3965 11.0123 27.3524 11.0204 27.3055 11.0332C27.2865 11.0384 27.229 11.0661 27.2119 11.0784L27.1966 11.0894C27.1767 11.1037 27.1626 11.1139 27.1515 11.122L21.4718 17.2292L20.0575 15.8148L23.2916 12.3371L18.6573 13.8405Z" fill="#0D0F13"/>
<path fill-rule="evenodd" clip-rule="evenodd" d="M2.99928 16.0036C2.4474 16.0036 2.00001 15.556 2.00001 15.0039V13.0378L2.00007 13.0259L2.00001 13.0168C1.99848 12.4647 2.44459 12.0158 2.99647 12.0143L6.00599 12.0058V10.8896C6.00599 10.7057 6.05567 10.5331 6.1424 10.385L8.00452 12.2471L8.00446 17.999L13.7574 18.0001L15.7572 19.9998L7.00501 19.9983C6.45319 19.9982 6.00593 19.5506 6.00593 18.9985V14.0052L3.99854 14.0109V15.0039C3.99855 15.556 3.55116 16.0036 2.99928 16.0036Z" fill="#0D0F13"/>
<path fill-rule="evenodd" clip-rule="evenodd" d="M13.0008 7.99941H12.2421L10.2426 6.00002H13.0008C13.5527 6.00002 14.0001 6.44759 14.0001 6.99971C14.0001 7.55183 13.5527 7.99941 13.0008 7.99941Z" fill="#0D0F13"/>
<path fill-rule="evenodd" clip-rule="evenodd" d="M17.5136 23.2733C17.7695 23.0066 18.0529 22.7813 18.3553 22.5979L19.863 24.1056C19.5278 24.2093 19.2139 24.3971 18.9546 24.6674C17.3313 26.3593 14.6318 26.3377 13.0068 24.6791C12.1898 23.8453 10.8613 23.789 9.99653 24.5424L9.65003 24.8442C7.87415 26.3912 5.23072 26.3739 3.47504 24.8038L2.34388 23.7922C1.93128 23.4232 1.89466 22.7882 2.26215 22.3738C2.62964 21.9595 3.26203 21.9227 3.67463 22.2917L4.80586 23.3033C5.81032 24.2017 7.32277 24.2116 8.33882 23.3264L8.68532 23.0246C10.3632 21.5629 12.8894 21.6943 14.4331 23.27C15.2843 24.1387 16.6873 24.1346 17.5136 23.2733Z" fill="#0D0F13"/>
<path fill-rule="evenodd" clip-rule="evenodd" d="M28.5011 13.9059C28.8221 13.9059 30 15.2931 30 16.4925C30 17.3266 29.3289 18.0027 28.5011 18.0027C27.6734 18.0027 27.0022 17.3266 27.0022 16.4925C27.0022 15.2172 28.1801 13.9059 28.5011 13.9059Z" fill="#0D0F13"/>
<path fill-rule="evenodd" clip-rule="evenodd" d="M3.7071 2.29293L29.7071 28.2929C30.0976 28.6834 30.0976 29.3166 29.7071 29.7071C29.3166 30.0976 28.6834 30.0976 28.2929 29.7071L2.29292 3.70711C1.90236 3.31661 1.90236 2.68343 2.29292 2.29293C2.68342 1.90236 3.3166 1.90236 3.7071 2.29293Z" fill="#0D0F13"/>
</svg>
