<svg width="32" height="32" viewBox="0 0 32 32" fill="none" xmlns="http://www.w3.org/2000/svg">
<path d="M28.8234 24.5553L29.6779 23.7931C30.091 23.4246 30.1284 22.7896 29.7614 22.3748C29.3944 21.9599 28.7621 21.9224 28.349 22.2909L27.4029 23.1349L28.8234 24.5553Z" fill="#0D0F13"/>
<path d="M21.4972 17.2292L27.1768 11.122C27.1879 11.1139 27.2021 11.1037 27.222 11.0894L27.2373 11.0784C27.2544 11.0661 27.3119 11.0384 27.3309 11.0332C27.3778 11.0204 27.4219 11.0123 27.4631 11.0081C27.5108 11.0032 27.5546 11.0036 27.5942 11.0081C27.7156 11.0218 27.907 11.0846 28.1434 11.3703C28.4954 11.7956 29.1253 11.855 29.5504 11.5029C29.9755 11.1508 30.0348 10.5206 29.6829 10.0953C29.1672 9.47216 28.5277 9.10153 27.8188 9.02135C27.1308 8.94355 26.4748 9.17899 25.9668 9.37413L25.9675 9.37536L18.0663 11.9386C18.0621 11.9399 18.0576 11.9384 18.055 11.9348L16.8992 10.3115C16.7117 10.0482 16.4086 9.89186 16.0855 9.89179L14.1594 9.89139L18.2018 13.9338C18.3628 13.9227 18.5242 13.8919 18.6827 13.8405L23.317 12.3371L20.0828 15.8148L21.4972 17.2292Z" fill="#0D0F13"/>
<path d="M13.7828 18.0001L15.7826 19.9998L7.03039 19.9983C6.47857 19.9982 6.03129 19.5506 6.03129 18.9985L6.03133 14.0052L4.02395 14.0109L4.02394 15.0039C4.02394 15.556 3.57654 16.0036 3.02466 16.0036C2.47277 16.0036 2.02538 15.556 2.02539 15.0039L2.02541 13.0378L2.02548 13.0259L2.02541 13.0168C2.02386 12.4647 2.46999 12.0158 3.02187 12.0143L6.03135 12.0058V10.8896C6.03136 10.7056 6.08107 10.5331 6.16778 10.385L8.0299 12.2471L8.02985 17.999L13.7828 18.0001Z" fill="#0D0F13"/>
<path d="M10.268 6L12.2675 7.99941H13.0262C13.5781 7.99941 14.0255 7.55183 14.0255 6.99971C14.0255 6.44758 13.5781 6 13.0262 6H10.268Z" fill="#0D0F13"/>
<path d="M18.3807 22.5979L19.8884 24.1056C19.5532 24.2093 19.2393 24.3971 18.98 24.6674C17.3567 26.3593 14.6572 26.3377 13.0322 24.6791C12.2152 23.8453 10.8867 23.789 10.0219 24.5424L9.67539 24.8442C7.89955 26.3912 5.25609 26.3739 3.50045 24.8038L2.36928 23.7922C1.95666 23.4232 1.92006 22.7882 2.28754 22.3738C2.65502 21.9595 3.28742 21.9227 3.70004 22.2917L4.83121 23.3033C5.8357 24.2017 7.34815 24.2116 8.3642 23.3264L8.71069 23.0246C10.3886 21.5629 12.9148 21.6943 14.4585 23.27C15.3097 24.1387 16.7127 24.1346 17.539 23.2733C17.7949 23.0066 18.0783 22.7813 18.3807 22.5979Z" fill="#0D0F13"/>
<path d="M28.5265 18.0027C29.3543 18.0027 30.0254 17.3266 30.0254 16.4925C30.0254 15.2931 28.8475 13.9059 28.5265 13.9059C28.2055 13.9059 27.0276 15.2172 27.0276 16.4925C27.0276 17.3266 27.6987 18.0027 28.5265 18.0027Z" fill="#0D0F13"/>
<path fill-rule="evenodd" clip-rule="evenodd" d="M2.31828 2.29289C2.70881 1.90237 3.34197 1.90237 3.7325 2.29289L29.7325 28.2929C30.123 28.6834 30.123 29.3166 29.7325 29.7071C29.342 30.0976 28.7088 30.0976 28.3183 29.7071L2.31828 3.70711C1.92776 3.31658 1.92776 2.68342 2.31828 2.29289Z" fill="#0D0F13"/>
</svg>
