<svg width="32" height="32" viewBox="0 0 32 32" fill="none" xmlns="http://www.w3.org/2000/svg">
<path d="M11 6.75736V3C11 2.44772 10.5523 2 10 2C9.44772 2 9 2.44772 9 3V4.75736L11 6.75736Z" fill="#0D0F13"/>
<path d="M9 13.2426V29C9 29.5523 9.44772 30 10 30C10.5523 30 11 29.5523 11 29V15.2426L9 13.2426Z" fill="#0D0F13"/>
<path d="M23 18.7574V3C23 2.44772 22.5523 2 22 2C21.4477 2 21 2.44772 21 3V16.7574L23 18.7574Z" fill="#0D0F13"/>
<path d="M21 25.2426V29C21 29.5523 21.4477 30 22 30C22.5523 30 23 29.5523 23 29V27.2426L21 25.2426Z" fill="#0D0F13"/>
<path d="M3.70711 2.29289C3.31658 1.90237 2.68342 1.90237 2.29289 2.29289C1.90237 2.68342 1.90237 3.31658 2.29289 3.70711L28.2929 29.7071C28.6834 30.0976 29.3166 30.0976 29.7071 29.7071C30.0976 29.3166 30.0976 28.6834 29.7071 28.2929L3.70711 2.29289Z" fill="#0D0F13"/>
</svg>
