<svg width="32" height="32" viewBox="0 0 32 32" fill="none" xmlns="http://www.w3.org/2000/svg">
<path d="M28 23.7564V22.7804H27.9967L27.9983 20.3761C27.9989 19.4679 27.389 18.6727 26.5117 18.4379L22.578 17.3848C22.2563 17.2987 21.9247 17.2954 21.611 17.3674L24.1086 19.8649L25.9945 20.3698C25.9968 20.3704 25.9983 20.3724 25.9983 20.3747L25.9974 21.7538L28 23.7564Z" fill="#0D0F13"/>
<path d="M6.46975 10.7119C7.25045 14.2152 9.00374 17.5445 11.7297 20.2705C14.4556 22.9963 17.7849 24.7496 21.2881 25.5303L23.6759 27.918C18.8031 27.4923 14.0454 25.4145 10.3155 21.6847C6.58555 17.9548 4.50771 13.197 4.08203 8.32422L6.46975 10.7119Z" fill="#0D0F13"/>
<path d="M12.1298 7.88617L11.6258 6.00376C11.6253 6.00155 11.6232 6 11.6209 6L10.2445 6.00092L8.24389 4.00027H9.21967V4.0016L11.6196 4C12.5278 3.9994 13.323 4.60927 13.5578 5.48655L14.6109 9.42025C14.6968 9.74118 14.7003 10.0721 14.6288 10.3852L12.1298 7.88617Z" fill="#0D0F13"/>
<path fill-rule="evenodd" clip-rule="evenodd" d="M2.29289 2.29289C2.68342 1.90237 3.31658 1.90237 3.70711 2.29289L29.7071 28.2929C30.0976 28.6834 30.0976 29.3166 29.7071 29.7071C29.3166 30.0976 28.6834 30.0976 28.2929 29.7071L2.29289 3.70711C1.90237 3.31658 1.90237 2.68342 2.29289 2.29289Z" fill="#0D0F13"/>
</svg>
