<svg width="32" height="32" viewBox="0 0 32 32" fill="none" xmlns="http://www.w3.org/2000/svg">
<path fill-rule="evenodd" clip-rule="evenodd" d="M15.9989 1.99902C12.9386 1.99902 10.0036 3.21473 7.83965 5.37871C5.67567 7.54269 4.45996 10.4777 4.45996 13.538C4.45996 18.0242 7.34614 22.2018 10.2503 25.2674C11.7005 26.7981 13.151 28.0472 14.2391 28.9136C14.705 29.2847 15.1044 29.5854 15.4085 29.8079C15.7601 30.0651 16.2378 30.0651 16.5893 29.8079C16.8935 29.5854 17.2928 29.2847 17.7588 28.9136C18.8468 28.0472 20.2974 26.7981 21.7475 25.2674C24.6517 22.2018 27.5379 18.0242 27.5379 13.538C27.5379 10.4777 26.3222 7.54269 24.1582 5.37871C21.9942 3.21473 19.0593 1.99902 15.9989 1.99902ZM9.25386 6.79292C11.0428 5.00402 13.469 3.99902 15.9989 3.99902C18.5288 3.99902 20.9551 5.00402 22.744 6.79292C24.5329 8.58183 25.5379 11.0081 25.5379 13.538C25.5379 17.2203 23.1202 20.9104 20.2956 23.8919C18.9261 25.3375 17.5495 26.5236 16.5129 27.3491C16.3298 27.4949 16.1578 27.629 15.9989 27.7509C15.8401 27.629 15.6681 27.4949 15.4849 27.3491C14.4484 26.5236 13.0717 25.3375 11.7022 23.8919C8.87765 20.9104 6.45996 17.2203 6.45996 13.538C6.45996 11.0081 7.46496 8.58183 9.25386 6.79292Z" fill="#0D0F13"/>
<path fill-rule="evenodd" clip-rule="evenodd" d="M15.9985 7.9953C12.9722 7.99558 10.519 10.449 10.519 13.4753C10.519 16.5018 12.9725 18.9553 15.999 18.9553C19.0253 18.955 21.4785 16.5016 21.4785 13.4753C21.4785 10.4487 19.025 7.9953 15.9985 7.9953ZM19.4785 13.4753C19.4785 15.3972 17.9205 16.9553 15.9985 16.9553C14.0768 16.955 12.519 15.3971 12.519 13.4753C12.519 11.5533 14.0771 9.9953 15.999 9.9953C17.9208 9.99559 19.4785 11.5535 19.4785 13.4753Z" fill="#0D0F13"/>
</svg>
