<svg width="32" height="32" viewBox="0 0 32 32" fill="none" xmlns="http://www.w3.org/2000/svg">
<path d="M27.5384 13.5389C27.5384 16.1571 26.5554 18.6701 25.1596 20.9183L23.703 19.4617C24.8174 17.5629 25.5384 15.5497 25.5384 13.5389C25.5384 11.0091 24.5334 8.5828 22.7445 6.7939C20.9556 5.00499 18.5293 4 15.9994 4C13.893 4 11.8584 4.69669 10.2038 5.96248L8.7793 4.53796C10.8173 2.90306 13.3618 2 15.9994 2C19.0597 2 21.9947 3.2157 24.1587 5.37968C26.3227 7.54366 27.5384 10.4787 27.5384 13.5389Z" fill="#0D0F13"/>
<path d="M21.4771 13.466C21.4771 14.541 21.1674 15.5437 20.6324 16.3898L19.1605 14.9178C19.3638 14.476 19.4771 13.9842 19.4771 13.466C19.4771 11.5453 17.9201 9.98828 15.9994 9.98828C15.4812 9.98828 14.9894 10.1017 14.5476 10.3049L13.0757 8.83299C13.9217 8.29797 14.9244 7.98828 15.9994 7.98828C19.0247 7.98828 21.4771 10.4407 21.4771 13.466Z" fill="#0D0F13"/>
<path d="M14.4904 18.7331L10.7319 14.9746C11.2501 16.7868 12.6782 18.2149 14.4904 18.7331Z" fill="#0D0F13"/>
<path d="M6.46045 13.5378C6.46045 12.6856 6.57448 11.8452 6.7941 11.0369L5.20835 9.45117C4.71846 10.7447 4.46045 12.128 4.46045 13.5378C4.46045 18.024 7.34663 22.2017 10.2508 25.2672C11.701 26.7979 13.1515 28.047 14.2396 28.9134C14.7055 29.2845 15.1048 29.5852 15.409 29.8077C15.7606 30.0649 16.2382 30.0649 16.5898 29.8077C16.894 29.5852 17.2933 29.2845 17.7593 28.9134C18.7586 28.1177 20.0636 26.9992 21.3933 25.6361L19.979 24.2218C18.7161 25.5183 17.47 26.5872 16.5134 27.3489C16.3303 27.4947 16.1583 27.6289 15.9994 27.7508C15.8405 27.6289 15.6685 27.4947 15.4854 27.3489C14.4488 26.5235 13.0722 25.3373 11.7027 23.8917C8.87813 20.9102 6.46045 17.2201 6.46045 13.5378Z" fill="#0D0F13"/>
<path d="M3.70711 2.2929C3.31658 1.90237 2.68342 1.90237 2.29289 2.2929C1.90237 2.68342 1.90237 3.31659 2.29289 3.70711L28.2929 29.7072C28.6834 30.0977 29.3166 30.0977 29.7071 29.7072C30.0976 29.3166 30.0976 28.6835 29.7071 28.2929L3.70711 2.2929Z" fill="#0D0F13"/>
</svg>
