<svg width="32" height="32" viewBox="0 0 32 32" fill="none" xmlns="http://www.w3.org/2000/svg">
<path fill-rule="evenodd" clip-rule="evenodd" d="M23.5418 19.299L27.1483 17.3071C28.1812 16.7367 28.1815 15.2522 27.1489 14.6813L8.75695 4.51417L13.8671 9.62436L25.3893 15.9939L22.0699 17.8271L23.5418 19.299ZM8.00001 12.2425V25.5976L16.6036 20.8461L18.0754 22.3179L8.22518 27.758C7.22545 28.3101 6.00001 27.587 6.00001 26.445V10.2425L8.00001 12.2425Z" fill="#0D0F13"/>
<path fill-rule="evenodd" clip-rule="evenodd" d="M2.29289 2.29289C2.68342 1.90237 3.31658 1.90237 3.70711 2.29289L29.7071 28.2929C30.0976 28.6834 30.0976 29.3166 29.7071 29.7071C29.3166 30.0976 28.6834 30.0976 28.2929 29.7071L2.29289 3.70711C1.90237 3.31658 1.90237 2.68342 2.29289 2.29289Z" fill="#0D0F13"/>
</svg>
