<svg width="32" height="32" viewBox="0 0 32 32" fill="none" xmlns="http://www.w3.org/2000/svg">
<path d="M17.0001 4.97852C17.0001 4.42623 16.5524 3.97852 16.0001 3.97852C15.4478 3.97852 15.0001 4.42623 15.0001 4.97852V15H4.97949C4.42721 15 3.97949 15.4477 3.97949 16C3.97949 16.5523 4.42721 17 4.97949 17H15.0001V27.0199C15.0001 27.5722 15.4478 28.0199 16.0001 28.0199C16.5524 28.0199 17.0001 27.5722 17.0001 27.0199V17H27.0209C27.5732 17 28.0209 16.5523 28.0209 16C28.0209 15.4477 27.5732 15 27.0209 15H17.0001V4.97852Z" fill="#0D0F13"/>
</svg>
