<svg width="32" height="32" viewBox="0 0 32 32" fill="none" xmlns="http://www.w3.org/2000/svg">
<path fill-rule="evenodd" clip-rule="evenodd" d="M19.5 8H24V9V14V15H19.5C17.567 15 16 13.433 16 11.5C16 9.567 17.567 8 19.5 8ZM26 13V10H29C29.5523 10 30 9.55229 30 9C30 8.44772 29.5523 8 29 8H26V7C26 6.44772 25.5523 6 25 6H19.5C16.9824 6 14.86 7.69149 14.207 10H7C5.67392 10 4.40215 10.5268 3.46447 11.4645C2.52678 12.4021 2 13.6739 2 15C2 16.3261 2.52678 17.5979 3.46447 18.5355C4.40215 19.4732 5.67392 20 7 20H12.9986C12.9991 20 12.9995 20 13 20C13.5304 20 14.0391 20.2107 14.4142 20.5858C14.7893 20.9609 15 21.4696 15 22C15 22.5304 14.7893 23.0391 14.4142 23.4142C14.0391 23.7893 13.5304 24 13 24H5C4.44772 24 4 24.4477 4 25C4 25.5523 4.44772 26 5 26H13C14.0609 26 15.0783 25.5786 15.8284 24.8284C16.5786 24.0783 17 23.0609 17 22C17 20.9391 16.5786 19.9217 15.8284 19.1716C15.0787 18.4218 14.0619 18.0004 13.0016 18C13.0011 18 13.0005 18 13 18H7C6.20435 18 5.44129 17.6839 4.87868 17.1213C4.31607 16.5587 4 15.7956 4 15C4 14.2044 4.31607 13.4413 4.87868 12.8787C5.44129 12.3161 6.20435 12 7 12H14.0224C14.275 14.8032 16.631 17 19.5 17H25C25.5523 17 26 16.5523 26 16V15H29C29.5523 15 30 14.5523 30 14C30 13.4477 29.5523 13 29 13H26Z" fill="#0D0F13"/>
</svg>
