<svg width="32" height="32" viewBox="0 0 32 32" fill="none" xmlns="http://www.w3.org/2000/svg">
<path fill-rule="evenodd" clip-rule="evenodd" d="M3.70711 2.29289C3.31658 1.90237 2.68342 1.90237 2.29289 2.29289C1.90237 2.68342 1.90237 3.31658 2.29289 3.70711L28.2929 29.7071C28.6834 30.0976 29.3166 30.0976 29.7071 29.7071C30.0976 29.3166 30.0976 28.6834 29.7071 28.2929L3.70711 2.29289ZM21.2425 17H24.9999C25.5522 17 25.9999 16.5523 25.9999 16V15H29C29.5523 15 30 14.5523 30 14C30 13.4477 29.5523 13 29 13H25.9999V10H29C29.5523 10 30 9.55229 30 9C30 8.44772 29.5523 8 29 8H25.9999V7C25.9999 6.44772 25.5522 6 24.9999 6H19.4999C16.9924 6 14.8769 7.67798 14.2148 9.9723L16.01 11.7674C16.0033 11.6792 15.9999 11.59 15.9999 11.5C15.9999 9.567 17.5669 8 19.4999 8H23.9999V15H19.4999C19.4099 15 19.3207 14.9966 19.2325 14.9899L21.2425 17ZM5.88358 10.1262C4.97471 10.3344 4.13433 10.7946 3.46447 11.4645C2.52678 12.4021 2 13.6739 2 15C2 16.3261 2.52678 17.5979 3.46447 18.5355C4.40215 19.4732 5.67392 20 7 20H12.9986H13C13.5304 20 14.0391 20.2107 14.4142 20.5858C14.7893 20.9609 15 21.4696 15 22C15 22.5304 14.7893 23.0391 14.4142 23.4142C14.0391 23.7893 13.5304 24 13 24H5C4.44772 24 4 24.4477 4 25C4 25.5523 4.44772 26 5 26H13C14.0609 26 15.0783 25.5786 15.8284 24.8284C16.5786 24.0783 17 23.0609 17 22C17 21.7125 16.9691 21.4283 16.909 21.1517L13.8483 18.091C13.5722 18.0311 13.2885 18.0001 13.0016 18H13H7C6.20435 18 5.44129 17.6839 4.87868 17.1213C4.31607 16.5587 4 15.7956 4 15C4 14.2044 4.31607 13.4413 4.87868 12.8787C5.44129 12.3161 6.20435 12 7 12H7.75736L5.88358 10.1262Z" fill="#0D0F13"/>
</svg>
