<svg width="32" height="32" viewBox="0 0 32 32" fill="none" xmlns="http://www.w3.org/2000/svg">
<path d="M3.7071 2.29293L29.7071 28.2929C30.0976 28.6834 30.0976 29.3166 29.7071 29.7071C29.3166 30.0976 28.6834 30.0976 28.2929 29.7071L2.29292 3.70711C1.90236 3.31661 1.90236 2.68343 2.29292 2.29293C2.68342 1.90236 3.3166 1.90236 3.7071 2.29293Z" fill="#0D0F13"/>
<path d="M13.8483 18.091L16.909 21.1517C16.9691 21.4283 17 21.7125 17 22C17 23.0609 16.5786 24.0783 15.8284 24.8284C15.0783 25.5786 14.0609 26 13 26H5.00001C4.4477 26 4.00001 25.5523 4.00001 25C4.00001 24.4477 4.4477 24 5.00001 24H13C13.5304 24 14.0391 23.7893 14.4142 23.4142C14.7893 23.0391 15 22.5304 15 22C15 21.4696 14.7893 20.9609 14.4142 20.5858C14.0391 20.2107 13.5304 20 13 20H7.00001C5.67396 20 4.40217 19.4732 3.46449 18.5355C2.5268 17.5979 2.00001 16.3261 2.00001 15C2.00001 13.6739 2.5268 12.4021 3.46449 11.4645C4.13435 10.7946 4.97474 10.3344 5.88362 10.1262L7.7574 12H7.00001C6.20436 12 5.44129 12.3161 4.87867 12.8787C4.31605 13.4413 4.00001 14.2044 4.00001 15C4.00001 15.7956 4.31605 16.5587 4.87867 17.1213C5.44129 17.6839 6.20436 18 7.00001 18H13.0016C13.2885 18.0001 13.5722 18.0311 13.8483 18.091Z" fill="#0D0F13"/>
<path d="M29 13C29.5523 13 30 13.4477 30 14C30 14.5523 29.5523 15 29 15H25.9999V16C25.9999 16.5523 25.5522 17 24.9999 17H21.2425L19.2325 14.9899C19.3207 14.9966 19.4099 15 19.4999 15H23.9999V8.00002H19.4999C17.5669 8.00002 15.9999 9.56704 15.9999 11.5C15.9999 11.59 16.0033 11.6792 16.01 11.7674L14.2148 9.97232C14.8769 7.678 16.9924 6.00002 19.4999 6.00002H24.9999C25.5522 6.00002 25.9999 6.44771 25.9999 7.00002V8.00002H29C29.5523 8.00002 30 8.44771 30 9.00002C30 9.55233 29.5523 10 29 10H25.9999V13H29Z" fill="#0D0F13"/>
</svg>
