<svg width="32" height="32" viewBox="0 0 32 32" fill="none" xmlns="http://www.w3.org/2000/svg">
<path fill-rule="evenodd" clip-rule="evenodd" d="M2.29289 2.29289C2.68342 1.90237 3.31658 1.90237 3.70711 2.29289L29.7071 28.2929C30.0976 28.6834 30.0976 29.3166 29.7071 29.7071C29.3166 30.0976 28.6834 30.0976 28.2929 29.7071L2.29289 3.70711C1.90237 3.31658 1.90237 2.68342 2.29289 2.29289Z" fill="#0D0F13"/>
<path d="M28.2296 23.987C29.226 23.8731 30 23.0269 30 22V12C30 10.9082 29.127 10 28.0097 10H26V6C26 4.89543 25.1046 4 24 4H8.24264L10.2426 6H24V10H14.2426L16.2426 12H28V22H26.2426L28.2296 23.987Z" fill="#0D0F13"/>
<path d="M26 21.7574V17.5C26 16.6716 25.3284 16 24.5 16H20.2426L22.2426 18H24V19.7574L26 21.7574Z" fill="#0D0F13"/>
<path d="M19.7574 24L21.5754 25.818C21.4126 25.9327 21.2142 26 21 26H11C10.4477 26 10 25.5523 10 25C10 24.4477 10.4477 24 11 24H19.7574Z" fill="#0D0F13"/>
<path d="M15.7574 20L17.7574 22H11C10.4477 22 10 21.5523 10 21C10 20.4477 10.4477 20 11 20H15.7574Z" fill="#0D0F13"/>
<path d="M13.7574 18H8V28H23.7574L25.2877 29.5304C24.9398 29.8234 24.4905 30 24 30H8C6.89543 30 6 29.1046 6 28V24H4C2.89543 24 2 23.1046 2 22V12C2 10.8998 2.88778 10 3.99668 10H5.75736L7.75736 12H4V22H6V17.5C6 16.6716 6.67157 16 7.5 16H11.7574L13.7574 18Z" fill="#0D0F13"/>
</svg>
