<svg width="32" height="32" viewBox="0 0 32 32" fill="none" xmlns="http://www.w3.org/2000/svg">
<path fill-rule="evenodd" clip-rule="evenodd" d="M6 6C6 4.89543 6.89543 4 8 4H24C25.1046 4 26 4.89543 26 6V10H28.0097C29.127 10 30 10.9082 30 12V22C30 23.1046 29.1046 24 28 24H26V28C26 29.1046 25.1046 30 24 30H8C6.89543 30 6 29.1046 6 28V24H4C2.89543 24 2 23.1046 2 22V12C2 10.8998 2.88778 10 3.99668 10H6V6ZM4 12V22H6V17.5C6 16.6716 6.67157 16 7.5 16H24.5C25.3284 16 26 16.6716 26 17.5V22H28V12H4ZM24 10H8V6H24V10ZM8 18V28H24V18H8ZM10 21C10 20.4477 10.4477 20 11 20H21C21.5523 20 22 20.4477 22 21C22 21.5523 21.5523 22 21 22H11C10.4477 22 10 21.5523 10 21ZM10 25C10 24.4477 10.4477 24 11 24H21C21.5523 24 22 24.4477 22 25C22 25.5523 21.5523 26 21 26H11C10.4477 26 10 25.5523 10 25Z" fill="#0D0F13"/>
</svg>
