<svg width="32" height="32" viewBox="0 0 32 32" fill="none" xmlns="http://www.w3.org/2000/svg">
<path fill-rule="evenodd" clip-rule="evenodd" d="M3.70711 2.29289C3.31658 1.90237 2.68342 1.90237 2.29289 2.29289C1.90237 2.68342 1.90237 3.31658 2.29289 3.70711L28.2929 29.7071C28.6834 30.0976 29.3166 30.0976 29.7071 29.7071C30.0976 29.3166 30.0976 28.6834 29.7071 28.2929L3.70711 2.29289ZM28 17.7386C28 19.412 27.4785 21.0015 26.5601 22.3174L25.116 20.8734C25.6825 19.9488 26 18.8693 26 17.7386V6.1606C21.0512 6.99541 16.0239 7.20614 11.0354 6.79279L8.79206 4.54942C14.7321 5.29184 20.7583 5.11295 26.6567 4.01275C27.355 3.88251 28 4.41832 28 5.12864V17.7386ZM6 17.7386V10.2426L4 8.24264V17.7386C4 20.9321 5.89927 23.8197 8.83163 25.0844L15.2079 27.8346C15.7135 28.0527 16.2865 28.0527 16.7921 27.8346L21.5429 25.7855L20.0211 24.2638L16 25.9982L9.62372 23.248C7.42445 22.2994 6 20.1337 6 17.7386Z" fill="#0D0F13"/>
</svg>
