<svg width="32" height="32" viewBox="0 0 32 32" fill="none" xmlns="http://www.w3.org/2000/svg">
<path fill-rule="evenodd" clip-rule="evenodd" d="M26 6.16698C19.3801 7.28345 12.6199 7.28345 6 6.16698V17.7426C6 20.1372 7.42445 22.3024 9.62372 23.2508L16 26.0003L22.3763 23.2508C24.5756 22.3024 26 20.1372 26 17.7426V6.16698ZM5.34327 4.01958C4.645 3.88937 4 4.42508 4 5.13524V17.7426C4 20.9354 5.89927 23.8223 8.83163 25.0868L15.2079 27.8365C15.7135 28.0545 16.2865 28.0545 16.7921 27.8365L23.1684 25.0868C26.1007 23.8223 28 20.9354 28 17.7426V5.13524C28 4.42508 27.355 3.88937 26.6567 4.01958C19.613 5.33314 12.387 5.33314 5.34327 4.01958Z" fill="#0D0F13"/>
</svg>
