<svg width="32" height="32" viewBox="0 0 32 32" fill="none" xmlns="http://www.w3.org/2000/svg">
<path fill-rule="evenodd" clip-rule="evenodd" d="M15.9999 3.97852C12.3317 3.97852 9.35797 6.9522 9.35797 10.6204C9.35797 14.2886 12.3317 17.2623 15.9999 17.2623C19.6681 17.2623 22.6418 14.2886 22.6418 10.6204C22.6418 6.9522 19.6681 3.97852 15.9999 3.97852ZM7.35797 10.6204C7.35797 5.84763 11.2271 1.97852 15.9999 1.97852C20.7727 1.97852 24.6418 5.84763 24.6418 10.6204C24.6418 15.3932 20.7727 19.2623 15.9999 19.2623C11.2271 19.2623 7.35797 15.3932 7.35797 10.6204Z" fill="#0D0F13"/>
<path fill-rule="evenodd" clip-rule="evenodd" d="M1.99414 28.3863C1.99417 24.2994 5.30726 20.9863 9.39414 20.9863H22.6056C26.6925 20.9863 30.0056 24.2994 30.0056 28.3864L30.0056 29.0115C30.0055 29.5638 29.5578 30.0115 29.0055 30.0115C28.4533 30.0115 28.0055 29.5638 28.0056 29.0115L28.0056 28.3864C28.0056 25.404 25.5879 22.9863 22.6056 22.9863H9.39414C6.41182 22.9863 3.99416 25.404 3.99414 28.3863L3.99414 29.0115C3.99414 29.5638 3.54642 30.0115 2.99413 30.0115C2.44185 30.0115 1.99414 29.5638 1.99414 29.0115L1.99414 28.3863Z" fill="#0D0F13"/>
</svg>
