<svg width="32" height="32" viewBox="0 0 32 32" fill="none" xmlns="http://www.w3.org/2000/svg">
<path d="M3 20C2.44772 20 2 19.5523 2 19V13C2 12.4477 2.44772 12 3 12C3.55228 12 4 12.4477 4 13V18H8.50049V15C8.50049 14.4477 8.9482 14 9.50049 14C10.0528 14 10.5005 14.4477 10.5005 15V18H15V13C15 12.4477 15.4477 12 16 12C16.5523 12 17 12.4477 17 13V18H21.4995V15C21.4995 14.4477 21.9472 14 22.4995 14C23.0518 14 23.4995 14.4477 23.4995 15V18H28V13C28 12.4477 28.4477 12 29 12C29.5523 12 30 12.4477 30 13V19C30 19.5523 29.5523 20 29 20H3Z" fill="#0D0F13"/>
</svg>
