<svg width="32" height="32" viewBox="0 0 32 32" fill="none" xmlns="http://www.w3.org/2000/svg">
<path fill-rule="evenodd" clip-rule="evenodd" d="M3.70711 2.29289C3.31658 1.90237 2.68342 1.90237 2.29289 2.29289C1.90237 2.68342 1.90237 3.31658 2.29289 3.70711L28.2929 29.7071C28.6834 30.0976 29.3166 30.0976 29.7071 29.7071C30.0976 29.3166 30.0976 28.6834 29.7071 28.2929L3.70711 2.29289ZM10.4535 14.6961C10.484 14.792 10.5005 14.8941 10.5005 15V18H13.7574L15.7574 20H3C2.44772 20 2 19.5523 2 19V13C2 12.4477 2.44772 12 3 12C3.55228 12 4 12.4477 4 13V18H8.50049V15C8.50049 14.4477 8.9482 14 9.50049 14C9.60644 14 9.70854 14.0165 9.80437 14.047L10.4535 14.6961ZM24.2426 20H29C29.5523 20 30 19.5523 30 19V13C30 12.4477 29.5523 12 29 12C28.4477 12 28 12.4477 28 13V18H23.4995V15C23.4995 14.4477 23.0518 14 22.4995 14C21.9472 14 21.4995 14.4477 21.4995 15V17.2569L24.2426 20Z" fill="#0D0F13"/>
</svg>
