<svg width="32" height="32" viewBox="0 0 32 32" fill="none" xmlns="http://www.w3.org/2000/svg">
<path d="M29.4261 17.0803C29.2609 19.116 28.6147 21.0768 27.5522 22.8095L26.0903 21.3476C26.8457 19.9859 27.3062 18.4771 27.4327 16.9185C27.4773 16.368 27.9598 15.958 28.5103 16.0027C29.0607 16.0473 29.4708 16.5298 29.4261 17.0803Z" fill="#0D0F13"/>
<path d="M19.1862 26.7228C20.1318 26.4694 21.0343 26.0958 21.8729 25.6155L23.3303 27.0729C22.2144 27.774 20.9928 28.3093 19.7038 28.6546C17.0808 29.3575 14.306 29.2397 11.7616 28.316C9.47286 27.4851 7.47145 26.0386 5.97839 24.1441L5.97839 29C5.97839 29.5523 5.53067 30 4.97839 30C4.4261 30 3.97839 29.5523 3.97839 29L3.97839 22.0006C3.97839 21.4483 4.42611 21.0006 4.97839 21.0006H11.9784C12.5307 21.0006 12.9784 21.4483 12.9784 22.0006C12.9784 22.5529 12.5307 23.0006 11.9784 23.0006H7.62449C8.87773 24.555 10.5422 25.7456 12.4441 26.436C14.6015 27.2193 16.9573 27.32 19.1862 26.7228Z" fill="#0D0F13"/>
<path d="M13.7921 5.27723C12.8517 5.52919 11.9539 5.90005 11.1192 6.37657L9.66135 4.91871C10.7736 4.22178 11.9906 3.68937 13.2744 3.34537C15.8974 2.64254 18.6723 2.7603 21.2167 3.68402C23.5054 4.51491 25.5068 5.9614 26.9999 7.85588V3C26.9999 2.44772 27.4476 2 27.9999 2C28.5522 2 28.9999 2.44772 28.9999 3V9.9994C28.9999 10.5517 28.5522 10.9994 27.9999 10.9994H20.9999C20.4476 10.9994 19.9999 10.5517 19.9999 9.9994C19.9999 9.44712 20.4476 8.9994 20.9999 8.9994H25.3538C24.1005 7.44499 22.4361 6.25443 20.5342 5.56397C18.3768 4.78074 16.021 4.67999 13.7921 5.27723Z" fill="#0D0F13"/>
<path d="M6.89577 10.6384L5.43435 9.17699C4.36687 10.913 3.71779 12.8788 3.55216 14.9197C3.50749 15.4702 3.91752 15.9527 4.468 15.9973C5.01847 16.042 5.50093 15.632 5.5456 15.0815C5.67252 13.5175 6.13574 12.0038 6.89577 10.6384Z" fill="#0D0F13"/>
<path d="M4.20711 2.29289C3.81658 1.90237 3.18342 1.90237 2.79289 2.29289C2.40237 2.68342 2.40237 3.31658 2.79289 3.70711L28.7929 29.7071C29.1834 30.0976 29.8166 30.0976 30.2071 29.7071C30.5976 29.3166 30.5976 28.6834 30.2071 28.2929L4.20711 2.29289Z" fill="#0D0F13"/>
</svg>
