<svg xmlns="http://www.w3.org/2000/svg" fill="none" viewBox="0 0 32 32"><path fill="#0D0F13" d="M29.426 17.08a12.967 12.967 0 0 1-1.874 5.73l-1.462-1.462a10.958 10.958 0 0 0 1.343-4.43 1 1 0 1 1 1.993.162ZM19.186 26.723a11.281 11.281 0 0 0 2.687-1.107l1.457 1.457a13.272 13.272 0 0 1-11.568 1.243 13.012 13.012 0 0 1-5.784-4.172V29a1 1 0 1 1-2 0v-7a1 1 0 0 1 1-1h7a1 1 0 1 1 0 2H7.624a11.014 11.014 0 0 0 4.82 3.436 11.24 11.24 0 0 0 6.742.287ZM13.792 5.277c-.94.252-1.838.623-2.673 1.1L9.661 4.919a13.276 13.276 0 0 1 11.556-1.235c2.288.83 4.29 2.277 5.783 4.172V3a1 1 0 1 1 2 0v7a1 1 0 0 1-1 1h-7a1 1 0 1 1 0-2h4.354a11.014 11.014 0 0 0-4.82-3.436 11.24 11.24 0 0 0-6.742-.287ZM6.896 10.638 5.434 9.177a12.967 12.967 0 0 0-1.882 5.743 1 1 0 1 0 1.994.162c.127-1.565.59-3.078 1.35-4.444ZM4.207 2.293a1 1 0 0 0-1.414 1.414l26 26a1 1 0 0 0 1.414-1.414l-26-26Z"/></svg>