<svg width="32" height="32" viewBox="0 0 32 32" fill="none" xmlns="http://www.w3.org/2000/svg">
<path d="M20.5342 6.06397C22.4361 6.75443 24.1005 7.94499 25.3538 9.4994H20.9999C20.4476 9.4994 19.9999 9.94712 19.9999 10.4994C19.9999 11.0517 20.4476 11.4994 20.9999 11.4994H27.9999C28.5522 11.4994 28.9999 11.0517 28.9999 10.4994V3.5C28.9999 2.94772 28.5522 2.5 27.9999 2.5C27.4476 2.5 26.9999 2.94772 26.9999 3.5V8.35588C25.5068 6.4614 23.5054 5.01491 21.2167 4.18402C18.6723 3.2603 15.8974 3.14254 13.2744 3.84537C10.6514 4.54821 8.30718 6.03762 6.56552 8.10979C4.82373 10.1821 3.76996 12.7359 3.55216 15.4197C3.50749 15.9702 3.91752 16.4527 4.468 16.4973C5.01847 16.542 5.50093 16.132 5.5456 15.5815C5.72956 13.3147 6.61994 11.1535 8.09656 9.39663C9.5733 7.63964 11.5632 6.37446 13.7921 5.77723C16.021 5.17999 18.3768 5.28074 20.5342 6.06397Z" fill="#0D0F13"/>
<path d="M19.7038 29.1546C22.3269 28.4518 24.6711 26.9624 26.4127 24.8902C28.1545 22.8179 29.2083 20.2641 29.4261 17.5803C29.4708 17.0298 29.0607 16.5473 28.5103 16.5027C27.9598 16.458 27.4773 16.868 27.4327 17.4185C27.2487 19.6853 26.3583 21.8465 24.8817 23.6034C23.405 25.3604 21.4151 26.6255 19.1862 27.2228C16.9573 27.82 14.6015 27.7193 12.4441 26.936C10.5422 26.2456 8.87773 25.055 7.62449 23.5006H11.9784C12.5307 23.5006 12.9784 23.0529 12.9784 22.5006C12.9784 21.9483 12.5307 21.5006 11.9784 21.5006H4.97839C4.42611 21.5006 3.97839 21.9483 3.97839 22.5006L3.97839 29.5C3.97839 30.0523 4.4261 30.5 4.97839 30.5C5.53067 30.5 5.97839 30.0523 5.97839 29.5L5.97839 24.6441C7.47145 26.5386 9.47286 27.9851 11.7616 28.816C14.306 29.7397 17.0808 29.8575 19.7038 29.1546Z" fill="#0D0F13"/>
</svg>
