<svg width="32" height="32" viewBox="0 0 32 32" fill="none" xmlns="http://www.w3.org/2000/svg">
<path d="M22.5778 4.78671C19.9325 3.23511 16.8239 2.66862 13.8014 3.18736C10.7788 3.7061 8.03695 5.27666 6.06039 7.62147C4.08383 9.96628 2.99984 12.9344 3 16.0011C3.00016 19.0678 4.08448 22.0358 6.06129 24.3804C8.0381 26.725 10.7801 28.2953 13.8027 28.8137C16.8253 29.3321 19.9339 28.7653 22.579 27.2134C25.2241 25.6615 27.2355 23.2245 28.2575 20.3331C28.4416 19.8123 28.1687 19.241 27.648 19.057C27.1272 18.8729 26.5559 19.1458 26.3719 19.6665C25.507 22.1131 23.8051 24.1752 21.567 25.4884C19.3288 26.8015 16.6984 27.2811 14.1408 26.8425C11.5832 26.4038 9.26303 25.0751 7.59033 23.0912C5.91764 21.1073 5.00014 18.5959 5 16.001C4.99986 13.406 5.91709 10.8946 7.58957 8.9105C9.26206 6.92642 11.5821 5.59747 14.1397 5.15854C16.6972 4.7196 19.3276 5.19894 21.5659 6.51184C23.3844 7.57846 24.8489 9.13945 25.7983 10.9994L21.2 10.9994C20.6477 10.9994 20.2 11.4471 20.2 11.9994C20.2 12.5517 20.6477 12.9994 21.2 12.9994H27.2781C27.3021 13.0003 27.3262 13.0003 27.3504 12.9994H28C28.5523 12.9994 29 12.5517 29 11.9994V5C29 4.44772 28.5523 4 28 4C27.4477 4 27 4.44772 27 5V9.07088C25.8976 7.32101 24.3857 5.84713 22.5778 4.78671Z" fill="#0D0F13"/>
</svg>
