<svg xmlns="http://www.w3.org/2000/svg" fill="none" viewBox="0 0 32 32"><path fill="#0D0F13" d="M3.707 2.293a1 1 0 0 0-1.414 1.414l26 26a1 1 0 0 0 1.414-1.414l-26-26ZM28.258 20.333c-.31.876-.71 1.71-1.192 2.49l-1.46-1.46c.3-.54.557-1.107.766-1.697a1 1 0 1 1 1.886.667ZM5 16.001a11 11 0 0 1 1.395-5.363l-1.46-1.46a13 13 0 0 0 17.889 17.888l-1.461-1.46A11.001 11.001 0 0 1 5 16ZM14.14 5.159a11 11 0 0 0-3.502 1.236l-1.46-1.46A13 13 0 0 1 27 9.07V5a1 1 0 1 1 2 0v7a1 1 0 0 1-1 1H21.2a1 1 0 1 1 0-2h4.598A11 11 0 0 0 14.14 5.158Z"/></svg>