<svg width="32" height="32" viewBox="0 0 32 32" fill="none" xmlns="http://www.w3.org/2000/svg">
<path d="M3.70711 2.29289C3.31658 1.90237 2.68342 1.90237 2.29289 2.29289C1.90237 2.68342 1.90237 3.31658 2.29289 3.70711L28.2929 29.7071C28.6834 30.0976 29.3166 30.0976 29.7071 29.7071C30.0976 29.3166 30.0976 28.6834 29.7071 28.2929L3.70711 2.29289Z" fill="#0D0F13"/>
<path d="M28.2575 20.3331C27.9479 21.2089 27.5475 22.0431 27.0663 22.8236L25.6053 21.3627C25.9066 20.823 26.1635 20.2559 26.3719 19.6665C26.5559 19.1458 27.1272 18.8729 27.648 19.057C28.1687 19.241 28.4416 19.8123 28.2575 20.3331Z" fill="#0D0F13"/>
<path d="M5 16.001C4.9999 14.112 5.48589 12.2673 6.39546 10.6381L4.9345 9.17714C3.67618 11.2179 2.99987 13.5787 3 16.0011C3.00016 19.0678 4.08448 22.0358 6.06129 24.3804C8.0381 26.725 10.7801 28.2953 13.8027 28.8137C16.8253 29.3321 19.9339 28.7653 22.579 27.2134C22.6612 27.1652 22.7427 27.1161 22.8236 27.0662L21.3627 25.6053C19.1696 26.8297 16.621 27.2678 14.1408 26.8425C11.5832 26.4038 9.26303 25.0751 7.59033 23.0912C5.91764 21.1073 5.00014 18.5959 5 16.001Z" fill="#0D0F13"/>
<path d="M14.1397 5.15854C12.9013 5.37107 11.7186 5.79227 10.6381 6.39548L9.17717 4.93452C10.5821 4.06829 12.1498 3.4708 13.8014 3.18736C16.8239 2.66862 19.9325 3.23511 22.5778 4.78671C24.3857 5.84713 25.8976 7.32101 27 9.07088V5C27 4.44772 27.4477 4 28 4C28.5523 4 29 4.44772 29 5V11.9994C29 12.5517 28.5523 12.9994 28 12.9994H27.3504C27.3262 13.0003 27.3021 13.0003 27.2781 12.9994H21.2C20.6477 12.9994 20.2 12.5517 20.2 11.9994C20.2 11.4471 20.6477 10.9994 21.2 10.9994H25.7983C24.8489 9.13945 23.3844 7.57846 21.5659 6.51184C19.3276 5.19894 16.6972 4.7196 14.1397 5.15854Z" fill="#0D0F13"/>
</svg>
