<svg width="32" height="32" viewBox="0 0 32 32" fill="none" xmlns="http://www.w3.org/2000/svg">
<path fill-rule="evenodd" clip-rule="evenodd" d="M22.6924 4.29269C23.0829 3.90244 23.7159 3.90244 24.1063 4.29269L27.4146 7.59968C28.1955 8.3802 28.1955 9.64566 27.4146 10.4262L24.1063 13.7332C23.7159 14.1234 23.0829 14.1234 22.6924 13.7332C22.302 13.3429 22.302 12.7102 22.6924 12.3199L25.0176 9.99574H5.99946V15.9916C5.99946 16.5435 5.55186 16.9909 4.99973 16.9909C4.44759 16.9909 4 16.5435 4 15.9916V9.99574C4 8.89193 4.89519 7.99711 5.99946 7.99711H24.9846L22.6924 5.70594C22.302 5.31568 22.302 4.68295 22.6924 4.29269ZM27.9931 21.9879C27.9931 23.0918 27.0979 23.9866 25.9936 23.9866H6.99975L9.30848 26.2943C9.6989 26.6846 9.6989 27.3173 9.30848 27.7076C8.91806 28.0978 8.28506 28.0978 7.89464 27.7076L4.58627 24.4006C3.80544 23.6201 3.80543 22.3546 4.58627 21.5741L7.89464 18.2671C8.28506 17.8769 8.91806 17.8769 9.30848 18.2671C9.6989 18.6574 9.6989 19.2901 9.30848 19.6804L6.99992 21.9879H25.9936V15.9921C25.9936 15.4402 26.4413 14.9927 26.9935 14.9927C27.5456 14.9927 27.9931 15.4402 27.9931 15.9921V21.9879Z" fill="#0D0F13"/>
</svg>
