<svg width="32" height="32" viewBox="0 0 32 32" fill="none" xmlns="http://www.w3.org/2000/svg">
<path d="M28 23.7574V6C28 4.89543 27.1046 4 26 4H24C22.8954 4 22 4.89543 22 6V17.7574L24 19.7574V6H26V21.7574L28 23.7574Z" fill="#0D0F13"/>
<path d="M19 14.7574V11C19 9.89543 18.1046 9 17 9H15C14.5095 9 14.0602 9.17658 13.7123 9.46965L15.2426 11H17V12.7574L19 14.7574Z" fill="#0D0F13"/>
<path d="M17 21.2426L19 23.2426V26C19 27.1046 18.1046 28 17 28H15C13.8954 28 13 27.1046 13 26V17.2426L15 19.2426V26H17V21.2426Z" fill="#0D0F13"/>
<path fill-rule="evenodd" clip-rule="evenodd" d="M6 14C4.89543 14 4 14.8954 4 16V26C4 27.1046 4.89543 28 6 28H8C9.10457 28 10 27.1046 10 26V16C10 14.8954 9.10457 14 8 14H6ZM6 16H8V26H6V16Z" fill="#0D0F13"/>
<path fill-rule="evenodd" clip-rule="evenodd" d="M2.29289 2.29289C2.68342 1.90237 3.31658 1.90237 3.70711 2.29289L29.7071 28.2929C30.0976 28.6834 30.0976 29.3166 29.7071 29.7071C29.3166 30.0976 28.6834 30.0976 28.2929 29.7071L2.29289 3.70711C1.90237 3.31658 1.90237 2.68342 2.29289 2.29289Z" fill="#0D0F13"/>
</svg>
