<svg width="32" height="32" viewBox="0 0 32 32" fill="none" xmlns="http://www.w3.org/2000/svg">
<path d="M23 2C24.6569 2 26 3.34314 26 5C26 6.65686 24.6569 8 23 8C21.3432 8 20 6.65686 20 5C20 3.34314 21.3432 2 23 2ZM23 6C23.5523 6 24 5.55231 24 5C24 4.44769 23.5523 4 23 4C22.4477 4 22 4.44769 22 5C22 5.55231 22.4477 6 23 6Z" fill="#0D0F13"/>
<path d="M9 24C10.6569 24 12 25.3431 12 27C12 28.6569 10.6569 30 9 30C7.34314 30 6 28.6569 6 27C6 25.3431 7.34314 24 9 24ZM9 28C9.55231 28 10 27.5523 10 27C10 26.4477 9.55231 26 9 26C8.44769 26 8 26.4477 8 27C8 27.5523 8.44769 28 9 28Z" fill="#0D0F13"/>
<path d="M18.5 15C22.0899 15 25 17.9101 25 21.5C25 25.0899 22.0899 28 18.5 28H15C14.4477 28 14 27.5523 14 27C14 26.4477 14.4477 26 15 26H18.5C20.9853 26 23 23.9853 23 21.5C23 19.0147 20.9853 17 18.5 17H13.5C9.91016 17 7 14.0899 7 10.5C7 6.91016 9.91016 4 13.5 4H17C17.5523 4 18 4.44769 18 5C18 5.55231 17.5523 6 17 6H13.5C11.0147 6 9 8.01471 9 10.5C9 12.9853 11.0147 15 13.5 15H18.5Z" fill="#0D0F13"/>
</svg>
