<svg width="32" height="32" viewBox="0 0 32 32" fill="none" xmlns="http://www.w3.org/2000/svg">
<path d="M24.9525 20.7098C24.594 17.7516 22.2484 15.406 19.2902 15.0475L24.9525 20.7098Z" fill="#0D0F13"/>
<path d="M13.5 6C12.5751 6 11.7153 6.27907 11.0003 6.75761L9.56707 5.32443C10.659 4.49337 12.0219 4 13.5 4H17C17.5523 4 18 4.44772 18 5C18 5.55228 17.5523 6 17 6H13.5Z" fill="#0D0F13"/>
<path d="M7.04755 11.2902C7.40605 14.2484 9.75165 16.594 12.7098 16.9525L7.04755 11.2902Z" fill="#0D0F13"/>
<path d="M18.5 26C19.425 26 20.2848 25.7209 20.9998 25.2424L22.433 26.6756C21.341 27.5066 19.9781 28 18.5 28H15C14.4477 28 14 27.5523 14 27C14 26.4477 14.4477 26 15 26H18.5Z" fill="#0D0F13"/>
<path fill-rule="evenodd" clip-rule="evenodd" d="M23 8C24.6569 8 26 6.65685 26 5C26 3.34315 24.6569 2 23 2C21.3432 2 20 3.34315 20 5C20 6.65685 21.3432 8 23 8ZM23 6C23.5523 6 24 5.55228 24 5C24 4.44772 23.5523 4 23 4C22.4477 4 22 4.44772 22 5C22 5.55228 22.4477 6 23 6Z" fill="#0D0F13"/>
<path fill-rule="evenodd" clip-rule="evenodd" d="M9 30C10.6569 30 12 28.6569 12 27C12 25.3431 10.6569 24 9 24C7.34315 24 6 25.3431 6 27C6 28.6569 7.34315 30 9 30ZM9 28C9.55229 28 9.99998 27.5523 9.99998 27C9.99998 26.4477 9.55229 26 9 26C8.44772 26 8 26.4477 8 27C8 27.5523 8.44772 28 9 28Z" fill="#0D0F13"/>
<path d="M3.70711 2.29289C3.31659 1.90237 2.68342 1.90237 2.2929 2.29289C1.90237 2.68342 1.90237 3.31658 2.2929 3.70711L28.2929 29.7071C28.6834 30.0976 29.3166 30.0976 29.7071 29.7071C30.0977 29.3166 30.0977 28.6834 29.7071 28.2929L3.70711 2.29289Z" fill="#0D0F13"/>
</svg>
