<svg width="32" height="32" viewBox="0 0 32 32" fill="none" xmlns="http://www.w3.org/2000/svg">
<path d="M19.2902 15.0475C22.2484 15.406 24.594 17.7516 24.9525 20.7098L19.2902 15.0475Z" fill="#0D0F13"/>
<path d="M13.5 6.00001C12.5751 6.00001 11.7152 6.27906 11.0002 6.75764L9.56705 5.32441C10.6589 4.49336 12.0219 4.00001 13.5 4.00001H17C17.5523 4.00001 18 4.4477 18 5.00001C18 5.55232 17.5523 6.00001 17 6.00001H13.5Z" fill="#0D0F13"/>
<path d="M12.7098 16.9525C9.75167 16.594 7.40604 14.2484 7.04757 11.2902L12.7098 16.9525Z" fill="#0D0F13"/>
<path d="M18.5 26C19.425 26 20.2848 25.7209 20.9998 25.2424L22.433 26.6756C21.341 27.5066 19.9781 28 18.5 28H15C14.4477 28 14 27.5523 14 27C14 26.4477 14.4477 26 15 26H18.5Z" fill="#0D0F13"/>
<path d="M23 8.00001C21.3432 8.00001 20 6.65687 20 5.00001C20 3.34315 21.3432 2.00001 23 2.00001C24.6569 2.00001 26 3.34315 26 5.00001C26 6.65687 24.6569 8.00001 23 8.00001ZM23 4.00001C22.4477 4.00001 22 4.4477 22 5.00001C22 5.55232 22.4477 6.00001 23 6.00001C23.5523 6.00001 24 5.55232 24 5.00001C24 4.4477 23.5523 4.00001 23 4.00001Z" fill="#0D0F13"/>
<path d="M9.00002 24C10.6568 24 11.9999 25.3431 11.9999 27C11.9999 28.6569 10.6568 30 9.00002 30C7.34316 30 6.00002 28.6569 6.00002 27C6.00002 25.3431 7.34316 24 9.00002 24ZM9.00002 28C9.55227 28 9.99996 27.5523 9.99996 27C9.99996 26.4477 9.55227 26 9.00002 26C8.44771 26 8.00002 26.4477 8.00002 27C8.00002 27.5523 8.44771 28 9.00002 28Z" fill="#0D0F13"/>
<path d="M29.7071 28.2929C30.0977 28.6834 30.0977 29.3166 29.7071 29.7071C29.3166 30.0976 28.6834 30.0976 28.2929 29.7071L2.29287 3.7071C1.90237 3.3166 1.90237 2.68342 2.29287 2.29292C2.68343 1.90236 3.31661 1.90236 3.70712 2.29292L29.7071 28.2929Z" fill="#0D0F13"/>
</svg>
