<svg width="32" height="32" viewBox="0 0 32 32" fill="none" xmlns="http://www.w3.org/2000/svg">
<path fill-rule="evenodd" clip-rule="evenodd" d="M26 5C26 6.65685 24.6569 8 23 8C21.3432 8 20 6.65685 20 5C20 3.34315 21.3432 2 23 2C24.6569 2 26 3.34315 26 5ZM24 5C24 5.55228 23.5523 6 23 6C22.4477 6 22 5.55228 22 5C22 4.44772 22.4477 4 23 4C23.5523 4 24 4.44772 24 5Z" fill="#0D0F13"/>
<path fill-rule="evenodd" clip-rule="evenodd" d="M12 27C12 28.6569 10.6569 30 9 30C7.34315 30 6 28.6569 6 27C6 25.3431 7.34315 24 9 24C10.6569 24 12 25.3431 12 27ZM9.99998 27C9.99998 27.5523 9.55229 28 9 28C8.44772 28 8 27.5523 8 27C8 26.4477 8.44772 26 9 26C9.55229 26 9.99998 26.4477 9.99998 27Z" fill="#0D0F13"/>
<path d="M18 5C18 5.55228 17.5523 6 17 6H13.5C11.0147 6 9 8.01472 9 10.5C9 12.9853 11.0147 15 13.5 15H18.5C22.0899 15 25 17.9101 25 21.5C25 25.0899 22.0899 28 18.5 28H15C14.4477 28 14 27.5523 14 27C14 26.4477 14.4477 26 15 26H18.5C20.9853 26 23 23.9853 23 21.5C23 19.0147 20.9853 17 18.5 17H13.5C9.91015 17 7 14.0899 7 10.5C7 6.91015 9.91015 4 13.5 4H17C17.5523 4 18 4.44772 18 5Z" fill="#0D0F13"/>
</svg>
