<svg width="32" height="32" viewBox="0 0 32 32" fill="none" xmlns="http://www.w3.org/2000/svg">
<path fill-rule="evenodd" clip-rule="evenodd" d="M28 23.7574V10.4142C28 9.88378 27.7893 9.37507 27.4142 9L23 4.58579C22.6249 4.21071 22.1162 4 21.5858 4H8.24264L12 7.75736V6H20V9H13.2426L15.2426 11H20.5C21.3284 11 22 10.3284 22 9.5V6.41421L26 10.4142V21.7574L28 23.7574ZM6 10.2426V26H10V19.5C10 18.6716 10.6716 18 11.5 18H13.7574L15.7574 20H12V26H20V24.2426L23.7574 28H6C4.89543 28 4 27.1046 4 26V8.24264L6 10.2426Z" fill="#0D0F13"/>
<path fill-rule="evenodd" clip-rule="evenodd" d="M2.29289 2.29289C2.68342 1.90237 3.31658 1.90237 3.70711 2.29289L29.7071 28.2929C30.0976 28.6834 30.0976 29.3166 29.7071 29.7071C29.3166 30.0976 28.6834 30.0976 28.2929 29.7071L2.29289 3.70711C1.90237 3.31658 1.90237 2.68342 2.29289 2.29289Z" fill="#0D0F13"/>
</svg>
