<svg width="32" height="32" viewBox="0 0 32 32" fill="none" xmlns="http://www.w3.org/2000/svg">
<path fill-rule="evenodd" clip-rule="evenodd" d="M12.9415 1.98438C6.89003 1.98438 1.98438 6.89003 1.98438 12.9415C1.98438 18.9929 6.89003 23.8986 12.9415 23.8986C15.6072 23.8986 18.0506 22.9466 19.9502 21.3641L28.2811 29.695C28.6716 30.0855 29.3048 30.0855 29.6953 29.695C30.0858 29.3044 30.0858 28.6713 29.6953 28.2807L21.3644 19.9499C22.9467 18.0503 23.8986 15.607 23.8986 12.9415C23.8986 6.89003 18.9929 1.98438 12.9415 1.98438ZM3.98438 12.9415C3.98438 7.9946 7.9946 3.98438 12.9415 3.98438C17.8883 3.98438 21.8986 7.9946 21.8986 12.9415C21.8986 17.8883 17.8883 21.8986 12.9415 21.8986C7.9946 21.8986 3.98438 17.8883 3.98438 12.9415Z" fill="#0D0F13"/>
</svg>
