<svg width="32" height="32" viewBox="0 0 32 32" fill="none" xmlns="http://www.w3.org/2000/svg">
<path fill-rule="evenodd" clip-rule="evenodd" d="M23.6536 19.4116L26.8969 17.7906C28.3714 17.0537 28.3714 14.9495 26.8969 14.2126L10.0194 5.77734L14.4893 10.2472L26.0028 16.0016L22.1628 17.9208L23.6536 19.4116ZM12.7583 17.0016H8.84605L6.00432 25.9966L16.5051 20.7484L17.9959 22.2392L6.89845 27.7856C5.31831 28.5754 3.56508 27.0786 4.09723 25.3941L7.06454 16.0016L4.89685 9.14011L7.96293 12.2062L8.84605 15.0016H10.7583L12.7583 17.0016Z" fill="#0D0F13"/>
<path fill-rule="evenodd" clip-rule="evenodd" d="M2.00774 2.29289C2.39826 1.90237 3.03143 1.90237 3.42195 2.29289L29.422 28.2929C29.8125 28.6834 29.8125 29.3166 29.422 29.7071C29.0314 30.0976 28.3983 30.0976 28.0077 29.7071L2.00774 3.70711C1.61721 3.31658 1.61721 2.68342 2.00774 2.29289Z" fill="#0D0F13"/>
</svg>
