<svg width="32" height="32" viewBox="0 0 32 32" fill="none" xmlns="http://www.w3.org/2000/svg">
<path fill-rule="evenodd" clip-rule="evenodd" d="M23 4C21.3431 4 20 5.34315 20 7C20 8.65685 21.3431 10 23 10C24.6569 10 26 8.65685 26 7C26 5.34315 24.6569 4 23 4ZM18 7C18 4.23858 20.2386 2 23 2C25.7614 2 28 4.23858 28 7C28 9.76142 25.7614 12 23 12C21.4904 12 20.1371 11.331 19.2204 10.2734L11.761 14.4693C11.9163 14.9526 12 15.4673 12 16C12 16.534 11.9163 17.0484 11.7613 17.5309L19.2204 21.7266C20.1371 20.669 21.4904 20 23 20C25.7614 20 28 22.2386 28 25C28 27.7614 25.7614 30 23 30C20.2386 30 18 27.7614 18 25C18 24.466 18.0837 23.9516 18.2387 23.4691L10.7796 19.2734C9.86286 20.331 8.50955 21 7 21C4.23858 21 2 18.7614 2 16C2 13.2386 4.23858 11 7 11C8.51021 11 9.86408 11.6705 10.7796 12.7266L18.2387 8.53088C18.0837 8.04841 18 7.53398 18 7ZM7 13C5.34315 13 4 14.3431 4 16C4 17.6569 5.34315 19 7 19C8.65685 19 10 17.6569 10 16C10 15.5715 9.91076 15.1665 9.75081 14.8004C9.70583 14.6974 9.65519 14.5974 9.59927 14.5007C9.539 14.3965 9.47259 14.2962 9.40051 14.2003C8.85148 13.4695 7.98071 13 7 13ZM23 22C21.3431 22 20 23.3431 20 25C20 26.6569 21.3431 28 23 28C24.6569 28 26 26.6569 26 25C26 23.3431 24.6569 22 23 22Z" fill="#0D0F13"/>
</svg>
