<svg width="32" height="32" viewBox="0 0 32 32" fill="none" xmlns="http://www.w3.org/2000/svg">
<path fill-rule="evenodd" clip-rule="evenodd" d="M26 21.7574V4C26 2.89543 25.1046 2 24 2H8C7.50949 2 7.06021 2.17658 6.71229 2.46965L8.24264 4H24V19.7574L26 21.7574ZM8 12.2426V28H23.7574L25.2877 29.5304C24.9398 29.8234 24.4905 30 24 30H8C6.89543 30 6 29.1046 6 28V10.2426L8 12.2426ZM15 6C14.4477 6 14 6.44772 14 7C14 7.55228 14.4477 8 15 8H17.0002C17.5525 8 18.0002 7.55228 18.0002 7C18.0002 6.44772 17.5525 6 17.0002 6H15Z" fill="#0D0F13"/>
<path fill-rule="evenodd" clip-rule="evenodd" d="M2.29289 2.29289C2.68342 1.90237 3.31658 1.90237 3.70711 2.29289L29.7071 28.2929C30.0976 28.6834 30.0976 29.3166 29.7071 29.7071C29.3166 30.0976 28.6834 30.0976 28.2929 29.7071L2.29289 3.70711C1.90237 3.31658 1.90237 2.68342 2.29289 2.29289Z" fill="#0D0F13"/>
</svg>
