<svg width="32" height="32" viewBox="0 0 32 32" fill="none" xmlns="http://www.w3.org/2000/svg">
<path fill-rule="evenodd" clip-rule="evenodd" d="M9.58579 4.58369C10.3668 3.80283 11.6332 3.80283 12.4142 4.58369L17.7071 9.87531C18.0976 10.2657 18.0976 10.8987 17.7071 11.2892C17.3166 11.6796 16.6834 11.6796 16.2929 11.2892L12 6.99732V18.9965C12 19.5486 11.5523 19.9962 11 19.9962C10.4477 19.9962 10 19.5486 10 18.9965V6.99732L5.70711 11.2892C5.31658 11.6796 4.68342 11.6796 4.29289 11.2892C3.90237 10.8987 3.90237 10.2657 4.29289 9.87531L9.58579 4.58369ZM21 11.9982C21.5523 11.9982 22 12.4458 22 12.9979V24.9988L26.2929 20.7069C26.6834 20.3165 27.3166 20.3165 27.7071 20.7069C28.0976 21.0973 28.0976 21.7304 27.7071 22.1208L22.4142 27.4124C21.6332 28.1933 20.3668 28.1933 19.5858 27.4124L14.2929 22.1208C13.9024 21.7304 13.9024 21.0973 14.2929 20.7069C14.6834 20.3165 15.3166 20.3165 15.7071 20.7069L20 24.9988V12.9979C20 12.4458 20.4477 11.9982 21 11.9982Z" fill="#0D0F13"/>
</svg>
