<svg width="32" height="32" viewBox="0 0 32 32" fill="none" xmlns="http://www.w3.org/2000/svg">
<path fill-rule="evenodd" clip-rule="evenodd" d="M16.0126 4.00391C9.37119 4.00391 3.9873 9.3878 3.9873 16.0292C3.9873 22.6705 9.37119 28.0544 16.0126 28.0544C22.6539 28.0544 28.0378 22.6705 28.0378 16.0292C28.0378 9.3878 22.6539 4.00391 16.0126 4.00391ZM1.9873 16.0292C1.9873 8.28323 8.26662 2.00391 16.0126 2.00391C23.7585 2.00391 30.0378 8.28323 30.0378 16.0292C30.0378 23.7751 23.7585 30.0544 16.0126 30.0544C8.26662 30.0544 1.9873 23.7751 1.9873 16.0292Z" fill="#0D0F13"/>
<path d="M14.4503 18.5088C14.4503 18.0277 14.5442 17.617 14.7319 17.2768C14.9196 16.9248 15.254 16.5434 15.7351 16.1328L16.5447 15.4464C16.9554 15.0944 17.2428 14.7717 17.4071 14.4784C17.5714 14.1733 17.6535 13.8272 17.6535 13.44V13.2112C17.6535 12.7418 17.5186 12.3722 17.2487 12.1024C16.9906 11.8208 16.6151 11.68 16.1223 11.68C15.1015 11.68 14.5383 12.2901 14.4327 13.5104H12.0039C12.0743 12.4309 12.4439 11.5568 13.1127 10.888C13.7815 10.2192 14.7671 9.88477 16.0695 9.88477C17.3719 9.88477 18.3516 10.2016 19.0087 10.8352C19.6775 11.4688 20.0119 12.3018 20.0119 13.3344C20.0119 14.0618 19.8594 14.6778 19.5543 15.1824C19.2492 15.6869 18.7154 16.2794 17.9527 16.96L17.4071 17.4528C17.1959 17.6522 17.061 17.8693 17.0023 18.104C16.9436 18.3269 16.9143 18.6026 16.9143 18.9312H14.4503V18.5088ZM14.4327 20.2336H16.9495V22.6272H14.4327V20.2336Z" fill="#0D0F13"/>
</svg>
