<svg width="32" height="32" viewBox="0 0 32 32" fill="none" xmlns="http://www.w3.org/2000/svg">
<path fill-rule="evenodd" clip-rule="evenodd" d="M2.99909 15.0016C2.44731 15.0016 2 15.4486 2 16C2 16.5515 2.44731 16.9985 2.99909 16.9985H23.2801L13.9773 26.2955C13.5872 26.6854 13.5872 27.3176 13.9773 27.7076C14.3675 28.0975 15.0001 28.0975 15.3903 27.7076L25.2683 17.8357C26.2828 16.8219 26.2828 15.1781 25.2683 14.1643L15.3903 4.29245C15.0001 3.90252 14.3675 3.90252 13.9773 4.29244C13.5872 4.68237 13.5872 5.31457 13.9773 5.70449L23.2802 15.0016H2.99909ZM29.0011 27.7947C28.4493 27.7947 28.002 27.3476 28.002 26.7962V5.20843C28.002 4.65699 28.4493 4.20996 29.0011 4.20996C29.5529 4.20996 30.0002 4.65699 30.0002 5.20843V26.7962C30.0002 27.3476 29.5529 27.7947 29.0011 27.7947Z" fill="#0D0F13"/>
</svg>
