<svg width="32" height="32" viewBox="0 0 32 32" fill="none" xmlns="http://www.w3.org/2000/svg">
<path fill-rule="evenodd" clip-rule="evenodd" d="M3.70808 2.29289C3.31756 1.90237 2.68439 1.90237 2.29387 2.29289C1.90335 2.68342 1.90335 3.31658 2.29387 3.70711L28.2939 29.7071C28.6844 30.0976 29.3176 30.0976 29.7081 29.7071C30.0986 29.3166 30.0986 28.6834 29.7081 28.2929L3.70808 2.29289ZM30 5.20803V25.7564L28.0018 23.7582V5.20803C28.0018 4.65659 28.4491 4.20955 29.0009 4.20955C29.5527 4.20955 30 4.65659 30 5.20803ZM25.2683 17.8357L23.6733 19.4297L22.2608 18.0172L23.2801 16.9985H21.2421L19.2452 15.0016H23.2802L13.9773 5.7045C13.5872 5.31457 13.5872 4.68237 13.9773 4.29244C14.3675 3.90252 15.0001 3.90252 15.3903 4.29245L25.2683 14.1643C26.2828 15.1781 26.2828 16.8219 25.2683 17.8357ZM13.9773 26.2955L18.0168 22.2585L19.4293 23.671L15.3903 27.7076C15.0001 28.0975 14.3675 28.0975 13.9773 27.7076C13.5872 27.3176 13.5872 26.6854 13.9773 26.2955ZM10.7599 15.0016L12.7568 16.9985H2.99909C2.44731 16.9985 2 16.5515 2 16C2 15.4486 2.44731 15.0016 2.99909 15.0016H10.7599Z" fill="#0D0F13"/>
</svg>
