<svg width="32" height="32" viewBox="0 0 32 32" fill="none" xmlns="http://www.w3.org/2000/svg">
<path d="M16.7495 22.145C17.4825 22.4417 17.9995 23.1603 17.9995 23.9996C17.9995 25.1042 17.1041 25.9996 15.9995 25.9996C14.8949 25.9996 13.9995 25.1042 13.9995 23.9996C13.9995 23.1603 14.5166 22.4417 15.2495 22.145V10.7496C15.2495 10.3354 15.5853 9.99964 15.9995 9.99964C16.4137 9.99964 16.7495 10.3354 16.7495 10.7496V22.145Z" fill="#0D0F13"/>
<path d="M19.9998 19.528C21.2271 20.6265 21.9995 22.223 21.9995 23.9998C21.9995 27.3134 19.3133 29.9996 15.9998 29.9996C12.6862 29.9996 10 27.3134 10 23.9998C10 22.223 10.7724 20.6265 11.9998 19.528V6.06391L12.0027 6.06385C12.0024 6.04237 12.0022 6.02082 12.0022 5.99927C12.0022 5.97766 12.0024 5.95618 12.0027 5.93463C12.0372 3.75586 13.8135 2.00024 15.9998 2.00024C18.186 2.00024 19.9623 3.75586 19.9968 5.93469C19.9971 5.95617 19.9973 5.97766 19.9973 5.99927C19.9973 6.02082 19.9971 6.04236 19.9968 6.06385H19.9998V19.528ZM15.9998 27.9996C18.2088 27.9996 19.9995 26.2088 19.9995 23.9998C19.9995 22.8155 19.4873 21.7534 18.6659 21.0182C18.242 20.6388 17.9998 20.0968 17.9998 19.528V8.06385L17.9971 6.03223L17.9973 5.99927C17.9973 4.89453 17.1023 4.00025 15.9998 4.00025C14.8972 4.00025 14.0022 4.89454 14.0022 5.99927L14.0025 6.03217L13.9998 8.06385V19.528C13.9998 20.0968 13.7575 20.6388 13.3336 21.0182C12.5122 21.7534 12 22.8155 12 23.9998C12 26.2088 13.7908 27.9996 15.9998 27.9996Z" fill="#0D0F13"/>
</svg>
