<svg width="32" height="32" viewBox="0 0 32 32" fill="none" xmlns="http://www.w3.org/2000/svg">
<path fill-rule="evenodd" clip-rule="evenodd" d="M19.9998 15.7571V6.0646H19.9968C19.9971 6.04311 19.9973 6.02158 19.9973 6C19.9973 5.97843 19.9971 5.9569 19.9968 5.93541C19.9623 3.7566 18.186 2.00098 15.9998 2.00098C13.8135 2.00098 12.0372 3.75659 12.0027 5.93539C12.0024 5.95689 12.0022 5.97842 12.0022 6C12.0022 6.02157 12.0024 6.04311 12.0027 6.0646L11.9998 6.06465V7.75711L13.9998 9.75711V8.0646L14.0025 6.03293L14.0022 6C14.0022 4.89528 14.8972 4.00098 15.9998 4.00098C17.1023 4.00098 17.9973 4.89528 17.9973 6L17.9971 6.03295L17.9998 8.0646V13.7571L19.9998 15.7571ZM16.7495 12.5069V10.7504C16.7495 10.3362 16.4137 10.0004 15.9995 10.0004C15.5853 10.0004 15.2495 10.3362 15.2495 10.7504V11.0069L16.7495 12.5069ZM15.2495 19.4922L16.7495 20.9922V22.1458C17.4825 22.4424 17.9995 23.161 17.9995 24.0004C17.9995 25.1049 17.1041 26.0004 15.9995 26.0004C14.8949 26.0004 13.9995 25.1049 13.9995 24.0004C13.9995 23.161 14.5166 22.4424 15.2495 22.1458V19.4922ZM13.9998 18.2424V19.5287C13.9998 20.0976 13.7575 20.6396 13.3336 21.019C12.5122 21.7542 12 22.8163 12 24.0006C12 26.2096 13.7908 28.0004 15.9998 28.0004C18.13 28.0004 19.8712 26.3351 19.9927 24.2354L21.6838 25.9264C20.8814 28.2953 18.6397 30.0004 15.9998 30.0004C12.6862 30.0004 10 27.3142 10 24.0006C10 22.2238 10.7724 20.6273 11.9998 19.5287V16.2424L13.9998 18.2424Z" fill="#0D0F13"/>
<path fill-rule="evenodd" clip-rule="evenodd" d="M2.29289 2.29289C2.68342 1.90237 3.31658 1.90237 3.70711 2.29289L29.7071 28.2929C30.0976 28.6834 30.0976 29.3166 29.7071 29.7071C29.3166 30.0976 28.6834 30.0976 28.2929 29.7071L2.29289 3.70711C1.90237 3.31658 1.90237 2.68342 2.29289 2.29289Z" fill="#0D0F13"/>
</svg>
