<svg width="32" height="32" viewBox="0 0 32 32" fill="none" xmlns="http://www.w3.org/2000/svg">
<path fill-rule="evenodd" clip-rule="evenodd" d="M13.3336 21.0182C13.7575 20.6388 13.9998 20.0968 13.9998 19.528V8.06386L14.0025 6.03219L14.0022 5.99926C14.0022 4.89454 14.8972 4.00024 15.9998 4.00024C17.1023 4.00024 17.9973 4.89454 17.9973 5.99926L17.9971 6.03221L17.9998 8.06386V8.06656V19.528C17.9998 20.0968 18.242 20.6388 18.6659 21.0182C19.4873 21.7534 19.9995 22.8155 19.9995 23.9998C19.9995 26.2088 18.2088 27.9996 15.9998 27.9996C13.7908 27.9996 12 26.2088 12 23.9998C12 22.8155 12.5122 21.7534 13.3336 21.0182ZM12.0027 6.06386L11.9998 6.06391V19.528C10.7724 20.6265 10 22.223 10 23.9998C10 27.3134 12.6862 29.9996 15.9998 29.9996C19.3133 29.9996 21.9995 27.3134 21.9995 23.9998C21.9995 22.223 21.2271 20.6265 19.9998 19.528V6.06386H19.9968C19.9971 6.04237 19.9973 6.02084 19.9973 5.99926C19.9973 5.97769 19.9971 5.95616 19.9968 5.93467C19.9623 3.75586 18.186 2.00024 15.9998 2.00024C13.8135 2.00024 12.0372 3.75585 12.0027 5.93465C12.0024 5.95615 12.0022 5.97769 12.0022 5.99926C12.0022 6.02084 12.0024 6.04237 12.0027 6.06386ZM15.2495 10.7496C15.2495 10.3354 15.5853 9.99964 15.9995 9.99964C16.4137 9.99964 16.7495 10.3354 16.7495 10.7496V22.145C17.4825 22.4417 17.9995 23.1603 17.9995 23.9996C17.9995 25.1042 17.1041 25.9996 15.9995 25.9996C14.8949 25.9996 13.9995 25.1042 13.9995 23.9996C13.9995 23.1603 14.5166 22.4417 15.2495 22.145V10.7496Z" fill="#0D0F13"/>
</svg>
