<svg width="32" height="32" viewBox="0 0 32 32" fill="none" xmlns="http://www.w3.org/2000/svg">
<path d="M26.0254 21.7574V4C26.0254 2.89543 25.13 2 24.0254 2H8.02539C7.53488 2 7.08561 2.17658 6.73768 2.46965L8.26803 4H24.0254V19.7574L26.0254 21.7574Z" fill="#0D0F13"/>
<path d="M21.3087 17.0407C21.6332 17.1364 21.889 17.3922 21.9847 17.7166L21.3087 17.0407Z" fill="#0D0F13"/>
<path d="M14.7827 19L12.7827 17H11.0254C10.4731 17 10.0254 17.4477 10.0254 18C10.0254 18.5523 10.4731 19 11.0254 19H14.7827Z" fill="#0D0F13"/>
<path d="M19.268 15H21.0254C21.5777 15 22.0254 14.5523 22.0254 14C22.0254 13.4477 21.5777 13 21.0254 13H17.268L19.268 15Z" fill="#0D0F13"/>
<path d="M10.742 14.9593L10.0661 14.2834C10.1618 14.6078 10.4176 14.8636 10.742 14.9593Z" fill="#0D0F13"/>
<path d="M8.02539 12.2426V28H23.7827L25.3131 29.5304C24.9652 29.8234 24.5159 30 24.0254 30H8.02539C6.92082 30 6.02539 29.1046 6.02539 28V10.2426L8.02539 12.2426Z" fill="#0D0F13"/>
<path d="M16.0254 11H15.268L13.268 9H16.0254C16.5777 9 17.0254 9.44772 17.0254 10C17.0254 10.5523 16.5777 11 16.0254 11Z" fill="#0D0F13"/>
<path d="M11.0254 21C10.4731 21 10.0254 21.4477 10.0254 22C10.0254 22.5523 10.4731 23 11.0254 23H15.0254C15.5777 23 16.0254 22.5523 16.0254 22C16.0254 21.4477 15.5777 21 15.0254 21H11.0254Z" fill="#0D0F13"/>
<path d="M19.0254 10C19.0254 9.44772 19.4731 9 20.0254 9H21.0254C21.5777 9 22.0254 9.44772 22.0254 10C22.0254 10.5523 21.5777 11 21.0254 11H20.0254C19.4731 11 19.0254 10.5523 19.0254 10Z" fill="#0D0F13"/>
<path d="M3.7325 2.29289C3.34197 1.90237 2.70881 1.90237 2.31828 2.29289C1.92776 2.68342 1.92776 3.31658 2.31828 3.70711L28.3183 29.7071C28.7088 30.0976 29.342 30.0976 29.7325 29.7071C30.123 29.3166 30.123 28.6834 29.7325 28.2929L3.7325 2.29289Z" fill="#0D0F13"/>
</svg>
