<svg width="32" height="32" viewBox="0 0 32 32" fill="none" xmlns="http://www.w3.org/2000/svg">
<path fill-rule="evenodd" clip-rule="evenodd" d="M10 10C10 9.44772 10.4477 9 11 9H16C16.5523 9 17 9.44772 17 10C17 10.5523 16.5523 11 16 11H11C10.4477 11 10 10.5523 10 10ZM19 10C19 9.44772 19.4477 9 20 9H21C21.5523 9 22 9.44772 22 10C22 10.5523 21.5523 11 21 11H20C19.4477 11 19 10.5523 19 10ZM10 14C10 13.4477 10.4477 13 11 13H21C21.5523 13 22 13.4477 22 14C22 14.5523 21.5523 15 21 15H11C10.4477 15 10 14.5523 10 14ZM10 18C10 17.4477 10.4477 17 11 17H21C21.5523 17 22 17.4477 22 18C22 18.5523 21.5523 19 21 19H11C10.4477 19 10 18.5523 10 18ZM10 22C10 21.4477 10.4477 21 11 21H15C15.5523 21 16 21.4477 16 22C16 22.5523 15.5523 23 15 23H11C10.4477 23 10 22.5523 10 22Z" fill="#0D0F13"/>
<path fill-rule="evenodd" clip-rule="evenodd" d="M24 4H8V28H24V4ZM8 2C6.89543 2 6 2.89543 6 4V28C6 29.1046 6.89543 30 8 30H24C25.1046 30 26 29.1046 26 28V4C26 2.89543 25.1046 2 24 2H8Z" fill="#0D0F13"/>
</svg>
