<svg width="32" height="32" viewBox="0 0 32 32" fill="none" xmlns="http://www.w3.org/2000/svg">
<path fill-rule="evenodd" clip-rule="evenodd" d="M27.744 8.47975C28.1357 8.86907 28.1377 9.50223 27.7484 9.89395C24.2536 13.4103 21.4582 16.2027 19.0958 18.5593C18.6666 18.9875 18.2517 19.4012 17.8495 19.8023C16.038 21.6088 14.4853 23.1571 13.0433 24.6074C12.8558 24.7959 12.6011 24.902 12.3353 24.9024C12.0695 24.9027 11.8145 24.7971 11.6266 24.6091L4.27224 17.2465C3.88193 16.8558 3.88228 16.2226 4.27302 15.8323C4.66376 15.442 5.29693 15.4424 5.68723 15.8331L12.333 22.4862C13.5786 21.2368 14.9188 19.9004 16.4386 18.3848C16.8404 17.9841 17.2548 17.5708 17.6834 17.1433C20.0448 14.7878 22.8379 11.9976 26.3298 8.4841C26.7191 8.09238 27.3523 8.09043 27.744 8.47975Z" fill="#0D0F13"/>
</svg>
