<svg width="32" height="32" viewBox="0 0 32 32" fill="none" xmlns="http://www.w3.org/2000/svg">
<path fill-rule="evenodd" clip-rule="evenodd" d="M21.7071 13.7071C22.0976 13.3166 22.0976 12.6834 21.7071 12.2929C21.3165 11.9024 20.6834 11.9024 20.2929 12.293L17.2934 15.2927C16.9018 15.1052 16.4631 15.0003 16 15.0003C14.3431 15.0003 13 16.3434 13 18.0003C13 19.6572 14.3431 21.0003 16 21.0003C17.6569 21.0003 19 19.6572 19 18.0003C19 17.5371 18.895 17.0985 18.7076 16.7069L21.7071 13.7071ZM15 18.0003C15 17.448 15.4477 17.0003 16 17.0003C16.5523 17.0003 17 17.448 17 18.0003C17 18.5526 16.5523 19.0003 16 19.0003C15.4477 19.0003 15 18.5526 15 18.0003Z" fill="#0D0F13"/>
<path fill-rule="evenodd" clip-rule="evenodd" d="M12 3C12 2.44772 12.4477 2 13 2H19C19.5523 2 20 2.44772 20 3C20 3.55228 19.5523 4 19 4H17V6.04107C23.1595 6.54922 28 11.7093 28 18C28 24.6274 22.6274 30 16 30C9.37258 30 4 24.6274 4 18C4 11.7093 8.84047 6.54922 15 6.04107V4H13C12.4477 4 12 3.55228 12 3ZM15.9968 8C10.4754 8.00174 6 12.4782 6 18C6 23.5228 10.4772 28 16 28C21.5228 28 26 23.5228 26 18C26 12.4781 21.5244 8.00152 16.0028 8H15.9968Z" fill="#0D0F13"/>
</svg>
