<svg width="32" height="32" viewBox="0 0 32 32" fill="none" xmlns="http://www.w3.org/2000/svg">
<path fill-rule="evenodd" clip-rule="evenodd" d="M23.1072 5.43988C23.1707 5.76606 23.0679 6.1025 22.833 6.33749L17.8877 11.2828C17.1067 12.0638 17.1066 13.3304 17.8881 14.1119C18.6696 14.8934 19.9362 14.8933 20.7172 14.1123L25.6625 9.16705C25.8975 8.93206 26.2339 8.82929 26.5601 8.89284C26.8863 8.95639 27.1596 9.17796 27.2891 9.48398C28.6744 12.7555 28.0358 16.6831 25.3668 19.3521C22.8698 21.8491 19.2711 22.5689 16.1387 21.5169L10.8266 26.829C9.26497 28.3907 6.73306 28.3902 5.17145 26.8286C3.60984 25.2669 3.60935 22.735 5.17099 21.1734L10.4831 15.8613C9.43107 12.7289 10.1509 9.13017 12.6479 6.63317C15.3169 3.96421 19.2445 3.32559 22.516 4.71087C22.822 4.84045 23.0436 5.11369 23.1072 5.43988ZM20.2377 6.10669C18.0621 5.71954 15.7401 6.36712 14.061 8.04623C11.9873 10.1199 11.4869 13.1741 12.5658 15.7221C12.7245 16.0969 12.6401 16.5304 12.3523 16.8182L6.58404 22.5865C5.8031 23.3674 5.80302 24.634 6.58451 25.4155C7.366 26.197 8.63261 26.1969 9.41354 25.416L15.1818 19.6477C15.4696 19.3599 15.9031 19.2755 16.2779 19.4342C18.8259 20.5131 21.8801 20.0127 23.9538 17.939C25.6329 16.2599 26.2805 13.9379 25.8933 11.7623L22.1302 15.5254C20.5686 17.087 18.0367 17.0866 16.4751 15.5249C14.9134 13.9633 14.913 11.4314 16.4746 9.8698L20.2377 6.10669Z" fill="#0D0F13"/>
</svg>
