<svg width="32" height="32" viewBox="0 0 32 32" fill="none" xmlns="http://www.w3.org/2000/svg">
<path fill-rule="evenodd" clip-rule="evenodd" d="M8 6C6.89543 6 6 6.89543 6 8V15H3C2.44772 15 2 15.4477 2 16C2 16.5523 2.44772 17 3 17H28C29.1046 17 30 16.1046 30 15V8C30 6.89543 29.1046 6 28 6H8ZM28 15V8H8V15H28Z" fill="#0D0F13"/>
<path fill-rule="evenodd" clip-rule="evenodd" d="M6 22.5C6 20.567 7.567 19 9.5 19C11.433 19 13 20.567 13 22.5C13 24.433 11.433 26 9.5 26C7.567 26 6 24.433 6 22.5ZM9.5 21C8.67157 21 8 21.6716 8 22.5C8 23.3284 8.67157 24 9.5 24C10.3284 24 11 23.3284 11 22.5C11 21.6716 10.3284 21 9.5 21Z" fill="#0D0F13"/>
<path fill-rule="evenodd" clip-rule="evenodd" d="M23 22.5C23 20.567 24.567 19 26.5 19C28.433 19 30 20.567 30 22.5C30 24.433 28.433 26 26.5 26C24.567 26 23 24.433 23 22.5ZM26.5 21C25.6716 21 25 21.6716 25 22.5C25 23.3284 25.6716 24 26.5 24C27.3284 24 28 23.3284 28 22.5C28 21.6716 27.3284 21 26.5 21Z" fill="#0D0F13"/>
</svg>
