<svg width="32" height="32" viewBox="0 0 32 32" fill="none" xmlns="http://www.w3.org/2000/svg">
<path fill-rule="evenodd" clip-rule="evenodd" d="M3.7071 2.29293L29.7071 28.2929C30.0976 28.6834 30.0976 29.3166 29.7071 29.7071C29.3166 30.0976 28.6834 30.0976 28.2929 29.7071L2.29292 3.70711C1.90236 3.31661 1.90236 2.68343 2.29292 2.29293C2.68342 1.90236 3.3166 1.90236 3.7071 2.29293Z" fill="#0D0F13"/>
<path fill-rule="evenodd" clip-rule="evenodd" d="M28 6.00002C29.1046 6.00002 30 6.89547 30 8.00002V15C30 16.1046 29.1046 17 28 17H21.2426L19.2426 15H28V8.00002H12.2426L10.2426 6.00002H28Z" fill="#0D0F13"/>
<path fill-rule="evenodd" clip-rule="evenodd" d="M10.7574 15L12.7574 17H3.00001C2.4477 17 2.00001 16.5523 2.00001 16C2.00001 15.4477 2.4477 15 3.00001 15H6.00001V10.2426L8.00001 12.2426V15H10.7574Z" fill="#0D0F13"/>
<path fill-rule="evenodd" clip-rule="evenodd" d="M26.5 19C28.433 19 30 20.567 30 22.5C30 23.4048 29.6567 24.2294 29.0932 24.8506L27.6751 23.4324C27.8785 23.1764 28 22.8524 28 22.5C28 21.6716 27.3284 21 26.5 21C26.1476 21 25.8236 21.1215 25.5676 21.3249L24.1494 19.9068C24.7706 19.3433 25.5952 19 26.5 19Z" fill="#0D0F13"/>
<path fill-rule="evenodd" clip-rule="evenodd" d="M9.50001 19C11.433 19 13 20.567 13 22.5C13 24.433 11.433 26 9.50001 26C7.56703 26 6.00001 24.433 6.00001 22.5C6.00001 20.567 7.56703 19 9.50001 19ZM9.50001 24C10.3284 24 11 23.3284 11 22.5C11 21.6716 10.3284 21 9.50001 21C8.67158 21 8.00001 21.6716 8.00001 22.5C8.00001 23.3284 8.67158 24 9.50001 24Z" fill="#0D0F13"/>
</svg>
