<svg width="32" height="32" viewBox="0 0 32 32" fill="none" xmlns="http://www.w3.org/2000/svg">
<path d="M3.70711 2.29289C3.31658 1.90237 2.68342 1.90237 2.29289 2.29289C1.90237 2.68342 1.90237 3.31658 2.29289 3.70711L28.2929 29.7071C28.6834 30.0976 29.3166 30.0976 29.7071 29.7071C30.0976 29.3166 30.0976 28.6834 29.7071 28.2929L3.70711 2.29289Z" fill="#0D0F13"/>
<path d="M30 15C30 16.1046 29.1046 17 28 17H21.2426L19.2426 15H28V8H12.2426L10.2426 6H28C29.1046 6 30 6.89543 30 8V15Z" fill="#0D0F13"/>
<path d="M12.7574 17L10.7574 15H8V12.2426L6 10.2426V15H3C2.44772 15 2 15.4477 2 16C2 16.5523 2.44772 17 3 17H12.7574Z" fill="#0D0F13"/>
<path d="M29.0932 24.8506C29.6567 24.2294 30 23.4048 30 22.5C30 20.567 28.433 19 26.5 19C25.5952 19 24.7706 19.3433 24.1494 19.9068L25.5676 21.3249C25.8236 21.1215 26.1476 21 26.5 21C27.3284 21 28 21.6716 28 22.5C28 22.8524 27.8785 23.1764 27.6751 23.4324L29.0932 24.8506Z" fill="#0D0F13"/>
<path fill-rule="evenodd" clip-rule="evenodd" d="M9.5 19C7.567 19 6 20.567 6 22.5C6 24.433 7.567 26 9.5 26C11.433 26 13 24.433 13 22.5C13 20.567 11.433 19 9.5 19ZM8 22.5C8 21.6716 8.67157 21 9.5 21C10.3284 21 11 21.6716 11 22.5C11 23.3284 10.3284 24 9.5 24C8.67157 24 8 23.3284 8 22.5Z" fill="#0D0F13"/>
</svg>
