<svg width="32" height="32" viewBox="0 0 32 32" fill="none" xmlns="http://www.w3.org/2000/svg">
<path fill-rule="evenodd" clip-rule="evenodd" d="M21.0166 4.64056L21.0137 6.04654H29.0194C29.5717 6.04654 30.0194 6.49425 30.0194 7.04654C30.0194 7.59882 29.5717 8.04654 29.0194 8.04654L27.793 8.04653L24.2382 25.8687C23.9957 27.0846 22.9283 27.9601 21.6885 27.9601H10.317C9.07184 27.9601 8.00149 27.0773 7.76451 25.8549L4.29966 7.98272L2.97656 7.98271C2.42428 7.98271 1.97656 7.535 1.97656 6.98271C1.97656 6.43043 2.42428 5.98271 2.97656 5.98271L10.9661 5.98272L10.9689 4.62967C10.9719 3.19587 12.1351 2.03516 13.5689 2.03516H18.4166C19.8547 2.03516 21.0196 3.20251 21.0166 4.64056ZM13.5689 4.03516H18.4166C18.7485 4.03516 19.0173 4.30455 19.0166 4.6364L19.0137 6.03859L12.966 5.99063L12.9689 4.63389C12.9696 4.30301 13.238 4.03516 13.5689 4.03516ZM6.33689 7.98272L9.72795 25.4743C9.78264 25.7564 10.0296 25.9601 10.317 25.9601H21.6885C21.9746 25.9601 22.2209 25.7581 22.2769 25.4775L25.7536 8.04652L20.0037 8.0465L11.9599 7.98272L6.33689 7.98272Z" fill="#0D0F13"/>
</svg>
