<svg width="32" height="32" viewBox="0 0 32 32" fill="none" xmlns="http://www.w3.org/2000/svg">
<path fill-rule="evenodd" clip-rule="evenodd" d="M25.436 21.1933L27.8347 8H29C29.5523 8 30 7.55228 30 7C30 6.44772 29.5523 6 29 6H27.0181C27.0054 5.99976 26.9926 5.99976 26.9799 6H21V4C21 2.89543 20.1046 2 19 2H13C11.8954 2 11 2.89543 11 4V6H10.2426L12.2426 8H25.802L23.7159 19.4733L25.436 21.1933ZM19 6H13V4H19V6Z" fill="#0D0F13"/>
<path d="M6.74087 10.9826L9.83478 27.9991H22.1656L22.4105 26.6522L24.1305 28.3722C23.9515 29.3153 23.127 29.9991 22.1656 29.9991H9.83478C8.86821 29.9991 8.03995 29.3078 7.86704 28.3569L4.25635 8.49805L6.74087 10.9826Z" fill="#0D0F13"/>
<path d="M3.75736 7.99919L2.182 6.42383C2.06734 6.58654 2 6.785 2 6.99919C2 7.55147 2.44772 7.99919 3 7.99919H3.75736Z" fill="#0D0F13"/>
<path fill-rule="evenodd" clip-rule="evenodd" d="M2.29289 2.29289C2.68342 1.90237 3.31658 1.90237 3.70711 2.29289L29.7071 28.2929C30.0976 28.6834 30.0976 29.3166 29.7071 29.7071C29.3166 30.0976 28.6834 30.0976 28.2929 29.7071L2.29289 3.70711C1.90237 3.31658 1.90237 2.68342 2.29289 2.29289Z" fill="#0D0F13"/>
</svg>
