<svg width="32" height="32" viewBox="0 0 32 32" fill="none" xmlns="http://www.w3.org/2000/svg">
<path fill-rule="evenodd" clip-rule="evenodd" d="M24 19.7574L26 21.7574V16.082L28.2631 15.4648C28.6982 15.3461 29 14.951 29 14.5V9C29 8.44772 28.5523 8 28 8H26V5C26 4.62123 25.786 4.27496 25.4472 4.10557C22.2642 2.51407 18.2709 2 16 2C14.1707 2 10.7553 2.39179 7.79675 3.55414L9.35804 5.11543C11.8083 4.30156 14.4996 4 16 4C17.9436 4 21.2722 4.42549 24 5.63424V8H12.2426L14.2426 10H24V14.5544L22.2369 15.0352C21.8817 15.1321 21.6084 15.4164 21.5256 15.7751L21.2429 17.0002L22.9106 18.668L23.3399 16.8074L24 16.6274V19.7574ZM27 13.7362L26 14.0089V10H27V13.7362Z" fill="#0D0F13"/>
<path d="M8.66005 16.8073L8 16.6273V28.0001H9.38197L10.1056 26.5529C10.275 26.2141 10.6212 26.0001 11 26.0001H21C21.3788 26.0001 21.725 26.2141 21.8944 26.5529L22.618 28.0001H23.7574L25.5754 29.8181C25.4126 29.9328 25.2142 30.0001 25 30.0001H22C21.6212 30.0001 21.275 29.7861 21.1056 29.4473L20.382 28.0001H11.618L10.8944 29.4473C10.725 29.7861 10.3788 30.0001 10 30.0001H7C6.44772 30.0001 6 29.5524 6 29.0001V16.0819L3.73688 15.4647C3.30182 15.346 3 14.9509 3 14.4999V8.99995C3 8.52277 3.33422 8.12366 3.78134 8.02393L5.75736 9.99995H5V13.7361L6 14.0088V10.2427L8 12.2427V14.5543L9.76312 15.0351C10.1183 15.132 10.3916 15.4163 10.4744 15.775L11.8259 21.6317C12.8311 21.7951 14.4741 21.9999 16 21.9999C16.559 21.9999 17.1337 21.9724 17.687 21.9296L19.5072 23.7498C18.4879 23.8824 17.2186 23.9999 16 23.9999C13.9133 23.9999 11.6774 23.6552 10.8039 23.4805C10.4185 23.4034 10.114 23.1077 10.0256 22.7248L8.66005 16.8073Z" fill="#0D0F13"/>
<path d="M3.70711 2.29289C3.31658 1.90237 2.68342 1.90237 2.29289 2.29289C1.90237 2.68342 1.90237 3.31658 2.29289 3.70711L28.2929 29.7071C28.6834 30.0976 29.3166 30.0976 29.7071 29.7071C30.0976 29.3166 30.0976 28.6834 29.7071 28.2929L3.70711 2.29289Z" fill="#0D0F13"/>
</svg>
