<svg width="32" height="32" viewBox="0 0 32 32" fill="none" xmlns="http://www.w3.org/2000/svg">
<path d="M16 4.00001C14.4995 4.00001 11.8083 4.30158 9.358 5.11543L7.79671 3.55415C10.7553 2.39179 14.1707 2.00001 16 2.00001C18.2708 2.00001 22.2642 2.51411 25.4472 4.1056C25.786 4.27497 26 4.62123 26 5.00001V8.00001H28C28.5523 8.00001 29 8.4477 29 9.00001V14.5C29 14.951 28.6981 15.3461 28.2631 15.4648L26 16.082V21.7574L24 19.7574V16.6274L23.3399 16.8074L22.9105 18.668L21.2429 17.0002L21.5255 15.7751C21.6084 15.4164 21.8817 15.1321 22.2368 15.0352L24 14.5544V10H14.2426L12.2426 8.00001H24V5.63423C21.2722 4.42549 17.9436 4.00001 16 4.00001ZM26 10V14.0089L27 13.7362V10H26Z" fill="#0D0F13"/>
<path d="M22.6179 28.0001H23.7573L25.5753 29.8181C25.4126 29.9328 25.2141 30.0001 25 30.0001H22C21.6212 30.0001 21.275 29.7861 21.1056 29.4473L20.382 28.0001H11.6179L10.8944 29.4473C10.7249 29.7861 10.3788 30.0001 9.99997 30.0001H6.99997C6.44772 30.0001 5.99996 29.5524 5.99996 29.0001V16.0819L3.73685 15.4647C3.30179 15.346 2.99996 14.9509 2.99996 14.4999V8.99995C2.99996 8.52278 3.33419 8.12367 3.78133 8.02394L5.75734 9.99995H4.99996V13.7361L5.99996 14.0088V10.2427L7.99997 12.2427V14.5544L9.76308 15.0351C10.1182 15.132 10.3916 15.4164 10.4744 15.7751L11.8259 21.6317C12.8311 21.7951 14.4741 21.9999 16 21.9999C16.559 21.9999 17.1337 21.9724 17.687 21.9296L19.5072 23.7498C18.4879 23.8824 17.2186 23.9999 16 23.9999C13.9133 23.9999 11.6774 23.6552 10.8039 23.4805C10.4185 23.4034 10.114 23.1077 10.0255 22.7248L8.66007 16.8073L7.99997 16.6273V28.0001H9.38199L10.1056 26.5529C10.275 26.2141 10.6212 26.0001 11 26.0001H21C21.3787 26.0001 21.7249 26.2141 21.8944 26.5529L22.6179 28.0001Z" fill="#0D0F13"/>
<path d="M29.7071 28.2929C30.0976 28.6834 30.0976 29.3166 29.7071 29.7071C29.3166 30.0976 28.6834 30.0976 28.2929 29.7071L2.29287 3.7071C1.90237 3.3166 1.90237 2.68342 2.29287 2.29292C2.68338 1.90236 3.31655 1.90236 3.70712 2.29292L29.7071 28.2929Z" fill="#0D0F13"/>
</svg>
