<svg width="32" height="32" viewBox="0 0 32 32" fill="none" xmlns="http://www.w3.org/2000/svg">
<path fill-rule="evenodd" clip-rule="evenodd" d="M8 5.63513V8H24V5.63424C21.2722 4.42549 17.9436 4 16 4C14.2151 4 10.7447 4.42677 8 5.63513ZM26 8V5C26 4.62123 25.786 4.27496 25.4472 4.10557C22.2642 2.51407 18.2709 2 16 2C13.9071 2 9.73835 2.51279 6.55279 4.10557C6.214 4.27496 6 4.62123 6 5V8H4C3.44772 8 3 8.44772 3 9V14.5C3 14.951 3.30182 15.3461 3.73688 15.4648L6 16.082V29C6 29.5523 6.44772 30 7 30H10C10.3788 30 10.725 29.786 10.8944 29.4472L11.618 28H20.382L21.1056 29.4472C21.275 29.786 21.6212 30 22 30H25C25.5523 30 26 29.5523 26 29V16.082L28.2631 15.4648C28.6982 15.3461 29 14.951 29 14.5V9C29 8.44772 28.5523 8 28 8H26ZM24 10H8V14.5544L9.76312 15.0352C10.1183 15.1321 10.3916 15.4164 10.4744 15.7751L11.8259 21.6318C12.8311 21.7952 14.4741 22 16 22C17.5259 22 19.1689 21.7952 20.1741 21.6318L21.5256 15.7751C21.6084 15.4164 21.8817 15.1321 22.2369 15.0352L24 14.5544V10ZM26 14.0089V10H27V13.7362L26 14.0089ZM24 16.6274L23.3399 16.8074L21.9744 22.7249C21.886 23.1078 21.5815 23.4035 21.1961 23.4806C20.3226 23.6553 18.0867 24 16 24C13.9133 24 11.6774 23.6553 10.8039 23.4806C10.4185 23.4035 10.114 23.1078 10.0256 22.7249L8.66005 16.8074L8 16.6274V28H9.38197L10.1056 26.5528C10.275 26.214 10.6212 26 11 26H21C21.3788 26 21.725 26.214 21.8944 26.5528L22.618 28H24V16.6274ZM6 14.0089V10H5V13.7362L6 14.0089Z" fill="#0D0F13"/>
</svg>
