<svg width="32" height="32" viewBox="0 0 32 32" fill="none" xmlns="http://www.w3.org/2000/svg">
<path d="M29.7071 28.2929C30.0976 28.6834 30.0976 29.3166 29.7071 29.7071C29.3166 30.0976 28.6834 30.0976 28.2929 29.7071L2.29292 3.7071C1.90236 3.3166 1.90236 2.68342 2.29292 2.29292C2.68342 1.90236 3.3166 1.90236 3.7071 2.29292L29.7071 28.2929Z" fill="#0D0F13"/>
<path d="M17.8603 5.15858C15.38 4.73286 12.8311 5.17085 10.6379 6.39521L9.17689 4.93427C9.25807 4.88422 9.33979 4.83503 9.42219 4.78669C12.0675 3.23512 15.1761 2.66865 18.1986 3.18739C21.2212 3.70613 23.9631 5.27668 25.9396 7.62147C27.9162 9.96632 29.0002 12.9344 29 16.0011C28.9999 18.4228 28.3237 20.783 27.0658 22.8232L25.6048 21.3622C26.514 19.7334 26.9999 17.8893 27 16.001C27.0001 13.406 26.0829 10.8946 24.4104 8.91053C22.7379 6.9264 20.4179 5.59748 17.8603 5.15858Z" fill="#0D0F13"/>
<path d="M4.64961 12.9994H4.00001C3.4477 12.9994 3.00001 12.5517 3.00001 11.9994V7.24262L6.39497 10.6376C6.32838 10.7569 6.26399 10.8775 6.20173 10.9994H6.75678L8.75678 12.9994H4.72187C4.69789 13.0003 4.67378 13.0003 4.64961 12.9994Z" fill="#0D0F13"/>
<path d="M17.8592 26.8425C19.0982 26.63 20.2814 26.2086 21.3624 25.605L22.8233 27.066C21.4179 27.9326 19.8495 28.5303 18.1973 28.8137C15.1747 29.3321 12.0661 28.7653 9.42096 27.2134C6.77588 25.6615 4.76453 23.2245 3.74249 20.3331C3.55841 19.8123 3.83136 19.241 4.35205 19.057C4.87274 18.8729 5.44409 19.1458 5.62817 19.6665C6.49298 22.1131 8.19488 24.1752 10.433 25.4884C12.6712 26.8015 15.3016 27.2811 17.8592 26.8425Z" fill="#0D0F13"/>
</svg>
