<svg width="22" height="33" viewBox="0 0 22 33" fill="none" xmlns="http://www.w3.org/2000/svg">
<path fill-rule="evenodd" clip-rule="evenodd" d="M18.1245 16.5C16.4784 18.629 13.8993 20 11 20C8.10067 20 5.52155 18.629 3.87555 16.5C5.52155 14.371 8.10067 13 11 13C13.8993 13 16.4784 14.371 18.1245 16.5ZM19.2141 14.6835C17.1995 12.4233 14.266 11 11 11C7.73404 11 4.80051 12.4233 2.78588 14.6835C2.28091 13.5592 2 12.3124 2 11C2 6.02944 6.02944 2 11 2C15.9706 2 20 6.02944 20 11C20 12.3124 19.7191 13.5592 19.2141 14.6835ZM20.5284 16.5C21.4643 14.882 22 13.0036 22 11C22 4.92487 17.0751 0 11 0C4.92487 0 0 4.92487 0 11C0 13.0036 0.535669 14.882 1.47161 16.5C0.535669 18.118 0 19.9964 0 22C0 28.0751 4.92487 33 11 33C17.0751 33 22 28.0751 22 22C22 19.9964 21.4643 18.118 20.5284 16.5ZM19.2141 18.3165C17.1995 20.5767 14.266 22 11 22C7.73404 22 4.80051 20.5767 2.78588 18.3165C2.28091 19.4408 2 20.6876 2 22C2 26.9706 6.02944 31 11 31C15.9706 31 20 26.9706 20 22C20 20.6876 19.7191 19.4408 19.2141 18.3165Z" fill="black"/>
</svg>
