<svg width="32" height="32" viewBox="0 0 32 32" fill="none" xmlns="http://www.w3.org/2000/svg">
<path d="M4.2325 2.29289C3.84197 1.90237 3.20881 1.90237 2.81828 2.29289C2.42776 2.68342 2.42776 3.31658 2.81828 3.70711L28.8183 29.7071C29.2088 30.0976 29.842 30.0976 30.2325 29.7071C30.623 29.3166 30.623 28.6834 30.2325 28.2929L4.2325 2.29289Z" fill="#0D0F13"/>
<path fill-rule="evenodd" clip-rule="evenodd" d="M28.5254 21.4323C28.5254 22.0779 28.1272 22.6027 27.5904 22.8224L24.9421 20.174L26.5254 20.7278V14.2827L22.5254 15.6805V17.7574L20.5254 15.7574V13H17.768L8.85879 4.09076C9.14052 4.03128 9.43264 4 9.73207 4C11.4524 4 12.9316 5.03267 13.5836 6.51195C14.2641 5.4982 15.4211 4.83105 16.7338 4.83105C18.8278 4.83105 20.5254 6.5286 20.5254 8.62263C20.5254 9.52281 20.2117 10.3497 19.6877 11H20.5254C21.63 11 22.5254 11.8954 22.5254 13V13.5619L26.5306 12.1623C27.5058 11.8216 28.5254 12.5454 28.5254 13.5784V21.4323ZM16.7338 6.83105C17.7233 6.83105 18.5254 7.63317 18.5254 8.62263C18.5254 9.61209 17.7233 10.4142 16.7338 10.4142C15.7444 10.4142 14.9422 9.61209 14.9422 8.62263C14.9422 7.63317 15.7444 6.83105 16.7338 6.83105Z" fill="#0D0F13"/>
<path d="M6.52539 13H9.28275L5.70272 9.41997C5.88076 10.0122 6.18578 10.5494 6.58615 11H6.52539C5.42082 11 4.52539 11.8954 4.52539 13V22C4.52539 23.1046 5.42082 24 6.52539 24H11.2173L9.77441 26.4992C9.49827 26.9775 9.66215 27.5891 10.1404 27.8652C10.6187 28.1414 11.2303 27.9775 11.5065 27.4992L13.5252 24.0027L15.5444 27.5002C15.8206 27.9785 16.4322 28.1424 16.9105 27.8662C17.3888 27.5901 17.5526 26.9785 17.2765 26.5002L15.833 24H20.2828L18.2828 22H6.52539V13Z" fill="#0D0F13"/>
</svg>
