<svg width="32" height="32" viewBox="0 0 32 32" fill="none" xmlns="http://www.w3.org/2000/svg">
<path d="M29.7071 28.2929C30.0976 28.6834 30.0976 29.3166 29.7071 29.7071C29.3166 30.0976 28.6834 30.0976 28.2929 29.7071L2.29292 3.7071C1.90236 3.3166 1.90236 2.68342 2.29292 2.29292C2.68342 1.90236 3.3166 1.90236 3.7071 2.29292L29.7071 28.2929Z" fill="#0D0F13"/>
<path d="M20 13H17.2426L8.33338 4.09077C8.61512 4.03126 8.90724 4.00001 9.20668 4.00001C10.927 4.00001 12.4062 5.03266 13.0582 6.51197C13.7387 5.49824 14.8957 4.83106 16.2084 4.83106C18.3024 4.83106 20 6.52863 20 8.62262C20 9.52283 19.6864 10.3497 19.1623 11H20C21.1046 11 22 11.8954 22 13V13.5619L26.0052 12.1623C26.9804 11.8216 28 12.5454 28 13.5784V21.4323C28 22.0779 27.6018 22.6027 27.065 22.8224L24.4167 20.174L26 20.7278V14.2827L22 15.6805V17.7574L20 15.7574L20 13ZM14.4168 8.62263C14.4168 9.61207 15.219 10.4142 16.2084 10.4142C17.1979 10.4142 18 9.61207 18 8.62263C18 7.63319 17.1979 6.83107 16.2084 6.83107C15.219 6.83106 14.4168 7.63319 14.4168 8.62263Z" fill="#0D0F13"/>
<path d="M17.7574 22L19.7574 24H15.3076L16.7511 26.5002C17.0272 26.9785 16.8634 27.5901 16.3851 27.8662C15.9068 28.1424 15.2952 27.9785 15.019 27.5002L12.9998 24.0027L10.9811 27.4992C10.7049 27.9775 10.0933 28.1414 9.61499 27.8652C9.13678 27.5891 8.9729 26.9775 9.24902 26.4992L10.6919 24H6.00001C4.89546 24 4.00001 23.1046 4.00001 22V13C4.00001 11.8954 4.89546 11 6.00001 11H6.06074C5.66041 10.5494 5.35536 10.0122 5.17732 9.41999L8.7574 13H6.00001V22H17.7574Z" fill="#0D0F13"/>
</svg>
