<svg width="32" height="32" viewBox="0 0 32 32" fill="none" xmlns="http://www.w3.org/2000/svg">
<path fill-rule="evenodd" clip-rule="evenodd" d="M9.23232 4C10.9526 4 12.4317 5.03256 13.0837 6.51173C13.7643 5.49811 14.9212 4.83105 16.2338 4.83105C18.3278 4.83105 20.0254 6.5286 20.0254 8.62263C20.0254 9.52281 19.7117 10.3497 19.1877 11H20.0254C21.13 11 22.0254 11.8954 22.0254 13V13.5619L26.0306 12.1623C27.0057 11.8216 28.0254 12.5454 28.0254 13.5784V21.4323C28.0254 22.4655 27.0054 23.1893 26.0302 22.8483L22.0254 21.4477V22C22.0254 23.1046 21.13 24 20.0254 24H15.3331L16.7764 26.5C17.0526 26.9783 16.8887 27.5899 16.4104 27.866C15.9321 28.1422 15.3205 27.9783 15.0444 27.5L13.0251 24.0025L11.0064 27.499C10.7303 27.9773 10.1187 28.1412 9.64038 27.865C9.16209 27.5889 8.99821 26.9773 9.27436 26.499L10.7172 24H6.02539C4.92082 24 4.02539 23.1046 4.02539 22V13C4.02539 11.8954 4.92082 11 6.02539 11H6.08639C5.42634 10.2571 5.02543 9.27882 5.02543 8.20689C5.02543 5.88349 6.90892 4 9.23232 4ZM11.4392 8.20689C11.4392 6.98806 10.4511 6 9.23232 6C8.01349 6 7.02543 6.98806 7.02543 8.20689C7.02543 9.42572 8.01349 10.4138 9.23232 10.4138C10.4511 10.4138 11.4392 9.42572 11.4392 8.20689ZM22.0254 19.3289L26.0254 20.7278V14.2828L22.0254 15.6805V19.3289ZM12.3782 11C12.5574 10.7984 12.7175 10.5794 12.8556 10.3459C12.9747 10.5789 13.1172 10.798 13.28 11H12.3782ZM6.02539 13H20.0254V22H6.02539L6.02539 13ZM16.2338 6.83105C17.2233 6.83105 18.0254 7.63317 18.0254 8.62263C18.0254 9.61209 17.2233 10.4142 16.2338 10.4142C15.2444 10.4142 14.4422 9.61209 14.4422 8.62263C14.4422 7.63317 15.2444 6.83105 16.2338 6.83105Z" fill="#0D0F13"/>
</svg>
