<svg width="32" height="32" viewBox="0 0 32 32" fill="none" xmlns="http://www.w3.org/2000/svg">
<path fill-rule="evenodd" clip-rule="evenodd" d="M26.0052 12.1623C26.9803 11.8216 28 12.5454 28 13.5784V21.4323C28 22.4655 26.98 23.1893 26.0048 22.8483L22 21.4477V22C22 23.1046 21.1046 24 20 24H15.3077L16.751 26.5C17.0272 26.9783 16.8633 27.5899 16.385 27.866C15.9067 28.1422 15.2951 27.9783 15.019 27.5L12.9997 24.0025L10.981 27.499C10.7049 27.9773 10.0933 28.1412 9.61498 27.865C9.13671 27.5889 8.97283 26.9773 9.24895 26.499L10.6918 24H6C4.89545 24 4 23.1046 4 22V13C4 11.8954 4.89545 11 6 11H6.06097C5.40094 10.2571 5.00006 9.27881 5.00006 8.20691C5.00006 5.88348 6.88355 4 9.20691 4C10.9272 4 12.4063 5.03253 13.0583 6.51172C13.7389 5.49811 14.8958 4.83106 16.2084 4.83106C18.3024 4.83106 20 6.52863 20 8.62262C20 9.52283 19.6863 10.3497 19.1623 11H20C21.1046 11 22 11.8954 22 13V13.5619L26.0052 12.1623ZM16.2084 6.83105C15.219 6.83105 14.4168 7.63317 14.4168 8.62261C14.4168 9.61205 15.219 10.4142 16.2084 10.4142C17.1979 10.4142 18 9.61205 18 8.62261C18 7.63317 17.1979 6.83105 16.2084 6.83105ZM12.8302 10.3459C12.6921 10.5794 12.532 10.7984 12.3528 11H13.2546C13.0918 10.798 12.9493 10.5789 12.8302 10.3459ZM9.20691 6C7.9881 6 7.00006 6.98804 7.00006 8.20691C7.00006 9.42572 7.9881 10.4138 9.20691 10.4138C10.4257 10.4138 11.4138 9.42572 11.4138 8.20691C11.4138 6.98804 10.4257 6 9.20691 6ZM20 22V13H6V22H20ZM26 20.7278V14.2828L22 15.6805V19.3289L26 20.7278Z" fill="#0D0F13"/>
</svg>
