<svg width="32" height="32" viewBox="0 0 32 32" fill="none" xmlns="http://www.w3.org/2000/svg">
<path fill-rule="evenodd" clip-rule="evenodd" d="M2 6C2 4.89543 2.89543 4 4 4H23C23.5523 4 24 4.44772 24 5C24 5.55228 23.5523 6 23 6H4V8H26C27.1046 8 28 8.89543 28 10V13C29.1046 13 30 13.8954 30 15V19C30 20.1046 29.1046 21 28 21V24C28 25.1046 27.1046 26 26 26H4C2.89543 26 2 25.1046 2 24V6ZM26 21H22C20.8954 21 20 20.1046 20 19V15C20 13.8954 20.8954 13 22 13H26V10H4V24H26V21ZM28 15H22V19H28V15Z" fill="#0D0F13"/>
<path d="M25 17C25 17.5523 24.5523 18 24 18C23.4477 18 23 17.5523 23 17C23 16.4477 23.4477 16 24 16C24.5523 16 25 16.4477 25 17Z" fill="#0D0F13"/>
</svg>
