<svg width="32" height="32" viewBox="0 0 32 32" fill="none" xmlns="http://www.w3.org/2000/svg">
<path fill-rule="evenodd" clip-rule="evenodd" d="M16 6C14.8954 6 14 6.89543 14 8C14 9.10457 14.8954 10 16 10C17.1046 10 18 9.10457 18 8C18 6.89543 17.1046 6 16 6ZM12 8C12 5.79086 13.7909 4 16 4C18.2091 4 20 5.79086 20 8C20 10.2091 18.2091 12 16 12C13.7909 12 12 10.2091 12 8Z" fill="black"/>
<path fill-rule="evenodd" clip-rule="evenodd" d="M7.84049 11.5149C8.06307 10.6246 8.86304 10 9.78077 10H22.2192C23.137 10 23.9369 10.6246 24.1595 11.5149L27.6595 25.5149C27.9751 26.7772 27.0204 28 25.7192 28H6.28077C4.97963 28 4.02491 26.7772 4.34049 25.5149L7.84049 11.5149ZM22.2192 12H9.78077L6.28077 26H25.7192L22.2192 12Z" fill="black"/>
</svg>
