<svg width="32" height="32" viewBox="0 0 32 32" fill="none" xmlns="http://www.w3.org/2000/svg">
<path fill-rule="evenodd" clip-rule="evenodd" d="M27.939 25.5149C28.2562 26.7772 27.2966 28 25.9889 28H6.01109C4.70335 28 3.74382 26.7772 4.06102 25.5149L7.57872 11.5149C7.80247 10.6246 8.60649 10 9.52885 10H12.5174C12.1753 9.41162 11.9795 8.72858 11.9795 8C11.9795 5.79083 13.7795 4 15.9998 4C18.2202 4 20.0201 5.79083 20.0201 8C20.0201 8.72858 19.8243 9.41162 19.4823 10H22.4711C23.3935 10 24.1975 10.6246 24.4212 11.5149L27.939 25.5149ZM15.9998 6C14.8896 6 13.9897 6.89545 13.9897 8C13.9897 9.10455 14.8896 10 15.9998 10C17.11 10 18.01 9.10455 18.01 8C18.01 6.89545 17.11 6 15.9998 6ZM6.01109 26H25.9889L22.4711 12H9.52885L6.01109 26Z" fill="#0D0F13"/>
</svg>
