<svg width="32" height="32" viewBox="0 0 32 32" fill="none" xmlns="http://www.w3.org/2000/svg">
<path fill-rule="evenodd" clip-rule="evenodd" d="M19.4823 10C19.8243 9.41165 20.0201 8.72857 20.0201 8C20.0201 5.79086 18.2202 4 15.9998 4C13.7795 4 11.9795 5.79086 11.9795 8C11.9795 8.72857 12.1753 9.41165 12.5174 10H9.52889C8.6065 10 7.80248 10.6246 7.57876 11.5149L4.06101 25.5149C3.74383 26.7772 4.70339 28 6.01113 28H25.9889C27.2966 28 28.2562 26.7772 27.939 25.5149L24.4212 11.5149C24.1975 10.6246 23.3935 10 22.4711 10H19.4823ZM18.01 8C18.01 9.10457 17.11 10 15.9998 10C14.8896 10 13.9897 9.10457 13.9897 8C13.9897 6.89543 14.8896 6 15.9998 6C17.11 6 18.01 6.89543 18.01 8ZM25.9889 26L22.4711 12H9.52889L6.01113 26H25.9889Z" fill="#0D0F13"/>
</svg>
