<svg width="32" height="32" viewBox="0 0 32 32" fill="none" xmlns="http://www.w3.org/2000/svg">
<rect width="32" height="32" fill="#F5F5F5"/>
<path fill-rule="evenodd" clip-rule="evenodd" d="M16.0002 6C14.8956 6 14.0002 6.89543 14.0002 8C14.0002 9.10457 14.8956 10 16.0002 10C17.1047 10 18.0002 9.10457 18.0002 8C18.0002 6.89543 17.1047 6 16.0002 6ZM19.465 10C19.8054 9.41165 20.0002 8.72857 20.0002 8C20.0002 5.79086 18.2093 4 16.0002 4C13.791 4 12.0002 5.79086 12.0002 8C12.0002 8.72857 12.1949 9.41165 12.5353 10H9.74282C8.82333 10 8.02231 10.6269 7.8014 11.5195L4.3364 25.5195C4.02427 26.7806 4.97863 28 6.27783 28H25.7225C27.0217 28 27.976 26.7806 27.6639 25.5195L24.1989 11.5195C23.978 10.6269 23.177 10 22.2575 10H19.465ZM9.74282 12L6.27782 26H25.7225L22.2575 12H9.74282Z" fill="black"/>
</svg>
