<svg width="32" height="32" viewBox="0 0 32 32" fill="none" xmlns="http://www.w3.org/2000/svg">
<path fill-rule="evenodd" clip-rule="evenodd" d="M16 10C17.1045 10 18 9.10457 18 8C18 6.89543 17.1045 6 16 6C14.8954 6 14 6.89543 14 8C14 9.10457 14.8954 10 16 10ZM16 12C18.2091 12 20 10.2091 20 8C20 5.79086 18.2091 4 16 4C13.7908 4 12 5.79086 12 8C12 10.2091 13.7908 12 16 12Z" fill="black"/>
<path fill-rule="evenodd" clip-rule="evenodd" d="M22.4384 12H9.56153L6.06153 26H25.9384L22.4384 12ZM9.56153 10C8.6438 10 7.84383 10.6246 7.62125 11.5149L4.12125 25.5149C3.80567 26.7772 4.76039 28 6.06153 28H25.9384C27.2396 28 28.1943 26.7772 27.8787 25.5149L24.3787 11.5149C24.1561 10.6246 23.3562 10 22.4384 10H9.56153Z" fill="black"/>
</svg>
