<svg width="32" height="32" viewBox="0 0 32 32" fill="none" xmlns="http://www.w3.org/2000/svg">
<path fill-rule="evenodd" clip-rule="evenodd" d="M6.01112 26H21.7574L23.7574 28H6.01112C4.70338 28 3.74385 26.7772 4.06105 25.5149L7.51723 11.7599L9.17317 13.4158L6.01112 26Z" fill="#0D0F13"/>
<path fill-rule="evenodd" clip-rule="evenodd" d="M22.4711 12H16.2426L11.9878 7.74513C12.1199 5.65473 13.8657 4.00001 16 4.00001C18.2204 4.00001 20.0203 5.79084 20.0203 8.00001C20.0203 8.72859 19.8245 9.41163 19.4825 10H22.4711C23.3935 10 24.1975 10.6246 24.4212 11.5149L27.3287 23.0861L24.5613 20.3187L22.4711 12ZM13.9899 8.00001C13.9899 9.10456 14.8898 10 16 10C17.1102 10 18.0102 9.10456 18.0102 8.00001C18.0102 6.89546 17.1102 6.00001 16 6.00001C14.8898 6.00001 13.9899 6.89546 13.9899 8.00001Z" fill="#0D0F13"/>
<path fill-rule="evenodd" clip-rule="evenodd" d="M29.7071 28.2929C30.0976 28.6834 30.0976 29.3166 29.7071 29.7071C29.3166 30.0976 28.6834 30.0976 28.2929 29.7071L2.29292 3.7071C1.90236 3.3166 1.90236 2.68342 2.29292 2.29292C2.68342 1.90236 3.3166 1.90236 3.7071 2.29292L29.7071 28.2929Z" fill="#0D0F13"/>
</svg>
