<svg width="32" height="32" viewBox="0 0 32 32" fill="none" xmlns="http://www.w3.org/2000/svg">
<path fill-rule="evenodd" clip-rule="evenodd" d="M27.3287 23.0861L24.4212 11.5149C24.1975 10.6246 23.3935 10 22.4711 10H19.4825C19.8245 9.41165 20.0203 8.72857 20.0203 8C20.0203 5.79086 18.2204 4 16 4C13.8657 4 12.1199 5.65474 11.9878 7.74512L16.2426 12H22.4711L24.5613 20.3187L27.3287 23.0861ZM9.17315 13.4158L6.01113 26H21.7574L23.7574 28H6.01113C4.70339 28 3.74383 26.7772 4.06101 25.5149L7.51722 11.7599L9.17315 13.4158ZM18.0102 8C18.0102 9.10457 17.1102 10 16 10C14.8898 10 13.9899 9.10457 13.9899 8C13.9899 6.89543 14.8898 6 16 6C17.1102 6 18.0102 6.89543 18.0102 8Z" fill="#0D0F13"/>
<path fill-rule="evenodd" clip-rule="evenodd" d="M2.29289 2.29289C2.68342 1.90237 3.31658 1.90237 3.70711 2.29289L29.7071 28.2929C30.0976 28.6834 30.0976 29.3166 29.7071 29.7071C29.3166 30.0976 28.6834 30.0976 28.2929 29.7071L2.29289 3.70711C1.90237 3.31658 1.90237 2.68342 2.29289 2.29289Z" fill="#0D0F13"/>
</svg>
