<svg width="32" height="32" viewBox="0 0 32 32" fill="none" xmlns="http://www.w3.org/2000/svg">
<path fill-rule="evenodd" clip-rule="evenodd" d="M16 6C14.8954 6 14 6.89543 14 8C14 9.10457 14.8954 10 16 10C17.1046 10 18 9.10457 18 8C18 6.89543 17.1046 6 16 6ZM19.4649 10C19.8052 9.41165 20 8.72857 20 8C20 5.79086 18.2091 4 16 4C13.7909 4 12 5.79086 12 8C12 8.72857 12.1948 9.41165 12.5351 10H9.78077C8.86304 10 8.06307 10.6246 7.84049 11.5149L4.34049 25.5149C4.02491 26.7772 4.97963 28 6.28077 28H25.7192C27.0204 28 27.9751 26.7772 27.6595 25.5149L24.1595 11.5149C23.9369 10.6246 23.137 10 22.2192 10H19.4649ZM9.78077 12L6.28077 26H25.7192L22.2192 12H9.78077Z" fill="black"/>
</svg>
