<svg width="32" height="32" viewBox="0 0 32 32" fill="none" xmlns="http://www.w3.org/2000/svg">
<path d="M17.7008 13.4602C20.193 13.8144 22.5955 14.9499 24.5125 16.8669C24.903 17.2574 25.5362 17.2574 25.9267 16.8669C26.3172 16.4764 26.3172 15.8432 25.9267 15.4527C23.0803 12.6063 19.3159 11.2373 15.5864 11.3458L17.7008 13.4602Z" fill="#0D0F13"/>
<path d="M12.5779 8.3377C18.0859 7.23827 24.0234 8.82334 28.293 13.0929C28.6835 13.4834 29.3166 13.4834 29.7072 13.0929C30.0977 12.7024 30.0977 12.0692 29.7072 11.6787C24.6165 6.58799 17.3992 4.91998 10.9149 6.67467L12.5779 8.3377Z" fill="#0D0F13"/>
<path d="M5.10183 9.34766L6.54462 10.7904C5.53826 11.4435 4.58462 12.2112 3.70222 13.0936C3.3117 13.4841 2.67853 13.4841 2.28801 13.0936C1.89749 12.7031 1.89749 12.0699 2.28801 11.6794C3.16741 10.8 4.11026 10.0227 5.10183 9.34766Z" fill="#0D0F13"/>
<path d="M8.97393 13.2188L10.447 14.6918C9.37978 15.2463 8.37814 15.9713 7.48249 16.867C7.09197 17.2575 6.45881 17.2575 6.06828 16.867C5.67776 16.4765 5.67776 15.8434 6.06828 15.4529C6.95701 14.5642 7.93523 13.8195 8.97393 13.2188Z" fill="#0D0F13"/>
<path d="M12.9676 17.2127C11.8244 17.6355 10.7522 18.3062 9.83382 19.2245C9.44329 19.615 9.44329 20.2482 9.83382 20.6387C10.2243 21.0292 10.8575 21.0292 11.248 20.6387C12.1962 19.6906 13.3573 19.0851 14.5773 18.8224L12.9676 17.2127Z" fill="#0D0F13"/>
<path d="M15.9976 25.9999C17.1022 25.9999 17.9976 25.1044 17.9976 23.9998C17.9976 22.8953 17.1022 21.9998 15.9976 21.9998C14.893 21.9998 13.9976 22.8953 13.9976 23.9998C13.9976 25.1044 14.893 25.9999 15.9976 25.9999Z" fill="#0D0F13"/>
<path fill-rule="evenodd" clip-rule="evenodd" d="M2.29289 2.29289C2.68342 1.90237 3.31658 1.90237 3.70711 2.29289L29.7071 28.2929C30.0976 28.6834 30.0976 29.3166 29.7071 29.7071C29.3166 30.0976 28.6834 30.0976 28.2929 29.7071L2.29289 3.70711C1.90237 3.31658 1.90237 2.68342 2.29289 2.29289Z" fill="#0D0F13"/>
</svg>
