<svg width="32" height="32" viewBox="0 0 32 32" fill="none" xmlns="http://www.w3.org/2000/svg">
<path fill-rule="evenodd" clip-rule="evenodd" d="M4.33076 11.8304C11.671 8.06141 20.3806 8.06092 27.7201 11.8305L25.9053 15.9642H23.6624L21.9384 12.5279C21.5649 11.7834 20.5037 11.7852 20.1327 12.5309L18.54 15.7326L16.9287 12.5273C16.5536 11.7811 15.4886 11.7864 15.1208 12.5362L13.5559 15.7272L11.9331 12.5243C11.5571 11.7822 10.4976 11.787 10.1283 12.5325L8.42858 15.9642H6.14677L4.33076 11.8304ZM7.02693 17.9676L9.09111 22.6663C13.5869 21.1278 18.467 21.1277 22.9628 22.6661L25.0257 17.9676H23.0522C22.6706 17.9676 22.3215 17.752 22.1501 17.4103L21.0401 15.1977L19.4482 18.3977C19.0774 19.1432 18.0167 19.1453 17.6428 18.4015L16.0379 15.2087L14.4765 18.3925C14.1094 19.1411 13.0468 19.148 12.67 18.4043L11.0428 15.1927L9.94663 17.4057C9.77613 17.7499 9.42576 17.9676 9.04226 17.9676H7.02693ZM2.10495 11.7365C1.91046 11.2938 2.08349 10.7754 2.50455 10.5388C10.9029 5.82075 21.1486 5.81998 29.5465 10.539C29.9673 10.7755 30.1402 11.2936 29.9459 11.7362L24.3232 24.5429C24.1569 24.9215 23.7204 25.0991 23.3378 24.9438C18.6492 23.0399 13.405 23.0399 8.71644 24.9438C8.3339 25.0992 7.89739 24.9217 7.73109 24.5431L2.10495 11.7365Z" fill="#0D0F13"/>
</svg>
