<svg width="32" height="32" viewBox="0 0 32 32" fill="none" xmlns="http://www.w3.org/2000/svg">
<path fill-rule="evenodd" clip-rule="evenodd" d="M3.73249 2.29289C3.34197 1.90237 2.7088 1.90237 2.31828 2.29289C1.92776 2.68342 1.92776 3.31658 2.31828 3.70711L28.3183 29.7071C28.7088 30.0976 29.342 30.0976 29.7325 29.7071C30.123 29.3166 30.123 28.6834 29.7325 28.2929L3.73249 2.29289ZM29.9459 11.7362L25.6924 21.4244L24.1745 19.9065L25.0257 17.9676H23.0523C22.6706 17.9676 22.3216 17.752 22.1502 17.4103L21.0401 15.1977L20.5171 16.2491L19.0253 14.7572L20.1327 12.5309C20.5037 11.7852 21.565 11.7834 21.9385 12.5279L23.6625 15.9642H25.9053L27.7202 11.8305C23.2506 9.5349 18.273 8.63746 13.4058 9.1378L11.6215 7.35347C17.6948 6.37224 24.0207 7.43386 29.5465 10.539C29.9674 10.7755 30.1402 11.2936 29.9459 11.7362ZM11.112 15.3292L14.3606 18.5778C13.9224 19.1362 13.0127 19.0806 12.67 18.4043L11.112 15.3292ZM9.94668 17.4057L11.0205 15.2378L9.52777 13.745L8.42858 15.9642H6.14677L4.33076 11.8304C5.07041 11.4507 5.82396 11.1091 6.58862 10.8059L5.05616 9.27342C4.18984 9.64875 3.3381 10.0706 2.50455 10.5388C2.08349 10.7754 1.91046 11.2938 2.10495 11.7365L7.73109 24.5431C7.89739 24.9217 8.3339 25.0992 8.71644 24.9438C12.2017 23.5285 15.994 23.1653 19.6369 23.8541L17.3351 21.5523C14.5588 21.3826 11.7574 21.7539 9.09111 22.6663L7.02693 17.9676H9.04226C9.42576 17.9676 9.77618 17.7499 9.94668 17.4057ZM17.0636 12.7956L16.267 11.999C16.5372 12.0637 16.7842 12.2397 16.9288 12.5273L17.0636 12.7956Z" fill="#0D0F13"/>
</svg>
