<svg width="32" height="32" viewBox="0 0 32 32" fill="none" xmlns="http://www.w3.org/2000/svg">
<path d="M16.2417 11.999C16.5119 12.0637 16.7588 12.2397 16.9034 12.5273L17.0382 12.7956L16.2417 11.999Z" fill="#0D0F13"/>
<path d="M27.6948 11.8305C23.2252 9.53493 18.2476 8.63747 13.3804 9.13783L11.5961 7.35347C17.6694 6.37227 23.9953 7.43385 29.5211 10.539C29.942 10.7755 30.1148 11.2936 29.9205 11.7362L25.667 21.4244L24.1491 19.9065L25.0003 17.9676H23.0269C22.6452 17.9676 22.2962 17.752 22.1248 17.4103L21.0147 15.1977L20.4917 16.2491L19 14.7572L20.1073 12.5309C20.4783 11.7852 21.5396 11.7834 21.9131 12.5279L23.6371 15.9642H25.8799L27.6948 11.8305Z" fill="#0D0F13"/>
<path d="M9.06575 22.6663C11.732 21.7539 14.5334 21.3826 17.3097 21.5523L19.6115 23.8541C15.9686 23.1653 12.1764 23.5285 8.69106 24.9438C8.30855 25.0992 7.87203 24.9217 7.70571 24.5431L2.07961 11.7365C1.88509 11.2938 2.05813 10.7754 2.47921 10.5388C3.31271 10.0706 4.16445 9.64875 5.03078 9.27345L6.56325 10.8059C5.7986 11.1091 5.04506 11.4507 4.30538 11.8304L6.12142 15.9642H8.40322L9.50239 13.745L10.9951 15.2378L9.92128 17.4057C9.75081 17.7499 9.40041 17.9676 9.01686 17.9676H7.00154L9.06575 22.6663Z" fill="#0D0F13"/>
<path d="M29.7071 28.2929C30.0976 28.6834 30.0976 29.3166 29.7071 29.7071C29.3166 30.0976 28.6834 30.0976 28.2929 29.7071L2.29292 3.7071C1.90236 3.3166 1.90236 2.68342 2.29292 2.29292C2.68342 1.90236 3.3166 1.90236 3.7071 2.29292L29.7071 28.2929Z" fill="#0D0F13"/>
<path d="M14.3352 18.5778C13.8971 19.1362 12.9873 19.0806 12.6446 18.4043L11.0866 15.3292L14.3352 18.5778Z" fill="#0D0F13"/>
</svg>
