<svg viewBox="0 0 106 18" fill="none" xmlns="http://www.w3.org/2000/svg"><g clip-path="url(#a)" fill="#000"><path d="M92.871 16.695h2.897V7.434l10.786 9.663V1.167h-2.9v9.574L92.873.766l-.002 15.929ZM80.591 3.422a5.27 5.27 0 0 0-5.264 5.265 5.27 5.27 0 0 0 5.264 5.265 5.27 5.27 0 0 0 5.265-5.265 5.27 5.27 0 0 0-5.265-5.265Zm0 13.399c-4.485 0-8.134-3.649-8.134-8.134S76.106.553 80.591.553s8.134 3.649 8.134 8.134-3.649 8.134-8.134 8.134ZM55.91 3.796h5.773v12.898h2.97V3.796h5.773v-2.63H55.91v2.63ZM37.195 16.694h3.407l7.895-15.53H45.09l-7.895 15.53ZM48.809 10.296l3.26 6.398h3.473l-5.005-9.803-1.728 3.405ZM34.155 6.928c0-3.14-2.484-5.762-5.644-5.762H19.84v15.528h2.971v-4.109l5.568-.02 2.1 4.13h3.331l-2.39-4.704c1.57-.836 2.735-2.776 2.735-5.063Zm-6.344 3.069h-5v-6.2h5c2.184 0 3.396 1.604 3.396 3.11 0 1.316-.894 3.09-3.396 3.09ZM.957 1.166v2.63h5.772v12.898h2.972V3.796h5.772v-2.63H.957Z"/></g><defs><clipPath id="a"><path fill="#fff" d="M.957.377h105.6v16.896H.957z"/></clipPath></defs></svg>