<svg id="Ebene_1" data-name="Ebene 1" xmlns="http://www.w3.org/2000/svg" version="1.1" viewBox="0 0 566.9 90.7"><defs><style>.cls-1{fill:#001d21;stroke-width:0}</style></defs><path class="cls-1" d="M493.5 87.6H509V37.9l57.9 51.9V4.2h-15.5v51.4L493.5 2.1v85.5zM427.5 16.3c-15.6 0-28.3 12.7-28.3 28.3s12.7 28.3 28.3 28.3 28.3-12.7 28.3-28.3-12.7-28.3-28.3-28.3m0 72c-24.1 0-43.7-19.6-43.7-43.7S403.4.9 427.5.9s43.7 19.6 43.7 43.7-19.6 43.7-43.7 43.7M295 18.4h31v69.2h16V18.4h30.9V4.2H295v14.2zM194.5 87.6h18.3l42.4-83.4h-18.3l-42.4 83.4zM256.9 53.3l17.5 34.3h18.7L266.2 35l-9.3 18.3zM178.2 35.2c0-16.9-13.3-30.9-30.3-30.9h-46.6v83.4h16V65.6h29.9c0-.1 11.3 22.1 11.3 22.1h17.9l-12.8-25.3c8.4-4.5 14.7-14.9 14.7-27.2m-34.1 16.4h-26.8V18.4h26.8c11.7 0 18.2 8.6 18.2 16.7s-4.8 16.6-18.2 16.6M0 4.2v14.2h31v69.2h15.9V18.4h31V4.2H0z"/></svg>