<svg id="Ebene_1" data-name="Ebene 1" xmlns="http://www.w3.org/2000/svg" viewBox="0 0 566.93 90.71"><defs><style>.cls-1{fill:#fff;stroke-width:0}</style></defs><path class="cls-1" d="M493.47 87.6h15.55V37.88l57.91 51.88V4.24h-15.57v51.4L493.48 2.09l-.01 85.51zM427.51 16.35c-15.58 0-28.26 12.68-28.26 28.26s12.68 28.27 28.26 28.27 28.27-12.68 28.27-28.27-12.68-28.26-28.27-28.26m0 71.93c-24.08 0-43.66-19.59-43.66-43.67S403.43.94 427.5.94s43.67 19.6 43.67 43.67-19.59 43.67-43.67 43.67M295.01 18.36H326V87.6h15.95V18.36h30.99V4.24h-77.93v14.12zM194.54 87.6h18.29l42.39-83.37h-18.29L194.54 87.6zM256.9 53.25l17.51 34.35h18.65l-26.88-52.63-9.28 18.28zM178.23 35.17c0-16.85-13.33-30.93-30.3-30.93h-46.55V87.6h15.95V65.54l29.9-.1L158.5 87.6h17.88l-12.82-25.25c8.42-4.49 14.67-14.9 14.67-27.18m-34.06 16.48h-26.84V18.36h26.84c11.73 0 18.24 8.61 18.24 16.7 0 7.06-4.8 16.59-18.24 16.59M0 4.24v14.12h30.99V87.6h15.95V18.36h30.99V4.24H0z"/></svg>