<svg xmlns="http://www.w3.org/2000/svg" fill="none" viewBox="0 0 32 32"><path fill="#001d21" d="M16.2 22q1 0 2 .6.8.5 1.3 1.4.5 1 .5 2 0 1.2-.5 2-.5 1-1.4 1.5t-2 .5q-1 0-1.9-.5T12.8 28q-.5-1-.5-2 0-1.2.5-2.1a4 4 0 0 1 3.4-2m8.4 0q.9 0 1.6.4t1.3 1l-1.1 1a2 2 0 0 0-2.9-.5q-.5.3-.7.8-.3.6-.3 1.3t.3 1.3.7.9 1.2.3q1 0 1.7-.9l1.1 1q-.4.7-1.3 1-.7.4-1.6.4t-2-.5q-.9-.5-1.3-1.4-.5-1-.5-2 0-1.2.5-2.1t1.3-1.4q1-.6 2-.5m-17 .2q1.3 0 2.1.5t1.4 1.3q.5 1 .5 2a4 4 0 0 1-.5 2q-.5.9-1.4 1.4t-2 .5H4.5v-7.7zm8.6 1.3a2 2 0 0 0-1.9 1.2q-.3.6-.3 1.3t.3 1.3.8.9 1 .3l1.2-.3q.4-.3.7-.9t.3-1.3-.3-1.3l-.7-.8zm-10 5h1.4q1 0 1.7-.7t.6-1.8q0-1-.6-1.7t-1.7-.7H6.2zM26 11.5V20h-2v-7h-9V4H8v16H6V2h10.4zm-9-.6h5.6L17 5.4z"/></svg>