<svg xmlns="http://www.w3.org/2000/svg" fill="none" viewBox="0 0 32 32"><path fill="#001d21" d="m23.4 22.2 1.4.1 1.2.5-.5 1.4q-1-.6-2.1-.6l-1.1.2q-.4.3-.4.6 0 .4.4.6l1.3.4 1.4.4q.6.2 1 .7.3.3.3 1.2 0 .6-.3 1.1-.4.6-1.1.9t-1.8.3-1.7-.2L20 29l.6-1.3 1.2.6 1.3.2q.8 0 1.1-.2t.4-.6-.2-.5l-.6-.3-.8-.2-1.5-.4-1-.7q-.3-.4-.3-1.2l.3-1.2q.4-.5 1.1-.8t1.8-.3M9.5 24.8l1.7-2.5h2L10.4 26l2.8 3.9h-2l-1.8-2.7L7.7 30h-2L8.4 26l-2.7-3.7h2zm6.3 3.6h3.8V30h-5.5v-7.6h1.7zM26 11.6V20h-2v-7h-9V4H8v16H6V2h10.4zm-9-.6h5.6L17 5.4z"/></svg>