<svg xmlns="http://www.w3.org/2000/svg" fill="none" viewBox="0 0 32 32"><path fill="#001d21" fill-rule="evenodd" d="M16 9.9c3.4 0 6.1 2.7 6.1 6.1v.3a6 6 0 0 1-6.1 5.8h-.3A6.1 6.1 0 0 1 16 9.9m0 2a4.1 4.1 0 1 0 0 8.2 4.1 4.1 0 0 0 0-8.2" clip-rule="evenodd"/><path fill="#001d21" fill-rule="evenodd" d="m19.8 5.1.9.4 3.2-1.1 3.4 3.3-1 3 .6 1.6 3 1.4v4.7l-3 1.5-.6 1.3 1 2.9-3.4 3.4-3-1.1-1.1.5-1.4 3h-4.8l-1.4-3-1.1-.5-3 1-3.4-3.3 1-2.9-.5-1.4-3-1.4v-4.7l3-1.4q.2-.8.6-1.6l-1-3L8 4.4l3.2 1.1.9-.4 1.4-3h4.8zm-6.2 1.7L13 7l-.8.3-.7.3-2.8-1L7 8.4l1 2.6-.4.7q-.4.6-.6 1.3l-.3.8-2.5 1.2v2.3l2.6 1.2.2.8.5 1.1.4.8-.9 2.5 1.6 1.6 2.6-1 .7.4.5.2.5.2.7.2 1.3 2.6H17l1.3-2.6.7-.2 1-.4.7-.4 2.6 1 1.6-1.6-1-2.5.5-.8.5-1.1.2-.8 2.6-1.2v-2.3l-2.5-1.2-.3-.8q-.2-.7-.6-1.3L24 11l1-2.6-1.6-1.6-2.8 1-.7-.4q-.4 0-.8-.3l-.7-.2L17 4.2H15z" clip-rule="evenodd"/></svg>