<svg xmlns="http://www.w3.org/2000/svg" fill="none" viewBox="0 0 32 32"><path fill="#001d21" fill-rule="evenodd" d="M12.8 6.8c2.5-2.4 6.6-3.7 10.1-1.5L24 6l-6.5 6.5-.3.3 2 2 .4-.3L26 8l.7 1c2.2 3.6 1 7.7-1.5 10.2-2.3 2.4-5.8 3.7-9 2l-7 6.6H7.5l-1-1-2.2-2.2v-1.9l6.6-6.9c-1.7-3.2-.4-6.8 2-9m7.8-.4c-2.3-.7-4.7.2-6.4 1.8-2.2 2-3 4.9-1.3 7.2l.5.6-7.2 7.5v.2l1.6 1.7.4.4h.2l7.5-7.2.7.5c2.3 1.6 5.1.9 7.2-1.2 1.6-1.8 2.5-4.2 1.8-6.4L21 15.9l-1 .9h-1.6l-.3-.3-.3-.3-2.6-2.6V12z" clip-rule="evenodd"/></svg>