<svg xmlns="http://www.w3.org/2000/svg" viewBox="0 0 566.93 93.75" xml:space="preserve"><path fill="#FFF" d="M264.59 54.66H240.8l11.89-31 11.89 31zm111.16 35.17h37.5V3.8H381v45.34L347.07 3.8h-40.81v70.15L279.18 3.8h-52.34l-19.62 50.86h-31.97c-1.6 10.17-7.48 15.56-17.77 15.56-11.9 0-18.51-9.19-18.51-23.4 0-14.22 6.75-23.29 18.5-23.29 9.7 0 15.94 5.15 17.29 13.49h35.42v-2.34c0-19-16.43-34.68-52.33-34.68-38.73 0-53.44 19.36-53.44 46.82 0 .63.02 1.25.03 1.87-4.85-5.9-14.18-9.35-29.56-11.56l-22.43-3.19c-8.45-1.22-13.72-2.2-13.72-6.36 0-3.56 3.3-7.36 12.5-7.36 10.17 0 15.81 3.93 15.81 10.3h36.03v-1.84C103.07 11.52 85.9.24 52.2.24 17.53.24 2.33 12.87 2.33 30.64c0 13.85 9.06 21.94 30.39 24.88l25.37 3.55c9.06 1.23 12 3.06 12 6.86 0 4.9-4.65 7.6-15.07 7.6-11.76 0-17.15-5.02-17.15-12H0v1.96c0 19.1 18.01 30.14 53.43 30.14 32.73 0 51.7-7.23 54.82-25.5 6.54 15.68 21.94 25.62 49.6 25.62 20.97 0 32.74-5.71 39.8-14.32l-4.01 10.4h33.7l4.77-12.38h41.18l4.78 12.38h60.42V40.32l37.26 49.5zm143.38-35.17h-23.77l11.88-31 11.89 31zm47.8 35.17L533.72 3.8h-52.34L454.3 73.95V3.79h-32.97v86.04h60.54l4.77-12.37h41.19l4.78 12.37h34.32z"/></svg>