<svg xmlns="http://www.w3.org/2000/svg" width="32" height="32" viewBox="0 0 32 32" fill="none">
<path d="M5.99976 7.5C7.10433 7.5 7.99976 6.60457 7.99976 5.5C7.99976 4.39543 7.10433 3.5 5.99976 3.5C4.89519 3.5 3.99976 4.39543 3.99976 5.5C3.99976 6.60457 4.89519 7.5 5.99976 7.5Z" fill="#001D21" />
<path d="M15.9998 7.5C17.1043 7.5 17.9998 6.60457 17.9998 5.5C17.9998 4.39543 17.1043 3.5 15.9998 3.5C14.8952 3.5 13.9998 4.39543 13.9998 5.5C13.9998 6.60457 14.8952 7.5 15.9998 7.5Z" fill="#001D21" />
<path d="M25.9998 7.5C27.1043 7.5 27.9998 6.60457 27.9998 5.5C27.9998 4.39543 27.1043 3.5 25.9998 3.5C24.8952 3.5 23.9998 4.39543 23.9998 5.5C23.9998 6.60457 24.8952 7.5 25.9998 7.5Z" fill="#001D21" />
<path d="M5.99976 17.5C7.10433 17.5 7.99976 16.6046 7.99976 15.5C7.99976 14.3954 7.10433 13.5 5.99976 13.5C4.89519 13.5 3.99976 14.3954 3.99976 15.5C3.99976 16.6046 4.89519 17.5 5.99976 17.5Z" fill="#001D21" />
<path d="M15.9998 17.5C17.1043 17.5 17.9998 16.6046 17.9998 15.5C17.9998 14.3954 17.1043 13.5 15.9998 13.5C14.8952 13.5 13.9998 14.3954 13.9998 15.5C13.9998 16.6046 14.8952 17.5 15.9998 17.5Z" fill="#001D21" />
<path d="M25.9998 17.5C27.1043 17.5 27.9998 16.6046 27.9998 15.5C27.9998 14.3954 27.1043 13.5 25.9998 13.5C24.8952 13.5 23.9998 14.3954 23.9998 15.5C23.9998 16.6046 24.8952 17.5 25.9998 17.5Z" fill="#001D21" />
<path d="M5.99976 27.5C7.10433 27.5 7.99976 26.6046 7.99976 25.5C7.99976 24.3954 7.10433 23.5 5.99976 23.5C4.89519 23.5 3.99976 24.3954 3.99976 25.5C3.99976 26.6046 4.89519 27.5 5.99976 27.5Z" fill="#001D21" />
<path d="M15.9998 27.5C17.1043 27.5 17.9998 26.6046 17.9998 25.5C17.9998 24.3954 17.1043 23.5 15.9998 23.5C14.8952 23.5 13.9998 24.3954 13.9998 25.5C13.9998 26.6046 14.8952 27.5 15.9998 27.5Z" fill="#001D21" />
<path d="M25.9998 27.5C27.1043 27.5 27.9998 26.6046 27.9998 25.5C27.9998 24.3954 27.1043 23.5 25.9998 23.5C24.8952 23.5 23.9998 24.3954 23.9998 25.5C23.9998 26.6046 24.8952 27.5 25.9998 27.5Z" fill="#001D21" />
</svg>