<svg xmlns="http://www.w3.org/2000/svg" width="32" height="32" viewBox="0 0 32 32" fill="none">
<path d="M10 24C11.1046 24 12 24.8954 12 26C12 27.1046 11.1046 28 10 28C8.89543 28 8 27.1046 8 26C8 24.8954 8.89543 24 10 24Z" fill="#001D21" />
<path d="M24 24C25.1046 24 26 24.8954 26 26C26 27.1046 25.1046 28 24 28C22.8954 28 22 27.1046 22 26C22 24.8954 22.8954 24 24 24Z" fill="#001D21" />
<path fill-rule="evenodd" clip-rule="evenodd" d="M8.27344 8H27.8984V11.2285L24.627 18H10.7803L11.2803 20H25V22H9.71875L9.53027 21.2422L6.53223 9.25098L5.69043 6H4V4H7.23828L8.27344 8ZM10.2803 16H23.373L25.8984 10.7715V10H8.78027L10.2803 16Z" fill="#001D21" />
</svg>