<svg xmlns="http://www.w3.org/2000/svg" width="32" height="32" viewBox="0 0 32 32" fill="none">
<path d="M5.66406 9.9043C4.60814 11.691 4.00002 13.7743 4 16C4.00013 22.6272 9.37278 27.9999 16 28C18.2253 27.9999 20.3083 27.3916 22.0947 26.3359L23.5498 27.791C21.3715 29.1886 18.7802 29.9999 16 30C8.26821 29.9999 2.00013 23.7318 2 16C2.00002 13.2193 2.81106 10.6278 4.20898 8.44922L5.66406 9.9043Z" fill="#001D21" />
<path d="M27.9951 26.5791L27.2881 27.2871L26.5801 27.9941L4.00488 5.41797L5.41895 4.00391L27.9951 26.5791Z" fill="#001D21" />
<path d="M16 2C23.7317 2.00033 29.9999 8.26827 30 16C30 18.7795 29.1899 21.3699 27.793 23.5479L26.3369 22.0918C27.3918 20.3058 28 18.2244 28 16C27.9999 9.37284 22.6271 4.00033 16 4C13.7752 4.00004 11.6924 4.60694 9.90625 5.66211L8.45117 4.20605C10.6292 2.8091 13.2204 2.00005 16 2Z" fill="#001D21" />
<path d="M24.0215 13.2705L19.6221 15.377L18.1221 13.877L23.1582 11.4668L24.0215 13.2705Z" fill="#001D21" />
<path d="M17.0088 12.7637L15.0088 10.7637V6.05664H17.0088V12.7637Z" fill="#001D21" />
</svg>