<svg xmlns="http://www.w3.org/2000/svg" width="32" height="32" viewBox="0 0 32 32" fill="none">
<path d="M6.00606 10.251V28H23.7502L25.7496 30H4.00661V8.25098L6.00606 10.251ZM26.6185 30H26.601L26.6361 29.9648L26.6185 30ZM27.9991 26.585L26.5854 27.9991L26.5659 27.9796L26.563 27.9854L25.7809 27.2031L25.7838 27.1973L23.5872 25H23.5784L22.0017 23.4229V23.4141L18.5885 20H18.5797L16.5803 18H16.5891L15.193 16.6035C13.2022 16.2503 11.6326 14.681 11.28 12.6895L6.00606 7.41406V7.42285L4.00661 5.42285V5.41406L4 5.40746L5.41367 3.9934L27.9991 26.585ZM15.7524 20H10.8699L10.005 21.8115V25H8.0055V21.3594L9.60858 18H13.7529L15.7524 20ZM28 23.8164L26.0006 21.8164V4.0127L8.19002 4.00098L6.1896 2H28V23.8164ZM22.5913 18.4062L22.1852 18H22.3971L22.5913 18.4062ZM16.0433 7C18.7155 7.0001 20.8818 9.16692 20.8818 11.8398C20.8818 13.1806 20.336 14.3931 19.4555 15.2695L18.0418 13.8555C18.5605 13.3409 18.8824 12.6283 18.8824 11.8398C18.8823 10.2715 17.6112 9.0001 16.0433 9C15.2551 9.00004 14.5417 9.32105 14.0273 9.83984L12.6136 8.42578C13.4898 7.54506 14.703 7.00004 16.0433 7Z" fill="#001D21" />
</svg>