<svg xmlns="http://www.w3.org/2000/svg" fill="none" viewBox="0 0 32 32"><path fill="#001d21" fill-rule="evenodd" d="M26 11.6V30h-8v-2h6V13h-9V4H8v10H6V2h10.4zm-9-.6h5.6L17 5.4z" clip-rule="evenodd"/><path fill="#001d21" fill-rule="evenodd" d="M11.7 15.8c1.7-1.7 4.5-2.6 7-1l1 .6-4.4 4.5.8.8 4.4-4.4.7 1c1.5 2.5.6 5.3-1 7-1.5 1.6-3.8 2.5-6 1.5L9.8 30H8.3l-.8-.8L6 27.7v-1.5l4.2-4.4c-1-2.2 0-4.6 1.5-6m4.5.2q-1.7 0-3.2 1.2-2 2.1-.7 4.2l.4.7-.5.5L8 27l.8 1H9l4.3-4 .6-.7.7.5c1.3 1 3 .5 4.1-.8q1.4-1.4 1.3-3.1l-2.5 2.4-.8.7h-1.3L13 20.6v-1.4z" clip-rule="evenodd"/></svg>