<svg xmlns="http://www.w3.org/2000/svg" width="32" height="32" viewBox="0 0 32 32" fill="none">
<path d="M8.6228 22.4111C9.29502 22.4111 9.87738 22.523 10.3689 22.7471C10.8674 22.9711 11.25 23.2894 11.5173 23.7012C11.7848 24.1132 11.9187 24.6012 11.9187 25.165C11.9187 25.7216 11.7848 26.2097 11.5173 26.6289C11.25 27.0407 10.8674 27.359 10.3689 27.583C9.87738 27.7999 9.29502 27.9082 8.6228 27.9082H7.09448V30.001H5.33765V22.4111H8.6228ZM16.5125 22.4111C17.1845 22.4111 17.7662 22.5231 18.2576 22.7471C18.7562 22.9711 19.1395 23.2893 19.407 23.7012C19.6744 24.1132 19.8083 24.6012 19.8083 25.165C19.8083 25.7216 19.6744 26.2097 19.407 26.6289C19.1395 27.0408 18.7562 27.359 18.2576 27.583C17.7662 27.7997 17.1845 27.9082 16.5125 27.9082H14.9832V30.001H13.2273V22.4111H16.5125ZM26.6619 23.8428H24.2332V30.001H22.4773V23.8428H20.0486V22.4111H26.6619V23.8428ZM7.09448 26.4766H8.52515C9.05269 26.4766 9.45361 26.3646 9.72827 26.1406C10.0029 25.9093 10.1404 25.5843 10.1404 25.165C10.1404 24.7386 10.0029 24.4135 9.72827 24.1895C9.45361 23.9582 9.05269 23.8428 8.52515 23.8428H7.09448V26.4766ZM14.9832 26.4766H16.4148C16.9424 26.4766 17.3433 26.3646 17.6179 26.1406C17.8926 25.9093 18.03 25.5843 18.03 25.165C18.03 24.7386 17.8926 24.4135 17.6179 24.1895C17.3433 23.9582 16.9424 23.8428 16.4148 23.8428H14.9832V26.4766ZM25.9998 11.5859V20.0068H23.9998V13H14.9998V4H7.99976V20H5.99976V2H16.4138L25.9998 11.5859ZM16.9998 11H22.5857L16.9998 5.41406V11Z" fill="#001D21" />
</svg>