<svg xmlns="http://www.w3.org/2000/svg" width="32" height="32" viewBox="0 0 32 32" fill="none">
<path d="M17.1392 5.11802C18.8972 5.3324 20.4539 5.95089 21.64 6.95652C23.0732 8.17167 23.8978 9.89704 23.8979 11.9452H21.8725C21.8724 10.462 21.293 9.29396 20.3188 8.46782C19.3275 7.62735 17.8607 7.08815 16.0315 7.0315C12.2714 6.91524 10.6228 8.16014 9.92953 9.23418C9.60332 9.73979 9.42917 10.5009 9.55668 11.2528C9.67976 11.9781 10.0739 12.6521 10.8404 13.0855C11.4516 13.4309 12.2757 13.707 13.2693 13.957C14.263 14.207 15.3319 14.4092 16.4499 14.6435C17.5442 14.8729 18.6717 15.1309 19.6819 15.4839C20.6841 15.8342 21.6583 16.3065 22.3877 17.0137C24.8491 19.4003 24.2111 23.3353 21.288 25.3239C20.1207 26.1179 18.6725 26.6471 17.1313 26.8576L17.1432 29.9883L15.1177 29.9961L15.1059 26.9472C12.983 26.8439 10.8367 26.1208 9.1156 24.6316C8.48144 24.0828 6.90925 22.735 6.90918 19.9603H8.93461C8.93466 21.8411 9.93075 22.6823 10.4527 23.1339C13.2436 25.5487 17.5882 25.4167 20.1368 23.6831C22.1866 22.2886 22.3786 19.805 20.9666 18.4354C20.5422 18.024 19.8871 17.6718 19.0044 17.3633C18.1295 17.0575 17.1148 16.8217 16.0286 16.594C14.966 16.3713 13.8145 16.1523 12.7679 15.889C11.7217 15.6258 10.6844 15.2969 9.83162 14.8149C8.47394 14.0474 7.76904 12.8196 7.55894 11.582C7.35351 10.3711 7.61197 9.10683 8.22057 8.164C9.30405 6.48562 11.4496 5.13673 15.1138 5.03623L15.1029 2.00388L17.1283 1.99609L17.1392 5.11802Z" fill="#001D21" />
</svg>