<svg xmlns="http://www.w3.org/2000/svg" width="32" height="32" viewBox="0 0 32 32" fill="none">
<path d="M16.0001 30C8.2804 30 2.00012 23.7197 2.00012 16C2.00012 8.28027 8.2804 2 16.0001 2C23.7198 2 30.0001 8.28027 30.0001 16C30.0001 23.7197 23.7198 30 16.0001 30ZM16.0001 4C9.38342 4 4.00012 9.3833 4.00012 16C4.00012 22.6167 9.38342 28 16.0001 28C22.6173 28 28.0001 22.6167 28.0001 16C28.0001 9.3833 22.6173 4 16.0001 4Z" fill="#001D21" />
<path d="M17.0001 9H15.0001V19H17.0001V9Z" fill="#001D21" />
<path d="M17.0001 21H15.0001V23H17.0001V21Z" fill="#001D21" />
</svg>