<svg xmlns="http://www.w3.org/2000/svg" width="32" height="32" viewBox="0 0 32 32" fill="none">
<path fill-rule="evenodd" clip-rule="evenodd" d="M16 11C18.7614 11 21 13.2386 21 16C21 18.7614 18.7614 21 16 21C13.2386 21 11 18.7614 11 16C11 13.2386 13.2386 11 16 11ZM16 13C14.3431 13 13 14.3431 13 16C13 17.6569 14.3431 19 16 19C17.6569 19 19 17.6569 19 16C19 14.3431 17.6569 13 16 13Z" fill="#001D21" />
<path fill-rule="evenodd" clip-rule="evenodd" d="M16 6C23.732 6 28.5 11 30 16C28.5 21 23.732 26 16 26C8.26801 26 3.5 21 2 16C3.5 11 8.26801 6 16 6ZM16 8C9.56632 8 5.56804 11.9299 4.10645 16C5.56804 20.0701 9.56632 24 16 24C22.4335 24 26.4309 20.07 27.8926 16C26.4309 11.93 22.4335 8 16 8Z" fill="#001D21" />
</svg>