<svg xmlns="http://www.w3.org/2000/svg" fill="none" viewBox="0 0 32 32"><path fill="#001d21" d="m27.7 26-1.4 1.4-22-22L5.7 4z"/><path fill="#001d21" d="m27.7 26-1.4 1.4-22-22L5.7 4zM7.1 11a12 12 0 0 0-3 4.7c1.5 4 5.5 8 11.9 8q1.8 0 3.4-.4L21 25q-2.3.8-5 .8c-7.7 0-12.5-5-14-10a14 14 0 0 1 3.7-6z"/><path fill="#001d21" d="M7.1 11a12 12 0 0 0-3 4.7c1.5 4 5.5 8 11.9 8q1.8 0 3.4-.4L21 25q-2.3.8-5 .8c-7.7 0-12.5-5-14-10a14 14 0 0 1 3.7-6zM16 5.7c7.7 0 12.5 5 14 10a14 14 0 0 1-3.7 6l-1.4-1.4a12 12 0 0 0 3-4.6c-1.5-4-5.5-8-11.9-8q-1.8 0-3.4.4L11 6.5q2.3-.8 5-.8"/><path fill="#001d21" d="M16 5.7c7.7 0 12.5 5 14 10a14 14 0 0 1-3.7 6l-1.4-1.4a12 12 0 0 0 3-4.6c-1.5-4-5.5-8-11.9-8q-1.8 0-3.4.4L11 6.5q2.3-.8 5-.8M16.7 20.7H16a5 5 0 0 1-5-5.7z"/><path fill="#001d21" d="M16.7 20.7H16a5 5 0 0 1-5-5.7zM16 10.7a5 5 0 0 1 5 5.7l-5.7-5.6z"/><path fill="#001d21" d="M16 10.7a5 5 0 0 1 5 5.7l-5.7-5.6z"/></svg>