<svg xmlns="http://www.w3.org/2000/svg" width="32" height="32" viewBox="0 0 32 32" fill="none">
<path d="M14.5488 23.5454C17.0547 24.0277 19.9322 23.2844 22.7324 20.269L21.2676 18.9077C18.8682 21.4917 16.6622 21.9156 14.9268 21.5815C13.1068 21.2311 11.6003 20.0065 10.7861 18.9702L9.21387 20.2056C10.233 21.5026 12.1271 23.0791 14.5488 23.5454Z" fill="#001D21" />
<path d="M12 12C13.1046 12 14 12.8954 14 14C14 15.1046 13.1046 16 12 16C10.8954 16 10 15.1046 10 14C10 12.8954 10.8954 12 12 12Z" fill="#001D21" />
<path d="M20 12C21.1046 12 22 12.8954 22 14C22 15.1046 21.1046 16 20 16C18.8954 16 18 15.1046 18 14C18 12.8954 18.8954 12 20 12Z" fill="#001D21" />
<path fill-rule="evenodd" clip-rule="evenodd" d="M16 2C23.732 2 30 8.26801 30 16C30 23.732 23.732 30 16 30C8.26801 30 2 23.732 2 16C2 8.26801 8.26801 2 16 2ZM16 4C9.37258 4 4 9.37258 4 16C4 22.6274 9.37258 28 16 28C22.6274 28 28 22.6274 28 16C28 9.37258 22.6274 4 16 4Z" fill="#001D21" />
</svg>