<svg xmlns="http://www.w3.org/2000/svg" width="32" height="32" viewBox="0 0 32 32" fill="none">
<path d="M3.97412 5.42501L26.5697 27.977L27.9837 26.5656L5.38818 4.01367L3.97412 5.42501ZM8 24.0214H2V26.0175H8V28.0137H14V26.0175H21.7803L19.7803 24.0214H14V22.0252H8V24.0214ZM12 26.0175H10V24.0214H12V26.0175ZM30 25.8645V24.0214H28.1533L30 25.8645ZM19 14.8857L21 16.8819V15.0387H23V17.0349H21.1533L23.1533 19.031H25V17.0349H30V15.0387H25V13.0426H19V14.8857ZM2 17.0349H12.7803L10.7803 15.0387H2V17.0349ZM10.1533 6.05609H12V7.89921L14 9.89535V8.05223H30V6.05609H14V4.05995H8.15332L10.1533 6.05609ZM2 8.05223H3.78027L2 6.27539V8.05223Z" fill="#001D21" />
</svg>