<svg xmlns="http://www.w3.org/2000/svg" width="32" height="32" viewBox="0 0 32 32" fill="none">
<path d="M7.73486 12.0059H6.00342V26.0107H17.9233V22.1943L19.9253 24.1963V28.0107H4.00146V8.27246L7.73486 12.0059Z" fill="#001D21" />
<path d="M27.9985 26.5938L26.5845 28.0078L4.00439 5.42773L5.41846 4.01367L27.9985 26.5938Z" fill="#001D21" />
<path d="M27.8833 9.23145L27.9819 9.43652V23.7686L25.9819 21.7686V16.0908L24.0864 12.1289L24.0786 11.9229L23.9487 8.66406H25.3931L23.7153 5.16406L25.5181 4.29883L27.8833 9.23145Z" fill="#001D21" />
<path d="M19.2134 4.55664L19.8247 5.83398L19.9233 6.03906V6.0918H19.9253V14.0107H23.1753L24.0171 15.7129L24.1216 15.9229V19.9082L22.1206 17.9072V16.8574L22.1216 16.3896L21.9341 16.0107H20.2241L17.9233 13.71V12.0059H16.2192L14.2192 10.0059H17.9233V6.49414L17.6821 5.98926H10.2026L8.20264 3.98926H18.9409L19.2134 4.55664Z" fill="#001D21" />
</svg>