<svg xmlns="http://www.w3.org/2000/svg" width="32" height="32" viewBox="0 0 32 32" fill="none">
<path fill-rule="evenodd" clip-rule="evenodd" d="M16 2C23.732 2 30 8.26801 30 16C30 22.3265 25.8032 27.6707 20.042 29.4053L20.0225 29.4482L19.9756 29.4258C18.7153 29.7984 17.3811 30 16 30C8.26815 29.9998 2 23.7319 2 16C2 8.26812 8.26815 2.00016 16 2ZM16.8564 28.2188C17.5233 28.1727 18.1754 28.0743 18.8086 27.9258L21.6963 21.875H16.8564V28.2188ZM13.4707 27.9873C14.0041 28.0993 14.55 28.1767 15.1064 28.2168V21.875H10.5547L13.4707 27.9873ZM5.24902 21.875C6.56262 24.2738 8.65578 26.1837 11.1875 27.2666L8.61523 21.875H5.24902ZM21.1309 27.123C23.5194 26.0195 25.4929 24.1723 26.751 21.875H23.6357L21.1309 27.123ZM4.46387 11.875C4.00289 13.1641 3.75 14.5525 3.75 16C3.75 17.4475 4.00289 18.8359 4.46387 20.125H8.35742V11.875H4.46387ZM16.8564 20.125H22.1436V11.875H16.8564V20.125ZM23.8936 20.125H27.5361C27.9972 18.8359 28.25 17.4476 28.25 16C28.25 14.5524 27.9972 13.1641 27.5361 11.875H23.8936V20.125ZM10.1074 20.125H15.1064V11.875H10.1074V20.125ZM11.415 4.64062C8.78151 5.70469 6.60167 7.6549 5.24902 10.125H8.79883L11.415 4.64062ZM16.8564 10.125H21.5127L18.6035 4.02734C18.0349 3.90428 17.4515 3.82136 16.8564 3.78027V10.125ZM23.4521 10.125H26.751C25.452 7.7531 23.3911 5.85951 20.8975 4.77051L23.4521 10.125ZM15.1064 3.78223C14.6204 3.81727 14.1425 3.88157 13.6738 3.97168L10.7383 10.125H15.1064V3.78223Z" fill="black" />
</svg>