<svg xmlns="http://www.w3.org/2000/svg" fill="none" viewBox="0 0 32 32"><path fill="#001d21" fill-rule="evenodd" d="M16 2a14 14 0 1 0 0 28 14 14 0 0 0 0-28m5.2 20-2.8 5.8-1.4.2v-6zM15 22v6l-1.4-.2-2.8-5.8zm11.4 0a12 12 0 0 1-5.4 4.9l2.4-4.9zM8.6 22l2.4 4.9A12 12 0 0 1 5.6 22zm18.7-10a12 12 0 0 1 0 8h-3.5v-8zm-5.5 8H17v-8h4.8zM15 20h-4.8v-8H15zm-6.8 0H4.7a12 12 0 0 1 0-8h3.5zm13-14.9q3.3 1.6 5.2 4.9h-3zm-4.2-1q.8 0 1.5.2l2.7 5.7H17zM15 10h-4.2l2.7-5.7L15 4zm-6.4 0h-3A12 12 0 0 1 11 5.1z" clip-rule="evenodd"/></svg>