<svg xmlns="http://www.w3.org/2000/svg" width="32" height="32" viewBox="0 0 32 32" fill="none">
<path d="M4.79785 9.03027C4.33876 9.83292 4.05733 10.7529 4.00781 11.7363L4 12.0488C4.00009 13.6475 4.61317 15.0965 5.61621 16.1787L16 27.1006L19.3467 23.5791L20.7617 24.9941L16.0029 30L15.999 29.9717L15.9971 30L4.15234 17.541C2.81799 16.1027 2.00009 14.172 2 12.0488C2.00004 10.3947 2.49565 8.85691 3.3457 7.57812L4.79785 9.03027ZM27.9365 26.5225L26.5225 27.9365L4.0332 5.44727L5.44727 4.0332L27.9365 26.5225ZM22.0059 4C26.4207 4.00045 29.9999 7.60404 30 12.0488C29.9999 14.1721 29.182 16.1027 27.8477 17.541L24.8867 20.6543L23.4717 19.2393L26.3828 16.1787C27.3861 15.0964 27.9999 13.6478 28 12.0488L27.9922 11.7363C27.8359 8.63318 25.3671 6.16394 22.3125 6.00781L22.0059 6C20.2175 6.00008 18.6108 6.78958 17.5068 8.05371L16 9.7793L14.4932 8.05371C13.4581 6.86856 11.9813 6.10017 10.3271 6.00879L10.2383 6.00586L8.39355 4.16113C8.91068 4.05528 9.44601 4.00006 9.99414 4C12.3876 4.00008 14.5347 5.06027 16 6.73828C17.4653 5.06026 19.6124 4.00008 22.0059 4Z" fill="#001D21" />
</svg>