<svg xmlns="http://www.w3.org/2000/svg" width="32" height="32" viewBox="0 0 32 32" fill="none">
<path fill-rule="evenodd" clip-rule="evenodd" d="M22 4.76367V14H26V30H6V14H10V4.76367L11.3818 2H20.6182L22 4.76367ZM8 28H24V16H8V28ZM12 5.23633V14H20V5.23633L19.3818 4H12.6182L12 5.23633Z" fill="#001D21" />
<path fill-rule="evenodd" clip-rule="evenodd" d="M22 4.76367V14H26V30H6V14H10V4.76367L11.3818 2H20.6182L22 4.76367ZM8 28H24V16H8V28ZM12 5.23633V14H20V5.23633L19.3818 4H12.6182L12 5.23633Z" fill="#001D21" />
</svg>