<svg xmlns="http://www.w3.org/2000/svg" width="32" height="32" viewBox="0 0 32 32" fill="none">
<path d="M13.0215 9.15576H4.98633V24.6792L10.9375 21.813H24.9863V18.4507H26.9863V23.813H11.3936L2.98633 27.8638V7.15576H13.0215V9.15576Z" fill="black" />
<path fill-rule="evenodd" clip-rule="evenodd" d="M22.7041 4.13623C22.7043 4.13726 22.7057 4.13936 22.7061 4.14111C22.7071 4.14606 22.7088 4.15422 22.7109 4.16455C22.7155 4.18657 22.7218 4.22111 22.7314 4.26514C22.7508 4.35381 22.7812 4.48436 22.8213 4.646C22.9019 4.97099 23.0238 5.41892 23.1885 5.90771C23.5314 6.92516 24.0121 7.97446 24.5928 8.55518C25.1736 9.13587 26.2228 9.6166 27.2402 9.95947C27.7292 10.1242 28.177 10.246 28.502 10.3267C28.6638 10.3668 28.7941 10.3972 28.8828 10.4165C28.9271 10.4262 28.9614 10.4325 28.9834 10.437C28.994 10.4392 29.0019 10.4409 29.0068 10.4419C29.0089 10.4423 29.0108 10.4427 29.0117 10.4429L29.0127 10.4438V12.1606L29.0117 12.1616C29.0107 12.1618 29.0088 12.1622 29.0068 12.1626C29.0019 12.1636 28.994 12.1653 28.9834 12.1675C28.9614 12.172 28.9271 12.1783 28.8828 12.188C28.7941 12.2073 28.6638 12.2377 28.502 12.2778C28.1769 12.3585 27.7292 12.4803 27.2402 12.645C26.2227 12.9879 25.1735 13.4685 24.5928 14.0493C24.0121 14.6302 23.5314 15.6793 23.1885 16.6968C23.0238 17.1856 22.9019 17.6336 22.8213 17.9585C22.7812 18.1202 22.7508 18.2508 22.7314 18.3394C22.7218 18.3835 22.7154 18.418 22.7109 18.4399C22.7088 18.4504 22.707 18.4585 22.7061 18.4634C22.7057 18.4652 22.7053 18.4674 22.7051 18.4683L20.9873 18.4692L20.9863 18.4683C20.9862 18.4674 20.9857 18.4652 20.9854 18.4634C20.9844 18.4585 20.9826 18.4504 20.9805 18.4399C20.976 18.418 20.9696 18.3835 20.96 18.3394C20.9406 18.2508 20.9102 18.1202 20.8701 17.9585C20.7895 17.6336 20.6676 17.1856 20.5029 16.6968C20.1601 15.6793 19.6793 14.6302 19.0986 14.0493C18.5179 13.4685 17.4687 12.9879 16.4512 12.645C15.9622 12.4803 15.5145 12.3585 15.1895 12.2778C15.0276 12.2377 14.8973 12.2073 14.8086 12.188C14.7643 12.1783 14.73 12.172 14.708 12.1675C14.6974 12.1653 14.6895 12.1636 14.6846 12.1626C14.6826 12.1622 14.6807 12.1618 14.6797 12.1616L14.6787 12.1606V10.4438L14.6797 10.4429C14.6806 10.4427 14.6826 10.4423 14.6846 10.4419C14.6895 10.4409 14.6974 10.4392 14.708 10.437C14.73 10.4325 14.7643 10.4262 14.8086 10.4165C14.8973 10.3972 15.0276 10.3668 15.1895 10.3267C15.5145 10.246 15.9622 10.1242 16.4512 9.95947C17.4686 9.6166 18.5178 9.13587 19.0986 8.55518C19.6794 7.97446 20.16 6.92516 20.5029 5.90771C20.6676 5.41892 20.7895 4.97099 20.8701 4.646C20.9102 4.48436 20.9406 4.35381 20.96 4.26514C20.9696 4.22111 20.976 4.18657 20.9805 4.16455C20.9826 4.15422 20.9844 4.14606 20.9854 4.14111C20.9857 4.13936 20.9861 4.13726 20.9863 4.13623H22.7041ZM21.8457 7.31885C21.4909 8.19014 20.9978 9.1306 20.3359 9.79248C19.674 10.4543 18.7336 10.9475 17.8623 11.3022C18.7337 11.657 19.674 12.1501 20.3359 12.812C20.9976 13.4738 21.491 14.4136 21.8457 15.2847C22.2004 14.4136 22.6938 13.4738 23.3555 12.812C24.0172 12.1503 24.957 11.657 25.8281 11.3022C24.9571 10.9475 24.0172 10.4541 23.3555 9.79248C22.6936 9.1306 22.2005 8.19014 21.8457 7.31885Z" fill="black" />
</svg>