<svg xmlns="http://www.w3.org/2000/svg" width="32" height="32" viewBox="0 0 32 32" fill="none">
<path d="M4.02588 15.063C4.02588 20.0983 8.10776 24.1801 13.1431 24.1802C16.3919 24.1801 19.2413 22.4796 20.856 19.9214H23.1421C21.477 23.3408 18.1111 25.7784 14.1431 26.1323V29.9741H12.1431V26.1323C6.4719 25.6265 2.02588 20.8658 2.02588 15.063V14.063H4.02588V15.063Z" fill="#001D21" />
<path d="M13.1626 2.64795C14.2003 2.64795 15.1888 2.88808 16.0854 3.30908V5.62061C15.2357 5.01499 14.2255 4.64795 13.1626 4.64795C10.2179 4.64819 7.83071 7.03531 7.83057 9.97998V15.0464C7.8311 17.9907 10.2182 20.3782 13.1626 20.3784C15.0702 20.3784 16.7324 19.4449 17.6743 17.9565H19.9243C18.811 20.6216 16.1936 22.3784 13.1626 22.3784C9.11362 22.3782 5.8311 19.0953 5.83057 15.0464V9.97998C5.83071 5.93074 9.11338 2.64819 13.1626 2.64795Z" fill="#001D21" />
<path fill-rule="evenodd" clip-rule="evenodd" d="M23.6655 2.02588C23.6657 2.02679 23.6671 2.0288 23.6675 2.03076C23.6685 2.03565 23.6702 2.04365 23.6724 2.0542C23.6769 2.07616 23.6832 2.11056 23.6929 2.15479C23.7122 2.24343 23.7426 2.37384 23.7827 2.53564C23.8633 2.86063 23.9852 3.30843 24.1499 3.79736C24.4928 4.81487 24.9735 5.864 25.5542 6.44482C26.135 7.02561 27.1841 7.5062 28.2017 7.84912C28.6907 8.0139 29.1383 8.13568 29.4634 8.21631C29.6253 8.25646 29.7556 8.28681 29.8442 8.30615C29.8885 8.31582 29.9228 8.32214 29.9448 8.32666C29.9555 8.32884 29.9633 8.33056 29.9683 8.33154C29.9703 8.33195 29.9722 8.33233 29.9731 8.33252L29.9741 8.3335V10.0503L29.9731 10.0513C29.9722 10.0515 29.9703 10.0518 29.9683 10.0522C29.9633 10.0532 29.9555 10.0549 29.9448 10.0571C29.9228 10.0616 29.8886 10.068 29.8442 10.0776C29.7556 10.097 29.6253 10.1273 29.4634 10.1675C29.1384 10.2481 28.6907 10.3699 28.2017 10.5347C27.1842 10.8776 26.135 11.3582 25.5542 11.939C24.9734 12.5197 24.4928 13.5689 24.1499 14.5864C23.9852 15.0753 23.8633 15.5231 23.7827 15.8481C23.7426 16.0099 23.7122 16.1403 23.6929 16.229C23.6832 16.2732 23.6769 16.3076 23.6724 16.3296C23.6702 16.3401 23.6685 16.3481 23.6675 16.353C23.6671 16.3549 23.6667 16.3569 23.6665 16.3579L21.9487 16.3589L21.9478 16.3579C21.9476 16.3569 21.9472 16.3549 21.9468 16.353C21.9458 16.3481 21.9441 16.3401 21.9419 16.3296C21.9374 16.3076 21.931 16.2732 21.9214 16.229C21.902 16.1403 21.8717 16.0099 21.8315 15.8481C21.7509 15.5231 21.6291 15.0753 21.4644 14.5864C21.1214 13.5689 20.6408 12.5197 20.0601 11.939C19.4792 11.3582 18.4301 10.8776 17.4126 10.5347C16.9236 10.3699 16.4759 10.2481 16.1509 10.1675C15.989 10.1273 15.8587 10.097 15.77 10.0776C15.7257 10.068 15.6914 10.0616 15.6694 10.0571C15.6588 10.0549 15.6509 10.0532 15.646 10.0522C15.644 10.0518 15.6421 10.0515 15.6411 10.0513L15.6401 10.0503V8.3335L15.6411 8.33252C15.6421 8.33233 15.644 8.33195 15.646 8.33154C15.6509 8.33056 15.6588 8.32884 15.6694 8.32666C15.6914 8.32214 15.7257 8.31582 15.77 8.30615C15.8587 8.28681 15.989 8.25646 16.1509 8.21631C16.4759 8.13568 16.9236 8.0139 17.4126 7.84912C18.4302 7.5062 19.4793 7.02561 20.0601 6.44482C20.6408 5.864 21.1215 4.81487 21.4644 3.79736C21.6291 3.30843 21.7509 2.86063 21.8315 2.53564C21.8717 2.37384 21.9021 2.24343 21.9214 2.15479C21.931 2.11056 21.9374 2.07616 21.9419 2.0542C21.9441 2.04365 21.9458 2.03565 21.9468 2.03076C21.9472 2.0288 21.9476 2.02679 21.9478 2.02588H23.6655ZM22.8071 5.2085C22.4524 6.07985 21.9593 7.02015 21.2974 7.68213C20.6354 8.3441 19.6951 8.8371 18.8237 9.19189C19.6951 9.54667 20.6354 10.0397 21.2974 10.7017C21.9591 11.3634 22.4524 12.3032 22.8071 13.1743C23.1619 12.3032 23.6552 11.3634 24.3169 10.7017C24.9787 10.0399 25.9184 9.54665 26.7896 9.19189C25.9184 8.83712 24.9787 8.34388 24.3169 7.68213C23.655 7.02015 23.1619 6.07985 22.8071 5.2085Z" fill="#001D21" />
</svg>