<svg xmlns="http://www.w3.org/2000/svg" width="32" height="32" viewBox="0 0 32 32" fill="none">
<path d="M6.59766 14.7002C6.59766 19.8917 10.8066 24.1006 15.998 24.1006C21.1894 24.1004 25.3975 19.8916 25.3975 14.7002V13.7002H27.3975V14.7002C27.3975 20.6591 22.8254 25.5459 16.998 26.0527V30H14.998V26.0527C9.17031 25.5463 4.59766 20.6593 4.59766 14.7002V13.7002H6.59766V14.7002Z" fill="#001D21" />
<path fill-rule="evenodd" clip-rule="evenodd" d="M15.9883 2C20.1145 2 23.4879 5.70331 23.4883 9.63086V14.7002C23.4882 19.0196 20.114 22.2002 15.9883 22.2002C11.8462 22.2002 8.48839 18.8422 8.48828 14.7002V9.5C8.48841 5.35798 11.8462 2 15.9883 2ZM15.9883 4C12.9508 4 10.4884 6.46255 10.4883 9.5V14.7002C10.4884 17.7376 12.9508 20.2002 15.9883 20.2002C19.0421 20.2002 21.4882 17.8826 21.4883 14.7002V9.63086C21.4879 6.73179 18.9354 4 15.9883 4Z" fill="#001D21" />
</svg>