<svg xmlns="http://www.w3.org/2000/svg" fill="none" viewBox="0 0 32 32"><path fill="#001d21" d="M6.5 10.7A12 12 0 0 0 4 17h3v2H4a12 12 0 0 0 3 7h14.8l2 2H6.2A14 14 0 0 1 5 9.3z"/><path fill="#001d21" d="M6.5 10.7A12 12 0 0 0 4 17h3v2H4a12 12 0 0 0 3 7h14.8l2 2H6.2A14 14 0 0 1 5 9.3zM27.7 26.3l-1.4 1.4-22-22 1.4-1.4z"/><path fill="#001d21" d="m27.7 26.3-1.4 1.4-22-22 1.4-1.4zM16 4a14 14 0 0 1 12.5 20.3L27 22.8a12 12 0 0 0 1-3.8h-3v-2h3a12 12 0 0 0-2.8-6.7l-2 2-1.4-1.5 2-2A12 12 0 0 0 17 6v3h-2V6q-2 .3-3.8 1L9.7 5.5Q12.7 4 16 4"/><path fill="#001d21" d="M16 4a14 14 0 0 1 12.5 20.3L27 22.8a12 12 0 0 0 1-3.8h-3v-2h3a12 12 0 0 0-2.8-6.7l-2 2-1.4-1.5 2-2A12 12 0 0 0 17 6v3h-2V6q-2 .3-3.8 1L9.7 5.5Q12.7 4 16 4M14.8 19H11v2h5.8l2 2H9v-6h3.8z"/><path fill="#001d21" d="M14.8 19H11v2h5.8l2 2H9v-6h3.8zM23 18.8 21.2 17H23z"/><path fill="#001d21" d="M23 18.8 21.2 17H23z"/></svg>