<svg xmlns="http://www.w3.org/2000/svg" width="32" height="32" viewBox="0 0 32 32" fill="none">
<path d="M27.9941 26.583L26.5801 27.9971L4 5.41699L5.41406 4.00293L27.9941 26.583Z" fill="#001D21" />
<path d="M6.52441 10.7725C7.07336 13.2148 8.08008 15.8221 9.70117 18.1719C12.0654 21.5982 15.7532 24.5125 21.3203 25.5684L23.6484 27.8965C16.0593 27.2764 11.0926 23.7087 8.05566 19.3076C5.64751 15.8171 4.60037 11.8423 4.20801 8.45508L6.52441 10.7725Z" fill="#001D21" />
<path d="M28 18.8418V23.7627L26 21.7627V20.377L24.1064 19.8691L21.457 17.2197L21.5137 17.1035L28 18.8418Z" fill="#001D21" />
<path d="M14.8652 10.5244L14.7949 10.5576L12.0732 7.83594L11.5918 6.03809H10.2754L8.27539 4.03809H13.127L14.8652 10.5244Z" fill="#001D21" />
</svg>