<svg xmlns="http://www.w3.org/2000/svg" fill="none" viewBox="0 0 32 32"><path fill="#001d21" fill-rule="evenodd" d="M16 8a5.5 5.5 0 1 1 0 11 5.5 5.5 0 0 1 0-11m0 2a3.5 3.5 0 1 0 0 7 3.5 3.5 0 0 0 0-7" clip-rule="evenodd"/><path fill="#001d21" fill-rule="evenodd" d="M16.6 2c6 .3 10.9 5.3 10.9 11.5v.3C27.3 20 20.7 25.3 16 30l-.8-.8C10.9 25 4.7 19.6 4.5 13.8v-.3C4.5 7 9.6 2 16 2zM16 4a9.5 9.5 0 0 0-9.5 9.5q.1 3.6 3.7 7.7 2.8 3.2 5.8 6 3.2-3 6-6.2 3.4-3.8 3.5-7.5C25.5 8.2 21.2 4 16 4" clip-rule="evenodd"/></svg>