<svg xmlns="http://www.w3.org/2000/svg" width="32" height="32" viewBox="0 0 32 32" fill="none">
<path fill-rule="evenodd" clip-rule="evenodd" d="M16.0005 7.98242C19.038 7.98242 21.5005 10.4449 21.5005 13.4824C21.5005 16.52 19.0381 18.9824 16.0005 18.9824C12.963 18.9823 10.5005 16.5199 10.5005 13.4824C10.5005 10.445 12.9631 7.98255 16.0005 7.98242ZM16.0005 9.98242C14.0676 9.98255 12.5005 11.5495 12.5005 13.4824C12.5005 15.4153 14.0676 16.9823 16.0005 16.9824C17.9335 16.9824 19.5005 15.4154 19.5005 13.4824C19.5005 11.5495 17.9335 9.98242 16.0005 9.98242Z" fill="#001D21" />
<path fill-rule="evenodd" clip-rule="evenodd" d="M16.5923 1.99609C22.6684 2.30446 27.5005 7.32963 27.5005 13.4824L27.4956 13.7793C27.2917 20.0013 20.7379 25.2812 16.0005 30.0186L15.1538 29.1855C10.8579 25.0089 4.70819 19.6194 4.50439 13.7793L4.49951 13.4824C4.49954 7.13091 9.64896 1.98145 16.0005 1.98145L16.5923 1.99609ZM16.0005 3.98145C10.7535 3.98145 6.49954 8.23548 6.49951 13.4824C6.4997 15.9303 7.89865 18.5145 10.1548 21.2207C11.9609 23.3871 14.0553 25.3454 15.9976 27.2188C18.0951 25.1885 20.2245 23.208 22.0161 21.0498C24.1941 18.4262 25.5003 15.9503 25.5005 13.4824C25.5005 8.23572 21.2471 3.98184 16.0005 3.98145Z" fill="#001D21" />
</svg>