<svg xmlns="http://www.w3.org/2000/svg" width="32" height="32" viewBox="0 0 32 32" fill="none">
<path d="M6.8125 11.0557C6.60845 11.8303 6.49903 12.6438 6.49902 13.4824C6.49933 15.9301 7.89833 18.5147 10.1543 21.2207C11.9604 23.387 14.0549 25.3454 15.9971 27.2188C17.1863 26.0677 18.384 24.9301 19.5264 23.7695L20.9404 25.1836C19.2892 26.8618 17.5483 28.4702 16 30.0186L15.1533 29.1855C10.8575 25.009 4.7079 19.6192 4.50391 13.7793L4.49902 13.4824C4.49904 12.0692 4.7553 10.7155 5.22168 9.46484L6.8125 11.0557Z" fill="#001D21" />
<path d="M27.9971 26.6016L26.583 28.0156L4.00293 5.43555L5.41699 4.02148L27.9971 26.6016Z" fill="#001D21" />
<path d="M16.5918 1.99609C22.6679 2.30446 27.4999 7.32965 27.5 13.4824L27.4951 13.7793C27.4159 16.1942 26.3781 18.4657 24.8633 20.6201L23.4258 19.1836C24.7441 17.2374 25.4998 15.3581 25.5 13.4824C25.4999 8.23575 21.2466 3.98184 16 3.98145C13.8162 3.98156 11.8048 4.71919 10.2002 5.95801L8.77637 4.53418C10.7508 2.93812 13.2636 1.98156 16 1.98145L16.5918 1.99609Z" fill="#001D21" />
<path d="M16 7.98242C19.0375 7.98242 21.4999 10.4449 21.5 13.4824C21.4999 14.5593 21.1892 15.563 20.6543 16.4111L19.1816 14.9395C19.3853 14.4957 19.5 14.0026 19.5 13.4824C19.4999 11.5495 17.933 9.98242 16 9.98242C15.4797 9.98253 14.9858 10.0961 14.542 10.2998L13.0703 8.82812C13.9186 8.29295 14.923 7.98256 16 7.98242Z" fill="#001D21" />
</svg>