<svg xmlns="http://www.w3.org/2000/svg" width="32" height="32" viewBox="0 0 32 32" fill="none">
<path d="M16 3.99902C16.0702 3.99902 16.1386 4.0067 16.2047 4.02047H16.9983V14.9968H27.9795V15.7953C27.9933 15.8613 28 15.9298 28 16C28 16.0698 27.9932 16.138 27.9795 16.2038V16.9934H27.1041C27.0705 16.9968 27.0361 16.9983 27.0017 16.9983H16.9983V27.9795H16.2008C16.136 27.9928 16.0687 27.999 16 27.999C15.9312 27.999 15.864 27.9928 15.7992 27.9795H15.0017V16.9983H4.99829C4.96374 16.9983 4.92957 16.9968 4.89593 16.9934H4.02047V16.2008C4.00722 16.1359 4 16.0688 4 16C4 15.9312 4.00722 15.8641 4.02047 15.7992V14.9968H15.0017V4.02047H15.7953C15.8614 4.00668 15.9298 3.99903 16 3.99902Z" fill="#001D21" />
</svg>