<svg xmlns="http://www.w3.org/2000/svg" width="32" height="32" viewBox="0 0 32 32" fill="none">
<path d="M15.7568 20H7.55762L6 23.1152V28H4V22.6436L4.10547 22.4316L6.32129 18H13.7578L15.7568 20Z" fill="#001D21" />
<path d="M27.9971 26.583L26.583 27.9971L4.00293 5.41699L5.41699 4.00293L27.9971 26.583Z" fill="#001D21" />
<path d="M27.8936 22.4209L28 22.6318V23.7568L24.6426 20.3994L24.4424 20H24.2432L22.2432 18H25.6777L27.8936 22.4209Z" fill="#001D21" />
<path d="M16 2C19.8659 2.00013 23 5.13412 23 9C23 11.6418 21.5354 13.9401 19.375 15.1318L17.877 13.6338C19.7078 12.8913 21 11.0973 21 9C21 6.23869 18.7613 4.00013 16 4C13.9029 4 12.1078 5.29141 11.3652 7.12207L9.86621 5.62402C11.0579 3.46355 13.3582 2 16 2Z" fill="#001D21" />
</svg>