<svg xmlns="http://www.w3.org/2000/svg" width="32" height="32" viewBox="0 0 32 32" fill="none">
<path d="M16.4957 3.98486C22.2204 3.98491 27.0525 7.58214 27.7897 13.3364L25.8063 13.5903C25.2164 8.98599 21.3748 5.98491 16.4957 5.98486C12.046 5.98504 8.38134 8.84603 7.36487 12.8091L10.7887 11.1733L11.651 12.978L5.20569 16.0591L2.04358 9.44678L3.84827 8.5835L5.49866 12.0366C6.84314 7.30233 11.2738 3.98503 16.4957 3.98486Z" fill="#001D21" />
<path d="M15.5043 28.0152C9.77961 28.0151 4.94746 24.4179 4.21033 18.6636L6.19373 18.4097C6.78363 23.0141 10.6252 26.0151 15.5043 26.0152C19.954 26.015 23.6187 23.154 24.6351 19.191L21.2113 20.8267L20.349 19.022L26.7943 15.941L29.9564 22.5533L28.1517 23.4166L26.5013 19.9634C25.1569 24.6977 20.7262 28.015 15.5043 28.0152Z" fill="#001D21" />
</svg>