<svg xmlns="http://www.w3.org/2000/svg" width="32" height="32" viewBox="0 0 32 32" fill="none">
<path d="M28 26.5859L26.589 28L4 5.42768L5.41096 4.01362L28 26.5859ZM10.021 14.1904V28H4.03417V14H9.831L10.021 14.1904ZM15.0101 19.1904V26H17.0057V21.1904L19.0013 23.1904V28H13.0144V17.1904L15.0101 19.1904ZM23.8003 28H21.9947V26.1904L23.8003 28ZM6.02978 26H8.0254V16H6.02978V26ZM27.9816 23.8164L25.9859 21.8164V6H23.9903V19.8164L21.9947 17.8164V4H27.9816V23.8164ZM19.0013 14.8164L17.0057 12.8164V11H15.1932L13.1976 9H19.0013V14.8164Z" fill="#001D21" />
</svg>