<svg xmlns="http://www.w3.org/2000/svg" width="32" height="32" viewBox="0 0 32 32" fill="none">
<path d="M12.6098 2C7.02633 2 2.50007 6.52627 2.50007 12.1097C2.50007 17.6931 7.02633 22.2194 12.6098 22.2194C15.0377 22.2194 17.2654 21.3633 19.0083 19.9368L27.0782 28.0077L28.5078 26.5782L20.4379 18.5072C21.8638 16.7645 22.7195 14.5371 22.7195 12.1097C22.7195 6.52627 18.1932 2 12.6098 2ZM12.6098 4.02194C17.0765 4.02194 20.6975 7.64295 20.6975 12.1097C20.6975 16.5764 17.0765 20.1975 12.6098 20.1975C8.14302 20.1975 4.52201 16.5764 4.52201 12.1097C4.52201 7.64295 8.14302 4.02194 12.6098 4.02194Z" fill="#001D21" />
</svg>