<svg xmlns="http://www.w3.org/2000/svg" width="32" height="32" viewBox="0 0 32 32" fill="none">
<path fill-rule="evenodd" clip-rule="evenodd" d="M15.9995 9.90088C19.3677 9.90101 22.0988 12.6314 22.0991 15.9995L22.0913 16.314C21.9279 19.5364 19.2625 22.099 15.9995 22.0991L15.686 22.0913C12.4635 21.9279 9.90088 19.2627 9.90088 15.9995C9.90115 12.6315 12.6315 9.90112 15.9995 9.90088ZM15.9995 11.9009C13.736 11.9011 11.9012 13.736 11.9009 15.9995C11.9009 18.2632 13.7359 20.0989 15.9995 20.0991C18.2633 20.099 20.0991 18.2633 20.0991 15.9995C20.0988 13.736 18.2631 11.901 15.9995 11.9009Z" fill="#001D21" />
<path fill-rule="evenodd" clip-rule="evenodd" d="M19.7993 5.13721C20.1064 5.24459 20.4071 5.3655 20.7017 5.49756L23.9116 4.3667L27.2788 7.73291L26.2231 10.7212C26.477 11.2119 26.6963 11.7228 26.8784 12.2515L29.8296 13.6626V18.4233L26.8442 19.8501C26.6783 20.3175 26.4817 20.7701 26.2593 21.2075L27.2788 24.0962L23.9126 27.4624L20.9165 26.4048C20.5542 26.5763 20.1812 26.7283 19.7993 26.8618L18.3813 29.8296H13.6196L12.1997 26.8618C11.8179 26.7282 11.4448 26.5763 11.0825 26.4048L8.08838 27.4624L4.72217 24.0962L5.74072 21.2095C5.51775 20.7712 5.32103 20.3175 5.15479 19.8491L2.17041 18.4233V13.6626L5.11963 12.2515C5.30201 11.722 5.52255 11.2106 5.77686 10.7192L4.72217 7.73291L8.08936 4.3667L11.2974 5.49756C11.5919 5.36549 11.8927 5.24461 12.1997 5.13721L13.6196 2.17041H18.3813L19.7993 5.13721ZM13.645 6.75049L12.8599 7.0249C12.61 7.11232 12.362 7.21232 12.1157 7.32275L11.3862 7.6499L8.61182 6.67139L7.02686 8.25537L7.95068 10.8696L7.55322 11.6382C7.3424 12.0455 7.16007 12.4679 7.01025 12.9028L6.73779 13.6938L4.17041 14.9224V17.1616L6.76318 18.4009L7.03955 19.1802C7.17556 19.5634 7.33747 19.9377 7.52295 20.3022L7.91162 21.0669L7.02686 23.5728L8.61084 25.1567L11.1938 24.2446L11.938 24.5972C12.0855 24.667 12.2366 24.7336 12.3901 24.7964L12.8599 24.9741L13.645 25.2485L14.8794 27.8296H17.1206L18.353 25.2485L19.1392 24.9741C19.4578 24.8626 19.7656 24.737 20.061 24.5972L20.8052 24.2446L23.3892 25.1567L24.9731 23.5728L24.0884 21.0649L24.4771 20.3013C24.6625 19.9366 24.8239 19.5629 24.9595 19.1812L25.2358 18.4019L27.8296 17.1616V14.9224L25.2603 13.6948L24.9878 12.9028C24.8374 12.4664 24.6562 12.0449 24.4468 11.6401L24.0493 10.8716L24.9722 8.25537L23.3882 6.67139L20.6128 7.6499L19.8833 7.32275C19.6367 7.21217 19.3888 7.11221 19.1392 7.0249L18.354 6.75049L17.1206 4.17041H14.8794L13.645 6.75049Z" fill="#001D21" />
</svg>