<svg xmlns="http://www.w3.org/2000/svg" width="32" height="32" viewBox="0 0 32 32" fill="none">
<path fill-rule="evenodd" clip-rule="evenodd" d="M24 3C26.7614 3 29 5.23858 29 8C29 10.7614 26.7614 13 24 13C22.3608 13 20.906 12.211 19.9941 10.9922L12.7568 14.46C12.9138 14.9452 13 15.4625 13 16C13 16.5375 12.9138 17.0548 12.7568 17.54L19.9932 21.0078C20.905 19.7888 22.3605 19 24 19C26.7614 19 29 21.2386 29 24C29 26.7614 26.7614 29 24 29C21.2386 29 19 26.7614 19 24C19 23.5922 19.0495 23.1959 19.1416 22.8164L11.7676 19.2842C10.851 20.3348 9.50378 21 8 21C5.23858 21 3 18.7614 3 16C3 13.2386 5.23858 11 8 11C9.50401 11 10.8519 11.6649 11.7686 12.7158L19.1416 9.18359C19.0495 8.8041 19 8.40783 19 8C19 5.23858 21.2386 3 24 3ZM24 21C22.3431 21 21 22.3431 21 24C21 25.6569 22.3431 27 24 27C25.6569 27 27 25.6569 27 24C27 22.3431 25.6569 21 24 21ZM8 13C6.34315 13 5 14.3431 5 16C5 17.6569 6.34315 19 8 19C9.65685 19 11 17.6569 11 16C11 14.3431 9.65685 13 8 13ZM24 5C22.3431 5 21 6.34315 21 8C21 9.65685 22.3431 11 24 11C25.6569 11 27 9.65685 27 8C27 6.34315 25.6569 5 24 5Z" fill="#001D21" />
</svg>