<svg xmlns="http://www.w3.org/2000/svg" width="32" height="32" viewBox="0 0 32 32" fill="none">
<path fill-rule="evenodd" clip-rule="evenodd" d="M15.8408 5.93799C15.8411 5.9396 15.8411 5.9429 15.8418 5.94678C15.8435 5.95514 15.8469 5.96894 15.8506 5.98682C15.858 6.02276 15.8693 6.07785 15.8848 6.14893C15.9158 6.29139 15.9633 6.50005 16.0273 6.7583C16.1559 7.27639 16.3502 7.99038 16.6133 8.771C17.1546 10.3771 17.9319 12.0974 18.9102 13.0757C19.8884 14.054 21.6087 14.8313 23.2148 15.3726C23.9955 15.6356 24.7094 15.83 25.2275 15.9585C25.4859 16.0226 25.6944 16.07 25.8369 16.1011C25.9081 16.1166 25.963 16.1279 25.999 16.1353C26.017 16.1389 26.0307 16.1424 26.0391 16.144C26.043 16.1448 26.0462 16.1447 26.0479 16.145L26.0488 16.146V18.1089L26.0479 18.1099C26.0462 18.1102 26.043 18.1101 26.0391 18.1108C26.0307 18.1125 26.017 18.1159 25.999 18.1196C25.963 18.127 25.9081 18.1383 25.8369 18.1538C25.6944 18.1849 25.4859 18.2323 25.2275 18.2964C24.7094 18.4249 23.9955 18.6192 23.2148 18.8823C21.6087 19.4236 19.8885 20.201 18.9102 21.1792C17.9319 22.1575 17.1546 23.8778 16.6133 25.4839C16.3502 26.2645 16.1559 26.9785 16.0273 27.4966C15.9633 27.7548 15.9158 27.9635 15.8848 28.106C15.8693 28.177 15.858 28.2321 15.8506 28.2681C15.8469 28.2859 15.8435 28.2997 15.8418 28.3081C15.841 28.3119 15.8411 28.3152 15.8408 28.3169L15.8398 28.3179H13.877L13.876 28.3169C13.8757 28.3152 13.8758 28.3119 13.875 28.3081C13.8733 28.2997 13.8699 28.2859 13.8662 28.2681C13.8588 28.2321 13.8475 28.177 13.832 28.106C13.8009 27.9635 13.7535 27.7548 13.6895 27.4966C13.5609 26.9785 13.3666 26.2645 13.1035 25.4839C12.5622 23.8778 11.7849 22.1574 10.8066 21.1792C9.82832 20.201 8.10806 19.4236 6.50195 18.8823C5.72128 18.6192 5.00738 18.4249 4.48926 18.2964C4.23092 18.2323 4.02238 18.1849 3.87988 18.1538C3.80872 18.1383 3.75375 18.127 3.71777 18.1196C3.69981 18.1159 3.68612 18.1125 3.67773 18.1108C3.67377 18.1101 3.67059 18.1102 3.66895 18.1099L3.66797 18.1089V16.146L3.66895 16.145C3.67061 16.1447 3.67378 16.1448 3.67773 16.144C3.68613 16.1424 3.69982 16.1389 3.71777 16.1353C3.75376 16.1279 3.80873 16.1166 3.87988 16.1011C4.02239 16.07 4.23093 16.0226 4.48926 15.9585C5.0074 15.83 5.72128 15.6356 6.50195 15.3726C8.10811 14.8313 9.82836 14.054 10.8066 13.0757C11.7849 12.0974 12.5622 10.3771 13.1035 8.771C13.3666 7.99038 13.5609 7.27639 13.6895 6.7583C13.7535 6.50005 13.801 6.29139 13.832 6.14893C13.8475 6.07785 13.8588 6.02276 13.8662 5.98682C13.8699 5.96894 13.8733 5.95514 13.875 5.94678C13.8757 5.9429 13.8757 5.9396 13.876 5.93799L13.877 5.93701H15.8398L15.8408 5.93799ZM14.8584 9.80713C14.2978 11.3819 13.4441 13.2663 12.2207 14.4897C10.9973 15.7131 9.11287 16.5668 7.53809 17.1274C9.11283 17.688 10.9973 18.5418 12.2207 19.7651C13.4438 20.9883 14.2978 22.8722 14.8584 24.4468C15.419 22.8722 16.273 20.9883 17.4961 19.7651C18.7193 18.542 20.6032 17.688 22.1777 17.1274C20.6031 16.5668 18.7193 15.7129 17.4961 14.4897C16.2727 13.2663 15.419 11.3819 14.8584 9.80713Z" fill="#001D21" />
<path fill-rule="evenodd" clip-rule="evenodd" d="M24.4717 3.68604C24.4723 3.68902 24.4733 3.6944 24.4746 3.70068C24.4774 3.71409 24.4815 3.73546 24.4873 3.76221C24.4992 3.81667 24.5173 3.89721 24.542 3.99658C24.5917 4.1971 24.6671 4.47365 24.7686 4.7749C24.9813 5.40603 25.2761 6.04302 25.623 6.39014C25.9702 6.73717 26.607 7.03189 27.2383 7.24463C27.5398 7.34623 27.816 7.42142 28.0166 7.47119C28.1166 7.49599 28.1974 7.51497 28.252 7.52686C28.2791 7.53277 28.3001 7.53681 28.3135 7.53955C28.32 7.54088 28.3253 7.54191 28.3281 7.54248H28.3301V8.76416C28.3311 8.76938 28.331 8.77002 28.3311 8.77002L28.3281 8.771C28.3252 8.77157 28.32 8.77259 28.3135 8.77393C28.3001 8.77667 28.2791 8.7807 28.252 8.78662C28.1974 8.79852 28.1166 8.81651 28.0166 8.84131C27.816 8.89108 27.5398 8.96627 27.2383 9.06787C26.6069 9.28066 25.9702 9.57524 25.623 9.92236C25.276 10.2696 24.9813 10.9063 24.7686 11.5376C24.667 11.839 24.5917 12.1154 24.542 12.3159C24.5172 12.4157 24.4992 12.4968 24.4873 12.5513C24.4814 12.5782 24.4773 12.5995 24.4746 12.6128C24.4733 12.6192 24.4722 12.6246 24.4717 12.6274L24.4707 12.6294C24.4707 12.6294 24.4705 12.6303 24.4658 12.6294H23.2432V12.6274C23.2426 12.6246 23.2415 12.6191 23.2402 12.6128C23.2375 12.5995 23.2334 12.5782 23.2275 12.5513C23.2157 12.4968 23.1966 12.4157 23.1719 12.3159C23.1221 12.1154 23.0469 11.839 22.9453 11.5376C22.7326 10.9063 22.4379 10.2696 22.0908 9.92236C21.7436 9.57535 21.1068 9.28061 20.4756 9.06787C20.1742 8.96631 19.8978 8.89106 19.6973 8.84131C19.5977 8.81661 19.5174 8.79851 19.4629 8.78662C19.4359 8.78073 19.4148 8.77668 19.4014 8.77393C19.3948 8.77258 19.3897 8.77158 19.3867 8.771C19.3854 8.77073 19.3843 8.77018 19.3838 8.77002V7.54248H19.3867C19.3896 7.5419 19.3947 7.54091 19.4014 7.53955C19.4147 7.5368 19.4358 7.53276 19.4629 7.52686C19.5174 7.51497 19.5976 7.49592 19.6973 7.47119C19.8978 7.42144 20.1741 7.34621 20.4756 7.24463C21.1069 7.03189 21.7436 6.73718 22.0908 6.39014C22.4379 6.04307 22.7325 5.40618 22.9453 4.7749C23.0468 4.47359 23.1221 4.19713 23.1719 3.99658C23.1966 3.8971 23.2156 3.81669 23.2275 3.76221C23.2334 3.7354 23.2375 3.71409 23.2402 3.70068C23.2415 3.69434 23.2426 3.68901 23.2432 3.68604C23.2434 3.68466 23.2431 3.68263 23.2432 3.68213H24.4707C24.4708 3.6826 24.4714 3.68458 24.4717 3.68604ZM23.8564 5.8833C23.6401 6.37972 23.3529 6.89755 22.9756 7.2749C22.5982 7.65223 22.0804 7.93943 21.584 8.15576C22.0806 8.37216 22.598 8.66103 22.9756 9.03857C23.3527 9.41588 23.6402 9.933 23.8564 10.4292C24.0728 9.93273 24.3619 9.41604 24.7393 9.03857C25.1167 8.66114 25.6334 8.37214 26.1299 8.15576C25.6337 7.9395 25.1166 7.65201 24.7393 7.2749C24.3618 6.89742 24.0728 6.37988 23.8564 5.8833Z" fill="#001D21" />
</svg>