<svg xmlns="http://www.w3.org/2000/svg" width="32" height="32" viewBox="0 0 32 32" fill="none">
<path d="M6.46973 10.7153C6.03552 11.2823 5.65041 11.8889 5.32129 12.5288C4.62168 13.8897 4.17415 15.4018 4.04199 17.0034H7V19.0034H4.04395C4.24573 21.444 5.17865 23.6751 6.62207 25.4819C6.64198 25.5069 6.66154 25.5324 6.68164 25.5571L9.30273 24.3042L10.166 26.1089L6.2041 28.0034C3.6106 25.4624 2.00013 21.921 2 18.0034C2.00003 14.7085 3.1382 11.6792 5.04297 9.2876L6.46973 10.7153Z" fill="#001D21" />
<path d="M27.9971 26.5767L26.583 27.9907L4.00293 5.41064L5.41699 3.99658L27.9971 26.5767Z" fill="#001D21" />
<path d="M21.8896 26.1353L21.834 26.1089L21.8428 26.0884L21.8896 26.1353Z" fill="#001D21" />
<path d="M16 4.00244C23.7319 4.00251 29.9999 10.2715 30 18.0034C29.9999 20.2589 29.4645 22.3889 28.5166 24.2759L27.0078 22.7671C27.453 21.7403 27.7629 20.641 27.9053 19.4888L27.9561 19.0034H25V17.0034H27.958C27.7466 14.4411 26.7282 12.1086 25.1602 10.2563L19.8281 15.5874L18.4141 14.1733L23.7461 8.84229C22.0097 7.37267 19.8515 6.38509 17.4775 6.09326L17 6.04443V9.00342H15V6.04443C14.3594 6.09729 13.7329 6.20038 13.125 6.3501C12.4706 6.51133 11.8376 6.72686 11.2305 6.99072L9.72461 5.48486C11.6122 4.53659 13.7437 4.00248 16 4.00244Z" fill="#001D21" />
<path d="M16.6748 20.9204C16.4577 20.9704 16.2323 20.9995 16 20.9995C14.3434 20.9994 13.0003 19.6561 13 17.9995C13 17.767 13.0281 17.541 13.0781 17.3237L16.6748 20.9204Z" fill="#001D21" />
</svg>