<svg xmlns="http://www.w3.org/2000/svg" width="32" height="32" viewBox="0 0 32 32" fill="none">
<path fill-rule="evenodd" clip-rule="evenodd" d="M16 3.99951C23.7319 3.99958 30 10.2686 30 18.0005C29.9999 21.9182 28.3895 25.4595 25.7959 28.0005L21.834 26.106L22.6973 24.3013L25.3174 25.5542C25.95 24.7752 26.486 23.9152 26.9092 22.9927C27.4093 21.9016 27.7523 20.7235 27.9053 19.4858L27.9561 19.0005H25V17.0005H27.958C27.7466 14.4381 26.7282 12.1057 25.1602 10.2534L18.7061 16.7075C18.8925 17.0983 19 17.5347 19 17.9966C18.9997 19.6532 17.6567 20.9966 16 20.9966C14.3434 20.9965 13.0003 19.6531 13 17.9966C13 16.3398 14.3433 14.9967 16 14.9966C16.4637 14.9966 16.902 15.1037 17.2939 15.2915L23.7461 8.83936C22.0097 7.36973 19.8515 6.38216 17.4775 6.09033L17 6.0415V9.00049H15V6.0415C14.3594 6.09436 13.7329 6.19745 13.125 6.34717C11.3017 6.7964 9.64291 7.66372 8.25391 8.83936L10.207 10.7935L8.79297 12.2075L6.83887 10.2534C6.25114 10.9478 5.74096 11.7099 5.32129 12.5259C4.62168 13.8867 4.17414 15.3989 4.04199 17.0005H7V19.0005H4.04395C4.24573 21.441 5.17864 23.6722 6.62207 25.479C6.64199 25.5039 6.66153 25.5294 6.68164 25.5542L9.30273 24.3013L10.166 26.106L6.2041 28.0005C3.61058 25.4595 2.00013 21.9181 2 18.0005C2.00003 10.2686 8.26815 3.99964 16 3.99951ZM16 16.9966C15.4478 16.9967 15 17.4444 15 17.9966C15.0003 18.5486 15.448 18.9965 16 18.9966C16.5521 18.9966 16.9997 18.5486 17 17.9966C17 17.4443 16.5523 16.9966 16 16.9966Z" fill="#001D21" />
</svg>