<svg xmlns="http://www.w3.org/2000/svg" width="32" height="32" viewBox="0 0 32 32" fill="none">
<path d="M16.4082 18.8799C17.3041 18.8799 17.9443 19.4878 17.9443 20.3037C17.9443 21.1037 17.3041 21.7597 16.4082 21.7598C15.5122 21.7598 14.8721 21.1037 14.8721 20.3037C14.8722 19.4878 15.5123 18.8799 16.4082 18.8799Z" fill="#001D21" />
<path d="M16.2324 10.2402C18.6322 10.2403 20.2959 11.3123 20.2959 13.2002C20.2957 15.7599 17.6084 16.0482 17.6084 17.7441H15.1924C15.1924 15.5043 17.6881 15.0079 17.6885 13.6162C17.6885 12.8322 17 12.3359 15.96 12.3359C14.936 12.336 14.1516 12.7836 13.6396 13.5195L11.7041 12.3838C12.5681 11.0718 14.0725 10.2402 16.2324 10.2402Z" fill="#001D21" />
<path fill-rule="evenodd" clip-rule="evenodd" d="M16 2C23.732 2 30 8.26801 30 16C29.9999 23.7319 23.7319 30 16 30C8.26805 30 2.00007 23.7319 2 16C2 8.26801 8.26801 2 16 2ZM16 4C9.37258 4 4 9.37258 4 16C4.00007 22.6274 9.37262 28 16 28C22.6274 28 27.9999 22.6274 28 16C28 9.37258 22.6274 4 16 4Z" fill="#001D21" />
</svg>