<svg xmlns="http://www.w3.org/2000/svg" width="32" height="32" viewBox="0 0 32 32" fill="none">
<path fill-rule="evenodd" clip-rule="evenodd" d="M23.501 15.4946L18.9805 17.6636C18.9919 17.7701 18.999 17.8782 18.999 17.9878C18.999 19.6479 17.6532 20.9937 15.9932 20.9937C14.3331 20.9936 12.9874 19.6478 12.9873 17.9878C12.9873 16.3277 14.3331 14.982 15.9932 14.9819C16.822 14.9819 17.5725 15.3173 18.1162 15.8599L22.6357 13.6919L23.501 15.4946ZM15.9932 16.9819C15.4377 16.982 14.9873 17.4323 14.9873 17.9878C14.9874 18.5433 15.4377 18.9936 15.9932 18.9937C16.5487 18.9937 16.999 18.5433 16.999 17.9878C16.999 17.4323 16.5487 16.9819 15.9932 16.9819Z" fill="#001D21" />
<path fill-rule="evenodd" clip-rule="evenodd" d="M19.9795 4.00635H17.0098V6.03564C23.1645 6.54856 28 11.7064 28 17.9937C28 24.621 22.6273 29.9935 16 29.9937C9.37258 29.9937 4 24.6211 4 17.9937C4 11.6996 8.84546 6.53707 15.0098 6.03369V4.00635H12.0176V2.00635H19.9795V4.00635ZM16 7.99365C10.4772 7.99365 6 12.4708 6 17.9937C6 23.5165 10.4772 27.9937 16 27.9937C21.5227 27.9935 26 23.5164 26 17.9937C26 12.4709 21.5227 7.99378 16 7.99365Z" fill="#001D21" />
</svg>