<svg xmlns="http://www.w3.org/2000/svg" width="32" height="32" viewBox="0 0 32 32" fill="none">
<path d="M12.7231 16.6724L6.02393 23.6382V23.8188L7.64502 25.5073L8.11279 25.9761H8.33057L15.311 19.2603L18.0063 21.9556C17.3779 21.8311 16.7508 21.6096 16.1372 21.2749L9.14404 27.9985H7.23096L6.1792 26.9019L4.00146 24.7241V22.8237L10.7251 15.8306C10.3972 15.2293 10.1771 14.6152 10.0513 13.9995L12.7231 16.6724Z" fill="#001D21" />
<path d="M27.9985 26.5815L26.5845 27.9956L4.00439 5.41553L5.41846 4.00146L27.9985 26.5815Z" fill="#001D21" />
<path d="M26.7876 9.02295C29.0125 12.5907 27.7234 16.7156 25.272 19.2866C25.0373 19.5327 24.787 19.7666 24.5259 19.9888L23.0923 18.5552C23.3397 18.3515 23.5798 18.1305 23.8081 17.8911C25.4994 16.1174 26.3445 13.6626 25.6724 11.4243L21.0171 15.8999L20.9585 15.9595L20.9565 15.9575L20.7202 16.1841L19.2915 14.7544L19.5796 14.478L26.1147 7.94385L26.7876 9.02295Z" fill="#001D21" />
<path d="M12.7134 6.6958C15.2845 4.24467 19.4095 2.95524 22.9771 5.18018L24.0562 5.854L17.4702 12.439L17.4692 12.438L17.2271 12.6899L15.7964 11.2603L20.5718 6.29443C18.3346 5.6241 15.8817 6.46954 14.1089 8.15967C13.8639 8.39327 13.6368 8.63852 13.4292 8.89209L11.9956 7.4585C12.222 7.19114 12.4619 6.93557 12.7134 6.6958Z" fill="#001D21" />
</svg>