<svg xmlns="http://www.w3.org/2000/svg" width="32" height="32" viewBox="0 0 32 32" fill="none">
<path fill-rule="evenodd" clip-rule="evenodd" d="M12.7819 6.78443C15.3242 4.36044 19.4025 3.08514 22.9303 5.2854L23.9977 5.95142L17.486 12.4631L17.485 12.4622L17.1989 12.76V12.7727L19.2262 14.7991H19.2389L19.5709 14.4788L26.0328 8.01783L26.6989 9.08521C28.8989 12.6131 27.6239 16.6915 25.1998 19.2336C22.9475 21.5955 19.3754 22.9492 16.1676 21.1995L9.25256 27.8479H7.36096L6.32092 26.7639L4.1676 24.6106V22.7317L10.816 15.8167C9.06612 12.6087 10.4199 9.03684 12.7819 6.78443ZM20.5524 6.38697C18.34 5.72405 15.9147 6.56025 14.1617 8.23169C12.0474 10.248 11.2818 13.0972 12.8922 15.3733L13.3698 16.0481L6.1676 23.5364V23.7151L7.77014 25.385L8.23303 25.8479H8.44788L15.9362 18.6458L16.611 19.1233C18.887 20.7335 21.7364 19.9679 23.7526 17.8538C25.425 16.0999 26.2611 13.6726 25.5963 11.4592L20.9928 15.885L20.9352 15.9436L20.9332 15.9417L20.0436 16.7991H18.3971L18.1041 16.5061L17.8004 16.2034L15.1989 13.6018V11.9553L20.5524 6.38697Z" fill="#001D21" />
</svg>