<svg xmlns="http://www.w3.org/2000/svg" width="32" height="32" viewBox="0 0 32 32" fill="none">
<path fill-rule="evenodd" clip-rule="evenodd" d="M19.8652 3.01465L20.9062 5.2002L21.0029 5.4043V7.05078H29.9717V9.05078H27.6748L24.3467 26.167L24.3213 26.2949L24.2646 26.4131L23.0146 28.9854H8.98535L7.73535 26.4131L7.67871 26.2949L7.65332 26.167L4.3252 9.05078H2.02832V7.05078H11.0088V5.4043L11.1055 5.2002L12.1465 3.01465H19.8652ZM9.5918 25.6562L10.2373 26.9854H21.7627L22.4082 25.6562L25.6377 9.05078H6.3623L9.5918 25.6562ZM13.0088 5.85645V7.05078H19.0029V5.85645L18.6025 5.01465H13.4092L13.0088 5.85645Z" fill="#001D21" />
</svg>