<svg xmlns="http://www.w3.org/2000/svg" width="32" height="32" viewBox="0 0 32 32" fill="none">
<path d="M6.98145 12.2383L9.5918 25.6562L10.2373 26.9854H21.7285L23.248 28.5049L23.0146 28.9854H8.98535L7.73535 26.4131L7.67871 26.2949L7.65332 26.167L4.45312 9.70898L6.98145 12.2383Z" fill="#001D21" />
<path d="M27.9688 27.5684L26.5547 28.9824L3.97461 6.40234L5.38867 4.98828L27.9688 27.5684Z" fill="#001D21" />
<path fill-rule="evenodd" clip-rule="evenodd" d="M20.9062 5.2002L21.0029 5.4043V7.05078H29.9717V9.05078H27.6748L25.168 21.9385L23.4619 20.2334L25.6377 9.05078H12.2793L10.2793 7.05078H11.0088V5.4043L11.1055 5.2002L12.1465 3.01465H19.8652L20.9062 5.2002ZM13.0088 5.85645V7.05078H19.0029V5.85645L18.6025 5.01465H13.4092L13.0088 5.85645Z" fill="#001D21" />
<path d="M3.79492 9.05078H2.02832V7.28418L3.79492 9.05078Z" fill="#001D21" />
</svg>