<svg xmlns="http://www.w3.org/2000/svg" width="32" height="32" viewBox="0 0 32 32" fill="none">
<path fill-rule="evenodd" clip-rule="evenodd" d="M16 22.0605C17.0995 22.0605 17.9909 22.9595 17.9911 24.0681C17.9911 25.1769 17.0997 26.0757 16 26.0757C14.9003 26.0757 14.0089 25.1769 14.0089 24.0681C14.0091 22.9595 14.9005 22.0605 16 22.0605ZM9.61931 19.6589C13.1429 16.1061 18.8571 16.1061 22.3807 19.6589L20.9729 21.0783C18.2269 18.3096 13.7731 18.3096 11.0271 21.0783L9.61931 19.6589ZM5.78389 15.7702C11.4261 10.0816 20.5739 10.0816 26.2161 15.7702L24.8083 17.1896C19.9437 12.285 12.0563 12.285 7.19167 17.1896L5.78389 15.7702ZM2 11.9226C9.73213 4.1267 22.2679 4.1267 30 11.9226L28.5922 13.3421C21.6377 6.33013 10.3623 6.33013 3.40778 13.3421L2 11.9226Z" fill="#001D21" />
</svg>