<svg xmlns="http://www.w3.org/2000/svg" width="32" height="32" viewBox="0 0 32 32" fill="none">
<path d="M27.9463 26.584L26.5381 28L4.07422 5.41504L5.48145 4L27.9463 26.584ZM16 21.9697C17.0995 21.9697 17.991 22.8663 17.9912 23.9717C17.9912 25.0772 17.0996 25.9736 16 25.9736C14.9004 25.9736 14.0088 25.0772 14.0088 23.9717C14.009 22.8663 14.9005 21.9697 16 21.9697ZM14.8301 19.0195C13.4376 19.2544 12.1016 19.9104 11.0273 20.9902L9.61914 19.5752C10.6564 18.5324 11.8843 17.798 13.1895 17.3691L14.8301 19.0195ZM10.542 14.708C9.33171 15.3009 8.19681 16.1026 7.19141 17.1133L5.78418 15.6982C6.78109 14.6961 7.88733 13.8707 9.06445 13.2227L10.542 14.708ZM15.6162 11.4492C19.4405 11.3477 23.2971 12.7642 26.2158 15.6982L24.8086 17.1133C22.8151 15.1093 20.3135 13.9269 17.7207 13.5654L15.6162 11.4492ZM6.58789 10.7334C5.45792 11.4418 4.39021 12.2902 3.4082 13.2773L2 11.8623C2.97852 10.8786 4.03455 10.0189 5.14746 9.28418L6.58789 10.7334ZM10.8936 6.70215C17.4934 4.93803 24.8234 6.65826 30 11.8623L28.5918 13.2773C24.2333 8.89587 18.1782 7.25977 12.5527 8.37012L10.8936 6.70215Z" fill="#001D21" />
</svg>